<?xml version="1.0" encoding="UTF-8" standalone="no"?>
<!DOCTYPE svg PUBLIC "-//W3C//DTD SVG 20010904//EN"
"http://www.w3.org/TR/2001/REC-SVG-20010904/DTD/svg10.dtd">
<!-- Created with Inkscape (http://www.inkscape.org/) -->
<svg
   version="1.0"
   x="0.0000000"
   y="0.0000000"
   width="143.75000"
   height="143.75000"
   id="svg1978"
   xmlns="http://www.w3.org/2000/svg"
   xmlns:xlink="http://www.w3.org/1999/xlink"
   xmlns:sodipodi="http://sodipodi.sourceforge.net/DTD/sodipodi-0.dtd"
   xmlns:inkscape="http://www.inkscape.org/namespaces/inkscape"
   sodipodi:version="0.32"
   inkscape:version="0.40"
   xmlns:rdf="http://www.w3.org/1999/02/22-rdf-syntax-ns#"
   xmlns:cc="http://web.resource.org/cc/"
   xmlns:dc="http://purl.org/dc/elements/1.1/"
   sodipodi:docname="black-king.svg"
   sodipodi:docbase="/home/daniel/Desktop/Projects/chessmonk/Data">
  <metadata
     id="metadata1809">
    <rdf:RDF
       id="RDF1810">
      <cc:Work
         rdf:about=""
         id="Work1811">
        <dc:format
           id="format1812">image/svg+xml</dc:format>
        <dc:type
           id="type1814"
           rdf:resource="http://purl.org/dc/dcmitype/StillImage" />
      </cc:Work>
    </rdf:RDF>
  </metadata>
  <sodipodi:namedview
     id="base"
     pagecolor="#ffffff"
     bordercolor="#666666"
     borderopacity="1.0"
     inkscape:pageopacity="0.0"
     inkscape:pageshadow="2"
     inkscape:zoom="1.7366334"
     inkscape:cx="117.57688"
     inkscape:cy="77.984090"
     inkscape:window-width="640"
     inkscape:window-height="562"
     inkscape:window-x="215"
     inkscape:window-y="85"
     inkscape:current-layer="svg1978" />
  <defs
     id="defs3">
    <linearGradient
       id="linearGradient1689">
      <stop
         style="stop-color:#b2b2b2;stop-opacity:1.0000000;"
         offset="0.0000000"
         id="stop1690" />
      <stop
         style="stop-color:#ffffff;stop-opacity:1.0000000;"
         offset="1.0000000"
         id="stop1691" />
    </linearGradient>
    <linearGradient
       x1="525.65900"
       y1="373.33026"
       x2="623.93005"
       y2="373.33026"
       id="linearGradient1766"
       xlink:href="#linearGradient1689"
       gradientUnits="userSpaceOnUse"
       gradientTransform="scale(1.160057,0.862027)" />
    <linearGradient
       x1="320.94125"
       y1="425.24084"
       x2="443.43933"
       y2="425.24084"
       id="linearGradient3810"
       xlink:href="#linearGradient3006"
       gradientUnits="userSpaceOnUse"
       gradientTransform="matrix(1.001628,0.000000,0.000000,0.998375,283.6357,-110.2302)" />
    <linearGradient
       id="linearGradient3006">
      <stop
         style="stop-color:#000000;stop-opacity:1.0000000;"
         offset="0.0000000"
         id="stop3007" />
      <stop
         style="stop-color:#4e4e4e;stop-opacity:1.0000000;"
         offset="1.0000000"
         id="stop3008" />
    </linearGradient>
    <linearGradient
       x1="156.32828"
       y1="74.637535"
       x2="255.44855"
       y2="74.637535"
       id="linearGradient3129"
       xlink:href="#linearGradient3006"
       gradientUnits="userSpaceOnUse"
       gradientTransform="matrix(0.890868,0.000000,0.000000,1.122500,-85.78359,1.064045)" />
    <linearGradient
       x1="320.94125"
       y1="425.24084"
       x2="443.43933"
       y2="425.24084"
       id="linearGradient2049"
       xlink:href="#linearGradient3006"
       gradientUnits="userSpaceOnUse"
       gradientTransform="matrix(1.001628,0.000000,0.000000,0.998375,283.6357,-110.2302)" />
  </defs>
  <path
     d="M 56.182861,136.21087 C 47.874731,134.71633 38.492291,132.10789 36.182861,130.65061 C 35.003751,129.90658 34.612041,126.89771 34.351801,116.58583 L 34.020751,103.46756 L 26.698991,96.512609 C 21.959121,92.010189 18.285061,87.423719 16.280041,83.506229 C 13.265761,77.616779 12.903071,73.648129 14.105921,70.174829 C 16.602351,59.696399 21.334651,57.210729 27.070011,53.839059 C 31.782191,51.900539 32.732151,51.127279 40.271151,51.127279 C 47.596391,51.439779 49.247851,52.228109 54.400101,54.299149 C 57.431831,55.774149 59.735851,57.627279 60.249311,57.627279 C 60.762761,57.627279 61.495361,53.961649 61.495361,51.486649 C 61.651611,48.230399 64.522561,41.173139 69.333661,39.019119 C 71.949961,37.666179 73.182861,36.077389 73.182861,31.661969 L 73.182861,26.748009 L 69.432861,26.437639 C 66.452981,26.191019 65.682861,25.716549 65.682861,24.127279 C 65.682861,22.543949 66.451811,22.063349 69.373741,21.820439 C 72.716361,21.542549 73.093791,21.212299 73.373741,18.320439 C 73.792901,13.990609 76.572821,13.990609 76.991981,18.320439 C 77.271931,21.212299 77.649361,21.542549 80.991981,21.820439 C 83.913911,22.063349 84.682861,22.543949 84.682861,24.127279 C 84.682861,25.716549 83.912741,26.191019 80.932861,26.437639 L 77.182861,26.748009 L 77.204501,31.937639 C 77.224671,36.773769 77.441901,37.229459 80.393461,38.627279 C 85.297411,40.949729 87.325381,44.533689 87.918811,51.926589 C 88.509671,59.287389 88.211501,59.206089 96.472661,54.258929 C 102.74049,50.505479 111.69872,49.641449 119.04576,52.081739 C 129.71563,55.782329 132.75009,61.771819 134.53506,66.397519 C 138.51730,76.717399 135.30407,85.580969 123.62744,96.485639 L 116.22250,103.40104 L 115.61161,116.26416 C 115.25188,123.83887 114.52425,129.61954 113.84179,130.32462 C 113.20438,130.98315 108.18286,132.70704 102.68286,134.15548 C 90.346641,137.40425 68.247111,138.38109 56.182861,136.21087 z "
     style="fill:#000000;fill-opacity:0.25098041;"
     id="path1816" />
  <g
     id="layer1">
    <path
       d="M 647.81768,374.30781 C 639.50955,372.81327 630.12711,370.20483 627.81768,368.74755 C 626.63857,368.00352 626.24686,364.99465 625.98662,354.68277 L 625.65557,341.56450 L 618.33381,334.60955 C 613.59394,330.10713 609.91988,325.52066 607.91486,321.60317 C 604.90058,315.71372 604.53789,311.74507 605.74074,308.27177 C 608.23717,297.79334 612.96947,295.30767 618.70483,291.93600 C 623.41701,289.99748 624.36697,289.22422 631.90597,289.22422 C 639.23121,289.53672 640.88267,290.32505 646.03492,292.39609 C 649.06665,293.87109 651.37067,295.72422 651.88413,295.72422 C 652.39758,295.72422 653.13018,292.05859 653.13018,289.58359 C 653.28643,286.32734 656.15738,279.27008 660.96848,277.11606 C 663.58478,275.76312 664.81768,274.17433 664.81768,269.75891 L 664.81768,264.84495 L 661.06768,264.53458 C 658.08780,264.28796 657.31768,263.81349 657.31768,262.22422 C 657.31768,260.64089 658.08663,260.16029 661.00856,259.91738 C 664.35118,259.63949 664.72861,259.30924 665.00856,256.41738 C 665.42772,252.08755 668.20764,252.08755 668.62680,256.41738 C 668.90675,259.30924 669.28418,259.63949 672.62680,259.91738 C 675.54873,260.16029 676.31768,260.64089 676.31768,262.22422 C 676.31768,263.81349 675.54756,264.28796 672.56768,264.53458 L 668.81768,264.84495 L 668.83932,270.03458 C 668.85949,274.87071 669.07672,275.32640 672.02828,276.72422 C 676.93223,279.04667 678.96020,282.63063 679.55363,290.02353 C 680.14449,297.38433 679.84632,297.30303 688.10748,292.35587 C 694.37531,288.60242 703.33354,287.73839 710.68058,290.17868 C 721.35045,293.87927 724.38491,299.86876 726.16988,304.49446 C 730.15212,314.81434 726.93889,323.67791 715.26226,334.58258 L 707.85732,341.49798 L 707.24643,354.36110 C 706.88670,361.93581 706.15907,367.71648 705.47661,368.42156 C 704.83920,369.08009 699.81768,370.80398 694.31768,372.25242 C 681.98146,375.50119 659.88193,376.47803 647.81768,374.30781 z "
       transform="translate(-595.1781,-241.6402)"
       style="fill:url(#linearGradient2049);fill-opacity:1.0000000"
       id="path3802" />
    <path
       d="M 633.28899,363.45563 C 631.93138,361.25897 635.42867,359.36871 644.09769,357.61362 C 666.52058,354.00128 670.16193,354.44322 689.49123,357.61362 C 698.26555,359.39003 702.13834,361.52059 700.17036,363.48857 C 699.45250,364.20643 697.30590,364.05133 693.21637,362.98615 C 675.59868,358.39732 654.00028,358.78589 636.15732,364.01267 C 634.94211,364.36864 633.70475,364.12834 633.28899,363.45563 z M 633.53225,352.86892 C 631.70109,351.03777 633.19387,349.57032 638.04446,348.43325 C 662.36613,343.77889 672.32723,343.70884 695.79446,348.63725 C 700.74242,350.09659 702.17055,353.07825 697.79446,352.81286 C 691.26225,352.41671 680.52499,349.72589 674.55803,349.36514 C 670.54081,348.64031 665.03684,348.86128 659.03089,349.36514 C 654.42983,349.86050 638.16397,352.71478 636.78225,353.03127 C 635.40053,353.34776 633.93803,353.27471 633.53225,352.86892 z M 623.70205,332.02126 C 613.59171,323.54472 609.79446,317.78795 609.79446,310.93683 C 609.79446,306.53910 610.33232,304.57891 613.33775,300.64281 C 617.85448,294.72743 621.63270,293.28055 629.95777,292.68490 C 643.12834,291.74255 654.31815,299.02598 660.21580,311.65197 C 661.85119,314.25197 662.73277,317.40211 663.86756,320.70090 C 664.37736,322.74969 664.79446,324.24344 664.79446,326.45090 C 664.79446,329.79780 665.12667,330.46447 666.79446,330.46447 C 668.46638,330.46447 668.79446,329.79780 668.79446,326.40039 C 668.79446,322.78109 670.02379,319.35370 675.50284,307.69742 C 677.70261,303.01757 686.01864,295.91682 691.47840,294.05650 C 697.38440,292.04412 705.28444,292.02042 710.89026,293.99827 C 715.12301,295.49167 716.82571,296.78802 719.95071,300.95128 C 722.29446,304.68666 723.79446,306.79780 723.79446,310.72782 C 723.79446,317.71638 719.84411,323.67295 709.52456,332.10536 C 706.96603,334.19601 704.29701,338.49637 701.51751,338.81925 C 699.42603,338.64466 697.77649,338.02812 695.90598,337.63256 C 683.31924,334.97080 667.32043,334.08393 654.43227,335.33358 C 647.61224,335.99485 640.51919,336.96982 638.66994,337.50018 C 632.99081,339.12893 631.55112,338.60194 623.70205,332.02126 z M 644.78346,331.91004 C 650.01451,331.12146 661.77369,331.33129 660.40474,326.31932 C 657.32843,309.41219 647.13318,298.82152 635.10786,296.89859 C 629.13733,295.94387 620.79589,297.63639 617.94025,301.28030 C 615.03383,304.14409 614.16806,306.76230 613.79883,308.88673 C 613.30167,311.53679 614.22000,313.70381 615.77734,316.79298 C 618.39824,321.99187 631.70369,334.61336 633.78346,333.87351 C 634.60240,333.58218 639.55240,332.69862 644.78346,331.91004 z M 709.02108,327.20440 C 714.56380,322.01081 716.93096,319.04587 718.05899,316.49350 C 718.85754,313.60115 719.82496,311.12027 717.92306,306.46036 C 715.00439,300.44174 713.72001,299.92529 707.94804,298.01196 C 699.56210,295.23212 692.69165,297.00685 684.37710,304.10063 C 680.23014,307.63872 674.79430,318.12043 673.96308,321.57697 C 673.47893,322.82322 673.42533,324.16797 673.03668,326.19725 C 672.47386,329.33820 673.58974,330.16721 683.95667,331.33538 C 689.64245,331.97607 695.64446,332.90353 697.29446,333.39642 C 698.94446,333.88930 700.51946,334.32671 700.79446,334.36845 C 701.06946,334.41018 704.77144,331.18636 709.02108,327.20440 z M 665.79446,313.12705 C 665.79446,312.39147 663.94035,308.09708 661.67420,303.58396 C 657.99583,296.25833 657.60255,294.79222 658.00711,289.91369 C 658.58724,282.91819 661.49167,279.46447 666.79446,279.46447 C 672.06759,279.46447 675.00216,282.92388 675.57351,289.81363 C 675.96704,294.55914 675.54388,296.13614 671.90642,303.47995 C 669.64484,308.04592 667.79446,312.38534 667.79446,313.12310 C 667.79446,313.86085 667.34446,314.46447 666.79446,314.46447 C 666.24446,314.46447 665.79446,313.86263 665.79446,313.12705 z M 669.61620,298.64472 C 672.20833,292.90920 672.31380,290.81278 670.22122,286.61811 C 667.06943,280.30020 661.79446,283.46260 661.79446,291.67004 C 661.79446,294.67894 665.51816,303.46447 666.79346,303.46447 C 667.14793,303.46447 668.41816,301.29558 669.61620,298.64472 z "
       transform="translate(-595.1781,-241.6402)"
       style="fill:url(#linearGradient1766);fill-opacity:1.0000000"
       id="path3799" />
  </g>
</svg>
