<?xml version="1.0" encoding="UTF-8" standalone="no"?>
<!DOCTYPE svg PUBLIC "-//W3C//DTD SVG 20010904//EN"
"http://www.w3.org/TR/2001/REC-SVG-20010904/DTD/svg10.dtd">
<!-- Created with Inkscape (http://www.inkscape.org/) -->
<svg
   version="1.0"
   x="0.0000000"
   y="0.0000000"
   width="115.00000pt"
   height="115.00000pt"
   id="svg1710"
   sodipodi:version="0.32"
   inkscape:version="0.40"
   sodipodi:docname="black-knight.svg"
   sodipodi:docbase="/home/daniel/Desktop/Projects/chessmonk/Data"
   xmlns="http://www.w3.org/2000/svg"
   xmlns:cc="http://web.resource.org/cc/"
   xmlns:inkscape="http://www.inkscape.org/namespaces/inkscape"
   xmlns:sodipodi="http://sodipodi.sourceforge.net/DTD/sodipodi-0.dtd"
   xmlns:rdf="http://www.w3.org/1999/02/22-rdf-syntax-ns#"
   xmlns:dc="http://purl.org/dc/elements/1.1/"
   xmlns:xlink="http://www.w3.org/1999/xlink">
  <metadata
     id="metadata4739">
    <rdf:RDF
       id="RDF4740">
      <cc:Work
         rdf:about=""
         id="Work4741">
        <dc:format
           id="format4742">image/svg+xml</dc:format>
        <dc:type
           id="type4744"
           rdf:resource="http://purl.org/dc/dcmitype/StillImage" />
      </cc:Work>
    </rdf:RDF>
  </metadata>
  <sodipodi:namedview
     id="base"
     pagecolor="#ffffff"
     bordercolor="#666666"
     borderopacity="1.0"
     inkscape:pageopacity="0.0"
     inkscape:pageshadow="2"
     inkscape:zoom="3.4732669"
     inkscape:cx="57.412559"
     inkscape:cy="58.014967"
     inkscape:window-width="640"
     inkscape:window-height="562"
     inkscape:window-x="204"
     inkscape:window-y="301"
     inkscape:current-layer="svg1710" />
  <defs
     id="defs3">
    <linearGradient
       id="linearGradient5468">
      <stop
         style="stop-color:#b2b2b2;stop-opacity:1.0000000;"
         offset="0.0000000"
         id="stop5469" />
      <stop
         style="stop-color:#ffffff;stop-opacity:1.0000000;"
         offset="1.0000000"
         id="stop5470" />
    </linearGradient>
    <linearGradient
       inkscape:collect="always"
       xlink:href="#linearGradient5468"
       id="linearGradient1742"
       gradientTransform="scale(1.031822,0.969160)"
       x1="285.14542"
       y1="346.39252"
       x2="386.76529"
       y2="346.39252"
       gradientUnits="userSpaceOnUse" />
    <linearGradient
       id="linearGradient3581">
      <stop
         style="stop-color:#000000;stop-opacity:1.0000000;"
         offset="0.0000000"
         id="stop3582" />
      <stop
         style="stop-color:#4e4e4e;stop-opacity:1.0000000;"
         offset="1.0000000"
         id="stop3583" />
    </linearGradient>
    <linearGradient
       x1="318.60419"
       y1="310.78156"
       x2="438.45032"
       y2="310.78156"
       id="linearGradient3574"
       xlink:href="#linearGradient3581"
       gradientUnits="userSpaceOnUse"
       gradientTransform="matrix(0.998937,0.000000,0.000000,1.001064,-31.64261,17.34942)" />
    <linearGradient
       inkscape:collect="always"
       xlink:href="#linearGradient3581"
       id="linearGradient6104"
       gradientUnits="userSpaceOnUse"
       gradientTransform="matrix(0.998937,0.000000,0.000000,1.001064,-31.64261,17.34942)"
       x1="318.60419"
       y1="310.78156"
       x2="438.45032"
       y2="310.78156" />
    <linearGradient
       inkscape:collect="always"
       xlink:href="#linearGradient5468"
       id="linearGradient6105"
       gradientUnits="userSpaceOnUse"
       gradientTransform="scale(1.031822,0.969160)"
       x1="285.14542"
       y1="346.39252"
       x2="386.76529"
       y2="346.39252" />
    <linearGradient
       inkscape:collect="always"
       xlink:href="#linearGradient3581"
       id="linearGradient2038"
       gradientUnits="userSpaceOnUse"
       gradientTransform="matrix(0.998937,0.000000,0.000000,1.001064,-31.64261,17.34942)"
       x1="318.60419"
       y1="310.78156"
       x2="438.45032"
       y2="310.78156" />
    <linearGradient
       inkscape:collect="always"
       xlink:href="#linearGradient5468"
       id="linearGradient2039"
       gradientUnits="userSpaceOnUse"
       gradientTransform="scale(1.031822,0.969160)"
       x1="285.14542"
       y1="346.39252"
       x2="386.76529"
       y2="346.39252" />
  </defs>
  <path
     d="M 46.559494,136.02310 C 45.270964,134.73457 45.956444,128.14640 47.801854,124.08281 C 49.685864,119.93422 60.143624,105.16738 61.646904,104.53295 C 62.094154,104.34420 64.597044,101.39249 67.208884,97.973584 C 72.089374,91.585014 74.892824,85.359104 74.892824,80.909064 C 74.892824,78.561254 74.766974,78.493694 73.138584,79.967364 C 72.173744,80.840534 67.786244,83.235994 63.388584,85.290614 C 53.723614,89.806164 47.554464,94.577014 43.872094,100.38351 C 39.129634,107.86159 33.779024,110.66742 30.892824,107.18977 C 30.208134,106.36477 28.240534,105.68907 26.520384,105.68822 C 22.304124,105.68612 16.716144,102.75035 15.102854,99.689774 C 13.377524,96.416634 14.183204,84.982224 16.453944,80.514784 C 17.383474,78.686034 20.042074,74.489774 22.361944,71.189774 C 26.934394,64.685474 29.411574,58.680114 30.355894,51.810224 C 30.888604,47.934764 36.520164,37.656154 38.925164,36.169784 C 39.384654,35.885804 39.502954,31.676744 39.188064,26.816324 C 38.781104,20.534894 38.958724,17.767084 39.802204,17.245774 C 41.179704,16.394434 51.045104,22.893604 54.365844,26.840084 C 55.592674,28.298084 57.006694,29.198214 57.508134,28.840384 C 58.009564,28.482544 60.176054,25.602274 62.322544,22.439774 C 64.561684,19.140774 66.966424,16.689774 67.964024,16.689774 C 69.993604,16.689774 74.892824,24.492454 74.892824,27.724834 C 74.892824,29.136674 75.365214,29.722474 76.234684,29.388834 C 78.164144,28.648424 89.857254,31.044404 93.392824,32.904634 C 100.97612,36.894544 109.24219,44.149764 114.90265,51.784024 C 118.20170,56.233454 121.19626,61.069974 121.55722,62.531834 C 121.91819,63.993704 123.44069,67.889774 124.94056,71.189774 C 129.52706,81.280954 133.88974,109.12614 133.89198,128.32314 C 133.89275,134.87572 133.70963,135.50560 131.64282,136.05948 C 128.55227,136.88772 47.389404,136.85301 46.559494,136.02310 z "
     id="path2036"
     sodipodi:nodetypes="cccccccccccccccccccccccccccccc"
     style="fill:#000000;fill-opacity:0.25098041;stroke:none;stroke-opacity:1.0000000" />
  <g
     id="g6100"
     transform="translate(-1.391966e-7,-1.771633)">
    <path
       d="M 319.00921,387.80813 C 317.72068,386.51960 318.40616,379.93143 320.25157,375.86784 C 322.13558,371.71925 332.59334,356.95241 334.09662,356.31798 C 334.54387,356.12923 337.04676,353.17752 339.65860,349.75861 C 344.53909,343.37004 347.34254,337.14413 347.34254,332.69409 C 347.34254,330.34628 347.21669,330.27872 345.58830,331.75239 C 344.62346,332.62556 340.23596,335.02102 335.83830,337.07564 C 326.17333,341.59119 320.00418,346.36204 316.32181,352.16854 C 311.57935,359.64662 306.22874,362.45245 303.34254,358.97480 C 302.65785,358.14980 300.69025,357.47410 298.97010,357.47325 C 294.75384,357.47115 289.16586,354.53538 287.55257,351.47480 C 285.82724,348.20166 286.63292,336.76725 288.90366,332.29981 C 289.83319,330.47106 292.49179,326.27480 294.81166,322.97480 C 299.38411,316.47050 301.86129,310.46514 302.80561,303.59525 C 303.33832,299.71979 308.96988,289.44118 311.37488,287.95481 C 311.83437,287.67083 311.95267,283.46177 311.63778,278.60135 C 311.23082,272.31992 311.40844,269.55211 312.25192,269.03080 C 313.62942,268.17946 323.49482,274.67863 326.81556,278.62511 C 328.04239,280.08311 329.45641,280.98324 329.95785,280.62541 C 330.45928,280.26757 332.62577,277.38730 334.77226,274.22480 C 337.01140,270.92580 339.41614,268.47480 340.41374,268.47480 C 342.44332,268.47480 347.34254,276.27748 347.34254,279.50986 C 347.34254,280.92170 347.81493,281.50750 348.68440,281.17386 C 350.61386,280.43345 362.30697,282.82943 365.84254,284.68966 C 373.42584,288.67957 381.69191,295.93479 387.35237,303.56905 C 390.65142,308.01848 393.64598,312.85500 394.00694,314.31686 C 394.36791,315.77873 395.89041,319.67480 397.39028,322.97480 C 401.97678,333.06598 406.33946,360.91117 406.34170,380.10817 C 406.34247,386.66075 406.15935,387.29063 404.09254,387.84451 C 401.00199,388.67275 319.83912,388.63804 319.00921,387.80813 z "
       id="path3568"
       sodipodi:nodetypes="cccccccccccccccccccccccccccccc"
       style="fill:url(#linearGradient6104);fill-opacity:1.0000000;stroke:none;stroke-opacity:1.0000000"
       transform="translate(-275.9930,-253.5567)" />
    <path
       d="M 393.53074,382.77665 C 391.82038,380.89952 391.36650,378.62086 390.79193,369.02665 C 389.94005,354.80190 388.43085,342.40801 387.28138,340.19722 C 386.80365,339.27841 385.43391,334.70165 384.23751,330.02665 C 378.90490,309.18917 368.32271,295.02736 355.73223,291.87894 C 350.13586,290.47949 346.68855,288.17033 348.09542,286.76346 C 349.36922,285.48966 360.74003,288.54816 365.83820,291.53588 C 371.22570,294.69317 382.55618,306.95223 385.05708,312.32985 C 392.76452,328.90288 393.08562,329.84234 395.67902,343.40669 C 397.45568,352.69919 399.74235,381.25490 398.88809,383.48109 C 398.04608,385.67533 395.91681,385.39536 393.53074,382.77665 z M 303.23597,353.27665 C 303.23802,352.86415 304.22517,350.95165 305.42963,349.02665 C 307.17103,346.24350 307.69925,345.89514 308.00868,347.32582 C 308.43675,349.30500 305.75947,354.02665 304.20918,354.02665 C 303.67186,354.02665 303.23391,353.68915 303.23597,353.27665 z M 294.89890,345.35998 C 293.64882,344.10991 294.22804,339.27502 295.78242,337.98500 C 297.06062,336.92419 297.61305,336.97890 298.93097,338.29682 C 300.29443,339.66028 300.34270,340.34573 299.25946,342.96091 C 298.05089,345.87865 296.35216,346.81325 294.89890,345.35998 z M 348.23223,324.68029 C 348.23223,323.93979 348.95917,321.87673 349.84766,320.09572 C 351.04531,317.69498 351.75435,317.14877 352.58930,317.98372 C 353.39564,318.79006 353.40658,319.31113 352.62784,319.81829 C 352.02962,320.20789 351.23731,321.76415 350.86715,323.27665 C 350.18052,326.08223 348.23223,327.12010 348.23223,324.68029 z M 312.23223,307.92665 C 312.23223,303.63969 317.84527,298.02665 322.13223,298.02665 C 323.83723,298.02665 325.23223,298.47665 325.23223,299.02665 C 325.23223,299.57665 324.33223,300.02665 323.23223,300.02665 C 322.10075,300.02665 321.23223,300.69332 321.23223,301.56183 C 321.23223,304.10514 318.12950,308.02665 316.11722,308.02665 C 315.08048,308.02665 314.23223,308.70165 314.23223,309.52665 C 314.23223,310.35165 313.78223,311.02665 313.23223,311.02665 C 312.68223,311.02665 312.23223,309.63165 312.23223,307.92665 z M 319.40891,291.43037 C 319.97284,288.64621 333.23223,285.32473 333.23223,287.96763 C 333.23223,289.17333 331.60350,290.20102 327.23223,291.75350 C 322.23256,293.52915 319.01075,293.39608 319.40891,291.43037 z "
       id="path3565"
       sodipodi:nodetypes="cccccccccccccccccccccccccccccccccccccccc"
       style="fill:url(#linearGradient6105);fill-opacity:1.0000000"
       transform="translate(-275.9930,-253.5567)" />
  </g>
</svg>
