<?xml version="1.0" encoding="UTF-8" standalone="no"?>
<!DOCTYPE svg PUBLIC "-//W3C//DTD SVG 20010904//EN"
"http://www.w3.org/TR/2001/REC-SVG-20010904/DTD/svg10.dtd">
<!-- Created with Inkscape (http://www.inkscape.org/) -->
<svg
   version="1.0"
   x="0.0000000"
   y="0.0000000"
   width="115.00000pt"
   height="115.00000pt"
   id="svg1710"
   sodipodi:version="0.32"
   inkscape:version="0.40"
   sodipodi:docname="black-queen.svg"
   sodipodi:docbase="/home/daniel/Desktop/Projects/chessmonk/Data"
   xmlns="http://www.w3.org/2000/svg"
   xmlns:cc="http://web.resource.org/cc/"
   xmlns:inkscape="http://www.inkscape.org/namespaces/inkscape"
   xmlns:sodipodi="http://sodipodi.sourceforge.net/DTD/sodipodi-0.dtd"
   xmlns:rdf="http://www.w3.org/1999/02/22-rdf-syntax-ns#"
   xmlns:dc="http://purl.org/dc/elements/1.1/"
   xmlns:xlink="http://www.w3.org/1999/xlink">
  <metadata
     id="metadata2180">
    <rdf:RDF
       id="RDF2181">
      <cc:Work
         rdf:about=""
         id="Work2182">
        <dc:format
           id="format2183">image/svg+xml</dc:format>
        <dc:type
           id="type2185"
           rdf:resource="http://purl.org/dc/dcmitype/StillImage" />
      </cc:Work>
    </rdf:RDF>
  </metadata>
  <sodipodi:namedview
     id="base"
     pagecolor="#ffffff"
     bordercolor="#666666"
     borderopacity="1.0"
     inkscape:pageopacity="0.0"
     inkscape:pageshadow="2"
     inkscape:zoom="2.4559706"
     inkscape:cx="28.617816"
     inkscape:cy="61.318563"
     inkscape:window-width="640"
     inkscape:window-height="562"
     inkscape:window-x="212"
     inkscape:window-y="221"
     inkscape:current-layer="svg1710" />
  <defs
     id="defs3">
    <linearGradient
       inkscape:collect="always"
       xlink:href="#linearGradient1689"
       id="linearGradient1754"
       gradientTransform="scale(1.865806,0.535961)"
       x1="86.606918"
       y1="867.90997"
       x2="125.17132"
       y2="867.90997"
       gradientUnits="userSpaceOnUse" />
    <linearGradient
       id="linearGradient3006">
      <stop
         style="stop-color:#000000;stop-opacity:1.0000000;"
         offset="0.0000000"
         id="stop3007" />
      <stop
         style="stop-color:#4e4e4e;stop-opacity:1.0000000;"
         offset="1.0000000"
         id="stop3008" />
    </linearGradient>
    <linearGradient
       inkscape:collect="always"
       xlink:href="#linearGradient3006"
       id="linearGradient3629"
       gradientUnits="userSpaceOnUse"
       gradientTransform="matrix(1.036174,0.000000,0.000000,0.965089,-410.9926,-5.952233)"
       x1="522.10913"
       y1="453.90948"
       x2="653.36127"
       y2="453.90948" />
    <linearGradient
       id="linearGradient3684">
      <stop
         style="stop-color:#000000;stop-opacity:1.0000000;"
         offset="0.0000000"
         id="stop3685" />
      <stop
         style="stop-color:#4e4e4e;stop-opacity:1.0000000;"
         offset="1.0000000"
         id="stop3686" />
    </linearGradient>
    <linearGradient
       id="linearGradient1689">
      <stop
         style="stop-color:#b2b2b2;stop-opacity:1.0000000;"
         offset="0.0000000"
         id="stop1690" />
      <stop
         style="stop-color:#ffffff;stop-opacity:1.0000000;"
         offset="1.0000000"
         id="stop1691" />
    </linearGradient>
    <linearGradient
       x1="522.10913"
       y1="453.90948"
       x2="653.36127"
       y2="453.90948"
       id="linearGradient3687"
       xlink:href="#linearGradient3684"
       gradientUnits="userSpaceOnUse"
       gradientTransform="matrix(1.036174,0.000000,0.000000,0.965089,-410.9926,-5.952233)" />
    <linearGradient
       inkscape:collect="always"
       xlink:href="#linearGradient1689"
       id="linearGradient2267"
       gradientTransform="scale(1.035895,0.965349)"
       x1="324.48514"
       y1="215.37071"
       x2="456.73788"
       y2="215.37071"
       gradientUnits="userSpaceOnUse" />
    <linearGradient
       inkscape:collect="always"
       xlink:href="#linearGradient1689"
       id="linearGradient2278"
       gradientUnits="userSpaceOnUse"
       gradientTransform="scale(1.865806,0.535961)"
       x1="86.606918"
       y1="867.90997"
       x2="125.17132"
       y2="867.90997" />
    <linearGradient
       inkscape:collect="always"
       xlink:href="#linearGradient3684"
       id="linearGradient2279"
       gradientUnits="userSpaceOnUse"
       gradientTransform="matrix(1.036174,0.000000,0.000000,0.965089,-410.9926,-5.952233)"
       x1="522.10913"
       y1="453.90948"
       x2="653.36127"
       y2="453.90948" />
    <linearGradient
       inkscape:collect="always"
       xlink:href="#linearGradient3684"
       id="linearGradient4665"
       gradientUnits="userSpaceOnUse"
       gradientTransform="matrix(1.036174,0.000000,0.000000,0.965089,-410.9926,-5.952233)"
       x1="522.10913"
       y1="453.90948"
       x2="653.36127"
       y2="453.90948" />
    <linearGradient
       inkscape:collect="always"
       xlink:href="#linearGradient1689"
       id="linearGradient4666"
       gradientUnits="userSpaceOnUse"
       gradientTransform="scale(1.865806,0.535961)"
       x1="86.606918"
       y1="867.90997"
       x2="125.17132"
       y2="867.90997" />
  </defs>
  <path
     d="M 55.966335,138.11484 C 53.230305,137.86551 50.530305,137.28524 49.966335,136.82536 C 49.402375,136.36547 45.340945,135.66702 40.940945,135.27325 C 36.064045,134.83680 32.257765,133.95653 31.190945,133.01839 C 29.306095,131.36088 28.778155,125.31710 30.429075,124.29677 C 30.972555,123.96089 32.582295,121.69801 34.006285,119.26815 C 36.463185,115.07578 36.535515,114.55512 35.423095,109.06984 C 34.521915,104.62616 32.988255,101.62831 28.791075,96.106174 C 22.843785,88.281454 23.157755,89.454604 18.402635,57.289444 C 16.808295,46.504874 16.569045,45.789444 14.556755,45.789444 C 13.541405,45.789444 11.524975,44.856784 10.075805,43.716864 C 7.9499749,42.044684 7.4409449,40.802974 7.4409449,37.289444 C 7.4409449,33.775914 7.9499749,32.534204 10.075805,30.862024 C 13.971415,27.797734 18.942925,28.137574 22.517865,31.712524 C 25.899895,35.094554 26.255425,38.562044 23.561285,41.889164 C 21.710055,44.175324 21.717625,44.267474 24.061285,47.980074 C 25.370095,50.053364 26.440945,52.138874 26.440945,52.614534 C 26.440945,53.090194 28.214395,56.223244 30.381945,59.576864 C 32.549495,62.930494 35.577505,68.236504 37.110855,71.368004 L 39.898755,77.061644 L 40.553025,73.675544 C 40.912875,71.813184 41.460405,62.304684 41.769745,52.545524 C 42.303295,35.713334 42.232755,34.748394 40.396915,33.765884 C 38.084085,32.528094 35.440945,27.726194 35.440945,24.762184 C 35.440945,23.592564 36.756325,21.320214 38.364025,19.712524 C 42.294035,15.782514 46.587855,15.782514 50.517865,19.712524 C 54.116505,23.311154 54.247235,26.677764 50.940945,30.607074 C 48.050165,34.042564 47.906755,35.241634 49.924025,39.109264 C 51.484685,42.101434 58.417475,62.481964 58.474875,64.246434 C 58.493535,64.820084 59.378265,67.089444 60.440945,69.289444 C 61.503625,71.489444 62.435755,73.964444 62.512365,74.789444 C 62.588965,75.614444 64.765105,65.772424 67.348225,52.918294 L 72.044809,29.547154 L 69.242875,26.745224 C 65.437795,22.940144 65.481545,18.594994 69.364025,14.712520 C 73.294039,10.782510 77.587859,10.782510 81.517869,14.712520 C 83.423905,16.618564 84.440945,18.659244 84.440945,20.577664 C 84.440945,23.823124 81.089749,28.789444 78.899749,28.789444 C 77.567059,28.789444 77.618069,29.626504 79.204419,33.789444 C 79.518799,34.614444 81.640419,44.514444 83.919125,55.789444 L 88.062245,76.289444 L 89.440645,71.039444 C 90.198765,68.151944 91.183975,65.789444 91.629995,65.789444 C 92.076015,65.789444 92.440945,65.207584 92.440945,64.496434 C 92.440945,62.758724 99.242385,42.153074 101.21287,37.920974 C 102.21461,35.769524 102.44881,34.104044 101.86110,33.311244 C 97.556315,27.504214 97.235455,26.698334 97.873675,23.296344 C 98.596875,19.441354 102.30338,16.789444 106.96820,16.789444 C 110.23095,16.789444 115.44094,21.777124 115.44094,24.900644 C 115.44094,27.757484 111.54939,33.527824 109.21017,34.139544 C 107.81340,34.504804 107.44094,35.662104 107.44094,39.636804 C 107.44094,42.405844 107.89094,44.949524 108.44094,45.289444 C 109.02002,45.647334 109.44094,51.091494 109.44094,58.223464 C 109.44094,64.997254 109.72862,71.977854 110.08023,73.735914 L 110.71953,76.932394 L 113.69679,71.110914 C 115.33428,67.909104 118.12584,63.039444 119.90024,60.289444 C 121.67465,57.539444 124.37005,52.843704 125.89003,49.854474 C 128.51881,44.684644 128.57526,44.286844 127.04728,41.700184 C 124.68549,37.701984 125.06979,35.006754 128.48921,31.587324 C 131.18961,28.886934 132.01583,28.603214 135.72899,29.101254 C 140.91996,29.797504 143.44094,32.650104 143.44094,37.827644 C 143.44094,40.759754 142.83029,42.124614 140.80608,43.716864 C 139.35691,44.856784 137.34048,45.789444 136.32513,45.789444 C 134.14369,45.789444 134.29576,45.174984 130.88037,67.789444 C 127.99208,86.913844 126.96664,90.072584 121.46595,96.789444 C 116.58704,102.74705 116.55288,102.81659 115.37508,109.18790 C 114.49017,113.97480 114.61549,115.21126 116.32524,118.56266 C 117.40848,120.68598 119.00265,123.01073 119.86785,123.72878 C 121.98251,125.48380 121.87561,131.09722 119.69094,133.01839 C 118.62412,133.95653 114.81784,134.83680 109.94094,135.27325 C 105.54094,135.66702 101.38150,136.44681 100.69775,137.00611 C 99.399795,138.06782 64.848275,138.92422 55.966335,138.11484 z "
     id="path2256"
     sodipodi:nodetypes="ccccccccccccccccccccccccccccccccccccccccccccccccccccccccccccccccccccccccc"
     style="fill:#000000;fill-opacity:0.25098041;stroke:none;stroke-opacity:1.0000000" />
  <path
     d="M 178.52846,495.12575 C 175.79243,494.87642 173.09243,494.29615 172.52846,493.83627 C 171.96450,493.37638 167.90307,492.67793 163.50307,492.28416 C 158.62617,491.84771 154.81989,490.96744 153.75307,490.02930 C 151.86822,488.37179 151.34028,482.32801 152.99120,481.30768 C 153.53468,480.97180 155.14442,478.70892 156.56841,476.27906 C 159.02531,472.08669 159.09764,471.56603 157.98522,466.08075 C 157.08404,461.63707 155.55038,458.63922 151.35320,453.11708 C 145.40591,445.29236 145.71988,446.46551 140.96476,414.30035 C 139.37042,403.51578 139.13117,402.80035 137.11888,402.80035 C 136.10353,402.80035 134.08710,401.86769 132.63793,400.72777 C 130.51210,399.05559 130.00307,397.81388 130.00307,394.30035 C 130.00307,390.78682 130.51210,389.54511 132.63793,387.87293 C 136.53354,384.80864 141.50505,385.14848 145.07999,388.72343 C 148.46202,392.10546 148.81755,395.57295 146.12341,398.90007 C 144.27218,401.18623 144.27975,401.27838 146.62341,404.99098 C 147.93222,407.06427 149.00307,409.14978 149.00307,409.62544 C 149.00307,410.10110 150.77652,413.23415 152.94407,416.58777 C 155.11162,419.94140 158.13963,425.24741 159.67298,428.37891 L 162.46088,434.07255 L 163.11515,430.68645 C 163.47500,428.82409 164.02253,419.31559 164.33187,409.55643 C 164.86542,392.72424 164.79488,391.75930 162.95904,390.77679 C 160.64621,389.53900 158.00307,384.73710 158.00307,381.77309 C 158.00307,380.60347 159.31845,378.33112 160.92615,376.72343 C 164.85616,372.79342 169.14998,372.79342 173.07999,376.72343 C 176.67863,380.32206 176.80936,383.68867 173.50307,387.61798 C 170.61229,391.05347 170.46888,392.25254 172.48615,396.12017 C 174.04681,399.11234 180.97960,419.49287 181.03700,421.25734 C 181.05566,421.83099 181.94039,424.10035 183.00307,426.30035 C 184.06575,428.50035 184.99788,430.97535 185.07449,431.80035 C 185.15109,432.62535 187.32723,422.78333 189.91035,409.92920 L 194.60693,386.55806 L 191.80500,383.75613 C 187.99992,379.95105 188.04367,375.60590 191.92615,371.72343 C 195.85616,367.79342 200.14998,367.79342 204.07999,371.72343 C 205.98603,373.62947 207.00307,375.67015 207.00307,377.58857 C 207.00307,380.83403 203.65187,385.80035 201.46187,385.80035 C 200.12918,385.80035 200.18019,386.63741 201.76654,390.80035 C 202.08092,391.62535 204.20254,401.52535 206.48125,412.80035 L 210.62437,433.30035 L 212.00277,428.05035 C 212.76089,425.16285 213.74610,422.80035 214.19212,422.80035 C 214.63814,422.80035 215.00307,422.21849 215.00307,421.50734 C 215.00307,419.76963 221.80451,399.16398 223.77500,394.93188 C 224.77674,392.78043 225.01094,391.11495 224.42323,390.32215 C 220.11844,384.51512 219.79758,383.70924 220.43580,380.30725 C 221.15900,376.45226 224.86551,373.80035 229.53033,373.80035 C 232.79308,373.80035 238.00307,378.78803 238.00307,381.91155 C 238.00307,384.76839 234.11152,390.53873 231.77230,391.15045 C 230.37553,391.51571 230.00307,392.67301 230.00307,396.64771 C 230.00307,399.41675 230.45307,401.96043 231.00307,402.30035 C 231.58215,402.65824 232.00307,408.10240 232.00307,415.23437 C 232.00307,422.00816 232.29075,428.98876 232.64236,430.74682 L 233.28166,433.94330 L 236.25892,428.12182 C 237.89641,424.92001 240.68797,420.05035 242.46237,417.30035 C 244.23678,414.55035 246.93218,409.85461 248.45216,406.86538 C 251.08094,401.69555 251.13739,401.29775 249.60941,398.71109 C 247.24762,394.71289 247.63192,392.01766 251.05134,388.59823 C 253.75174,385.89784 254.57796,385.61412 258.29112,386.11216 C 263.48209,386.80841 266.00307,389.66101 266.00307,394.83855 C 266.00307,397.77066 265.39242,399.13552 263.36821,400.72777 C 261.91904,401.86769 259.90261,402.80035 258.88726,402.80035 C 256.70582,402.80035 256.85789,402.18589 253.44250,424.80035 C 250.55421,443.92475 249.52877,447.08349 244.02808,453.80035 C 239.14917,459.75796 239.11501,459.82750 237.93721,466.19881 C 237.05230,470.98571 237.17762,472.22217 238.88737,475.57357 C 239.97061,477.69689 241.56478,480.02164 242.42998,480.73969 C 244.54464,482.49471 244.43774,488.10813 242.25307,490.02930 C 241.18625,490.96744 237.37997,491.84771 232.50307,492.28416 C 228.10307,492.67793 223.94363,493.45772 223.25988,494.01702 C 221.96192,495.07873 187.41040,495.93513 178.52846,495.12575 z "
     id="path3628"
     sodipodi:nodetypes="ccccccccccccccccccccccccccccccccccccccccccccccccccccccccccccccccccccccccc"
     style="fill:url(#linearGradient4665);fill-opacity:1.0000000;stroke:none;stroke-opacity:1.0000000;"
     transform="translate(-126.1054,-360.5542)" />
  <path
     d="M 164.04816,474.38664 C 165.41614,470.10137 170.68177,470.40462 174.30215,469.86216 C 191.25154,467.92141 208.45794,468.23918 225.36406,470.44365 C 228.60328,469.91753 234.32982,473.71572 228.72120,475.25641 C 207.70890,472.15199 186.18405,472.26855 165.18162,475.49720 C 164.59348,475.54853 163.89846,475.03545 164.04816,474.38664 z M 161.59171,461.72338 C 161.60326,458.18166 167.31233,457.41192 170.82084,456.84455 C 177.87555,455.64090 185.35679,455.49682 192.63024,455.11022 C 203.53127,454.58958 213.14684,454.69859 223.33497,456.30833 C 227.73406,457.14729 234.02609,457.71833 233.51627,461.20205 C 230.62402,463.78290 226.50936,461.62800 223.15294,461.32998 C 217.43221,460.50527 214.77297,460.54483 207.29326,459.62443 C 202.32243,459.56096 196.73527,459.15410 191.68954,459.19918 C 186.91580,459.40999 182.21031,459.85867 177.07720,460.50292 C 172.32613,460.84499 166.83981,462.67843 162.10554,462.14896 L 161.59171,461.72338 L 161.59171,461.72338 z "
     id="path3635"
     sodipodi:nodetypes="cccccccccccccccccc"
     style="fill:url(#linearGradient4666);fill-opacity:1.0000000;"
     transform="translate(-126.1054,-360.5542)" />
</svg>
