<?xml version="1.0" encoding="UTF-8" standalone="no"?>
<!DOCTYPE svg PUBLIC "-//W3C//DTD SVG 20010904//EN"
"http://www.w3.org/TR/2001/REC-SVG-20010904/DTD/svg10.dtd">
<!-- Created with Inkscape (http://www.inkscape.org/) -->
<svg
   version="1.0"
   x="0.0000000"
   y="0.0000000"
   width="115.00000pt"
   height="115.00000pt"
   id="svg1710"
   sodipodi:version="0.32"
   inkscape:version="0.40"
   sodipodi:docname="white-bishop.svg"
   sodipodi:docbase="/home/daniel/Desktop/Projects/chessmonk/Data"
   xmlns="http://www.w3.org/2000/svg"
   xmlns:cc="http://web.resource.org/cc/"
   xmlns:inkscape="http://www.inkscape.org/namespaces/inkscape"
   xmlns:sodipodi="http://sodipodi.sourceforge.net/DTD/sodipodi-0.dtd"
   xmlns:rdf="http://www.w3.org/1999/02/22-rdf-syntax-ns#"
   xmlns:dc="http://purl.org/dc/elements/1.1/"
   xmlns:xlink="http://www.w3.org/1999/xlink">
  <metadata
     id="metadata2440">
    <rdf:RDF
       id="RDF2441">
      <cc:Work
         rdf:about=""
         id="Work2442">
        <dc:format
           id="format2443">image/svg+xml</dc:format>
        <dc:type
           id="type2445"
           rdf:resource="http://purl.org/dc/dcmitype/StillImage" />
      </cc:Work>
    </rdf:RDF>
  </metadata>
  <sodipodi:namedview
     id="base"
     pagecolor="#ffffff"
     bordercolor="#666666"
     borderopacity="1.0"
     inkscape:pageopacity="0.0"
     inkscape:pageshadow="2"
     inkscape:zoom="2.4559706"
     inkscape:cx="54.021997"
     inkscape:cy="48.766990"
     inkscape:window-width="640"
     inkscape:window-height="562"
     inkscape:window-x="309"
     inkscape:window-y="271"
     inkscape:current-layer="svg1710" />
  <defs
     id="defs3">
    <linearGradient
       id="linearGradient1689">
      <stop
         style="stop-color:#b2b2b2;stop-opacity:1.0000000;"
         offset="0.0000000"
         id="stop1690" />
      <stop
         style="stop-color:#ffffff;stop-opacity:1.0000000;"
         offset="1.0000000"
         id="stop1691" />
    </linearGradient>
    <linearGradient
       inkscape:collect="always"
       xlink:href="#linearGradient1689"
       id="linearGradient3797"
       gradientUnits="userSpaceOnUse"
       gradientTransform="matrix(0.990622,0.000000,0.000000,1.009466,-181.8673,-19.08153)"
       x1="654.75537"
       y1="89.638618"
       x2="780.57971"
       y2="89.638618" />
    <linearGradient
       id="linearGradient3206">
      <stop
         style="stop-color:#b2b2b2;stop-opacity:1.0000000;"
         offset="0.0000000"
         id="stop3207" />
      <stop
         style="stop-color:#ffffff;stop-opacity:1.0000000;"
         offset="1.0000000"
         id="stop3208" />
    </linearGradient>
    <linearGradient
       x1="654.75537"
       y1="89.638618"
       x2="780.57971"
       y2="89.638618"
       id="linearGradient3183"
       xlink:href="#linearGradient3206"
       gradientUnits="userSpaceOnUse"
       gradientTransform="matrix(0.906420,0.000000,0.000000,0.923662,-588.1482,-20.06008)" />
  </defs>
  <path
     d="M 17.063410,133.95611 C 14.867210,130.54347 12.932490,127.45965 12.764030,127.10318 C 12.595570,126.74670 15.067460,124.95578 18.257120,123.12337 L 24.056500,119.79172 L 43.056500,119.77152 C 58.679970,119.75491 62.576900,119.46318 64.984850,118.12993 L 67.913210,116.50853 L 58.984850,115.25009 C 48.417130,113.76059 45.556500,112.81730 45.556500,110.82213 C 45.556500,110.00885 46.904950,105.18321 48.553060,100.09850 L 51.549630,90.853568 L 49.216700,88.302438 C 41.062720,79.385817 38.220570,65.720032 42.623310,56.599801 C 45.720480,50.184044 52.323470,43.244220 61.764810,36.481854 L 69.473130,30.960770 L 67.514810,28.471177 C 64.503660,24.643118 64.995280,20.612523 68.956500,16.651303 C 73.569920,12.037886 77.543075,12.037886 82.156495,16.651303 C 86.123735,20.618542 86.608805,24.643791 83.583165,28.490263 L 81.609845,30.998941 L 87.833165,35.332959 C 99.592642,43.522444 102.85007,45.572537 108.49399,55.297500 C 113.73935,64.335710 109.69130,75.601283 107.16691,80.333974 C 105.57764,83.313507 103.21669,86.899318 101.92035,88.302438 L 99.563362,90.853568 L 102.55992,100.09850 C 104.20804,105.18321 105.55649,110.00885 105.55649,110.82213 C 105.55649,112.61445 102.70810,113.75970 96.056492,114.64179 C 93.306495,115.00647 89.281865,115.57208 87.112875,115.89869 L 83.169265,116.49254 L 86.112875,118.12193 C 88.543445,119.46733 92.368075,119.75132 108.05649,119.75132 C 126.39173,119.75132 127.19644,119.83605 131.05649,122.17310 C 139.01951,126.99427 138.92984,126.62142 133.86778,133.86275 C 130.06577,139.30159 129.01362,140.21568 127.20466,139.65161 C 126.02317,139.28319 124.73237,138.47991 124.33622,137.86654 C 123.84247,137.10205 118.34827,136.83151 106.86632,137.00630 C 90.390965,137.25710 87.159735,136.85507 79.436275,133.59344 C 76.013260,132.14789 75.420840,132.20718 68.560570,134.68182 C 61.674550,137.16574 60.458540,137.28507 44.680790,137.02517 C 30.174130,136.78620 27.741550,136.97424 25.583990,138.50132 C 24.224110,139.46382 22.649110,140.23097 22.083990,140.20611 C 21.518870,140.18124 19.259610,137.36874 17.063410,133.95611 z "
     id="path1939"
     sodipodi:nodetypes="csccccccccccccccccccsssccccccccccccccccccsc"
     style="fill:#000000;fill-opacity:0.25098041;" />
  <path
     d="M 471.05555,128.66279 C 468.85935,125.25015 466.92463,122.16633 466.75617,121.80986 C 466.58771,121.45338 469.05960,119.66246 472.24926,117.83005 L 478.04864,114.49840 L 497.04864,114.47820 C 512.67211,114.46159 516.56904,114.16986 518.97699,112.83661 L 521.90535,111.21521 L 512.97699,109.95677 C 502.40927,108.46727 499.54864,107.52398 499.54864,105.52881 C 499.54864,104.71553 500.89709,99.889898 502.54520,94.805188 L 505.54177,85.560258 L 503.20884,83.009128 C 495.05486,74.092503 492.21271,60.426718 496.61545,51.306487 C 499.71262,44.890730 506.31561,37.950906 515.75695,31.188540 L 523.46527,25.667456 L 521.50695,23.177863 C 518.49580,19.349804 518.98742,15.319209 522.94864,11.357989 C 527.56206,6.7445723 531.53522,6.7445723 536.14864,11.357989 C 540.11588,15.325228 540.60095,19.350477 537.57531,23.196949 L 535.60199,25.705627 L 541.82531,30.039645 C 553.58479,38.229130 556.84222,40.279223 562.48614,50.004186 C 567.73150,59.042396 563.68345,70.307969 561.15906,75.040660 C 559.56979,78.020193 557.20884,81.606008 555.91250,83.009128 L 553.55551,85.560258 L 556.55207,94.805188 C 558.20019,99.889898 559.54864,104.71553 559.54864,105.52881 C 559.54864,107.32113 556.70025,108.46638 550.04864,109.34847 C 547.29864,109.71315 543.27401,110.27876 541.10502,110.60537 L 537.16141,111.19922 L 540.10502,112.82861 C 542.53559,114.17401 546.36022,114.45800 562.04864,114.45800 C 580.38388,114.45800 581.18859,114.54273 585.04864,116.87978 C 593.01166,121.70095 592.92199,121.32810 587.85993,128.56943 C 584.05792,134.00827 583.00577,134.92236 581.19681,134.35829 C 580.01532,133.98987 578.72452,133.18659 578.32837,132.57322 C 577.83462,131.80873 572.34042,131.53819 560.85847,131.71298 C 544.38311,131.96378 541.15188,131.56175 533.42842,128.30012 C 530.00540,126.85457 529.41298,126.91386 522.55271,129.38850 C 515.66669,131.87242 514.45068,131.99175 498.67293,131.73185 C 484.16627,131.49288 481.73369,131.68092 479.57613,133.20800 C 478.21625,134.17050 476.64125,134.93765 476.07613,134.91279 C 475.51101,134.88792 473.25175,132.07542 471.05555,128.66279 z "
     id="path3179"
     sodipodi:nodetypes="csccccccccccccccccccsssccccccccccccccccccsc"
     style="fill:url(#linearGradient3797);fill-opacity:1.0000000;"
     transform="translate(-457.5354,1.743538)" />
  <path
     d="M 471.05969,128.66926 C 468.86349,125.25662 466.92877,122.17280 466.76031,121.81633 C 466.59185,121.45985 469.06374,119.66893 472.25340,117.83652 L 478.05278,114.50487 L 497.05278,114.48467 C 512.67625,114.46806 516.57318,114.17633 518.98113,112.84308 L 521.90949,111.22168 L 512.98113,109.96324 C 502.41341,108.47374 499.55278,107.53045 499.55278,105.53528 C 499.55278,104.72200 500.90123,99.896366 502.54934,94.811658 L 505.54591,85.566732 L 503.21298,83.015599 C 495.05900,74.098981 492.21685,60.433196 496.61959,51.312965 C 499.71676,44.897208 506.31975,37.957384 515.76109,31.195018 L 523.46941,25.673934 L 521.51109,23.184341 C 518.49994,19.356282 518.99156,15.325687 522.95278,11.364466 C 527.56620,6.7510492 531.53936,6.7510492 536.15278,11.364466 C 540.12002,15.331706 540.60509,19.356955 537.57945,23.203427 L 535.60613,25.712105 L 541.82945,30.046123 C 553.58893,38.235608 556.84636,40.285701 562.49028,50.010664 C 567.73564,59.048874 563.68759,70.314447 561.16320,75.047138 C 559.57393,78.026666 557.21298,81.612476 555.91664,83.015599 L 553.55965,85.566732 L 556.55621,94.811658 C 558.20433,99.896366 559.55278,104.72200 559.55278,105.53528 C 559.55278,107.32760 556.70439,108.47285 550.05278,109.35494 C 547.30278,109.71962 543.27815,110.28523 541.10916,110.61184 L 537.16555,111.20569 L 540.10916,112.83508 C 542.53973,114.18048 546.36436,114.46447 562.05278,114.46447 C 580.38802,114.46447 581.19273,114.54920 585.05278,116.88625 C 593.01580,121.70742 592.92613,121.33457 587.86407,128.57590 C 584.06206,134.01474 583.00991,134.92883 581.20095,134.36476 C 580.01946,133.99634 578.72866,133.19306 578.33251,132.57969 C 577.83876,131.81520 572.34456,131.54466 560.86261,131.71945 C 544.38725,131.97025 541.15602,131.56822 533.43256,128.30659 C 530.00954,126.86104 529.41712,126.92033 522.55685,129.39497 C 515.67083,131.87889 514.45482,131.99822 498.67707,131.73832 C 484.17041,131.49935 481.73783,131.68739 479.58027,133.21447 C 478.22039,134.17697 476.64539,134.94412 476.08027,134.91926 C 475.51515,134.89439 473.25589,132.08189 471.05969,128.66926 z M 498.05278,127.47175 C 510.70945,127.46663 516.64648,127.09336 518.05278,126.21433 C 519.15278,125.52675 522.17959,124.08482 524.77902,123.01005 C 529.95730,120.86901 529.32645,120.73933 542.37299,126.62667 C 545.08543,127.85068 548.30711,127.99547 559.97297,127.41764 C 570.18319,126.91191 575.29899,127.05564 577.92399,127.92197 C 581.30954,129.03930 581.74666,128.95190 583.54075,126.79903 C 588.56455,120.77056 584.62548,119.48762 561.05278,119.47480 C 540.47355,119.46361 541.14654,119.61678 531.30278,112.70369 C 529.91873,111.73170 529.18683,111.73170 527.80278,112.70369 C 517.95902,119.61678 518.63201,119.46361 498.05278,119.47480 C 483.75862,119.48258 478.37167,119.83193 476.30278,120.88532 C 473.08101,122.52570 472.95050,123.25841 475.30278,126.49948 C 476.45127,128.08192 477.56836,128.66465 478.55278,128.19487 C 479.37778,127.80116 488.15278,127.47576 498.05278,127.47175 z M 550.30278,104.34525 C 552.09028,104.01097 553.55278,103.13394 553.55278,102.39628 C 553.55278,100.24340 547.18163,99.465326 529.55278,99.465326 C 520.47778,99.465326 511.36528,99.823026 509.30278,100.26022 C 503.41891,101.50741 504.58324,103.63030 511.80278,104.81841 C 517.99161,105.83691 544.03810,105.51679 550.30278,104.34525 z M 550.25085,91.332352 C 549.40597,88.579471 548.74376,88.125425 544.78161,87.582352 C 539.04823,86.796506 518.19261,86.797947 513.43709,87.584518 C 510.47624,88.074249 509.64682,88.751410 508.85742,91.323512 L 507.89344,94.464466 L 529.55278,94.464466 L 551.21212,94.464466 L 550.25085,91.332352 z M 551.38785,81.566398 C 551.96113,81.212091 552.65739,81.469213 554.46287,78.318335 C 557.36797,73.248423 562.45859,59.379449 556.33813,49.413205 C 553.43714,44.719157 542.80145,35.431373 537.55278,32.793152 C 536.17778,32.102014 533.84977,30.726738 532.37942,29.736983 C 529.73315,27.955661 529.64703,27.972294 523.87942,31.378663 C 516.00579,36.028856 506.59691,43.775254 503.82331,47.890996 C 497.62981,57.081530 498.48923,69.373119 506.03091,79.464466 L 508.27294,82.464466 L 529.30923,82.337529 C 540.87919,82.267714 550.81457,81.920705 551.38785,81.566398 z M 528.24028,70.318633 C 527.86216,69.940508 527.55278,67.681133 527.55278,65.297799 L 527.55278,60.964466 L 522.67522,60.964466 C 519.84812,60.964466 517.33581,60.407963 516.69902,59.640672 C 514.91490,57.490942 517.40691,55.964466 522.70052,55.964466 L 527.44826,55.964466 L 527.75052,50.714466 C 527.97308,46.848804 528.44830,45.464466 529.55278,45.464466 C 530.65725,45.464466 531.13248,46.848804 531.35504,50.714466 L 531.65730,55.964466 L 536.48259,55.964466 C 539.26634,55.964466 541.77272,56.524555 542.40654,57.288260 C 544.19039,59.437671 541.69891,60.964466 536.40757,60.964466 L 531.66236,60.964466 L 531.35757,65.636297 C 531.07187,70.015486 529.81900,71.897358 528.24028,70.318633 z M 532.98135,21.393037 C 536.01406,18.360327 533.81914,12.964466 529.55278,12.964466 C 527.16674,12.964466 524.55278,15.578428 524.55278,17.964466 C 524.55278,22.230822 529.94864,24.425748 532.98135,21.393037 z "
     id="path3175"
     sodipodi:nodetypes="csccccccccccccccccccsssccccccccccccccccccscccccccccccccccccccccccccccccccccccccccccccccccccccccccccccccc"
     transform="translate(-457.5354,1.743538)" />
</svg>
