<?xml version="1.0" encoding="UTF-8" standalone="no"?>
<!DOCTYPE svg PUBLIC "-//W3C//DTD SVG 20010904//EN"
"http://www.w3.org/TR/2001/REC-SVG-20010904/DTD/svg10.dtd">
<!-- Created with Inkscape (http://www.inkscape.org/) -->
<svg
   version="1.0"
   x="0.0000000"
   y="0.0000000"
   width="115.00000pt"
   height="115.00000pt"
   id="svg1710"
   sodipodi:version="0.32"
   inkscape:version="0.40"
   sodipodi:docname="white-knight.svg"
   sodipodi:docbase="/home/daniel/Desktop/Projects/chessmonk/Data"
   xmlns="http://www.w3.org/2000/svg"
   xmlns:cc="http://web.resource.org/cc/"
   xmlns:inkscape="http://www.inkscape.org/namespaces/inkscape"
   xmlns:sodipodi="http://sodipodi.sourceforge.net/DTD/sodipodi-0.dtd"
   xmlns:rdf="http://www.w3.org/1999/02/22-rdf-syntax-ns#"
   xmlns:dc="http://purl.org/dc/elements/1.1/"
   xmlns:xlink="http://www.w3.org/1999/xlink">
  <metadata
     id="metadata4831">
    <rdf:RDF
       id="RDF4832">
      <cc:Work
         rdf:about=""
         id="Work4833">
        <dc:format
           id="format4834">image/svg+xml</dc:format>
        <dc:type
           id="type4836"
           rdf:resource="http://purl.org/dc/dcmitype/StillImage" />
      </cc:Work>
    </rdf:RDF>
  </metadata>
  <sodipodi:namedview
     id="base"
     pagecolor="#ffffff"
     bordercolor="#666666"
     borderopacity="1.0"
     inkscape:pageopacity="0.0"
     inkscape:pageshadow="2"
     inkscape:zoom="2.4559706"
     inkscape:cx="54.660662"
     inkscape:cy="43.283179"
     inkscape:window-width="640"
     inkscape:window-height="562"
     inkscape:window-x="231"
     inkscape:window-y="155"
     inkscape:current-layer="svg1710" />
  <defs
     id="defs3">
    <linearGradient
       id="linearGradient6094">
      <stop
         style="stop-color:#b2b2b2;stop-opacity:1.0000000;"
         offset="0.0000000"
         id="stop6095" />
      <stop
         style="stop-color:#ffffff;stop-opacity:1.0000000;"
         offset="1.0000000"
         id="stop6096" />
    </linearGradient>
    <linearGradient
       inkscape:collect="always"
       xlink:href="#linearGradient6094"
       id="linearGradient3785"
       gradientUnits="userSpaceOnUse"
       gradientTransform="matrix(0.998937,0.000000,0.000000,1.001064,-123.4900,-1.638419)"
       x1="318.60419"
       y1="310.78156"
       x2="438.45032"
       y2="310.78156" />
    <linearGradient
       inkscape:collect="always"
       xlink:href="#linearGradient6094"
       id="linearGradient6103"
       gradientUnits="userSpaceOnUse"
       gradientTransform="matrix(0.998937,0.000000,0.000000,1.001064,-123.4900,-1.638419)"
       x1="318.60419"
       y1="310.78156"
       x2="438.45032"
       y2="310.78156" />
    <linearGradient
       inkscape:collect="always"
       xlink:href="#linearGradient6094"
       id="linearGradient2444"
       gradientUnits="userSpaceOnUse"
       gradientTransform="matrix(0.998937,0.000000,0.000000,1.001064,-123.4900,-1.638419)"
       x1="318.60419"
       y1="310.78156"
       x2="438.45032"
       y2="310.78156" />
  </defs>
  <path
     d="M 46.559494,136.02310 C 45.270964,134.73457 45.956444,128.14640 47.801854,124.08281 C 49.685864,119.93422 60.143624,105.16738 61.646904,104.53295 C 62.094154,104.34420 64.597044,101.39249 67.208884,97.973584 C 72.089374,91.585014 74.892824,85.359104 74.892824,80.909064 C 74.892824,78.561254 74.766974,78.493694 73.138584,79.967364 C 72.173744,80.840534 67.786244,83.235994 63.388584,85.290614 C 53.723614,89.806164 47.554464,94.577014 43.872094,100.38351 C 39.129634,107.86159 33.779024,110.66742 30.892824,107.18977 C 30.208134,106.36477 28.240534,105.68907 26.520384,105.68822 C 22.304124,105.68612 16.716144,102.75035 15.102854,99.689774 C 13.377524,96.416634 14.183204,84.982224 16.453944,80.514784 C 17.383474,78.686034 20.042074,74.489769 22.361944,71.189769 C 26.934394,64.685466 29.411574,58.680106 30.355894,51.810216 C 30.888604,47.934756 36.520164,37.656146 38.925164,36.169776 C 39.384654,35.885796 39.502954,31.676736 39.188064,26.816316 C 38.781104,20.534886 38.958724,17.767076 39.802204,17.245766 C 41.179704,16.394426 51.045104,22.893596 54.365844,26.840076 C 55.592674,28.298076 57.006694,29.198206 57.508134,28.840376 C 58.009564,28.482536 60.176054,25.602266 62.322544,22.439766 C 64.561684,19.140766 66.966424,16.689766 67.964024,16.689766 C 69.993604,16.689766 74.892824,24.492446 74.892824,27.724826 C 74.892824,29.136666 75.365214,29.722466 76.234684,29.388826 C 78.164145,28.648416 89.857255,31.044396 93.392815,32.904626 C 100.97611,36.894536 109.24218,44.149756 114.90264,51.784016 C 118.20169,56.233446 121.19625,61.069966 121.55721,62.531826 C 121.91818,63.993696 123.44068,67.889766 124.94055,71.189769 C 129.52705,81.280954 133.88973,109.12614 133.89197,128.32314 C 133.89274,134.87572 133.70962,135.50560 131.64281,136.05948 C 128.55226,136.88772 47.389404,136.85301 46.559494,136.02310 z "
     id="path2442"
     sodipodi:nodetypes="cccccccccccccccccccccccccccccc"
     style="fill:#000000;fill-opacity:0.25098041" />
  <g
     id="g6097"
     transform="translate(2.561586e-7,-1.771633)">
    <path
       d="M 227.16185,368.82029 C 225.87332,367.53176 226.55880,360.94359 228.40421,356.88000 C 230.28822,352.73141 240.74598,337.96457 242.24926,337.33014 C 242.69651,337.14139 245.19940,334.18968 247.81124,330.77077 C 252.69173,324.38220 255.49518,318.15629 255.49518,313.70625 C 255.49518,311.35844 255.36933,311.29088 253.74094,312.76455 C 252.77610,313.63772 248.38860,316.03318 243.99094,318.08780 C 234.32597,322.60335 228.15682,327.37420 224.47445,333.18070 C 219.73199,340.65878 214.38138,343.46461 211.49518,339.98696 C 210.81049,339.16196 208.84289,338.48626 207.12274,338.48541 C 202.90648,338.48331 197.31850,335.54754 195.70521,332.48696 C 193.97988,329.21382 194.78556,317.77941 197.05630,313.31197 C 197.98583,311.48322 200.64443,307.28696 202.96430,303.98696 C 207.53675,297.48266 210.01393,291.47730 210.95825,284.60741 C 211.49096,280.73195 217.12252,270.45334 219.52752,268.96697 C 219.98701,268.68299 220.10531,264.47393 219.79042,259.61351 C 219.38346,253.33208 219.56108,250.56427 220.40456,250.04296 C 221.78206,249.19162 231.64746,255.69079 234.96820,259.63727 C 236.19503,261.09527 237.60905,261.99540 238.11049,261.63757 C 238.61192,261.27973 240.77841,258.39946 242.92490,255.23696 C 245.16404,251.93796 247.56878,249.48696 248.56638,249.48696 C 250.59596,249.48696 255.49518,257.28964 255.49518,260.52202 C 255.49518,261.93386 255.96757,262.51966 256.83704,262.18602 C 258.76650,261.44561 270.45961,263.84159 273.99518,265.70182 C 281.57848,269.69173 289.84455,276.94695 295.50501,284.58121 C 298.80406,289.03064 301.79862,293.86716 302.15958,295.32902 C 302.52055,296.79089 304.04305,300.68696 305.54292,303.98696 C 310.12942,314.07814 314.49210,341.92333 314.49434,361.12033 C 314.49511,367.67291 314.31199,368.30279 312.24518,368.85667 C 309.15463,369.68491 227.99176,369.65020 227.16185,368.82029 z "
       id="path3531"
       sodipodi:nodetypes="cccccccccccccccccccccccccccccc"
       style="fill:url(#linearGradient6103);fill-opacity:1.0000000"
       transform="translate(-184.1457,-234.5819)" />
    <path
       d="M 227.16667,368.83333 C 225.87814,367.54480 226.56362,360.95663 228.40903,356.89304 C 230.29304,352.74445 240.75080,337.97761 242.25408,337.34318 C 242.70133,337.15443 245.20422,334.20272 247.81606,330.78381 C 252.69655,324.39524 255.50000,318.16933 255.50000,313.71929 C 255.50000,311.37148 255.37415,311.30392 253.74576,312.77759 C 252.78092,313.65076 248.39342,316.04622 243.99576,318.10084 C 234.33079,322.61639 228.16164,327.38724 224.47927,333.19374 C 219.73681,340.67182 214.38620,343.47765 211.50000,340.00000 C 210.81531,339.17500 208.84771,338.49930 207.12756,338.49845 C 202.91130,338.49635 197.32332,335.56058 195.71003,332.50000 C 193.98470,329.22686 194.79038,317.79245 197.06112,313.32501 C 197.99065,311.49626 200.64925,307.30000 202.96912,304.00000 C 207.54157,297.49570 210.01875,291.49034 210.96307,284.62045 C 211.49578,280.74499 217.12734,270.46638 219.53234,268.98001 C 219.99183,268.69603 220.11013,264.48697 219.79524,259.62655 C 219.38828,253.34512 219.56590,250.57731 220.40938,250.05600 C 221.78688,249.20466 231.65228,255.70383 234.97302,259.65031 C 236.19985,261.10831 237.61387,262.00844 238.11531,261.65061 C 238.61674,261.29277 240.78323,258.41250 242.92972,255.25000 C 245.16886,251.95100 247.57360,249.50000 248.57120,249.50000 C 250.60078,249.50000 255.50000,257.30268 255.50000,260.53506 C 255.50000,261.94690 255.97239,262.53270 256.84186,262.19906 C 258.77132,261.45865 270.46443,263.85463 274.00000,265.71486 C 281.58330,269.70477 289.84937,276.95999 295.50983,284.59425 C 298.80888,289.04368 301.80344,293.88020 302.16440,295.34206 C 302.52537,296.80393 304.04787,300.70000 305.54774,304.00000 C 310.13424,314.09118 314.49692,341.93637 314.49916,361.13337 C 314.49993,367.68595 314.31681,368.31583 312.25000,368.86971 C 309.15945,369.69795 227.99658,369.66324 227.16667,368.83333 z M 305.49916,359.75000 C 305.49727,346.70065 301.61141,316.68351 299.57782,314.00926 C 299.15571,313.45417 298.20666,310.75000 297.46883,308.00000 C 292.29129,288.70267 280.08643,272.49824 268.20680,269.14872 C 257.96192,266.26012 256.81353,266.19307 256.22357,268.44909 C 255.37063,271.71071 252.50000,271.02452 252.50000,267.55902 C 252.50000,265.94148 252.10101,264.37145 251.61336,264.07006 C 251.12571,263.76868 250.43032,261.94212 250.06805,260.01105 C 249.70578,258.07997 248.99014,256.50000 248.47774,256.50000 C 247.13974,256.50000 244.74444,260.49791 243.98420,264.00000 C 242.76431,269.61948 242.79149,269.58993 240.00869,268.32201 C 237.70958,267.27446 237.10406,267.49143 234.04089,270.46037 C 231.91157,272.52418 230.04399,273.53899 229.06591,273.16367 C 226.82437,272.30350 227.10768,271.25005 230.43885,268.05858 C 233.10993,265.49953 233.25050,265.04885 231.98170,263.11241 C 231.21389,261.94059 229.21641,260.17298 227.54284,259.18438 C 224.72786,257.52153 224.50000,257.51352 224.50000,259.07744 C 224.50000,260.00723 225.00954,262.46866 225.63232,264.54730 C 226.72408,268.19127 226.63096,268.46407 223.03258,272.16332 C 218.28923,277.03964 216.87400,279.80889 215.95455,286.01317 C 214.89192,293.18367 213.15445,297.58082 209.19345,303.12412 C 200.62213,315.11941 197.20839,323.85514 198.94905,329.33945 C 199.70115,331.70913 205.52642,333.94378 208.49527,333.00150 C 209.60994,332.64772 211.16233,331.11988 211.94503,329.60630 C 216.80159,320.21474 219.21436,325.72957 214.85169,336.25000 C 214.56659,336.93750 214.83197,337.50000 215.44142,337.50000 C 216.05086,337.50000 216.95292,336.43894 217.44598,335.14208 C 218.63019,332.02737 228.92786,320.95640 232.32415,319.14663 C 255.34597,306.87911 255.97307,306.29414 257.27492,295.87217 C 257.89403,290.91582 258.31969,290.00000 260.00421,290.00000 C 262.31403,290.00000 262.41431,292.75297 260.73270,310.00000 C 259.75290,320.04921 258.38160,324.07495 253.85762,330.18328 C 252.56093,331.93408 251.50000,333.62275 251.50000,333.93588 C 251.50000,334.24901 249.70000,336.13140 247.50000,338.11896 C 245.30000,340.10653 243.50000,342.32270 243.50000,343.04378 C 243.50000,343.76486 242.26902,345.32313 240.76449,346.50659 C 237.87496,348.77950 231.50000,360.59748 231.50000,363.68123 C 231.50000,365.40682 233.39562,365.50000 268.50000,365.50000 L 305.50000,365.50000 L 305.49916,359.75000 z M 202.58128,325.09793 C 199.53891,321.43211 203.87550,315.44693 207.17980,318.75123 C 208.53516,320.10658 208.69284,321.04948 207.92790,323.22457 C 206.81112,326.40013 204.37144,327.25495 202.58128,325.09793 z M 219.57029,289.25000 C 219.68425,285.60160 220.79331,283.73357 224.44428,281.04056 C 227.85097,278.52773 233.50000,277.56671 233.50000,279.50000 C 233.50000,280.05000 232.82500,280.50000 232.00000,280.50000 C 231.17500,280.50000 230.50000,281.32156 230.50000,282.32569 C 230.50000,284.56979 226.48059,288.50000 224.18555,288.50000 C 223.25850,288.50000 222.50000,289.17500 222.50000,290.00000 C 222.50000,290.82500 221.82500,291.50000 221.00000,291.50000 C 220.09029,291.50000 219.52766,290.61457 219.57029,289.25000 z "
       id="path3530"
       transform="translate(-184.1457,-234.5819)" />
  </g>
</svg>
