<?xml version="1.0" encoding="UTF-8" standalone="no"?>
<!DOCTYPE svg PUBLIC "-//W3C//DTD SVG 20010904//EN"
"http://www.w3.org/TR/2001/REC-SVG-20010904/DTD/svg10.dtd">
<!-- Created with Inkscape (http://www.inkscape.org/) -->
<svg
   version="1.0"
   x="0.0000000"
   y="0.0000000"
   width="115.00000pt"
   height="115.00000pt"
   id="svg1710"
   sodipodi:version="0.32"
   inkscape:version="0.40"
   sodipodi:docname="white-rook.svg"
   sodipodi:docbase="/home/daniel/Desktop/Projects/chessmonk/Data"
   xmlns="http://www.w3.org/2000/svg"
   xmlns:cc="http://web.resource.org/cc/"
   xmlns:inkscape="http://www.inkscape.org/namespaces/inkscape"
   xmlns:sodipodi="http://sodipodi.sourceforge.net/DTD/sodipodi-0.dtd"
   xmlns:rdf="http://www.w3.org/1999/02/22-rdf-syntax-ns#"
   xmlns:dc="http://purl.org/dc/elements/1.1/"
   xmlns:xlink="http://www.w3.org/1999/xlink">
  <metadata
     id="metadata6197">
    <rdf:RDF
       id="RDF6198">
      <cc:Work
         rdf:about=""
         id="Work6199">
        <dc:format
           id="format6200">image/svg+xml</dc:format>
        <dc:type
           id="type6202"
           rdf:resource="http://purl.org/dc/dcmitype/StillImage" />
      </cc:Work>
    </rdf:RDF>
  </metadata>
  <sodipodi:namedview
     id="base"
     pagecolor="#ffffff"
     bordercolor="#666666"
     borderopacity="1.0"
     inkscape:pageopacity="0.0"
     inkscape:pageshadow="2"
     inkscape:zoom="2.4559706"
     inkscape:cx="38.395978"
     inkscape:cy="53.722900"
     inkscape:window-width="640"
     inkscape:window-height="562"
     inkscape:window-x="126"
     inkscape:window-y="189"
     inkscape:current-layer="svg1710" />
  <defs
     id="defs3">
    <linearGradient
       inkscape:collect="always"
       xlink:href="#linearGradient1689"
       id="linearGradient3038"
       gradientTransform="matrix(0.949647,0.000000,0.000000,1.053023,-205.0000,-17.50000)"
       x1="457.59235"
       y1="82.570831"
       x2="564.60297"
       y2="82.570831"
       gradientUnits="userSpaceOnUse" />
    <linearGradient
       id="linearGradient1689">
      <stop
         style="stop-color:#b2b2b2;stop-opacity:1.0000000;"
         offset="0.0000000"
         id="stop1690" />
      <stop
         style="stop-color:#ffffff;stop-opacity:1.0000000;"
         offset="1.0000000"
         id="stop1691" />
    </linearGradient>
    <linearGradient
       inkscape:collect="always"
       xlink:href="#linearGradient1689"
       id="linearGradient6924"
       gradientUnits="userSpaceOnUse"
       gradientTransform="matrix(0.949647,0.000000,0.000000,1.053023,-205.0000,-17.50000)"
       x1="457.59235"
       y1="82.570831"
       x2="564.60297"
       y2="82.570831" />
    <linearGradient
       inkscape:collect="always"
       xlink:href="#linearGradient1689"
       id="linearGradient6933"
       gradientUnits="userSpaceOnUse"
       gradientTransform="matrix(0.949647,0.000000,0.000000,1.053023,-205.0000,-17.50000)"
       x1="457.59235"
       y1="82.570831"
       x2="564.60297"
       y2="82.570831" />
    <linearGradient
       inkscape:collect="always"
       xlink:href="#linearGradient1689"
       id="linearGradient2716"
       gradientUnits="userSpaceOnUse"
       gradientTransform="matrix(0.949647,0.000000,0.000000,1.053023,-205.0000,-17.50000)"
       x1="457.59235"
       y1="82.570831"
       x2="564.60297"
       y2="82.570831" />
  </defs>
  <path
     d="M 25.576518,136.66339 C 24.601028,132.59956 24.842228,125.28816 24.803788,122.52845 C 27.357578,122.79599 33.887748,123.28342 34.925438,122.25584 C 35.072168,117.98875 33.932628,110.05272 38.244008,107.38356 C 39.613628,105.59081 42.895468,104.68330 42.925438,102.27600 C 42.925438,86.426116 42.925438,70.576226 42.925438,54.726338 C 38.903058,51.241688 34.880678,47.757040 30.858298,44.272393 C 31.047348,37.524411 31.236388,30.776429 31.425438,24.028447 C 37.884098,24.085004 49.028328,23.788415 51.712278,24.206894 C 52.821298,25.940932 52.630548,31.166385 53.393198,32.528447 C 57.200828,32.528447 62.002818,32.528447 65.810448,32.528447 C 66.015448,29.695113 66.220438,26.861780 66.425438,24.028447 C 73.092108,24.028447 79.758768,24.028447 86.425438,24.028447 C 86.630438,26.861780 86.835428,29.695113 87.040428,32.528447 C 90.963768,32.528447 94.887108,32.528447 98.810448,32.528447 C 99.015448,29.695113 99.220438,26.861780 99.425438,24.028447 C 106.42544,24.028447 113.42544,24.028447 120.42544,24.028447 C 120.61456,30.785669 120.80370,37.542890 120.99288,44.300110 C 116.63706,48.124288 112.28124,51.948481 107.92544,55.772690 C 107.92544,71.301286 107.92544,86.829876 107.92544,102.35847 C 111.38733,105.96568 117.35179,108.57584 116.91271,114.37244 C 116.93708,117.05448 116.92060,119.73673 116.92544,122.41887 C 120.09211,122.62207 123.25877,122.82526 126.42544,123.02845 C 126.42544,127.36178 126.42544,131.69511 126.42544,136.02845 C 94.513138,136.06375 28.653378,136.48020 25.576518,136.66339 z "
     id="path2714"
     sodipodi:nodetypes="ccccccccccccccccccccccccc"
     style="fill:#000000;fill-opacity:0.25098041" />
  <g
     id="g6925"
     transform="translate(5.547780e-7,1.771654)">
    <path
       d="M 230.32453,125.79129 C 229.34904,121.72746 229.59024,114.41606 229.55180,111.65635 C 232.10559,111.92389 238.63576,112.41132 239.67345,111.38374 C 239.82018,107.11665 238.68064,99.180620 242.99202,96.511460 C 244.36164,94.718710 247.64348,93.811200 247.67345,91.403900 C 247.67345,75.554020 247.67345,59.704130 247.67345,43.854242 C 243.65107,40.369592 239.62869,36.884944 235.60631,33.400297 C 235.79536,26.652315 235.98440,19.904333 236.17345,13.156351 C 242.63211,13.212908 253.77634,12.916319 256.46029,13.334798 C 257.56931,15.068836 257.37856,20.294289 258.14121,21.656351 C 261.94884,21.656351 266.75083,21.656351 270.55846,21.656351 C 270.76346,18.823017 270.96845,15.989684 271.17345,13.156351 C 277.84012,13.156351 284.50678,13.156351 291.17345,13.156351 C 291.37845,15.989684 291.58344,18.823017 291.78844,21.656351 C 295.71178,21.656351 299.63512,21.656351 303.55846,21.656351 C 303.76346,18.823017 303.96845,15.989684 304.17345,13.156351 C 311.17345,13.156351 318.17345,13.156351 325.17345,13.156351 C 325.36257,19.913573 325.55171,26.670794 325.74089,33.428014 C 321.38507,37.252192 317.02925,41.076385 312.67345,44.900594 C 312.67345,60.429190 312.67345,75.957780 312.67345,91.486370 C 316.13534,95.093580 322.09980,97.703740 321.66072,103.50034 C 321.68509,106.18238 321.66861,108.86463 321.67345,111.54677 C 324.84012,111.74997 328.00678,111.95316 331.17345,112.15635 C 331.17345,116.48968 331.17345,120.82301 331.17345,125.15635 C 299.26115,125.19165 233.40139,125.60810 230.32453,125.79129 z "
       id="path3034"
       sodipodi:nodetypes="ccccccccccccccccccccccccc"
       style="fill:url(#linearGradient6933);fill-opacity:1.0000000"
       transform="translate(-208.2753,5.557135)" />
    <path
       d="M 230.30855,125.77708 C 229.33306,121.71325 229.57426,114.40185 229.53582,111.64214 C 232.08961,111.90968 238.61978,112.39711 239.65747,111.36953 C 239.80420,107.10244 238.66466,99.166410 242.97604,96.497250 C 244.34566,94.704500 247.62750,93.796990 247.65747,91.389690 C 247.65747,75.539805 247.65747,59.689916 247.65747,43.840027 C 243.63509,40.355377 239.61271,36.870729 235.59033,33.386082 C 235.77938,26.638100 235.96842,19.890118 236.15747,13.142136 C 242.61613,13.198693 253.76036,12.902104 256.44431,13.320583 C 257.55333,15.054621 257.36258,20.280074 258.12523,21.642136 C 261.93286,21.642136 266.73485,21.642136 270.54248,21.642136 C 270.74748,18.808802 270.95247,15.975469 271.15747,13.142136 C 277.82414,13.142136 284.49080,13.142136 291.15747,13.142136 C 291.36247,15.975469 291.56746,18.808802 291.77246,21.642136 C 295.69580,21.642136 299.61914,21.642136 303.54248,21.642136 C 303.74748,18.808802 303.95247,15.975469 304.15747,13.142136 C 311.15747,13.142136 318.15747,13.142136 325.15747,13.142136 C 325.34659,19.899358 325.53573,26.656579 325.72491,33.413799 C 321.36909,37.237977 317.01327,41.062170 312.65747,44.886379 C 312.65747,60.414973 312.65747,75.943567 312.65747,91.472160 C 316.11936,95.079370 322.08382,97.689530 321.64474,103.48613 C 321.66911,106.16817 321.65263,108.85042 321.65747,111.53256 C 324.82414,111.73576 327.99080,111.93895 331.15747,112.14214 C 331.15747,116.47547 331.15747,120.80880 331.15747,125.14214 C 299.24517,125.17744 233.38541,125.59389 230.30855,125.77708 z M 327.65747,118.64214 C 323.57825,115.29911 316.35004,117.44643 311.02606,116.69974 C 286.62177,116.73298 262.20414,116.32345 237.80859,117.00988 C 231.82854,116.39396 233.91602,121.48774 238.73178,120.33102 C 265.48575,120.87273 292.25735,120.67789 319.01562,120.46550 C 321.53828,119.86222 326.34241,121.32848 327.65747,118.64214 z M 317.65747,107.14214 C 317.41326,105.15529 318.75019,101.58730 315.46428,102.64214 C 291.52868,102.64214 267.59307,102.64214 243.65747,102.64214 C 243.65747,105.64214 243.65747,108.64214 243.65747,111.64214 C 268.32414,111.64214 292.99080,111.64214 317.65747,111.64214 C 317.65747,110.14214 317.65747,108.64214 317.65747,107.14214 z M 311.15747,95.642140 C 305.75028,92.398260 298.71071,94.267860 292.61982,93.658790 C 279.24697,93.890610 265.79628,93.049820 252.47513,94.331270 C 244.71125,98.074530 257.66634,97.632570 260.41291,97.596980 C 276.91191,97.526500 293.43211,97.983530 309.91773,97.284550 C 310.99016,97.230300 312.69720,96.825940 311.15747,95.642140 z M 308.65747,67.142136 C 308.65747,59.975469 308.65747,52.808802 308.65747,45.642136 C 289.99080,45.642136 271.32414,45.642136 252.65747,45.642136 C 252.65747,59.975471 252.65747,74.308807 252.65747,88.642140 C 271.32414,88.642140 289.99080,88.642140 308.65747,88.642140 C 308.65747,81.475474 308.65747,74.308805 308.65747,67.142136 z M 313.35168,38.173737 C 315.59864,36.488335 317.07667,35.093020 313.23321,35.705338 C 290.54130,35.705338 267.84939,35.705338 245.15747,35.705338 C 247.18610,37.254782 248.95389,39.495643 251.13454,40.642136 C 270.93835,40.642136 290.74215,40.642136 310.54596,40.642136 C 311.48120,39.819336 312.41644,38.996536 313.35168,38.173737 z M 320.65747,24.142136 C 320.41077,22.100326 320.70746,19.073185 320.29194,17.642136 C 317.09954,17.696911 312.46649,17.621962 309.20470,17.920635 C 308.66637,21.987270 309.50168,25.522645 308.94504,25.859321 C 307.96304,26.453268 290.31428,26.241228 286.98097,26.200194 C 286.82310,23.175464 287.01001,21.834616 287.09941,17.712241 C 286.82350,17.669804 284.33097,17.413308 282.01604,17.421165 C 279.93335,17.421165 277.74016,17.642136 275.65747,17.642136 C 275.38210,21.790929 275.66936,22.899476 275.54170,26.437228 C 270.03144,26.604001 258.33497,26.471563 252.82601,26.363107 C 252.62101,23.529773 252.74748,20.475469 252.54248,17.642136 C 248.58081,17.642136 244.61914,17.642136 240.65747,17.642136 C 240.65747,21.975469 240.65747,26.308802 240.65747,30.642136 C 267.32414,30.642136 293.99080,30.642136 320.65747,30.642136 C 320.65747,28.475469 320.65747,26.308802 320.65747,24.142136 z "
       id="path3028"
       sodipodi:nodetypes="ccccccccccccccccccccccccccccccccccccccccccccccccccccccccccsccccccccccc"
       transform="translate(-208.2753,5.557135)" />
  </g>
</svg>
