<?xml version="1.0" encoding="UTF-8" standalone="no"?>
<!DOCTYPE svg PUBLIC "-//W3C//DTD SVG 20010904//EN"
"http://www.w3.org/TR/2001/REC-SVG-20010904/DTD/svg10.dtd">
<!-- Created with Inkscape (http://www.inkscape.org/) -->
<svg
   version="1.0"
   x="0.0000000"
   y="0.0000000"
   width="143.75000"
   height="143.75000"
   id="svg1767"
   sodipodi:version="0.32"
   inkscape:version="0.40"
   sodipodi:docname="white-king.svg"
   sodipodi:docbase="/home/daniel/Desktop/Projects/chessmonk/Data"
   xmlns="http://www.w3.org/2000/svg"
   xmlns:cc="http://web.resource.org/cc/"
   xmlns:inkscape="http://www.inkscape.org/namespaces/inkscape"
   xmlns:sodipodi="http://sodipodi.sourceforge.net/DTD/sodipodi-0.dtd"
   xmlns:rdf="http://www.w3.org/1999/02/22-rdf-syntax-ns#"
   xmlns:dc="http://purl.org/dc/elements/1.1/"
   xmlns:xlink="http://www.w3.org/1999/xlink">
  <metadata
     id="metadata18">
    <rdf:RDF
       id="RDF19">
      <cc:Work
         rdf:about=""
         id="Work20">
        <dc:format
           id="format21">image/svg+xml</dc:format>
        <dc:type
           id="type23"
           rdf:resource="http://purl.org/dc/dcmitype/StillImage" />
      </cc:Work>
    </rdf:RDF>
  </metadata>
  <sodipodi:namedview
     id="base"
     pagecolor="#ffffff"
     bordercolor="#666666"
     borderopacity="1.0"
     inkscape:pageopacity="0.0"
     inkscape:pageshadow="2"
     inkscape:zoom="2.4559706"
     inkscape:cx="73.044987"
     inkscape:cy="49.496215"
     inkscape:window-width="640"
     inkscape:window-height="566"
     inkscape:window-x="344"
     inkscape:window-y="291"
     inkscape:current-layer="svg1767" />
  <defs
     id="defs3">
    <linearGradient
       x1="320.94125"
       y1="425.24084"
       x2="443.43933"
       y2="425.24084"
       id="linearGradient3758"
       xlink:href="#linearGradient1689"
       gradientUnits="userSpaceOnUse"
       gradientTransform="matrix(1.001628,0.000000,0.000000,0.998375,-124.3850,-23.26217)" />
    <linearGradient
       id="linearGradient1952">
      <stop
         style="stop-color:#b2b2b2;stop-opacity:1.0000000;"
         offset="0.0000000"
         id="stop1953" />
      <stop
         style="stop-color:#ffffff;stop-opacity:1.0000000;"
         offset="1.0000000"
         id="stop1954" />
    </linearGradient>
    <linearGradient
       x1="156.32828"
       y1="74.637535"
       x2="255.44855"
       y2="74.637535"
       id="linearGradient2381"
       xlink:href="#linearGradient1689"
       gradientUnits="userSpaceOnUse"
       gradientTransform="matrix(0.890868,0.000000,0.000000,1.122500,-73.98653,42.42267)" />
    <linearGradient
       id="linearGradient1689">
      <stop
         style="stop-color:#b2b2b2;stop-opacity:1.0000000;"
         offset="0.0000000"
         id="stop1690" />
      <stop
         style="stop-color:#ffffff;stop-opacity:1.0000000;"
         offset="1.0000000"
         id="stop1691" />
    </linearGradient>
    <linearGradient
       x1="156.32828"
       y1="74.637535"
       x2="255.44855"
       y2="74.637535"
       id="linearGradient1948"
       xlink:href="#linearGradient1689"
       gradientUnits="userSpaceOnUse"
       gradientTransform="matrix(0.890868,0.000000,0.000000,1.122500,-73.98653,42.42267)" />
    <linearGradient
       x1="18.999746"
       y1="59.695068"
       x2="118.12002"
       y2="59.695068"
       id="linearGradient1961"
       xlink:href="#linearGradient1952"
       gradientUnits="userSpaceOnUse"
       gradientTransform="matrix(0.890868,0.000000,0.000000,1.122500,12.12885,8.708178)" />
    <linearGradient
       x1="320.94125"
       y1="425.24084"
       x2="443.43933"
       y2="425.24084"
       id="linearGradient2038"
       xlink:href="#linearGradient1952"
       gradientUnits="userSpaceOnUse"
       gradientTransform="matrix(1.001628,0.000000,0.000000,0.998375,-124.3850,-23.26217)" />
  </defs>
  <path
     d="M 56.182861,136.21087 C 47.874731,134.71633 38.492291,132.10789 36.182861,130.65061 C 35.003751,129.90658 34.612041,126.89771 34.351801,116.58583 L 34.020751,103.46756 L 26.698991,96.512616 C 21.959121,92.010196 18.285061,87.423724 16.280041,83.506234 C 13.265761,77.616784 12.903071,73.648134 14.105921,70.174834 C 16.602351,59.696404 21.334651,57.210734 27.070011,53.839064 C 31.782191,51.900544 32.732151,51.127284 40.271151,51.127284 C 47.596391,51.439784 49.247851,52.228114 54.400101,54.299154 C 57.431831,55.774154 59.735851,57.627284 60.249311,57.627284 C 60.762761,57.627284 61.495361,53.961654 61.495361,51.486654 C 61.651611,48.230404 64.522561,41.173144 69.333661,39.019122 C 71.949961,37.666182 73.182861,36.077392 73.182861,31.661972 L 73.182861,26.748012 L 69.432861,26.437642 C 66.452981,26.191022 65.682861,25.716552 65.682861,24.127282 C 65.682861,22.543952 66.451811,22.063352 69.373741,21.820442 C 72.716361,21.542552 73.093791,21.212302 73.373741,18.320442 C 73.792901,13.990612 76.572821,13.990612 76.991981,18.320442 C 77.271931,21.212302 77.649361,21.542552 80.991971,21.820442 C 83.913901,22.063352 84.682851,22.543952 84.682851,24.127282 C 84.682851,25.716552 83.912731,26.191022 80.932851,26.437642 L 77.182861,26.748012 L 77.204501,31.937642 C 77.224671,36.773772 77.441901,37.229462 80.393451,38.627282 C 85.297401,40.949734 87.325371,44.533694 87.918801,51.926594 C 88.509661,59.287394 88.211491,59.206094 96.472651,54.258934 C 102.74048,50.505484 111.69871,49.641454 119.04575,52.081744 C 129.71562,55.782334 132.75008,61.771824 134.53505,66.397524 C 138.51729,76.717404 135.30406,85.580974 123.62743,96.485646 L 116.22249,103.40104 L 115.61160,116.26416 C 115.25187,123.83887 114.52424,129.61954 113.84178,130.32462 C 113.20437,130.98315 108.18285,132.70704 102.68285,134.15548 C 90.346631,137.40425 68.247111,138.38109 56.182861,136.21087 z "
     style="fill:#000000;fill-opacity:0.25098041;"
     id="path1073" />
  <path
     d="M 239.79704,461.27581 C 231.48891,459.78127 222.10647,457.17283 219.79704,455.71555 C 218.61793,454.97152 218.22622,451.96265 217.96598,441.65077 L 217.63493,428.53250 L 210.31317,421.57755 C 205.57330,417.07513 201.89924,412.48866 199.89422,408.57117 C 196.87994,402.68172 196.51725,398.71307 197.72010,395.23977 C 200.21653,384.76134 204.94883,382.27567 210.68419,378.90400 C 215.39637,376.96548 216.34633,376.19222 223.88533,376.19222 C 231.21057,376.50472 232.86203,377.29305 238.01428,379.36409 C 241.04601,380.83909 243.35003,382.69222 243.86349,382.69222 C 244.37694,382.69222 245.10954,379.02659 245.10954,376.55159 C 245.26579,373.29534 248.13674,366.23808 252.94784,364.08406 C 255.56414,362.73112 256.79704,361.14233 256.79704,356.72691 L 256.79704,351.81295 L 253.04704,351.50258 C 250.06716,351.25596 249.29704,350.78149 249.29704,349.19222 C 249.29704,347.60889 250.06599,347.12829 252.98792,346.88538 C 256.33054,346.60749 256.70797,346.27724 256.98792,343.38538 C 257.40708,339.05555 260.18700,339.05555 260.60616,343.38538 C 260.88611,346.27724 261.26354,346.60749 264.60616,346.88538 C 267.52809,347.12829 268.29704,347.60889 268.29704,349.19222 C 268.29704,350.78149 267.52692,351.25596 264.54704,351.50258 L 260.79704,351.81295 L 260.81868,357.00258 C 260.83885,361.83871 261.05608,362.29440 264.00764,363.69222 C 268.91159,366.01467 270.93956,369.59863 271.53299,376.99153 C 272.12385,384.35233 271.82568,384.27103 280.08684,379.32387 C 286.35467,375.57042 295.31290,374.70639 302.65994,377.14668 C 313.32981,380.84727 316.36427,386.83676 318.14924,391.46246 C 322.13148,401.78234 318.91825,410.64591 307.24162,421.55058 L 299.83668,428.46598 L 299.22579,441.32910 C 298.86606,448.90381 298.13843,454.68448 297.45597,455.38956 C 296.81856,456.04809 291.79704,457.77198 286.29704,459.22042 C 273.96082,462.46919 251.86129,463.44603 239.79704,461.27581 z "
     transform="translate(-187.1461,-328.6090)"
     style="fill:url(#linearGradient2038);fill-opacity:1.0000000;"
     id="path3750" />
  <path
     d="M 239.78563,461.27659 C 231.47750,459.78205 222.09506,457.17361 219.78563,455.71633 C 218.60652,454.97230 218.21481,451.96343 217.95457,441.65155 L 217.62352,428.53328 L 210.30176,421.57833 C 205.56189,417.07591 201.88783,412.48944 199.88281,408.57195 C 196.86853,402.68250 196.50584,398.71385 197.70869,395.24055 C 200.20512,384.76212 204.93742,382.27645 210.67278,378.90478 C 215.38496,376.96626 216.33492,376.19300 223.87392,376.19300 C 231.19916,376.50550 232.85062,377.29383 238.00287,379.36487 C 241.03460,380.83987 243.33862,382.69300 243.85208,382.69300 C 244.36553,382.69300 245.09813,379.02737 245.09813,376.55237 C 245.25438,373.29612 248.12533,366.23886 252.93643,364.08484 C 255.55273,362.73190 256.78563,361.14311 256.78563,356.72769 L 256.78563,351.81373 L 253.03563,351.50336 C 250.05575,351.25674 249.28563,350.78227 249.28563,349.19300 C 249.28563,347.60967 250.05458,347.12907 252.97651,346.88616 C 256.31913,346.60827 256.69656,346.27802 256.97651,343.38616 C 257.39567,339.05633 260.17559,339.05633 260.59475,343.38616 C 260.87470,346.27802 261.25213,346.60827 264.59475,346.88616 C 267.51668,347.12907 268.28563,347.60967 268.28563,349.19300 C 268.28563,350.78227 267.51551,351.25674 264.53563,351.50336 L 260.78563,351.81373 L 260.80727,357.00336 C 260.82744,361.83949 261.04467,362.29518 263.99623,363.69300 C 268.90018,366.01545 270.92815,369.59941 271.52158,376.99231 C 272.11244,384.35311 271.81427,384.27181 280.07543,379.32465 C 286.34326,375.57120 295.30149,374.70717 302.64853,377.14746 C 313.31840,380.84805 316.35286,386.83754 318.13783,391.46324 C 322.12007,401.78312 318.90684,410.64669 307.23021,421.55136 L 299.82527,428.46676 L 299.21438,441.32988 C 298.85465,448.90459 298.12702,454.68526 297.44456,455.39034 C 296.80715,456.04887 291.78563,457.77276 286.28563,459.22120 C 273.94941,462.46997 251.84988,463.44681 239.78563,461.27659 z M 283.64358,455.10282 C 286.79670,454.42460 288.95519,453.22766 289.20412,452.82489 C 289.45304,452.42212 285.97321,451.22179 281.47117,450.15748 C 270.18998,447.49056 247.66106,447.46581 236.03563,450.10757 C 231.49813,451.13868 227.78563,452.33494 227.78563,452.76594 C 227.78563,453.19693 230.37313,454.70301 233.53563,455.34889 C 238.88563,456.93226 245.57313,458.29477 259.09813,458.07481 C 272.94577,458.06219 280.49046,455.78104 283.64358,455.10282 z M 253.28563,442.99189 C 264.99577,442.39317 280.18428,443.90142 285.28210,446.16922 C 286.93404,446.90409 289.52313,447.78115 291.03563,448.11823 C 293.55294,448.67925 293.78563,448.48135 293.78563,445.77944 C 293.78563,442.46988 293.84588,442.50071 282.78563,440.15149 C 266.55489,436.70406 246.31022,437.19486 229.27155,441.44885 C 222.61520,443.11072 222.27128,443.34045 221.98156,446.31850 L 221.67748,449.44400 L 226.13781,447.86706 C 230.69255,446.00755 242.65789,443.53527 253.28563,442.99189 z M 233.79191,435.02354 C 246.04854,432.38410 272.92179,432.54557 284.96159,435.33100 L 295.40532,437.78014 C 295.40532,437.78014 295.81125,431.94377 295.62474,430.66323 C 295.34520,428.74400 294.31943,428.11037 289.78563,427.05636 C 272.39752,423.48050 250.70442,422.43985 229.78563,426.62940 L 222.28563,428.22031 L 221.96900,432.06181 C 221.56120,437.00929 221.93198,439.94249 223.61181,438.54836 C 224.29626,437.98031 229.12037,436.02955 233.79191,435.02354 z M 226.31661,422.14958 C 229.97691,421.30070 238.21733,420.05775 244.62866,419.38746 L 256.28563,418.16876 C 256.28563,418.16876 257.12387,413.48395 255.39104,407.87775 C 253.83979,402.40432 248.11015,391.01535 244.85019,389.01458 C 242.46984,385.53035 231.01078,381.49027 225.78563,381.00540 C 209.43976,379.48858 197.55860,393.25698 203.86791,406.40462 C 205.81467,410.46137 217.49624,423.69300 219.13098,423.69300 C 219.42278,423.69300 222.65631,422.99846 226.31661,422.14958 z M 305.03877,417.44300 C 312.97239,409.53488 316.26980,403.12227 315.35245,397.38552 C 315.43094,394.22872 312.90435,389.84863 311.46903,388.19863 C 308.57370,384.37386 302.23505,381.47669 295.38117,380.91241 C 288.85929,380.37547 280.11572,383.36217 274.32976,388.10333 C 270.39551,391.32715 269.22365,393.24473 262.51802,407.43154 C 261.93608,408.66273 261.42072,411.56563 261.37279,413.88242 L 261.28563,418.09477 L 273.02679,419.41506 C 279.48443,420.14122 287.35943,421.36333 290.52679,422.13086 C 293.69415,422.89839 296.84430,423.56386 297.52712,423.60969 C 298.20994,423.65551 301.59018,420.88050 305.03877,417.44300 z M 263.11837,393.54344 C 268.73161,381.68747 269.21038,374.67278 264.73423,369.86820 C 262.06874,367.00714 255.59718,366.88145 252.84141,369.63722 C 250.50615,371.97248 249.32813,377.48631 250.12082,382.37114 C 250.68324,385.83689 257.78266,401.61791 258.78563,401.63179 C 259.06063,401.63560 261.01036,397.99584 263.11837,393.54344 z "
     transform="translate(-187.1461,-328.6090)"
     id="path3746" />
</svg>
