<?xml version="1.0" encoding="UTF-8" standalone="no"?>
<!DOCTYPE svg PUBLIC "-//W3C//DTD SVG 20010904//EN"
"http://www.w3.org/TR/2001/REC-SVG-20010904/DTD/svg10.dtd">
<!-- Created with Inkscape (http://www.inkscape.org/) -->
<svg
   version="1.0"
   x="0.0000000"
   y="0.0000000"
   width="143.75000"
   height="143.75000"
   id="svg1767"
   xmlns="http://www.w3.org/2000/svg"
   xmlns:xlink="http://www.w3.org/1999/xlink"
   xmlns:sodipodi="http://sodipodi.sourceforge.net/DTD/sodipodi-0.dtd"
   xmlns:inkscape="http://www.inkscape.org/namespaces/inkscape"
   sodipodi:version="0.32"
   inkscape:version="0.40"
   xmlns:rdf="http://www.w3.org/1999/02/22-rdf-syntax-ns#"
   xmlns:cc="http://web.resource.org/cc/"
   xmlns:dc="http://purl.org/dc/elements/1.1/"
   sodipodi:docname="white-pawn.svg"
   sodipodi:docbase="/home/daniel/Desktop/Projects/chessmonk/Data">
  <metadata
     id="metadata2530">
    <rdf:RDF
       id="RDF2531">
      <cc:Work
         rdf:about=""
         id="Work2532">
        <dc:format
           id="format2533">image/svg+xml</dc:format>
        <dc:type
           id="type2535"
           rdf:resource="http://purl.org/dc/dcmitype/StillImage" />
      </cc:Work>
    </rdf:RDF>
  </metadata>
  <sodipodi:namedview
     id="base"
     pagecolor="#ffffff"
     bordercolor="#666666"
     borderopacity="1.0"
     inkscape:pageopacity="0.0"
     inkscape:pageshadow="2"
     inkscape:zoom="1.7366334"
     inkscape:cx="61.575585"
     inkscape:cy="78.609227"
     inkscape:window-width="640"
     inkscape:window-height="562"
     inkscape:window-x="282"
     inkscape:window-y="211"
     inkscape:current-layer="svg1767" />
  <defs
     id="defs3">
    <linearGradient
       id="linearGradient1952">
      <stop
         style="stop-color:#b2b2b2;stop-opacity:1.0000000;"
         offset="0.0000000"
         id="stop1953" />
      <stop
         style="stop-color:#ffffff;stop-opacity:1.0000000;"
         offset="1.0000000"
         id="stop1954" />
    </linearGradient>
    <linearGradient
       x1="156.32828"
       y1="74.637535"
       x2="255.44855"
       y2="74.637535"
       id="linearGradient2381"
       xlink:href="#linearGradient1689"
       gradientUnits="userSpaceOnUse"
       gradientTransform="matrix(0.890868,0.000000,0.000000,1.122500,-73.98653,42.42267)" />
    <linearGradient
       id="linearGradient1689">
      <stop
         style="stop-color:#b2b2b2;stop-opacity:1.0000000;"
         offset="0.0000000"
         id="stop1690" />
      <stop
         style="stop-color:#ffffff;stop-opacity:1.0000000;"
         offset="1.0000000"
         id="stop1691" />
    </linearGradient>
    <linearGradient
       x1="156.32828"
       y1="74.637535"
       x2="255.44855"
       y2="74.637535"
       id="linearGradient1948"
       xlink:href="#linearGradient1689"
       gradientUnits="userSpaceOnUse"
       gradientTransform="matrix(0.890868,0.000000,0.000000,1.122500,-73.98653,42.42267)" />
    <linearGradient
       x1="18.999746"
       y1="59.695068"
       x2="118.12002"
       y2="59.695068"
       id="linearGradient1961"
       xlink:href="#linearGradient1952"
       gradientUnits="userSpaceOnUse"
       gradientTransform="matrix(0.890868,0.000000,0.000000,1.122500,12.12885,8.708178)" />
    <linearGradient
       inkscape:collect="always"
       xlink:href="#linearGradient1952"
       id="linearGradient2539"
       gradientUnits="userSpaceOnUse"
       gradientTransform="matrix(0.890868,0.000000,0.000000,1.122500,12.12885,8.708178)"
       x1="18.999746"
       y1="59.695068"
       x2="118.12002"
       y2="59.695068" />
  </defs>
  <path
     d="M 33.364627,134.05123 C 32.012197,128.49125 32.581737,122.57156 34.048107,117.10847 C 37.097797,109.06367 39.646237,100.34012 46.208907,94.337686 C 49.388537,91.032736 53.036527,87.935179 57.479367,86.526699 C 56.797447,82.808879 54.048247,80.338699 52.416247,76.402149 C 49.813807,69.233949 49.535317,60.752029 55.030467,54.949849 C 57.029767,52.371679 59.969637,50.714059 62.060327,48.282059 C 63.468467,43.967859 59.710297,42.421129 60.668517,35.574369 C 62.776537,27.262619 72.515987,22.410010 80.537277,25.067200 C 86.170657,26.196050 91.408767,30.553179 92.169637,36.460309 C 93.510347,40.792159 88.859397,45.008269 91.235377,49.175989 C 94.630887,52.010999 98.435337,54.720369 100.46863,58.820849 C 103.10896,63.752229 103.76035,68.093869 101.60296,74.933639 C 98.781047,83.593849 93.554077,82.111439 95.972837,87.040469 C 101.71718,88.750056 105.21701,91.887266 110.20184,97.902816 C 115.17031,104.63894 118.24258,110.94082 119.55712,119.24210 C 120.87171,123.36285 122.17341,130.79015 118.51021,134.32035 C 114.69502,135.90985 110.44863,134.86753 106.44282,135.32855 C 84.128317,135.70415 61.797087,135.71618 39.488917,135.20266 C 37.423117,135.02352 35.273547,134.95552 33.364627,134.05123 z "
     style="fill:#000000;fill-opacity:0.25098041"
     id="path2537" />
  <g
     id="layer1">
    <path
       d="M 29.821319,129.79802 C 28.468889,124.23804 29.038429,118.31835 30.504799,112.85526 C 33.554489,104.81046 36.102929,96.086914 42.665599,90.084484 C 45.845229,86.779534 49.493219,83.681972 53.936059,82.273492 C 53.254139,78.555672 50.504939,76.085492 48.872939,72.148942 C 46.270499,64.980742 45.992009,56.498822 51.487159,50.696642 C 53.486459,48.118472 56.426329,46.460852 58.517019,44.028852 C 59.925159,39.714652 56.166989,38.167922 57.125209,31.321162 C 59.233229,23.009412 68.972679,18.156803 76.993969,20.813993 C 82.627349,21.942843 87.865459,26.299972 88.626329,32.207102 C 89.967039,36.538952 85.316089,40.755062 87.692069,44.922782 C 91.087579,47.757792 94.892029,50.467162 96.925319,54.567642 C 99.565649,59.499022 100.21704,63.840662 98.059649,70.680432 C 95.237739,79.340642 90.010769,77.858232 92.429529,82.787262 C 98.173869,84.496852 101.67370,87.634064 106.65853,93.649614 C 111.62700,100.38573 114.69927,106.68761 116.01381,114.98889 C 117.32840,119.10964 118.63010,126.53694 114.96690,130.06714 C 111.15171,131.65664 106.90532,130.61432 102.89951,131.07534 C 80.585009,131.45094 58.253779,131.46297 35.945609,130.94945 C 33.879809,130.77031 31.730239,130.70231 29.821319,129.79802 z "
       style="fill:url(#linearGradient1961);fill-opacity:1.0000000"
       id="path1067" />
    <path
       d="M 30.175649,130.50792 C 28.823219,124.94794 29.392759,119.02825 30.859129,113.56516 C 33.908819,105.52036 36.457259,96.796800 43.019929,90.794380 C 46.199559,87.489430 49.847549,84.391868 54.290389,82.983388 C 53.608469,79.265568 50.859269,76.795378 49.227259,72.858828 C 46.624829,65.690638 46.346339,57.208718 51.841489,51.406538 C 53.840789,48.828368 56.780649,47.170748 58.871349,44.738748 C 60.279479,40.424548 56.521309,38.877818 57.479529,32.031058 C 59.587559,23.719308 69.326999,18.866698 77.348299,21.523889 C 82.981679,22.652739 88.219779,27.009868 88.980659,32.916998 C 90.321369,37.248848 85.670409,41.464958 88.046399,45.632678 C 91.441899,48.467688 95.246359,51.177058 97.279649,55.277538 C 99.919979,60.208918 100.57137,64.550558 98.413979,71.390328 C 95.592069,80.050538 90.365089,78.568128 92.783859,83.497158 C 98.528199,85.206748 102.02803,88.343960 107.01286,94.359510 C 111.98133,101.09563 115.05360,107.39751 116.36814,115.69879 C 117.68273,119.81954 118.98443,127.24684 115.32123,130.77704 C 111.50604,132.36654 107.25965,131.32422 103.25384,131.78524 C 80.939329,132.16084 58.608099,132.17287 36.299939,131.65935 C 34.234139,131.48021 32.084569,131.41221 30.175649,130.50792 z M 111.68572,120.77474 C 110.65186,111.32898 106.09079,102.65224 100.93925,94.838990 C 96.965009,90.072800 91.356099,86.930100 85.501039,85.069798 C 81.215379,80.897578 88.883399,78.351598 90.990869,75.626708 C 93.974549,70.864908 94.655049,64.814328 93.598089,59.373658 C 92.038259,53.673898 86.850819,48.973858 80.869499,48.562548 C 75.667929,47.000348 79.759469,42.095068 82.372469,40.398448 C 85.057769,36.216708 84.471939,29.165988 79.278809,27.248518 C 73.966749,25.045898 66.261139,25.399398 63.306499,31.095198 C 61.118689,35.588688 63.396639,41.109158 67.193249,43.963768 C 70.218189,49.269758 61.158489,48.493088 58.595889,51.012708 C 52.301269,55.325678 51.091159,64.051008 53.181289,70.921208 C 53.834529,75.967008 58.877929,78.303328 62.190379,81.459978 C 62.385149,86.024180 56.943289,86.371080 53.799689,87.778840 C 46.703649,91.863640 41.389349,98.708740 38.546509,106.36740 C 36.522039,111.97829 34.675659,117.74075 34.167459,123.71624 C 36.145849,129.06854 43.044199,125.87038 47.293679,126.91651 C 68.990359,127.12430 90.688589,126.96344 112.38599,127.02474 C 112.15257,124.94141 111.91915,122.85807 111.68572,120.77474 z "
       id="path1062" />
  </g>
</svg>
