<?xml version="1.0" encoding="UTF-8" standalone="no"?>
<!DOCTYPE svg PUBLIC "-//W3C//DTD SVG 20010904//EN"
"http://www.w3.org/TR/2001/REC-SVG-20010904/DTD/svg10.dtd">
<!-- Created with Inkscape (http://www.inkscape.org/) -->
<svg
   version="1.0"
   x="0.0000000"
   y="0.0000000"
   width="143.75000"
   height="143.75000"
   id="svg1767"
   xmlns="http://www.w3.org/2000/svg"
   xmlns:xlink="http://www.w3.org/1999/xlink"
   xmlns:sodipodi="http://sodipodi.sourceforge.net/DTD/sodipodi-0.dtd"
   xmlns:inkscape="http://www.inkscape.org/namespaces/inkscape"
   sodipodi:version="0.32"
   inkscape:version="0.40"
   xmlns:rdf="http://www.w3.org/1999/02/22-rdf-syntax-ns#"
   xmlns:cc="http://web.resource.org/cc/"
   xmlns:dc="http://purl.org/dc/elements/1.1/"
   sodipodi:docname="white-queen.svg"
   sodipodi:docbase="/home/daniel/Desktop/Projects/chessmonk/Data">
  <metadata
     id="metadata2637">
    <rdf:RDF
       id="RDF2638">
      <cc:Work
         rdf:about=""
         id="Work2639">
        <dc:format
           id="format2640">image/svg+xml</dc:format>
        <dc:type
           id="type2642"
           rdf:resource="http://purl.org/dc/dcmitype/StillImage" />
      </cc:Work>
    </rdf:RDF>
  </metadata>
  <sodipodi:namedview
     id="base"
     pagecolor="#ffffff"
     bordercolor="#666666"
     borderopacity="1.0"
     inkscape:pageopacity="0.0"
     inkscape:pageshadow="2"
     inkscape:zoom="1.7366334"
     inkscape:cx="103.04093"
     inkscape:cy="90.137412"
     inkscape:window-width="640"
     inkscape:window-height="562"
     inkscape:window-x="210"
     inkscape:window-y="147"
     inkscape:current-layer="svg1767" />
  <defs
     id="defs3">
    <linearGradient
       id="linearGradient1689">
      <stop
         style="stop-color:#b2b2b2;stop-opacity:1.0000000;"
         offset="0.0000000"
         id="stop1690" />
      <stop
         style="stop-color:#ffffff;stop-opacity:1.0000000;"
         offset="1.0000000"
         id="stop1691" />
    </linearGradient>
    <linearGradient
       x1="522.10913"
       y1="453.90948"
       x2="653.36127"
       y2="453.90948"
       id="linearGradient3633"
       xlink:href="#linearGradient1689"
       gradientUnits="userSpaceOnUse"
       gradientTransform="matrix(1.036174,0.000000,0.000000,0.965089,-171.0744,-36.40999)" />
    <linearGradient
       inkscape:collect="always"
       xlink:href="#linearGradient1689"
       id="linearGradient2646"
       gradientUnits="userSpaceOnUse"
       gradientTransform="matrix(1.036174,0.000000,0.000000,0.965089,-171.0744,-36.40999)"
       x1="522.10913"
       y1="453.90948"
       x2="653.36127"
       y2="453.90948" />
  </defs>
  <path
     d="M 55.966335,138.11484 C 53.230305,137.86551 50.530305,137.28524 49.966335,136.82536 C 49.402375,136.36547 45.340945,135.66702 40.940945,135.27325 C 36.064045,134.83680 32.257765,133.95653 31.190945,133.01839 C 29.306095,131.36088 28.778155,125.31710 30.429075,124.29677 C 30.972555,123.96089 32.582295,121.69801 34.006285,119.26815 C 36.463185,115.07578 36.535515,114.55512 35.423095,109.06984 C 34.521915,104.62616 32.988255,101.62831 28.791075,96.106174 C 22.843785,88.281454 23.157755,89.454604 18.402635,57.289444 C 16.808295,46.504874 16.569045,45.789444 14.556755,45.789444 C 13.541405,45.789444 11.524975,44.856784 10.075805,43.716864 C 7.9499749,42.044684 7.4409449,40.802974 7.4409449,37.289444 C 7.4409449,33.775914 7.9499749,32.534204 10.075805,30.862024 C 13.971415,27.797734 18.942925,28.137574 22.517865,31.712524 C 25.899895,35.094554 26.255425,38.562044 23.561285,41.889164 C 21.710055,44.175324 21.717625,44.267474 24.061285,47.980074 C 25.370095,50.053364 26.440945,52.138874 26.440945,52.614534 C 26.440945,53.090194 28.214395,56.223244 30.381945,59.576864 C 32.549495,62.930494 35.577505,68.236504 37.110855,71.368004 L 39.898755,77.061644 L 40.553025,73.675544 C 40.912875,71.813184 41.460405,62.304684 41.769745,52.545524 C 42.303295,35.713334 42.232755,34.748394 40.396915,33.765884 C 38.084085,32.528094 35.440945,27.726194 35.440945,24.762184 C 35.440945,23.592564 36.756325,21.320214 38.364025,19.712524 C 42.294035,15.782514 46.587855,15.782514 50.517865,19.712524 C 54.116505,23.311154 54.247235,26.677764 50.940945,30.607074 C 48.050165,34.042564 47.906755,35.241634 49.924025,39.109264 C 51.484685,42.101434 58.417475,62.481964 58.474875,64.246434 C 58.493535,64.820084 59.378265,67.089444 60.440945,69.289444 C 61.503625,71.489444 62.435755,73.964444 62.512365,74.789444 C 62.588965,75.614444 64.765105,65.772424 67.348225,52.918294 L 72.044805,29.547154 L 69.242875,26.745224 C 65.437795,22.940144 65.481545,18.594994 69.364025,14.712524 C 73.294035,10.782514 77.587855,10.782514 81.517865,14.712524 C 83.423905,16.618564 84.440945,18.659244 84.440945,20.577664 C 84.440945,23.823124 81.089745,28.789444 78.899745,28.789444 C 77.567055,28.789444 77.618065,29.626504 79.204415,33.789444 C 79.518795,34.614444 81.640415,44.514444 83.919125,55.789444 L 88.062245,76.289444 L 89.440645,71.039444 C 90.198765,68.151944 91.183975,65.789444 91.629995,65.789444 C 92.076015,65.789444 92.440945,65.207584 92.440945,64.496434 C 92.440945,62.758724 99.242385,42.153074 101.21287,37.920974 C 102.21461,35.769524 102.44881,34.104044 101.86110,33.311244 C 97.556315,27.504214 97.235455,26.698334 97.873675,23.296344 C 98.596875,19.441354 102.30338,16.789444 106.96820,16.789444 C 110.23095,16.789444 115.44094,21.777124 115.44094,24.900644 C 115.44094,27.757484 111.54939,33.527824 109.21017,34.139544 C 107.81340,34.504804 107.44094,35.662104 107.44094,39.636804 C 107.44094,42.405844 107.89094,44.949524 108.44094,45.289444 C 109.02002,45.647334 109.44094,51.091494 109.44094,58.223464 C 109.44094,64.997254 109.72862,71.977854 110.08023,73.735914 L 110.71953,76.932394 L 113.69679,71.110914 C 115.33428,67.909104 118.12584,63.039444 119.90024,60.289444 C 121.67465,57.539444 124.37005,52.843704 125.89003,49.854474 C 128.51881,44.684644 128.57526,44.286844 127.04728,41.700184 C 124.68549,37.701984 125.06979,35.006754 128.48921,31.587324 C 131.18961,28.886934 132.01583,28.603214 135.72899,29.101254 C 140.91996,29.797504 143.44094,32.650104 143.44094,37.827644 C 143.44094,40.759754 142.83029,42.124614 140.80608,43.716864 C 139.35691,44.856784 137.34048,45.789444 136.32513,45.789444 C 134.14369,45.789444 134.29576,45.174984 130.88037,67.789444 C 127.99208,86.913844 126.96664,90.072584 121.46595,96.789444 C 116.58704,102.74705 116.55288,102.81659 115.37508,109.18790 C 114.49017,113.97480 114.61549,115.21126 116.32524,118.56266 C 117.40848,120.68598 119.00265,123.01073 119.86785,123.72878 C 121.98251,125.48380 121.87561,131.09722 119.69094,133.01839 C 118.62412,133.95653 114.81784,134.83680 109.94094,135.27325 C 105.54094,135.66702 101.38150,136.44681 100.69775,137.00611 C 99.399795,138.06782 64.848275,138.92422 55.966335,138.11484 z "
     style="fill:#000000;fill-opacity:0.25098041"
     id="path2644" />
  <g
     id="layer1">
    <path
       d="M 418.44665,464.66799 C 415.71062,464.41866 413.01062,463.83839 412.44665,463.37851 C 411.88269,462.91862 407.82126,462.22017 403.42126,461.82640 C 398.54436,461.38995 394.73808,460.50968 393.67126,459.57154 C 391.78641,457.91403 391.25847,451.87025 392.90939,450.84992 C 393.45287,450.51404 395.06261,448.25116 396.48660,445.82130 C 398.94350,441.62893 399.01583,441.10827 397.90341,435.62299 C 397.00223,431.17931 395.46857,428.18146 391.27139,422.65932 C 385.32410,414.83460 385.63807,416.00775 380.88295,383.84259 C 379.28861,373.05802 379.04936,372.34259 377.03707,372.34259 C 376.02172,372.34259 374.00529,371.40993 372.55612,370.27001 C 370.43029,368.59783 369.92126,367.35612 369.92126,363.84259 C 369.92126,360.32906 370.43029,359.08735 372.55612,357.41517 C 376.45173,354.35088 381.42324,354.69072 384.99818,358.26567 C 388.38021,361.64770 388.73574,365.11519 386.04160,368.44231 C 384.19037,370.72847 384.19794,370.82062 386.54160,374.53322 C 387.85041,376.60651 388.92126,378.69202 388.92126,379.16768 C 388.92126,379.64334 390.69471,382.77639 392.86226,386.13001 C 395.02981,389.48364 398.05782,394.78965 399.59117,397.92115 L 402.37907,403.61479 L 403.03334,400.22869 C 403.39319,398.36633 403.94072,388.85783 404.25006,379.09867 C 404.78361,362.26648 404.71307,361.30154 402.87723,360.31903 C 400.56440,359.08124 397.92126,354.27934 397.92126,351.31533 C 397.92126,350.14571 399.23664,347.87336 400.84434,346.26567 C 404.77435,342.33566 409.06817,342.33566 412.99818,346.26567 C 416.59682,349.86430 416.72755,353.23091 413.42126,357.16022 C 410.53048,360.59571 410.38707,361.79478 412.40434,365.66241 C 413.96500,368.65458 420.89779,389.03511 420.95519,390.79958 C 420.97385,391.37323 421.85858,393.64259 422.92126,395.84259 C 423.98394,398.04259 424.91607,400.51759 424.99268,401.34259 C 425.06928,402.16759 427.24542,392.32557 429.82854,379.47144 L 434.52512,356.10030 L 431.72319,353.29837 C 427.91811,349.49329 427.96186,345.14814 431.84434,341.26567 C 435.77435,337.33566 440.06817,337.33566 443.99818,341.26567 C 445.90422,343.17171 446.92126,345.21239 446.92126,347.13081 C 446.92126,350.37627 443.57006,355.34259 441.38006,355.34259 C 440.04737,355.34259 440.09838,356.17965 441.68473,360.34259 C 441.99911,361.16759 444.12073,371.06759 446.39944,382.34259 L 450.54256,402.84259 L 451.92096,397.59259 C 452.67908,394.70509 453.66429,392.34259 454.11031,392.34259 C 454.55633,392.34259 454.92126,391.76073 454.92126,391.04958 C 454.92126,389.31187 461.72270,368.70622 463.69319,364.47412 C 464.69493,362.32267 464.92913,360.65719 464.34142,359.86439 C 460.03663,354.05736 459.71577,353.25148 460.35399,349.84949 C 461.07719,345.99450 464.78370,343.34259 469.44852,343.34259 C 472.71127,343.34259 477.92126,348.33027 477.92126,351.45379 C 477.92126,354.31063 474.02971,360.08097 471.69049,360.69269 C 470.29372,361.05795 469.92126,362.21525 469.92126,366.18995 C 469.92126,368.95899 470.37126,371.50267 470.92126,371.84259 C 471.50034,372.20048 471.92126,377.64464 471.92126,384.77661 C 471.92126,391.55040 472.20894,398.53100 472.56055,400.28906 L 473.19985,403.48554 L 476.17711,397.66406 C 477.81460,394.46225 480.60616,389.59259 482.38056,386.84259 C 484.15497,384.09259 486.85037,379.39685 488.37035,376.40762 C 490.99913,371.23779 491.05558,370.83999 489.52760,368.25333 C 487.16581,364.25513 487.55011,361.55990 490.96953,358.14047 C 493.66993,355.44008 494.49615,355.15636 498.20931,355.65440 C 503.40028,356.35065 505.92126,359.20325 505.92126,364.38079 C 505.92126,367.31290 505.31061,368.67776 503.28640,370.27001 C 501.83723,371.40993 499.82080,372.34259 498.80545,372.34259 C 496.62401,372.34259 496.77608,371.72813 493.36069,394.34259 C 490.47240,413.46699 489.44696,416.62573 483.94627,423.34259 C 479.06736,429.30020 479.03320,429.36974 477.85540,435.74105 C 476.97049,440.52795 477.09581,441.76441 478.80556,445.11581 C 479.88880,447.23913 481.48297,449.56388 482.34817,450.28193 C 484.46283,452.03695 484.35593,457.65037 482.17126,459.57154 C 481.10444,460.50968 477.29816,461.38995 472.42126,461.82640 C 468.02126,462.22017 463.86182,462.99996 463.17807,463.55926 C 461.88011,464.62097 427.32859,465.47737 418.44665,464.66799 z "
       transform="translate(-366.0123,-330.0965)"
       style="fill:url(#linearGradient3633);fill-opacity:1.0000000"
       id="path3597" />
    <path
       d="M 418.43529,464.66676 C 415.69926,464.41743 412.99926,463.83716 412.43529,463.37728 C 411.87133,462.91739 407.80990,462.21894 403.40990,461.82517 C 398.53300,461.38872 394.72672,460.50845 393.65990,459.57031 C 391.77505,457.91280 391.24711,451.86902 392.89803,450.84869 C 393.44151,450.51281 395.05125,448.24993 396.47524,445.82007 C 398.93214,441.62770 399.00447,441.10704 397.89205,435.62176 C 396.99087,431.17808 395.45721,428.18023 391.26003,422.65809 C 385.31274,414.83337 385.62671,416.00652 380.87159,383.84136 C 379.27725,373.05679 379.03800,372.34136 377.02571,372.34136 C 376.01036,372.34136 373.99393,371.40870 372.54476,370.26878 C 370.41893,368.59660 369.90990,367.35489 369.90990,363.84136 C 369.90990,360.32783 370.41893,359.08612 372.54476,357.41394 C 376.44037,354.34965 381.41188,354.68949 384.98682,358.26444 C 388.36885,361.64647 388.72438,365.11396 386.03024,368.44108 C 384.17901,370.72724 384.18658,370.81939 386.53024,374.53199 C 387.83905,376.60528 388.90990,378.69079 388.90990,379.16645 C 388.90990,379.64211 390.68335,382.77516 392.85090,386.12878 C 395.01845,389.48241 398.04646,394.78842 399.57981,397.91992 L 402.36771,403.61356 L 403.02198,400.22746 C 403.38183,398.36510 403.92936,388.85660 404.23870,379.09744 C 404.77225,362.26525 404.70171,361.30031 402.86587,360.31780 C 400.55304,359.08001 397.90990,354.27811 397.90990,351.31410 C 397.90990,350.14448 399.22528,347.87213 400.83298,346.26444 C 404.76299,342.33443 409.05681,342.33443 412.98682,346.26444 C 416.58546,349.86307 416.71619,353.22968 413.40990,357.15899 C 410.51912,360.59448 410.37571,361.79355 412.39298,365.66118 C 413.95364,368.65335 420.88643,389.03388 420.94383,390.79835 C 420.96249,391.37200 421.84722,393.64136 422.90990,395.84136 C 423.97258,398.04136 424.90471,400.51636 424.98132,401.34136 C 425.05792,402.16636 427.23406,392.32434 429.81718,379.47021 L 434.51376,356.09907 L 431.71183,353.29714 C 427.90675,349.49206 427.95050,345.14691 431.83298,341.26444 C 435.76299,337.33443 440.05681,337.33443 443.98682,341.26444 C 445.89286,343.17048 446.90990,345.21116 446.90990,347.12958 C 446.90990,350.37504 443.55870,355.34136 441.36870,355.34136 C 440.03601,355.34136 440.08702,356.17842 441.67337,360.34136 C 441.98775,361.16636 444.10937,371.06636 446.38808,382.34136 L 450.53120,402.84136 L 451.90960,397.59136 C 452.66772,394.70386 453.65293,392.34136 454.09895,392.34136 C 454.54497,392.34136 454.90990,391.75950 454.90990,391.04835 C 454.90990,389.31064 461.71134,368.70499 463.68183,364.47289 C 464.68357,362.32144 464.91777,360.65596 464.33006,359.86316 C 460.02527,354.05613 459.70441,353.25025 460.34263,349.84826 C 461.06583,345.99327 464.77234,343.34136 469.43716,343.34136 C 472.69991,343.34136 477.90990,348.32904 477.90990,351.45256 C 477.90990,354.30940 474.01835,360.07974 471.67913,360.69146 C 470.28236,361.05672 469.90990,362.21402 469.90990,366.18872 C 469.90990,368.95776 470.35990,371.50144 470.90990,371.84136 C 471.48898,372.19925 471.90990,377.64341 471.90990,384.77538 C 471.90990,391.54917 472.19758,398.52977 472.54919,400.28783 L 473.18849,403.48431 L 476.16575,397.66283 C 477.80324,394.46102 480.59480,389.59136 482.36920,386.84136 C 484.14361,384.09136 486.83901,379.39562 488.35899,376.40639 C 490.98777,371.23656 491.04422,370.83876 489.51624,368.25210 C 487.15445,364.25390 487.53875,361.55867 490.95817,358.13924 C 493.65857,355.43885 494.48479,355.15513 498.19795,355.65317 C 503.38892,356.34942 505.90990,359.20202 505.90990,364.37956 C 505.90990,367.31167 505.29925,368.67653 503.27504,370.26878 C 501.82587,371.40870 499.80944,372.34136 498.79409,372.34136 C 496.61265,372.34136 496.76472,371.72690 493.34933,394.34136 C 490.46104,413.46576 489.43560,416.62450 483.93491,423.34136 C 479.05600,429.29897 479.02184,429.36851 477.84404,435.73982 C 476.95913,440.52672 477.08445,441.76318 478.79420,445.11458 C 479.87744,447.23790 481.47161,449.56265 482.33681,450.28070 C 484.45147,452.03572 484.34457,457.64914 482.15990,459.57031 C 481.09308,460.50845 477.28680,461.38872 472.40990,461.82517 C 468.00990,462.21894 463.85046,462.99873 463.16671,463.55803 C 461.86875,464.61974 427.31723,465.47614 418.43529,464.66676 z M 463.16643,458.65466 C 478.25502,457.02979 478.89622,456.87061 478.29220,454.89961 C 477.94529,453.76757 477.60485,452.77456 477.53567,452.69291 C 476.93352,451.98217 445.71085,449.34136 437.90990,449.34136 C 430.10895,449.34136 398.88628,451.98217 398.28413,452.69291 C 398.21495,452.77456 397.87119,453.77804 397.52022,454.92286 C 396.90984,456.91383 397.48071,457.07148 410.64599,458.54756 C 429.33373,460.64282 444.41862,460.67358 463.16643,458.65466 z M 412.81389,445.96488 C 414.80758,444.36947 461.07460,444.40428 463.00637,446.00264 C 464.75097,447.44613 474.46836,448.14173 474.25604,446.80793 C 473.69231,443.26652 457.25108,440.34136 437.90990,440.34136 C 426.90528,440.34136 407.70347,442.22358 406.45990,443.42418 C 405.93740,443.92863 404.69990,444.34136 403.70990,444.34136 C 402.71990,444.34136 401.90990,444.52956 401.90990,444.75957 C 401.90990,444.98959 401.66123,445.82581 401.35730,446.61783 C 400.90576,447.79453 401.77445,447.96923 406.10730,447.57314 C 409.02373,447.30653 412.04170,446.58281 412.81389,445.96488 z M 412.81359,436.97286 C 414.77038,435.39553 461.04942,435.39553 463.00621,436.97286 C 463.77824,437.59518 466.11110,438.29392 468.19035,438.52561 C 471.58666,438.90406 472.02466,438.68747 472.50076,436.39411 C 472.79223,434.99010 473.42434,433.10671 473.90544,432.20880 C 474.92058,430.31417 473.98678,430.10776 455.97130,428.24466 C 443.43120,426.94781 421.03397,427.48298 408.78061,429.37226 C 401.76136,430.45452 401.18833,430.72020 401.61408,432.69497 C 402.73019,437.87182 403.85578,438.94515 407.71780,438.51530 C 409.74845,438.28928 412.04156,437.59518 412.81359,436.97286 z M 417.40990,423.27899 C 432.28381,421.56393 450.65811,422.10448 471.41510,424.86776 C 476.38101,425.52884 476.44683,425.50107 479.79913,421.32957 C 483.86053,416.27570 483.11434,415.37940 474.82657,415.35667 C 471.75573,415.34825 468.91337,415.01149 468.51020,414.60832 C 466.88402,412.98215 459.54555,411.46599 457.80623,412.39684 C 455.22851,413.77640 446.01994,413.47093 441.48581,411.85545 C 438.72189,410.87070 437.00681,410.75431 435.68485,411.46180 C 432.75708,413.02870 420.55945,413.75935 418.22109,412.50791 C 416.21315,411.43329 412.31580,412.16028 407.67347,414.47540 C 406.71843,414.95168 403.56843,415.34825 400.67347,415.35667 C 392.71902,415.37981 391.99068,416.31479 396.02067,421.32957 C 399.37297,425.50107 399.43879,425.52884 404.40470,424.86776 C 407.15756,424.50128 413.00990,423.78634 417.40990,423.27899 z M 393.64782,410.81237 C 395.00937,409.85871 396.78633,409.52323 398.37032,409.92078 C 401.53353,410.71470 401.56073,409.76342 398.50350,405.26430 C 397.17999,403.31657 394.44942,398.59961 392.43558,394.78217 C 388.83768,387.96198 384.89215,382.73123 386.21506,386.53536 C 386.53906,387.46706 387.59673,393.65456 388.56545,400.28536 C 389.53416,406.91616 390.58282,412.34136 390.89581,412.34136 C 391.20880,412.34136 392.44721,411.65332 393.64782,410.81237 z M 487.54574,398.59136 C 488.69088,391.02886 489.54463,384.73220 489.44295,384.59878 C 489.26824,384.36953 483.65614,393.71373 477.71723,404.12221 C 474.33601,410.04812 474.30545,410.70988 477.44947,409.92078 C 479.03347,409.52323 480.81043,409.85871 482.17198,410.81237 C 483.37259,411.65332 484.60438,412.34136 484.90928,412.34136 C 485.21419,412.34136 486.40059,406.15386 487.54574,398.59136 z M 412.82886,407.59136 C 415.75812,405.92757 416.06086,405.92710 418.97425,407.58178 C 421.88625,409.23567 422.01345,409.23567 421.53276,407.58178 C 417.73323,394.50862 416.51380,390.68438 415.87591,389.84136 C 415.45974,389.29136 414.17726,385.77307 413.02597,382.02295 C 409.51727,370.59399 408.97380,370.71604 408.94031,382.94048 C 408.92358,389.04500 408.61887,397.48250 408.26316,401.69048 C 407.55399,410.07995 407.82677,410.43250 412.82886,407.59136 z M 463.37914,407.75486 C 465.32763,408.80419 467.09807,409.47793 467.31344,409.25205 C 468.07734,408.45088 466.60877,373.40943 465.83143,373.88986 C 465.39673,374.15852 464.29402,376.95751 463.38096,380.10984 C 462.46791,383.26218 461.36579,386.29136 460.93182,386.84136 C 460.28770,387.65770 457.87201,395.19575 454.28520,407.58178 C 453.80642,409.23515 453.93264,409.23529 456.80881,407.58459 C 459.70541,405.92217 459.98973,405.92954 463.37914,407.75486 z M 437.90990,406.19567 C 439.28490,406.19567 441.85191,406.50152 443.61436,406.87533 L 446.81883,407.55499 L 446.22560,403.69818 C 445.89933,401.57693 445.29602,399.39136 444.88492,398.84136 C 444.47382,398.29136 442.87009,391.20386 441.32107,383.09136 C 439.77206,374.97886 438.21951,368.34136 437.87096,368.34136 C 437.52241,368.34136 436.20155,373.85386 434.93572,380.59136 C 433.66990,387.32886 432.29713,393.29136 431.88512,393.84136 C 431.47312,394.39136 430.82728,396.86636 430.44991,399.34136 C 430.07255,401.81636 429.52286,404.68710 429.22839,405.72078 C 428.75504,407.38232 429.08232,407.51878 432.05144,406.89793 C 433.89859,406.51169 436.53490,406.19567 437.90990,406.19567 z M 382.44529,365.22985 C 383.44604,362.07679 380.86055,359.97365 377.02045,360.81708 C 374.61723,361.34492 373.90990,362.03402 373.90990,363.84749 C 373.90990,367.58175 381.31803,368.78155 382.44529,365.22985 z M 499.32811,366.73437 C 500.19810,366.40053 500.90990,365.05910 500.90990,363.75342 C 500.90990,360.72022 496.51692,359.30576 494.22249,361.60020 C 490.96406,364.85863 494.62435,368.53938 499.32811,366.73437 z M 409.33847,354.76993 C 411.21749,352.89092 411.33966,351.17112 409.70990,349.54136 C 407.93475,347.76621 405.45580,348.08066 403.41077,350.34040 C 401.65763,352.27759 401.67304,352.40134 403.90879,354.34040 C 406.68986,356.75241 407.30716,356.80124 409.33847,354.76993 z M 471.38842,354.71998 C 473.33751,352.77089 473.04501,350.45569 470.65990,348.95366 C 466.99022,346.64267 463.33652,351.62512 466.43138,354.71998 C 468.46613,356.75473 469.35367,356.75473 471.38842,354.71998 z M 439.69878,351.49300 C 441.70168,350.22226 441.67616,345.29562 439.65990,343.98721 C 435.84024,341.50853 432.12616,347.41476 435.42811,350.71671 C 437.25969,352.54830 437.86270,352.65791 439.69878,351.49300 z "
       transform="translate(-366.0123,-330.0965)"
       id="path3596" />
  </g>
</svg>
