<?xml version="1.0" encoding="UTF-8" standalone="no"?>
<svg
   xmlns:dc="http://purl.org/dc/elements/1.1/"
   xmlns:cc="http://creativecommons.org/ns#"
   xmlns:rdf="http://www.w3.org/1999/02/22-rdf-syntax-ns#"
   xmlns:svg="http://www.w3.org/2000/svg"
   xmlns="http://www.w3.org/2000/svg"
   xmlns:sodipodi="http://sodipodi.sourceforge.net/DTD/sodipodi-0.dtd"
   xmlns:inkscape="http://www.inkscape.org/namespaces/inkscape"
   viewBox="0 -100 1000 1000"
   id="svg2"
   version="1.1"
   inkscape:version="0.48.2 r9819"
   width="100%"
   height="100%"
   sodipodi:docname="bb.svg">
  <metadata
     id="metadata12">
    <rdf:RDF>
      <cc:Work
         rdf:about="">
        <dc:format>image/svg+xml</dc:format>
        <dc:type
           rdf:resource="http://purl.org/dc/dcmitype/StillImage" />
      </cc:Work>
    </rdf:RDF>
  </metadata>
  <defs
     id="defs10" />
  <sodipodi:namedview
     pagecolor="#ffffff"
     bordercolor="#666666"
     borderopacity="1"
     objecttolerance="10"
     gridtolerance="10"
     guidetolerance="10"
     inkscape:pageopacity="0"
     inkscape:pageshadow="2"
     inkscape:window-width="696"
     inkscape:window-height="480"
     id="namedview8"
     showgrid="false"
     inkscape:zoom="0.236"
     inkscape:cx="500"
     inkscape:cy="500"
     inkscape:window-x="0"
     inkscape:window-y="0"
     inkscape:window-maximized="0"
     inkscape:current-layer="svg2" />
  <g
     transform="matrix(1,0,0,-1,0,840)"
     id="g4">
    <path
       d="M 877,0 H 592 q -21,0 -35,11 l -21,25 -2,3 -8,13 -6,11 -10,11 -9,4 q -8,-2 -10,-4 l -8,-8 -9,-12 -9,-15 -2,-3 Q 454,24 438,11 422,0 399,0 H 125 L 92,148 h 226 q 10,0 13,7 l 4,18 v 2 5 l 1,5 q 2,9 6.5,16 4.5,7 17.5,8 h 304 q 6,0 9,-7 l 4,-13 v -6 -4 -3 -6 q 0,-10 2,-15 1,-6 8,-7 h 222 z m -362,454 1,16 q 0,10 2,16 l 3,26 6,31 3,12 3,12 q 5,14 8.5,23 3.5,9 13,25.5 9.5,16.5 26.5,34.5 36,-6 68,-47.5 32,-41.5 54,-92.5 l 13,-45 5,-39 q 0,-79 -14,-111 -12,-33 -30,-45 -8,-5 -19,-7 l -15,-1 h -2 -262 -2 l -20,1 q -10,0 -23,7 -19,10 -36.5,44.5 Q 280,349 280,426 q 0,61 25,106 25,45 54.5,77 29.5,32 54,50.5 Q 438,678 439,686 l -2,13 -3,13 -1,3 -5,19 -2,17 q 0,25 15,45.5 15,20.5 50,20.5 23,0 40.5,-18.5 Q 549,780 553,756 l 1,-6 v -6 q 0,-25 -10,-48 l -21,-45 -6,-9 -4,-9 -24,-45 Q 478,567 474.5,547.5 471,528 469,515.5 467,503 466,495 v -41 h 49 z"
       id="path6"
       inkscape:connector-curvature="0"
       fill="#000000" />
  </g>
</svg>
