<?xml version="1.0" encoding="UTF-8" standalone="no"?>
<svg
   xmlns:dc="http://purl.org/dc/elements/1.1/"
   xmlns:cc="http://creativecommons.org/ns#"
   xmlns:rdf="http://www.w3.org/1999/02/22-rdf-syntax-ns#"
   xmlns:svg="http://www.w3.org/2000/svg"
   xmlns="http://www.w3.org/2000/svg"
   xmlns:sodipodi="http://sodipodi.sourceforge.net/DTD/sodipodi-0.dtd"
   xmlns:inkscape="http://www.inkscape.org/namespaces/inkscape"
   viewBox="0 -100 1000 1000"
   id="svg2"
   version="1.1"
   inkscape:version="0.48.2 r9819"
   width="100%"
   height="100%"
   sodipodi:docname="bk.svg">
  <metadata
     id="metadata12">
    <rdf:RDF>
      <cc:Work
         rdf:about="">
        <dc:format>image/svg+xml</dc:format>
        <dc:type
           rdf:resource="http://purl.org/dc/dcmitype/StillImage" />
      </cc:Work>
    </rdf:RDF>
  </metadata>
  <defs
     id="defs10" />
  <sodipodi:namedview
     pagecolor="#ffffff"
     bordercolor="#666666"
     borderopacity="1"
     objecttolerance="10"
     gridtolerance="10"
     guidetolerance="10"
     inkscape:pageopacity="0"
     inkscape:pageshadow="2"
     inkscape:window-width="696"
     inkscape:window-height="480"
     id="namedview8"
     showgrid="false"
     inkscape:zoom="0.236"
     inkscape:cx="500"
     inkscape:cy="500"
     inkscape:window-x="0"
     inkscape:window-y="0"
     inkscape:window-maximized="0"
     inkscape:current-layer="svg2" />
  <g
     transform="matrix(1,0,0,-1,0,840)"
     id="g4">
    <path
       d="m 205,0 v 2 25 l 3,31 q 3,30 16,54.5 13,24.5 47,27.5 l 35,3 38,4 72,7 85,3 q 22,0 49.5,-1 27.5,-1 57.5,-4 34,0 71,-5 37,-5 63,-8 26,-3 39,-34 3,-8 8,-26 5,-18 5,-39 l 1,-19 V 3 0 H 205 z m 543,269 4,-14 3,-15 2,-13 q 0,-8 -5,-15.5 -5,-7.5 -20,-15.5 l -124,12 -107,5 -92,-3 -77,-7 -31,-4 -30,-3 q -12,7 -20,18 -3,6 -5,21 l 1,10 q 0,7 2,11 l 1,6 2,5 3,16 2,15 q 0,15 -8,24 -6,11 -18,21 l -14,12 -16,14 q -19,17 -38,44 -17,28 -17,72 0,69 46,118.5 46,49.5 110,49.5 56,0 91,-21 31,-18 53,-45 l 2,-3 q 16,-19 24.5,-37 8.5,-18 16.5,-26 l 6,-6 6,-1 4,1 5,5 14,26 q 7,17 22,38 l 2,3 q 20,25 56,45.5 36,20.5 103,20.5 63,0 105.5,-45.5 Q 855,562 855,485 855,447 837.5,420.5 820,394 801,373 l -12,-12 -11,-12 -22,-31 q -9,-15 -9,-33 z m -402,157 3,-6 8,-15 12,-14 12,-17 q 6,-8 9,-17 l 1,-5 1,-4 v -5 l 1,-4 3,-16 q 3,-6 10,-6 5,0 10,6 l 3,15 v 6 6 q 0,7 -2,11 l -3,11 -6,13 -6,13 -9,21 -6,22 -2,6 -8,10 q -3,3 -12,5 -5,0 -11,-6 l -6,-13 q -1,-5 -2,-6 v -5 -6 z m 307,11 -1,6 -7,13 q -3,6 -10,6 -7,0 -13,-5 l -7,-10 -2,-4 -7,-22 -8,-20 -7,-15 -5,-14 -4,-11 -1,-11 v -6 -6 l 3,-15 q 3,-6 10,-6 6,0 9,7 l 4,15 1,6 v 7 l 2,5 9,17 12,17 11,14 9,15 2,6 1,6 z M 551,790 q 19,-17 19,-47 0,-16 -10,-45 l -22,-61 q -2,-8 -5,-12 l -4,-11 -16,-37 -13,-30 -14,31 q -5,16 -8,22 -6,11 -8,15 l -4,11 -5,11 -21,58 q -9,27 -9,43 v 6 l 1,6 q 3,21 20.5,39 17.5,18 47.5,18 33,0 51,-17 z"
       id="path6"
       inkscape:connector-curvature="0"
       fill="#000000" />
  </g>
</svg>
