<?xml version="1.0" encoding="UTF-8" standalone="no"?>
<svg
   xmlns:dc="http://purl.org/dc/elements/1.1/"
   xmlns:cc="http://creativecommons.org/ns#"
   xmlns:rdf="http://www.w3.org/1999/02/22-rdf-syntax-ns#"
   xmlns:svg="http://www.w3.org/2000/svg"
   xmlns="http://www.w3.org/2000/svg"
   xmlns:sodipodi="http://sodipodi.sourceforge.net/DTD/sodipodi-0.dtd"
   xmlns:inkscape="http://www.inkscape.org/namespaces/inkscape"
   viewBox="0 -100 1000 1000"
   id="svg2"
   version="1.1"
   inkscape:version="0.48.2 r9819"
   width="100%"
   height="100%"
   sodipodi:docname="bp.svg">
  <metadata
     id="metadata12">
    <rdf:RDF>
      <cc:Work
         rdf:about="">
        <dc:format>image/svg+xml</dc:format>
        <dc:type
           rdf:resource="http://purl.org/dc/dcmitype/StillImage" />
      </cc:Work>
    </rdf:RDF>
  </metadata>
  <defs
     id="defs10" />
  <sodipodi:namedview
     pagecolor="#ffffff"
     bordercolor="#666666"
     borderopacity="1"
     objecttolerance="10"
     gridtolerance="10"
     guidetolerance="10"
     inkscape:pageopacity="0"
     inkscape:pageshadow="2"
     inkscape:window-width="696"
     inkscape:window-height="480"
     id="namedview8"
     showgrid="false"
     inkscape:zoom="0.236"
     inkscape:cx="500"
     inkscape:cy="500"
     inkscape:window-x="0"
     inkscape:window-y="0"
     inkscape:window-maximized="0"
     inkscape:current-layer="svg2" />
  <g
     transform="matrix(1,0,0,-1,0,840)"
     id="g4">
    <path
       d="m 257,0 -3,20 -1,19 q 0,42 16,70 9,16 17.5,26.5 Q 295,146 307,157 l 6,5 7,5 q 20,16 39.5,25 19.5,9 21.5,13 l -1,7 v 8 l 3,28 9,28 q 15,33 41.5,56.5 Q 460,356 491,362 l 5,1 h 5 l 7,-1 h 7 q 27,-6 53,-30 26,-24 41,-56 l 7,-21 4,-21 1,-7 v -7 -8 l -1,-7 21,-13 q 18,-8 43,-27 l 5,-4 6,-4 q 20,-17 37,-47 17,-30 17,-72 L 748,19 745,0 H 257 z m 176,547 q 28,28 68,28 39,0 67,-28 28,-28 28,-67 0,-39 -28,-67 -28,-28 -67,-28 -39,0 -67,27.5 -28,27.5 -28,67.5 0,38 27,67 z"
       id="path6"
       inkscape:connector-curvature="0"
       fill="#000000" />
  </g>
</svg>
