<?xml version="1.0" encoding="UTF-8" standalone="no"?>
<svg
   xmlns:dc="http://purl.org/dc/elements/1.1/"
   xmlns:cc="http://creativecommons.org/ns#"
   xmlns:rdf="http://www.w3.org/1999/02/22-rdf-syntax-ns#"
   xmlns:svg="http://www.w3.org/2000/svg"
   xmlns="http://www.w3.org/2000/svg"
   xmlns:sodipodi="http://sodipodi.sourceforge.net/DTD/sodipodi-0.dtd"
   xmlns:inkscape="http://www.inkscape.org/namespaces/inkscape"
   viewBox="0 -100 1000 1000"
   id="svg2"
   version="1.1"
   inkscape:version="0.48.2 r9819"
   width="100%"
   height="100%"
   sodipodi:docname="bq.svg">
  <metadata
     id="metadata12">
    <rdf:RDF>
      <cc:Work
         rdf:about="">
        <dc:format>image/svg+xml</dc:format>
        <dc:type
           rdf:resource="http://purl.org/dc/dcmitype/StillImage" />
      </cc:Work>
    </rdf:RDF>
  </metadata>
  <defs
     id="defs10" />
  <sodipodi:namedview
     pagecolor="#ffffff"
     bordercolor="#666666"
     borderopacity="1"
     objecttolerance="10"
     gridtolerance="10"
     guidetolerance="10"
     inkscape:pageopacity="0"
     inkscape:pageshadow="2"
     inkscape:window-width="696"
     inkscape:window-height="480"
     id="namedview8"
     showgrid="false"
     inkscape:zoom="0.236"
     inkscape:cx="500"
     inkscape:cy="500"
     inkscape:window-x="0"
     inkscape:window-y="0"
     inkscape:window-maximized="0"
     inkscape:current-layer="svg2" />
  <g
     transform="matrix(1,0,0,-1,0,840)"
     id="g4">
    <path
       d="m 209,0 v 2 26 q 0,20 2.5,39.5 2.5,19.5 14.5,44.5 12,25 41,28 l 35,3 38,4 72,7 85,3 q 22,0 49.5,-1 27.5,-1 57.5,-4 34,0 71,-5 37,-5 63,-8 26,-3 39,-34 3,-8 8,-26 5,-18 5,-39 l 1,-19 V 3 0 H 209 z m 566,517 -12,19 -4,25 q 0,27 21,49 21,22 50,22 27,0 49.5,-21.5 Q 902,589 902,561 902,533 883.5,513.5 865,494 838,489 l -108,-293 -125,12 -106,5 -85,-3 -72,-7 -38,-4 -35,-3 -106,294 q -25,0 -45.5,21.5 Q 97,533 97,561 97,588 118.5,610.5 140,633 169,633 197,633 218.5,611.5 240,590 240,561 v -3 l -4,-16 q -3,-10 -13,-24 l 103,-117 43,208 q -21,0 -38.5,21.5 Q 313,652 313,679 q 0,32 23,54 23,22 53,22 30,0 53,-21.5 23,-21.5 23,-54.5 l -1,-7 v -7 Q 461,652 453,639.5 445,627 430,618 l 71,-206 70,206 q -13,10 -21.5,26.5 -8.5,16.5 -8.5,34.5 0,32 23,54 23,22 53,22 30,0 53,-21.5 23,-21.5 23,-54.5 0,-27 -14,-44 -14,-17 -38,-26 l 35,-208 z"
       id="path6"
       inkscape:connector-curvature="0"
       fill="#000000" />
  </g>
</svg>
