<?xml version="1.0" encoding="UTF-8" standalone="no"?>
<svg
   xmlns:dc="http://purl.org/dc/elements/1.1/"
   xmlns:cc="http://creativecommons.org/ns#"
   xmlns:rdf="http://www.w3.org/1999/02/22-rdf-syntax-ns#"
   xmlns:svg="http://www.w3.org/2000/svg"
   xmlns="http://www.w3.org/2000/svg"
   xmlns:sodipodi="http://sodipodi.sourceforge.net/DTD/sodipodi-0.dtd"
   xmlns:inkscape="http://www.inkscape.org/namespaces/inkscape"
   viewBox="0 -100 1000 1000"
   id="svg2"
   version="1.1"
   inkscape:version="0.48.2 r9819"
   width="100%"
   height="100%"
   sodipodi:docname="br.svg">
  <metadata
     id="metadata12">
    <rdf:RDF>
      <cc:Work
         rdf:about="">
        <dc:format>image/svg+xml</dc:format>
        <dc:type
           rdf:resource="http://purl.org/dc/dcmitype/StillImage" />
      </cc:Work>
    </rdf:RDF>
  </metadata>
  <defs
     id="defs10" />
  <sodipodi:namedview
     pagecolor="#ffffff"
     bordercolor="#666666"
     borderopacity="1"
     objecttolerance="10"
     gridtolerance="10"
     guidetolerance="10"
     inkscape:pageopacity="0"
     inkscape:pageshadow="2"
     inkscape:window-width="696"
     inkscape:window-height="480"
     id="namedview8"
     showgrid="false"
     inkscape:zoom="0.236"
     inkscape:cx="500"
     inkscape:cy="500"
     inkscape:window-x="0"
     inkscape:window-y="0"
     inkscape:window-maximized="0"
     inkscape:current-layer="svg2" />
  <g
     transform="matrix(1,0,0,-1,0,840)"
     id="g4">
    <path
       d="m 199,0 v 2 25 l 3,31 q 3,30 16,54.5 13,24.5 47,27.5 l 35,3 40,4 74,7 86,3 q 23,0 49,-1 26,-1 55,-4 32,0 69,-5 37,-5 63,-8 26,-3 39,-34 3,-8 8,-26 5,-18 5,-39 l 1,-19 V 3 0 H 199 z m 119,431 q 25,7 76,13 51,6 106,6 53,0 104,-5.5 51,-5.5 83,-13.5 l 34,-235 -119,12 q -23,0 -59.5,2.5 Q 506,213 500,213 l -87,-3 -72,-7 -34,-4 -27,-3 z m 101,169 19,112 h 7 l 8,2 23,2 24,1 20,-1 20,-1 10,-2 10,-1 17,-112 h 52 l 34,97 20,-3 21,-3 20,-6 21,-9 -6,-98 Q 736,549 723.5,526.5 711,504 687,486 l -26,3 -26,4 -61,7 -74,4 q -19,0 -40.5,-1 -21.5,-1 -43.5,-4 -18,0 -41.5,-3.5 Q 351,492 318,486 291,500 279.5,520 268,540 263,566 l -10,110 22,9 25,7 19,3 18,2 34,-97 h 48 z"
       id="path6"
       inkscape:connector-curvature="0"
       fill="#000000" />
  </g>
</svg>
