<?xml version="1.0" encoding="UTF-8" standalone="no"?>
<svg
   xmlns:dc="http://purl.org/dc/elements/1.1/"
   xmlns:cc="http://creativecommons.org/ns#"
   xmlns:rdf="http://www.w3.org/1999/02/22-rdf-syntax-ns#"
   xmlns:svg="http://www.w3.org/2000/svg"
   xmlns="http://www.w3.org/2000/svg"
   xmlns:sodipodi="http://sodipodi.sourceforge.net/DTD/sodipodi-0.dtd"
   xmlns:inkscape="http://www.inkscape.org/namespaces/inkscape"
   viewBox="0 -100 1000 1000"
   id="svg2"
   version="1.1"
   inkscape:version="0.48.2 r9819"
   width="100%"
   height="100%"
   sodipodi:docname="wb.svg">
  <metadata
     id="metadata12">
    <rdf:RDF>
      <cc:Work
         rdf:about="">
        <dc:format>image/svg+xml</dc:format>
        <dc:type
           rdf:resource="http://purl.org/dc/dcmitype/StillImage" />
      </cc:Work>
    </rdf:RDF>
  </metadata>
  <defs
     id="defs10" />
  <sodipodi:namedview
     pagecolor="#ffffff"
     bordercolor="#666666"
     borderopacity="1"
     objecttolerance="10"
     gridtolerance="10"
     guidetolerance="10"
     inkscape:pageopacity="0"
     inkscape:pageshadow="2"
     inkscape:window-width="696"
     inkscape:window-height="732"
     id="namedview8"
     showgrid="false"
     inkscape:zoom="0.236"
     inkscape:cx="500"
     inkscape:cy="500"
     inkscape:window-x="0"
     inkscape:window-y="0"
     inkscape:window-maximized="0"
     inkscape:current-layer="svg2" />
  <g
     transform="matrix(1,0,0,-1,0,840)"
     id="g4">
    <path
       d="M 877,0 H 586 q -16,0 -29,9 -13,9 -23,22 l -9,11 -8,10 -8,6 q -3,3 -9,3 l -6,-1 -4,-2 Q 485,55 477,46 L 463,31 Q 453,19 436.5,9.5 420,0 392,0 H 123 L 81,200 h 264 4 5 l 12,1 q 3,1 5,6 0,8 -15,22 l -32,37 q -19,24 -33,57 -14,33 -14,80 0,59 21,101.5 21,42.5 48,74 27,31.5 48.5,49.5 21.5,18 22.5,25 l -2,9 -3,14 -4,17 -1,23 q 0,33 29,60.5 29,27.5 64,27.5 h 5 5 q 29,-3 55.5,-31 26.5,-28 26.5,-68 l -1,-14 q 0,-8 -2,-12 l -4,-11 -6,-12 20,-17 19,-17 Q 670,575 696.5,524 723,473 723,402 723,364 708.5,331.5 694,299 676,275 l -33,-42 q -12,-15 -14,-26 4,-6 6,-6 l 17,-1 h 5 262 z M 833,129 H 616 q -26,0 -46,17.5 -20,17.5 -20,42.5 l 1,10 3,11 q 6,16 19,35 l 28,37 q 6,8 17,25 8,12 18,29 16,30 16,65 0,64 -24.5,115 Q 603,567 550,596 524,541 518,486 l -5,-85 v -8 -6 h -67 v 7 q 0,39 1.5,57.5 1.5,18.5 8.5,46.5 14,51 31,92 l 28,64 q 11,26 13,35 v 5 q 0,18 -8,31 -6,14 -24,14 h -5 q -9,-1 -19,-11 -10,-10 -10,-25 l 1,-19 4,-17 v -4 l 1,-3 2,-13 1,-13 q 0,-9 -4,-16 L 456,604 434,585 Q 421,575 410,563 387,541 367.5,500 348,459 348,388 348,355 363,328.5 378,302 398,278 l 18,-24 17,-23 10,-21 4,-22 Q 447,158 428.5,143.5 410,129 383,129 H 167 l 12,-58 h 226 q 17,0 29,9 l 20,22 3,3 18,19 q 9,9 25,9 10,0 21,-9 l 20,-18 3,-4 22,-22 q 11,-9 24,-9 h 230 z"
       id="path6"
       inkscape:connector-curvature="0"
       fill="#000000" />
  </g>
  <path
     style="fill:#f9f9f9;fill-opacity:1"
     d="m 180.89134,764.78814 c -0.99671,-1.74789 -3.11769,-10.80509 -4.71328,-20.12712 -1.5956,-9.32204 -3.84655,-20.17653 -5.00212,-24.12106 -1.93261,-6.59699 7.51155,-7.27636 117.81067,-8.47458 135.46058,-1.47157 142.36064,-2.90792 154.59153,-32.18059 13.14738,-31.4661 3.14743,-58.4892 -45.0222,-121.66445 -39.26199,-51.49273 -46.87383,-70.23083 -46.79839,-115.20371 0.13025,-77.65278 19.99106,-123.49871 77.61262,-179.15807 20.58156,-19.88068 39.09728,-40.36281 41.14605,-45.51584 2.23306,-5.6166 1.82951,-23.53605 -1.00757,-44.74018 -5.5167,-41.23131 -3.00414,-55.471 11.45996,-64.94825 14.11237,-9.24678 29.96694,-4.71931 38.02211,10.85769 9.2395,17.86721 8.08148,29.21699 -6.56343,64.32864 -53.99838,129.46289 -63.24101,160.79521 -66.37657,225.01531 l -2.22403,45.55085 36.56123,0 36.56123,0 0,-32.95014 c 0,-63.39371 14.86498,-141.66813 31.12765,-163.90866 5.78056,-7.90538 6.36676,-7.92581 17.53049,-0.61106 20.32051,13.3145 47.16754,44.40298 58.7208,67.99775 23.48085,47.95421 31.1561,120.52766 16.81462,158.99146 -7.21949,19.3627 -35.45093,64.03874 -65.51459,103.67645 -22.16368,29.22191 -30.86046,56.08996 -25.09091,77.51645 4.90607,18.21974 21.62044,36.39394 39.78101,43.25546 7.35394,2.77852 55.80627,4.50687 126.34487,4.50687 112.39301,0 114.37394,0.15 112.01229,8.47457 -2.505,8.82992 -4.06919,15.30187 -8.49356,35.14305 l -2.63974,11.83801 -120.26492,-1.24479 -120.26488,-1.24474 -28.97715,-27.98149 c -43.99142,-42.47987 -55.35602,-43.14978 -91.12185,-5.37139 -12.42519,13.12432 -28.72704,26.47449 -36.22634,29.66699 -10.39445,4.42496 -40.29537,5.80453 -125.80925,5.80453 -61.69578,0 -112.98964,-1.43008 -113.98635,-3.17796 z"
     id="path2989"
     inkscape:connector-curvature="0" />
</svg>
