<?xml version="1.0" encoding="UTF-8" standalone="no"?>
<svg
   xmlns:dc="http://purl.org/dc/elements/1.1/"
   xmlns:cc="http://creativecommons.org/ns#"
   xmlns:rdf="http://www.w3.org/1999/02/22-rdf-syntax-ns#"
   xmlns:svg="http://www.w3.org/2000/svg"
   xmlns="http://www.w3.org/2000/svg"
   xmlns:sodipodi="http://sodipodi.sourceforge.net/DTD/sodipodi-0.dtd"
   xmlns:inkscape="http://www.inkscape.org/namespaces/inkscape"
   viewBox="0 -100 1000 1000"
   id="svg2"
   version="1.1"
   inkscape:version="0.48.2 r9819"
   width="100%"
   height="100%"
   sodipodi:docname="wn.svg">
  <metadata
     id="metadata12">
    <rdf:RDF>
      <cc:Work
         rdf:about="">
        <dc:format>image/svg+xml</dc:format>
        <dc:type
           rdf:resource="http://purl.org/dc/dcmitype/StillImage" />
      </cc:Work>
    </rdf:RDF>
  </metadata>
  <defs
     id="defs10" />
  <sodipodi:namedview
     pagecolor="#ffffff"
     bordercolor="#666666"
     borderopacity="1"
     objecttolerance="10"
     gridtolerance="10"
     guidetolerance="10"
     inkscape:pageopacity="0"
     inkscape:pageshadow="2"
     inkscape:window-width="696"
     inkscape:window-height="734"
     id="namedview8"
     showgrid="false"
     inkscape:zoom="0.236"
     inkscape:cx="500"
     inkscape:cy="500"
     inkscape:window-x="0"
     inkscape:window-y="0"
     inkscape:window-maximized="0"
     inkscape:current-layer="svg2" />
  <g
     transform="matrix(1,0,0,-1,0,840)"
     id="g4">
    <path
       d="m 227,0 v 18 l 1,18 q 0,24 6.5,47.5 6.5,23.5 19.5,48.5 21,45 83,69 0,30 26,53 l 58,42 6,4 6,4 50,37 q 22,19 22,44 l -3,15 q -3,6 -16,7 l -9,-3 -7,-7 -8,-10 -7,-10 -12,-14 -15,-11 -18,-8 q -2,-1 -19,-6 L 359,328 Q 343,324 332.5,317.5 322,311 320.5,300.5 319,290 318,289 l -3,-6 q -8,-8 -28,-19 -19,-8 -40,-8 -39,0 -62,29 -23,29 -26,64 v 6 q 0,38 18,70 10,18 19,31.5 9,13.5 22,28.5 l 17,21 16,22 q 8,11 10,15 3,6 7.5,16 4.5,10 6.5,17.5 2,7.5 2,18.5 0,16 11,27 l 28,25 4,3 5,3 31,27 q 16,16 16,33 l 2,14 q 0,11 2.5,22 2.5,11 9,22 6.5,11 20.5,14 13,-7 27,-23 l 29,-33 Q 477,708 494.5,691.5 512,675 531,670 q 3,-1 16.5,-4.5 Q 561,662 579,656 618,645 663.5,613.5 709,582 751,519.5 793,457 793,352 q 0,-21 -1,-39 -1,-18 -4,-34 l -12,-58 -4,-11 -3,-11 q 54,-35 63,-81 9,-46 9,-101 V 8 0 H 227 z m 540,71 q 0,33 -27,48 -13,8 -27,13 -14,5 -40,13 l -3,1 -21,5 -18,3 -46,3 h -39 -9 -8 -4 -4 l -39,-1 -52,-3 -22,-3 -20,-4 Q 353,137 327,121.5 301,106 301,71 h 466 z m -93,433 q -48,63 -106,93 -18,10 -38,16 -20,6 -39,6 -6,0 -15,9 l -17,20 -2,2 -19,24 q -8,8 -15,10 l -4,-2 q -3,-21 -14,-36 -11,-15 -24,-26 l -26,-20 q -10,-7 -13,-16 -10,-35 -22,-60 L 296,479 Q 279,453 263.5,434.5 248,416 240,401 l -8,-16 -2,-15 v -6 l 1,-6 q 2,-13 8,-22 6,-9 18,-9 l 9,1 7,4 8,8 13,14 2,2 4,3 17,10 22,10 32,12 18,5 q 7,1 9,2 l 8,8 11,14 13,17 24,28 q 15,13 32,13 h 6 q 24,0 44,-18 20,-18 32,-41 l 6,-16 2,-15 Q 576,340 553.5,315.5 531,291 503,273 l -25,-13 q -14,-5 -21,-11 l -20,-13 q -5,-5 -7,-16 l 44,5 q 27,3 76,3 l 82,-3 q 12,0 23.5,-0.5 11.5,-0.5 42.5,-4.5 12,19 20,61 2,13 3,40.5 1,27.5 1,43.5 0,74 -48,139 z"
       id="path6"
       inkscape:connector-curvature="0"
       fill="#000000" />
  </g>
  <path
     style="fill:#f9f9f9;fill-opacity:1"
     d="m 434.54152,611.71869 c 1.30873,-3.41047 19.73995,-15.50805 40.95829,-26.88352 50.14712,-26.88458 89.63704,-63.87805 96.63994,-90.53062 8.53739,-32.49272 3.89288,-66.88094 -12.19019,-90.25689 -19.30687,-28.06156 -42.44041,-42.59899 -68.39707,-42.98163 -25.4574,-0.37529 -35.86542,6.80222 -69.11081,47.6596 -20.04571,24.63546 -27.87943,31.09462 -42.37288,34.93781 -31.4895,8.34998 -85.15191,36.2688 -100.17968,52.12024 -8.03132,8.47152 -17.90352,15.40276 -21.93822,15.40276 -11.11604,0 -24.90005,-20.37085 -24.90005,-36.79881 0,-18.21862 6.9116,-31.52408 40.46576,-77.90033 29.25497,-40.4342 51.5077,-81.93512 63.42708,-118.29033 4.42162,-13.48635 13.1195,-28.39605 20.71984,-35.51747 44.19264,-41.40792 54.05681,-52.77338 58.40862,-67.29814 2.61844,-8.73941 6.13204,-15.88983 7.80802,-15.88983 1.67596,0 15.60083,14.02646 30.94416,31.16992 26.60448,29.72583 28.93522,31.29095 50.30749,33.78212 77.40503,9.02238 174.45665,98.54965 205.19382,189.28524 12.41288,36.64274 11.09067,131.26135 -2.41801,173.03441 l -10.05246,31.08521 -29.86864,-2.99957 c -40.06823,-4.0239 -185.72273,-4.10445 -213.55806,-0.11822 -18.65016,2.67093 -21.88,2.18173 -19.88695,-3.01208 l 0,1.3e-4 z"
     id="path2989"
     inkscape:connector-curvature="0" />
  <path
     style="fill:#f9f9f9;fill-opacity:1"
     d="m 306.73892,751.85625 c 3.60118,-18.00588 15.9613,-30.46291 40.84909,-41.16935 45.64469,-19.63582 72.10757,-22.9876 184.19165,-23.32969 99.54931,-0.30383 107.97473,0.28092 139.83051,9.70465 58.57072,17.32668 91.10169,38.91553 91.10169,60.45873 0,7.61532 -8.35241,7.90314 -229.34322,7.90314 l -229.34322,0 2.7135,-13.56748 z"
     id="path2991"
     inkscape:connector-curvature="0" />
</svg>
