<?xml version="1.0" encoding="UTF-8" standalone="no"?>
<svg
   xmlns:dc="http://purl.org/dc/elements/1.1/"
   xmlns:cc="http://creativecommons.org/ns#"
   xmlns:rdf="http://www.w3.org/1999/02/22-rdf-syntax-ns#"
   xmlns:svg="http://www.w3.org/2000/svg"
   xmlns="http://www.w3.org/2000/svg"
   xmlns:sodipodi="http://sodipodi.sourceforge.net/DTD/sodipodi-0.dtd"
   xmlns:inkscape="http://www.inkscape.org/namespaces/inkscape"
   viewBox="0 -100 1000 1000"
   id="svg2"
   version="1.1"
   inkscape:version="0.48.2 r9819"
   width="100%"
   height="100%"
   sodipodi:docname="wp.svg">
  <metadata
     id="metadata12">
    <rdf:RDF>
      <cc:Work
         rdf:about="">
        <dc:format>image/svg+xml</dc:format>
        <dc:type
           rdf:resource="http://purl.org/dc/dcmitype/StillImage" />
        <dc:title></dc:title>
      </cc:Work>
    </rdf:RDF>
  </metadata>
  <defs
     id="defs10" />
  <sodipodi:namedview
     pagecolor="#ffffff"
     bordercolor="#666666"
     borderopacity="1"
     objecttolerance="10"
     gridtolerance="10"
     guidetolerance="10"
     inkscape:pageopacity="0"
     inkscape:pageshadow="2"
     inkscape:window-width="1280"
     inkscape:window-height="744"
     id="namedview8"
     showgrid="false"
     inkscape:zoom="0.236"
     inkscape:cx="-199.15254"
     inkscape:cy="500"
     inkscape:window-x="-4"
     inkscape:window-y="-4"
     inkscape:window-maximized="1"
     inkscape:current-layer="svg2" />
  <g
     transform="matrix(1,0,0,-1,0,840)"
     id="g4">
    <path
       d="m 240,0 q 0,71 26.5,125 26.5,54 78.5,91 12,8 15,23 l 4,32 v 5 4 l 1,18 q 0,9 4,16 l 9,14 14,14 2,2 18,20 q 9,9 9,22 0,10 -7,21 l -15,27 -16,33 q -6,18 -6,37 0,47 37.5,81.5 Q 452,620 501,620 549,620 586.5,585.5 624,551 624,504 624,487 618,467.5 612,448 602,434 l -15,-27 q -1,-2 -4,-10.5 -3,-8.5 -3,-10.5 0,-13 8,-22 l 19,-20 2,-2 14,-14 q 7,-6 9,-14 l 4,-18 1,-23 v -5 -4 q 0,-15 4,-27.5 4,-12.5 15,-20.5 49,-34 77,-89 14,-28 21,-58 7,-30 7,-69 H 240 z m 450,71 q 0,28 -16,48 -16,20 -37,36 l -25,19 -19,17 q -5,5 -8,13 l -2,14 v 8 l 2,10 v 10 l 1,11 q 0,13 -1.5,22.5 -1.5,9.5 -9.5,22.5 -3,10 -11,15 l -14,14 -1,1 q -12,9 -21,21 -9,12 -9,33 0,11 2,16 l 6,13 4,7 4,8 12,26 q 6,15 6,42 0,25 -14,38 -4,3 -13.5,8 -9.5,5 -23.5,5 -25,0 -39.5,-13 Q 448,523 448,498 448,472 452.5,457.5 457,443 463,434 l 2,-4 4,-8 5,-7 6,-13 2,-16 q 0,-21 -9,-33 l -20,-21 -2,-2 -14,-13 -10,-15 -10,-26 -2,-22 v -10 l 2,-10 v -9 l 1,-8 -3,-14 q -2,-7 -7,-12 L 389,174 364,155 Q 346,141 327,119 311,98 311,71 h 379 z"
       id="path6"
       inkscape:connector-curvature="0"
       fill="#000000" />
  </g>
  <path
     style="fill:#ffffff;fill-opacity:1"
     d="m 313.65238,760.12712 c 0.26727,-15.2122 18.35823,-41.97737 42.41451,-62.75136 14.68292,-12.67955 34.91979,-30.86632 44.97082,-40.41505 l 18.2746,-17.36133 -0.51562,-37.72342 c -0.42548,-31.12885 1.16384,-41.26448 9.0915,-57.97961 5.28391,-11.1409 12.9482,-22.59638 17.03176,-25.45662 4.08356,-2.86023 14.33356,-13.46985 22.77778,-23.57692 21.00647,-25.14311 20.95553,-44.91042 -0.22301,-86.53639 -13.38646,-26.31078 -15.59396,-34.7077 -15.70289,-59.73086 -0.11979,-27.51795 0.62263,-29.78588 13.52434,-41.31356 25.69043,-22.95439 71.62373,-14.01672 81.48221,15.85476 7.44542,22.55983 2.43096,51.74407 -14.75406,85.86896 -15.64982,31.0764 -18.88722,53.02188 -10.27038,69.6203 2.64263,5.09044 15.82619,20.83699 29.29681,34.99234 29.0165,30.49147 35.89064,49.84393 31.67796,89.18143 -3.64459,34.03262 2.03818,45.03755 37.74801,73.10082 43.86372,34.47117 65.51131,60.78134 65.81382,79.98922 l 0.15014,9.5339 -186.44068,0 c -146.37731,0 -186.42068,-1.13818 -186.34762,-5.29661 z"
     id="path2989"
     inkscape:connector-curvature="0" />
  <path
     style="fill:#f9f9f9;fill-opacity:1"
     d="m 313.65238,760.12712 c 0.27575,-15.69437 18.51264,-42.19805 44.67733,-64.9295 15.89817,-13.81208 36.12265,-31.99824 44.94328,-40.41369 l 16.03751,-15.30081 -0.37835,-37.66529 c -0.47047,-46.83656 5.18025,-60.9615 38.87927,-97.18543 23.15478,-24.88966 25.23943,-28.72297 25.23943,-46.41096 0,-13.83355 -4.4004,-27.92935 -15.57614,-49.89502 -13.38646,-26.31078 -15.59396,-34.7077 -15.70289,-59.73086 -0.1198,-27.51795 0.62263,-29.78588 13.52434,-41.31356 10.7861,-9.63738 17.68305,-12.19725 32.86247,-12.19725 54.28818,0 67.46359,44.3837 33.94052,114.33461 -15.62393,32.60167 -18.69226,53.12795 -10.34522,69.20666 2.64263,5.09044 15.82619,20.83699 29.29681,34.99234 29.01649,30.49147 35.89064,49.84393 31.67795,89.18143 -3.59486,33.5683 1.78714,44.36565 35.1984,70.61504 44.65016,35.07915 68.06182,63.32343 68.36344,82.475 l 0.15015,9.5339 -186.44068,0 c -146.37731,0 -186.42068,-1.13818 -186.34762,-5.29661 z"
     id="path2991"
     inkscape:connector-curvature="0" />
</svg>
