<?xml version="1.0" encoding="UTF-8" standalone="no"?>
<svg
   xmlns:dc="http://purl.org/dc/elements/1.1/"
   xmlns:cc="http://creativecommons.org/ns#"
   xmlns:rdf="http://www.w3.org/1999/02/22-rdf-syntax-ns#"
   xmlns:svg="http://www.w3.org/2000/svg"
   xmlns="http://www.w3.org/2000/svg"
   xmlns:sodipodi="http://sodipodi.sourceforge.net/DTD/sodipodi-0.dtd"
   xmlns:inkscape="http://www.inkscape.org/namespaces/inkscape"
   viewBox="0 -100 1000 1000"
   id="svg2"
   version="1.1"
   inkscape:version="0.48.2 r9819"
   width="100%"
   height="100%"
   sodipodi:docname="wq.svg">
  <metadata
     id="metadata12">
    <rdf:RDF>
      <cc:Work
         rdf:about="">
        <dc:format>image/svg+xml</dc:format>
        <dc:type
           rdf:resource="http://purl.org/dc/dcmitype/StillImage" />
        <dc:title></dc:title>
      </cc:Work>
    </rdf:RDF>
  </metadata>
  <defs
     id="defs10" />
  <sodipodi:namedview
     pagecolor="#ffffff"
     bordercolor="#666666"
     borderopacity="1"
     objecttolerance="10"
     gridtolerance="10"
     guidetolerance="10"
     inkscape:pageopacity="0"
     inkscape:pageshadow="2"
     inkscape:window-width="696"
     inkscape:window-height="735"
     id="namedview8"
     showgrid="false"
     inkscape:zoom="0.236"
     inkscape:cx="500"
     inkscape:cy="500"
     inkscape:window-x="0"
     inkscape:window-y="0"
     inkscape:window-maximized="0"
     inkscape:current-layer="svg2" />
  <g
     transform="matrix(1,0,0,-1,0,840)"
     id="g4">
    <path
       d="m 196,0 q 0,45 1.5,62 1.5,17 7.5,53 6,36 56,75 l -91,289 q -29,0 -48,21 -19,21 -19,49 0,31 21,52 21,21 50,21 30,0 51,-21.5 21,-21.5 21,-51.5 l -3,-18 q -2,-9 -11,-20 l 79,-84 30,153 q -25,11 -39,31 -14,20 -14,45 0,33 23.5,56.5 23.5,23.5 57.5,23.5 32,0 57,-23.5 25,-23.5 25,-56.5 0,-19 -9.5,-36.5 Q 432,602 417,590 l 81,-151 82,151 q -10,7 -17.5,17.5 Q 555,618 550,632 l -3,13 -1,11 q 0,32 24,56 24,24 57,24 32,0 57,-23.5 Q 709,689 709,656 709,632 694.5,611 680,590 656,580 l 28,-154 80,85 -7,18 -3,20 q 0,31 21,52 21,21 50,21 30,0 51,-21.5 Q 897,579 897,549 897,521 878.5,501.5 860,482 831,479 L 738,192 q 49,-37 58,-85 9,-48 9,-107 H 196 z m 535,71 q 0,33 -26.5,47.5 Q 678,133 632,146 l -23,5 -22,4 -41,2 h -34 -8 -6 -4 l -39,-1 h -33 q -16,-3 -23,-4 l -22,-3 -20,-4 Q 323,138 296.5,122 270,106 270,71 H 731 z M 651,323 615,536 498,327 383,536 345,321 242,426 l -2,-3 81,-210 51,8 49,5 33,1 34,1 78,-3 85,-9 15,-3 q 10,0 16,-2 l 75,213 -2,2 z M 157,533 q 6,-6 17,-7 11,0 17,7 6,7 8,18 0,9 -6,15.5 -6,6.5 -19,8.5 -9,0 -16,-6.5 -7,-6.5 -8,-17.5 0,-10 7,-18 z m 651,0 q 6,-6 17,-7 9,0 16,6.5 7,6.5 9,18.5 0,9 -8,16 -5,7 -17,8 -9,0 -15.5,-6.5 Q 803,562 801,551 q 0,-10 7,-18 z M 349,634 q 8,-6 20,-8 12,0 20.5,8.5 8.5,8.5 8.5,20.5 0,11 -7.5,19 -7.5,8 -21.5,9 -11,0 -18.5,-7 -7.5,-7 -9.5,-21 0,-13 8,-21 z m 258,0 q 8,-6 20,-8 13,0 21,8 6,8 8,21 0,12 -7,19 -7,7 -22,9 -11,0 -18.5,-7 -7.5,-7 -9.5,-21 0,-13 8,-21 z"
       id="path6"
       inkscape:connector-curvature="0"
       fill="#000000" />
  </g>
  <path
     style="fill:#f9f9f9;fill-opacity:1"
     d="m 648.30508,622.05222 c -10.48728,-1.83025 -54.7458,-5.73617 -98.35225,-8.67983 -65.25262,-4.40488 -89.62498,-4.34426 -137.71186,0.3425 -32.13508,3.13205 -65.83305,5.84655 -74.88438,6.03224 l -16.45697,0.33762 -37.49715,-97.17583 c -20.62343,-53.4467 -36.81567,-97.85731 -35.98275,-98.69023 0.83292,-0.83291 22.71991,20.81823 48.63776,48.11366 25.91785,27.29543 48.05113,48.70028 49.18508,47.56633 1.13395,-1.13395 10.32541,-48.53678 20.42546,-105.33963 l 18.36373,-103.2779 38.32191,69.65604 c 21.07705,38.31081 46.38886,84.43357 56.24848,102.49501 9.85961,18.06144 18.52448,32.83899 19.25528,32.83899 0.73079,0 26.77666,-45.5958 57.87971,-101.324 31.10305,-55.72819 57.12426,-100.75875 57.82491,-100.0679 1.34495,1.32614 34.5833,196.28958 34.68421,203.4443 0.0324,2.29408 22.94019,-18.65069 50.90629,-46.54393 C 727.11864,443.88642 750,422.81566 750,424.95575 c 0,2.14008 -15.70059,48.34968 -34.89025,102.688 -25.4564,72.08366 -36.627,98.65353 -41.31356,98.26656 -3.5328,-0.2917 -15.00382,-2.02784 -25.49111,-3.85809 z"
     id="path2989"
     inkscape:connector-curvature="0" />
  <path
     style="fill:#f9f9f9;fill-opacity:1"
     d="m 271.18644,764.23829 c 0,-1.1181 2.96984,-9.45525 6.59964,-18.52701 4.96357,-12.40519 11.75523,-19.30014 27.39652,-27.8132 47.89449,-26.06745 99.28788,-33.55496 214.07981,-31.18934 83.05711,1.71164 91.11334,2.59227 124.80539,13.64257 59.61504,19.55252 76.92551,30.90381 82.75635,54.26733 l 2.90814,11.65255 -229.27293,0 c -126.10011,0 -229.27292,-0.91481 -229.27292,-2.0329 z"
     id="path2991"
     inkscape:connector-curvature="0" />
  <path
     style="fill:#f9f9f9;fill-opacity:1"
     d="m 161.95977,306.28515 c -12.74661,-8.92807 -12.18136,-25.29572 1.17582,-34.04768 9.81302,-6.42973 11.37343,-6.42973 21.18644,0 13.35718,8.75196 13.92243,25.11961 1.17583,34.04768 -5.17957,3.62791 -10.47564,6.59621 -11.76905,6.59621 -1.2934,0 -6.58947,-2.9683 -11.76904,-6.59621 z"
     id="path2993"
     inkscape:connector-curvature="0" />
  <path
     style="fill:#f9f9f9;fill-opacity:1"
     d="m 351.69492,202.71186 c -10.18057,-10.18056 -10.75624,-20.28055 -1.87838,-32.95548 8.14409,-11.62732 27.44343,-12.49204 37.2386,-1.6685 22.29757,24.63855 -11.87985,58.10436 -35.36022,34.62398 z"
     id="path2995"
     inkscape:connector-curvature="0" />
  <path
     style="fill:#f9f9f9;fill-opacity:1"
     d="m 610.16949,202.71186 c -10.18056,-10.18056 -10.75623,-20.28055 -1.87837,-32.95548 8.14409,-11.62732 27.44342,-12.49204 37.23859,-1.6685 21.96983,24.27639 -12.22498,57.75923 -35.36022,34.62398 z"
     id="path2997"
     inkscape:connector-curvature="0" />
  <path
     style="fill:#f9f9f9;fill-opacity:1"
     d="m 814.50214,306.28515 c -11.42196,-8.00026 -12.20393,-23.46686 -1.66849,-33.0013 10.12792,-9.16565 15.84125,-8.84624 26.1494,1.46191 10.72353,10.72353 10.72353,18.93749 0,29.66102 -10.20131,10.20131 -12.3616,10.36707 -24.48091,1.87837 z"
     id="path2999"
     inkscape:connector-curvature="0" />
</svg>
