<?xml version="1.0" encoding="UTF-8" standalone="no"?>
<!-- Created with Inkscape (http://www.inkscape.org/) -->
<svg
   xmlns:dc="http://purl.org/dc/elements/1.1/"
   xmlns:cc="http://web.resource.org/cc/"
   xmlns:rdf="http://www.w3.org/1999/02/22-rdf-syntax-ns#"
   xmlns:svg="http://www.w3.org/2000/svg"
   xmlns="http://www.w3.org/2000/svg"
   xmlns:xlink="http://www.w3.org/1999/xlink"
   xmlns:sodipodi="http://sodipodi.sourceforge.net/DTD/sodipodi-0.dtd"
   xmlns:inkscape="http://www.inkscape.org/namespaces/inkscape"
   width="64"
   height="64"
   id="svg21076"
   sodipodi:version="0.32"
   inkscape:version="0.45.1"
   version="1.0"
   sodipodi:docbase="/home/thomas/Desktop"
   sodipodi:docname="other.svg"
   inkscape:output_extension="org.inkscape.output.svg.inkscape">
  <defs
     id="defs21078">
    <linearGradient
       inkscape:collect="always"
       xlink:href="#linearGradient9513"
       id="linearGradient14666"
       gradientUnits="userSpaceOnUse"
       x1="-2692.5854"
       y1="5273.9512"
       x2="-2641.4519"
       y2="5273.9512" />
    <radialGradient
       inkscape:collect="always"
       xlink:href="#linearGradient2228"
       id="radialGradient14664"
       gradientUnits="userSpaceOnUse"
       gradientTransform="matrix(313.24168,0,0,103.93252,-7516.4272,4161.3549)"
       cx="11.5"
       cy="16.746483"
       fx="11.5"
       fy="16.746483"
       r="2.5" />
    <linearGradient
       id="linearGradient9513">
      <stop
         style="stop-color:#e6e7e3;stop-opacity:1;"
         offset="0"
         id="stop9515" />
      <stop
         style="stop-color:#d3d7cf;stop-opacity:1;"
         offset="1"
         id="stop9517" />
    </linearGradient>
    <linearGradient
       inkscape:collect="always"
       xlink:href="#linearGradient9513"
       id="linearGradient14662"
       gradientUnits="userSpaceOnUse"
       gradientTransform="translate(-4398,3427)"
       x1="-773.16492"
       y1="1400.39"
       x2="-720.99164"
       y2="1400.39" />
    <linearGradient
       id="linearGradient2228"
       inkscape:collect="always">
      <stop
         id="stop2230"
         offset="0"
         style="stop-color:#2e3436;stop-opacity:1;" />
      <stop
         id="stop2232"
         offset="1"
         style="stop-color:#2e3436;stop-opacity:0;" />
    </linearGradient>
    <radialGradient
       inkscape:collect="always"
       xlink:href="#linearGradient2228"
       id="radialGradient14660"
       gradientUnits="userSpaceOnUse"
       gradientTransform="matrix(374.72139,0,0,111.73582,-9413.8756,3935.2804)"
       cx="11.5"
       cy="16.746483"
       fx="11.5"
       fy="16.746483"
       r="2.5" />
  </defs>
  <sodipodi:namedview
     id="base"
     pagecolor="#ffffff"
     bordercolor="#666666"
     borderopacity="1.0"
     gridtolerance="10000"
     guidetolerance="10"
     objecttolerance="10"
     inkscape:pageopacity="0.0"
     inkscape:pageshadow="2"
     inkscape:zoom="0.7"
     inkscape:cx="-319.71429"
     inkscape:cy="-42.820191"
     inkscape:document-units="px"
     inkscape:current-layer="layer1"
     inkscape:window-width="780"
     inkscape:window-height="620"
     inkscape:window-x="348"
     inkscape:window-y="202"
     height="64px"
     width="64px" />
  <metadata
     id="metadata21081">
    <rdf:RDF>
      <cc:Work
         rdf:about="">
        <dc:format>image/svg+xml</dc:format>
        <dc:type
           rdf:resource="http://purl.org/dc/dcmitype/StillImage" />
      </cc:Work>
    </rdf:RDF>
  </metadata>
  <g
     inkscape:label="Layer 1"
     inkscape:groupmode="layer"
     id="layer1"
     transform="translate(478.8719,-1191.5597)">
    <g
       id="g14651"
       transform="matrix(2.1990562e-2,0,0,2.1990562e-2,-346.01851,1116.0944)"
       inkscape:export-filename="/home/thomas/Desktop/48.png"
       inkscape:export-xdpi="18.235136"
       inkscape:export-ydpi="18.235136">
      <rect
         style="fill:url(#radialGradient14660);fill-opacity:1;fill-rule:evenodd;stroke:none;stroke-width:1;stroke-miterlimit:4;stroke-dasharray:none;stroke-opacity:1"
         id="rect10787"
         width="1873.6071"
         height="558.67914"
         x="-6041.3823"
         y="5527.123" />
      <path
         sodipodi:nodetypes="ccccccccccccccccccccccccccccccccccccccccccccccccccccccccccc"
         id="path5567"
         d="M -5197.1875,3738.2188 C -5220.6443,3744.5054 -5238.192,3765.7785 -5262.9078,3769.3439 C -5311.0388,3787.3864 -5363.1136,3797.2027 -5407.1875,3824.625 C -5415.5634,3835.8779 -5430.1325,3839.3642 -5443.4735,3839.6683 C -5481.0868,3845.9172 -5521.2801,3852.2778 -5551.375,3877.6875 C -5567.1523,3893.1053 -5573.7397,3914.8377 -5580.7188,3935.0938 C -5610.827,3926.4364 -5645.3825,3921.4371 -5674.2188,3936.8125 C -5699.5865,3953.5299 -5710.3849,3984.4184 -5715.2812,4013.0625 C -5725.441,4073.3937 -5709.6328,4134.8147 -5684.5953,4189.5015 C -5679.8994,4199.6531 -5675.1077,4209.636 -5670,4219.5625 C -5702.7584,4254.7996 -5735.1904,4290.3563 -5769.3125,4324.25 C -5750.8663,4397.7944 -5722.2182,4470.1072 -5721.9062,4546.9375 C -5719.8556,4586.2634 -5717.8847,4627.9183 -5696.125,4661.9062 C -5687.3162,4669.7195 -5678.0093,4679.3069 -5677.5889,4691.842 C -5663.8501,4743.2511 -5658.226,4797.1304 -5637.2188,4846.25 C -5658.476,4910.0513 -5671.6391,4976.1912 -5686.3125,5041.6875 C -5724.2891,5073.4744 -5763.21,5104.2763 -5801.7812,5135.5 C -5798.7154,5220.9251 -5795.1895,5306.3338 -5791.1562,5391.7188 C -5658.6689,5338.1566 -5745.544,5375.4515 -5722.5938,5367.8438 C -5709.2359,5401.3405 -5673.6747,5422.5678 -5638.5,5424.7188 C -5628.3913,5426.4956 -5599.4158,5425.5237 -5589.2487,5426.9153 C -5611.2338,5447.8605 -5648.7083,5474.4096 -5661.7812,5501.875 C -5718.7338,5503.2349 -5777.8358,5520.3093 -5819.5938,5560.4062 C -5859.6699,5600.3272 -5868.8332,5666.4575 -5843.6562,5716.5 C -5868.7145,5761.9317 -5853.4063,5825.3361 -5809.3281,5853.031 C -5768.2529,5882.9602 -5716.3915,5890.1357 -5667.0355,5894.2479 C -5547.4246,5905.1088 -5427.4168,5911.3438 -5307.3764,5914.8057 C -5040.2267,5921.4718 -4772.4214,5911.5296 -4506.9684,5880.2533 C -4465.3749,5870.1087 -4426.295,5839.7898 -4414.25,5797.4375 C -4406.8581,5769.8546 -4410.612,5740.1136 -4421.875,5714.0938 C -4392.9045,5655.5383 -4414.1407,5576.9357 -4469.1892,5541.466 C -4507.1896,5516.8254 -4561.7133,5504.5087 -4606.8288,5502.1562 C -4617.4379,5474.1629 -4627.9461,5451.5654 -4656.3198,5429.0222 C -4631.0193,5423.3071 -4594.315,5414.2741 -4569.4688,5407.0625 C -4542.9966,5292.3588 -4563.6691,5187.8987 -4593.2707,5074.735 C -4623.2026,5005.0826 -4647.4343,4965.621 -4680.2139,4918.8882 C -4744.2973,4844.175 -4936.6391,4684.7464 -4938.5579,4675.1263 C -4851.8223,4657.5063 -4650.3485,4930.6994 -4565.0625,4913.875 C -4532.9571,4910.5653 -4500.4928,4909.3241 -4468.6478,4904.1001 C -4443.6262,4899.4768 -4419.5794,4885.6804 -4406.5579,4863.3119 C -4391.7814,4839.4667 -4388.9556,4811.0938 -4380.6586,4784.7509 C -4369.4145,4742.2052 -4362.9039,4695.5978 -4378.2188,4653.25 C -4380.7291,4646.2501 -4474.4985,4598.6431 -4387.0938,4632.8125 C -4346.6608,4637.9726 -4304.3101,4629.1179 -4271.0938,4605.25 C -4207.6576,4621.2914 -4134.745,4598.8489 -4095.4062,4545.6875 C -4072.6167,4513.3202 -4073.6314,4469.3123 -4088.7812,4434.125 C -4078.7127,4418.912 -4100.451,4431.4686 -4080.5625,4404.5938 C -4069.4204,4365.8144 -4072.0493,4319.3466 -4100.3125,4288.2812 C -4127.6586,4257.3154 -4170.8645,4244.2331 -4211.3748,4247.3124 C -4221.8134,4247.4962 -4232.2856,4247.6377 -4242.6875,4246.5938 C -4268.6329,4208.6138 -4289.0952,4164.1157 -4329.0378,4138.6924 C -4358.7213,4120.8077 -4395.5151,4123.5163 -4428.0878,4130.884 C -4488.5603,4142.8683 -4545.747,4167.7525 -4605.5312,4182.375 C -4943.479,4126.7719 -4695.8291,4165.9988 -4740.6875,4156.3438 C -4721.9074,4089.8344 -4751.9652,4014.0227 -4809.1903,3976.0355 C -4825.6359,3962.9627 -4858.1628,3954.5464 -4876.8631,3945.2409 C -4811.9193,3904.9521 -4735.3735,3858.1713 -4671.3125,3816.4688 C -4803.6023,3779.7638 -4940.6492,3765.5877 -5076.9005,3752.1787 C -5117.0253,3747.9328 -5157.0967,3742.0013 -5197.1875,3738.2188 z "
         style="color:#000000;fill:#d3d7cf;fill-opacity:1;fill-rule:nonzero;stroke:#787a75;stroke-width:67.3252182;stroke-linecap:butt;stroke-linejoin:miter;marker:none;marker-start:none;marker-mid:none;marker-end:none;stroke-miterlimit:4;stroke-dasharray:none;stroke-dashoffset:0;stroke-opacity:1;visibility:visible;display:inline;overflow:visible;enable-background:accumulate" />
      <path
         sodipodi:nodetypes="cccssccccccccccccscscccccccccssssccccccccccccccccccccccsccccccccccc"
         id="path2761"
         d="M -5185.1672,3803.9492 L -5185.9828,3804.6627 C -5204.31,3824.6246 -5233.6224,3825.3032 -5256.5478,3837.3463 C -5256.5478,3837.3463 -5362.0733,3871.8697 -5362.0733,3871.8697 C -5362.0733,3871.8697 -5387.1795,3896.8921 -5387.1795,3896.8921 C -5387.1795,3896.8921 -5444.8389,3905.9772 -5478.5034,3914.1287 C -5487.3772,3917.438 -5498.0193,3917.7179 -5505.5475,3923.5057 C -5519.092,3956.053 -5529.0297,3988.6021 -5542.5774,4021.1484 C -5565.8254,4004.9261 -5619.5807,3991.893 -5639.039,3991.9741 C -5677.853,4061.5769 -5625.2121,4171.9773 -5588.1735,4228.9368 C -5626.0347,4269.2834 -5657.2882,4304.3176 -5696.0422,4343.8729 C -5681.5284,4398.7391 -5659.8452,4452.6415 -5659.1125,4510.0763 C -5655.2359,4545.8876 -5655.0009,4582.2547 -5646.9498,4617.4358 C -5643.0086,4623.8773 -5636.0616,4628.1177 -5628.6714,4629.4288 C -5611.9815,4672.5948 -5594.4225,4754.8442 -5586.3145,4800.4694 C -5586.3145,4800.4694 -5566.7285,4840.5324 -5566.7285,4840.5324 C -5566.7285,4840.5324 -5598.6444,4948.0963 -5598.6444,4948.0963 C -5598.6444,4948.0963 -5624.5054,5077.481 -5624.5054,5077.481 C -5624.5054,5077.481 -5734.7568,5166.4269 -5734.7568,5166.4269 C -5734.7568,5166.4269 -5729.2848,5300.3341 -5729.2848,5300.3341 C -5729.2848,5300.3341 -5660.4036,5276.1004 -5660.4036,5276.1004 C -5666.6099,5306.4572 -5668.7623,5336.0888 -5655.4095,5352.9507 C -5612.5328,5367.5315 -5498.5169,5373.3262 -5436.8169,5381.1497 L -5470.7914,5417.9781 C -5538.4256,5447.7309 -5609.8134,5505.2931 -5612.6693,5567.9078 L -5654.5261,5567.9078 C -5729.907,5567.9078 -5790.5935,5602.6706 -5790.5935,5645.8794 L -5790.5935,5664.1917 C -5790.5935,5684.2145 -5777.5278,5702.4244 -5756.0417,5716.2068 C -5775.53,5723.5331 -5790.6282,5756.734 -5790.6274,5767.033 C -5790.6274,5790.5 -5761.5264,5818.365 -5686.5635,5825.978 C -5339.4909,5861.575 -4949.6522,5857.595 -4563.9431,5822.581 C -4488.8832,5815.707 -4476.1865,5790.5 -4476.1865,5767.033 C -4476.1865,5755.991 -4486.2473,5722.2026 -4508.3264,5714.6778 C -4488.2467,5701.0937 -4476.1526,5683.4721 -4476.1526,5664.1917 L -4476.1526,5645.8794 C -4476.1526,5602.6706 -4536.8399,5567.9078 -4612.2208,5567.9078 L -4650.1365,5567.9078 C -4652.9451,5506.324 -4697.392,5452.9198 -4763.2035,5422.8704 L -4809.0694,5381.3875 C -4736.8796,5382.1758 -4658.75,5363.2056 -4626.1163,5354.4117 C -4576.7612,5066.0107 -4833.288,4801.3212 -5036.3359,4648.2973 C -4985.8939,4657.7608 -4863.9076,4643.3319 -4863.9076,4643.3319 C -4745.9852,4674.7228 -4707.7651,4763.0652 -4651.359,4838.5422 C -4626.1455,4850.8143 -4475.1217,4854.2825 -4462.3249,4829.7767 C -4447.2416,4776.6798 -4415.2768,4693.3172 -4451.8611,4657.322 C -4528.3313,4617.1381 -4563.1339,4605.9943 -4590.3073,4585.126 C -4576.5695,4585.5894 -4564.6995,4573.611 -4564.0109,4563.79 C -4515.312,4609.0433 -4412.54,4580.9625 -4424.7153,4541.9104 C -4401.2141,4583.8791 -4286.8496,4573.8793 -4296.2573,4519.2834 C -4248.986,4568.2898 -4150.7514,4536.2765 -4143.5079,4495.1954 C -4146.3094,4461.6925 -4149.7569,4455.9364 -4165.3875,4433.4297 C -4141.6434,4390.1751 -4120.5344,4334.6317 -4171.5032,4318.052 C -4199.3509,4310.3174 -4249.9388,4315.9778 -4277.7755,4308.6071 C -4302.0394,4289.2606 -4341.6208,4194.6782 -4372.7677,4191.2251 C -4448.3932,4193.3783 -4527.369,4233.4607 -4601.0771,4250.2048 C -4601.0771,4250.2048 -4761.929,4223.7168 -4858.5018,4195.9475 C -4822.4151,4197.7914 -4723.7862,4069.5535 -4915.24,3991.9983 C -4932.8148,3984.0928 -5004.2908,3968.3895 -4978.8202,4013.1599 C -5026.6239,3944.0107 -5097.4879,3976.6132 -5135.4667,4041.9968 C -5145.6497,4039.8817 -5154.8508,4037.6708 -5173.548,4035.7915 C -5083.3511,3977.5496 -4921.9898,3907.9042 -4832.3773,3848.8153 C -4926.2606,3829.7656 -5091.183,3822.4903 -5185.1672,3803.9492 z M -5326.6713,4093.6162 C -5327.6232,4094.1747 -5328.5649,4094.769 -5329.5256,4095.3489 C -5329.4798,4094.9753 -5329.4349,4094.6013 -5329.3891,4094.2277 C -5328.4853,4094.0216 -5327.5775,4093.8177 -5326.6713,4093.6162 z "
         style="color:#000000;fill:url(#linearGradient14662);fill-opacity:1;fill-rule:nonzero;stroke:#f2f3f1;stroke-width:67.32499695;stroke-linecap:butt;stroke-linejoin:miter;marker:none;marker-start:none;marker-mid:none;marker-end:none;stroke-miterlimit:4;stroke-dasharray:none;stroke-dashoffset:0;stroke-opacity:1;visibility:visible;display:inline;overflow:visible;enable-background:accumulate" />
      <rect
         y="5642.0278"
         x="-4697.2515"
         height="519.6626"
         width="1566.2086"
         id="rect12122"
         style="fill:url(#radialGradient14664);fill-opacity:1;fill-rule:evenodd;stroke:none;stroke-width:1;stroke-miterlimit:4;stroke-dasharray:none;stroke-opacity:1" />
      <g
         transform="translate(-1257.1966,7.977181)"
         id="g12096">
        <path
           sodipodi:nodetypes="ccccccccccccccccccccccccccccc"
           style="color:#000000;fill:#d3d7cf;fill-opacity:1;fill-rule:nonzero;stroke:#787a75;stroke-width:67.32499695;stroke-linecap:butt;stroke-linejoin:miter;marker:none;marker-start:none;marker-mid:none;marker-end:none;stroke-miterlimit:4;stroke-dasharray:none;stroke-dashoffset:0;stroke-opacity:1;visibility:visible;display:inline;overflow:visible"
           d="M -2535.5625,4548.625 C -2579.6251,4550.4245 -2621.1504,4574.305 -2647.5312,4609 C -2795.7028,4597.9456 -2947.7624,4671.522 -3028.0625,4796.8125 C -3101.4292,4910.719 -3106.4879,5065.8013 -3039.125,5183.5938 C -3073.6343,5245.4096 -3054.5937,5331.5384 -2997.1311,5372.6851 C -2986.6888,5380.3823 -2975.3537,5387.2213 -2963.5938,5392.9062 C -2981.092,5429.5967 -3003.6816,5467.4348 -3040.7083,5486.8506 C -3062.0355,5497.06 -3084.1607,5506.6613 -3102.0938,5522.5 C -3122.8134,5538.6063 -3141.0983,5558.065 -3155.5312,5580.1562 C -3209.0433,5583.3828 -3263.9456,5603.0143 -3300.111,5643.7665 C -3342.2379,5693.9366 -3343.4811,5773.7308 -3303.7812,5825.625 C -3300.4675,5891.9137 -3244.9369,5949.469 -3179.9688,5958.8125 C -3046.2243,5985.698 -2909.275,5987.1584 -2773.4772,5993.9196 C -2598.0115,6000.243 -2422.104,6002.4906 -2246.8212,5990.5946 C -2204.5074,5986.7236 -2159.7555,5977.4638 -2127.25,5948.4062 C -2096.873,5921.0982 -2078.0925,5878.1754 -2085.9403,5837.0642 C -2094.9119,5821.7458 -2094.0918,5811.8819 -2088.8388,5799.6749 C -2074.555,5730.3083 -2116.279,5654.5661 -2182.4227,5629.7707 C -2203.5852,5621.0044 -2225.6713,5614.5224 -2248.4062,5611.4375 C -2269.0664,5571.1471 -2302.1467,5537.5118 -2341.8438,5515.8438 C -2357.375,5483.2813 -2372.9062,5450.7187 -2388.4375,5418.1562 C -2344.92,5405.0324 -2302.396,5379.3592 -2281.1248,5337.7485 C -2262.337,5299.841 -2265.3457,5251.4054 -2285.9215,5210.2994 C -2220.324,5191.3291 -2167.3596,5138.9722 -2154.8664,5074.5819 C -2138.3079,4994.3932 -2177.0004,4906.3971 -2247.0587,4864.7171 C -2251.8236,4861.4454 -2256.7732,4858.395 -2261.7812,4855.4688 C -2255.8493,4778.2761 -2286.7785,4697.4083 -2347.6659,4648.7433 C -2364.6483,4636.7735 -2384.6624,4629.0953 -2405.375,4626.6562 C -2432.5538,4581.8886 -2481.6547,4547.5445 -2535.5625,4548.625 z "
           id="path11791" />
        <path
           sodipodi:nodetypes="cccccccccccccccccccccccccccccccccccccccc"
           id="path3594"
           d="M -2530.928,4614.5402 C -2561.6784,4614.0964 -2588.0089,4635.6747 -2602.6963,4661.3058 C -2606.2737,4667.2297 -2609.5281,4673.3046 -2612.4712,4679.5437 C -2714.2655,4661.9871 -2823.9164,4688.6652 -2903.1004,4755.2349 C -2970.7132,4810.3518 -3016.6884,4893.6823 -3019.9812,4981.773 C -3023.9356,5055.1431 -3002.3026,5130.1049 -2957.3567,5188.4143 C -2986.3574,5209.2256 -2999.5985,5250.9987 -2984.364,5284.0561 C -2972.3637,5313.7443 -2943.5559,5333.9057 -2913.1241,5341.4319 C -2899.2869,5346.4121 -2884.8823,5349.6142 -2870.4482,5352.3837 C -2895.253,5399.517 -2914.8809,5449.7322 -2945.4804,5493.3928 C -2961.456,5508.4171 -2978.8407,5521.923 -2992.4628,5539.1063 C -3040.3959,5554.334 -3085.9649,5584.7182 -3108.6819,5630.8342 C -3110.9929,5635.5972 -3112.998,5640.4465 -3114.6666,5645.4698 C -3157.2645,5644.1892 -3202.9191,5649.0883 -3238.177,5674.7172 C -3274.56,5703.1875 -3276.7673,5765.6438 -3241.4156,5795.8706 C -3239.6471,5798.3953 -3233.6563,5800.0852 -3236.3396,5803.908 C -3244.3026,5839.2804 -3220.9604,5878.2831 -3185.9481,5887.5981 C -3144.0958,5903.142 -3098.8754,5905.0553 -3054.958,5911.0462 C -2901.5413,5926.1508 -2747.2936,5929.5251 -2593.2611,5932.6381 C -2477.1982,5934.1304 -2360.8376,5934.1361 -2245.1174,5924.7572 C -2215.6789,5921.7933 -2183.2487,5915.1186 -2163.6116,5891.0788 C -2150.749,5875.4999 -2145.0328,5852.0072 -2155.6861,5833.7314 C -2158.5889,5827.9245 -2163.2419,5822.7846 -2166.9844,5817.9407 C -2143.8738,5785.2632 -2148.1046,5734.8113 -2179.8161,5709.2037 C -2208.0489,5683.7065 -2247.2546,5676.6732 -2284.0496,5674.0344 C -2287.5526,5673.0435 -2291.9938,5675.3237 -2294.9755,5673.1069 C -2307.3618,5624.0162 -2345.549,5583.4953 -2392.1451,5564.8831 L -2485.7446,5368.2609 C -2440.3884,5364.6075 -2392.7151,5356.9227 -2355.6907,5328.9209 C -2323.0806,5299.2074 -2324.6869,5239.8019 -2360.3512,5213.1973 C -2369.2038,5205.521 -2379.5634,5199.909 -2390.1361,5194.9452 C -2383.2706,5185.849 -2376.9584,5176.2985 -2371.3516,5166.3836 C -2324.7068,5165.5446 -2276.2898,5149.2248 -2245.0141,5113.5438 C -2206.593,5069.3639 -2208.2288,4996.2131 -2247.405,4952.898 C -2269.7175,4924.6718 -2301.9719,4904.8924 -2336.4675,4894.928 C -2317.7493,4843.695 -2328.2022,4785.3522 -2354.0965,4738.6384 C -2366.7265,4716.7809 -2386.4898,4695.8251 -2412.5543,4691.8789 C -2423.2984,4690.9867 -2434.0901,4693.7801 -2443.2005,4699.2735 C -2455.5068,4667.2702 -2474.5557,4634.3709 -2507.0199,4619.712 C -2514.5564,4616.5194 -2522.6768,4614.7099 -2530.928,4614.5402 z "
           style="color:#000000;fill:url(#linearGradient14666);fill-opacity:1;fill-rule:nonzero;stroke:#f2f3f1;stroke-width:67.32499695;stroke-linecap:butt;stroke-linejoin:miter;marker:none;marker-start:none;marker-mid:none;marker-end:none;stroke-miterlimit:4;stroke-dasharray:none;stroke-dashoffset:0;stroke-opacity:1;visibility:visible;display:inline;overflow:visible" />
      </g>
    </g>
  </g>
</svg>
