<?xml version="1.0" encoding="UTF-8" standalone="no"?>
<!-- Created with Inkscape (http://www.inkscape.org/) -->
<svg
   xmlns:dc="http://purl.org/dc/elements/1.1/"
   xmlns:cc="http://web.resource.org/cc/"
   xmlns:rdf="http://www.w3.org/1999/02/22-rdf-syntax-ns#"
   xmlns:svg="http://www.w3.org/2000/svg"
   xmlns="http://www.w3.org/2000/svg"
   xmlns:xlink="http://www.w3.org/1999/xlink"
   xmlns:sodipodi="http://sodipodi.sourceforge.net/DTD/sodipodi-0.dtd"
   xmlns:inkscape="http://www.inkscape.org/namespaces/inkscape"
   version="1.0"
   width="134"
   height="132"
   id="svg618"
   sodipodi:version="0.32"
   inkscape:version="0.44"
   sodipodi:docname="pychess.svg"
   sodipodi:docbase="/home/thomas/Programmering/python/skak/svn/gfx">
  <metadata
     id="metadata46">
    <rdf:RDF>
      <cc:Work
         rdf:about="">
        <dc:format>image/svg+xml</dc:format>
        <dc:type
           rdf:resource="http://purl.org/dc/dcmitype/StillImage" />
      </cc:Work>
    </rdf:RDF>
  </metadata>
  <sodipodi:namedview
     inkscape:window-height="997"
     inkscape:window-width="1308"
     inkscape:pageshadow="2"
     inkscape:pageopacity="0.0"
     guidetolerance="10.0"
     gridtolerance="10.0"
     objecttolerance="10.0"
     borderopacity="1.0"
     bordercolor="#666666"
     pagecolor="#ffffff"
     id="base"
     width="134px"
     height="132px"
     units="px"
     inkscape:zoom="1"
     inkscape:cx="109.07543"
     inkscape:cy="252.998"
     inkscape:window-x="83"
     inkscape:window-y="66"
     inkscape:current-layer="svg618" />
  <defs
     id="defs621">
    <linearGradient
       id="linearGradient20624">
      <stop
         style="stop-color:black;stop-opacity:1"
         offset="0"
         id="stop20626" />
      <stop
         style="stop-color:black;stop-opacity:0"
         offset="1"
         id="stop20628" />
    </linearGradient>
    <linearGradient
       id="linearGradient19727">
      <stop
         style="stop-color:white;stop-opacity:1"
         offset="0"
         id="stop19729" />
      <stop
         style="stop-color:white;stop-opacity:0"
         offset="1"
         id="stop19731" />
    </linearGradient>
    <linearGradient
       id="linearGradient17944">
      <stop
         style="stop-color:#73d216;stop-opacity:1"
         offset="0"
         id="stop17946" />
      <stop
         style="stop-color:#73d216;stop-opacity:0"
         offset="1"
         id="stop17948" />
    </linearGradient>
    <linearGradient
       id="linearGradient16163">
      <stop
         style="stop-color:white;stop-opacity:1"
         offset="0"
         id="stop16165" />
      <stop
         style="stop-color:white;stop-opacity:0"
         offset="1"
         id="stop16167" />
    </linearGradient>
    <linearGradient
       id="linearGradient14366">
      <stop
         style="stop-color:#5d3362;stop-opacity:1"
         offset="0"
         id="stop14368" />
      <stop
         style="stop-color:#75507b;stop-opacity:1"
         offset="1"
         id="stop14370" />
    </linearGradient>
    <linearGradient
       x1="513.2915"
       y1="330.05957"
       x2="261.3562"
       y2="317.55057"
       id="linearGradient14378"
       xlink:href="#linearGradient14366"
       gradientUnits="userSpaceOnUse" />
    <linearGradient
       x1="167.3949"
       y1="206.28946"
       x2="591.96539"
       y2="690.00854"
       id="linearGradient16169"
       xlink:href="#linearGradient16163"
       gradientUnits="userSpaceOnUse"
       gradientTransform="matrix(0.986456,0,0,0.982686,8.732888,5.376516)" />
    <linearGradient
       x1="480.9021"
       y1="466.42627"
       x2="979.8728"
       y2="597.07593"
       id="linearGradient17950"
       xlink:href="#linearGradient17944"
       gradientUnits="userSpaceOnUse" />
    <linearGradient
       x1="466.83542"
       y1="556.88696"
       x2="759.11255"
       y2="847.56458"
       id="linearGradient19733"
       xlink:href="#linearGradient19727"
       gradientUnits="userSpaceOnUse" />
    <radialGradient
       cx="407.23792"
       cy="762.47296"
       r="398.89856"
       fx="407.23792"
       fy="762.47296"
       id="radialGradient21517"
       xlink:href="#linearGradient20624"
       gradientUnits="userSpaceOnUse"
       gradientTransform="matrix(1,0,0,0.12892,0,664.175)" />
    <radialGradient
       cx="407.23792"
       cy="762.47296"
       r="398.89856"
       fx="407.23792"
       fy="762.47296"
       id="radialGradient22406"
       xlink:href="#linearGradient20624"
       gradientUnits="userSpaceOnUse"
       gradientTransform="matrix(1,0,0,0.12892,0,664.175)" />
    <radialGradient
       cx="407.23792"
       cy="762.47296"
       r="398.89856"
       fx="407.23792"
       fy="762.47296"
       id="radialGradient22416"
       xlink:href="#linearGradient20624"
       gradientUnits="userSpaceOnUse"
       gradientTransform="matrix(1,0,0,0.12892,0,664.175)" />
    <linearGradient
       x1="513.2915"
       y1="330.05957"
       x2="261.3562"
       y2="317.55057"
       id="linearGradient22418"
       xlink:href="#linearGradient14366"
       gradientUnits="userSpaceOnUse"
       gradientTransform="translate(-1165.786,-1111.469)" />
    <linearGradient
       x1="167.3949"
       y1="206.28946"
       x2="591.96539"
       y2="690.00854"
       id="linearGradient22420"
       xlink:href="#linearGradient16163"
       gradientUnits="userSpaceOnUse"
       gradientTransform="matrix(0.986456,0,0,0.982686,-1157.054,-1106.093)" />
    <radialGradient
       cx="407.23792"
       cy="762.47296"
       r="398.89856"
       fx="407.23792"
       fy="762.47296"
       id="radialGradient22422"
       xlink:href="#linearGradient20624"
       gradientUnits="userSpaceOnUse"
       gradientTransform="matrix(1,0,0,0.12892,0,664.175)" />
    <linearGradient
       x1="480.9021"
       y1="466.42627"
       x2="979.8728"
       y2="597.07593"
       id="linearGradient22424"
       xlink:href="#linearGradient17944"
       gradientUnits="userSpaceOnUse"
       gradientTransform="translate(-1165.786,-1111.469)" />
    <linearGradient
       x1="466.83542"
       y1="556.88696"
       x2="759.11255"
       y2="847.56458"
       id="linearGradient22426"
       xlink:href="#linearGradient19727"
       gradientUnits="userSpaceOnUse"
       gradientTransform="translate(-1165.786,-1111.469)" />
    <radialGradient
       cx="407.23792"
       cy="762.47296"
       r="398.89856"
       fx="407.23792"
       fy="762.47296"
       id="radialGradient22436"
       xlink:href="#linearGradient20624"
       gradientUnits="userSpaceOnUse"
       gradientTransform="matrix(1.113334,0,0,0.168341,-9.284485,662.9511)" />
    <linearGradient
       x1="513.2915"
       y1="330.05957"
       x2="261.3562"
       y2="317.55057"
       id="linearGradient22438"
       xlink:href="#linearGradient14366"
       gradientUnits="userSpaceOnUse"
       gradientTransform="translate(46.69752,40.62726)" />
    <linearGradient
       x1="167.3949"
       y1="206.28946"
       x2="591.96539"
       y2="690.00854"
       id="linearGradient22440"
       xlink:href="#linearGradient16163"
       gradientUnits="userSpaceOnUse"
       gradientTransform="matrix(0.986456,0,0,0.982686,55.42953,46.00326)" />
    <radialGradient
       cx="407.23792"
       cy="762.47296"
       r="398.89856"
       fx="407.23792"
       fy="762.47296"
       id="radialGradient22442"
       xlink:href="#linearGradient20624"
       gradientUnits="userSpaceOnUse"
       gradientTransform="matrix(0.645215,0,0,0.133848,310.7225,744.4684)" />
    <linearGradient
       x1="480.9021"
       y1="466.42627"
       x2="979.8728"
       y2="597.07593"
       id="linearGradient22444"
       xlink:href="#linearGradient17944"
       gradientUnits="userSpaceOnUse"
       gradientTransform="translate(46.69752,40.62726)" />
    <linearGradient
       x1="466.83542"
       y1="556.88696"
       x2="759.11255"
       y2="847.56458"
       id="linearGradient22446"
       xlink:href="#linearGradient19727"
       gradientUnits="userSpaceOnUse"
       gradientTransform="translate(46.69752,40.62726)" />
  </defs>
  <g
     id="g1910"
     transform="matrix(0.146518,0,0,0.146518,0,-0.854666)">
    <path
       id="path20622"
       style="opacity:0.76404497;fill:url(#radialGradient22436);fill-opacity:1;stroke:none;stroke-width:15;stroke-linejoin:round;stroke-miterlimit:4;stroke-dasharray:none;stroke-opacity:1"
       d="M 888.21466,791.3062 C 888.24346,828.39563 689.4014,858.46486 444.10733,858.46486 C 198.81326,858.46486 -0.028799824,828.39563 3.1287593e-06,791.3062 C -0.028799824,754.21677 198.81326,724.14754 444.10733,724.14754 C 689.4014,724.14754 888.24346,754.21677 888.21466,791.3062 L 888.21466,791.3062 z " />
    <path
       id="path619"
       style="fill:url(#linearGradient22438);fill-opacity:1;stroke:#ad7fa8;stroke-width:15;stroke-miterlimit:4;stroke-dasharray:none;stroke-opacity:1"
       d="M 691.47772,787.67192 L 133.47772,787.67192 L 133.47772,661.67189 C 133.47772,616.67189 160.47772,490.67189 268.47772,445.67186 C 223.47772,391.67186 214.47772,292.67186 304.47772,229.67186 C 277.47772,193.67186 304.47772,67.671759 412.47772,67.671759 C 520.47772,67.671759 547.47772,193.67186 520.47772,229.67186 C 610.47772,292.67186 601.47772,391.67186 556.47772,445.67186 C 665.07772,489.17189 691.47772,616.67189 691.47772,661.67189 L 691.47772,787.67192 z " />
    <path
       id="path2825"
       style="fill:none;fill-opacity:1;stroke:#5c3566;stroke-width:11.6529274;stroke-miterlimit:4;stroke-dasharray:none;stroke-opacity:1"
       d="M 701.27942,797.51725 L 123.67602,797.51725 L 123.67602,668.07139 C 123.67602,621.84069 146.71052,489.44649 252.60792,442.23296 C 212.90662,386.75616 208.50442,288.97986 292.82102,225.23976 C 264.87252,188.25526 300.68342,57.826464 412.47772,57.826464 C 524.27192,57.826464 555.16882,174.25026 535.08272,225.97686 C 621.85632,295.12236 608.11752,390.68736 561.53662,446.16416 C 673.95192,490.85379 701.27942,621.84069 701.27942,668.07139 L 701.27942,797.51725 z " />
    <path
       id="path15265"
       style="opacity:0.15168541;fill:url(#linearGradient22440);fill-opacity:1;fill-rule:evenodd;stroke:none;stroke-width:1px;stroke-linecap:butt;stroke-linejoin:miter;stroke-opacity:1"
       d="M 590.95232,351.15806 C 538.94852,385.84616 481.09482,413.94526 419.89472,426.21066 C 250.81372,460.09696 171.54272,617.57939 141.03592,700.25729 L 141.03592,780.10054 L 691.47832,780.10054 L 691.47832,656.28209 C 691.47832,612.06119 665.43592,486.76879 558.30682,444.02186 C 578.59762,419.76596 591.43672,386.29086 590.95232,351.15806 z " />
    <path
       id="path22404"
       style="opacity:0.76404497;fill:url(#radialGradient22442);fill-opacity:1;stroke:none;stroke-width:15;stroke-linejoin:round;stroke-miterlimit:4;stroke-dasharray:none;stroke-opacity:1"
       d="M 830.85387,846.52346 C 830.87056,876.01325 715.63481,899.92128 573.47853,899.92128 C 431.32226,899.92128 316.08651,876.01325 316.1032,846.52346 C 316.08651,817.03367 431.32226,793.12564 573.47853,793.12564 C 715.63481,793.12564 830.87056,817.03367 830.85387,846.52346 L 830.85387,846.52346 z " />
    <path
       id="path3712"
       style="fill:#4e9a06;fill-opacity:1;stroke:none;stroke-width:10.34999561;stroke-miterlimit:4;stroke-dasharray:none;stroke-opacity:1"
       d="M 770.54842,819.04213 L 786.09902,729.7018 C 826.8541,701.91009 875.29745,650.32609 875.29745,560.00299 C 875.29745,504.41949 837.16916,465.12139 783.54722,456.30266 C 727.79872,447.13416 677.49242,478.69339 677.49242,478.69339 C 677.49242,478.69339 693.08102,401.11236 609.25312,371.91006 L 609.49552,379.34866 L 654.15892,380.09306 L 653.91652,303.17506 L 616.46042,302.92936 L 616.46042,261.24176 L 537.37612,261.24176 L 537.37612,302.92936 L 499.42532,303.18966 L 499.91672,378.64646 L 544.58992,379.38356 L 544.09852,373.40616 C 462.94592,401.19786 473.11162,477.60199 473.11162,477.60199 C 473.11162,477.60199 425.82992,448.82206 369.49802,456.80126 C 315.69332,464.42249 277.55622,504.41949 277.55622,560.00299 C 277.55622,650.32609 327.96512,701.91009 368.72022,729.7018 L 379.35682,814.12813 C 386.14932,834.97195 440.57652,865.71208 576.42682,865.71208 C 712.27712,865.71208 763.75592,839.88595 770.54842,819.04213 z " />
    <path
       id="path611"
       style="fill:url(#linearGradient22444);fill-opacity:1;stroke:#8ae234;stroke-width:15;stroke-miterlimit:4;stroke-dasharray:none;stroke-opacity:1"
       d="M 754.00202,801.42371 L 766.68592,717.02559 C 804.73768,691.05689 855.47348,645.61179 855.47348,561.21369 C 855.47348,509.27639 811.07968,476.81559 760.34392,476.81559 C 709.60822,476.81559 652.53052,515.76849 652.53052,515.76849 C 652.53052,515.76849 684.24032,411.89386 595.45272,385.92526 L 595.45272,359.95656 L 633.50452,359.95656 L 633.50452,321.00356 L 595.45272,321.00356 L 595.45272,282.05066 L 557.40092,282.05066 L 557.40092,321.00356 L 519.34912,321.00356 L 519.34912,359.95656 L 557.40092,359.95656 L 557.40092,385.92526 C 468.61332,411.89386 500.32322,515.76849 500.32322,515.76849 C 500.32322,515.76849 443.24552,476.81559 392.50972,476.81559 C 341.77392,476.81559 297.38012,509.27639 297.38012,561.21369 C 297.38012,645.61179 348.11592,691.05689 386.16772,717.02559 L 398.85172,801.42371 C 405.19362,820.9002 449.58742,846.86885 576.42682,846.86885 C 703.26622,846.86885 747.66002,820.9002 754.00202,801.42371 z M 560.87562,670.64789 C 529.16582,670.64789 446.72022,677.13999 415.01032,690.12429 C 376.95852,670.64789 327.78762,636.79709 331.26232,562.84119 C 333.09042,523.93119 350.28822,510.90389 394.68202,510.90389 C 439.07582,510.90389 549.58162,550.09459 560.87562,670.64789 z M 594.06282,671.34279 C 608.83172,541.75519 713.08292,510.90389 763.81862,510.90389 C 801.87051,510.90389 820.89641,523.88819 820.89641,562.84119 C 820.89641,642.35669 777.98002,671.34279 739.92812,690.81929 C 708.21832,677.83499 625.77272,671.34279 594.06282,671.34279 z M 728.63412,755.97857 L 722.29212,783.57026 C 601.79472,764.09377 551.05892,764.09377 430.56152,783.57026 L 424.21952,755.97857 C 551.05892,736.50208 601.79472,736.50208 728.63412,755.97857 z M 620.82062,645.61179 C 665.21442,645.61179 703.26622,652.10399 741.31802,665.08829 C 792.05378,626.13529 798.39578,593.67449 798.39578,567.70579 C 798.39578,548.22939 785.71182,535.24499 760.34392,535.24499 C 684.24032,535.24359 627.16262,600.16669 620.82062,645.61179 z M 532.03302,645.61179 C 525.69112,600.16669 462.27142,535.24359 392.50972,535.24499 C 367.14182,535.24499 354.45792,554.72149 354.45792,574.19799 C 354.45792,593.67449 360.79982,626.13529 411.53562,665.08829 C 449.58742,652.10399 487.63922,645.61179 532.03302,645.61179 z " />
    <path
       id="path17952"
       style="opacity:0.26404497;fill:url(#linearGradient22446);fill-opacity:1;fill-rule:evenodd;stroke:none;stroke-width:1px;stroke-linecap:butt;stroke-linejoin:miter;stroke-opacity:1"
       d="M 847.75344,556.75179 C 836.68997,564.87509 838.9827,576.41109 826.98291,584.16509 C 821.00117,648.71909 779.16292,681.80669 739.97302,698.66949 C 702.21712,682.24849 616.42852,678.96319 585.30642,678.96319 C 585.83612,674.31869 586.48132,669.80449 587.23872,665.41539 C 536.04982,680.48479 494.73092,702.65466 455.74952,743.29371 C 557.90502,729.03779 622.56342,732.6838 735.85042,750.06818 L 727.53942,791.03206 C 609.27552,771.92881 547.53742,770.74244 424.40882,791.93055 L 423.82612,789.38651 C 414.29772,795.99268 415.62552,793.44585 408.15192,803.36424 C 424.84032,820.27475 472.11492,839.35166 575.58332,839.35166 C 700.07162,839.35169 741.32662,815.85373 747.55102,796.75046 L 760.00342,712.48746 C 797.34987,687.01649 847.87613,643.91579 847.87613,561.13489 C 847.87613,559.65799 847.82578,558.19629 847.75344,556.75179 z M 786.90102,596.01599 C 746.00262,619.73029 706.51352,632.66449 661.55662,639.71229 C 688.93622,642.48079 714.34962,648.20929 739.76702,656.87689 C 771.21672,630.82109 779.96812,614.86719 786.90102,596.01599 z " />
  </g>
</svg>
