<?xml version="1.0" encoding="UTF-8" standalone="no"?>
<svg
   xmlns:dc="http://purl.org/dc/elements/1.1/"
   xmlns:cc="http://web.resource.org/cc/"
   xmlns:rdf="http://www.w3.org/1999/02/22-rdf-syntax-ns#"
   xmlns:svg="http://www.w3.org/2000/svg"
   xmlns="http://www.w3.org/2000/svg"
   xmlns:xlink="http://www.w3.org/1999/xlink"
   xmlns:sodipodi="http://sodipodi.sourceforge.net/DTD/sodipodi-0.dtd"
   xmlns:inkscape="http://www.inkscape.org/namespaces/inkscape"
   version="1.0"
   width="69.821846"
   height="69.385056"
   viewBox="0 0 468 335"
   preserveAspectRatio="xMidYMid meet"
   id="svg2"
   sodipodi:version="0.32"
   inkscape:version="0.45"
   sodipodi:docname="Unavngiven2.svg"
   sodipodi:docbase="/home/thomas/Desktop"
   inkscape:output_extension="org.inkscape.output.svg.inkscape"
   sodipodi:modified="true">
  <defs
     id="defs11">
    <linearGradient
       id="linearGradient4224">
      <stop
         style="stop-color:#e9b96e;stop-opacity:1;"
         offset="0"
         id="stop4226" />
      <stop
         style="stop-color:#c17d11;stop-opacity:1;"
         offset="1"
         id="stop4228" />
    </linearGradient>
    <linearGradient
       inkscape:collect="always"
       xlink:href="#linearGradient4224"
       id="linearGradient4232"
       x1="98.124512"
       y1="239.0596"
       x2="93.433479"
       y2="245.75278"
       gradientUnits="userSpaceOnUse" />
    <linearGradient
       inkscape:collect="always"
       xlink:href="#linearGradient4224"
       id="linearGradient4246"
       gradientUnits="userSpaceOnUse"
       x1="98.124512"
       y1="239.0596"
       x2="93.433479"
       y2="245.75278" />
    <linearGradient
       inkscape:collect="always"
       xlink:href="#linearGradient4224"
       id="linearGradient4290"
       gradientUnits="userSpaceOnUse"
       x1="98.124512"
       y1="239.0596"
       x2="93.433479"
       y2="245.75278" />
    <linearGradient
       inkscape:collect="always"
       xlink:href="#linearGradient4224"
       id="linearGradient4316"
       gradientUnits="userSpaceOnUse"
       x1="98.124512"
       y1="239.0596"
       x2="93.433479"
       y2="245.75278" />
  </defs>
  <sodipodi:namedview
     inkscape:window-height="777"
     inkscape:window-width="934"
     inkscape:pageshadow="2"
     inkscape:pageopacity="0.0"
     guidetolerance="10.0"
     gridtolerance="10.0"
     objecttolerance="10.0"
     borderopacity="1.0"
     bordercolor="#666666"
     pagecolor="#ffffff"
     id="base"
     inkscape:zoom="1.9438806"
     inkscape:cx="59.048848"
     inkscape:cy="70.305054"
     inkscape:window-x="390"
     inkscape:window-y="65"
     inkscape:current-layer="svg2" />
  <metadata
     id="metadata4">
Created by potrace 1.7, written by Peter Selinger 2001-2005
<rdf:RDF>
  <cc:Work
     rdf:about="">
    <dc:format>image/svg+xml</dc:format>
    <dc:type
       rdf:resource="http://purl.org/dc/dcmitype/StillImage" />
  </cc:Work>
</rdf:RDF>
</metadata>
  <g
     transform="matrix(8.3784665,0,0,8.3784665,-636.50896,-1769.1323)"
     id="g4292">
    <image
       xlink:href="Unavngiven.png"
       sodipodi:absref="/home/thomas/Desktop/Unavngiven.png"
       width="48"
       height="47.5952"
       id="image4294"
       x="80"
       y="207.4048" />
    <path
       id="path4296"
       d="M 123.25,203.4375 C 114.41797,204.37703 106.69628,209.91812 98.125,211 C 94.239449,215.01658 88.716459,216.76813 86.344749,221.95248 C 83.100535,225.62949 82.199336,230.39765 81.375,234.9375 C 78.2516,238.84873 73.916773,244.05222 77.0625,249.28125 C 80.226846,259.36564 95.763983,262.76946 101.71875,253.375 C 106.43787,247.00853 114.30061,246.66778 121.25,245.1875 C 127.07337,244.19469 129.75405,236.7701 125.5,232.46875 C 123.56469,229.59084 116.65717,226.57381 121.0625,222.96875 C 125.70642,219.03564 134.28589,213.95529 131.15625,206.5625 C 129.5526,203.90988 126.13602,203.18333 123.25,203.4375 z "
       style="fill:#503101;fill-opacity:1;stroke:none;stroke-opacity:1" />
    <path
       d="M 112.22783,210.91689 C 107.91897,212.85587 103.50239,214.25625 102.42517,213.93309 C 101.02479,213.60992 99.624412,214.36398 98.224032,216.08752 C 97.146817,217.4879 95.100109,218.996 93.807451,219.42689 C 92.514793,219.85777 91.437578,220.71954 91.437578,221.36587 C 91.437578,221.90448 90.252641,223.84347 88.74454,225.67473 C 87.020996,227.72144 86.051503,230.19904 86.051503,232.46119 C 86.051503,235.0465 85.082009,237.30865 82.712136,239.89397 C 80.234542,242.80245 79.588213,244.31055 80.234542,246.14182 C 83.358465,256.15992 93.69973,258.0989 99.839855,249.80435 C 103.0715,245.49549 107.5958,243.44878 117.29074,241.94068 C 125.04669,240.75574 125.69302,237.63182 119.33745,231.81486 C 113.19732,226.21334 113.73593,223.30486 121.92276,217.05701 C 133.77213,208.11613 127.09339,203.91499 112.22783,210.91689 z "
       id="path4298"
       style="fill:url(#linearGradient4316);fill-opacity:1;stroke:none;stroke-opacity:1" />
    <path
       transform="scale(0.8,0.8)"
       id="path4300"
       d="M 154.96875,259.28125 C 154.60871,259.29197 154.23869,259.30513 153.84375,259.34375 C 154.02979,259.43142 154.67246,259.59624 155.8125,259.875 C 160.40044,260.82684 159.7199,262.05154 151.65625,267.21875 C 142.48037,272.92988 139.14735,276.5946 141.09375,278.90625 C 141.68597,279.60132 143.51465,278.83339 145.8125,277.34375 C 147.19802,275.56941 149.38022,273.62184 152.40625,271.3125 C 155.64631,268.86773 157.77863,266.73069 158.9375,264.9375 C 159.57421,263.95228 159.92824,263.06148 160,262.3125 C 159.99836,262.3021 160.0017,262.2916 160,262.28125 C 159.7122,260.53189 158.44332,259.44768 156.09375,259.3125 C 155.5934,259.29025 155.30662,259.29384 154.96875,259.28125 z "
       style="fill:#8f5902;stroke:none" />
    <path
       id="path4302"
       d="M 86.058499,233.67851 C 85.947276,234.87512 86.280944,235.52782 86.614613,235.09269 C 86.948281,234.76634 87.059504,233.78729 86.725836,233.02581 C 86.392167,232.15554 86.058499,232.48189 86.058499,233.67851 z "
       style="fill:#8f5902;stroke:none" />
    <path
       transform="scale(0.8,0.8)"
       sodipodi:nodetypes="ccccscscssccsscccccssccccccccc"
       id="path4304"
       d="M 127.65625,281 C 127.34454,281.27649 132.47095,289.68943 132.875,290.875 C 133.8482,293.18666 127.51916,304.77149 119.15625,287.40625 C 118.4611,286.99831 119.67496,290.11841 125.09375,298.34375 C 125.64986,300.38343 124.94919,301.13095 121.90625,301.875 C 118.83194,302.62672 118.22126,301.88681 115.71875,299.03125 C 114.18944,296.99155 113.01694,294.68594 111.125,295.375 C 109.03485,296.13623 108.99749,299.34122 111.5,302.46875 C 114.14154,305.86825 113.56501,307.17737 111.0625,309.625 C 109.1161,311.52873 101.875,311.2787 101.875,309.375 C 101.875,308.96707 102.85652,306.76941 103.96875,304.59375 C 106.61029,299.83448 106.03502,299.16639 102.28125,301.75 C 101.96844,301.97097 101.71368,302.17236 101.46875,302.375 C 101.46008,302.3877 101.44608,302.3936 101.4375,302.40625 C 100.5948,303.6481 100.13596,304.65345 100.03125,305.625 C 100.10038,306.33683 100.30367,307.18126 100.625,308.28125 C 102.39664,314.41265 107.6389,318.55621 114,318.71875 C 117.83253,318.48824 121.74619,316.39221 124.8125,312.25 C 128.85206,306.86393 134.50633,304.32263 146.625,302.4375 C 152.14507,301.59416 154.74848,299.96382 154.53125,297.375 C 154.52688,297.36875 154.53586,297.34944 154.53125,297.34375 C 154.28279,297.037 153.11904,297.09175 151.64186,298.45155 C 149.55643,300.21928 148.86474,300.78631 145.25,299.5625 C 140.10594,297.79477 139.4229,294.01181 143.59375,291.15625 C 145.67919,289.79647 146.08416,288.43833 145.25,285.71875 C 145.19392,285.50717 145.14764,285.34505 145.09375,285.15625 C 144.62356,284.38696 144.28958,283.63918 144.125,282.90625 C 143.56049,282.33912 142.90568,282.91649 141.75,284.53125 C 139.62173,286.75065 134.96175,295.95793 127.6875,281 C 127.66578,280.9915 127.66631,280.99108 127.65625,281 z "
       style="fill:#8f5902;stroke:none" />
    <path
       sodipodi:nodetypes="ccc"
       id="path4306"
       d="M 94.868712,224.19858 C 94.868712,224.19858 97.342283,233.80186 101.12539,234.23837 C 102.94419,234.45662 94.941464,224.34409 94.868712,224.19858 z "
       style="fill:#ffffff;fill-opacity:1;fill-rule:evenodd;stroke:none;stroke-width:1px;stroke-linecap:butt;stroke-linejoin:miter;stroke-opacity:1" />
    <path
       id="path4308"
       d="M 100.83438,218.52392 C 100.83438,218.52392 106.14528,227.61793 107.09106,227.83619 C 108.03684,228.05444 108.4006,224.34409 100.83438,218.52392 z "
       style="fill:#ffffff;fill-opacity:1;fill-rule:evenodd;stroke:none;stroke-width:1px;stroke-linecap:butt;stroke-linejoin:miter;stroke-opacity:1" />
    <path
       id="path4310"
       d="M 91.158356,232.63782 C 91.158356,232.63782 92.904406,237.51221 95.014216,238.38524 C 97.124027,239.25826 91.30386,232.71058 91.158356,232.63782 z "
       style="fill:#ffffff;fill-opacity:1;fill-rule:evenodd;stroke:none;stroke-width:1px;stroke-linecap:butt;stroke-linejoin:miter;stroke-opacity:1" />
    <path
       transform="matrix(1.1794872,0,0,1.1290323,-21.454402,-30.62796)"
       d="M 119.53166 236.23904 A 1.4186655 1.1276573 0 1 1  116.69433,236.23904 A 1.4186655 1.1276573 0 1 1  119.53166 236.23904 z"
       sodipodi:ry="1.1276573"
       sodipodi:rx="1.4186655"
       sodipodi:cy="236.23904"
       sodipodi:cx="118.113"
       id="path4312"
       style="opacity:1;fill:#ffffff;fill-opacity:1;stroke:none;stroke-width:20;stroke-linecap:round;stroke-linejoin:miter;stroke-miterlimit:4;stroke-dasharray:none;stroke-opacity:1"
       sodipodi:type="arc" />
    <path
       sodipodi:nodetypes="csc"
       id="path4314"
       d="M 108.98262,215.32283 C 108.98262,215.32283 119.13726,209.49531 121.16859,209.28441 C 127.86178,208.59327 109.12812,215.46833 108.98262,215.32283 z "
       style="fill:#ffffff;fill-opacity:1;fill-rule:evenodd;stroke:none;stroke-width:1px;stroke-linecap:butt;stroke-linejoin:miter;stroke-opacity:1" />
  </g>
</svg>
