<?xml version="1.0" encoding="UTF-8" standalone="no"?>
<!-- Created with Inkscape (http://www.inkscape.org/) -->

<svg
   xmlns:dc="http://purl.org/dc/elements/1.1/"
   xmlns:cc="http://creativecommons.org/ns#"
   xmlns:rdf="http://www.w3.org/1999/02/22-rdf-syntax-ns#"
   xmlns:svg="http://www.w3.org/2000/svg"
   xmlns="http://www.w3.org/2000/svg"
   xmlns:sodipodi="http://sodipodi.sourceforge.net/DTD/sodipodi-0.dtd"
   xmlns:inkscape="http://www.inkscape.org/namespaces/inkscape"
   width="1335.8851"
   height="1493.4863"
   id="svg2"
   version="1.1"
   inkscape:version="0.47pre0 r21549"
   sodipodi:docname="Rysunek.svg"
   inkscape:output_extension="org.inkscape.output.svg.inkscape">
  <defs
     id="defs4">
    <inkscape:perspective
       sodipodi:type="inkscape:persp3d"
       inkscape:vp_x="0 : 526.18109 : 1"
       inkscape:vp_y="0 : 1000 : 0"
       inkscape:vp_z="744.09448 : 526.18109 : 1"
       inkscape:persp3d-origin="372.04724 : 350.78739 : 1"
       id="perspective10" />
  </defs>
  <sodipodi:namedview
     id="base"
     pagecolor="#ffffff"
     bordercolor="#666666"
     borderopacity="1.0"
     inkscape:pageopacity="0.0"
     inkscape:pageshadow="2"
     inkscape:zoom="0.175"
     inkscape:cx="9.5466367"
     inkscape:cy="1218.1977"
     inkscape:document-units="px"
     inkscape:current-layer="layer1"
     showgrid="false"
     inkscape:window-width="1680"
     inkscape:window-height="912"
     inkscape:window-x="0"
     inkscape:window-y="37"
     inkscape:window-maximized="1" />
  <metadata
     id="metadata7">
    <rdf:RDF>
      <cc:Work
         rdf:about="">
        <dc:format>image/svg+xml</dc:format>
        <dc:type
           rdf:resource="http://purl.org/dc/dcmitype/StillImage" />
        <dc:title></dc:title>
      </cc:Work>
    </rdf:RDF>
  </metadata>
  <g
     inkscape:label="Layer 1"
     inkscape:groupmode="layer"
     id="layer1"
     transform="translate(1438.875,-682.12886)">
    <path
       style="font-size:204.77917479999999273px;font-style:normal;font-variant:normal;font-weight:bold;font-stretch:normal;fill:#babdb6;fill-opacity:1;stroke:none;font-family:Impact;-inkscape-font-specification:Impact Bold"
       d="m -1309.9311,786.85438 c 0,0 23.2103,341.66712 23.2103,341.66712 0,0 72.8507,-7.1284 72.8507,-7.1284 0,0 -13.9487,-160.32379 -13.9487,-160.32379 254.78416,-52.59988 110.8164,-271.79982 -82.1123,-174.21493 z m 62.32,34.6542 c 123.2842,-7.96315 117.1992,80.55887 12.9267,92.0338 l -12.9267,-92.0338 z"
       id="path3076"
       sodipodi:nodetypes="cccccccc" />
    <path
       style="font-size:204.77917479999999273px;font-style:normal;font-variant:normal;font-weight:bold;font-stretch:normal;fill:#babdb6;fill-opacity:1;stroke:none;font-family:Impact;-inkscape-font-specification:Impact Bold"
       d="m -1023.0559,955.80487 c 16.7147,158.20933 -53.2388,251.32423 -95.9246,275.85853 0,0 -37.0735,-39.6884 -37.0735,-39.6884 4.4287,-8.9471 63.0809,-44.1534 51.3948,-55.0519 -30.8843,-28.8031 -77.4985,-63.2889 -61.0693,-157.21098 0,0 56.0369,-5.67086 56.0369,-5.67086 -13.169,55.57634 -10.1722,100.34454 31.7565,118.18764 15.2659,-33.5661 2.1484,-123.0139 2.1484,-123.0139 0,0 52.7308,-13.41013 52.7308,-13.41013 z"
       id="path3072"
       sodipodi:nodetypes="cscsccccc" />
    <path
       style="font-size:204.77917479999999273px;font-style:normal;font-variant:normal;font-weight:bold;font-stretch:normal;fill:#babdb6;fill-opacity:1;stroke:none;font-family:Impact;-inkscape-font-specification:Impact Bold"
       d="m -810.14214,958.33268 c 0,0 -48.96975,-6.12963 -48.96975,-6.12963 -40.06882,-222.34926 -89.74433,-73.13154 -78.29875,22.12565 7.52316,62.6131 52.17535,108.1695 83.01072,38.4299 0,0 57.00458,15.4699 57.00458,15.4699 4.11012,31.0088 -44.62091,66.8902 -69.58874,63.9559 -308.62092,-36.2707 9.27928,-593.11106 56.84194,-133.85172 z"
       id="path3070"
       sodipodi:nodetypes="ccsccsc" />
    <path
       style="font-size:204.77917479999999273px;font-style:normal;font-variant:normal;font-weight:bold;font-stretch:normal;fill:#babdb6;fill-opacity:1;stroke:none;font-family:Impact;-inkscape-font-specification:Impact Bold"
       d="m -738.26974,946.66472 c 27.26212,-20.78078 54.38572,2.0997 60.80009,28.35975 12.19322,49.91813 -15.69443,137.27333 -15.69443,137.27333 0,0 -35.98318,-6.5191 -35.98318,-6.5191 0,0 31.90775,-139.62476 -16.33405,-114.90719 0,0 -15.59798,109.63919 -15.59798,109.63919 -16.85035,-3.0528 -20.1495,-4.6852 -36.99971,-7.738 0,0 24.88893,-299.56833 24.88893,-299.56833 0,0 53.14281,-9.20789 53.14281,-9.20789 0,0 -18.22248,162.66824 -18.22248,162.66824 z"
       id="path3068"
       sodipodi:nodetypes="csccccccsc" />
    <path
       style="font-size:204.77917479999999273px;font-style:normal;font-variant:normal;font-weight:bold;font-stretch:normal;fill:#babdb6;fill-opacity:1;stroke:none;font-family:Impact;-inkscape-font-specification:Impact Bold"
       d="m -638.97672,898.60413 c -32.04507,37.34873 -25.96795,89.66394 -16.61581,134.03377 20.04057,95.0793 119.439,61.777 131.92709,-3.9689 0,0 -41.0105,-17.0869 -41.0105,-17.0869 -0.76853,39.6777 -46.90179,43.0462 -53.88973,4.6823 l 90.66374,-28.88657 c 11.43339,-66.26591 -48.77272,-140.9556 -111.07479,-88.7737 z m 74.92154,60.24822 -64.33417,26.22113 c -20.69347,-50.66789 53.80094,-83.15245 64.33417,-26.22113 z"
       id="path3066"
       sodipodi:nodetypes="cszccccccc" />
    <path
       style="font-size:204.77917479999999273px;font-style:normal;font-variant:normal;font-weight:bold;font-stretch:normal;fill:#babdb6;fill-opacity:1;stroke:none;font-family:Impact;-inkscape-font-specification:Impact Bold"
       d="m -383.34771,1010.1034 c 0,0 -34.63241,7.298 -34.63241,7.298 -8.54769,-51.24271 -70.17702,-23.53779 -36.01265,-4.79 38.13651,20.9274 65.7192,22.2185 52.33722,84.3858 -13.58444,52.1219 -112.1887,42.3945 -129.88256,-5.8802 0,0 40.56981,-32.3087 40.56981,-32.3087 0,0 25.58795,46.1902 39.00134,26.6922 28.86701,-41.9618 -61.57685,-27.5987 -71.25956,-85.87052 -9.68272,-58.27189 129.25578,-89.94831 139.87881,10.47342 z"
       id="text3050"
       sodipodi:nodetypes="ccscccszc" />
    <path
       sodipodi:nodetypes="ccscccszc"
       id="path3105"
       d="m -233.82802,918.31029 c 0,0 -39.73043,16.85093 -39.73043,16.85093 -21.97646,-62.93675 -89.30102,-14.33333 -44.1541,1.86421 50.39582,18.08071 83.66867,13.64535 81.93351,95.22537 -4.28201,68.9182 -124.40063,78.3082 -156.63083,21.1379 0,0 41.09049,-49.7932 41.09049,-49.7932 0,0 41.18974,52.7966 52.75253,25.1822 24.88433,-59.42885 -79.95075,-21.362 -104.89691,-92.9402 -24.94618,-71.57821 133.89446,-142.2142 169.63574,-17.52721 z"
       style="font-size:204.77917479999999273px;font-style:normal;font-variant:normal;font-weight:bold;font-stretch:normal;fill:#babdb6;fill-opacity:1;stroke:none;font-family:Impact;-inkscape-font-specification:Impact Bold" />
    <path
       style="font-size:204.7791748px;font-style:normal;font-variant:normal;font-weight:bold;font-stretch:normal;fill:#a40000;fill-opacity:1;stroke:none;font-family:Impact;-inkscape-font-specification:Impact Bold"
       d="m -1216.6087,1510.17 c -53.797,0.6892 -105.4232,20.6704 -150.7084,48.5707 10.1176,144.2061 19.9236,288.434 30.0489,432.6395 43.3041,-3.8814 86.5362,-8.5503 129.8668,-12.1337 -6.7649,21.4685 1.2373,45.9331 17.9716,60.5536 15.738,17.3322 32.4975,33.9296 48.7283,50.6486 12.8059,9.0462 30.4533,5.259 41.9805,-4.0025 60.8836,-35.5226 99.7649,-99.8855 117.9203,-166.7456 1.11421,-2.7895 1.45895,-5.8029 2.01351,-8.7599 41.37632,30.7999 96.20922,45.6789 146.99669,33.4034 2.89352,-3.5261 6.67829,3.0659 10.34938,2.5695 29.11437,7.2191 59.21449,10.2508 88.43361,17.0586 21.84441,4.19 44.1105,8.4376 66.41443,6.2098 12.77162,-5.2352 20.4858,-18.0859 24.19612,-30.7985 24.49818,11.6258 53.47154,12.8072 79.369,5.8884 43.41948,49.8972 127.32535,60.5071 180.43597,19.6639 8.15281,-6.3524 15.35551,-13.941 21.01993,-22.4474 56.80764,17.2771 125.30538,-0.081 161.16473,-48.6065 26.20197,-38.2276 24.39674,-89.8202 8.81482,-131.3299 8.54519,-1.4137 18.72927,-7.8202 16.80881,-17.8438 -0.71936,-61.4249 -41.05066,-122.2832 -100.55132,-140.8057 -70.7338,-22.1398 -155.54614,18.0162 -180.77321,87.8812 -0.27528,3.2358 -5.50042,0.3655 -7.77987,1.4989 -8.96441,0.5945 -17.7387,2.7535 -26.62287,4.0326 -22.13666,-41.6647 -68.75272,-72.688 -117.33372,-67.5036 -23.92858,2.7144 -46.71577,13.2089 -64.74389,29.0682 5.06113,-46.2584 10.07092,-92.5224 15.06012,-138.7885 -55.32138,9.984 -110.69522,19.6894 -166.16098,28.8354 -1.15234,2.4338 -1.14285,5.1388 -1.28474,7.7798 -26.40592,-26.2371 -67.66047,-39.0729 -103.6008,-26.0517 -43.12888,13.9271 -74.09622,51.0578 -94.24372,90.2762 -5.0816,9.8679 -9.5241,20.0115 -13.3897,30.4187 -1.2056,-37.4149 -20.3982,-72.4356 -48.54,-96.3208 -35.929,-31.2869 -84.5124,-45.7108 -131.8603,-44.8589 z m 169.3015,198.5296 0.036,-0.071 -0.036,0.071 z m -2.8194,2.6052 c 2.362,0.029 2.0511,-0.1074 0,0 z m -0.1783,0.1426 c 0.057,-0.057 0.2283,-0.2282 0,0 z"
       id="path3294" />
    <path
       style="font-size:204.7791748px;font-style:normal;font-variant:normal;font-weight:bold;font-stretch:normal;fill:#ffffff;fill-opacity:1;stroke:none;font-family:Impact;-inkscape-font-specification:Impact Bold"
       d="m -1212.7188,1565.0217 c -29.4758,-0.1171 -62.5459,7.1967 -97.2127,24.7315 l 23.1968,341.6719 72.8739,-7.1374 -13.9539,-160.3083 c 209.0026,-43.1483 149.6595,-198.4225 15.0959,-198.9577 z m 315.22756,15.524 c -91.64876,-0.1609 -188.89726,288.7635 30.51287,314.5497 24.96783,2.9342 73.70074,-32.9432 69.59061,-63.9519 l -57.02861,-15.4885 c -30.83537,69.7396 -75.48596,24.1777 -83.00912,-38.4354 -11.44557,-95.2572 38.22959,-244.4754 78.29837,-22.1263 l 48.99893,6.1382 c -13.74858,-132.7545 -50.09919,-180.6202 -87.36305,-180.6858 z m 177.43829,6.3525 -53.13868,9.2073 -24.87419,299.5609 c 16.85021,3.0528 20.12191,4.6912 36.97225,7.7442 l 15.59543,-109.6321 c 48.24181,-24.7175 16.34488,114.9138 16.34488,114.9138 l 35.973,6.4951 c 0,0 27.89572,-87.3358 15.7025,-137.254 -6.41438,-26.2601 -33.51369,-49.1524 -60.77581,-28.3716 l 18.20062,-162.6636 z m -511.08065,37.0079 c 106.0108,0.6682 95.8516,81.6006 -3.5331,92.5377 l -12.9545,-92.0381 c 5.779,-0.3733 11.274,-0.5325 16.4876,-0.4996 z m 913.38579,29.0138 c -50.53483,1.1476 -100.53316,43.329 -85.72136,85.8286 24.94616,71.5782 129.76987,33.5013 104.88555,92.9302 -11.5628,27.6143 -52.74612,-25.1954 -52.74612,-25.1954 l -41.07631,49.8198 c 32.2302,57.1702 152.35041,47.7555 156.63241,-21.1626 1.73516,-81.5802 -31.54266,-77.1337 -81.93849,-95.2143 -45.1469,-16.1975 22.16897,-64.7926 44.14544,-1.8558 l 39.75587,-16.8444 c -14.5199,-50.6541 -49.36052,-69.0911 -83.93699,-68.3061 z m -278.64797,31.0483 c -13.47643,0.034 -27.97313,5.2924 -42.57518,17.5225 -32.04507,37.3488 -25.98252,89.6725 -16.63037,134.0423 20.04056,95.0793 119.44858,61.7845 131.93667,-3.9613 l -41.00493,-17.0944 c -0.76854,39.6778 -46.90018,43.0389 -53.88812,4.6751 l 90.64624,-28.8712 c 8.75369,-50.7348 -24.4613,-106.4224 -68.48431,-106.313 z m 1.89144,47.7141 c 13.54642,-0.043 26.49148,8.7353 30.44144,30.0847 l -64.30888,26.1944 c -12.93341,-31.6673 11.29008,-56.2082 33.86744,-56.2791 z m 140.14479,16.3092 c -37.22386,0.1268 -74.02081,23.5736 -68.87686,54.5305 9.68271,58.272 100.13494,43.9023 71.26793,85.8642 -13.4134,19.4979 -39.00644,-26.6586 -39.00644,-26.6586 l -40.57667,32.2971 c 17.69386,48.275 116.31805,58.0104 129.90248,5.8885 13.38197,-62.1673 -14.21705,-63.4736 -52.35356,-84.401 -34.16437,-18.7477 27.461,-46.4606 36.00869,4.7822 l 34.65256,-7.2802 c -4.97955,-47.0727 -38.17354,-65.1345 -71.01813,-65.0227 z m -568.68015,10.7063 -52.7463,13.4184 c 0,0 13.1248,89.4487 -2.1412,123.0148 -41.9288,-17.8431 -44.9309,-62.6205 -31.7618,-118.1969 l -56.0294,5.6743 c -16.4293,93.9221 30.177,128.4003 61.0613,157.2034 11.686,10.8985 -46.9612,46.1188 -51.3899,55.0659 l 37.0792,39.6844 c 42.6858,-24.5343 112.6426,-117.6551 95.9281,-275.8643 z"
       id="path3279" />
  </g>
</svg>
