<?xml version="1.0" encoding="UTF-8" standalone="no"?>
<!-- Created with Inkscape (http://www.inkscape.org/) -->

<svg
   xmlns:dc="http://purl.org/dc/elements/1.1/"
   xmlns:cc="http://creativecommons.org/ns#"
   xmlns:rdf="http://www.w3.org/1999/02/22-rdf-syntax-ns#"
   xmlns:svg="http://www.w3.org/2000/svg"
   xmlns="http://www.w3.org/2000/svg"
   xmlns:sodipodi="http://sodipodi.sourceforge.net/DTD/sodipodi-0.dtd"
   xmlns:inkscape="http://www.inkscape.org/namespaces/inkscape"
   width="378.36209"
   height="95.361328"
   id="svg1489"
   sodipodi:version="0.32"
   inkscape:version="0.46+devel"
   version="1.0"
   sodipodi:docname="Nyt dokument 3"
   inkscape:output_extension="org.inkscape.output.svg.inkscape">
  <defs
     id="defs1491">
    <inkscape:perspective
       sodipodi:type="inkscape:persp3d"
       inkscape:vp_x="0 : 526.18109 : 1"
       inkscape:vp_y="0 : 1000 : 0"
       inkscape:vp_z="744.09448 : 526.18109 : 1"
       inkscape:persp3d-origin="372.04724 : 350.78739 : 1"
       id="perspective1497" />
    <inkscape:perspective
       id="perspective1472"
       inkscape:persp3d-origin="0.5 : 0.33333333 : 1"
       inkscape:vp_z="1 : 0.5 : 1"
       inkscape:vp_y="0 : 1000 : 0"
       inkscape:vp_x="0 : 0.5 : 1"
       sodipodi:type="inkscape:persp3d" />
  </defs>
  <sodipodi:namedview
     id="base"
     pagecolor="#ffffff"
     bordercolor="#666666"
     borderopacity="1.0"
     inkscape:pageopacity="0.0"
     inkscape:pageshadow="2"
     inkscape:zoom="0.98994949"
     inkscape:cx="152.73261"
     inkscape:cy="37.655432"
     inkscape:document-units="px"
     inkscape:current-layer="layer1"
     showgrid="false"
     inkscape:window-width="626"
     inkscape:window-height="498"
     inkscape:window-x="3"
     inkscape:window-y="53" />
  <metadata
     id="metadata1494">
    <rdf:RDF>
      <cc:Work
         rdf:about="">
        <dc:format>image/svg+xml</dc:format>
        <dc:type
           rdf:resource="http://purl.org/dc/dcmitype/StillImage" />
        <dc:title></dc:title>
      </cc:Work>
    </rdf:RDF>
  </metadata>
  <g
     inkscape:label="Layer 1"
     inkscape:groupmode="layer"
     id="layer1"
     transform="translate(-896.53322,-141.82437)">
    <path
       style="font-size:95.54257965px;font-style:normal;font-weight:bold;line-height:125%;fill:#787a75;fill-opacity:1;stroke:none;font-family:Candara;-inkscape-font-specification:Candara Bold"
       d="m 982.30518,147.41044 c -2.63187,7e-5 -5.72366,0.0538 -9.3125,0.15625 -3.58889,0.10261 -6.01662,0.15631 -7.28125,0.15625 l -8.9375,0 c 0.44433,8.92095 0.65625,19.53911 0.65625,31.84375 0,13.39846 -0.21192,25.02833 -0.65625,34.90625 l 14.40625,0 c -0.376,-10.52734 -0.56252,-19.0117 -0.5625,-25.4375 0.16233,0.18508 -0.24227,-9.50687 -0.0625,-9.28125 -2e-5,-8.1689 -0.18655,-15.47749 -0.5625,-21.9375 2.70017,-0.51264 5.26071,-0.74994 7.6875,-0.75 9.70699,6e-5 14.56245,3.65435 14.5625,10.96875 -5e-5,7.89555 -6.21195,11.84379 -18.6875,11.84375 0.14104,2.85483 -0.53733,7.3848 0.50005,9.28125 8.81833,2e-5 16.26265,-1.94724 22.3125,-5.84375 6.08397,-3.89645 9.12497,-9.95602 9.12497,-18.125 0,-5.98139 -2.2412,-10.43549 -6.71872,-13.375 -4.47759,-2.93939 -9.97465,-4.40618 -16.46875,-4.40625 l -5e-5,0 z"
       id="path74"
       sodipodi:nodetypes="csccscccccsscccsscc" />
    <path
       id="path53"
       style="font-size:95.54257965px;font-style:normal;font-weight:bold;line-height:125%;fill:#787a75;fill-opacity:1;stroke:none;font-family:Candara;-inkscape-font-specification:Candara Bold"
       d="m 1051.265,165.76724 c -1e-4,2.22173 -2.4439,9.26274 -7.3316,21.12305 -5.5713,13.63771 -9.0063,22.93457 -10.3051,27.89062 -2.2218,8.54492 -5.2125,14.44091 -8.9722,17.68799 -3.6231,3.14451 -9.0576,4.71678 -16.3037,4.7168 l -1.0254,-9.89502 c 4.2383,-1e-5 7.7246,-1.21339 10.459,-3.64014 2.7343,-2.39258 4.1015,-5.60547 4.1015,-9.63867 0,-4.06738 -3.0762,-12.95409 -9.2285,-26.66015 -6.1523,-13.7402 -9.2285,-20.93501 -9.2285,-21.58448 l 15.8423,0 c 0,1.19634 1.5551,6.98979 4.6655,17.38037 3.1103,10.39065 4.6655,16.74807 4.6655,19.07227 l 0.7178,0 c 0,-1.98241 1.4014,-7.82713 4.2041,-17.53418 2.8369,-9.74117 4.2554,-16.04732 4.2554,-18.91846 l 13.4839,0" />
    <path
       id="path55"
       style="font-size:105px;font-style:normal;font-variant:normal;font-weight:normal;font-stretch:normal;text-align:start;line-height:125%;writing-mode:lr-tb;text-anchor:start;fill:#5d5f5b;fill-opacity:1;stroke:none;font-family:Candara;-inkscape-font-specification:Candara"
       d="m 1101.9691,206.32144 -0.6665,7.63916 c -4.2042,1.26465 -8.7843,1.89697 -13.7403,1.89697 -11.7578,0 -20.5932,-3.21288 -26.5063,-9.63867 -5.9131,-6.45994 -8.8696,-14.33835 -8.8696,-23.63525 0,-9.74117 3.2983,-18.13228 9.895,-25.17334 6.5966,-7.07513 15.4663,-10.61273 26.6089,-10.61279 3.0761,6e-5 6.3232,0.46149 9.7412,1.38427 l -1.4356,8.15186 c -3.9307,-1.23041 -7.4341,-1.84564 -10.5102,-1.8457 -8.2715,6e-5 -14.5435,2.56353 -18.8159,7.69043 -4.2725,5.127 -6.4087,11.39896 -6.4087,18.81591 0,7.55374 2.4609,14.03078 7.3828,19.43116 4.9218,5.4004 11.7236,8.10059 20.4053,8.10058 3.3153,1e-5 7.622,-0.73485 12.9199,-2.20459" />
    <path
       id="path57"
       style="font-size:105px;font-style:normal;font-variant:normal;font-weight:normal;font-stretch:normal;text-align:start;line-height:125%;writing-mode:lr-tb;text-anchor:start;fill:#5d5f5b;fill-opacity:1;stroke:none;font-family:Candara;-inkscape-font-specification:Candara"
       d="m 1148.9305,214.4733 -9.3311,0 c 0.752,-8.98925 1.1279,-18.66209 1.128,-29.01856 -10e-5,-5.53707 -1.0425,-9.26265 -3.1275,-11.17675 -2.0508,-1.9482 -4.9048,-2.92233 -8.562,-2.92237 -5.127,4e-5 -9.9292,1.7603 -14.4067,5.28076 0,18.66213 0.1367,31.27442 0.4101,37.83692 l -9.0234,0 c 0.3076,-9.02343 0.4614,-21.77244 0.4614,-38.24707 0,-14.42378 -0.4956,-25.72015 -1.4868,-33.88916 l 9.7412,-0.5127 c -0.2734,10.42487 -0.4101,20.09771 -0.4101,29.01856 l 0.3076,0 c 5.1269,-4.51167 10.7495,-6.76753 16.8677,-6.76758 5.4687,5e-5 9.7411,1.28179 12.8173,3.84521 3.0762,2.52934 4.6143,6.98979 4.6143,13.38135 0,0.64945 -0.034,1.93118 -0.1025,3.84522 -0.068,1.87991 -0.1026,3.53762 -0.1026,4.97314 0,4.92189 0.068,13.03956 0.2051,24.35303" />
    <path
       id="path59"
       style="font-size:105px;font-style:normal;font-variant:normal;font-weight:normal;font-stretch:normal;text-align:start;line-height:125%;writing-mode:lr-tb;text-anchor:start;fill:#5d5f5b;fill-opacity:1;stroke:none;font-family:Candara;-inkscape-font-specification:Candara"
       d="m 1198.3529,184.37808 c -1e-4,1.43558 -0.068,3.418 -0.2051,5.94727 l -35.2222,0.61523 c 0.3418,4.99026 2.273,9.17726 5.7935,12.56104 3.5205,3.34961 8.186,5.02442 13.9966,5.02441 5.1952,1e-5 10.0658,-0.63232 14.6118,-1.89697 l -0.8716,7.229 c -3.3497,1.33301 -8.1861,1.99951 -14.5093,1.99951 -8.8867,0 -15.6714,-2.42675 -20.354,-7.28027 -4.6484,-4.8535 -6.9726,-10.76658 -6.9726,-17.73926 0,-7.45114 2.1191,-13.85982 6.3574,-19.22607 4.2724,-5.40034 9.9975,-8.10054 17.1753,-8.10059 6.5966,5e-5 11.6039,1.94829 15.0219,5.84473 3.4521,3.89653 5.1782,8.90384 5.1783,15.02197 m -8.562,0.10254 c -10e-5,-9.60445 -4.0162,-14.40669 -12.0484,-14.40674 -8.2031,5e-5 -13.0396,4.99028 -14.5093,14.97071 l 26.5577,-0.56397" />
    <path
       id="path61"
       style="font-size:105px;font-style:normal;font-variant:normal;font-weight:normal;font-stretch:normal;text-align:start;line-height:125%;writing-mode:lr-tb;text-anchor:start;fill:#5d5f5b;fill-opacity:1;stroke:none;font-family:Candara;-inkscape-font-specification:Candara"
       d="m 1236.8035,200.57925 c 0,9.98048 -6.3745,14.97071 -19.1235,14.97071 -5.6396,0 -10.9033,-0.56397 -15.791,-1.6919 l 1.5894,-7.53662 c 4.4433,1.70899 9.2626,2.56348 14.458,2.56348 7.4511,0 11.1767,-2.11913 11.1767,-6.35742 0,-2.05077 -0.8374,-3.6743 -2.5122,-4.87061 -1.6406,-1.23045 -4.375,-2.59764 -8.2031,-4.10156 -4.8535,-1.91404 -8.374,-3.75974 -10.5615,-5.53711 -3.2129,-2.63181 -4.8194,-5.81052 -4.8194,-9.53613 0,-3.89645 1.4697,-7.22896 4.4092,-9.99756 2.9394,-2.80269 7.417,-4.20405 13.4326,-4.2041 5.8789,5e-5 10.5957,0.49565 14.1504,1.48681 l -1.5893,7.38282 c -3.6915,-1.46969 -7.9639,-2.20455 -12.8174,-2.20459 -6.5625,4e-5 -9.8438,1.89701 -9.8438,5.69091 0,1.9141 0.7349,3.46928 2.2046,4.66553 1.4697,1.16214 4.3408,2.5806 8.6133,4.25537 4.6142,1.81155 8.0322,3.58889 10.2539,5.33203 3.3154,2.70022 4.9731,5.9302 4.9731,9.68994" />
    <path
       id="path63"
       style="font-size:105px;font-style:normal;font-variant:normal;font-weight:normal;font-stretch:normal;text-align:start;line-height:125%;writing-mode:lr-tb;text-anchor:start;fill:#5d5f5b;fill-opacity:1;stroke:none;font-family:Candara;-inkscape-font-specification:Candara"
       d="m 1274.8953,200.57925 c 0,9.98048 -6.3745,14.97071 -19.1235,14.97071 -5.6397,0 -10.9033,-0.56397 -15.791,-1.6919 l 1.5894,-7.53662 c 4.4433,1.70899 9.2626,2.56348 14.458,2.56348 7.4511,0 11.1767,-2.11913 11.1767,-6.35742 0,-2.05077 -0.8374,-3.6743 -2.5122,-4.87061 -1.6406,-1.23045 -4.375,-2.59764 -8.2031,-4.10156 -4.8535,-1.91404 -8.3741,-3.75974 -10.5615,-5.53711 -3.2129,-2.63181 -4.8194,-5.81052 -4.8194,-9.53613 0,-3.89645 1.4697,-7.22896 4.4092,-9.99756 2.9394,-2.80269 7.417,-4.20405 13.4326,-4.2041 5.8789,5e-5 10.5957,0.49565 14.1504,1.48681 l -1.5893,7.38282 c -3.6915,-1.46969 -7.9639,-2.20455 -12.8174,-2.20459 -6.5625,4e-5 -9.8438,1.89701 -9.8438,5.69091 0,1.9141 0.7349,3.46928 2.2046,4.66553 1.4697,1.16214 4.3408,2.5806 8.6133,4.25537 4.6142,1.81155 8.0322,3.58889 10.2539,5.33203 3.3154,2.70022 4.9731,5.9302 4.9731,9.68994" />
    <path
       style="fill:#5d5f5b;fill-opacity:1;fill-rule:evenodd;stroke:none"
       id="path2387"
       d="m 1177.8242,143.11104 10.1052,7.40286 10.1053,-7.40286 -2.5263,14.26779 -35.3685,0 -2.5263,-14.26779 10.1053,7.40286 10.1053,-7.40286 z"
       sodipodi:nodetypes="cccccccc" />
    <path
       id="path1346"
       d="m 971.03718,196.43223 0,16.78571"
       style="stroke-width:1px" />
    <g
       id="g1460"
       transform="matrix(0.92309575,0,0,0.92309575,836.2061,-648.33375)">
      <path
         sodipodi:nodetypes="ccccccccccccccccccccccccccccccccccccccccccccccccccccccccccc"
         id="path5567"
         d="m 87.807129,863.12811 c -0.758774,0.20335 -1.326399,0.89149 -2.125894,1.00682 -1.556928,0.58363 -3.24142,0.90117 -4.667108,1.78821 -0.270943,0.36401 -0.742219,0.47678 -1.173765,0.48662 -1.216701,0.20214 -2.516862,0.40788 -3.490362,1.22983 -0.510358,0.49873 -0.723445,1.20172 -0.949203,1.85696 -0.973924,-0.28005 -2.091713,-0.44177 -3.024499,0.0556 -0.820587,0.54076 -1.16989,1.53993 -1.328272,2.4665 -0.328649,1.95157 0.182714,3.9384 0.992617,5.70738 0.151903,0.32838 0.306901,0.65131 0.472124,0.97241 -1.059659,1.13984 -2.108759,2.29001 -3.212529,3.38639 0.596694,2.37899 1.52339,4.71814 1.533485,7.20342 0.06636,1.27209 0.130085,2.61953 0.833962,3.71896 0.284941,0.25274 0.585998,0.56287 0.599599,0.96835 0.444416,1.66297 0.626343,3.40583 1.305874,4.99473 -0.687617,2.06382 -1.113415,4.20329 -1.588067,6.32194 -1.228451,1.02823 -2.487452,2.0246 -3.735135,3.03462 0.09917,2.7633 0.213223,5.52607 0.343692,8.28808 4.285653,-1.73263 1.475444,-0.5262 2.217834,-0.77225 0.432093,1.08351 1.582415,1.77013 2.72023,1.8397 0.326995,0.0574 1.264285,0.026 1.593166,0.0711 -0.711169,0.67752 -1.92338,1.53631 -2.346253,2.42476 -1.842285,0.0437 -3.754094,0.59633 -5.104866,1.89336 -1.296367,1.29136 -1.592776,3.4305 -0.778362,5.04924 -0.810573,1.46961 -0.315389,3.52058 1.110435,4.41648 1.328682,0.96814 3.006278,1.20025 4.602827,1.33325 3.86913,0.35131 7.751096,0.553 11.634121,0.66502 8.641657,0.21564 17.30453,-0.106 25.8913,-1.11768 1.34545,-0.32821 2.60959,-1.30893 2.99922,-2.67888 0.23911,-0.89228 0.11768,-1.85434 -0.24665,-2.69604 0.93713,-1.89411 0.25019,-4.43671 -1.5305,-5.58406 -1.22922,-0.79706 -2.99293,-1.19546 -4.45231,-1.2716 -0.34318,-0.90554 -0.6831,-1.63651 -1.60092,-2.36571 0.81841,-0.18488 2.00571,-0.47707 2.80942,-0.71034 0.85631,-3.71041 0.18761,-7.08945 -0.76993,-10.75003 -0.96823,-2.25309 -1.75207,-3.52958 -2.81241,-5.04128 -2.07294,-2.41679 -8.294746,-7.57393 -8.356819,-7.88511 2.805691,-0.56997 9.322899,8.26718 12.081699,7.72295 1.03853,-0.10706 2.08867,-0.14721 3.11878,-0.31619 0.80939,-0.14955 1.58725,-0.59584 2.00846,-1.3194 0.47799,-0.77134 0.5694,-1.68914 0.83778,-2.54126 0.36372,-1.37626 0.57433,-2.8839 0.0789,-4.25375 -0.0812,-0.22643 -3.11442,-1.7664 -0.28709,-0.6611 1.30791,0.16691 2.67786,-0.11951 3.75232,-0.89159 2.05202,0.5189 4.41057,-0.20706 5.68308,-1.9267 0.73719,-1.04701 0.70436,-2.47056 0.21431,-3.60879 0.32569,-0.4921 -0.37749,-0.0859 0.26585,-0.95526 0.36042,-1.25442 0.27538,-2.75754 -0.63886,-3.76244 -0.88459,-1.00167 -2.28219,-1.42485 -3.5926,-1.32524 -0.33767,0.006 -0.67642,0.0105 -1.0129,-0.0232 -0.83927,-1.22856 -1.50118,-2.66797 -2.79322,-3.49035 -0.9602,-0.57853 -2.15039,-0.49092 -3.20404,-0.25259 -1.95614,0.38767 -3.806,1.19261 -5.73987,1.66562 -10.93181,-1.79863 -2.92093,-0.52974 -4.37199,-0.84205 0.60749,-2.15142 -0.3648,-4.60375 -2.2159,-5.83255 -0.531976,-0.42287 -1.584145,-0.69512 -2.189054,-0.99613 2.100774,-1.30325 4.576854,-2.8165 6.649074,-4.16547 -4.27926,-1.18732 -8.712402,-1.64588 -13.11981,-2.07964 -1.297946,-0.13734 -2.594156,-0.32921 -3.891001,-0.45156 z"
         style="color:#000000;fill:#d3d7cf;fill-opacity:1;fill-rule:nonzero;stroke:#787a75;stroke-width:2.17781138;stroke-linecap:butt;stroke-linejoin:miter;stroke-miterlimit:4;stroke-opacity:1;stroke-dasharray:none;stroke-dashoffset:0;marker:none;visibility:visible;display:inline;overflow:visible;enable-background:accumulate" />
      <path
         sodipodi:nodetypes="cccssccccccccccccscscccccccccssssccccccccccccccccccccccsccccccccccc"
         id="path2761-8"
         d="m 88.195957,865.25433 -0.02638,0.0231 c -0.592839,0.64572 -1.54103,0.66767 -2.282614,1.05723 0,0 -3.413499,1.11675 -3.413499,1.11675 0,0 -0.812125,0.80942 -0.812125,0.80942 0,0 -1.865141,0.29388 -2.954108,0.55757 -0.287052,0.10704 -0.631298,0.1161 -0.874813,0.30332 -0.438135,1.05283 -0.759594,2.10572 -1.197831,3.15851 -0.75202,-0.52476 -2.490876,-0.94634 -3.120308,-0.94372 -1.255537,2.25148 0.447272,5.82268 1.645383,7.66518 -1.224725,1.30512 -2.235701,2.43839 -3.489296,3.71792 0.469486,1.77478 1.170881,3.5184 1.194584,5.37628 0.125397,1.15841 0.133004,2.3348 0.393436,3.47283 0.127488,0.20836 0.352208,0.34553 0.59126,0.38794 0.539884,1.39632 1.107872,4.05689 1.370148,5.53276 0,0 0.633561,1.29594 0.633561,1.29594 0,0 -1.032402,3.47944 -1.032402,3.47944 0,0 -0.836546,4.18529 -0.836546,4.18529 0,0 -3.566372,2.87719 -3.566372,2.87719 0,0 0.177007,4.33157 0.177007,4.33157 0,0 2.228148,-0.7839 2.228148,-0.7839 -0.200764,0.98198 -0.27039,1.94049 0.161546,2.48591 1.386962,0.47167 5.075101,0.65908 7.07095,0.91217 l -1.098993,1.1913 c -2.187803,0.96247 -4.497032,2.82446 -4.589417,4.84986 l -1.353964,0 c -2.438392,0 -4.401461,1.12453 -4.401461,2.52223 l 0,0.59237 c 0,0.64766 0.422647,1.23675 1.117672,1.68251 -0.630403,0.23703 -1.118793,1.31097 -1.118766,1.64417 0,0.75906 0.94135,1.66043 3.366223,1.90669 11.226975,1.15151 23.837331,1.02275 36.3141,-0.10991 2.42801,-0.22233 2.83873,-1.03772 2.83873,-1.79678 0,-0.35719 -0.32545,-1.4502 -1.03966,-1.69359 0.64953,-0.4394 1.04075,-1.00942 1.04075,-1.63309 l 0,-0.59237 c 0,-1.3977 -1.96309,-2.52223 -4.40148,-2.52223 l -1.22648,0 c -0.0909,-1.99205 -1.52861,-3.7196 -3.65746,-4.69157 l -1.48365,-1.34187 c 2.33517,0.0253 4.86248,-0.5882 5.9181,-0.87266 1.59652,-9.32904 -6.701512,-17.89112 -13.269629,-22.84108 1.63168,0.30612 5.577646,-0.16062 5.577646,-0.16062 3.814503,1.01543 5.050833,3.87309 6.875443,6.31459 0.8156,0.39698 5.70086,0.50916 6.1148,-0.28354 0.48791,-1.71756 1.5219,-4.41414 0.33848,-5.5785 -2.47363,-1.29985 -3.59941,-1.66033 -4.4784,-2.33537 0.44438,0.015 0.82835,-0.37248 0.85062,-0.69017 1.5753,1.46383 4.89973,0.55549 4.50589,-0.70776 0.76021,1.3576 4.45962,1.03412 4.15531,-0.73192 1.52911,1.58524 4.70677,0.54968 4.94108,-0.77919 -0.0906,-1.08375 -0.20214,-1.26994 -0.70776,-1.99798 0.76807,-1.39918 1.4509,-3.19588 -0.19782,-3.73219 -0.90081,-0.2502 -2.53721,-0.0671 -3.43766,-0.30552 -0.78488,-0.62582 -2.06524,-3.68533 -3.07277,-3.79703 -2.44631,0.0697 -5.00099,1.36622 -7.38527,1.90785 0,0 -5.20318,-0.85683 -8.327076,-1.7551 1.167314,0.0597 4.357726,-4.08854 -1.835348,-6.59727 -0.568508,-0.25572 -2.880587,-0.76369 -2.056671,0.68453 -1.546335,-2.23681 -3.83862,-1.1822 -5.067146,0.9328 -0.329394,-0.0684 -0.627026,-0.13993 -1.231833,-0.20072 2.917651,-1.88399 8.137307,-4.13685 11.03606,-6.04824 -3.036904,-0.61621 -8.371752,-0.85155 -11.411917,-1.45131 z m -4.577319,9.37004 c -0.03083,0.0181 -0.06124,0.0373 -0.09233,0.0561 0.0014,-0.0121 0.0027,-0.0242 0.0041,-0.0363 0.02925,-0.007 0.05857,-0.0133 0.08792,-0.0198 z"
         style="color:#000000;fill:none;stroke:#f2f3f1;stroke-width:2.17780423;stroke-linecap:butt;stroke-linejoin:miter;stroke-miterlimit:4;stroke-opacity:1;stroke-dasharray:none;stroke-dashoffset:0;marker:none;visibility:visible;display:inline;overflow:visible;enable-background:accumulate" />
    </g>
    <path
       sodipodi:nodetypes="csccscccccsscccsscc"
       id="path1446"
       d="m 982.30518,147.41044 c -2.63187,7e-5 -5.72366,0.0538 -9.3125,0.15625 -3.58889,0.10261 -6.01662,0.15631 -7.28125,0.15625 l -8.9375,0 c 0.44433,8.92095 0.65625,19.53911 0.65625,31.84375 0,13.39846 -0.21192,25.02833 -0.65625,34.90625 l 14.40625,0 c -0.376,-10.52734 -0.56252,-19.0117 -0.5625,-25.4375 0.16233,0.18508 -0.24227,-9.50687 -0.0625,-9.28125 -2e-5,-8.1689 -0.18655,-15.47749 -0.5625,-21.9375 2.70017,-0.51264 5.26071,-0.74994 7.6875,-0.75 9.70699,6e-5 14.56245,3.65435 14.5625,10.96875 -5e-5,7.89555 -6.21195,11.84379 -18.6875,11.84375 0.14104,2.85483 -0.53733,7.3848 0.50005,9.28125 8.81833,2e-5 16.26265,-1.94724 22.3125,-5.84375 6.08397,-3.89645 9.12497,-9.95602 9.12497,-18.125 0,-5.98139 -2.2412,-10.43549 -6.71872,-13.375 -4.47759,-2.93939 -9.97465,-4.40618 -16.46875,-4.40625 l -5e-5,0 z"
       style="font-size:95.54257965px;font-style:normal;font-weight:bold;line-height:125%;fill:#787a75;fill-opacity:1;stroke:none;font-family:Candara;-inkscape-font-specification:Candara Bold" />
  </g>
</svg>
