<?xml version="1.0" encoding="UTF-8" standalone="no"?>
<!-- Created with Inkscape (http://www.inkscape.org/) -->

<svg
   xmlns:dc="http://purl.org/dc/elements/1.1/"
   xmlns:cc="http://creativecommons.org/ns#"
   xmlns:rdf="http://www.w3.org/1999/02/22-rdf-syntax-ns#"
   xmlns:svg="http://www.w3.org/2000/svg"
   xmlns="http://www.w3.org/2000/svg"
   xmlns:sodipodi="http://sodipodi.sourceforge.net/DTD/sodipodi-0.dtd"
   xmlns:inkscape="http://www.inkscape.org/namespaces/inkscape"
   width="353"
   height="353"
   viewBox="0 0 93.397917 93.397917"
   version="1.1"
   id="svg8022"
   sodipodi:docname="RedKing.svg"
   inkscape:version="0.92.4 (5da689c313, 2019-01-14)">
  <defs
     id="defs8016" />
  <sodipodi:namedview
     id="base"
     pagecolor="#ffffff"
     bordercolor="#666666"
     borderopacity="1.0"
     inkscape:pageopacity="0.0"
     inkscape:pageshadow="2"
     inkscape:zoom="1.4"
     inkscape:cx="376.9416"
     inkscape:cy="103.92401"
     inkscape:document-units="mm"
     inkscape:current-layer="layer2"
     showgrid="false"
     units="px"
     inkscape:window-width="1920"
     inkscape:window-height="1017"
     inkscape:window-x="1912"
     inkscape:window-y="-8"
     inkscape:window-maximized="1"
     showguides="false"
     inkscape:snap-nodes="false" />
  <metadata
     id="metadata8019">
    <rdf:RDF>
      <cc:Work
         rdf:about="">
        <dc:format>image/svg+xml</dc:format>
        <dc:type
           rdf:resource="http://purl.org/dc/dcmitype/StillImage" />
        <dc:title></dc:title>
      </cc:Work>
    </rdf:RDF>
  </metadata>
  <g
     inkscape:groupmode="layer"
     id="layer2"
     inkscape:label="Outer"
     style="display:inline">
    <path
       style="fill:#de8787;stroke:#000000;stroke-width:2.11666656;stroke-linecap:butt;stroke-linejoin:miter;stroke-miterlimit:4;stroke-dasharray:none;stroke-opacity:1"
       d="m 47.363328,6.2760721 c -2.478718,0.297824 -3.971526,0.810079 -6.547886,4.3652529 -2.65695,1.811004 -3.88891,4.436283 -5.28054,6.970327 -4.1111,1.314269 -3.20629,2.628541 -0.21124,3.942811 -0.78759,6.147315 1.21125,7.650562 3.16835,9.223358 -3.41608,1.507239 -7.30431,2.672777 -8.5193,5.280552 -3.37414,-0.622231 -4.15938,0.199835 -4.7173,2.041812 l -6.266248,3.027513 -0.281618,32.739407 1.971406,2.182629 c -0.979751,0.73582 -2.599027,1.087906 -2.745902,2.323444 l -0.07041,5.139732 c 0.528209,0.797358 1.262864,0.768951 1.971407,0.844883 l 22.671185,0.140822 c 3.718636,-0.381577 5.879546,-0.02026 7.744796,0.140822 l 21.96709,-0.07041 c 0.93855,-0.25838 2.30771,-0.08611 2.74588,-0.844883 l 0.35203,-6.26626 -2.67546,-1.478552 2.1122,-1.971404 -0.28162,-33.16185 c -2.30761,-1.087214 -4.25546,-1.814676 -6.19584,-2.534664 -1.62989,-2.887631 -3.11515,-2.481099 -5.56219,-2.534664 -1.32785,-3.158042 -5.24164,-4.041612 -8.16724,-5.069326 2.3831,-1.968468 3.30577,-4.629824 3.72806,-9.236907 1.37514,-1.294025 2.77186,-2.082863 -0.0669,-3.718042 -0.56521,-1.619377 -0.48437,-3.238744 -3.16834,-4.858113 -1.24012,-4.9619382 -4.95342,-6.6510909 -7.6744,-6.6182889 z"
       id="path861-9"
       inkscape:connector-curvature="0"
       sodipodi:nodetypes="cccccccccccccccccccccccccccc" />
  </g>
  <g
     inkscape:label="Inner"
     inkscape:groupmode="layer"
     id="layer1"
     transform="translate(0,-203.60208)"
     style="display:inline">
    <path
       style="fill:none;stroke:#000000;stroke-width:2.11666656;stroke-linecap:butt;stroke-linejoin:miter;stroke-miterlimit:4;stroke-dasharray:none;stroke-opacity:1"
       d="m 38.735941,234.52356 c 4.318698,2.44406 8.896955,4.20215 15.756581,-0.0691"
       id="path873"
       inkscape:connector-curvature="0"
       sodipodi:nodetypes="cc" />
    <path
       style="fill:none;stroke:#000000;stroke-width:2.11666656;stroke-linecap:butt;stroke-linejoin:miter;stroke-miterlimit:4;stroke-dasharray:none;stroke-opacity:1;filter:url(#filter2848)"
       d="m 25.74367,241.71078 21.008776,17.89891 21.216103,-17.6916"
       id="path883"
       inkscape:connector-curvature="0" />
    <path
       style="fill:none;stroke:#000000;stroke-width:1.32291663;stroke-linecap:butt;stroke-linejoin:miter;stroke-miterlimit:4;stroke-dasharray:none;stroke-opacity:1"
       d="m 32.930882,237.14965 c 8.038091,5.56901 16.279611,10.14346 27.574021,-0.20734"
       id="path875"
       inkscape:connector-curvature="0"
       sodipodi:nodetypes="cc" />
    <path
       style="fill:none;stroke:#000000;stroke-width:2.11666656;stroke-linecap:butt;stroke-linejoin:miter;stroke-miterlimit:4;stroke-dasharray:none;stroke-opacity:1"
       d="m 30.373894,239.70665 c 12.479214,8.43345 22.777161,6.34549 32.135136,-0.27643"
       id="path877"
       inkscape:connector-curvature="0"
       sodipodi:nodetypes="cc" />
    <path
       style="fill:none;stroke:#000000;stroke-width:1.32291663;stroke-linecap:butt;stroke-linejoin:miter;stroke-miterlimit:4;stroke-dasharray:none;stroke-opacity:1"
       d="M 30.373894,239.70665 46.890664,249.8655 62.50903,239.43022"
       id="path881"
       inkscape:connector-curvature="0" />
    <path
       style="fill:none;stroke:#000000;stroke-width:2.11666656;stroke-linecap:butt;stroke-linejoin:miter;stroke-miterlimit:4;stroke-dasharray:none;stroke-opacity:1"
       d="m 72.736989,243.78402 c -3.149768,0.86349 -6.0176,2.50231 -8.431154,5.39039 l -0.207334,26.95207 c 0.530741,1.08293 0.521573,1.74506 2.280558,3.17894 2.058275,0.66354 5.002131,0.86137 6.876425,0.0531"
       id="path887"
       inkscape:connector-curvature="0"
       sodipodi:nodetypes="ccccc" />
    <path
       style="fill:none;stroke:#000000;stroke-width:2.11666656;stroke-linecap:butt;stroke-linejoin:miter;stroke-miterlimit:4;stroke-dasharray:none;stroke-opacity:1"
       d="m 29.613705,252.76803 c 3.79726,0.19839 1.680415,9.93253 3.524502,11.33368 5.006008,3.80356 9.246825,3.49423 13.060853,3.61079 4.913211,0.15016 9.118188,-0.22324 13.338336,-3.12704 3.328905,-2.29049 -0.151375,-10.71803 4.768439,-12.43941"
       id="path889"
       inkscape:connector-curvature="0"
       sodipodi:nodetypes="csssc" />
    <path
       style="fill:none;stroke:#000000;stroke-width:1.05833328;stroke-linecap:butt;stroke-linejoin:miter;stroke-miterlimit:4;stroke-dasharray:none;stroke-opacity:1"
       d="m 23.117573,263.54885 h 6.565241"
       id="path891"
       inkscape:connector-curvature="0" />
    <path
       style="fill:none;stroke:#000000;stroke-width:1.05833328;stroke-linecap:butt;stroke-linejoin:miter;stroke-miterlimit:4;stroke-dasharray:none;stroke-opacity:1"
       d="M 70.318215,263.68706 H 64.098511"
       id="path893"
       inkscape:connector-curvature="0" />
    <path
       style="fill:none;stroke:#000000;stroke-width:1.58749998;stroke-linecap:butt;stroke-linejoin:miter;stroke-miterlimit:4;stroke-dasharray:none;stroke-opacity:1"
       d="m 19.523964,273.43126 c 3.754859,-2.03283 6.334883,-2.27591 10.089741,-0.27643"
       id="path895"
       inkscape:connector-curvature="0"
       sodipodi:nodetypes="cc" />
    <path
       style="fill:none;stroke:#000000;stroke-width:1.13759148;stroke-linecap:butt;stroke-linejoin:miter;stroke-miterlimit:4;stroke-dasharray:none;stroke-opacity:1"
       d="m 25.39813,275.36628 v 4.4714"
       id="path899"
       inkscape:connector-curvature="0" />
    <path
       style="fill:none;stroke:#000000;stroke-width:1.05833328;stroke-linecap:butt;stroke-linejoin:miter;stroke-miterlimit:4;stroke-dasharray:none;stroke-opacity:1"
       d="m 22.184615,275.69456 v 3.48992"
       id="path901"
       inkscape:connector-curvature="0" />
    <path
       style="fill:none;stroke:#000000;stroke-width:1.58749998;stroke-linecap:butt;stroke-linejoin:miter;stroke-miterlimit:4;stroke-dasharray:none;stroke-opacity:1"
       d="m 74.013487,273.27577 c -3.754859,-2.03284 -6.334886,-2.27593 -10.089744,-0.27644"
       id="path895-3"
       inkscape:connector-curvature="0"
       sodipodi:nodetypes="cc" />
    <path
       style="fill:none;stroke:#000000;stroke-width:1.05833328;stroke-linecap:butt;stroke-linejoin:miter;stroke-miterlimit:4;stroke-dasharray:none;stroke-opacity:1"
       d="m 68.139321,275.2108 v 4.35377"
       id="path899-9"
       inkscape:connector-curvature="0"
       sodipodi:nodetypes="cc" />
    <path
       style="fill:none;stroke:#000000;stroke-width:1.05833328;stroke-linecap:butt;stroke-linejoin:miter;stroke-miterlimit:4;stroke-dasharray:none;stroke-opacity:1"
       d="m 71.352834,275.53905 v 3.48996"
       id="path901-6"
       inkscape:connector-curvature="0" />
    <path
       style="fill:none;stroke:#000000;stroke-width:1.58749998;stroke-linecap:butt;stroke-linejoin:miter;stroke-miterlimit:4;stroke-dasharray:none;stroke-opacity:1"
       d="m 29.613705,273.15483 c 2.158674,-1.82705 4.809216,-4.43034 8.214843,-4.95253 6.016828,-0.92259 11.739639,-0.46431 17.503899,0.35453 4.413926,0.62702 6.471649,2.64469 8.772704,4.46843"
       id="path924"
       inkscape:connector-curvature="0"
       sodipodi:nodetypes="cssc" />
    <path
       style="fill:none;stroke:#000000;stroke-width:1.58749998;stroke-linecap:butt;stroke-linejoin:miter;stroke-miterlimit:4;stroke-dasharray:none;stroke-opacity:1"
       d="m 27.333148,278.9599 c 1.407134,1.24236 2.72115,2.37608 3.040746,2.34965 l 32.480676,-0.0691 c 0.931177,-0.12828 2.05998,-1.71771 2.971637,-2.48788"
       id="path926"
       inkscape:connector-curvature="0"
       sodipodi:nodetypes="cccc" />
    <path
       style="fill:none;stroke:#000000;stroke-width:1.32291663;stroke-linecap:butt;stroke-linejoin:miter;stroke-miterlimit:4;stroke-dasharray:none;stroke-opacity:1"
       d="m 29.613705,273.15483 4.284687,0.0691"
       id="path928"
       inkscape:connector-curvature="0" />
    <path
       style="fill:none;stroke:#000000;stroke-width:1.32291663;stroke-linecap:butt;stroke-linejoin:miter;stroke-miterlimit:4;stroke-dasharray:none;stroke-opacity:1"
       d="m 29.682814,276.67934 4.154854,0.0199"
       id="path930"
       inkscape:connector-curvature="0"
       sodipodi:nodetypes="cc" />
    <path
       style="fill:none;stroke:#000000;stroke-width:1.32291663;stroke-linecap:butt;stroke-linejoin:miter;stroke-miterlimit:4;stroke-dasharray:none;stroke-opacity:1"
       d="m 35.90252,272.32554 c -0.689857,0.16856 -1.434192,0.0103 -2.004128,0.89841 l -0.06073,3.47563 c 0.547927,1.05861 1.333743,1.48286 2.272175,1.50011 1.164624,-0.14295 1.548203,-0.59838 2.096947,-0.98774 l 0.0454,-3.84979 c -0.874749,-1.16929 -1.599022,-0.98429 -2.349664,-1.03662 z"
       id="path934"
       inkscape:connector-curvature="0"
       sodipodi:nodetypes="ccccccc" />
    <path
       style="fill:none;stroke:#000000;stroke-width:1.32291663;stroke-linecap:butt;stroke-linejoin:miter;stroke-miterlimit:4;stroke-dasharray:none;stroke-opacity:1"
       d="m 38.252183,273.36216 9.039523,-1.3956 16.761249,1.71033"
       id="path936"
       inkscape:connector-curvature="0" />
    <path
       style="fill:none;stroke:#000000;stroke-width:1.32291663;stroke-linecap:butt;stroke-linejoin:miter;stroke-miterlimit:4;stroke-dasharray:none;stroke-opacity:1"
       d="m 38.202518,276.56001 9.528988,1.6126 16.367005,-2.04613"
       id="path938"
       inkscape:connector-curvature="0"
       sodipodi:nodetypes="ccc" />
    <path
       style="fill:none;stroke:#000000;stroke-width:1.32291663;stroke-linecap:butt;stroke-linejoin:miter;stroke-miterlimit:4;stroke-dasharray:none;stroke-opacity:1"
       d="m 40.827511,214.61696 c 6.069984,-1.22447 10.266623,0.14493 13.959778,2.21147"
       id="path864"
       inkscape:connector-curvature="0"
       sodipodi:nodetypes="cc" />
    <path
       style="fill:none;stroke:#000000;stroke-width:1.32291663;stroke-linecap:butt;stroke-linejoin:miter;stroke-miterlimit:4;stroke-dasharray:none;stroke-opacity:1"
       d="m 35.786164,221.45865 22.25272,0.13823"
       id="path866"
       inkscape:connector-curvature="0" />
    <path
       style="fill:none;stroke:#000000;stroke-width:1.32291663;stroke-linecap:butt;stroke-linejoin:miter;stroke-miterlimit:4;stroke-dasharray:none;stroke-opacity:1"
       d="m 35.626088,225.09245 22.525678,-0.0826"
       id="path868"
       inkscape:connector-curvature="0"
       sodipodi:nodetypes="cc" />
    <g
       transform="matrix(0.65776009,0,0,0.65776009,12.889614,206.24098)"
       id="g1052"
       style="stroke-width:2.01124501;stroke-miterlimit:4;stroke-dasharray:none">
      <path
         sodipodi:nodetypes="ccccc"
         inkscape:connector-curvature="0"
         id="path835"
         d="m 39.67217,32.242925 8.766509,1.337264 c -0.06418,6.848023 1.209155,8.732417 3.120283,8.469339 3.052215,-0.662408 2.307628,-4.973032 2.823113,-8.17217 l 8.320755,-1.188679"
         style="display:inline;fill:none;stroke:#000000;stroke-width:2.01124501;stroke-linecap:butt;stroke-linejoin:miter;stroke-miterlimit:4;stroke-dasharray:none;stroke-opacity:1" />
      <path
         inkscape:connector-curvature="0"
         id="path837"
         d="m 40.712264,35.660377 h 7.726415"
         style="display:inline;fill:none;stroke:#000000;stroke-width:2.01124501;stroke-linecap:butt;stroke-linejoin:miter;stroke-miterlimit:4;stroke-dasharray:none;stroke-opacity:1" />
      <path
         inkscape:connector-curvature="0"
         id="path839"
         d="M 60.622642,35.808962 H 54.233491"
         style="display:inline;fill:none;stroke:#000000;stroke-width:2.01124501;stroke-linecap:butt;stroke-linejoin:miter;stroke-miterlimit:4;stroke-dasharray:none;stroke-opacity:1" />
    </g>
    <path
       sodipodi:nodetypes="ccccc"
       inkscape:connector-curvature="0"
       id="path2065"
       d="m 20.028352,244.31184 c 3.149768,0.86349 6.418504,2.8364 8.832058,5.72448 l 0.207334,26.95207 c -0.530741,1.08293 -0.521573,1.74506 -2.280558,3.17894 -2.058275,0.66354 -3.99987,0.39365 -5.874164,-0.41464"
       style="fill:none;stroke:#000000;stroke-width:2.11666656;stroke-linecap:butt;stroke-linejoin:miter;stroke-miterlimit:4;stroke-dasharray:none;stroke-opacity:1" />
  </g>
</svg>
