<?xml version="1.0" encoding="UTF-8" standalone="no"?>
<!-- Created with Inkscape (http://www.inkscape.org/) -->

<svg
   xmlns:dc="http://purl.org/dc/elements/1.1/"
   xmlns:cc="http://creativecommons.org/ns#"
   xmlns:rdf="http://www.w3.org/1999/02/22-rdf-syntax-ns#"
   xmlns:svg="http://www.w3.org/2000/svg"
   xmlns="http://www.w3.org/2000/svg"
   xmlns:sodipodi="http://sodipodi.sourceforge.net/DTD/sodipodi-0.dtd"
   xmlns:inkscape="http://www.inkscape.org/namespaces/inkscape"
   width="353"
   height="353"
   viewBox="0 0 93.397917 93.397917"
   version="1.1"
   id="svg8022"
   sodipodi:docname="RedKnight.svg"
   inkscape:version="0.92.4 (5da689c313, 2019-01-14)">
  <defs
     id="defs8016" />
  <sodipodi:namedview
     id="base"
     pagecolor="#ffffff"
     bordercolor="#666666"
     borderopacity="1.0"
     inkscape:pageopacity="0.0"
     inkscape:pageshadow="2"
     inkscape:zoom="0.98994949"
     inkscape:cx="-10.048819"
     inkscape:cy="121.75531"
     inkscape:document-units="mm"
     inkscape:current-layer="layer1"
     showgrid="false"
     units="px"
     inkscape:window-width="960"
     inkscape:window-height="1017"
     inkscape:window-x="2872"
     inkscape:window-y="-8"
     inkscape:window-maximized="0" />
  <metadata
     id="metadata8019">
    <rdf:RDF>
      <cc:Work
         rdf:about="">
        <dc:format>image/svg+xml</dc:format>
        <dc:type
           rdf:resource="http://purl.org/dc/dcmitype/StillImage" />
        <dc:title />
      </cc:Work>
    </rdf:RDF>
  </metadata>
  <g
     inkscape:label="Layer 1"
     inkscape:groupmode="layer"
     id="layer1"
     transform="translate(0,-203.60208)">
    <path
       style="fill:#de8787;stroke:#000000;stroke-width:2.11666656;stroke-linecap:butt;stroke-linejoin:miter;stroke-miterlimit:4;stroke-dasharray:none;stroke-opacity:1"
       d="m 21.976798,213.36813 c -2.079648,-0.0877 -4.344132,0.83962 -6.794869,2.79309 1.312196,2.54845 3.666987,5.00934 2.296978,7.78134 -2.588523,0.2844 -3.19546,0.89944 -4.464913,1.4037 -1.558694,7.34242 -1.451989,14.01846 -1.914149,20.92228 0.778379,0.70627 1.228226,0.75475 1.786538,1.02089 3.388372,-2.98077 6.860792,-5.45594 10.025265,-9.78009 1.935219,-1.13589 4.957697,-0.23945 4.900795,-4.2527 1.765677,-0.67509 2.283228,0.2081 2.401647,0.94487 -26.2014623,18.95205 -18.240839,24.49331 -8.39788,34.23388 -1.43095,2.0159 -3.892322,4.29027 -6.251452,6.53821 -1.024938,4.16746 -0.779877,8.33403 -0.382829,12.50147 0.209844,0.34205 0.483824,0.64177 1.403709,0.51044 l 61.873607,0.25527 c 0.425253,-0.18007 0.850847,-0.0505 1.276098,-0.89326 l 0.382827,-10.71638 c -0.680401,-1.47406 -1.361357,-1.73604 -2.041758,-2.0403 -1.94802,-0.0669 -3.821237,-0.35449 -5.994797,0.25526 0.37452,-1.55284 0.74715,-3.10739 2.295546,-3.9559 0.04908,-2.22277 -1.051815,-2.43089 -1.912716,-3.0612 9.266963,-6.88719 5.284522,-14.89766 0.636618,-22.96405 4.108953,6.27619 8.153423,12.46787 2.169367,22.83645 2.814453,0.77567 4.694554,0.30554 6.506674,-0.25526 0.821741,-7.44023 0.581122,-14.43494 0.1276,-21.56033 -2.916394,-5.12748 -6.623742,-8.89962 -12.885733,-8.29179 -7.40031,3.03279 -14.365407,8.15952 -24.111105,7.3985 -2.979254,-1.16761 -4.553778,-3.9746 -6.123844,-6.78625 4.50979,-9.72323 5.364197,-15.46715 -9.695485,-19.49421 -2.068444,-3.44218 -4.43791,-5.23131 -7.111744,-5.34385 z m 11.488758,51.79292 1.337583,1.27824 c 1.477836,1.61307 5.549731,3.26928 7.222404,3.34914 1.499763,-0.17923 8.714977,-1.81382 10.495908,-2.26064 0.793258,3.85768 4.887366,4.16932 8.029387,5.503 l -5.322337,3.24759 -24.807941,-0.3599 5.864321,-5.05278 -2.406386,-4.44897 c -0.185343,-0.5446 -0.567358,-1.01338 -0.412939,-1.25568 z"
       id="path3446"
       inkscape:connector-curvature="0"
       sodipodi:nodetypes="scccccccccccccccccccccccccccscccccccccc" />
    <path
       style="fill:none;stroke:#000000;stroke-width:2.11666656;stroke-linecap:butt;stroke-linejoin:miter;stroke-miterlimit:4;stroke-dasharray:none;stroke-opacity:1"
       d="m 15.182592,279.31053 64.680494,0.25527"
       id="path3467"
       inkscape:connector-curvature="0" />
    <path
       style="fill:none;stroke:#000000;stroke-width:1.32291663;stroke-linecap:butt;stroke-linejoin:miter;stroke-miterlimit:4;stroke-dasharray:none;stroke-opacity:1"
       d="m 22.482474,216.83099 c 2.465162,0.83115 3.507939,2.90689 4.05941,5.41254 l 4.781084,0.18035"
       id="path3453"
       inkscape:connector-curvature="0"
       sodipodi:nodetypes="ccc" />
    <path
       style="fill:none;stroke:#000000;stroke-width:1.32291663;stroke-linecap:butt;stroke-linejoin:miter;stroke-miterlimit:4;stroke-dasharray:none;stroke-opacity:1"
       d="m 26.812512,225.58124 c 1.319948,1.37371 2.780088,2.72405 2.706273,4.33005"
       id="path3455"
       inkscape:connector-curvature="0"
       sodipodi:nodetypes="cc" />
    <path
       style="fill:#de8787;stroke:#000000;stroke-width:1.58749998;stroke-linecap:butt;stroke-linejoin:miter;stroke-miterlimit:4;stroke-dasharray:none;stroke-opacity:1"
       d="m 55.814741,271.45259 -1.217824,0.90208 -1.668869,0.36084 -18.086926,-0.27053 -4.420562,3.47362 24.807941,0.3599 5.322337,-3.2476 z"
       id="path3465"
       inkscape:connector-curvature="0"
       sodipodi:nodetypes="cccccccc" />
    <path
       style="display:inline;fill:none;stroke:#000000;stroke-width:1.58749998;stroke-linecap:butt;stroke-linejoin:miter;stroke-miterlimit:4;stroke-dasharray:none;stroke-opacity:1"
       d="m 12.514369,253.36565 c 1.071696,4.8531 5.932558,10.88738 11.621838,12.56152 2.002823,0.58939 2.782536,1.78541 3.172455,2.81914 -1.452052,3.91745 -3.414635,5.14785 -6.269533,6.81079 -2.477694,-0.33271 -2.964865,-1.79215 -3.247529,-2.79648"
       id="path3457"
       inkscape:connector-curvature="0"
       sodipodi:nodetypes="csccc" />
    <path
       style="display:inline;fill:none;stroke:#000000;stroke-width:1.32291663;stroke-linecap:butt;stroke-linejoin:miter;stroke-miterlimit:4;stroke-dasharray:none;stroke-opacity:1"
       d="m 77.555138,262.27382 c -0.248078,0.0677 -9.517064,3.42795 -9.674928,3.5407 -0.157875,0.11265 -1.736526,2.02968 -1.826734,2.21012 -0.0902,0.18035 8.276686,2.36799 8.276686,2.36799"
       id="path3461"
       inkscape:connector-curvature="0" />
  </g>
</svg>
