<?xml version="1.0" encoding="UTF-8" standalone="no"?>
<!-- Created with Inkscape (http://www.inkscape.org/) -->

<svg
   xmlns:dc="http://purl.org/dc/elements/1.1/"
   xmlns:cc="http://creativecommons.org/ns#"
   xmlns:rdf="http://www.w3.org/1999/02/22-rdf-syntax-ns#"
   xmlns:svg="http://www.w3.org/2000/svg"
   xmlns="http://www.w3.org/2000/svg"
   xmlns:sodipodi="http://sodipodi.sourceforge.net/DTD/sodipodi-0.dtd"
   xmlns:inkscape="http://www.inkscape.org/namespaces/inkscape"
   width="353"
   height="353"
   viewBox="0 0 93.397917 93.397917"
   version="1.1"
   id="svg8022"
   sodipodi:docname="RedGeneral.svg"
   inkscape:version="0.92.4 (5da689c313, 2019-01-14)">
  <defs
     id="defs8016" />
  <sodipodi:namedview
     id="base"
     pagecolor="#ffffff"
     bordercolor="#666666"
     borderopacity="1.0"
     inkscape:pageopacity="0.0"
     inkscape:pageshadow="2"
     inkscape:zoom="0.98994949"
     inkscape:cx="206.42852"
     inkscape:cy="260.27061"
     inkscape:document-units="mm"
     inkscape:current-layer="layer1"
     showgrid="false"
     units="px"
     inkscape:window-width="960"
     inkscape:window-height="1017"
     inkscape:window-x="2872"
     inkscape:window-y="-8"
     inkscape:window-maximized="0" />
  <metadata
     id="metadata8019">
    <rdf:RDF>
      <cc:Work
         rdf:about="">
        <dc:format>image/svg+xml</dc:format>
        <dc:type
           rdf:resource="http://purl.org/dc/dcmitype/StillImage" />
        <dc:title></dc:title>
      </cc:Work>
    </rdf:RDF>
  </metadata>
  <g
     inkscape:label="Layer 1"
     inkscape:groupmode="layer"
     id="layer1"
     transform="translate(0,-203.60208)">
    <path
       style="fill:#de8787;stroke:#000000;stroke-width:2.11666667;stroke-linecap:butt;stroke-linejoin:miter;stroke-opacity:1;stroke-miterlimit:4;stroke-dasharray:none"
       d="m 37.83656,212.4299 -3.015681,7.22401 c -0.840836,1.61225 -2.097179,3.0168 0.09147,6.14382 -0.850656,4.46078 -1.589463,8.92859 1.670981,13.64632 -5.903745,1.36941 -7.712284,1.48434 -10.165128,3.20272 -1.423467,14.4697 -4.210754,29.91848 -1.531732,39.54651 -1.659493,1.72154 -3.193482,3.45203 -1.253235,5.4307 15.209637,1.47291 30.790156,1.70957 46.787438,0.55699 2.373175,-2.22799 0.2757,-4.45594 -1.113986,-6.68393 3.028983,-4.31951 0.433272,-25.14627 -0.974739,-38.01478 -1.245713,-1.38774 -6.616206,-2.54634 -11.000618,-3.7597 2.263889,-3.70822 3.722671,-8.58788 2.088724,-13.85521 0.801539,-2.42992 1.799925,-3.97634 0.556993,-5.63957 l -2.924213,-8.07639 c -6.063793,-3.43736 -12.367562,-4.39495 -19.216269,0.27839 z"
       id="path1610"
       inkscape:connector-curvature="0"
       sodipodi:nodetypes="ccccccccccccccc" />
    <path
       style="fill:none;stroke:#000000;stroke-width:2.11666667;stroke-linecap:butt;stroke-linejoin:miter;stroke-opacity:1;stroke-miterlimit:4;stroke-dasharray:none"
       d="m 34.820879,219.65391 c 8.528242,4.04839 16.890046,3.60282 25.156164,0.57387"
       id="path1612"
       inkscape:connector-curvature="0"
       sodipodi:nodetypes="cc" />
    <path
       style="fill:none;stroke:#000000;stroke-width:2.11666667;stroke-linecap:butt;stroke-linejoin:miter;stroke-opacity:1;stroke-miterlimit:4;stroke-dasharray:none"
       d="m 34.912345,225.79773 c 9.364922,2.34037 15.632226,1.60326 24.507705,0.0697"
       id="path1614"
       inkscape:connector-curvature="0"
       sodipodi:nodetypes="cc" />
    <g
       style="stroke:#000000;stroke-width:1.69368434;stroke-miterlimit:4;stroke-dasharray:none"
       transform="matrix(0.78108809,0,0,0.78108809,7.2557064,205.82341)"
       id="g1052">
      <path
         sodipodi:nodetypes="ccccc"
         inkscape:connector-curvature="0"
         id="path835"
         d="m 39.67217,32.242925 8.766509,1.337264 c -0.06418,6.848023 1.209155,8.732417 3.120283,8.469339 3.052215,-0.662408 2.307628,-4.973032 2.823113,-8.17217 l 8.320755,-1.188679"
         style="display:inline;fill:none;stroke:#000000;stroke-width:1.69368434;stroke-linecap:butt;stroke-linejoin:miter;stroke-opacity:1;stroke-miterlimit:4;stroke-dasharray:none" />
      <path
         inkscape:connector-curvature="0"
         id="path837"
         d="m 39.553478,35.482102 8.885201,0.178275"
         style="display:inline;fill:none;stroke:#000000;stroke-width:1.69368434;stroke-linecap:butt;stroke-linejoin:miter;stroke-opacity:1;stroke-miterlimit:4;stroke-dasharray:none"
         sodipodi:nodetypes="cc" />
      <path
         inkscape:connector-curvature="0"
         id="path839"
         d="M 62.316253,35.808962 H 54.233491"
         style="display:inline;fill:none;stroke:#000000;stroke-width:1.69368434;stroke-linecap:butt;stroke-linejoin:miter;stroke-opacity:1;stroke-miterlimit:4;stroke-dasharray:none"
         sodipodi:nodetypes="cc" />
    </g>
    <path
       style="fill:none;stroke:#000000;stroke-width:2.11666667;stroke-linecap:butt;stroke-linejoin:miter;stroke-opacity:1;stroke-miterlimit:4;stroke-dasharray:none"
       d="m 29.246144,244.46562 c -4.048826,1.0243 -2.555582,11.66273 -2.763974,18.51112 -4.620733,18.08658 -1.371651,17.4155 0.393854,20.48038 l 40.468472,0.29539 c 6.232463,-7.2861 1.395729,-14.01876 0.984634,-20.97271 1.435451,-10.86979 -0.02332,-15.92681 -2.47353,-18.28534"
       id="path1645"
       inkscape:connector-curvature="0"
       sodipodi:nodetypes="cccccc" />
    <path
       style="fill:none;stroke:#000000;stroke-width:1.5875;stroke-linecap:butt;stroke-linejoin:miter;stroke-opacity:1;stroke-miterlimit:4;stroke-dasharray:none"
       d="m 35.245416,244.07175 c 6.009918,3.79317 0.483512,12.7578 -0.295391,19.59423 -1.342317,7.00907 1.3772,11.1237 0.393854,14.08028 -0.458768,2.3696 -2.66217,3.4704 -6.006268,3.7416 l 36.234542,0.0983 c -3.01416,-0.58249 -5.94708,-1.64181 -6.400122,-4.52934 2.626441,-17.68131 -6.334483,-26.51946 -0.196937,-33.57603"
       id="path1647"
       inkscape:connector-curvature="0"
       sodipodi:nodetypes="ccccccc" />
    <path
       style="fill:none;stroke:#000000;stroke-width:2.11666667;stroke-linecap:butt;stroke-linejoin:miter;stroke-opacity:1;stroke-miterlimit:4;stroke-dasharray:none"
       d="m 36.583325,239.44405 c 9.73126,7.37938 15.402976,4.25174 20.748001,0.27838"
       id="path1649"
       inkscape:connector-curvature="0"
       sodipodi:nodetypes="cc" />
    <path
       style="fill:none;stroke:#000000;stroke-width:2.11666667;stroke-linecap:butt;stroke-linejoin:miter;stroke-opacity:1;stroke-miterlimit:4;stroke-dasharray:none"
       d="M 37.707002,247.61644 H 57.005834"
       id="path1651"
       inkscape:connector-curvature="0" />
    <path
       style="fill:none;stroke:#000000;stroke-width:2.11666667;stroke-linecap:butt;stroke-linejoin:miter;stroke-opacity:1;stroke-miterlimit:4;stroke-dasharray:none"
       d="m 35.245416,244.07175 c 2.207515,1.80517 2.640548,3.61032 3.643146,5.41549 -2.644158,10.03411 -0.468326,16.48126 8.172467,18.11729 12.349267,-1.51835 8.90642,-10.77158 9.157099,-18.21574 0.328269,-2.26465 0.872908,-4.4211 2.756975,-5.90783"
       id="path1653"
       inkscape:connector-curvature="0"
       sodipodi:nodetypes="ccccc" />
    <path
       style="fill:none;stroke:#000000;stroke-width:2.11666667;stroke-linecap:butt;stroke-linejoin:miter;stroke-opacity:1;stroke-miterlimit:4;stroke-dasharray:none"
       d="m 29.337611,281.48786 c 4.443355,0.51081 7.918808,-3.08953 7.975538,-4.23393 -0.155012,-6.76566 2.291916,-9.184 9.649417,-8.56633 5.290753,-0.10128 8.360454,0.62356 9.381279,2.69505 1.02776,2.08554 0.620057,5.17327 1.449698,6.46206 1.038706,1.71136 2.658573,2.91559 7.77861,3.74161"
       id="path1655"
       inkscape:connector-curvature="0"
       sodipodi:nodetypes="cccscc" />
    <path
       style="fill:none;stroke:#000000;stroke-width:2.11666667;stroke-linecap:butt;stroke-linejoin:miter;stroke-opacity:1;stroke-miterlimit:4;stroke-dasharray:none"
       d="m 26.48217,262.97674 c 2.889807,-0.50934 5.709319,-0.24532 8.467855,0.68924 v 0"
       id="path1657"
       inkscape:connector-curvature="0"
       sodipodi:nodetypes="ccc" />
    <path
       style="fill:none;stroke:#000000;stroke-width:2.11666667;stroke-linecap:butt;stroke-linejoin:miter;stroke-opacity:1;stroke-miterlimit:4;stroke-dasharray:none"
       d="m 59.221261,263.91213 c 3.968972,-1.76134 6.693355,-1.07636 9.107869,-1.13233"
       id="path1659"
       inkscape:connector-curvature="0"
       sodipodi:nodetypes="cc" />
  </g>
</svg>
