<?xml version="1.0" encoding="UTF-8" standalone="no"?>
<!-- Created with Inkscape (http://www.inkscape.org/) -->

<svg
   xmlns:dc="http://purl.org/dc/elements/1.1/"
   xmlns:cc="http://creativecommons.org/ns#"
   xmlns:rdf="http://www.w3.org/1999/02/22-rdf-syntax-ns#"
   xmlns:svg="http://www.w3.org/2000/svg"
   xmlns="http://www.w3.org/2000/svg"
   xmlns:sodipodi="http://sodipodi.sourceforge.net/DTD/sodipodi-0.dtd"
   xmlns:inkscape="http://www.inkscape.org/namespaces/inkscape"
   width="353"
   height="353"
   viewBox="0 0 93.397917 93.397917"
   version="1.1"
   id="svg8022"
   sodipodi:docname="RedRook.svg"
   inkscape:version="0.92.4 (5da689c313, 2019-01-14)">
  <defs
     id="defs8016" />
  <sodipodi:namedview
     id="base"
     pagecolor="#ffffff"
     bordercolor="#666666"
     borderopacity="1.0"
     inkscape:pageopacity="0.0"
     inkscape:pageshadow="2"
     inkscape:zoom="0.98994949"
     inkscape:cx="208.01499"
     inkscape:cy="123.84379"
     inkscape:document-units="mm"
     inkscape:current-layer="layer1"
     showgrid="false"
     units="px"
     inkscape:window-width="960"
     inkscape:window-height="1017"
     inkscape:window-x="2872"
     inkscape:window-y="-8"
     inkscape:window-maximized="0" />
  <metadata
     id="metadata8019">
    <rdf:RDF>
      <cc:Work
         rdf:about="">
        <dc:format>image/svg+xml</dc:format>
        <dc:type
           rdf:resource="http://purl.org/dc/dcmitype/StillImage" />
        <dc:title></dc:title>
      </cc:Work>
    </rdf:RDF>
  </metadata>
  <g
     inkscape:label="Layer 1"
     inkscape:groupmode="layer"
     id="layer1"
     transform="translate(0,-203.60208)">
    <path
       inkscape:connector-curvature="0"
       style="display:inline;opacity:1;fill:#de8787;fill-opacity:1;stroke:#000000;stroke-width:1.5875;stroke-linecap:square;stroke-linejoin:miter;stroke-miterlimit:4;stroke-dasharray:none;stroke-opacity:1;paint-order:normal"
       d="m 46.699698,254.95245 -1.664657,0.082 -1.649739,0.24478 -1.616926,0.40572 -1.570686,0.56084 -1.506543,0.71302 -1.43047,0.85766 -1.337989,0.99345 -1.236562,1.1187 -1.11872,1.23507 -0.993423,1.3395 -0.857687,1.43047 -0.712998,1.50654 -0.560855,1.57068 -0.405721,1.61691 -0.24463,1.64827 -0.08203,1.66613 0.08203,1.66466 0.24463,1.64974 0.405721,1.61695 0.560855,1.56917 0.712998,1.50804 0.857687,1.42899 0.993423,1.33948 1.11872,1.23505 1.236562,1.12023 1.337989,0.99341 1.43047,0.85619 1.506543,0.71301 1.570686,0.56235 1.616926,0.40422 1.649739,0.24449 1.664657,0.082 1.664657,-0.082 1.649739,-0.24449 1.616926,-0.40422 1.570685,-0.56235 1.506544,-0.71301 1.43047,-0.85619 1.337989,-0.99341 1.236559,-1.12023 1.118723,-1.23505 0.993422,-1.33948 0.857686,-1.42899 0.712998,-1.50804 0.560854,-1.56917 0.405722,-1.61695 0.244629,-1.64974 0.08057,-1.66466 -0.08057,-1.66613 -0.244629,-1.64827 -0.405722,-1.61691 -0.560854,-1.57068 -0.712998,-1.50654 -0.857686,-1.43047 -0.993422,-1.3395 -1.118723,-1.23507 -1.236559,-1.1187 -1.337989,-0.99345 -1.43047,-0.85766 -1.506544,-0.71302 -1.570685,-0.56084 -1.616926,-0.40572 -1.649739,-0.24478 z m 1.725813,4.89252 1.156009,0.21937 1.181372,0.34754 1.141097,0.46241 1.091869,0.57128 1.029226,0.67573 0.959116,0.77266 0.01789,0.0174 -6.537805,5.56527 z m -3.581399,0.006 -0.0388,8.62755 -6.53333,-5.5608 0.801005,-0.66825 1.018782,-0.69358 1.081431,-0.58922 1.133637,-0.48179 1.175402,-0.36692 1.205237,-0.25055 z m 12.301455,5.57865 0.199888,0.29238 0.589192,1.08142 0.481797,1.13513 0.36694,1.1754 0.250605,1.20525 0.04328,0.40423 -8.024957,-0.026 z m -21.018529,0.002 6.091811,5.26546 -8.032417,0.026 0.0179,-0.19252 0.229705,-1.21119 0.347548,-1.18138 0.462406,-1.14108 0.571294,-1.09189 z m -1.93464,8.3785 8.026451,0.026 -6.094792,5.26842 -0.199889,-0.29385 -0.589196,-1.08141 -0.480303,-1.13514 -0.36843,-1.17539 -0.250604,-1.20526 z m 24.890794,0 -0.0179,0.19253 -0.229705,1.21119 -0.34755,1.18138 -0.462401,1.14111 -0.571294,1.09187 -0.311751,0.47433 -6.090318,-5.26545 z m -14.277863,2.24484 0.0388,8.63203 -1.154521,-0.21937 -1.182861,-0.34756 -1.141093,-0.46241 -1.091873,-0.5713 -1.029223,-0.67569 -0.959114,-0.77268 -0.01789,-0.0174 z m 3.658963,0 6.533331,5.56078 -0.801006,0.66823 -1.017288,0.69363 -1.08143,0.58918 -1.133637,0.48182 -1.176895,0.36693 -1.205236,0.25054 -0.15662,0.0174 z"
       id="path2858" />
    <path
       style="display:inline;fill:#de8787;stroke:#000000;stroke-width:1.5875;stroke-linecap:butt;stroke-linejoin:miter;stroke-opacity:1;stroke-miterlimit:4;stroke-dasharray:none"
       d="m 31.249977,260.50003 -0.129287,-30.89938 1.810007,-2.19788 c -0.508301,-1.15698 0.507293,-6.51584 4.783586,-9.30861 l 1.422149,-1.6807 c 2.370441,-2.79751 4.705479,-6.2676 7.240021,-5.94717 3.258419,0.52106 5.701859,3.02139 7.757168,6.46432 l 2.197864,1.42214 c 3.502685,3.58491 3.615239,6.15326 4.525013,8.92073 l 1.228219,2.52108 -0.193943,30.57618 c -10.073272,-9.63136 -20.40229,-8.85406 -30.64081,0.12932 z"
       id="path2861"
       inkscape:connector-curvature="0"
       sodipodi:nodetypes="cccccccccccc" />
    <path
       style="fill:none;stroke:#000000;stroke-width:1.5875;stroke-linecap:butt;stroke-linejoin:miter;stroke-opacity:1;stroke-miterlimit:4;stroke-dasharray:none"
       d="m 38.942502,216.67203 15.126476,0.0646"
       id="path2864"
       inkscape:connector-curvature="0"
       sodipodi:nodetypes="cc" />
    <path
       style="fill:none;stroke:#000000;stroke-width:1.5875;stroke-linecap:butt;stroke-linejoin:miter;stroke-opacity:1;stroke-miterlimit:4;stroke-dasharray:none"
       d="m 36.679995,219.12846 4.2018,4.78357 6.076448,-5.30072 5.430015,5.43001 4.525013,-5.23606"
       id="path2866"
       inkscape:connector-curvature="0"
       sodipodi:nodetypes="ccccc" />
    <path
       style="fill:none;stroke:#000000;stroke-width:1.5875;stroke-linecap:butt;stroke-linejoin:miter;stroke-opacity:1;stroke-miterlimit:4;stroke-dasharray:none"
       d="m 32.930697,227.40277 27.925801,0.12931"
       id="path2872"
       inkscape:connector-curvature="0" />
    <path
       style="fill:none;stroke:#000000;stroke-width:1.5875;stroke-linecap:butt;stroke-linejoin:miter;stroke-opacity:1;stroke-miterlimit:4;stroke-dasharray:none"
       d="m 31.056048,230.69956 30.964026,-0.25862"
       id="path2874"
       inkscape:connector-curvature="0"
       sodipodi:nodetypes="cc" />
    <path
       style="display:inline;fill:none;stroke:#000000;stroke-width:1.5875;stroke-linecap:butt;stroke-linejoin:miter;stroke-opacity:1;stroke-miterlimit:4;stroke-dasharray:none"
       d="m 41.916083,233.54386 c -0.990414,0.6143 -1.223509,1.41793 -1.551432,2.19785 L 40.493936,251.45 c 0.246447,0.70488 1.160606,1.27619 2.262506,1.81 l 8.597525,-0.25863 c 1.609188,-0.28345 2.026606,-1.16302 2.650365,-1.93932 l -0.129284,-15.3204 c -0.546301,-1.44976 -1.417258,-2.05543 -2.391793,-2.39179 z"
       id="path2876"
       inkscape:connector-curvature="0"
       sodipodi:nodetypes="ccccccccc" />
    <path
       style="display:inline;fill:none;stroke:#000000;stroke-width:1.5875;stroke-linecap:butt;stroke-linejoin:miter;stroke-opacity:1;stroke-miterlimit:4;stroke-dasharray:none"
       d="m 44.307878,233.44691 0.4525,14.25379 4.525014,-0.2263 0.161613,-13.99523"
       id="path2878"
       inkscape:connector-curvature="0"
       sodipodi:nodetypes="cccc" />
    <path
       style="display:inline;fill:none;stroke:#000000;stroke-width:1.5875;stroke-linecap:butt;stroke-linejoin:miter;stroke-opacity:1;stroke-miterlimit:4;stroke-dasharray:none"
       d="m 40.752507,251.99945 4.040192,-4.39573"
       id="path2880"
       inkscape:connector-curvature="0" />
    <path
       style="display:inline;fill:none;stroke:#000000;stroke-width:1.5875;stroke-linecap:butt;stroke-linejoin:miter;stroke-opacity:1;stroke-miterlimit:4;stroke-dasharray:none"
       d="m 53.357904,252.16106 -4.137155,-4.62197"
       id="path2882"
       inkscape:connector-curvature="0" />
    <path
       style="display:inline;fill:none;stroke:#000000;stroke-width:1.5875;stroke-linecap:butt;stroke-linejoin:miter;stroke-opacity:1;stroke-miterlimit:4;stroke-dasharray:none"
       d="m 38.296072,217.8356 3.943227,4.84822"
       id="path2868"
       inkscape:connector-curvature="0" />
    <path
       style="display:inline;fill:none;stroke:#000000;stroke-width:1.5875;stroke-linecap:butt;stroke-linejoin:miter;stroke-opacity:1;stroke-miterlimit:4;stroke-dasharray:none"
       d="m 47.022885,218.54668 c 2.36622,-0.4997 4.707025,2.55835 6.593592,4.13714"
       id="path2870"
       inkscape:connector-curvature="0"
       sodipodi:nodetypes="cc" />
  </g>
</svg>
