<?xml version="1.0" encoding="UTF-8" standalone="no"?>
<!-- Created with Inkscape (http://www.inkscape.org/) -->

<svg
   xmlns:dc="http://purl.org/dc/elements/1.1/"
   xmlns:cc="http://creativecommons.org/ns#"
   xmlns:rdf="http://www.w3.org/1999/02/22-rdf-syntax-ns#"
   xmlns:svg="http://www.w3.org/2000/svg"
   xmlns="http://www.w3.org/2000/svg"
   xmlns:sodipodi="http://sodipodi.sourceforge.net/DTD/sodipodi-0.dtd"
   xmlns:inkscape="http://www.inkscape.org/namespaces/inkscape"
   version="1.1"
   width="480"
   height="480"
   id="svg2985"
   inkscape:version="0.48.3.1 r9886"
   sodipodi:docname="bq.svg">
  <title
     id="title3883">Black Queenie</title>
  <sodipodi:namedview
     pagecolor="#ffffff"
     bordercolor="#666666"
     borderopacity="1"
     objecttolerance="10"
     gridtolerance="10"
     guidetolerance="10"
     inkscape:pageopacity="0"
     inkscape:pageshadow="2"
     inkscape:window-width="942"
     inkscape:window-height="480"
     id="namedview3881"
     showgrid="false"
     inkscape:zoom="0.49166667"
     inkscape:cx="240"
     inkscape:cy="240"
     inkscape:window-x="0"
     inkscape:window-y="0"
     inkscape:window-maximized="0"
     inkscape:current-layer="svg2985" />
  <defs
     id="defs2987" />
  <metadata
     id="metadata2990">
    <rdf:RDF>
      <cc:Work
         rdf:about="">
        <dc:format>image/svg+xml</dc:format>
        <dc:type
           rdf:resource="http://purl.org/dc/dcmitype/StillImage" />
        <dc:title>Black Queenie</dc:title>
        <cc:license
           rdf:resource="http://creativecommons.org/licenses/publicdomain/" />
        <dc:date>6.1.2013</dc:date>
        <dc:creator>
          <cc:Agent>
            <dc:title>James Kilfinger+alfons z!</dc:title>
          </cc:Agent>
        </dc:creator>
        <dc:source>http://openfontlibrary.org/assets/downloads/chess/dd244e4b50bb954610bc0b2372ce2e18/chess.zip</dc:source>
      </cc:Work>
      <cc:License
         rdf:about="http://creativecommons.org/licenses/publicdomain/">
        <cc:permits
           rdf:resource="http://creativecommons.org/ns#Reproduction" />
        <cc:permits
           rdf:resource="http://creativecommons.org/ns#Distribution" />
        <cc:permits
           rdf:resource="http://creativecommons.org/ns#DerivativeWorks" />
      </cc:License>
    </rdf:RDF>
  </metadata>
  <g
     id="layer1">
    <path
       d="m 183.1875,76 c -16.72674,0 -30.21875,14.569113 -30.21875,32.375 0,17.80589 13.49201,32.375 30.21875,32.375 16.72674,0 30.21875,-14.56911 30.21875,-32.375 C 213.40625,90.569113 199.91424,76 183.1875,76 z M 293.25,76 c -16.72674,0 -30.21875,14.569113 -30.21875,32.375 0,17.80589 13.49201,32.375 30.21875,32.375 16.72674,0 30.21875,-14.56911 30.21875,-32.375 C 323.46875,90.569113 309.97674,76 293.25,76 z M 53.6875,146.15625 c -16.726742,0 -30.21875,14.56911 -30.21875,32.375 0,17.80589 13.492008,32.375 30.21875,32.375 16.726742,0 30.21875,-14.56911 30.21875,-32.375 0,-17.80589 -13.492008,-32.375 -30.21875,-32.375 z m 369.0625,0 c -16.72674,0 -30.21875,14.56911 -30.21875,32.375 0,17.80589 13.49201,32.375 30.21875,32.375 16.72674,0 30.21875,-14.56911 30.21875,-32.375 0,-17.80589 -13.49201,-32.375 -30.21875,-32.375 z M 187.5,153.6875 c -5.9353,99.28131 -19.42526,123.03125 -32.375,123.03125 -18.88503,0 -55.5776,-30.7651 -80.9375,-56.125 14.028881,43.16579 26.96875,87.9531 26.96875,137.59375 l 0,12.4375 c 50.7198,-24.82033 81.48655,-36.71875 137.0625,-36.71875 55.57595,0 86.3427,11.89842 137.0625,36.71875 l 0,-12.4375 c 0,-49.64065 12.93987,-94.42796 26.96875,-137.59375 -25.3599,25.3599 -62.05247,56.125 -80.9375,56.125 -12.94974,0 -26.4397,-23.21037 -32.375,-123.03125 -26.97862,57.19467 -23.74013,86.34375 -50.71875,86.34375 -22.66204,0 -23.74013,-29.14908 -50.71875,-86.34375 z m 50.71875,233.09375 c -77.69842,0 -145.686285,29.16132 -188.3125,73.40625 l 379.84375,0 C 387.12379,415.94257 315.91717,386.78125 238.21875,386.78125 z"
       id="text3432"
       style="font-size:539.57287598px;font-style:normal;font-variant:normal;font-weight:bold;font-stretch:normal;text-align:start;line-height:125%;letter-spacing:0px;word-spacing:0px;writing-mode:lr-tb;text-anchor:start;fill:#000000;fill-opacity:1;stroke:none;font-family:chess;-inkscape-font-specification:chess Bold" />
  </g>
</svg>
