<?xml version="1.0" encoding="UTF-8" standalone="no"?>
<!-- Created with Inkscape (http://www.inkscape.org/) -->

<svg
   xmlns:dc="http://purl.org/dc/elements/1.1/"
   xmlns:cc="http://creativecommons.org/ns#"
   xmlns:rdf="http://www.w3.org/1999/02/22-rdf-syntax-ns#"
   xmlns:svg="http://www.w3.org/2000/svg"
   xmlns="http://www.w3.org/2000/svg"
   xmlns:sodipodi="http://sodipodi.sourceforge.net/DTD/sodipodi-0.dtd"
   xmlns:inkscape="http://www.inkscape.org/namespaces/inkscape"
   version="1.1"
   width="480"
   height="480"
   id="svg2985"
   inkscape:version="0.48.3.1 r9886"
   sodipodi:docname="wn.svg">
  <title
     id="title4199">White Knight</title>
  <sodipodi:namedview
     pagecolor="#ffffff"
     bordercolor="#666666"
     borderopacity="1"
     objecttolerance="10"
     gridtolerance="10"
     guidetolerance="10"
     inkscape:pageopacity="0"
     inkscape:pageshadow="2"
     inkscape:window-width="1280"
     inkscape:window-height="790"
     id="namedview4171"
     showgrid="false"
     inkscape:zoom="1.9666667"
     inkscape:cx="183.00037"
     inkscape:cy="126.78461"
     inkscape:window-x="0"
     inkscape:window-y="0"
     inkscape:window-maximized="0"
     inkscape:current-layer="svg2985" />
  <defs
     id="defs2987" />
  <metadata
     id="metadata2990">
    <rdf:RDF>
      <cc:Work
         rdf:about="">
        <dc:format>image/svg+xml</dc:format>
        <dc:type
           rdf:resource="http://purl.org/dc/dcmitype/StillImage" />
        <dc:title>White Knight</dc:title>
        <cc:license
           rdf:resource="http://creativecommons.org/licenses/publicdomain/" />
        <dc:date>6.1.2013</dc:date>
        <dc:creator>
          <cc:Agent>
            <dc:title>James Kilfinger+alfons z!</dc:title>
          </cc:Agent>
        </dc:creator>
        <dc:source>http://openfontlibrary.org/assets/downloads/chess/dd244e4b50bb954610bc0b2372ce2e18/chess.zip</dc:source>
      </cc:Work>
      <cc:License
         rdf:about="http://creativecommons.org/licenses/publicdomain/">
        <cc:permits
           rdf:resource="http://creativecommons.org/ns#Reproduction" />
        <cc:permits
           rdf:resource="http://creativecommons.org/ns#Distribution" />
        <cc:permits
           rdf:resource="http://creativecommons.org/ns#DerivativeWorks" />
      </cc:License>
    </rdf:RDF>
  </metadata>
  <g
     id="layer1">
    <path
       d="m 155.25,69.46875 -4.40625,6.375 c -1.96323,3.435649 -2.4375,7.367658 -2.4375,10.3125 0,7.852912 4.90625,20.61399 4.90625,25.03125 0,5.88968 -1.96508,9.81802 -3.4375,11.78125 -8.83453,14.72421 -29.46881,7.35301 -46.15625,24.53125 -22.086314,22.57712 -27.972484,43.66921 -43.1875,67.71875 -8.343719,13.25179 -25.5,21.12324 -25.5,42.71875 l 0,2.4375 c 7.852912,10.30695 16.669177,28.48347 32.375,30.9375 l 1,0 c 20.123086,0 16.672879,-18.64339 39.25,-19.625 l 0.96875,0 c 6.38049,0 15.21326,1.9375 21.59375,1.9375 26.99438,0 31.43753,-22.08274 39.78125,-26.5 0.98161,-0.49081 1.95589,-0.96875 2.9375,-0.96875 3.92646,0 8.84375,3.42834 8.84375,11.28125 0,14.72421 -18.64894,20.61772 -29.9375,40.25 -12.76098,22.08631 -20.13055,32.38614 -30.4375,61.34375 l -6.375,17.1875 16.6875,-8.34375 c 33.86568,-17.17824 70.64903,-25.03125 106.96875,-25.03125 37.30133,0 74.11593,8.34381 107,25.03125 L 357,373.75 356.5,361.5 c -0.49081,-25.03116 -3.9375,-41.7243 -3.9375,-52.03125 0,-22.08631 1.46875,-43.671 1.46875,-54.46875 0,-44.17263 -14.23359,-67.73356 -50.0625,-95.21875 C 275.50195,137.69494 251.94657,134.25728 219.0625,114.625 195.99457,100.8824 184.72418,90.07163 161.65625,73.875 L 155.25,69.46875 z M 164.59375,94.5 c 15.21502,11.77937 26.99272,21.09563 46.625,32.875 33.37487,20.12309 56.94312,23.57361 83.9375,44.1875 30.92084,23.55873 44.15625,42.70052 44.15625,83.4375 0,10.79775 -1.46875,32.38244 -1.46875,54.46875 0,10.79775 2.45589,23.07176 3.4375,40.25 C 308.39718,335.48535 273.5348,328.125 238.6875,328.125 c -32.88407,0 -65.7446,6.36402 -97.15625,19.125 6.8713,-15.70582 12.75555,-24.0497 23.0625,-41.71875 C 174.40989,288.84381 196.5,279.52381 196.5,257.4375 c -1.47242,-23.06793 -17.68568,-26 -22.59375,-26 -25.03116,0.98161 -20.12877,27.46875 -43.6875,27.46875 -6.38049,0 -12.74084,-1.96875 -20.59375,-1.96875 l -1.96875,0 c -27.975998,0.98161 -30.419145,19.65625 -37.78125,19.65625 -3.926456,0 -9.327247,-5.41918 -20.125,-21.125 0.981614,-12.76098 13.255554,-16.17837 23.5625,-32.375 17.178244,-26.99438 21.095664,-45.16736 41.21875,-65.78125 12.76098,-13.25179 35.33277,-5.3953 48.09375,-26.5 4.90807,-8.34372 5.40625,-15.69854 5.40625,-19.625 0,-4.41726 -1.96508,-11.288623 -3.4375,-16.6875 z m -30.9375,77.53125 c -8.34372,0 -14.71875,6.88422 -14.71875,15.71875 0,8.83453 6.37503,15.71875 14.71875,15.71875 8.34372,0 14.75,-6.88422 14.75,-15.71875 0,-8.83453 -6.40628,-15.71875 -14.75,-15.71875 z m 105.03125,206.625 c -72.63943,0 -136.44133,27.50016 -176.6875,69.21875 l -11.78125,12.28125 379.90625,0 L 418.34375,447.875 C 378.09758,405.6656 311.32693,378.65625 238.6875,378.65625 z m 0,14.75 c 61.35087,0 117.80161,20.58835 155.59375,52 l -308.21875,0 c 37.30133,-31.41165 91.27413,-52 152.625,-52 z"
       id="text3504"
       style="font-size:490.8074646px;font-style:normal;font-variant:normal;font-weight:bold;font-stretch:normal;text-align:start;line-height:125%;letter-spacing:0px;word-spacing:0px;writing-mode:lr-tb;text-anchor:start;fill:#000000;fill-opacity:1;stroke:none;font-family:chess;-inkscape-font-specification:chess Bold" />
  </g>
  <path
     style="color:#000000;fill:#ececec;fill-opacity:1;fill-rule:nonzero;stroke:#ffffff;stroke-width:2.54237294;stroke-linecap:round;stroke-linejoin:round;stroke-miterlimit:4;stroke-opacity:1;stroke-dasharray:none;stroke-dashoffset:0;marker:none;visibility:visible;display:inline;overflow:visible;enable-background:accumulate"
     d="m 334.52579,346.67709 c -17.49527,-7.29592 -43.88237,-14.1773 -64.0678,-16.70797 -20.24742,-2.53844 -43.70315,-2.54322 -63.81356,-0.013 -20.0106,2.51766 -39.59069,7.41471 -59.6899,14.92864 -2.3464,0.87718 -4.36611,1.49495 -4.48824,1.37281 -0.93543,-0.93542 22.14779,-41.18254 26.69995,-46.55313 1.3164,-1.55306 6.19975,-6.75859 10.8519,-11.56783 9.37883,-9.69553 12.44713,-13.86343 14.80033,-20.10437 1.41635,-3.75632 1.58848,-4.8055 1.60779,-9.79991 0.0337,-8.72069 -2.16029,-14.89407 -7.15398,-20.12943 -6.5895,-6.9084 -16.58198,-8.69487 -25.45327,-4.55057 -4.03779,1.8863 -7.44393,5.07695 -12.23362,11.45966 -4.71521,6.28347 -6.83355,8.53932 -9.77146,10.40576 -4.92359,3.12793 -10.76506,3.75684 -21.14031,2.27604 -11.4836,-1.63899 -21.440674,-0.873 -29.08377,2.23737 -4.88127,1.98647 -7.80496,4.12441 -13.335246,9.75143 -6.059652,6.16563 -7.042376,6.82348 -9.503562,6.36176 -2.539702,-0.47645 -7.736456,-5.72298 -13.808667,-13.94092 -5.423791,-7.34039 -5.530869,-7.8289 -2.878286,-13.1311 1.405768,-2.80996 3.444438,-5.29164 9.788135,-11.91514 10.517633,-10.98152 14.14121,-16.50016 27.328943,-41.62145 9.685523,-18.44994 15.943393,-27.7687 24.584743,-36.60977 5.50528,-5.63253 8.50128,-7.13345 21.21251,-10.62697 10.36168,-2.84778 12.52797,-3.62993 16.49652,-5.95615 7.37771,-4.32453 12.34217,-10.98311 15.3244,-20.55385 1.71868,-5.51565 1.63462,-14.09643 -0.20399,-20.82365 -0.72524,-2.653547 -1.23212,-4.91112 -1.12641,-5.016831 0.10571,-0.105712 2.20581,1.389297 4.6669,3.322242 11.22021,8.812399 24.39765,18.118119 35.23741,24.884159 13.90432,8.67891 24.00633,13.84714 49.06779,25.1033 21.2203,9.53094 31.71721,15.65291 45,26.24473 26.93245,21.47618 36.9952,39.23347 39.22398,69.21687 0.4797,6.45337 0.47866,11.77289 -0.005,24.40678 -1.4707,38.43312 -1.42889,41.41602 0.90714,64.71422 1.4532,14.4934 1.4965,15.26053 0.85836,15.2085 -0.30853,-0.0252 -2.9635,-1.04766 -5.89994,-2.27222 l -2.2e-4,0 z M 140.21862,202.00054 c 5.78122,-2.8889 8.50241,-8.06124 8.09967,-15.39554 -0.32982,-6.0063 -2.69753,-10.12839 -7.40095,-12.88478 -1.86687,-1.09406 -3.13421,-1.39959 -6.54902,-1.57882 -3.80724,-0.19983 -4.51345,-0.0856 -7.00358,1.1327 -3.0435,1.48904 -5.29257,3.75652 -6.99142,7.04864 -1.31913,2.5563 -1.85188,9.17137 -0.99432,12.34646 1.18082,4.37196 5.22991,8.76712 9.46882,10.27809 0.83899,0.29906 3.03337,0.56181 4.87642,0.58389 2.77668,0.0332 3.88972,-0.22907 6.49438,-1.53064 l 0,0 z"
     id="path3485"
     inkscape:connector-curvature="0" />
  <path
     style="color:#000000;fill:#ececec;fill-opacity:1;fill-rule:nonzero;stroke:#ffffff;stroke-width:2.54237294;stroke-linecap:round;stroke-linejoin:round;stroke-miterlimit:4;stroke-opacity:1;stroke-dasharray:none;stroke-dashoffset:0;marker:none;visibility:visible;display:inline;overflow:visible;enable-background:accumulate"
     d="m 91.260353,441.66664 c 27.925527,-22.05325 64.081797,-37.56789 102.926457,-44.16568 17.35437,-2.94765 22.78131,-3.35245 44.74576,-3.33766 21.46759,0.0145 26.56756,0.37836 43.22034,3.08392 40.35209,6.55596 77.83527,22.09052 106.47567,44.12789 l 5.035,3.87418 -153.46993,0 -153.46992,0 4.536623,-3.58265 z"
     id="path3487"
     inkscape:connector-curvature="0" />
</svg>
