<?xml version="1.0" encoding="UTF-8" standalone="no"?>
<svg
   xmlns:dc="http://purl.org/dc/elements/1.1/"
   xmlns:cc="http://creativecommons.org/ns#"
   xmlns:rdf="http://www.w3.org/1999/02/22-rdf-syntax-ns#"
   xmlns:svg="http://www.w3.org/2000/svg"
   xmlns="http://www.w3.org/2000/svg"
   xmlns:sodipodi="http://sodipodi.sourceforge.net/DTD/sodipodi-0.dtd"
   xmlns:inkscape="http://www.inkscape.org/namespaces/inkscape"
   viewBox="0 -410 2048 2048"
   id="svg2"
   version="1.1"
   inkscape:version="0.48.2 r9819"
   width="100%"
   height="100%"
   sodipodi:docname="bb.svg">
  <metadata
     id="metadata12">
    <rdf:RDF>
      <cc:Work
         rdf:about="">
        <dc:format>image/svg+xml</dc:format>
        <dc:type
           rdf:resource="http://purl.org/dc/dcmitype/StillImage" />
      </cc:Work>
    </rdf:RDF>
  </metadata>
  <defs
     id="defs10" />
  <sodipodi:namedview
     pagecolor="#ffffff"
     bordercolor="#666666"
     borderopacity="1"
     objecttolerance="10"
     gridtolerance="10"
     guidetolerance="10"
     inkscape:pageopacity="0"
     inkscape:pageshadow="2"
     inkscape:window-width="640"
     inkscape:window-height="729"
     id="namedview8"
     showgrid="false"
     inkscape:zoom="0.11523438"
     inkscape:cx="1024"
     inkscape:cy="1024"
     inkscape:window-x="0"
     inkscape:window-y="0"
     inkscape:window-maximized="0"
     inkscape:current-layer="svg2" />
  <g
     transform="matrix(1 0 0 -1 0 1638)"
     id="g4">
    <path
       fill="#000000"
       d="M665 442h718q50 0 50 -50v0q0 -50 -50 -50h-718q-50 0 -50 50v0q0 50 50 50zM905 135h-145.5h-144.5q-34 0 -47.5 52t-34.5 87q111 0 221.5 -0.5t221.5 -1.5q-18 -36 -20.5 -89.5t-50.5 -47.5zM1142 135q-45 -5 -48.5 48t-21.5 89q109 1 220.5 1.5t222.5 0.5 q-21 -35 -35 -87t-48 -52h-144.5h-145.5zM1074 1588l-1 -44q207 -17 350.5 -160t143.5 -338q0 -87 -35 -185q-48 -74 -86 -157t-45 -188h-377.5h-376.5q-11 112 -46 185.5t-84 156.5q-36 93 -36 188q0 195 143.5 338t350.5 160l-1 44q-83 32 -83 93q0 38 38.5 65.5 t92.5 27.5t93 -27.5t39 -65.5q0 -63 -80 -93zM956 688h135l36 310l135 32v136l-135 36l-36 171h-135l-35 -171l-135 -36v-136l135 -32z"
       id="path6" />
  </g>
  <path
     style="fill:#e6e6e6;fill-opacity:1;stroke:none"
     d="m 959.25967,1346.3864 c -1.89742,-5.9661 -10.20947,-76.2012 -18.47122,-156.0779 l -15.02137,-145.2306 -68.37321,-14.6926 -68.3732,-14.6927 2.50661,-65.37996 2.50662,-65.37995 66.11209,-17.20321 66.11208,-17.20321 15.67382,-85.42463 15.67382,-85.42463 65.58609,2.50726 65.5862,2.50726 16.9383,83.03629 16.9384,83.03631 65.6557,17.08428 65.6557,17.08428 2.5066,65.37995 2.5066,65.37996 -68.2129,14.6582 -68.2129,14.6582 -15.2738,140.926 c -8.4006,77.5093 -17.1705,147.7599 -19.4887,156.1125 -3.4986,12.6059 -14.4836,15.1864 -64.6481,15.1864 -40.72147,0 -61.55863,-3.5382 -63.88323,-10.8475 z"
     id="path2989"
     inkscape:connector-curvature="0"
     transform="translate(0,-410)" />
</svg>
