<?xml version="1.0" encoding="UTF-8" standalone="no"?>
<svg
   xmlns:dc="http://purl.org/dc/elements/1.1/"
   xmlns:cc="http://creativecommons.org/ns#"
   xmlns:rdf="http://www.w3.org/1999/02/22-rdf-syntax-ns#"
   xmlns:svg="http://www.w3.org/2000/svg"
   xmlns="http://www.w3.org/2000/svg"
   xmlns:sodipodi="http://sodipodi.sourceforge.net/DTD/sodipodi-0.dtd"
   xmlns:inkscape="http://www.inkscape.org/namespaces/inkscape"
   viewBox="0 -410 2048 2048"
   id="svg2"
   version="1.1"
   inkscape:version="0.48.2 r9819"
   width="100%"
   height="100%"
   sodipodi:docname="bk.svg">
  <metadata
     id="metadata12">
    <rdf:RDF>
      <cc:Work
         rdf:about="">
        <dc:format>image/svg+xml</dc:format>
        <dc:type
           rdf:resource="http://purl.org/dc/dcmitype/StillImage" />
      </cc:Work>
    </rdf:RDF>
  </metadata>
  <defs
     id="defs10" />
  <sodipodi:namedview
     pagecolor="#ffffff"
     bordercolor="#666666"
     borderopacity="1"
     objecttolerance="10"
     gridtolerance="10"
     guidetolerance="10"
     inkscape:pageopacity="0"
     inkscape:pageshadow="2"
     inkscape:window-width="640"
     inkscape:window-height="666"
     id="namedview8"
     showgrid="false"
     inkscape:zoom="0.11523438"
     inkscape:cx="1024"
     inkscape:cy="1024"
     inkscape:window-x="0"
     inkscape:window-y="0"
     inkscape:window-maximized="0"
     inkscape:current-layer="svg2" />
  <g
     transform="matrix(1 0 0 -1 0 1638)"
     id="g4">
    <path
       fill="#000000"
       d="M461 135q-48 0 -66.5 52t-46.5 87h675h677q-28 -35 -47 -87t-66 -52h-565h-561zM410 1276q-89 -53 -38 -141l101 -174q50 -89 140 -38h1q89 52 37 141l-100 174q-53 88 -141 38v0zM1638 1275q-91 52 -141 -37l-101 -174q-51 -89 38 -141v0q89 -52 141 38l100 174 q52 88 -37 140v0zM1024 1467q-103 0 -103 -103v-201q0 -103 103 -103v0q103 0 103 103v201q0 103 -103 103v0zM1452 682q-76 94 -187.5 150t-240.5 56q-130 0 -241 -56t-186 -150h855zM1127 563v-103h135v103h-135zM786 563v-103h135v103h-135zM444 563v-103h136v103h-136z M1468 563v-103h135v103h-135zM1060 1638h98q71 0 121.5 -50.5t50.5 -120.5v-114l43 75q35 61 103.5 79.5t130.5 -16.5l233 -134q60 -36 79 -105t-17 -129l-203 -353q-55 -93 -163 -89h103q55 0 95 -40t40 -95v-69q0 -56 -40 -95.5t-95 -39.5h-1230q-56 0 -95.5 39.5 t-39.5 95.5v69q0 55 39.5 95t95.5 40h103q-110 -4 -163 90l-203 352q-36 61 -17.5 129.5t79.5 104.5l233 134q60 35 129 16.5t105 -78.5l44 -77l-1 115q0 70 50 120.5t122 50.5h99l-17 86l-83 18v67l83 16l16 85h71l16 -85l84 -16v-67l-84 -18z"
       id="path6" />
  </g>
  <path
     style="fill:#e6e6e6;fill-opacity:1;stroke:none"
     d="m 1475.2542,1538.6034 0,-47.7288 60.7458,0 60.7458,0 0,47.7288 0,47.7288 -60.7458,0 -60.7458,0 0,-47.7288 z"
     id="path2989"
     inkscape:connector-curvature="0"
     transform="translate(0,-410)" />
  <path
     style="fill:#e6e6e6;fill-opacity:1;stroke:none"
     d="m 1128.1356,1538.6034 0,-47.7288 65.0847,0 65.0848,0 0,47.7288 0,47.7288 -65.0848,0 -65.0847,0 0,-47.7288 z"
     id="path2991"
     inkscape:connector-curvature="0"
     transform="translate(0,-410)" />
  <path
     style="fill:#e6e6e6;fill-opacity:1;stroke:none"
     d="m 789.69492,1538.6034 0,-47.7288 65.08474,0 65.08475,0 0,47.7288 0,47.7288 -65.08475,0 -65.08474,0 0,-47.7288 z"
     id="path2993"
     inkscape:connector-curvature="0"
     transform="translate(0,-410)" />
  <path
     style="fill:#e6e6e6;fill-opacity:1;stroke:none"
     d="m 451.25424,1538.6034 0,-47.7288 60.74576,0 60.74576,0 0,47.7288 0,47.7288 -60.74576,0 -60.74576,0 0,-47.7288 z"
     id="path2995"
     inkscape:connector-curvature="0"
     transform="translate(0,-410)" />
  <path
     style="fill:#e6e6e6;fill-opacity:1;stroke:none"
     d="m 621.87421,1347.17 c 8.42861,-21.9646 105.74751,-96.2424 163.07159,-124.463 79.06454,-38.9233 145.73967,-53.9786 239.0542,-53.9786 93.5918,0 159.9911,15.056 239.9082,54.3991 55.205,27.1773 167.9562,113.8374 167.9562,129.0905 0,5.4103 -147.7601,8.4871 -407.592,8.4871 -365.67351,0 -407.05793,-1.392 -402.39819,-13.5351 z"
     id="path2997"
     inkscape:connector-curvature="0"
     transform="translate(0,-410)" />
  <path
     style="fill:#e6e6e6;fill-opacity:1;stroke:none"
     d="M 497.27507,1106.3758 C 471.11279,1076.5786 370.35264,901.59832 360.8022,869.37671 c -13.12624,-44.28573 36.35413,-96.66068 99.29403,-105.10269 30.13095,-4.04141 37.39766,-1.18489 62.94805,24.74468 42.40313,43.03238 139.95233,221.5985 139.95233,256.186 0,32.6343 -19.02766,56.8899 -59.80892,76.2419 -46.44927,22.0416 -77.16498,17.671 -105.91262,-15.0708 l 0,0 z"
     id="path2999"
     inkscape:connector-curvature="0"
     transform="translate(0,-410)" />
  <path
     style="fill:#e6e6e6;fill-opacity:1;stroke:none"
     d="M 962.50223,967.75113 C 933.03772,945.12899 928.54237,920.16797 928.54237,779.18432 l 0,-140.08549 25.36637,-25.36637 C 975.3828,592.2584 986.13784,588.3661 1024,588.3661 c 37.8622,0 48.6172,3.8923 70.0913,25.36636 l 25.3663,25.36637 0,140.08549 c 0,181.02603 -8.6821,199.13828 -95.4576,199.13828 -26.25085,0 -53.92484,-4.75716 -61.49777,-10.57147 l 0,0 z"
     id="path3001"
     inkscape:connector-curvature="0"
     transform="translate(0,-410)" />
  <path
     style="fill:#e6e6e6;fill-opacity:1;stroke:none"
     d="m 1425.6216,1109.8105 c -60.8873,-44.1066 -58.1623,-65.1849 27.7223,-214.43541 77.7479,-135.11059 103.7912,-153.06043 173.8438,-119.81832 77.2982,36.6804 78.042,72.06681 4.2735,203.31147 -73.2159,130.26156 -96.2137,156.20976 -138.448,156.20976 -22.1323,0 -43.6459,-8.0662 -67.3916,-25.2675 z"
     id="path3003"
     inkscape:connector-curvature="0"
     transform="translate(0,-410)" />
</svg>
