<?xml version="1.0" encoding="UTF-8" standalone="no"?>
<svg
   xmlns:dc="http://purl.org/dc/elements/1.1/"
   xmlns:cc="http://creativecommons.org/ns#"
   xmlns:rdf="http://www.w3.org/1999/02/22-rdf-syntax-ns#"
   xmlns:svg="http://www.w3.org/2000/svg"
   xmlns="http://www.w3.org/2000/svg"
   xmlns:sodipodi="http://sodipodi.sourceforge.net/DTD/sodipodi-0.dtd"
   xmlns:inkscape="http://www.inkscape.org/namespaces/inkscape"
   viewBox="0 -410 2048 2048"
   id="svg2"
   version="1.1"
   inkscape:version="0.48.2 r9819"
   width="100%"
   height="100%"
   sodipodi:docname="bn.svg">
  <metadata
     id="metadata12">
    <rdf:RDF>
      <cc:Work
         rdf:about="">
        <dc:format>image/svg+xml</dc:format>
        <dc:type
           rdf:resource="http://purl.org/dc/dcmitype/StillImage" />
      </cc:Work>
    </rdf:RDF>
  </metadata>
  <defs
     id="defs10" />
  <sodipodi:namedview
     pagecolor="#ffffff"
     bordercolor="#666666"
     borderopacity="1"
     objecttolerance="10"
     gridtolerance="10"
     guidetolerance="10"
     inkscape:pageopacity="0"
     inkscape:pageshadow="2"
     inkscape:window-width="640"
     inkscape:window-height="724"
     id="namedview8"
     showgrid="false"
     inkscape:zoom="0.17727627"
     inkscape:cx="645.74692"
     inkscape:cy="751.27039"
     inkscape:window-x="0"
     inkscape:window-y="0"
     inkscape:window-maximized="0"
     inkscape:current-layer="svg2" />
  <g
     transform="matrix(1 0 0 -1 0 1638)"
     id="g4">
    <path
       fill="#000000"
       d="M392 1194q36 66 78.5 130.5t53.5 142.5q54 18 87.5 59t65.5 87l183 -115q-5 -4 -5 -17q0 -36 21 -60q-75 -223 -304 -431q-36 30 -90 82t-90 122zM1555 717q25 12 29 35q5 36 -19 49q-160 -60 -373.5 -55t-418.5 109q22 25 47.5 51t46.5 54q32 34 33 42l-12 -5t-12 -9 q-22 -10 -47.5 -21.5t-52.5 -17.5q-54 8 -111 -26q-31 21 -39 29q216 204 306 431q20 -2 24 -2q100 0 100 100q0 35 -22 56l79 113q45 -20 79 -37q125 -55 237 6q-28 -48 -62 -77q-16 -12 -35 -24q114 -107 261 -58q-31 -40 -74 -65q-15 -9 -50 -24q81 -138 239 -128 q-43 -32 -89 -43q-29 -9 -49 -7q41 -153 196 -183q-50 -19 -97 -19q-23 0 -45 3q0 -11 4 -31q-2 -69 -3 -120q61 -63 141 -79q-50 -19 -97 -19q-17 0 -51 4q-8 -50 -18 -105q60 -68 146 -85q-50 -19 -98 -19q-39 0 -92 16q-11 -18 -28 -43h-957q-60 0 -62 52t67 115 q30 35 65 67t70 62q211 -120 439.5 -134.5t404.5 42.5zM616 870q-29 -27 -62 -49.5t-73 -25.5q-10 0 -30 -5t-20 5q-18 -4 -30 2t-30 9q-22 5 -63 51.5t-53 66.5q-15 60 22 109.5t76 98.5q37 -68 126 -151t137 -111zM715 1670q4 3 17 18q13 42 11.5 90t-8.5 92q23 17 100 5 q14 -3 35 -9q48 -27 90.5 -72t60.5 -102q22 -10 34 -15l-72 -100q-10 4 -27 4q-40 0 -62 -25zM608 1378q-45 -76 -7 -97q38 -22 82 55q44 75 8 97q-39 20 -83 -55zM576 135q-39 0 -54 52t-37 87h545h546q-24 -35 -39 -87t-53 -52h-455.5h-452.5zM1527 442q50 0 50 -50v0 q0 -50 -50 -50h-995q-50 0 -50 50v0q0 50 50 50h995z"
       id="path6" />
  </g>
  <path
     style="fill:none;stroke:#000000;stroke-width:1px;stroke-linecap:butt;stroke-linejoin:miter;stroke-opacity:1"
     d="m 711.86962,1244.5549 c 69.11355,-55.2908 69.11355,-55.2908 69.11355,-55.2908"
     id="path3027"
     inkscape:connector-curvature="0"
     transform="translate(0,-410)" />
  <path
     style="fill:#e6e6e6;fill-opacity:1;stroke:none"
     d="m 1183.7847,1374.5345 c -139.5527,-6.1849 -267.17994,-37.2464 -392.71444,-95.5775 -20.15309,-9.3644 -69.55111,-34.7053 -72.48212,-37.1829 -0.22435,-0.1897 12.50556,-10.6783 28.28869,-23.3081 l 28.69659,-22.9632 27.86607,13.0303 c 100.9424,47.2012 203.39411,76.812 305.76321,88.3724 78.1886,8.8297 185.6518,7.4753 267.236,-3.3679 55.9748,-7.4396 115.0585,-20.7505 161.4379,-36.3702 l 27.5304,-9.2717 7.2594,7.2595 c 18.2565,18.2564 14.078,52.4717 -8.396,68.7519 -8.2281,5.9604 -24.196,11.2679 -64.7359,21.5173 -48.9211,12.3684 -99.0348,20.5827 -158.5165,25.983 -26.3949,2.3964 -128.0871,4.4189 -157.2333,3.1271 l 0,0 z"
     id="path3029"
     inkscape:connector-curvature="0"
     transform="translate(0,-410)" />
  <path
     style="fill:none;stroke:#000000;stroke-width:1px;stroke-linecap:butt;stroke-linejoin:miter;stroke-opacity:1"
     d="m 1047.0704,373.72413 c 70.8414,34.55678 69.1135,32.82894 69.1135,32.82894"
     id="path3033"
     inkscape:connector-curvature="0"
     transform="translate(0,-410)" />
  <path
     style="fill:none;stroke:#000000;stroke-width:1px;stroke-linecap:butt;stroke-linejoin:miter;stroke-opacity:1"
     d="m 677.31284,437.65417 c 44.92381,-62.2022 44.92381,-62.2022 44.92381,-62.2022"
     id="path3035"
     inkscape:connector-curvature="0"
     transform="translate(0,-410)" />
  <path
     style="fill:none;stroke:#000000;stroke-width:1px;stroke-linecap:butt;stroke-linejoin:miter;stroke-opacity:1"
     d="m 609.92712,1180.6249 c 58.74652,-63.9301 58.74652,-63.9301 58.74652,-63.9301"
     id="path3037"
     inkscape:connector-curvature="0"
     transform="translate(0,-410)" />
  <path
     style="fill:none;stroke:#000000;stroke-width:1px;stroke-linecap:butt;stroke-linejoin:miter;stroke-opacity:1"
     d="m 350.75129,926.63257 c 48.37949,-70.84139 48.37949,-70.84139 48.37949,-70.84139"
     id="path3039"
     inkscape:connector-curvature="0"
     transform="translate(0,-410)" />
  <path
     style="fill:#e6e6e6;fill-opacity:1;stroke:none"
     d="M 600.83132,1166.7486 C 550.0614,1134.2384 445.04353,1037.4423 398.75164,980.48958 385.9923,964.79182 366.33474,937.21587 359.85086,925.91893 l -3.05757,-5.32723 19.56097,-28.77308 19.56097,-28.7731 5.04495,9.04665 c 17.13242,30.72208 41.6382,63.81442 66.76547,90.15938 29.36776,30.79093 100.57843,95.91185 104.93946,95.96525 3.00922,0.037 88.24215,-85.24076 109.63471,-109.69224 66.08971,-75.53989 111.8715,-141.306 149.14738,-214.25202 14.68784,-28.743 31.34334,-66.99118 40.36216,-92.68883 l 5.24195,-14.93608 -4.35754,-5.79798 c -5.84751,-7.7805 -11.93563,-21.64542 -14.43749,-32.87946 -1.79649,-8.06677 -1.67566,-27.39544 0.22821,-36.50582 0.5149,-2.46388 -17.97174,-14.8312 -88.66492,-59.31567 l -89.31544,-56.20274 19.26846,-26.69009 c 10.59766,-14.67955 20.07728,-26.37465 21.06581,-25.98913 0.98855,0.38553 40.21118,25.20975 87.16142,55.16495 l 85.36409,54.46398 8.80313,-6.99726 c 12.13228,-9.64345 24.31755,-14.68406 40.36047,-16.69567 12.29245,-1.54135 30.90288,-0.40635 38.5991,2.35405 1.61346,0.5787 13.2889,-14.32756 35.24179,-44.99378 18.0559,-25.22256 33.6064,-46.47172 34.5567,-47.22037 0.9503,-0.74865 14.0143,4.55044 29.031,11.77575 l 27.3031,13.13693 -37.1463,53.25098 -37.1464,53.25098 7.695,10.45287 c 10.8474,14.73516 13.7501,25.43435 13.5058,49.78162 -0.3202,31.90962 -8.0742,54.01129 -24.6856,70.36271 -17.5073,17.23338 -37.62768,23.67497 -73.89448,23.65754 l -24.4965,-0.0121 -7.33309,17.35775 c -45.21616,107.02884 -111.95788,210.93652 -199.23627,310.18352 -9.58989,10.90491 -36.00333,38.68961 -58.69652,61.74371 l -41.26034,41.9165 4.1118,3.5487 c 2.2615,1.9517 10.13767,7.8599 17.50258,13.1291 7.36491,5.2693 13.39075,9.9682 13.39075,10.4421 0,1.2906 -45.37925,50.6917 -46.52614,50.6496 -0.54418,-0.02 -6.03966,-3.2701 -12.21217,-7.2227 l 0,4e-4 z"
     id="path3041"
     inkscape:connector-curvature="0"
     transform="translate(0,-410)" />
</svg>
