<?xml version="1.0" standalone="no"?>
<!DOCTYPE svg PUBLIC "-//W3C//DTD SVG 1.1//EN" "http://www.w3.org/Graphics/SVG/1.1/DTD/svg11.dtd" >
<svg viewBox="0 -410 2048 2048">
  <g transform="matrix(1 0 0 -1 0 1638)">
   <path fill="#000000"
d="M1154 1363h78q33 0 33 -34v0q0 -34 -33 -34h-416q-34 0 -34 34v0q0 34 34 34h77q-37 41 -37 104q0 69 49 118.5t119 49.5q69 0 118.5 -49.5t49.5 -118.5q0 -60 -38 -104zM1202 477h200q34 0 34 -33v0q0 -34 -34 -34h-757q-33 0 -33 34v0q0 33 33 33h199q-91 79 -91 204
q0 43 14 87l122 459h270l121 -459q15 -42 15 -87q0 -121 -93 -204zM754 135q-63 0 -85 77.5t-57 129.5h411h413q-36 -52 -58 -129.5t-84 -77.5h-281.5h-258.5z" />
  </g>

</svg>
