<?xml version="1.0" encoding="UTF-8" standalone="no"?>
<svg
   xmlns:dc="http://purl.org/dc/elements/1.1/"
   xmlns:cc="http://creativecommons.org/ns#"
   xmlns:rdf="http://www.w3.org/1999/02/22-rdf-syntax-ns#"
   xmlns:svg="http://www.w3.org/2000/svg"
   xmlns="http://www.w3.org/2000/svg"
   xmlns:sodipodi="http://sodipodi.sourceforge.net/DTD/sodipodi-0.dtd"
   xmlns:inkscape="http://www.inkscape.org/namespaces/inkscape"
   viewBox="0 -410 2048 2048"
   id="svg2"
   version="1.1"
   inkscape:version="0.48.2 r9819"
   width="100%"
   height="100%"
   sodipodi:docname="bq.svg">
  <metadata
     id="metadata12">
    <rdf:RDF>
      <cc:Work
         rdf:about="">
        <dc:format>image/svg+xml</dc:format>
        <dc:type
           rdf:resource="http://purl.org/dc/dcmitype/StillImage" />
      </cc:Work>
    </rdf:RDF>
  </metadata>
  <defs
     id="defs10" />
  <sodipodi:namedview
     pagecolor="#ffffff"
     bordercolor="#666666"
     borderopacity="1"
     objecttolerance="10"
     gridtolerance="10"
     guidetolerance="10"
     inkscape:pageopacity="0"
     inkscape:pageshadow="2"
     inkscape:window-width="640"
     inkscape:window-height="706"
     id="namedview8"
     showgrid="false"
     inkscape:zoom="0.11523438"
     inkscape:cx="1024"
     inkscape:cy="1024"
     inkscape:window-x="0"
     inkscape:window-y="0"
     inkscape:window-maximized="0"
     inkscape:current-layer="svg2" />
  <g
     transform="matrix(1 0 0 -1 0 1638)"
     id="g4">
    <path
       fill="#000000"
       d="M527 442h994q50 0 50 -50v0q0 -50 -50 -50h-994q-50 0 -50 50v0q0 50 50 50zM570 135q-39 0 -54 52t-37 87h544.5h545.5q-23 -35 -38 -87t-53 -52h-456h-452zM1024 1638q-57 0 -96.5 39.5t-39.5 96.5q0 56 39.5 96t96.5 40q56 0 95.5 -40t39.5 -96q0 -57 -39.5 -96.5 t-95.5 -39.5zM1024 1101q-26 -44 -52 -87t-51 -85q25 -43 51 -86t52 -85q25 42 51 85l52 86q-26 42 -52 85t-51 87zM580 1059q-5 75 -9.5 152t-9.5 155q119 -80 259 -169q102 204 204 405q51 -102 102.5 -204.5t102.5 -203.5q117 79 257 171q-5 -77 -8.5 -153.5t-7.5 -151.5 h185.5h185.5q-68 -137 -135.5 -273.5t-134.5 -273.5h-548h-547q-68 137 -135.5 273.5t-134.5 273.5q93 -1 186.5 -1h187.5zM1577 1387q-57 0 -96.5 39.5t-39.5 96.5q0 55 39.5 95t96.5 40q56 0 95.5 -40t39.5 -95q0 -57 -39.5 -96.5t-95.5 -39.5zM471 1387q-57 0 -96.5 39.5 t-39.5 96.5q0 55 39.5 95t96.5 40q56 0 95.5 -40t39.5 -95q0 -57 -39.5 -96.5t-95.5 -39.5zM611 894q23 -44 46.5 -88t47.5 -88h99h100q-24 43 -47 87t-46 89h-101h-99zM1437 895h-100.5h-99.5q-24 -45 -47 -89t-47 -88h100h100q23 44 46.5 88t47.5 89z"
       id="path6" />
  </g>
  <path
     style="fill:#e6e6e6;fill-opacity:1;stroke:none"
     d="m 666.0339,1248.2004 c -22.67119,-42.6128 -41.22034,-79.7723 -41.22034,-82.5768 0,-2.8044 41.97966,-3.9905 93.28813,-2.6358 l 93.28814,2.463 41.56534,80.2712 41.56534,80.2712 -93.63314,-0.1575 -93.63313,-0.1575 -41.22034,-77.4778 z"
     id="path2989"
     inkscape:connector-curvature="0"
     transform="translate(0,-410)" />
  <path
     style="fill:#e6e6e6;fill-opacity:1;stroke:none"
     d="m 973.16964,1196.3045 -45.95262,-77.6209 46.222,-78.3754 c 25.4221,-43.10646 48.17458,-78.35424 50.56098,-78.32836 2.3864,0.0259 25.0628,35.42336 50.3919,78.66106 l 46.0528,78.6141 -45.7835,77.3352 c -25.1809,42.5344 -47.9784,77.3352 -50.6612,77.3352 -2.6828,0 -25.55643,-34.9294 -50.83036,-77.6209 z"
     id="path2991"
     inkscape:connector-curvature="0"
     transform="translate(0,-410)" />
  <path
     style="fill:#e6e6e6;fill-opacity:1;stroke:none"
     d="m 1155.7789,1319.4847 c 1.6806,-3.5796 20.4492,-40.6779 41.7079,-82.4406 l 38.6523,-75.9322 94.2468,0 c 51.8358,0 92.9452,3.0762 91.3542,6.836 -1.5909,3.7599 -20.4655,40.8405 -41.9435,82.4015 l -39.0508,75.5653 -94.0113,0.039 c -51.7063,0.022 -92.6363,-2.8894 -90.9556,-6.4691 z"
     id="path2993"
     inkscape:connector-curvature="0"
     transform="translate(0,-410)" />
</svg>
