<?xml version="1.0" encoding="UTF-8" standalone="no"?>
<svg
   xmlns:dc="http://purl.org/dc/elements/1.1/"
   xmlns:cc="http://creativecommons.org/ns#"
   xmlns:rdf="http://www.w3.org/1999/02/22-rdf-syntax-ns#"
   xmlns:svg="http://www.w3.org/2000/svg"
   xmlns="http://www.w3.org/2000/svg"
   xmlns:sodipodi="http://sodipodi.sourceforge.net/DTD/sodipodi-0.dtd"
   xmlns:inkscape="http://www.inkscape.org/namespaces/inkscape"
   viewBox="0 -410 2048 2048"
   id="svg2"
   version="1.1"
   inkscape:version="0.48.2 r9819"
   width="100%"
   height="100%"
   sodipodi:docname="br.svg">
  <metadata
     id="metadata12">
    <rdf:RDF>
      <cc:Work
         rdf:about="">
        <dc:format>image/svg+xml</dc:format>
        <dc:type
           rdf:resource="http://purl.org/dc/dcmitype/StillImage" />
      </cc:Work>
    </rdf:RDF>
  </metadata>
  <defs
     id="defs10" />
  <sodipodi:namedview
     pagecolor="#ffffff"
     bordercolor="#666666"
     borderopacity="1"
     objecttolerance="10"
     gridtolerance="10"
     guidetolerance="10"
     inkscape:pageopacity="0"
     inkscape:pageshadow="2"
     inkscape:window-width="640"
     inkscape:window-height="688"
     id="namedview8"
     showgrid="false"
     inkscape:zoom="0.11523438"
     inkscape:cx="1024"
     inkscape:cy="1024"
     inkscape:window-x="0"
     inkscape:window-y="0"
     inkscape:window-maximized="0"
     inkscape:current-layer="svg2" />
  <g
     transform="matrix(1 0 0 -1 0 1638)"
     id="g4">
    <path
       fill="#000000"
       d="M1702 274q-31 -35 -50.5 -87t-66.5 -52h-563h-559q-48 0 -67 52t-50 87l166 168l172 954h-119q-53 0 -53 53v0q0 54 53 54h917q54 0 54 -54v0q0 -53 -54 -53h-117l171 -954zM1024 1228q-74 0 -74 -68v-172q0 -67 74 -67v0q75 0 75 67v172q0 68 -75 68v0zM1294 274 q-56 0 -95.5 39.5t-39.5 95.5v209q0 55 -40 95t-95 40v0q-57 0 -96 -40t-39 -95v-209q0 -56 -40.5 -95.5t-96.5 -39.5h542zM1516 1567h-492.5h-492.5q-58 0 -59.5 120.5t-1.5 222.5h91h92l64 -136h153l61 136h186l60 -136h154l64 136h182q0 -102 -2 -222.5t-59 -120.5z"
       id="path6" />
  </g>
  <path
     style="fill:#e6e6e6;fill-opacity:1;stroke:none"
     d="m 830.56521,1754.9927 c 52.56266,-32.0491 63.26354,-69.0972 63.27878,-219.0809 0.0113,-109.0023 2.72165,-138.0749 15.18644,-162.8846 46.67104,-92.8929 183.26807,-92.8929 229.93917,0 12.4936,24.867 15.1753,53.9762 15.1864,164.8438 0.015,151.2353 7.7154,178.4401 60.7549,214.6443 l 28.6049,19.5254 -220.402,-0.033 -220.40194,-0.032 27.85335,-16.9831 z"
     id="path2993"
     inkscape:connector-curvature="0"
     transform="translate(0,-410)" />
  <path
     style="fill:#e6e6e6;fill-opacity:1;stroke:none"
     d="m 972.27025,1102.201 c -15.86911,-17.0335 -17.69398,-30.2898 -17.69398,-128.5332 0,-98.2434 1.82487,-111.49967 17.69398,-128.53317 23.48521,-25.2084 79.34485,-26.08901 103.79755,-1.63632 15.5758,15.57583 17.3559,28.92655 17.3559,130.16949 0,101.2429 -1.7801,114.5936 -17.3559,130.1695 -24.4527,24.4527 -80.31234,23.5721 -103.79755,-1.6363 l 0,0 z"
     id="path2995"
     inkscape:connector-curvature="0"
     transform="translate(0,-410)" />
</svg>
