<?xml version="1.0" encoding="UTF-8" standalone="no"?>
<svg
   xmlns:dc="http://purl.org/dc/elements/1.1/"
   xmlns:cc="http://creativecommons.org/ns#"
   xmlns:rdf="http://www.w3.org/1999/02/22-rdf-syntax-ns#"
   xmlns:svg="http://www.w3.org/2000/svg"
   xmlns="http://www.w3.org/2000/svg"
   xmlns:sodipodi="http://sodipodi.sourceforge.net/DTD/sodipodi-0.dtd"
   xmlns:inkscape="http://www.inkscape.org/namespaces/inkscape"
   viewBox="0 -410 2048 2048"
   id="svg2"
   version="1.1"
   inkscape:version="0.48.2 r9819"
   width="100%"
   height="100%"
   sodipodi:docname="wb.svg">
  <metadata
     id="metadata12">
    <rdf:RDF>
      <cc:Work
         rdf:about="">
        <dc:format>image/svg+xml</dc:format>
        <dc:type
           rdf:resource="http://purl.org/dc/dcmitype/StillImage" />
      </cc:Work>
    </rdf:RDF>
  </metadata>
  <defs
     id="defs10" />
  <sodipodi:namedview
     pagecolor="#ffffff"
     bordercolor="#666666"
     borderopacity="1"
     objecttolerance="10"
     gridtolerance="10"
     guidetolerance="10"
     inkscape:pageopacity="0"
     inkscape:pageshadow="2"
     inkscape:window-width="675"
     inkscape:window-height="721"
     id="namedview8"
     showgrid="false"
     inkscape:zoom="0.11523438"
     inkscape:cx="1024"
     inkscape:cy="1024"
     inkscape:window-x="0"
     inkscape:window-y="0"
     inkscape:window-maximized="0"
     inkscape:current-layer="svg2" />
  <g
     transform="matrix(1 0 0 -1 0 1638)"
     id="g4">
    <path
       fill="#000000"
       d="M596 859q38 -62 67.5 -129.5t29.5 -142.5h331h332q12 136 97 273q47 87 47 186q0 177 -140 304t-336 127q-198 0 -337 -127t-139 -304q0 -99 48 -187zM956 688l-35 310l-135 32v136l135 36l35 171h135l36 -171l135 -36v-136l-135 -32l-36 -310h-135zM1026 1708 q-57 0 -57 -33q0 -32 57 -32q56 0 56 32q0 33 -56 33zM1074 1588l-1 -44q207 -17 350.5 -160t143.5 -338q0 -87 -35 -185q-48 -74 -86 -157t-45 -188h-377.5h-376.5q-11 112 -46 185.5t-84 156.5q-36 93 -36 188q0 195 143.5 338t350.5 160l-1 44q-83 32 -83 93 q0 38 38.5 65.5t92.5 27.5t93 -27.5t39 -65.5q0 -63 -80 -93zM1142 135q-45 -5 -48.5 48t-21.5 89q109 1 220.5 1.5t222.5 0.5q-21 -35 -35 -87t-48 -52h-144.5h-145.5zM905 135h-145.5h-144.5q-34 0 -47.5 52t-34.5 87q111 0 221.5 -0.5t221.5 -1.5q-18 -36 -20.5 -89.5 t-50.5 -47.5zM665 442h718q50 0 50 -50v0q0 -50 -50 -50h-718q-50 0 -50 50v0q0 50 50 50z"
       id="path6" />
  </g>
  <path
     style="fill:#f9f9f9;fill-opacity:1;stroke:none;stroke-width:17.78982925000000000;stroke-linecap:round;stroke-linejoin:round;stroke-miterlimit:4;stroke-opacity:1;stroke-dasharray:none;stroke-dashoffset:0"
     d="m 689.65164,1397.5864 c -6.84502,-40.7208 -25.79065,-90.3192 -62.15285,-162.7118 -64.14381,-127.7025 -72.3018,-154.104 -72.3018,-233.9889 0,-81.51589 19.18234,-145.73269 63.24042,-211.71017 91.50045,-137.02302 232.36141,-209.48739 407.21519,-209.48739 133.9493,0 237.0031,40.55289 334.2661,131.53759 65.0135,60.81694 94.5341,106.30707 118.0778,181.95305 32.9778,105.95797 19.1651,193.45292 -53.1858,336.89862 -39.6156,78.5433 -69.3124,167.5804 -69.3124,207.8125 0,18.2562 -0.2993,18.2728 -328.0001,18.2728 l -328.0001,0 -9.84646,-58.5763 0,0 z m 409.46296,-73.7627 c 2.7603,-20.2847 11.0332,-87.6474 18.3842,-149.6949 7.351,-62.0474 16.0709,-115.2434 19.3774,-118.2133 3.3066,-2.9698 34.3238,-12.1769 68.9272,-20.4602 l 62.9152,-15.0605 0,-71.14879 0,-71.14883 -67.1195,-17.4167 -67.1195,-17.41671 -10.3869,-38.49968 c -5.7128,-21.17483 -14.8685,-61.10686 -20.346,-88.73786 l -9.959,-50.23819 -70.9074,2.50938 -70.90742,2.50936 -17.75887,86.44779 -17.75887,86.44779 -66.8513,16.4905 -66.8513,16.49052 0,72.45602 0,72.456 32.54238,8.1957 c 17.8983,4.5076 48.16271,11.6358 67.25423,15.8406 l 34.71187,7.6449 16.85417,153.7142 16.85418,153.7143 71.56323,0 71.5633,0 5.0187,-36.8814 z"
     id="path3763"
     inkscape:connector-curvature="0"
     transform="translate(0,-410)" />
  <path
     style="fill:#f9f9f9;fill-opacity:1;stroke:none"
     d="m 982.34576,388.88703 c -22.55176,-14.37631 1.2401,-38.7992 40.68504,-41.76411 41.1197,-3.0908 64.1523,15.55277 46.0946,37.31098 -12.0599,14.53127 -66.5815,17.32907 -86.77964,4.45313 z"
     id="path3765"
     inkscape:connector-curvature="0"
     transform="translate(0,-410)" />
</svg>
