<?xml version="1.0" encoding="UTF-8" standalone="no"?>
<svg
   xmlns:dc="http://purl.org/dc/elements/1.1/"
   xmlns:cc="http://creativecommons.org/ns#"
   xmlns:rdf="http://www.w3.org/1999/02/22-rdf-syntax-ns#"
   xmlns:svg="http://www.w3.org/2000/svg"
   xmlns="http://www.w3.org/2000/svg"
   xmlns:sodipodi="http://sodipodi.sourceforge.net/DTD/sodipodi-0.dtd"
   xmlns:inkscape="http://www.inkscape.org/namespaces/inkscape"
   viewBox="0 -410 2048 2048"
   id="svg2"
   version="1.1"
   inkscape:version="0.48.2 r9819"
   width="100%"
   height="100%"
   sodipodi:docname="wk.svg">
  <metadata
     id="metadata12">
    <rdf:RDF>
      <cc:Work
         rdf:about="">
        <dc:format>image/svg+xml</dc:format>
        <dc:type
           rdf:resource="http://purl.org/dc/dcmitype/StillImage" />
      </cc:Work>
    </rdf:RDF>
  </metadata>
  <defs
     id="defs10" />
  <sodipodi:namedview
     pagecolor="#ffffff"
     bordercolor="#666666"
     borderopacity="1"
     objecttolerance="10"
     gridtolerance="10"
     guidetolerance="10"
     inkscape:pageopacity="0"
     inkscape:pageshadow="2"
     inkscape:window-width="640"
     inkscape:window-height="708"
     id="namedview8"
     showgrid="false"
     inkscape:zoom="0.11523438"
     inkscape:cx="1024"
     inkscape:cy="1024"
     inkscape:window-x="0"
     inkscape:window-y="0"
     inkscape:window-maximized="0"
     inkscape:current-layer="svg2" />
  <g
     transform="matrix(1 0 0 -1 0 1638)"
     id="g4">
    <path
       fill="#000000"
       d="M1060 1638h98q71 0 121.5 -50.5t50.5 -120.5v-114l43 75q35 61 103.5 79.5t130.5 -16.5l233 -134q60 -36 79 -105t-17 -129l-203 -353q-55 -93 -163 -89h103q55 0 95 -40t40 -95v-69q0 -56 -40 -95.5t-95 -39.5h-1230q-56 0 -95.5 39.5t-39.5 95.5v69q0 55 39.5 95 t95.5 40h103q-110 -4 -163 90l-203 352q-36 61 -17.5 129.5t79.5 104.5l233 134q60 35 129 16.5t105 -78.5l44 -77l-1 115q0 70 50 120.5t122 50.5h99l-17 86l-83 18v67l83 16l16 85h71l16 -85l84 -16v-67l-84 -18zM1468 563h135v-103h-135v103zM444 563h136v-103h-136v103z M786 563h135v-103h-135v103zM1127 563h135v-103h-135v103zM409 613q-68 0 -68 -67v-68q0 -68 68 -68h1230q67 0 67 68v68q0 67 -67 67h-1230zM1423 810l76 -44q89 -52 141 38l204 353q50 88 -38 141l-233 134q-90 53 -141 -37l-171 -295l1 367q0 103 -103 103h-270 q-103 0 -103 -103v-366l-170 294q-52 89 -141 38l-233 -135q-90 -52 -38 -141l204 -353q51 -90 141 -38l77 45q172 145 398 145q224 0 399 -146zM1452 682q-76 94 -187.5 150t-240.5 56q-130 0 -241 -56t-186 -150h855zM1024 1467v0q103 0 103 -103v-201q0 -103 -103 -103v0 q-103 0 -103 103v201q0 103 103 103zM1638 1275v0q89 -52 37 -140l-100 -174q-52 -90 -141 -38v0q-89 52 -38 141l101 174q50 89 141 37zM410 1276v0q88 50 141 -38l100 -174q52 -89 -37 -141h-1q-90 -51 -140 38l-101 174q-51 88 38 141zM461 135q-48 0 -66.5 52t-46.5 87 h675h677q-28 -35 -47 -87t-66 -52h-565h-561z"
       id="path6" />
  </g>
  <path
     style="fill:#f9f9f9;fill-opacity:1;stroke:none"
     d="M 437.0975,1268.9487 C 401.71015,1232.2682 199.68267,876.80752 193.87219,841.00179 c -7.02575,-43.29468 22.84865,-71.21917 161.92442,-151.35553 131.90196,-76.00276 158.70605,-89.13101 181.9798,-89.13101 32.43022,0 68.70079,45.51752 152.09972,190.87661 46.72955,81.44667 88.30542,150.15068 92.3908,152.67559 4.0854,2.52491 7.81724,-82.52786 8.293,-189.00615 0.47573,-106.47829 3.49754,-203.00757 6.71505,-214.5095 3.21751,-11.50194 16.78241,-29.07482 30.14422,-39.05085 22.73502,-16.97414 35.35138,-18.13824 196.5808,-18.13824 161.2294,0 173.8458,1.1641 196.5808,18.13824 13.3618,9.97603 26.9267,27.54891 30.1443,39.05085 3.2174,11.50193 6.3634,108.77701 6.9909,216.16684 1.3304,227.66942 -9.7142,225.2058 106.2727,23.7052 78.1485,-135.76509 114.2147,-179.90859 146.9889,-179.90859 20.6412,0 58.1702,18.76364 194.2427,97.11688 126.5454,72.8673 155.7806,101.01533 148.9075,143.36966 -5.8105,35.80573 -207.838,391.26641 -243.2253,427.94691 -15.8808,16.4611 -33.6283,25.8038 -49.0171,25.8038 -29.4367,0 -101.7642,-37.2197 -177.8913,-91.5428 -136.8331,-97.6421 -305.0407,-134.7532 -472.80766,-104.314 -92.80438,16.8382 -157.25348,43.5664 -237.76285,98.6047 -93.17543,63.6972 -157.80273,97.2521 -187.30899,97.2521 -15.38885,0 -33.13632,-9.3427 -49.0171,-25.8038 z m 164.13038,-133.6201 c 15.35856,-6.5442 37.59862,-22.3847 49.42235,-35.2011 36.60229,-39.6752 29.88811,-73.2044 -39.05084,-195.01148 C 526.66073,755.03932 490.5855,727.73307 422.6199,762.07271 c -64.13219,32.40283 -87.35442,78.41901 -65.17822,129.15441 23.12353,52.90272 113.94297,205.06678 137.35014,230.12428 27.24414,29.1649 60.5326,33.5364 106.43606,13.9772 z m 953.87982,-18.0235 c 45.6142,-47.6874 141.0403,-228.0017 141.0403,-266.50566 0,-40.09397 -26.5467,-70.66463 -78.6385,-90.55865 -68.3697,-26.11062 -90.3337,-10.57704 -165.7115,117.19596 -89.0541,150.95545 -95.7493,183.09035 -47.7153,229.02225 28.3328,27.0931 57.4815,39.4829 94.6182,40.2181 20.7708,0.4111 35.0115,-7.0042 56.4068,-29.372 z M 1084.9195,977.91696 c 13.9401,-7.20872 29.3665,-20.6198 34.2809,-29.80238 12.2723,-22.931 11.6793,-297.37031 -0.7012,-324.54268 -13.3871,-29.38126 -44.4237,-43.75025 -94.4992,-43.75025 -50.07554,0 -81.11208,14.36899 -94.49909,43.75025 -12.34905,27.10322 -12.97541,301.60826 -0.7404,324.46966 21.36361,39.91827 105.58099,56.03024 156.15899,29.8754 l 0,0 z"
     id="path2989"
     inkscape:connector-curvature="0"
     transform="translate(0,-410)" />
  <path
     style="fill:#f9f9f9;fill-opacity:1;stroke:none"
     d="m 364.47458,1615.8373 c -24.38158,-24.3816 -25.4378,-137.5215 -1.48619,-159.1974 14.46672,-13.0922 72.77503,-14.3619 659.52541,-14.3619 748.2149,0 678.3676,-9.8287 678.3676,95.4576 0,105.2773 69.6301,95.4576 -676.8814,95.4576 -630.59887,0 -642.48221,-0.3127 -659.52542,-17.3559 z m 216.94915,-82.4407 0,-56.4068 -69.42373,0 -69.42373,0 0,56.4068 0,56.4068 69.42373,0 69.42373,0 0,-56.4068 z m 347.11864,0 0,-56.4068 -73.76271,0 -73.76271,0 0,56.4068 0,56.4068 73.76271,0 73.76271,0 0,-56.4068 z m 338.44073,0 0,-56.4068 -73.7628,0 -73.7627,0 0,56.4068 0,56.4068 73.7627,0 73.7628,0 0,-56.4068 z m 338.4406,0 0,-56.4068 -69.4237,0 -69.4237,0 0,56.4068 0,56.4068 69.4237,0 69.4237,0 0,-56.4068 z"
     id="path2991"
     inkscape:connector-curvature="0"
     transform="translate(0,-410)" />
</svg>
