<?xml version="1.0" encoding="UTF-8" standalone="no"?>
<svg
   xmlns:dc="http://purl.org/dc/elements/1.1/"
   xmlns:cc="http://creativecommons.org/ns#"
   xmlns:rdf="http://www.w3.org/1999/02/22-rdf-syntax-ns#"
   xmlns:svg="http://www.w3.org/2000/svg"
   xmlns="http://www.w3.org/2000/svg"
   xmlns:sodipodi="http://sodipodi.sourceforge.net/DTD/sodipodi-0.dtd"
   xmlns:inkscape="http://www.inkscape.org/namespaces/inkscape"
   viewBox="0 -410 2048 2048"
   id="svg2"
   version="1.1"
   inkscape:version="0.48.2 r9819"
   width="100%"
   height="100%"
   sodipodi:docname="wn.svg">
  <metadata
     id="metadata12">
    <rdf:RDF>
      <cc:Work
         rdf:about="">
        <dc:format>image/svg+xml</dc:format>
        <dc:type
           rdf:resource="http://purl.org/dc/dcmitype/StillImage" />
      </cc:Work>
    </rdf:RDF>
  </metadata>
  <defs
     id="defs10" />
  <sodipodi:namedview
     pagecolor="#ffffff"
     bordercolor="#666666"
     borderopacity="1"
     objecttolerance="10"
     gridtolerance="10"
     guidetolerance="10"
     inkscape:pageopacity="0"
     inkscape:pageshadow="2"
     inkscape:window-width="640"
     inkscape:window-height="738"
     id="namedview8"
     showgrid="false"
     inkscape:zoom="0.11523438"
     inkscape:cx="1024"
     inkscape:cy="1024"
     inkscape:window-x="0"
     inkscape:window-y="0"
     inkscape:window-maximized="0"
     inkscape:current-layer="svg2" />
  <g
     transform="matrix(1 0 0 -1 0 1638)"
     id="g4">
    <path
       fill="#000000"
       d="M1521 513h-957q-59 0 -61 52t67 115q30 35 65 67t68 64q-25 14 -45.5 30.5t-45.5 28.5q-30 -27 -63.5 -49.5t-73.5 -25.5q-10 0 -30 -5t-20 5q-18 -4 -30 2t-30 9q-23 5 -63.5 51.5t-52.5 66.5q-18 75 37 133.5t90 122.5q36 70 83.5 134t58.5 153q69 24 112.5 93.5 t95.5 127.5q13 42 11.5 90t-8.5 92q15 11 43 10t56 -5q15 -3 36 -9q48 -27 90.5 -72t60.5 -102q43 -21 85 -39.5t86 -39.5q125 -55 237 6q-28 -48 -62 -77q-16 -12 -35 -24q114 -107 261 -58q-31 -40 -75 -65q-12 -8 -25 -13.5t-24 -10.5q81 -138 238 -128q-42 -32 -88 -43 q-29 -9 -50 -7q43 -153 197 -183q-50 -19 -97 -19q-23 0 -45 3q0 -11 4 -31q-2 -69 -3 -120q61 -64 141 -79q-50 -19 -97 -19q-17 0 -51 4q-8 -50 -18 -105q60 -67 145 -85q-48 -19 -97 -19q-41 0 -92 16q-13 -22 -29 -43zM734 1578q-33 -48 -72 -97t-87 -64 q-9 -67 -58.5 -152t-82.5 -140q61 -74 132 -135q102 102 183 206t121 225q-21 24 -21 60q0 13 5 17zM764 857l49.5 49.5t46.5 53.5q33 33 34 42l-12.5 -5t-11.5 -9q-23 -10 -48.5 -21.5t-52.5 -17.5q-58 8 -107 -30q25 -17 51 -32t51 -30zM1062 1588l-34 -51q22 -21 22 -56 q0 -100 -101 -100q-3 0 -23 2q-98 -214 -272 -384q21 12 55 19q33 -3 53 0.5t51 27.5q3 0 90.5 17t45.5 -55q-9 -24 -21.5 -53.5t-36.5 -60.5q-22 -40 -56 -68q186 -78 374.5 -82t347.5 56q3 83 -16 187q-35 203 -149 345q-53 69 -116 118q-79 64 -214 138zM393 1059 q-62 -69 -74 -100q18 -29 45 -63t69 -36q21 -9 43.5 0t37.5 21q15 6 41 25q-42 33 -83 73t-79 80zM1547 716q-174 -57 -377.5 -43.5t-398.5 105.5q-14 -13 -30 -28.5t-34 -35.5q-38 -39 -93.5 -80.5t-20.5 -52.5h891q48 78 63 135zM773 1630l114 -74q23 25 62 25q18 0 28 -4 l29 43q-39 20 -49 25q-18 53 -26.5 71.5t-38.5 51.5q-18 17 -36.5 30.5t-48.5 12.5q7 -51 5 -88.5t-28 -73.5q-11 -11 -11 -19zM646 1355q42 69 76 50q33 -19 -7 -88q-42 -69 -75 -49q-35 17 6 87zM570 135q-39 0 -54 52t-37 87h544.5h545.5q-23 -35 -38 -87t-53 -52h-456 h-452zM1520 442q50 0 50 -50v0q0 -50 -50 -50h-994q-50 0 -50 50v0q0 50 50 50h994z"
       id="path6" />
  </g>
  <path
     style="fill:#f9f9f9;fill-opacity:1;stroke:none"
     d="m 1071.2915,1285.5429 c -67.4325,-12.2497 -148.95236,-34.6041 -192.88101,-52.8919 l -28.43697,-11.8385 30.68908,-42.717 c 35.61066,-49.5674 82.59164,-149.116 82.59164,-175.0044 0,-9.80039 -6.22675,-20.20829 -13.83722,-23.1287 -21.04515,-8.07578 -133.27427,14.53008 -163.42982,32.919 -15.20716,9.2734 -42.83482,16.2744 -64.29533,16.2929 l -37.63017,0.033 56.22889,-67.41491 C 802.83717,886.80247 848.9445,819.4308 897.2496,732.44459 c 30.73685,-55.3499 34.09968,-58.3919 70.60132,-63.86565 56.77598,-8.51409 82.18298,-37.70205 82.18298,-94.41315 0,-24.64542 -3.79,-48.59983 -8.4222,-53.23202 -5.4442,-5.44425 -3.048,-16.61454 6.777,-31.59186 l 15.1991,-23.16969 79.4078,49.38168 c 117.3808,72.9961 177.9778,123.58427 236.9932,197.84895 60.3001,75.88123 102.337,154.46482 129.2084,241.54153 21.279,68.95442 44.0725,200.16232 44.1238,253.99402 l 0.035,36.5452 -45.5594,13.6105 c -128.2742,38.3209 -310.4024,49.3565 -436.5051,26.4488 l 2e-4,0 z"
     id="path2989"
     inkscape:connector-curvature="0"
     transform="translate(0,-410)" />
  <path
     style="fill:#f9f9f9;fill-opacity:1;stroke:none"
     d="m 500.40677,986.66072 c -31.80677,-32.9461 -57.8305,-62.16546 -57.8305,-64.9319 0,-2.76645 15.4977,-30.35015 34.43933,-61.29711 50.89175,-83.14728 84.87082,-153.55204 91.71475,-190.0333 4.27875,-22.80771 12.91316,-35.85561 29.35317,-44.35707 23.79154,-12.30308 73.96811,-63.78227 114.38508,-117.3546 l 22.57029,-29.91672 56.67788,36.92709 c 31.17283,20.3099 56.26028,41.6497 55.74986,47.42177 -0.51043,5.77208 2.13726,26.44912 5.88368,45.949 8.11788,42.25293 -15.94281,104.02731 -73.68745,189.1881 -55.57628,81.9629 -200.30714,248.30672 -216.04439,248.30672 -2.95966,0 -31.40492,-26.9559 -63.2117,-59.90198 z M 701.8909,755.69169 c 42.67205,-48.60077 49.24081,-110.11561 12.31946,-115.36879 -31.04082,-4.4165 -51.94835,12.74705 -76.39539,62.715 -18.69726,38.21583 -21.21573,50.4813 -13.37391,65.13386 14.82071,27.69276 46.68594,22.55809 77.44984,-12.48007 l 0,0 z"
     id="path2991"
     inkscape:connector-curvature="0"
     transform="translate(0,-410)" />
  <path
     style="fill:#f9f9f9;fill-opacity:1;stroke:none"
     d="m 833.08475,450.92607 c -26.25085,-17.45968 -48.64605,-32.40975 -49.7671,-33.22235 -1.12106,-0.81261 5.71284,-16.68085 15.18644,-35.26277 11.77328,-23.09261 17.22472,-51.05673 17.22472,-88.35719 0,-30.01454 3.14641,-54.5719 6.99202,-54.5719 12.96351,0 63.71087,41.75173 83.73306,68.89029 10.92839,14.8126 26.32784,43.84212 34.22099,64.51005 8.8158,23.08383 22.68935,41.37716 35.9689,47.42773 18.6613,8.50265 20.18886,12.13765 11.16973,26.57959 -6.70112,10.73018 -23.09266,18.02368 -45.70702,20.33757 -19.39247,1.98423 -41.11666,6.26408 -48.27598,9.51078 -7.97328,3.61583 -31.51041,-6.39708 -60.74576,-25.8418 z"
     id="path2993"
     inkscape:connector-curvature="0"
     transform="translate(0,-410)" />
  <path
     style="fill:#f9f9f9;fill-opacity:1;stroke:none"
     d="m 398.56844,1172.5815 c -21.18376,-11.5197 -68.80573,-71.2303 -68.80573,-86.2717 0,-3.8769 13.57164,-25.5372 30.1592,-48.134 l 30.15919,-41.085 76.13779,72.7863 c 61.8919,59.1675 73.70374,74.4093 63.12894,81.4603 -54.78615,36.53 -91.65625,42.5193 -130.77939,21.2441 l 0,0 z"
     id="path2995"
     inkscape:connector-curvature="0"
     transform="translate(0,-410)" />
  <path
     style="fill:#f9f9f9;fill-opacity:1;stroke:none"
     d="m 603.28557,1435.2435 c 14.22686,-13.4147 57.85885,-54.8763 96.95999,-92.1367 l 71.09297,-67.7464 63.4155,26.1864 c 198.90287,82.1334 477.85347,103.0269 660.50737,49.4721 41.4423,-12.151 41.6651,-12.1075 35.7575,6.9735 -3.2695,10.5604 -15.2673,37.7499 -26.6618,60.4211 l -20.7172,41.2204 -453.1107,0 -453.11064,0 25.86701,-24.3904 z"
     id="path2987"
     inkscape:connector-curvature="0"
     transform="translate(0,-410)" />
</svg>
