<?xml version="1.0" encoding="UTF-8" standalone="no"?>
<svg
   xmlns:dc="http://purl.org/dc/elements/1.1/"
   xmlns:cc="http://creativecommons.org/ns#"
   xmlns:rdf="http://www.w3.org/1999/02/22-rdf-syntax-ns#"
   xmlns:svg="http://www.w3.org/2000/svg"
   xmlns="http://www.w3.org/2000/svg"
   xmlns:sodipodi="http://sodipodi.sourceforge.net/DTD/sodipodi-0.dtd"
   xmlns:inkscape="http://www.inkscape.org/namespaces/inkscape"
   viewBox="0 -410 2048 2048"
   id="svg2"
   version="1.1"
   inkscape:version="0.48.2 r9819"
   width="100%"
   height="100%"
   sodipodi:docname="wp.svg">
  <metadata
     id="metadata12">
    <rdf:RDF>
      <cc:Work
         rdf:about="">
        <dc:format>image/svg+xml</dc:format>
        <dc:type
           rdf:resource="http://purl.org/dc/dcmitype/StillImage" />
      </cc:Work>
    </rdf:RDF>
  </metadata>
  <defs
     id="defs10" />
  <sodipodi:namedview
     pagecolor="#ffffff"
     bordercolor="#666666"
     borderopacity="1"
     objecttolerance="10"
     gridtolerance="10"
     guidetolerance="10"
     inkscape:pageopacity="0"
     inkscape:pageshadow="2"
     inkscape:window-width="640"
     inkscape:window-height="738"
     id="namedview8"
     showgrid="false"
     inkscape:zoom="0.11523438"
     inkscape:cx="1024"
     inkscape:cy="1024"
     inkscape:window-x="0"
     inkscape:window-y="0"
     inkscape:window-maximized="0"
     inkscape:current-layer="svg2" />
  <g
     transform="matrix(1 0 0 -1 0 1638)"
     id="g4">
    <path
       fill="#000000"
       d="M754 203h268h272q20 0 25.5 26.5t17.5 44.5h-313.5h-312.5q10 -18 16 -44.5t27 -26.5zM754 135q-63 0 -85 77.5t-57 129.5h411h413q-36 -52 -58 -129.5t-84 -77.5h-281.5h-258.5zM1154 1363h78q33 0 33 -34v0q0 -34 -33 -34h-416q-34 0 -34 34v0q0 34 34 34h77 q-37 41 -37 104q0 69 49 118.5t119 49.5q69 0 118.5 -49.5t49.5 -118.5q0 -60 -38 -104zM1024 1570q-104 0 -104 -103q0 -104 104 -104q103 0 103 104q0 103 -103 103zM1202 477h200q34 0 34 -33v0q0 -34 -34 -34h-757q-33 0 -33 34v0q0 33 33 33h199q-91 79 -91 204 q0 43 14 87l122 459h270l121 -459q15 -42 15 -87q0 -121 -93 -204zM1220 732l-111 427h-170l-111 -427q-8 -23 -8 -51q0 -84 60 -144t144 -60t143.5 60t59.5 144q0 27 -7 51z"
       id="path6" />
  </g>
  <path
     style="fill:#f9f9f9;fill-opacity:1;stroke:none"
     d="m 945.89831,1549.9342 c -16.70509,-7.2358 -41.60578,-23.6796 -55.33487,-36.5417 -30.72079,-28.7809 -65.90767,-101.1558 -66.21667,-136.1993 -0.12626,-14.3186 26.19491,-128.5174 58.49149,-253.775 l 58.72106,-227.7411 82.44068,-0.0115 82.4407,-0.0116 54.1889,210.39679 c 29.8039,115.7182 56.592,228.2015 59.5291,249.9629 9.9826,73.9627 -46.6516,163.6501 -123.6556,195.8245 -37.3592,15.6096 -112.36057,14.6614 -150.60479,-1.904 z"
     id="path2989"
     inkscape:connector-curvature="0"
     transform="translate(0,-410)" />
  <path
     style="fill:#f9f9f9;fill-opacity:1;stroke:none"
     d="m 953.90874,653.25059 c -22.02094,-22.02093 -25.36637,-31.80111 -25.36637,-74.15716 0,-73.33408 30.7019,-98.50894 112.81353,-92.50458 53.8148,3.93516 78.1017,35.64912 78.1017,101.98531 0,31.87734 -4.7962,44.10632 -25.3663,64.67643 -21.4741,21.47406 -32.2291,25.36636 -70.0913,25.36636 -37.86216,0 -48.6172,-3.8923 -70.09126,-25.36636 z"
     id="path2991"
     inkscape:connector-curvature="0"
     transform="translate(0,-410)" />
  <path
     style="fill:#f9f9f9;fill-opacity:1;stroke:none"
     d="m 733.57296,1815.9813 c -7.31598,-14.1475 -13.30177,-27.8693 -13.30177,-30.4927 0,-2.6235 136.68917,-4.77 303.75371,-4.77 l 303.7537,0 -11.5052,28.2034 -11.5053,28.2034 -278.9467,2.2894 -278.94667,2.2893 -13.30177,-25.7228 z"
     id="path2993"
     inkscape:connector-curvature="0"
     transform="translate(0,-410)" />
</svg>
