<?xml version="1.0" encoding="UTF-8" standalone="no"?>
<svg
   xmlns:dc="http://purl.org/dc/elements/1.1/"
   xmlns:cc="http://creativecommons.org/ns#"
   xmlns:rdf="http://www.w3.org/1999/02/22-rdf-syntax-ns#"
   xmlns:svg="http://www.w3.org/2000/svg"
   xmlns="http://www.w3.org/2000/svg"
   xmlns:sodipodi="http://sodipodi.sourceforge.net/DTD/sodipodi-0.dtd"
   xmlns:inkscape="http://www.inkscape.org/namespaces/inkscape"
   viewBox="0 -410 2048 2048"
   id="svg2"
   version="1.1"
   inkscape:version="0.48.2 r9819"
   width="100%"
   height="100%"
   sodipodi:docname="wq.svg">
  <metadata
     id="metadata12">
    <rdf:RDF>
      <cc:Work
         rdf:about="">
        <dc:format>image/svg+xml</dc:format>
        <dc:type
           rdf:resource="http://purl.org/dc/dcmitype/StillImage" />
      </cc:Work>
    </rdf:RDF>
  </metadata>
  <defs
     id="defs10" />
  <sodipodi:namedview
     pagecolor="#ffffff"
     bordercolor="#666666"
     borderopacity="1"
     objecttolerance="10"
     gridtolerance="10"
     guidetolerance="10"
     inkscape:pageopacity="0"
     inkscape:pageshadow="2"
     inkscape:window-width="640"
     inkscape:window-height="723"
     id="namedview8"
     showgrid="false"
     inkscape:zoom="0.11523438"
     inkscape:cx="1024"
     inkscape:cy="1024"
     inkscape:window-x="0"
     inkscape:window-y="0"
     inkscape:window-maximized="0"
     inkscape:current-layer="svg2" />
  <g
     transform="matrix(1 0 0 -1 0 1638)"
     id="g4">
    <path
       fill="#000000"
       d="M1437 895q-24 -45 -47.5 -89t-46.5 -88h-100h-100q24 44 47 88t47 89h99.5h100.5zM611 894h99h101q23 -45 46 -89t47 -87h-100h-99q-24 44 -47.5 88t-46.5 88zM471 1387q-57 0 -96.5 39.5t-39.5 96.5q0 55 39.5 95t96.5 40q56 0 95.5 -40t39.5 -95q0 -57 -39.5 -96.5 t-95.5 -39.5zM471 1455q67 0 67 68q0 67 -67 67q-68 0 -68 -67q0 -68 68 -68zM1577 1387q-57 0 -96.5 39.5t-39.5 96.5q0 55 39.5 95t96.5 40q56 0 95.5 -40t39.5 -95q0 -57 -39.5 -96.5t-95.5 -39.5zM1577 1455q67 0 67 68q0 67 -67 67q-68 0 -68 -67q0 -68 68 -68z M580 1059q-5 75 -9.5 152t-9.5 155q119 -80 259 -169q102 204 204 405q51 -102 102.5 -204.5t102.5 -203.5q117 79 257 171q-5 -77 -8.5 -153.5t-7.5 -151.5h185.5h185.5q-68 -137 -135.5 -273.5t-134.5 -273.5h-548h-547q-68 137 -135.5 273.5t-134.5 273.5q93 -1 186.5 -1 h187.5zM1414 1241q-49 -32 -101 -66.5t-106 -72.5q-46 90 -92 182.5t-91 185.5q-46 -91 -92 -182.5t-92 -181.5q-54 35 -105.5 69.5t-100.5 67.5q3 -64 10 -126.5t10 -124.5h-174h-174q51 -103 102.5 -206t103.5 -205h511h513l102.5 205t103.5 206h-171.5h-169.5 q5 137 13 249zM1024 1101q25 -44 51 -87t52 -85l-52 -86t-51 -85q-26 42 -52 85t-51 86q25 42 51 85t52 87zM1024 1706q67 0 67 68t-67 68q-68 0 -68 -68t68 -68zM1024 1638q-57 0 -96.5 39.5t-39.5 96.5q0 56 39.5 96t96.5 40q56 0 95.5 -40t39.5 -96q0 -57 -39.5 -96.5 t-95.5 -39.5zM570 135q-39 0 -54 52t-37 87h544.5h545.5q-23 -35 -38 -87t-53 -52h-456h-452zM527 442h994q50 0 50 -50v0q0 -50 -50 -50h-994q-50 0 -50 50v0q0 50 50 50z"
       id="path6" />
  </g>
  <path
     style="fill:#f9f9f9;fill-opacity:1;stroke:none"
     d="m 412.20339,1260.0407 -99.86897,-199.5932 174.58083,0 174.58084,0 -4.93635,-36.8814 c -2.71499,-20.2847 -7.55637,-75.33611 -10.75862,-122.33637 l -5.82226,-85.45501 98.04805,65.51771 c 53.92643,36.03474 100.30407,64.04259 103.06142,62.23966 2.75735,-1.80291 44.06421,-79.63722 91.79303,-172.96511 47.72881,-93.3279 88.81024,-169.76913 91.29204,-169.8694 2.4819,-0.10028 43.4072,77.91937 90.9452,173.377 47.5381,95.45762 89.3407,173.55932 92.8946,173.55932 3.554,0 50.1333,-29.99011 103.5094,-66.64467 l 97.0475,-66.64467 -6.0906,123.05145 -6.0907,123.05149 169.6384,0 169.6384,0 -99.869,199.5932 -99.869,199.5932 -511.9276,0 -511.92764,0 -99.86897,-199.5932 z m 497.44883,71.5932 c -1.6393,-3.5797 -23.4783,-46.5356 -48.5311,-95.4576 l -45.55055,-88.9492 -104.05647,0 c -57.23106,0 -104.05647,2.5183 -104.05647,5.5962 0,3.0778 21.6905,46.0338 48.20114,95.4576 l 48.20113,89.8615 104.38643,0 c 57.41254,0 103.04519,-2.9288 101.40589,-6.5085 z m 482.48698,-83.7296 c 26.6217,-49.631 48.4032,-92.5869 48.4032,-95.4576 0,-2.8708 -46.5229,-5.2196 -103.3841,-5.2196 l -103.3841,0 -48.4803,91.5984 c -26.6642,50.379 -48.4803,93.335 -48.4803,95.4576 0,2.1226 46.5575,3.8593 103.4612,3.8593 l 103.4613,0 48.4031,-90.2381 z m -316.0714,-33.63 c 26.2508,-44.0353 48.9653,-84.81 50.4766,-90.6106 3.1135,-11.95 -92.4696,-176.0298 -102.5444,-176.0298 -7.7369,0 -104.13559,159.5378 -104.13559,172.3422 0,10.6661 97.91509,174.8622 104.10099,174.5694 2.4055,-0.1139 25.8515,-36.236 52.1024,-80.2712 l 0,0 z"
     id="path2989"
     inkscape:connector-curvature="0"
     transform="translate(0,-410)" />
  <path
     style="fill:#f9f9f9;fill-opacity:1;stroke:none"
     d="m 998.21108,330.5234 c -27.52357,-10.99358 -34.65998,-22.79771 -34.82396,-57.60137 -0.26045,-55.27821 65.48388,-84.07812 104.00268,-45.55932 29.1878,29.18776 16.7612,104.1356 -17.266,104.1356 -4.0416,0 -12.5491,1.70836 -18.9056,3.79634 -6.3564,2.088 -21.2097,-0.059 -33.00712,-4.77125 l 0,0 z"
     id="path2991"
     inkscape:connector-curvature="0"
     transform="translate(0,-410)" />
  <path
     style="fill:#f9f9f9;fill-opacity:1;stroke:none"
     d="m 453.50006,585.1534 c -44.25198,-7.23809 -60.10652,-72.15368 -25.55092,-104.61698 41.15672,-38.66473 101.50157,-14.71141 101.27391,40.19972 -0.0729,17.62767 -3.08138,36.68735 -6.68509,42.35486 -9.0366,14.21171 -45.59951,25.89611 -69.0379,22.0624 l 0,0 z"
     id="path2993"
     inkscape:connector-curvature="0"
     transform="translate(0,-410)" />
  <path
     style="fill:#f9f9f9;fill-opacity:1;stroke:none"
     d="m 1550.8413,580.87477 c -38.7378,-12.91259 -46.7752,-75.50193 -13.3577,-104.02053 54.7327,-46.70915 131.433,26.64083 89.885,85.95881 -15.324,21.87816 -44.4532,28.75311 -76.5273,18.06172 l 0,0 z"
     id="path2995"
     inkscape:connector-curvature="0"
     transform="translate(0,-410)" />
</svg>
