<?xml version="1.0" encoding="UTF-8" standalone="no"?>
<svg
   xmlns:dc="http://purl.org/dc/elements/1.1/"
   xmlns:cc="http://creativecommons.org/ns#"
   xmlns:rdf="http://www.w3.org/1999/02/22-rdf-syntax-ns#"
   xmlns:svg="http://www.w3.org/2000/svg"
   xmlns="http://www.w3.org/2000/svg"
   xmlns:sodipodi="http://sodipodi.sourceforge.net/DTD/sodipodi-0.dtd"
   xmlns:inkscape="http://www.inkscape.org/namespaces/inkscape"
   viewBox="0 -410 2048 2048"
   id="svg2"
   version="1.1"
   inkscape:version="0.48.2 r9819"
   width="100%"
   height="100%"
   sodipodi:docname="wr.svg">
  <metadata
     id="metadata12">
    <rdf:RDF>
      <cc:Work
         rdf:about="">
        <dc:format>image/svg+xml</dc:format>
        <dc:type
           rdf:resource="http://purl.org/dc/dcmitype/StillImage" />
      </cc:Work>
    </rdf:RDF>
  </metadata>
  <defs
     id="defs10" />
  <sodipodi:namedview
     pagecolor="#ffffff"
     bordercolor="#666666"
     borderopacity="1"
     objecttolerance="10"
     gridtolerance="10"
     guidetolerance="10"
     inkscape:pageopacity="0"
     inkscape:pageshadow="2"
     inkscape:window-width="640"
     inkscape:window-height="738"
     id="namedview8"
     showgrid="false"
     inkscape:zoom="0.11523438"
     inkscape:cx="1024"
     inkscape:cy="1024"
     inkscape:window-x="0"
     inkscape:window-y="0"
     inkscape:window-maximized="0"
     inkscape:current-layer="svg2" />
  <g
     transform="matrix(1 0 0 -1 0 1638)"
     id="g4">
    <path
       fill="#000000"
       d="M1516 1567h-492.5h-492.5q-58 0 -59.5 120.5t-1.5 222.5h91h92l64 -136h153l61 136h186l60 -136h154l64 136h182q0 -102 -2 -222.5t-59 -120.5zM1516 1842h-92l-61 -132h-218l-60 132h-122l-61 -132h-217l-61 132h-47h-46q0 -51 3 -131t35 -80h456h457q31 0 32.5 80 t1.5 131zM755 274q54 0 94 39.5t40 95.5v209q0 55 39 95t96 40v0q55 0 95 -40t40 -95v-209q0 -56 39 -95.5t91 -39.5h161h163l-139 137l-177 984l-552 -1q-45 -246 -89 -491.5t-88 -491.5q-36 -34 -70.5 -68.5t-69.5 -68.5h327zM1024 1228v0q67 0 67 -68v-172q0 -67 -67 -67 v0q-68 0 -68 67v172q0 68 68 68zM1702 274q-31 -35 -50.5 -87t-66.5 -52h-563h-559q-48 0 -67 52t-50 87l166 168l172 954h-119q-53 0 -53 53v0q0 54 53 54h917q54 0 54 -54v0q0 -53 -54 -53h-117l171 -954z"
       id="path6" />
  </g>
  <path
     style="fill:#f9f9f9;fill-opacity:1;stroke:none"
     d="m 505.27973,1705.2984 67.04244,-67.7662 65.53094,-364.4746 c 36.04202,-200.461 75.18817,-416.85254 86.99146,-480.87008 11.80328,-64.01754 21.46051,-119.665 21.46051,-123.66102 0,-3.99601 122.74702,-7.26548 272.77112,-7.26548 252.3642,0 273.0918,1.13615 277.0566,15.18644 2.357,8.35254 42.109,228.01356 88.3378,488.13564 l 84.0523,472.9491 66.2809,67.6735 66.2809,67.6734 -175.1203,-2.5887 c -161.0754,-2.3811 -177.04,-4.0237 -199.057,-20.4808 -56.2199,-42.0231 -59.3343,-52.4682 -64.0599,-214.8469 -3.8935,-133.7822 -6.2824,-152.2103 -23.2651,-179.4644 -26.3587,-42.301 -61.5495,-60.7458 -115.897,-60.7458 -56.63852,0 -97.87772,23.7536 -121.44669,69.9526 -14.75908,28.9301 -17.08617,51.3054 -17.08617,164.2855 0,149.7391 -6.85533,175.461 -56.95559,213.7028 l -32.76324,25.0083 -178.59821,2.6814 -178.59821,2.6814 67.04244,-67.7661 z m 570.78807,-592.7831 c 15.703,-15.703 17.3559,-28.9266 17.3559,-138.8475 0,-109.92091 -1.6529,-123.14447 -17.3559,-138.84746 -11.5706,-11.57062 -28.9266,-17.35593 -52.0678,-17.35593 -23.1412,0 -40.49718,5.78531 -52.0678,17.35593 -15.70298,15.70299 -17.35593,28.92655 -17.35593,138.84746 0,109.9209 1.65295,123.1445 17.35593,138.8475 11.57062,11.5706 28.9266,17.3559 52.0678,17.3559 23.1412,0 40.4972,-5.7853 52.0678,-17.3559 z"
     id="path2989"
     inkscape:connector-curvature="0"
     transform="translate(0,-410)" />
  <path
     style="fill:#f9f9f9;fill-opacity:1;stroke:none"
     d="m 504.90158,1705.6429 c 65.12611,-66.5391 66.96374,-69.6124 79.64274,-133.1954 7.13814,-35.7967 15.28427,-80.3061 18.10251,-98.91 2.81823,-18.6038 6.96548,-42.0343 9.21609,-52.0678 2.25061,-10.0334 5.69083,-28.0053 7.64491,-39.9375 1.9541,-11.9322 11.64264,-66.6034 21.53011,-121.4915 9.88747,-54.8882 20.18472,-113.4644 22.88279,-130.1695 2.69806,-16.7051 6.4904,-36.2305 8.4274,-43.3898 1.937,-7.1594 5.79377,-28.6373 8.57061,-47.7289 2.77683,-19.0915 6.68192,-40.56945 8.67796,-47.72877 1.99605,-7.15932 5.90113,-28.63729 8.67797,-47.72881 2.77683,-19.09153 6.68192,-40.5695 8.67796,-47.72882 1.99605,-7.15932 5.74393,-26.68474 8.32864,-43.38983 7.22165,-46.67397 20.68276,-122.8246 27.02578,-152.88707 5.45385,-25.84825 8.05273,-27.30155 58.19419,-32.54237 67.11916,-7.01534 429.83906,-7.17368 464.69326,-0.20285 27.02,5.40401 33.1354,16.57984 42.2208,77.15771 2.1476,14.31865 11.8858,68.98984 21.6406,121.49153 9.7549,52.5017 19.3846,105.22034 21.3994,117.15254 2.0147,11.93221 5.6244,31.45764 8.0214,43.38984 2.3969,11.9322 6.0081,31.4576 8.0248,43.3898 2.0168,11.9322 15.951,90.0339 30.9649,173.5593 15.0139,83.5255 29.1085,163.5797 31.3215,177.8984 2.213,14.3186 11.8687,68.9898 21.4571,121.4915 l 17.4337,95.4576 66.703,68.2647 66.703,68.2646 -173.4806,-5.7716 c -195.5574,-6.5061 -213.8582,-11.7035 -241.8998,-68.697 -12.9035,-26.2259 -17.046,-59.6792 -20.3875,-164.6397 -5.8789,-184.6631 -30.4972,-230.2812 -128.6671,-238.4223 -57.29635,-4.7514 -100.9716,15.0319 -127.43121,57.7218 -17.50938,28.2496 -20.19078,46.8747 -25.16614,174.8049 -3.27375,84.1772 -9.96187,152.1273 -16.22877,164.8814 -5.86305,11.9322 -24.02446,32.9377 -40.35869,46.6789 l -29.69862,24.9841 -179.76449,4.0758 -179.76449,4.0756 66.66429,-68.1105 z m 571.16622,-593.1276 c 15.703,-15.703 17.3559,-28.9266 17.3559,-138.8475 0,-109.92091 -1.6529,-123.14447 -17.3559,-138.84746 -11.5706,-11.57062 -28.9266,-17.35593 -52.0678,-17.35593 -23.1412,0 -40.49718,5.78531 -52.0678,17.35593 -15.70298,15.70299 -17.35593,28.92655 -17.35593,138.84746 0,109.9209 1.65295,123.1445 17.35593,138.8475 11.57062,11.5706 28.9266,17.3559 52.0678,17.3559 23.1412,0 40.4972,-5.7853 52.0678,-17.3559 z"
     id="path2991"
     inkscape:connector-curvature="0"
     transform="translate(0,-410)" />
  <path
     style="fill:#f9f9f9;fill-opacity:1;stroke:none"
     d="m 546.49708,387.34015 c -4.65475,-12.24291 -8.46318,-57.15138 -8.46318,-99.79661 l 0,-77.53676 41.82156,0 41.82156,0 28.60264,65.08475 28.60263,65.08474 114.58381,0 114.5838,0 28.60264,-65.08474 28.60263,-65.08475 58.57353,0 58.5735,0 28.3775,65.08475 28.3774,65.08474 114.9803,0 114.9803,0 28.6026,-65.08474 28.6027,-65.08475 41.8216,0 41.8215,0 0,77.53676 c 0,42.64523 -3.8084,87.5537 -8.4632,99.79661 l -8.4632,22.25985 -469.0397,0 -469.03974,0 -8.46318,-22.25985 z"
     id="path2993"
     inkscape:connector-curvature="0"
     transform="translate(0,-410)" />
</svg>
