<?xml version="1.0" encoding="UTF-8" standalone="no"?>
<!-- Created with Inkscape (http://www.inkscape.org/) -->

<svg
   xmlns:dc="http://purl.org/dc/elements/1.1/"
   xmlns:cc="http://creativecommons.org/ns#"
   xmlns:rdf="http://www.w3.org/1999/02/22-rdf-syntax-ns#"
   xmlns:svg="http://www.w3.org/2000/svg"
   xmlns="http://www.w3.org/2000/svg"
   xmlns:xlink="http://www.w3.org/1999/xlink"
   xmlns:sodipodi="http://sodipodi.sourceforge.net/DTD/sodipodi-0.dtd"
   xmlns:inkscape="http://www.inkscape.org/namespaces/inkscape"
   width="353.63"
   height="353.63"
   id="svg2"
   sodipodi:version="0.32"
   inkscape:version="0.91 r13725"
   version="1.0"
   sodipodi:docname="bb.svg"
   inkscape:output_extension="org.inkscape.output.svg.inkscape">
  <defs
     id="defs4">
    <linearGradient
       inkscape:collect="always"
       id="linearGradient5217">
      <stop
         style="stop-color:#daa520;stop-opacity:1;"
         offset="0"
         id="stop5219" />
      <stop
         style="stop-color:#daa520;stop-opacity:0;"
         offset="1"
         id="stop5221" />
    </linearGradient>
    <linearGradient
       inkscape:collect="always"
       id="linearGradient3693">
      <stop
         style="stop-color:#ffff82;stop-opacity:1;"
         offset="0"
         id="stop3695" />
      <stop
         style="stop-color:#ffff82;stop-opacity:0;"
         offset="1"
         id="stop3697" />
    </linearGradient>
    <linearGradient
       id="linearGradient3645">
      <stop
         style="stop-color:#ffff23;stop-opacity:0.49803922;"
         offset="0"
         id="stop3649" />
      <stop
         id="stop3651"
         offset="1"
         style="stop-color:#ffff23;stop-opacity:0;" />
    </linearGradient>
    <linearGradient
       id="linearGradient3635">
      <stop
         style="stop-color:#ffff23;stop-opacity:1;"
         offset="0"
         id="stop3637" />
      <stop
         id="stop3643"
         offset="0.5"
         style="stop-color:#ffff23;stop-opacity:0.49803922;" />
      <stop
         style="stop-color:#ffff23;stop-opacity:0;"
         offset="1"
         id="stop3639" />
    </linearGradient>
    <inkscape:perspective
       sodipodi:type="inkscape:persp3d"
       inkscape:vp_x="0 : 526.18109 : 1"
       inkscape:vp_y="6.1230318e-14 : 1000 : 0"
       inkscape:vp_z="744.09448 : 526.18109 : 1"
       inkscape:persp3d-origin="372.04724 : 350.78739 : 1"
       id="perspective10" />
    <inkscape:perspective
       id="perspective3299"
       inkscape:persp3d-origin="372.04724 : 350.78739 : 1"
       inkscape:vp_z="744.09448 : 526.18109 : 1"
       inkscape:vp_y="0 : 1000 : 0"
       inkscape:vp_x="0 : 526.18109 : 1"
       sodipodi:type="inkscape:persp3d" />
    <linearGradient
       inkscape:collect="always"
       xlink:href="#linearGradient3693"
       id="linearGradient3721"
       x1="212.1792"
       y1="114.92841"
       x2="145.8732"
       y2="79.565208"
       gradientUnits="userSpaceOnUse" />
    <linearGradient
       inkscape:collect="always"
       xlink:href="#linearGradient5217"
       id="linearGradient5223"
       x1="82.221229"
       y1="193.2683"
       x2="297.82674"
       y2="193.2683"
       gradientUnits="userSpaceOnUse"
       gradientTransform="translate(-9.8317497,-5.2435999)" />
  </defs>
  <sodipodi:namedview
     id="base"
     pagecolor="#ffffff"
     bordercolor="#666666"
     borderopacity="1.0"
     gridtolerance="5"
     guidetolerance="5"
     objecttolerance="5"
     inkscape:pageopacity="0.0"
     inkscape:pageshadow="2"
     inkscape:zoom="1.5256694"
     inkscape:cx="56.881002"
     inkscape:cy="233.87041"
     inkscape:document-units="px"
     inkscape:current-layer="layer1"
     showgrid="true"
     inkscape:snap-guide="false"
     inkscape:object-paths="false"
     inkscape:object-nodes="false"
     inkscape:snap-bbox="false"
     inkscape:window-width="1680"
     inkscape:window-height="996"
     inkscape:window-x="0"
     inkscape:window-y="0"
     showguides="true"
     inkscape:guide-bbox="true"
     inkscape:snap-nodes="true"
     inkscape:snap-intersection-line-segments="false"
     inkscape:bbox-paths="true"
     inkscape:bbox-nodes="true"
     inkscape:snap-global="true"
     inkscape:snap-intersection-grid-guide="false"
     showborder="false"
     inkscape:showpageshadow="false"
     inkscape:snap-grids="false"
     inkscape:window-maximized="1">
    <sodipodi:guide
       orientation="1,0"
       position="322.689,206.09502"
       id="guide2405" />
    <sodipodi:guide
       orientation="1,0"
       position="30.943,205.136"
       id="guide2407" />
    <sodipodi:guide
       orientation="0,1"
       position="144.66682,30.943"
       id="guide2409" />
    <sodipodi:guide
       orientation="0,1"
       position="171.45697,322.689"
       id="guide2411" />
    <sodipodi:guide
       orientation="1,0"
       position="194.99638,205.15585"
       id="guide2413" />
    <sodipodi:guide
       orientation="0,1"
       position="203.68109,172.21949"
       id="guide2415" />
    <inkscape:grid
       type="xygrid"
       id="grid5815" />
  </sodipodi:namedview>
  <metadata
     id="metadata7">
    <rdf:RDF>
      <cc:Work
         rdf:about="">
        <dc:format>image/svg+xml</dc:format>
        <dc:type
           rdf:resource="http://purl.org/dc/dcmitype/StillImage" />
        <dc:title />
      </cc:Work>
    </rdf:RDF>
  </metadata>
  <g
     inkscape:groupmode="layer"
     id="layer3"
     inkscape:label="base"
     style="display:inline">
    <path
       style="fill:#804d00;fill-opacity:1;fill-rule:evenodd;stroke:#000000;stroke-width:1px;stroke-linecap:butt;stroke-linejoin:miter;stroke-opacity:1"
       d="m 181.11918,55.00791 27.80839,21.319764 -13.90419,11.123355 4.63473,10.196411 36.61438,14.83114 22.71018,12.51377 17.1485,16.68504 7.41557,12.97724 4.63474,18.07546 -3.24432,17.61198 -10.1964,24.1006 -10.65989,16.68503 -24.56407,26.41797 -38.0048,29.19881 62.1054,1.39042 -1.39042,29.3085 -163.60602,3.13462 0.46348,-33.37007 61.17845,-0.92695 -25.95449,-17.61197 -21.31977,-21.31977 -15.75809,-18.07545 -14.831136,-22.71018 -7.879043,-23.17366 -0.926947,-14.36767 6.488624,-17.61198 8.80599,-12.97725 19.002402,-16.22156 20.39281,-10.1964 20.8563,-8.80599 11.12335,-3.24432 2.78084,-1.85389 4.17126,-9.732934 -13.9042,-13.440721 z"
       id="path4601"
       inkscape:connector-curvature="0" />
  </g>
  <g
     inkscape:groupmode="layer"
     id="layer2"
     inkscape:label="gradient"
     style="display:inline">
    <path
       style="fill:url(#linearGradient5223);fill-opacity:1;fill-rule:evenodd;stroke:#000000;stroke-width:1px;stroke-linecap:butt;stroke-linejoin:miter;stroke-opacity:1"
       d="m 180.42103,55.29591 27.80839,21.319764 -13.90419,11.123355 4.63473,10.196411 36.61438,14.83114 22.71018,12.51377 17.1485,16.68504 7.41557,12.97724 4.63474,18.07546 -3.24432,17.61198 -10.1964,24.1006 -10.65989,16.68503 -24.56407,26.41797 -38.0048,29.19881 62.1054,1.39042 -1.39042,29.3085 -163.60602,3.13462 0.46348,-33.37007 61.17845,-0.92695 -25.95449,-17.61197 -21.31977,-21.31977 -15.75809,-18.07545 -14.83114,-22.71018 -7.87904,-23.17366 -0.92695,-14.36767 6.48863,-17.61198 8.80599,-12.97725 19.0024,-16.22156 20.39281,-10.1964 20.8563,-8.80599 11.12335,-3.24432 2.78084,-1.85389 4.17126,-9.732934 -13.9042,-13.440721 z"
       id="path4601-7"
       inkscape:connector-curvature="0" />
  </g>
  <g
     inkscape:label="Layer 1"
     inkscape:groupmode="layer"
     id="layer1"
     style="display:inline;opacity:1">
    <rect
       style="opacity:0.24800002;fill:none;fill-opacity:0;fill-rule:evenodd;stroke:#b50000;stroke-width:21;stroke-miterlimit:4;stroke-dasharray:none;stroke-opacity:0"
       id="rect7399"
       width="95.011993"
       height="43.103004"
       x="125.96589"
       y="96.257004"
       ry="7.4354501" />
    <use
       id="use7401"
       xlink:href="#rect7399"
       x="0"
       y="0"
       width="100%"
       height="100%"
       transform="translate(-64.903988,-41.89831)"
       style="fill:none" />
    <use
       id="use7403"
       xlink:href="#rect7399"
       x="0"
       y="0"
       width="100%"
       height="100%"
       transform="translate(-54.630278,-23.322448)"
       style="fill:none" />
    <use
       id="use7405"
       xlink:href="#rect7399"
       x="0"
       y="0"
       width="100%"
       height="100%"
       transform="translate(-52.875268,-21.039501)"
       style="fill:none" />
    <use
       id="use7407"
       xlink:href="#rect7399"
       x="0"
       y="0"
       width="100%"
       height="100%"
       transform="translate(-50.010348,-24.881165)"
       style="fill:none" />
    <use
       id="use7409"
       xlink:href="#rect7399"
       x="0"
       y="0"
       width="100%"
       height="100%"
       transform="translate(-42.702768,-14.078738)"
       style="fill:none" />
    <use
       id="use7411"
       xlink:href="#rect7399"
       x="0"
       y="0"
       width="100%"
       height="100%"
       transform="translate(-42.829048,-7.8951471)"
       style="fill:none" />
    <use
       id="use7413"
       xlink:href="#rect7399"
       x="0"
       y="0"
       width="100%"
       height="100%"
       transform="translate(-43.893078,-16.473312)"
       style="fill:none" />
    <use
       id="use7415"
       xlink:href="#rect7399"
       x="0"
       y="0"
       width="100%"
       height="100%"
       transform="translate(-52.516478,-15.263686)"
       style="fill:none" />
    <use
       id="use7417"
       xlink:href="#rect7399"
       x="0"
       y="0"
       width="100%"
       height="100%"
       transform="translate(-45.488638,-3.7118887)"
       style="fill:none" />
    <use
       id="use7419"
       xlink:href="#rect7399"
       x="0"
       y="0"
       width="100%"
       height="100%"
       transform="translate(-52.287658,2.6307273)"
       style="fill:none" />
    <use
       id="use7421"
       xlink:href="#rect7399"
       x="0"
       y="0"
       width="100%"
       height="100%"
       transform="translate(-49.313998,-6.4787041)"
       style="fill:none" />
    <use
       id="use7423"
       xlink:href="#rect7399"
       x="0"
       y="0"
       width="100%"
       height="100%"
       transform="translate(-38.175978,15.642167)"
       style="fill:none" />
    <use
       id="use7425"
       xlink:href="#rect7399"
       x="0"
       y="0"
       width="100%"
       height="100%"
       transform="translate(-41.453328,-4.8573001)"
       style="fill:none" />
    <use
       id="use7427"
       xlink:href="#rect7399"
       x="0"
       y="0"
       width="100%"
       height="100%"
       transform="translate(-31.740128,6.8546172)"
       style="fill:none" />
    <use
       id="use7429"
       xlink:href="#rect7399"
       x="0"
       y="0"
       width="100%"
       height="100%"
       transform="translate(-42.463428,30.219905)"
       style="fill:none" />
    <use
       id="use7431"
       xlink:href="#rect7399"
       x="0"
       y="0"
       width="100%"
       height="100%"
       transform="translate(-33.334478,36.364809)"
       style="fill:none" />
    <use
       id="use7433"
       xlink:href="#rect7399"
       x="0"
       y="0"
       width="100%"
       height="100%"
       transform="translate(-29.673778,33.820059)"
       style="fill:none" />
    <use
       id="use7435"
       xlink:href="#rect7399"
       x="0"
       y="0"
       width="100%"
       height="100%"
       transform="translate(-42.849868,30.11827)"
       style="fill:none" />
    <use
       id="use7437"
       xlink:href="#rect7399"
       x="0"
       y="0"
       width="100%"
       height="100%"
       transform="translate(-36.914328,14.124709)"
       style="fill:none" />
    <use
       id="use7439"
       xlink:href="#rect7399"
       x="0"
       y="0"
       width="100%"
       height="100%"
       transform="translate(-19.254398,20.987022)"
       style="fill:none" />
    <use
       id="use7441"
       xlink:href="#rect7399"
       x="0"
       y="0"
       width="100%"
       height="100%"
       transform="translate(-33.871448,39.680308)"
       style="fill:none" />
    <use
       id="use7443"
       xlink:href="#rect7399"
       x="0"
       y="0"
       width="100%"
       height="100%"
       transform="translate(-20.180308,27.115187)"
       style="fill:none" />
    <use
       id="use7445"
       xlink:href="#rect7399"
       x="0"
       y="0"
       width="100%"
       height="100%"
       transform="translate(-30.206968,33.953632)"
       style="fill:none" />
    <use
       id="use7447"
       xlink:href="#rect7399"
       x="0"
       y="0"
       width="100%"
       height="100%"
       transform="translate(-71.992798,-40.853477)"
       style="fill:none" />
    <use
       id="use7449"
       xlink:href="#rect7399"
       x="0"
       y="0"
       width="100%"
       height="100%"
       transform="translate(-73.466038,-30.090479)"
       style="fill:none" />
    <use
       id="use7451"
       xlink:href="#rect7399"
       x="0"
       y="0"
       width="100%"
       height="100%"
       transform="translate(-58.965348,-41.130145)"
       style="fill:none" />
    <use
       id="use7453"
       xlink:href="#rect7399"
       x="0"
       y="0"
       width="100%"
       height="100%"
       transform="translate(-9.9403081,46.363562)"
       style="fill:none" />
    <use
       id="use7455"
       xlink:href="#rect7399"
       x="0"
       y="0"
       width="100%"
       height="100%"
       transform="translate(-50.307838,1.2081263)"
       style="fill:none" />
    <use
       id="use7457"
       xlink:href="#rect7399"
       x="0"
       y="0"
       width="100%"
       height="100%"
       transform="translate(-42.353338,-14.111704)"
       style="fill:none" />
    <use
       id="use7459"
       xlink:href="#rect7399"
       x="0"
       y="0"
       width="100%"
       height="100%"
       transform="translate(-56.755728,-4.9357461)"
       style="fill:none" />
    <use
       id="use7461"
       xlink:href="#rect7399"
       x="0"
       y="0"
       width="100%"
       height="100%"
       transform="translate(-40.494628,1.2178173)"
       style="fill:none" />
    <use
       id="use7463"
       xlink:href="#rect7399"
       x="0"
       y="0"
       width="100%"
       height="100%"
       transform="translate(-47.773908,20.269536)"
       style="fill:none" />
    <use
       id="use7465"
       xlink:href="#rect7399"
       x="0"
       y="0"
       width="100%"
       height="100%"
       transform="translate(-53.656258,11.353041)"
       style="fill:none" />
    <use
       id="use7467"
       xlink:href="#rect7399"
       x="0"
       y="0"
       width="100%"
       height="100%"
       transform="translate(-41.873218,19.652604)"
       style="fill:none" />
    <use
       id="use7469"
       xlink:href="#rect7399"
       x="0"
       y="0"
       width="100%"
       height="100%"
       transform="translate(-44.648678,17.511905)"
       style="fill:none" />
    <use
       id="use7471"
       xlink:href="#rect7399"
       x="0"
       y="0"
       width="100%"
       height="100%"
       transform="translate(-9.8052081,25.749294)"
       style="fill:none" />
    <use
       id="use7473"
       xlink:href="#rect7399"
       x="0"
       y="0"
       width="100%"
       height="100%"
       transform="translate(-8.8370681,42.959665)"
       style="fill:none" />
    <use
       id="use7475"
       xlink:href="#rect7399"
       x="0"
       y="0"
       width="100%"
       height="100%"
       transform="translate(-18.669548,37.083324)"
       style="fill:none" />
    <use
       id="use7477"
       xlink:href="#rect7399"
       x="0"
       y="0"
       width="100%"
       height="100%"
       transform="translate(-22.848008,21.444351)"
       style="fill:none" />
    <use
       id="use7479"
       xlink:href="#rect7399"
       x="0"
       y="0"
       width="100%"
       height="100%"
       transform="translate(-4.4861482,25.781344)"
       style="fill:none" />
    <use
       id="use7481"
       xlink:href="#rect7399"
       x="0"
       y="0"
       width="100%"
       height="100%"
       transform="translate(-0.48673771,36.134685)"
       style="fill:none" />
    <use
       id="use7483"
       xlink:href="#rect7399"
       x="0"
       y="0"
       width="100%"
       height="100%"
       transform="translate(-14.659768,38.821224)"
       style="fill:none" />
    <use
       id="use7485"
       xlink:href="#rect7399"
       x="0"
       y="0"
       width="100%"
       height="100%"
       transform="translate(10.706172,25.024276)"
       style="fill:none" />
    <use
       id="use7487"
       xlink:href="#rect7399"
       x="0"
       y="0"
       width="100%"
       height="100%"
       transform="translate(7.7617123,9.6753892)"
       style="fill:none" />
    <use
       id="use7489"
       xlink:href="#rect7399"
       x="0"
       y="0"
       width="100%"
       height="100%"
       transform="translate(-5.4250982,13.018049)"
       style="fill:none" />
    <use
       id="use7491"
       xlink:href="#rect7399"
       x="0"
       y="0"
       width="100%"
       height="100%"
       transform="translate(13.752192,19.389891)"
       style="fill:none" />
    <use
       id="use7493"
       xlink:href="#rect7399"
       x="0"
       y="0"
       width="100%"
       height="100%"
       transform="translate(4.3792323,1.5679133)"
       style="fill:none" />
    <use
       id="use7495"
       xlink:href="#rect7399"
       x="0"
       y="0"
       width="100%"
       height="100%"
       transform="translate(4.8274423,5.2908642)"
       style="fill:none" />
    <use
       id="use7497"
       xlink:href="#rect7399"
       x="0"
       y="0"
       width="100%"
       height="100%"
       transform="translate(14.092492,16.743036)"
       style="fill:none" />
    <use
       id="use7499"
       xlink:href="#rect7399"
       x="0"
       y="0"
       width="100%"
       height="100%"
       transform="translate(6.6919023,19.447885)"
       style="fill:none" />
    <use
       id="use7501"
       xlink:href="#rect7399"
       x="0"
       y="0"
       width="100%"
       height="100%"
       transform="translate(10.322812,8.8875972)"
       style="fill:none" />
    <use
       id="use7503"
       xlink:href="#rect7399"
       x="0"
       y="0"
       width="100%"
       height="100%"
       transform="translate(15.825152,9.3716602)"
       style="fill:none" />
    <use
       id="use7505"
       xlink:href="#rect7399"
       x="0"
       y="0"
       width="100%"
       height="100%"
       transform="translate(30.736052,22.464932)"
       style="fill:none" />
    <use
       id="use7507"
       xlink:href="#rect7399"
       x="0"
       y="0"
       width="100%"
       height="100%"
       transform="translate(33.254112,16.676737)"
       style="fill:none" />
    <use
       id="use7509"
       xlink:href="#rect7399"
       x="0"
       y="0"
       width="100%"
       height="100%"
       transform="translate(41.953052,1.6094843)"
       style="fill:none" />
    <use
       id="use7511"
       xlink:href="#rect7399"
       x="0"
       y="0"
       width="100%"
       height="100%"
       transform="translate(50.700322,4.4116953)"
       style="fill:none" />
    <use
       id="use7513"
       xlink:href="#rect7399"
       x="0"
       y="0"
       width="100%"
       height="100%"
       transform="translate(45.375102,1.7143633)"
       style="fill:none" />
    <use
       id="use7515"
       xlink:href="#rect7399"
       x="0"
       y="0"
       width="100%"
       height="100%"
       transform="translate(53.936022,-6.3420521)"
       style="fill:none" />
    <use
       id="use7517"
       xlink:href="#rect7399"
       x="0"
       y="0"
       width="100%"
       height="100%"
       transform="translate(45.693362,-3.8895887)"
       style="fill:none" />
    <use
       id="use7519"
       xlink:href="#rect7399"
       x="0"
       y="0"
       width="100%"
       height="100%"
       transform="translate(6.2227223,2.1699073)"
       style="fill:none" />
    <use
       id="use7521"
       xlink:href="#rect7399"
       x="0"
       y="0"
       width="100%"
       height="100%"
       transform="translate(6.1714023,24.798813)"
       style="fill:none" />
    <use
       id="use7523"
       xlink:href="#rect7399"
       x="0"
       y="0"
       width="100%"
       height="100%"
       transform="translate(29.853382,24.860527)"
       style="fill:none" />
    <use
       id="use7525"
       xlink:href="#rect7399"
       x="0"
       y="0"
       width="100%"
       height="100%"
       transform="translate(5.9882723,7.4498762)"
       style="fill:none" />
    <use
       id="use7527"
       xlink:href="#rect7399"
       x="0"
       y="0"
       width="100%"
       height="100%"
       transform="translate(34.136022,4.1062143)"
       style="fill:none" />
    <use
       id="use7755"
       xlink:href="#rect7399"
       x="0"
       y="0"
       width="100%"
       height="100%"
       transform="translate(88.019802,-64.720062)" />
    <use
       id="use7757"
       xlink:href="#rect7399"
       x="0"
       y="0"
       width="100%"
       height="100%"
       transform="translate(97.724052,-50.554684)"
       style="fill:none" />
    <use
       id="use7759"
       xlink:href="#rect7399"
       x="0"
       y="0"
       width="100%"
       height="100%"
       transform="translate(75.964582,1.0617493)"
       style="fill:none" />
    <use
       id="use7761"
       xlink:href="#rect7399"
       x="0"
       y="0"
       width="100%"
       height="100%"
       transform="translate(100.19318,-29.836403)"
       style="fill:none" />
    <use
       id="use7763"
       xlink:href="#rect7399"
       x="0"
       y="0"
       width="100%"
       height="100%"
       transform="translate(92.215932,-37.397243)"
       style="fill:none" />
    <use
       id="use7775"
       xlink:href="#rect7399"
       x="0"
       y="0"
       width="100%"
       height="100%"
       transform="translate(83.446442,-18.17492)"
       style="fill:none" />
    <use
       id="use7777"
       xlink:href="#rect7399"
       x="0"
       y="0"
       width="100%"
       height="100%"
       transform="translate(84.082282,-34.26385)"
       style="fill:none" />
    <use
       id="use7779"
       xlink:href="#rect7399"
       x="0"
       y="0"
       width="100%"
       height="100%"
       transform="translate(63.573602,25.081506)"
       style="fill:none" />
    <use
       id="use7781"
       xlink:href="#rect7399"
       x="0"
       y="0"
       width="100%"
       height="100%"
       transform="translate(81.793172,-14.960432)"
       style="fill:none" />
    <use
       id="use7783"
       xlink:href="#rect7399"
       x="0"
       y="0"
       width="100%"
       height="100%"
       transform="translate(52.161132,-57.954229)" />
    <use
       id="use7785"
       xlink:href="#rect7399"
       x="0"
       y="0"
       width="100%"
       height="100%"
       transform="translate(55.473292,-30.183602)"
       style="fill:none" />
    <use
       id="use7787"
       xlink:href="#rect7399"
       x="0"
       y="0"
       width="100%"
       height="100%"
       transform="translate(64.050392,-26.10261)"
       style="fill:none" />
    <use
       id="use7789"
       xlink:href="#rect7399"
       x="0"
       y="0"
       width="100%"
       height="100%"
       transform="translate(44.804372,-45.309833)"
       style="fill:none" />
    <use
       id="use7791"
       xlink:href="#rect7399"
       x="0"
       y="0"
       width="100%"
       height="100%"
       transform="translate(67.665852,-41.773174)"
       style="fill:none" />
    <use
       id="use7793"
       xlink:href="#rect7399"
       x="0"
       y="0"
       width="100%"
       height="100%"
       transform="translate(66.862392,-33.135062)"
       style="fill:none" />
    <use
       id="use7795"
       xlink:href="#rect7399"
       x="0"
       y="0"
       width="100%"
       height="100%"
       transform="translate(44.932042,7.5836812)"
       style="fill:none" />
    <use
       id="use7797"
       xlink:href="#rect7399"
       x="0"
       y="0"
       width="100%"
       height="100%"
       transform="translate(53.711882,19.022767)"
       style="fill:none" />
    <use
       id="use7799"
       xlink:href="#rect7399"
       x="0"
       y="0"
       width="100%"
       height="100%"
       transform="translate(54.106182,2.0032623)"
       style="fill:none" />
    <path
       style="fill:none;fill-rule:evenodd;stroke:#000000;stroke-width:1px;stroke-linecap:butt;stroke-linejoin:miter;stroke-opacity:1"
       d="M 193.63296,94.403119 Z"
       id="path7867"
       inkscape:connector-curvature="0" />
    <path
       style="fill:none;fill-rule:evenodd;stroke:#000000;stroke-width:5;stroke-linecap:butt;stroke-linejoin:miter;stroke-miterlimit:4;stroke-dasharray:none;stroke-opacity:1"
       d="m 200.25685,98.42358 c 67.96584,20.28914 90.15057,51.2728 87.20996,79.62078 -3.55863,34.30541 -31.37965,72.27072 -86.64383,109.31842"
       id="path7892"
       inkscape:connector-curvature="0"
       sodipodi:nodetypes="csc" />
    <path
       style="display:inline;fill:none;fill-rule:evenodd;stroke:#000000;stroke-width:1.48880172px;stroke-linecap:butt;stroke-linejoin:miter;stroke-opacity:1"
       d="m 215.13851,284.59591 0,0"
       id="path7873-6"
       inkscape:connector-curvature="0"
       sodipodi:nodetypes="cc" />
    <path
       style="fill:none;fill-rule:evenodd;stroke:#000000;stroke-width:5;stroke-linecap:butt;stroke-linejoin:miter;stroke-miterlimit:4;stroke-dasharray:none;stroke-opacity:1"
       d="m 152.37484,76.074983 c 0,0 0,0 28.86932,-21.255381 28.24172,21.621853 28.24172,21.621853 28.24172,21.621853"
       id="path7942"
       inkscape:connector-curvature="0" />
    <path
       style="fill:none;fill-rule:evenodd;stroke:#000000;stroke-width:1px;stroke-linecap:butt;stroke-linejoin:miter;stroke-opacity:1"
       d="M 47.466632,248.42862 Z"
       id="path7969"
       inkscape:connector-curvature="0" />
    <path
       style="display:inline;fill:none;fill-rule:evenodd;stroke:#000000;stroke-width:5;stroke-linecap:butt;stroke-linejoin:miter;stroke-miterlimit:4;stroke-dasharray:none;stroke-opacity:1"
       d="m 162.69119,99.02961 c -66.46817,20.21641 -91.26821,50.40029 -88.392397,78.64667 3.480206,34.18244 30.688187,72.01164 84.734587,108.92655"
       id="path7892-8"
       inkscape:connector-curvature="0"
       sodipodi:nodetypes="csc" />
    <path
       style="display:inline;fill:none;fill-rule:evenodd;stroke:#000000;stroke-width:5;stroke-linecap:butt;stroke-linejoin:miter;stroke-miterlimit:4;stroke-dasharray:none;stroke-opacity:1"
       d="m 152.00454,73.756372 15.63884,14.612739 -6.13078,11.654429 0.22198,0.22162"
       id="path7946-2"
       inkscape:connector-curvature="0"
       sodipodi:nodetypes="cccc" />
    <rect
       style="fill:none;fill-rule:evenodd;stroke:#000000;stroke-width:5;stroke-linecap:butt;stroke-linejoin:miter;stroke-miterlimit:4;stroke-dasharray:none;stroke-opacity:1"
       id="rect8009"
       width="164.83687"
       height="32.009426"
       x="99.036339"
       y="287.53113"
       ry="2.3065262" />
    <path
       style="fill:none;fill-rule:evenodd;stroke:#000000;stroke-width:3;stroke-linecap:butt;stroke-linejoin:miter;stroke-miterlimit:4;stroke-dasharray:none;stroke-opacity:1"
       d="m 135.67815,108.4917 c 89.14121,0 89.14121,0 89.14121,0"
       id="path8013"
       inkscape:connector-curvature="0" />
    <path
       style="fill:none;fill-rule:evenodd;stroke:#000000;stroke-width:3;stroke-linecap:butt;stroke-linejoin:miter;stroke-miterlimit:4;stroke-dasharray:none;stroke-opacity:1"
       d="m 119.94735,116.02937 c 121.25826,0 121.25826,0 121.25826,0"
       id="path8015"
       inkscape:connector-curvature="0" />
    <path
       style="fill:none;fill-rule:evenodd;stroke:#000000;stroke-width:3;stroke-linecap:butt;stroke-linejoin:miter;stroke-miterlimit:4;stroke-dasharray:none;stroke-opacity:1"
       d="m 161.97856,99.15442 c 38.01034,0.3316 38.01034,0.3316 38.01034,0.3316"
       id="path8017"
       inkscape:connector-curvature="0" />
    <path
       style="fill:none;fill-rule:evenodd;stroke:#000000;stroke-width:3;stroke-linecap:butt;stroke-linejoin:miter;stroke-miterlimit:4;stroke-dasharray:none;stroke-opacity:1"
       d="m 74.065852,174.1932 c 214.659878,0 214.659878,0 214.659878,0"
       id="path8019"
       inkscape:connector-curvature="0" />
    <path
       style="display:inline;fill:none;fill-rule:evenodd;stroke:#000000;stroke-width:5;stroke-linecap:butt;stroke-linejoin:miter;stroke-miterlimit:4;stroke-dasharray:none;stroke-opacity:1"
       d="m 210.57876,74.570793 -15.63884,13.685793 6.13078,11.654434 -0.22198,0.22162"
       id="path7946-2-0"
       inkscape:connector-curvature="0"
       sodipodi:nodetypes="cccc" />
    <path
       style="display:inline;fill:none;fill-rule:evenodd;stroke:#000000;stroke-width:3;stroke-linecap:butt;stroke-linejoin:miter;stroke-miterlimit:4;stroke-dasharray:none;stroke-opacity:1"
       d="m 98.72328,298.18471 c 163.86486,-0.65443 163.86486,-0.65443 163.86486,-0.65443"
       id="path7965"
       inkscape:connector-curvature="0" />
    <path
       style="display:inline;fill:none;fill-rule:evenodd;stroke:#000000;stroke-width:3;stroke-linecap:butt;stroke-linejoin:miter;stroke-miterlimit:4;stroke-dasharray:none;stroke-opacity:1"
       d="m 262.71442,307.12696 c -163.48558,0 -162.06396,0 -163.48558,0 -1.42161,0 0,0 0,0"
       id="path7967"
       inkscape:connector-curvature="0" />
    <path
       style="display:inline;fill:none;fill-rule:evenodd;stroke:#000000;stroke-width:3;stroke-linecap:butt;stroke-linejoin:miter;stroke-miterlimit:4;stroke-dasharray:none;stroke-opacity:1"
       d="m 75.025443,166.11955 c 212.187477,-1.17692 212.187477,-1.17692 212.187477,-1.17692 l 0,0 0,0"
       id="path7943"
       inkscape:connector-curvature="0" />
    <path
       style="display:inline;fill:none;fill-rule:evenodd;stroke:#000000;stroke-width:3;stroke-linecap:butt;stroke-linejoin:miter;stroke-miterlimit:4;stroke-dasharray:none;stroke-opacity:1"
       d="m 117.62337,252.90059 c 126.52816,0 126.52816,0 126.52816,0"
       id="path7945"
       inkscape:connector-curvature="0" />
    <path
       style="display:inline;fill:none;fill-rule:evenodd;stroke:#000000;stroke-width:3;stroke-linecap:butt;stroke-linejoin:miter;stroke-miterlimit:4;stroke-dasharray:none;stroke-opacity:1"
       d="m 127.3563,262.17005 c 105.2084,0.46348 105.2084,0.46348 105.2084,0.46348"
       id="path7947"
       inkscape:connector-curvature="0" />
  </g>
</svg>
