<?xml version="1.0" encoding="UTF-8" standalone="no"?>
<!-- Created with Inkscape (http://www.inkscape.org/) -->

<svg
   xmlns:dc="http://purl.org/dc/elements/1.1/"
   xmlns:cc="http://creativecommons.org/ns#"
   xmlns:rdf="http://www.w3.org/1999/02/22-rdf-syntax-ns#"
   xmlns:svg="http://www.w3.org/2000/svg"
   xmlns="http://www.w3.org/2000/svg"
   xmlns:xlink="http://www.w3.org/1999/xlink"
   xmlns:sodipodi="http://sodipodi.sourceforge.net/DTD/sodipodi-0.dtd"
   xmlns:inkscape="http://www.inkscape.org/namespaces/inkscape"
   width="353.63"
   height="353.63"
   id="svg2"
   sodipodi:version="0.32"
   inkscape:version="0.91 r13725"
   version="1.0"
   sodipodi:docname="wq.svg"
   inkscape:output_extension="org.inkscape.output.svg.inkscape">
  <defs
     id="defs4">
    <linearGradient
       inkscape:collect="always"
       id="linearGradient4505">
      <stop
         style="stop-color:#daa520;stop-opacity:1;"
         offset="0"
         id="stop4507" />
      <stop
         style="stop-color:#daa520;stop-opacity:0;"
         offset="1"
         id="stop4509" />
    </linearGradient>
    <linearGradient
       inkscape:collect="always"
       id="linearGradient3693">
      <stop
         style="stop-color:#ffff82;stop-opacity:1;"
         offset="0"
         id="stop3695" />
      <stop
         style="stop-color:#ffff82;stop-opacity:0;"
         offset="1"
         id="stop3697" />
    </linearGradient>
    <linearGradient
       id="linearGradient3645">
      <stop
         style="stop-color:#ffff23;stop-opacity:0.49803922;"
         offset="0"
         id="stop3649" />
      <stop
         id="stop3651"
         offset="1"
         style="stop-color:#ffff23;stop-opacity:0;" />
    </linearGradient>
    <linearGradient
       id="linearGradient3635">
      <stop
         style="stop-color:#ffff23;stop-opacity:1;"
         offset="0"
         id="stop3637" />
      <stop
         id="stop3643"
         offset="0.5"
         style="stop-color:#ffff23;stop-opacity:0.49803922;" />
      <stop
         style="stop-color:#ffff23;stop-opacity:0;"
         offset="1"
         id="stop3639" />
    </linearGradient>
    <inkscape:perspective
       sodipodi:type="inkscape:persp3d"
       inkscape:vp_x="0 : 526.18109 : 1"
       inkscape:vp_y="6.1230318e-14 : 1000 : 0"
       inkscape:vp_z="744.09448 : 526.18109 : 1"
       inkscape:persp3d-origin="372.04724 : 350.78739 : 1"
       id="perspective10" />
    <inkscape:perspective
       id="perspective3299"
       inkscape:persp3d-origin="372.04724 : 350.78739 : 1"
       inkscape:vp_z="744.09448 : 526.18109 : 1"
       inkscape:vp_y="0 : 1000 : 0"
       inkscape:vp_x="0 : 526.18109 : 1"
       sodipodi:type="inkscape:persp3d" />
    <linearGradient
       inkscape:collect="always"
       xlink:href="#linearGradient3693"
       id="linearGradient3721"
       x1="212.1792"
       y1="114.92841"
       x2="145.8732"
       y2="79.565208"
       gradientUnits="userSpaceOnUse" />
    <linearGradient
       inkscape:collect="always"
       xlink:href="#linearGradient4505"
       id="linearGradient4511"
       x1="60.182661"
       y1="161.85785"
       x2="275.24833"
       y2="161.85785"
       gradientUnits="userSpaceOnUse"
       gradientTransform="matrix(0.82506606,0,0,0.96191487,42.21019,12.145526)" />
  </defs>
  <sodipodi:namedview
     id="base"
     pagecolor="#ffffff"
     bordercolor="#666666"
     borderopacity="1.0"
     gridtolerance="5"
     guidetolerance="5"
     objecttolerance="5"
     inkscape:pageopacity="0.0"
     inkscape:pageshadow="2"
     inkscape:zoom="2.1576224"
     inkscape:cx="166.16532"
     inkscape:cy="201.63715"
     inkscape:document-units="px"
     inkscape:current-layer="layer1"
     showgrid="true"
     inkscape:snap-guide="false"
     inkscape:object-paths="false"
     inkscape:object-nodes="false"
     inkscape:snap-bbox="false"
     inkscape:window-width="1680"
     inkscape:window-height="996"
     inkscape:window-x="0"
     inkscape:window-y="0"
     showguides="true"
     inkscape:guide-bbox="true"
     inkscape:snap-nodes="true"
     inkscape:snap-intersection-line-segments="false"
     inkscape:bbox-paths="true"
     inkscape:bbox-nodes="true"
     inkscape:snap-global="true"
     inkscape:snap-intersection-grid-guide="false"
     showborder="false"
     inkscape:showpageshadow="false"
     inkscape:snap-grids="false"
     inkscape:window-maximized="1">
    <sodipodi:guide
       orientation="1,0"
       position="322.689,206.09502"
       id="guide2405" />
    <sodipodi:guide
       orientation="1,0"
       position="30.943,205.136"
       id="guide2407" />
    <sodipodi:guide
       orientation="0,1"
       position="144.66682,30.943"
       id="guide2409" />
    <sodipodi:guide
       orientation="0,1"
       position="171.45697,322.689"
       id="guide2411" />
    <sodipodi:guide
       orientation="1,0"
       position="179.82757,214.12458"
       id="guide2413" />
    <sodipodi:guide
       orientation="0,1"
       position="135.48163,176.815"
       id="guide2415" />
    <inkscape:grid
       type="xygrid"
       id="grid5815" />
  </sodipodi:namedview>
  <metadata
     id="metadata7">
    <rdf:RDF>
      <cc:Work
         rdf:about="">
        <dc:format>image/svg+xml</dc:format>
        <dc:type
           rdf:resource="http://purl.org/dc/dcmitype/StillImage" />
        <dc:title />
      </cc:Work>
    </rdf:RDF>
  </metadata>
  <g
     inkscape:groupmode="layer"
     id="layer6"
     inkscape:label="base"
     style="display:inline">
    <path
       style="fill:#fffbd6;fill-opacity:1;fill-rule:evenodd;stroke:#000000;stroke-width:0.87912208px;stroke-linecap:butt;stroke-linejoin:miter;stroke-opacity:1"
       d="m 180.21207,15.457925 15.14595,13.503967 -7.57298,15.764815 14.74963,66.993853 c 25.20873,8.76275 38.47985,16.57261 57.1658,36.60284 24.35299,33.35429 3.54771,75.61522 -20.79782,104.9885 -11.62224,13.28399 -21.65804,23.55574 -33.7892,33.873 l 44.8316,0.83672 0.0327,32.1963 -136.29968,-0.3069 -0.27046,-31.61157 45.43787,-0.3069 -30.29191,-28.54248 c -7.66317,-9.14362 -15.32631,-20.02288 -22.98944,-31.61156 -5.10922,-10.72442 -9.811342,-21.52794 -11.900401,-32.8392 l -1.622777,-16.57306 c 1.185349,-9.70188 4.093302,-21.47212 8.846038,-28.20324 11.68876,-16.60743 23.47463,-24.2566 40.81694,-31.97012 l 16.80572,-6.70031 12.23619,-66.825873 -5.9502,-16.685539 z"
       id="path7473"
       inkscape:connector-curvature="0"
       sodipodi:nodetypes="cccccccccccccccccccccc" />
  </g>
  <g
     inkscape:groupmode="layer"
     id="layer7"
     inkscape:label="gradient"
     style="display:inline">
    <path
       style="fill:url(#linearGradient4511);fill-opacity:1;fill-rule:evenodd;stroke:#000000;stroke-width:0.87957466px;stroke-linecap:butt;stroke-linejoin:miter;stroke-opacity:1"
       d="m 180.48545,15.358034 15.14591,13.517911 -7.57296,15.781092 14.46959,67.704013 c 11.51066,3.1363 22.71197,9.21389 34.21358,17.41032 8.89239,5.48921 16.35721,13.10435 21.6369,19.20559 4.41344,6.33093 8.10681,13.02165 10.00739,20.60814 3.54679,34.48619 -11.75525,61.85987 -29.34518,83.71488 l -35.5659,35.1813 45.97868,-0.33127 -0.54091,32.2827 -134.96097,-0.30723 -0.27046,-31.6442 45.43777,-0.30723 -30.29185,-28.57195 c -7.66311,-9.15305 -15.32623,-20.04355 -22.98934,-31.64419 -4.93219,-10.53563 -9.790351,-21.10363 -11.900374,-32.87311 -6.7423,-25.85945 8.224494,-50.47354 22.584174,-60.86265 13.01344,-11.5326 26.41188,-16.53717 42.59759,-22.47557 l 11.90015,-67.089543 -5.95017,-16.702768 z"
       id="path7473-7"
       inkscape:connector-curvature="0"
       sodipodi:nodetypes="cccccccccccccccccccccc" />
  </g>
  <g
     inkscape:label="Layer 1"
     inkscape:groupmode="layer"
     id="layer1"
     style="display:inline;opacity:1">
    <rect
       style="opacity:0.24800002;fill:none;fill-opacity:0;fill-rule:evenodd;stroke:#b50000;stroke-width:13.55939388;stroke-miterlimit:4;stroke-dasharray:none;stroke-opacity:0"
       id="rect7397"
       width="81.403564"
       height="13.79575"
       x="167.66689"
       y="45.913719"
       ry="6.6679459" />
    <rect
       style="opacity:0.24800002;fill:none;fill-opacity:0;fill-rule:evenodd;stroke:#b50000;stroke-width:18.60362434;stroke-miterlimit:4;stroke-dasharray:none;stroke-opacity:0"
       id="rect7399"
       width="78.408134"
       height="40.990326"
       x="135.68591"
       y="107.55771"
       ry="7.0710044" />
    <use
       id="use7403"
       xlink:href="#rect7399"
       x="0"
       y="0"
       width="100%"
       height="100%"
       transform="translate(-46.598356,-21.729663)"
       style="fill:none" />
    <use
       id="use7405"
       xlink:href="#rect7399"
       x="0"
       y="0"
       width="100%"
       height="100%"
       transform="translate(-45.150506,-19.51459)"
       style="fill:none" />
    <use
       id="use7407"
       xlink:href="#rect7399"
       x="0"
       y="0"
       width="100%"
       height="100%"
       transform="translate(-42.787005,-23.242037)"
       style="fill:none" />
    <use
       id="use7409"
       xlink:href="#rect7399"
       x="0"
       y="0"
       width="100%"
       height="100%"
       transform="translate(-35.240233,-13.388673)"
       style="fill:none" />
    <use
       id="use7411"
       xlink:href="#rect7399"
       x="0"
       y="0"
       width="100%"
       height="100%"
       transform="translate(-35.344447,-7.5081692)"
       style="fill:none" />
    <use
       id="use7413"
       xlink:href="#rect7399"
       x="0"
       y="0"
       width="100%"
       height="100%"
       transform="translate(-36.222532,-15.665879)"
       style="fill:none" />
    <use
       id="use7415"
       xlink:href="#rect7399"
       x="0"
       y="0"
       width="100%"
       height="100%"
       transform="translate(-44.854513,-13.910496)"
       style="fill:none" />
    <use
       id="use7417"
       xlink:href="#rect7399"
       x="0"
       y="0"
       width="100%"
       height="100%"
       transform="translate(-37.539255,-3.5299522)"
       style="fill:none" />
    <use
       id="use7419"
       xlink:href="#rect7399"
       x="0"
       y="0"
       width="100%"
       height="100%"
       transform="translate(-44.665738,3.4519005)"
       style="fill:none" />
    <use
       id="use7421"
       xlink:href="#rect7399"
       x="0"
       y="0"
       width="100%"
       height="100%"
       transform="translate(-42.212529,-5.3866988)"
       style="fill:none" />
    <use
       id="use7423"
       xlink:href="#rect7399"
       x="0"
       y="0"
       width="100%"
       height="100%"
       transform="translate(-31.504524,14.875473)"
       style="fill:none" />
    <use
       id="use7425"
       xlink:href="#rect7399"
       x="0"
       y="0"
       width="100%"
       height="100%"
       transform="translate(-34.20914,-4.6192206)"
       style="fill:none" />
    <use
       id="use7427"
       xlink:href="#rect7399"
       x="0"
       y="0"
       width="100%"
       height="100%"
       transform="translate(-26.193375,6.5186407)"
       style="fill:none" />
    <use
       id="use7429"
       xlink:href="#rect7399"
       x="0"
       y="0"
       width="100%"
       height="100%"
       transform="translate(-35.04272,28.738686)"
       style="fill:none" />
    <use
       id="use7431"
       xlink:href="#rect7399"
       x="0"
       y="0"
       width="100%"
       height="100%"
       transform="translate(-27.5091,34.582405)"
       style="fill:none" />
    <use
       id="use7433"
       xlink:href="#rect7399"
       x="0"
       y="0"
       width="100%"
       height="100%"
       transform="translate(-24.488129,32.162382)"
       style="fill:none" />
    <use
       id="use7435"
       xlink:href="#rect7399"
       x="0"
       y="0"
       width="100%"
       height="100%"
       transform="translate(-35.361624,28.642033)"
       style="fill:none" />
    <use
       id="use7437"
       xlink:href="#rect7399"
       x="0"
       y="0"
       width="100%"
       height="100%"
       transform="translate(-30.463357,13.432392)"
       style="fill:none" />
    <use
       id="use7439"
       xlink:href="#rect7399"
       x="0"
       y="0"
       width="100%"
       height="100%"
       transform="translate(-15.889588,19.958351)"
       style="fill:none" />
    <use
       id="use7441"
       xlink:href="#rect7399"
       x="0"
       y="0"
       width="100%"
       height="100%"
       transform="translate(-27.952235,37.735389)"
       style="fill:none" />
    <use
       id="use7443"
       xlink:href="#rect7399"
       x="0"
       y="0"
       width="100%"
       height="100%"
       transform="translate(-16.65369,25.786146)"
       style="fill:none" />
    <use
       id="use7445"
       xlink:href="#rect7399"
       x="0"
       y="0"
       width="100%"
       height="100%"
       transform="translate(-24.928137,32.289413)"
       style="fill:none" />
    <use
       id="use7453"
       xlink:href="#rect7399"
       x="0"
       y="0"
       width="100%"
       height="100%"
       transform="translate(-8.2031898,44.091068)"
       style="fill:none" />
    <use
       id="use7455"
       xlink:href="#rect7399"
       x="0"
       y="0"
       width="100%"
       height="100%"
       transform="translate(-43.03242,2.071595)"
       style="fill:none" />
    <use
       id="use7457"
       xlink:href="#rect7399"
       x="0"
       y="0"
       width="100%"
       height="100%"
       transform="translate(-34.951864,-13.420024)"
       style="fill:none" />
    <use
       id="use7461"
       xlink:href="#rect7399"
       x="0"
       y="0"
       width="100%"
       height="100%"
       transform="translate(-33.417976,1.1581261)"
       style="fill:none" />
    <use
       id="use7463"
       xlink:href="#rect7399"
       x="0"
       y="0"
       width="100%"
       height="100%"
       transform="translate(-40.941984,20.566291)"
       style="fill:none" />
    <use
       id="use7465"
       xlink:href="#rect7399"
       x="0"
       y="0"
       width="100%"
       height="100%"
       transform="translate(-45.794808,11.914891)"
       style="fill:none" />
    <use
       id="use7467"
       xlink:href="#rect7399"
       x="0"
       y="0"
       width="100%"
       height="100%"
       transform="translate(-34.555651,18.689338)"
       style="fill:none" />
    <use
       id="use7469"
       xlink:href="#rect7399"
       x="0"
       y="0"
       width="100%"
       height="100%"
       transform="translate(-36.846084,16.653565)"
       style="fill:none" />
    <use
       id="use7471"
       xlink:href="#rect7399"
       x="0"
       y="0"
       width="100%"
       height="100%"
       transform="translate(-8.0916988,24.487203)"
       style="fill:none" />
    <use
       id="use7473"
       xlink:href="#rect7399"
       x="0"
       y="0"
       width="100%"
       height="100%"
       transform="translate(-7.2927458,40.854014)"
       style="fill:none" />
    <use
       id="use7475"
       xlink:href="#rect7399"
       x="0"
       y="0"
       width="100%"
       height="100%"
       transform="translate(-15.406949,35.265702)"
       style="fill:none" />
    <use
       id="use7477"
       xlink:href="#rect7399"
       x="0"
       y="0"
       width="100%"
       height="100%"
       transform="translate(-18.855196,20.393264)"
       style="fill:none" />
    <use
       id="use7479"
       xlink:href="#rect7399"
       x="0"
       y="0"
       width="100%"
       height="100%"
       transform="translate(-3.7021738,24.517681)"
       style="fill:none" />
    <use
       id="use7481"
       xlink:href="#rect7399"
       x="0"
       y="0"
       width="100%"
       height="100%"
       transform="translate(-0.40167881,34.36356)"
       style="fill:none" />
    <use
       id="use7483"
       xlink:href="#rect7399"
       x="0"
       y="0"
       width="100%"
       height="100%"
       transform="translate(-12.097898,36.918416)"
       style="fill:none" />
    <use
       id="use7485"
       xlink:href="#rect7399"
       x="0"
       y="0"
       width="100%"
       height="100%"
       transform="translate(8.835207,23.79772)"
       style="fill:none" />
    <use
       id="use7487"
       xlink:href="#rect7399"
       x="0"
       y="0"
       width="100%"
       height="100%"
       transform="translate(6.405305,9.2011535)"
       style="fill:none" />
    <use
       id="use7489"
       xlink:href="#rect7399"
       x="0"
       y="0"
       width="100%"
       height="100%"
       transform="translate(-4.4770348,12.379974)"
       style="fill:none" />
    <use
       id="use7491"
       xlink:href="#rect7399"
       x="0"
       y="0"
       width="100%"
       height="100%"
       transform="translate(11.348919,18.439502)"
       style="fill:none" />
    <use
       id="use7493"
       xlink:href="#rect7399"
       x="0"
       y="0"
       width="100%"
       height="100%"
       transform="translate(3.6139342,1.4910622)"
       style="fill:none" />
    <use
       id="use7495"
       xlink:href="#rect7399"
       x="0"
       y="0"
       width="100%"
       height="100%"
       transform="translate(3.9838192,5.0315349)"
       style="fill:none" />
    <use
       id="use7497"
       xlink:href="#rect7399"
       x="0"
       y="0"
       width="100%"
       height="100%"
       transform="translate(11.629747,15.922382)"
       style="fill:none" />
    <use
       id="use7499"
       xlink:href="#rect7399"
       x="0"
       y="0"
       width="100%"
       height="100%"
       transform="translate(5.5224512,18.494654)"
       style="fill:none" />
    <use
       id="use7501"
       xlink:href="#rect7399"
       x="0"
       y="0"
       width="100%"
       height="100%"
       transform="translate(8.518844,8.4519749)"
       style="fill:none" />
    <use
       id="use7503"
       xlink:href="#rect7399"
       x="0"
       y="0"
       width="100%"
       height="100%"
       transform="translate(13.059619,8.9123117)"
       style="fill:none" />
    <use
       id="use7505"
       xlink:href="#rect7399"
       x="0"
       y="0"
       width="100%"
       height="100%"
       transform="translate(25.364762,21.363822)"
       style="fill:none" />
    <use
       id="use7507"
       xlink:href="#rect7399"
       x="0"
       y="0"
       width="100%"
       height="100%"
       transform="translate(27.442773,15.859333)"
       style="fill:none" />
    <use
       id="use7509"
       xlink:href="#rect7399"
       x="0"
       y="0"
       width="100%"
       height="100%"
       transform="translate(34.621524,1.530596)"
       style="fill:none" />
    <use
       id="use7511"
       xlink:href="#rect7399"
       x="0"
       y="0"
       width="100%"
       height="100%"
       transform="translate(41.840167,4.1954577)"
       style="fill:none" />
    <use
       id="use7513"
       xlink:href="#rect7399"
       x="0"
       y="0"
       width="100%"
       height="100%"
       transform="translate(37.445552,1.6303341)"
       style="fill:none" />
    <use
       id="use7515"
       xlink:href="#rect7399"
       x="0"
       y="0"
       width="100%"
       height="100%"
       transform="translate(44.510411,-6.031199)"
       style="fill:none" />
    <use
       id="use7517"
       xlink:href="#rect7399"
       x="0"
       y="0"
       width="100%"
       height="100%"
       transform="translate(37.708195,-3.6989423)"
       style="fill:none" />
    <use
       id="use7519"
       xlink:href="#rect7399"
       x="0"
       y="0"
       width="100%"
       height="100%"
       transform="translate(5.1352652,2.0635496)"
       style="fill:none" />
    <use
       id="use7521"
       xlink:href="#rect7399"
       x="0"
       y="0"
       width="100%"
       height="100%"
       transform="translate(5.0929142,23.583308)"
       style="fill:none" />
    <use
       id="use7523"
       xlink:href="#rect7399"
       x="0"
       y="0"
       width="100%"
       height="100%"
       transform="translate(13.81821,3.6956497)"
       style="fill:none" />
    <use
       id="use7525"
       xlink:href="#rect7399"
       x="0"
       y="0"
       width="100%"
       height="100%"
       transform="translate(4.9417862,7.0847236)"
       style="fill:none" />
    <use
       id="use7527"
       xlink:href="#rect7399"
       x="0"
       y="0"
       width="100%"
       height="100%"
       transform="translate(28.170564,3.9049498)"
       style="fill:none" />
    <use
       id="use7731"
       xlink:href="#rect7399"
       x="0"
       y="0"
       width="100%"
       height="100%"
       transform="translate(78.547773,-80.194199)"
       style="fill:none" />
    <use
       id="use7733"
       xlink:href="#rect7399"
       x="0"
       y="0"
       width="100%"
       height="100%"
       transform="translate(79.534526,-86.970032)"
       style="fill:none" />
    <use
       id="use7753"
       xlink:href="#rect7399"
       x="0"
       y="0"
       width="100%"
       height="100%"
       transform="translate(77.069719,-75.385855)"
       style="fill:none" />
    <use
       id="use7755"
       xlink:href="#rect7399"
       x="0"
       y="0"
       width="100%"
       height="100%"
       transform="translate(71.085211,-61.896483)"
       style="fill:none" />
    <use
       id="use7757"
       xlink:href="#rect7399"
       x="0"
       y="0"
       width="100%"
       height="100%"
       transform="translate(79.091026,-48.152258)"
       style="fill:none" />
    <use
       id="use7759"
       xlink:href="#rect7399"
       x="0"
       y="0"
       width="100%"
       height="100%"
       transform="translate(61.139889,1.9295693)"
       style="fill:none" />
    <use
       id="use7761"
       xlink:href="#rect7399"
       x="0"
       y="0"
       width="100%"
       height="100%"
       transform="translate(81.128016,-28.049951)"
       style="fill:none" />
    <use
       id="use7763"
       xlink:href="#rect7399"
       x="0"
       y="0"
       width="100%"
       height="100%"
       transform="translate(74.54694,-35.386005)"
       style="fill:none" />
    <use
       id="use7775"
       xlink:href="#rect7399"
       x="0"
       y="0"
       width="100%"
       height="100%"
       transform="translate(67.312274,-16.735176)"
       style="fill:none" />
    <use
       id="use7777"
       xlink:href="#rect7399"
       x="0"
       y="0"
       width="100%"
       height="100%"
       transform="translate(67.836835,-32.345766)"
       style="fill:none" />
    <use
       id="use7779"
       xlink:href="#rect7399"
       x="0"
       y="0"
       width="100%"
       height="100%"
       transform="translate(52.463767,23.852146)"
       style="fill:none" />
    <use
       id="use7781"
       xlink:href="#rect7399"
       x="0"
       y="0"
       width="100%"
       height="100%"
       transform="translate(65.948358,-13.616257)"
       style="fill:none" />
    <use
       id="use7783"
       xlink:href="#rect7399"
       x="0"
       y="0"
       width="100%"
       height="100%"
       transform="matrix(1.0010688,0,0,0.94299839,42.880836,-44.770314)"
       style="fill:none" />
    <use
       id="use7785"
       xlink:href="#rect7399"
       x="0"
       y="0"
       width="100%"
       height="100%"
       transform="translate(45.779033,-28.704164)"
       style="fill:none" />
    <use
       id="use7787"
       xlink:href="#rect7399"
       x="0"
       y="0"
       width="100%"
       height="100%"
       transform="translate(52.857241,-24.823199)"
       style="fill:none" />
    <use
       id="use7789"
       xlink:href="#rect7399"
       x="0"
       y="0"
       width="100%"
       height="100%"
       transform="matrix(1.0010688,0,0,0.94299839,36.803222,-33.431101)"
       style="fill:none" />
    <use
       id="use7791"
       xlink:href="#rect7399"
       x="0"
       y="0"
       width="100%"
       height="100%"
       transform="translate(54.293599,-39.631829)"
       style="fill:none" />
    <use
       id="use7793"
       xlink:href="#rect7399"
       x="0"
       y="0"
       width="100%"
       height="100%"
       transform="translate(53.630757,-31.250538)"
       style="fill:none" />
    <use
       id="use7795"
       xlink:href="#rect7399"
       x="0"
       y="0"
       width="100%"
       height="100%"
       transform="translate(37.079924,7.2119696)"
       style="fill:none" />
    <use
       id="use7797"
       xlink:href="#rect7399"
       x="0"
       y="0"
       width="100%"
       height="100%"
       transform="translate(44.325439,18.090373)"
       style="fill:none" />
    <use
       id="use7799"
       xlink:href="#rect7399"
       x="0"
       y="0"
       width="100%"
       height="100%"
       transform="translate(44.650829,1.9050732)"
       style="fill:none" />
    <path
       style="fill:none;fill-opacity:1;fill-rule:evenodd;stroke:#000000;stroke-width:4.4294343;stroke-linecap:butt;stroke-linejoin:miter;stroke-miterlimit:4;stroke-dasharray:none;stroke-opacity:1"
       d="m 201.58658,112.23975 c 53.4282,19.22787 69.72934,46.61358 67.41771,73.47879 -2.79744,32.511 -23.04494,66.93218 -66.48833,102.04204"
       id="path7892"
       inkscape:connector-curvature="0"
       sodipodi:nodetypes="csc" />
    <path
       style="display:inline;fill:none;fill-rule:evenodd;stroke:#000000;stroke-width:1.31890976px;stroke-linecap:butt;stroke-linejoin:miter;stroke-opacity:1"
       d="m 209.27512,286.66524 0,0"
       id="path7873-6"
       inkscape:connector-curvature="0"
       sodipodi:nodetypes="cc" />
    <path
       style="fill:none;fill-rule:evenodd;stroke:#000000;stroke-width:0.8946805px;stroke-linecap:butt;stroke-linejoin:miter;stroke-opacity:1"
       d="M 69.411186,251.77719 Z"
       id="path7969"
       inkscape:connector-curvature="0" />
    <path
       style="display:inline;fill:none;fill-opacity:1;fill-rule:evenodd;stroke:#000000;stroke-width:4.4294343;stroke-linecap:butt;stroke-linejoin:miter;stroke-miterlimit:4;stroke-dasharray:none;stroke-opacity:1"
       d="m 159.48893,111.94642 c -53.4282,19.22787 -68.773144,46.17283 -66.461524,73.03806 2.797453,32.511 24.667674,68.49046 68.111054,103.60033"
       id="path7892-8"
       inkscape:connector-curvature="0"
       sodipodi:nodetypes="csc" />
    <rect
       style="fill:none;fill-rule:evenodd;stroke:#000000;stroke-width:4.4294343;stroke-linecap:butt;stroke-linejoin:miter;stroke-miterlimit:4;stroke-dasharray:none;stroke-opacity:1"
       id="rect8009"
       width="135.96426"
       height="32.126919"
       x="113.49566"
       y="288.17261"
       ry="2.3149922" />
    <path
       style="fill:none;fill-rule:evenodd;stroke:#000000;stroke-width:2.58218265;stroke-linecap:butt;stroke-linejoin:miter;stroke-miterlimit:4;stroke-dasharray:none;stroke-opacity:1"
       d="m 140.9362,119.6003 c 76.34935,0 76.34935,0 76.34935,0"
       id="path8013"
       inkscape:connector-curvature="0" />
    <path
       style="fill:none;fill-rule:evenodd;stroke:#000000;stroke-width:2.58218265;stroke-linecap:butt;stroke-linejoin:miter;stroke-miterlimit:4;stroke-dasharray:none;stroke-opacity:1"
       d="m 128.73354,126.3599 103.23779,0"
       id="path8015"
       inkscape:connector-curvature="0"
       sodipodi:nodetypes="cc" />
    <path
       style="fill:none;fill-rule:evenodd;stroke:#000000;stroke-width:2.58218265;stroke-linecap:butt;stroke-linejoin:miter;stroke-miterlimit:4;stroke-dasharray:none;stroke-opacity:1"
       d="m 156.36851,113.72235 45.67607,-0.13307 1.4331,0.42697"
       id="path8017"
       inkscape:connector-curvature="0"
       sodipodi:nodetypes="ccc" />
    <path
       style="fill:none;fill-rule:evenodd;stroke:#000000;stroke-width:2.65766048;stroke-linecap:butt;stroke-linejoin:miter;stroke-miterlimit:4;stroke-dasharray:none;stroke-opacity:1"
       d="m 116.94443,242.4291 c 129.08656,0 129.08656,0 129.08656,0 l 0,0"
       id="path4313"
       inkscape:connector-curvature="0" />
    <path
       style="fill:none;fill-rule:evenodd;stroke:#000000;stroke-width:2.65766048;stroke-linecap:butt;stroke-linejoin:miter;stroke-miterlimit:4;stroke-dasharray:none;stroke-opacity:1"
       d="m 123.44657,251.24422 c 116.46476,0 116.65601,0 116.65601,0"
       id="path4315"
       inkscape:connector-curvature="0" />
    <path
       style="fill:none;fill-rule:evenodd;stroke:#000000;stroke-width:4.30363798;stroke-linecap:butt;stroke-linejoin:miter;stroke-miterlimit:4;stroke-dasharray:none;stroke-opacity:1"
       d="m 201.77841,113.12072 0,0 -13.7991,-69.172912 c 0,0 1.72667,-1.469481 6.98383,-13.681026 0,0 -0.64369,-0.881691 -15.1887,-13.017288 l 0,0 0,0 0,0 -15.18867,12.704403 6.23791,14.650696 -11.18847,68.566117"
       id="path4412"
       inkscape:connector-curvature="0"
       sodipodi:nodetypes="ccccccccccc" />
    <path
       style="fill:none;fill-rule:evenodd;stroke:#000000;stroke-width:2.58218265;stroke-linecap:butt;stroke-linejoin:miter;stroke-miterlimit:4;stroke-dasharray:none;stroke-opacity:1"
       d="m 160.50774,104.05655 c 40.01176,0 40.01176,0 40.01176,0"
       id="path7123"
       inkscape:connector-curvature="0" />
    <path
       style="fill:none;fill-rule:evenodd;stroke:#000000;stroke-width:2.58218265;stroke-linecap:butt;stroke-linejoin:miter;stroke-miterlimit:4;stroke-dasharray:none;stroke-opacity:1"
       d="m 164.52806,84.210105 c 31.77967,0 31.77967,0 31.77967,0"
       id="path7125"
       inkscape:connector-curvature="0" />
    <path
       style="fill:none;fill-rule:evenodd;stroke:#000000;stroke-width:2.58218265;stroke-linecap:butt;stroke-linejoin:miter;stroke-miterlimit:4;stroke-dasharray:none;stroke-opacity:1"
       d="m 165.29384,78.59907 c 29.67377,0 29.67377,0 29.67377,0"
       id="path7127"
       inkscape:connector-curvature="0" />
    <path
       style="fill:none;fill-rule:evenodd;stroke:#000000;stroke-width:2.65766048;stroke-linecap:butt;stroke-linejoin:miter;stroke-miterlimit:4;stroke-dasharray:none;stroke-opacity:1"
       d="m 92.68983,178.80897 c 175.55774,0.44075 175.55774,0.44075 175.55774,0.44075"
       id="path7951"
       inkscape:connector-curvature="0" />
    <path
       style="display:inline;fill:none;fill-rule:evenodd;stroke:#000000;stroke-width:2.65766048;stroke-linecap:butt;stroke-linejoin:miter;stroke-miterlimit:4;stroke-dasharray:none;stroke-opacity:1"
       d="m 114.10901,300.63394 c 135.2286,-0.62235 135.2286,-0.62235 135.2286,-0.62235"
       id="path7965"
       inkscape:connector-curvature="0" />
    <path
       style="display:inline;fill:none;fill-rule:evenodd;stroke:#000000;stroke-width:2.65766048;stroke-linecap:butt;stroke-linejoin:miter;stroke-miterlimit:4;stroke-dasharray:none;stroke-opacity:1"
       d="m 249.8243,309.13789 c -27.73767,-0.62062 -74.56158,-0.55393 -134.9156,0 -1.17314,0.0108 0,0 0,0"
       id="path7967"
       inkscape:connector-curvature="0"
       sodipodi:nodetypes="csc" />
  </g>
</svg>
