<?xml version="1.0" encoding="UTF-8" standalone="no"?>
<!-- Created with Inkscape (http://www.inkscape.org/) -->

<svg
   xmlns:dc="http://purl.org/dc/elements/1.1/"
   xmlns:cc="http://creativecommons.org/ns#"
   xmlns:rdf="http://www.w3.org/1999/02/22-rdf-syntax-ns#"
   xmlns:svg="http://www.w3.org/2000/svg"
   xmlns="http://www.w3.org/2000/svg"
   xmlns:xlink="http://www.w3.org/1999/xlink"
   xmlns:sodipodi="http://sodipodi.sourceforge.net/DTD/sodipodi-0.dtd"
   xmlns:inkscape="http://www.inkscape.org/namespaces/inkscape"
   width="353.63"
   height="353.63"
   id="svg2"
   sodipodi:version="0.32"
   inkscape:version="0.91 r13725"
   version="1.0"
   sodipodi:docname="wq.svg"
   inkscape:output_extension="org.inkscape.output.svg.inkscape">
  <defs
     id="defs4">
    <linearGradient
       inkscape:collect="always"
       id="linearGradient4505">
      <stop
         style="stop-color:#daa520;stop-opacity:1;"
         offset="0"
         id="stop4507" />
      <stop
         style="stop-color:#daa520;stop-opacity:0;"
         offset="1"
         id="stop4509" />
    </linearGradient>
    <linearGradient
       inkscape:collect="always"
       id="linearGradient3693">
      <stop
         style="stop-color:#ffff82;stop-opacity:1;"
         offset="0"
         id="stop3695" />
      <stop
         style="stop-color:#ffff82;stop-opacity:0;"
         offset="1"
         id="stop3697" />
    </linearGradient>
    <linearGradient
       id="linearGradient3645">
      <stop
         style="stop-color:#ffff23;stop-opacity:0.49803922;"
         offset="0"
         id="stop3649" />
      <stop
         id="stop3651"
         offset="1"
         style="stop-color:#ffff23;stop-opacity:0;" />
    </linearGradient>
    <linearGradient
       id="linearGradient3635">
      <stop
         style="stop-color:#ffff23;stop-opacity:1;"
         offset="0"
         id="stop3637" />
      <stop
         id="stop3643"
         offset="0.5"
         style="stop-color:#ffff23;stop-opacity:0.49803922;" />
      <stop
         style="stop-color:#ffff23;stop-opacity:0;"
         offset="1"
         id="stop3639" />
    </linearGradient>
    <inkscape:perspective
       sodipodi:type="inkscape:persp3d"
       inkscape:vp_x="0 : 526.18109 : 1"
       inkscape:vp_y="6.1230318e-14 : 1000 : 0"
       inkscape:vp_z="744.09448 : 526.18109 : 1"
       inkscape:persp3d-origin="372.04724 : 350.78739 : 1"
       id="perspective10" />
    <inkscape:perspective
       id="perspective3299"
       inkscape:persp3d-origin="372.04724 : 350.78739 : 1"
       inkscape:vp_z="744.09448 : 526.18109 : 1"
       inkscape:vp_y="0 : 1000 : 0"
       inkscape:vp_x="0 : 526.18109 : 1"
       sodipodi:type="inkscape:persp3d" />
    <linearGradient
       inkscape:collect="always"
       xlink:href="#linearGradient3693"
       id="linearGradient3721"
       x1="212.1792"
       y1="114.92841"
       x2="145.8732"
       y2="79.565208"
       gradientUnits="userSpaceOnUse" />
    <linearGradient
       inkscape:collect="always"
       xlink:href="#linearGradient4505"
       id="linearGradient4511"
       x1="60.182661"
       y1="161.85785"
       x2="275.24833"
       y2="161.85785"
       gradientUnits="userSpaceOnUse" />
  </defs>
  <sodipodi:namedview
     id="base"
     pagecolor="#ffffff"
     bordercolor="#666666"
     borderopacity="1.0"
     gridtolerance="5"
     guidetolerance="5"
     objecttolerance="5"
     inkscape:pageopacity="0.0"
     inkscape:pageshadow="2"
     inkscape:zoom="2.1576224"
     inkscape:cx="166.16532"
     inkscape:cy="201.63715"
     inkscape:document-units="px"
     inkscape:current-layer="layer6"
     showgrid="true"
     inkscape:snap-guide="false"
     inkscape:object-paths="false"
     inkscape:object-nodes="false"
     inkscape:snap-bbox="false"
     inkscape:window-width="1680"
     inkscape:window-height="996"
     inkscape:window-x="0"
     inkscape:window-y="0"
     showguides="true"
     inkscape:guide-bbox="true"
     inkscape:snap-nodes="true"
     inkscape:snap-intersection-line-segments="false"
     inkscape:bbox-paths="true"
     inkscape:bbox-nodes="true"
     inkscape:snap-global="true"
     inkscape:snap-intersection-grid-guide="false"
     showborder="false"
     inkscape:showpageshadow="false"
     inkscape:snap-grids="false"
     inkscape:window-maximized="1">
    <sodipodi:guide
       orientation="1,0"
       position="322.689,206.09502"
       id="guide2405" />
    <sodipodi:guide
       orientation="1,0"
       position="30.943,205.136"
       id="guide2407" />
    <sodipodi:guide
       orientation="0,1"
       position="144.66682,30.943"
       id="guide2409" />
    <sodipodi:guide
       orientation="0,1"
       position="171.45697,322.689"
       id="guide2411" />
    <sodipodi:guide
       orientation="1,0"
       position="179.82757,214.12458"
       id="guide2413" />
    <sodipodi:guide
       orientation="0,1"
       position="135.48163,176.815"
       id="guide2415" />
    <inkscape:grid
       type="xygrid"
       id="grid5815" />
  </sodipodi:namedview>
  <metadata
     id="metadata7">
    <rdf:RDF>
      <cc:Work
         rdf:about="">
        <dc:format>image/svg+xml</dc:format>
        <dc:type
           rdf:resource="http://purl.org/dc/dcmitype/StillImage" />
        <dc:title></dc:title>
      </cc:Work>
    </rdf:RDF>
  </metadata>
  <g
     inkscape:groupmode="layer"
     id="layer6"
     inkscape:label="base"
     style="display:inline">
    <path
       style="fill:#fffbd6;fill-opacity:1;fill-rule:evenodd;stroke:#000000;stroke-width:0.98681676px;stroke-linecap:butt;stroke-linejoin:miter;stroke-opacity:1"
       d="m 167.26161,3.4435483 18.35726,14.0386317 -9.17864,16.388992 17.87691,69.646348 c 30.55359,9.10969 46.63851,17.22877 69.28634,38.05206 29.5164,34.67489 4.2999,78.60906 -25.20747,109.14532 -14.08643,13.80995 -26.25006,24.48839 -40.95333,35.21414 l 54.337,0.86985 0.0396,33.47105 -165.198518,-0.31905 -0.327802,-32.86317 55.0718,-0.31906 -36.71453,-29.67256 C 95.362317,247.59046 86.074401,236.28046 76.786505,224.23294 70.594004,213.08391 64.894925,201.85264 62.362934,190.09353 L 60.39609,172.8643 c 1.436671,-10.08601 4.96118,-22.32228 10.721609,-29.31989 14.167053,-17.26498 28.451815,-25.217 49.471111,-33.23593 l 20.36895,-6.9656 14.83056,-69.471708 -7.21179,-17.346171 z"
       id="path7473"
       inkscape:connector-curvature="0"
       sodipodi:nodetypes="cccccccccccccccccccccc" />
  </g>
  <g
     inkscape:groupmode="layer"
     id="layer7"
     inkscape:label="gradient"
     style="display:inline">
    <path
       style="fill:url(#linearGradient4511);fill-opacity:1;fill-rule:evenodd;stroke:#000000;stroke-width:0.98732483px;stroke-linecap:butt;stroke-linejoin:miter;stroke-opacity:1"
       d="m 167.59295,3.3397032 18.35721,14.0531278 -9.1786,16.405914 17.53748,70.384615 c 13.95121,3.26049 27.52745,9.57871 41.4677,18.09966 10.77778,5.70654 19.82532,13.6232 26.22444,19.966 5.34919,6.58159 9.82565,13.53721 12.1292,21.42408 4.29879,35.85161 -14.24765,64.30909 -35.56707,87.02941 l -43.10673,36.57424 55.72728,-0.3444 -0.65561,33.56088 -163.575954,-0.31938 -0.327801,-32.8971 55.071675,-0.31939 -36.71446,-29.7032 C 95.693838,247.73871 86.405947,236.41702 77.118073,224.35707 71.140142,213.4043 65.25194,202.41788 62.69454,190.18241 c -8.17183,-26.8833 9.968284,-52.47195 27.37256,-63.27239 15.77261,-11.98921 32.01183,-17.19194 51.62931,-23.36545 l 14.42327,-69.745825 -7.21176,-17.364083 z"
       id="path7473-7"
       inkscape:connector-curvature="0"
       sodipodi:nodetypes="cccccccccccccccccccccc" />
  </g>
  <g
     inkscape:label="Layer 1"
     inkscape:groupmode="layer"
     id="layer1"
     style="display:inline;opacity:1">
    <rect
       style="opacity:0.24800002;fill:none;fill-opacity:0;fill-rule:evenodd;stroke:#b50000;stroke-width:15.22045422;stroke-miterlimit:4;stroke-dasharray:none;stroke-opacity:0"
       id="rect7397"
       width="98.663086"
       height="14.341967"
       x="152.05656"
       y="35.105183"
       ry="6.9319506" />
    <rect
       style="opacity:0.24800002;fill:none;fill-opacity:0;fill-rule:evenodd;stroke:#b50000;stroke-width:20.88261604;stroke-miterlimit:4;stroke-dasharray:none;stroke-opacity:0"
       id="rect7399"
       width="95.032562"
       height="42.613258"
       x="113.29483"
       y="99.189842"
       ry="7.3509674" />
    <use
       id="use7403"
       xlink:href="#rect7399"
       x="0"
       y="0"
       width="100%"
       height="100%"
       transform="translate(-56.478335,-22.590008)"
       style="fill:none" />
    <use
       id="use7405"
       xlink:href="#rect7399"
       x="0"
       y="0"
       width="100%"
       height="100%"
       transform="translate(-54.723505,-20.287233)"
       style="fill:none" />
    <use
       id="use7407"
       xlink:href="#rect7399"
       x="0"
       y="0"
       width="100%"
       height="100%"
       transform="translate(-51.858885,-24.162262)"
       style="fill:none" />
    <use
       id="use7409"
       xlink:href="#rect7399"
       x="0"
       y="0"
       width="100%"
       height="100%"
       transform="translate(-42.712015,-13.918773)"
       style="fill:none" />
    <use
       id="use7411"
       xlink:href="#rect7399"
       x="0"
       y="0"
       width="100%"
       height="100%"
       transform="translate(-42.838325,-7.805441)"
       style="fill:none" />
    <use
       id="use7413"
       xlink:href="#rect7399"
       x="0"
       y="0"
       width="100%"
       height="100%"
       transform="translate(-43.902585,-16.28614)"
       style="fill:none" />
    <use
       id="use7415"
       xlink:href="#rect7399"
       x="0"
       y="0"
       width="100%"
       height="100%"
       transform="translate(-54.364755,-14.461255)"
       style="fill:none" />
    <use
       id="use7417"
       xlink:href="#rect7399"
       x="0"
       y="0"
       width="100%"
       height="100%"
       transform="translate(-45.498485,-3.669714)"
       style="fill:none" />
    <use
       id="use7419"
       xlink:href="#rect7399"
       x="0"
       y="0"
       width="100%"
       height="100%"
       transform="translate(-54.135955,3.588572)"
       style="fill:none" />
    <use
       id="use7421"
       xlink:href="#rect7399"
       x="0"
       y="0"
       width="100%"
       height="100%"
       transform="translate(-51.162605,-5.599975)"
       style="fill:none" />
    <use
       id="use7423"
       xlink:href="#rect7399"
       x="0"
       y="0"
       width="100%"
       height="100%"
       transform="translate(-38.184245,15.464439)"
       style="fill:none" />
    <use
       id="use7425"
       xlink:href="#rect7399"
       x="0"
       y="0"
       width="100%"
       height="100%"
       transform="translate(-41.462305,-4.80211)"
       style="fill:none" />
    <use
       id="use7427"
       xlink:href="#rect7399"
       x="0"
       y="0"
       width="100%"
       height="100%"
       transform="translate(-31.747005,6.776734)"
       style="fill:none" />
    <use
       id="use7429"
       xlink:href="#rect7399"
       x="0"
       y="0"
       width="100%"
       height="100%"
       transform="translate(-42.472625,29.876541)"
       style="fill:none" />
    <use
       id="use7431"
       xlink:href="#rect7399"
       x="0"
       y="0"
       width="100%"
       height="100%"
       transform="translate(-33.341695,35.951631)"
       style="fill:none" />
    <use
       id="use7433"
       xlink:href="#rect7399"
       x="0"
       y="0"
       width="100%"
       height="100%"
       transform="translate(-29.680205,33.435791)"
       style="fill:none" />
    <use
       id="use7435"
       xlink:href="#rect7399"
       x="0"
       y="0"
       width="100%"
       height="100%"
       transform="translate(-42.859145,29.776061)"
       style="fill:none" />
    <use
       id="use7437"
       xlink:href="#rect7399"
       x="0"
       y="0"
       width="100%"
       height="100%"
       transform="translate(-36.922325,13.964222)"
       style="fill:none" />
    <use
       id="use7439"
       xlink:href="#rect7399"
       x="0"
       y="0"
       width="100%"
       height="100%"
       transform="translate(-19.258565,20.748564)"
       style="fill:none" />
    <use
       id="use7441"
       xlink:href="#rect7399"
       x="0"
       y="0"
       width="100%"
       height="100%"
       transform="translate(-33.878785,39.229451)"
       style="fill:none" />
    <use
       id="use7443"
       xlink:href="#rect7399"
       x="0"
       y="0"
       width="100%"
       height="100%"
       transform="translate(-20.184675,26.8071)"
       style="fill:none" />
    <use
       id="use7445"
       xlink:href="#rect7399"
       x="0"
       y="0"
       width="100%"
       height="100%"
       transform="translate(-30.213505,33.567851)"
       style="fill:none" />
    <use
       id="use7453"
       xlink:href="#rect7399"
       x="0"
       y="0"
       width="100%"
       height="100%"
       transform="translate(-9.9424647,45.836771)"
       style="fill:none" />
    <use
       id="use7455"
       xlink:href="#rect7399"
       x="0"
       y="0"
       width="100%"
       height="100%"
       transform="translate(-52.156335,2.153616)"
       style="fill:none" />
    <use
       id="use7457"
       xlink:href="#rect7399"
       x="0"
       y="0"
       width="100%"
       height="100%"
       transform="translate(-42.362505,-13.951365)"
       style="fill:none" />
    <use
       id="use7461"
       xlink:href="#rect7399"
       x="0"
       y="0"
       width="100%"
       height="100%"
       transform="translate(-40.503395,1.20398)"
       style="fill:none" />
    <use
       id="use7463"
       xlink:href="#rect7399"
       x="0"
       y="0"
       width="100%"
       height="100%"
       transform="translate(-49.622675,21.380574)"
       style="fill:none" />
    <use
       id="use7465"
       xlink:href="#rect7399"
       x="0"
       y="0"
       width="100%"
       height="100%"
       transform="translate(-55.504415,12.386639)"
       style="fill:none" />
    <use
       id="use7467"
       xlink:href="#rect7399"
       x="0"
       y="0"
       width="100%"
       height="100%"
       transform="translate(-41.882285,19.429308)"
       style="fill:none" />
    <use
       id="use7469"
       xlink:href="#rect7399"
       x="0"
       y="0"
       width="100%"
       height="100%"
       transform="translate(-44.658345,17.312932)"
       style="fill:none" />
    <use
       id="use7471"
       xlink:href="#rect7399"
       x="0"
       y="0"
       width="100%"
       height="100%"
       transform="translate(-9.8073347,25.456727)"
       style="fill:none" />
    <use
       id="use7473"
       xlink:href="#rect7399"
       x="0"
       y="0"
       width="100%"
       height="100%"
       transform="translate(-8.8389847,42.471551)"
       style="fill:none" />
    <use
       id="use7475"
       xlink:href="#rect7399"
       x="0"
       y="0"
       width="100%"
       height="100%"
       transform="translate(-18.673595,36.661981)"
       style="fill:none" />
    <use
       id="use7477"
       xlink:href="#rect7399"
       x="0"
       y="0"
       width="100%"
       height="100%"
       transform="translate(-22.852955,21.200697)"
       style="fill:none" />
    <use
       id="use7479"
       xlink:href="#rect7399"
       x="0"
       y="0"
       width="100%"
       height="100%"
       transform="translate(-4.4871247,25.488413)"
       style="fill:none" />
    <use
       id="use7481"
       xlink:href="#rect7399"
       x="0"
       y="0"
       width="100%"
       height="100%"
       transform="translate(-0.48684471,35.724121)"
       style="fill:none" />
    <use
       id="use7483"
       xlink:href="#rect7399"
       x="0"
       y="0"
       width="100%"
       height="100%"
       transform="translate(-14.662945,38.380131)"
       style="fill:none" />
    <use
       id="use7485"
       xlink:href="#rect7399"
       x="0"
       y="0"
       width="100%"
       height="100%"
       transform="translate(10.708485,24.739946)"
       style="fill:none" />
    <use
       id="use7487"
       xlink:href="#rect7399"
       x="0"
       y="0"
       width="100%"
       height="100%"
       transform="translate(7.7633848,9.565456)"
       style="fill:none" />
    <use
       id="use7489"
       xlink:href="#rect7399"
       x="0"
       y="0"
       width="100%"
       height="100%"
       transform="translate(-5.4262747,12.870136)"
       style="fill:none" />
    <use
       id="use7491"
       xlink:href="#rect7399"
       x="0"
       y="0"
       width="100%"
       height="100%"
       transform="translate(13.755165,19.16958)"
       style="fill:none" />
    <use
       id="use7493"
       xlink:href="#rect7399"
       x="0"
       y="0"
       width="100%"
       height="100%"
       transform="translate(4.3801748,1.550098)"
       style="fill:none" />
    <use
       id="use7495"
       xlink:href="#rect7399"
       x="0"
       y="0"
       width="100%"
       height="100%"
       transform="translate(4.8284848,5.230749)"
       style="fill:none" />
    <use
       id="use7497"
       xlink:href="#rect7399"
       x="0"
       y="0"
       width="100%"
       height="100%"
       transform="translate(14.095535,16.552799)"
       style="fill:none" />
    <use
       id="use7499"
       xlink:href="#rect7399"
       x="0"
       y="0"
       width="100%"
       height="100%"
       transform="translate(6.6933448,19.226916)"
       style="fill:none" />
    <use
       id="use7501"
       xlink:href="#rect7399"
       x="0"
       y="0"
       width="100%"
       height="100%"
       transform="translate(10.325045,8.786615)"
       style="fill:none" />
    <use
       id="use7503"
       xlink:href="#rect7399"
       x="0"
       y="0"
       width="100%"
       height="100%"
       transform="translate(15.828575,9.265178)"
       style="fill:none" />
    <use
       id="use7505"
       xlink:href="#rect7399"
       x="0"
       y="0"
       width="100%"
       height="100%"
       transform="translate(30.742705,22.209682)"
       style="fill:none" />
    <use
       id="use7507"
       xlink:href="#rect7399"
       x="0"
       y="0"
       width="100%"
       height="100%"
       transform="translate(33.261305,16.487253)"
       style="fill:none" />
    <use
       id="use7509"
       xlink:href="#rect7399"
       x="0"
       y="0"
       width="100%"
       height="100%"
       transform="translate(41.962125,1.591197)"
       style="fill:none" />
    <use
       id="use7511"
       xlink:href="#rect7399"
       x="0"
       y="0"
       width="100%"
       height="100%"
       transform="translate(50.711295,4.361569)"
       style="fill:none" />
    <use
       id="use7513"
       xlink:href="#rect7399"
       x="0"
       y="0"
       width="100%"
       height="100%"
       transform="translate(45.384915,1.694884)"
       style="fill:none" />
    <use
       id="use7515"
       xlink:href="#rect7399"
       x="0"
       y="0"
       width="100%"
       height="100%"
       transform="translate(53.947695,-6.269993)"
       style="fill:none" />
    <use
       id="use7517"
       xlink:href="#rect7399"
       x="0"
       y="0"
       width="100%"
       height="100%"
       transform="translate(45.703245,-3.845395)"
       style="fill:none" />
    <use
       id="use7519"
       xlink:href="#rect7399"
       x="0"
       y="0"
       width="100%"
       height="100%"
       transform="translate(6.2240648,2.145252)"
       style="fill:none" />
    <use
       id="use7521"
       xlink:href="#rect7399"
       x="0"
       y="0"
       width="100%"
       height="100%"
       transform="translate(6.1727348,24.517045)"
       style="fill:none" />
    <use
       id="use7523"
       xlink:href="#rect7399"
       x="0"
       y="0"
       width="100%"
       height="100%"
       transform="translate(16.748005,3.841972)"
       style="fill:none" />
    <use
       id="use7525"
       xlink:href="#rect7399"
       x="0"
       y="0"
       width="100%"
       height="100%"
       transform="translate(5.9895648,7.36523)"
       style="fill:none" />
    <use
       id="use7527"
       xlink:href="#rect7399"
       x="0"
       y="0"
       width="100%"
       height="100%"
       transform="translate(34.143405,4.059559)"
       style="fill:none" />
    <use
       id="use7731"
       xlink:href="#rect7399"
       x="0"
       y="0"
       width="100%"
       height="100%"
       transform="translate(95.201805,-83.369337)"
       style="fill:none" />
    <use
       id="use7733"
       xlink:href="#rect7399"
       x="0"
       y="0"
       width="100%"
       height="100%"
       transform="translate(96.397765,-90.413447)"
       style="fill:none" />
    <use
       id="use7753"
       xlink:href="#rect7399"
       x="0"
       y="0"
       width="100%"
       height="100%"
       transform="translate(93.410365,-78.370617)"
       style="fill:none" />
    <use
       id="use7755"
       xlink:href="#rect7399"
       x="0"
       y="0"
       width="100%"
       height="100%"
       transform="translate(86.156995,-64.347157)"
       style="fill:none" />
    <use
       id="use7757"
       xlink:href="#rect7399"
       x="0"
       y="0"
       width="100%"
       height="100%"
       transform="translate(95.860245,-50.058757)"
       style="fill:none" />
    <use
       id="use7759"
       xlink:href="#rect7399"
       x="0"
       y="0"
       width="100%"
       height="100%"
       transform="translate(74.103025,2.005967)"
       style="fill:none" />
    <use
       id="use7761"
       xlink:href="#rect7399"
       x="0"
       y="0"
       width="100%"
       height="100%"
       transform="translate(98.329115,-29.160536)"
       style="fill:none" />
    <use
       id="use7763"
       xlink:href="#rect7399"
       x="0"
       y="0"
       width="100%"
       height="100%"
       transform="translate(90.352695,-36.787047)"
       style="fill:none" />
    <use
       id="use7775"
       xlink:href="#rect7399"
       x="0"
       y="0"
       width="100%"
       height="100%"
       transform="translate(81.584105,-17.397773)"
       style="fill:none" />
    <use
       id="use7777"
       xlink:href="#rect7399"
       x="0"
       y="0"
       width="100%"
       height="100%"
       transform="translate(82.219885,-33.626436)"
       style="fill:none" />
    <use
       id="use7779"
       xlink:href="#rect7399"
       x="0"
       y="0"
       width="100%"
       height="100%"
       transform="translate(63.587355,24.796526)"
       style="fill:none" />
    <use
       id="use7781"
       xlink:href="#rect7399"
       x="0"
       y="0"
       width="100%"
       height="100%"
       transform="translate(79.931005,-14.155367)"
       style="fill:none" />
    <use
       id="use7783"
       xlink:href="#rect7399"
       x="0"
       y="0"
       width="100%"
       height="100%"
       transform="matrix(1.0010688,0,0,0.94299839,52.027291,-47.262636)"
       style="fill:none" />
    <use
       id="use7785"
       xlink:href="#rect7399"
       x="0"
       y="0"
       width="100%"
       height="100%"
       transform="translate(55.485295,-29.840651)"
       style="fill:none" />
    <use
       id="use7787"
       xlink:href="#rect7399"
       x="0"
       y="0"
       width="100%"
       height="100%"
       transform="translate(64.064255,-25.806028)"
       style="fill:none" />
    <use
       id="use7789"
       xlink:href="#rect7399"
       x="0"
       y="0"
       width="100%"
       height="100%"
       transform="matrix(1.0010688,0,0,0.94299839,44.661076,-35.474468)"
       style="fill:none" />
    <use
       id="use7791"
       xlink:href="#rect7399"
       x="0"
       y="0"
       width="100%"
       height="100%"
       transform="translate(65.805155,-41.200977)"
       style="fill:none" />
    <use
       id="use7793"
       xlink:href="#rect7399"
       x="0"
       y="0"
       width="100%"
       height="100%"
       transform="translate(65.001775,-32.487844)"
       style="fill:none" />
    <use
       id="use7795"
       xlink:href="#rect7399"
       x="0"
       y="0"
       width="100%"
       height="100%"
       transform="translate(44.941765,7.497514)"
       style="fill:none" />
    <use
       id="use7797"
       xlink:href="#rect7399"
       x="0"
       y="0"
       width="100%"
       height="100%"
       transform="translate(53.723505,18.806628)"
       style="fill:none" />
    <use
       id="use7799"
       xlink:href="#rect7399"
       x="0"
       y="0"
       width="100%"
       height="100%"
       transform="translate(54.117885,1.980501)"
       style="fill:none" />
    <path
       style="fill:none;fill-opacity:1;fill-rule:evenodd;stroke:#000000;stroke-width:4.97205114;stroke-linecap:butt;stroke-linejoin:miter;stroke-miterlimit:4;stroke-dasharray:none;stroke-opacity:1"
       d="m 193.16803,104.05726 c 64.75627,19.98917 84.51365,48.45916 81.71191,76.38805 -3.39058,33.79822 -27.93104,69.58223 -80.58547,106.0822"
       id="path7892"
       inkscape:connector-curvature="0"
       sodipodi:nodetypes="csc" />
    <path
       style="display:inline;fill:none;fill-rule:evenodd;stroke:#000000;stroke-width:1.48047972px;stroke-linecap:butt;stroke-linejoin:miter;stroke-opacity:1"
       d="m 202.48673,285.38881 0,0"
       id="path7873-6"
       inkscape:connector-curvature="0"
       sodipodi:nodetypes="cc" />
    <path
       style="fill:none;fill-rule:evenodd;stroke:#000000;stroke-width:1.00428116px;stroke-linecap:butt;stroke-linejoin:miter;stroke-opacity:1"
       d="M 32.968265,249.11942 Z"
       id="path7969"
       inkscape:connector-curvature="0" />
    <path
       style="display:inline;fill:none;fill-opacity:1;fill-rule:evenodd;stroke:#000000;stroke-width:4.97205114;stroke-linecap:butt;stroke-linejoin:miter;stroke-miterlimit:4;stroke-dasharray:none;stroke-opacity:1"
       d="m 142.14466,103.75232 c -64.75627,19.98917 -83.354705,48.00096 -80.552965,75.92986 3.39058,33.79822 29.897814,71.20222 82.552245,107.7022"
       id="path7892-8"
       inkscape:connector-curvature="0"
       sodipodi:nodetypes="csc" />
    <rect
       style="fill:none;fill-rule:evenodd;stroke:#000000;stroke-width:4.97205114;stroke-linecap:butt;stroke-linejoin:miter;stroke-miterlimit:4;stroke-dasharray:none;stroke-opacity:1"
       id="rect8009"
       width="164.79198"
       height="33.398922"
       x="86.399712"
       y="286.95587"
       ry="2.4066501" />
    <path
       style="fill:none;fill-rule:evenodd;stroke:#000000;stroke-width:2.89850664;stroke-linecap:butt;stroke-linejoin:miter;stroke-miterlimit:4;stroke-dasharray:none;stroke-opacity:1"
       d="m 119.65831,111.70924 c 92.53726,0 92.53726,0 92.53726,0"
       id="path8013"
       inkscape:connector-curvature="0" />
    <path
       style="fill:none;fill-rule:evenodd;stroke:#000000;stroke-width:2.89850664;stroke-linecap:butt;stroke-linejoin:miter;stroke-miterlimit:4;stroke-dasharray:none;stroke-opacity:1"
       d="m 104.86839,118.73648 125.1267,0"
       id="path8015"
       inkscape:connector-curvature="0"
       sodipodi:nodetypes="cc" />
    <path
       style="fill:none;fill-rule:evenodd;stroke:#000000;stroke-width:2.89850664;stroke-linecap:butt;stroke-linejoin:miter;stroke-miterlimit:4;stroke-dasharray:none;stroke-opacity:1"
       d="m 138.36264,105.59857 55.3605,-0.13834 1.73696,0.44387"
       id="path8017"
       inkscape:connector-curvature="0"
       sodipodi:nodetypes="ccc" />
    <path
       style="fill:none;fill-rule:evenodd;stroke:#000000;stroke-width:2.98323083;stroke-linecap:butt;stroke-linejoin:miter;stroke-miterlimit:4;stroke-dasharray:none;stroke-opacity:1"
       d="m 90.579699,239.40122 c 156.456041,0 156.456041,0 156.456041,0 l 0,0"
       id="path4313"
       inkscape:connector-curvature="0" />
    <path
       style="fill:none;fill-rule:evenodd;stroke:#000000;stroke-width:2.98323083;stroke-linecap:butt;stroke-linejoin:miter;stroke-miterlimit:4;stroke-dasharray:none;stroke-opacity:1"
       d="m 98.460449,248.56536 c 141.158121,0 141.389901,0 141.389901,0"
       id="path4315"
       inkscape:connector-curvature="0" />
    <path
       style="fill:none;fill-rule:evenodd;stroke:#000000;stroke-width:4.8308444;stroke-linecap:butt;stroke-linejoin:miter;stroke-miterlimit:4;stroke-dasharray:none;stroke-opacity:1"
       d="m 193.40054,104.97311 0,0 -16.72484,-71.911675 c 0,0 2.09276,-1.527663 8.46456,-14.222701 0,0 -0.78017,-0.916599 -18.40906,-13.5326827 l 0,0 0,0 0,0 -18.40904,13.2074107 7.56049,15.230763 -13.56068,71.280865"
       id="path4412"
       inkscape:connector-curvature="0"
       sodipodi:nodetypes="ccccccccccc" />
    <path
       style="fill:none;fill-rule:evenodd;stroke:#000000;stroke-width:2.89850664;stroke-linecap:butt;stroke-linejoin:miter;stroke-miterlimit:4;stroke-dasharray:none;stroke-opacity:1"
       d="m 143.37948,95.550071 c 48.49522,0 48.49522,0 48.49522,0"
       id="path7123"
       inkscape:connector-curvature="0" />
    <path
       style="fill:none;fill-rule:evenodd;stroke:#000000;stroke-width:2.89850664;stroke-linecap:butt;stroke-linejoin:miter;stroke-miterlimit:4;stroke-dasharray:none;stroke-opacity:1"
       d="m 148.25221,74.917842 c 38.51772,0 38.51772,0 38.51772,0"
       id="path7125"
       inkscape:connector-curvature="0" />
    <path
       style="fill:none;fill-rule:evenodd;stroke:#000000;stroke-width:2.89850664;stroke-linecap:butt;stroke-linejoin:miter;stroke-miterlimit:4;stroke-dasharray:none;stroke-opacity:1"
       d="m 149.18035,69.084648 c 35.96534,0 35.96534,0 35.96534,0"
       id="path7127"
       inkscape:connector-curvature="0" />
    <path
       style="fill:none;fill-rule:evenodd;stroke:#000000;stroke-width:2.98323083;stroke-linecap:butt;stroke-linejoin:miter;stroke-miterlimit:4;stroke-dasharray:none;stroke-opacity:1"
       d="m 61.182545,173.26217 c 212.780215,0.45821 212.780215,0.45821 212.780215,0.45821"
       id="path7951"
       inkscape:connector-curvature="0" />
    <path
       style="display:inline;fill:none;fill-rule:evenodd;stroke:#000000;stroke-width:2.98323083;stroke-linecap:butt;stroke-linejoin:miter;stroke-miterlimit:4;stroke-dasharray:none;stroke-opacity:1"
       d="M 87.143105,299.91057 C 251.04344,299.26358 251.04344,299.26358 251.04344,299.26358"
       id="path7965"
       inkscape:connector-curvature="0" />
    <path
       style="display:inline;fill:none;fill-rule:evenodd;stroke:#000000;stroke-width:2.98323083;stroke-linecap:butt;stroke-linejoin:miter;stroke-miterlimit:4;stroke-dasharray:none;stroke-opacity:1"
       d="m 251.63332,308.75122 c -33.61874,-0.64519 -90.37045,-0.57586 -163.520971,0 -1.421874,0.0112 0,0 0,0"
       id="path7967"
       inkscape:connector-curvature="0"
       sodipodi:nodetypes="csc" />
  </g>
</svg>
