<?xml version="1.0" encoding="UTF-8" standalone="no"?>
<!-- Creator: CorelDRAW -->

<svg
   xmlns:dc="http://purl.org/dc/elements/1.1/"
   xmlns:cc="http://creativecommons.org/ns#"
   xmlns:rdf="http://www.w3.org/1999/02/22-rdf-syntax-ns#"
   xmlns:svg="http://www.w3.org/2000/svg"
   xmlns="http://www.w3.org/2000/svg"
   xmlns:xlink="http://www.w3.org/1999/xlink"
   xmlns:sodipodi="http://sodipodi.sourceforge.net/DTD/sodipodi-0.dtd"
   xmlns:inkscape="http://www.inkscape.org/namespaces/inkscape"
   xml:space="preserve"
   width="50mm"
   height="50mm"
   shape-rendering="geometricPrecision"
   text-rendering="geometricPrecision"
   image-rendering="optimizeQuality"
   fill-rule="evenodd"
   clip-rule="evenodd"
   viewBox="0 0 50 50"
   id="svg2"
   sodipodi:version="0.32"
   inkscape:version="0.92.1 r15371"
   sodipodi:docname="bb.svg"
   inkscape:output_extension="org.inkscape.output.svg.inkscape"
   sodipodi:modified="true"
   version="1.1"><sodipodi:namedview
     inkscape:window-height="1016"
     inkscape:window-width="1920"
     inkscape:pageshadow="2"
     inkscape:pageopacity="0.0"
     guidetolerance="10.0"
     gridtolerance="10.0"
     objecttolerance="10.0"
     borderopacity="1.0"
     bordercolor="#666666"
     pagecolor="#ffffff"
     id="base"
     inkscape:zoom="1.3769567"
     inkscape:cx="144.28063"
     inkscape:cy="200.84468"
     inkscape:window-x="0"
     inkscape:window-y="27"
     inkscape:current-layer="svg2"
     showgrid="true"
     inkscape:window-maximized="1"
     inkscape:snap-bbox="true"
     inkscape:bbox-paths="true" /><metadata
     id="metadata13"><rdf:RDF><cc:Work
         rdf:about=""><dc:format>image/svg+xml</dc:format><dc:type
           rdf:resource="http://purl.org/dc/dcmitype/StillImage" /></cc:Work></rdf:RDF></metadata><defs
     id="defs11"><linearGradient
       id="linearGradient2192"
       inkscape:collect="always"><stop
         id="stop2194"
         offset="0"
         style="stop-color:#ffffff;stop-opacity:1;" /><stop
         id="stop2196"
         offset="1"
         style="stop-color:#b7b7b7;stop-opacity:1" /></linearGradient><linearGradient
       gradientUnits="userSpaceOnUse"
       y2="37.100735"
       x2="45.190559"
       y1="37.100735"
       x1="21.094196"
       id="linearGradient2198"
       xlink:href="#linearGradient2192"
       inkscape:collect="always" /><linearGradient
       gradientUnits="userSpaceOnUse"
       y2="26.384396"
       x2="4.0534844"
       y1="26.384396"
       x1="28.033161"
       id="linearGradient4150"
       xlink:href="#linearGradient2192-275"
       inkscape:collect="always"
       gradientTransform="matrix(0.96992702,0,0,0.9698971,0.75183324,0.79006105)" /><linearGradient
       id="linearGradient2192-275"
       inkscape:collect="always"><stop
         id="stop4171"
         offset="0"
         style="stop-color:#000000;stop-opacity:1;" /><stop
         id="stop4173"
         offset="1"
         style="stop-color:#484848;stop-opacity:1" /></linearGradient><linearGradient
       inkscape:collect="always"
       xlink:href="#linearGradient2192"
       id="linearGradient4534"
       gradientUnits="userSpaceOnUse"
       gradientTransform="translate(-0.44731169)"
       x1="21.13022"
       y1="37.592136"
       x2="44.821396"
       y2="37.592136" /><linearGradient
       gradientUnits="userSpaceOnUse"
       y2="26.384396"
       x2="4.0534844"
       y1="26.384396"
       x1="28.033161"
       id="linearGradient4150-3"
       xlink:href="#linearGradient2192-275"
       inkscape:collect="always"
       gradientTransform="matrix(3.6658659,0,0,3.6657529,-50.112407,-19.370412)" /><linearGradient
       gradientUnits="userSpaceOnUse"
       y2="26.384396"
       x2="4.0534844"
       y1="26.384396"
       x1="28.033161"
       id="linearGradient4150-6"
       xlink:href="#linearGradient2192-275"
       inkscape:collect="always"
       gradientTransform="matrix(3.6658659,0,0,3.6657529,-18.348895,-143.40882)" /><linearGradient
       gradientUnits="userSpaceOnUse"
       y2="26.384396"
       x2="4.0534844"
       y1="26.384396"
       x1="28.033161"
       id="linearGradient4150-8"
       xlink:href="#linearGradient2192-275"
       inkscape:collect="always"
       gradientTransform="matrix(3.6658659,0,0,3.6657529,-21.175165,-145.29882)" /></defs><path
     style="opacity:1;vector-effect:none;fill:url(#linearGradient4150);fill-opacity:1;stroke-width:3.06916664;stroke-linecap:butt;stroke-linejoin:miter;stroke-miterlimit:4;stroke-dasharray:none;stroke-dashoffset:0;stroke-opacity:1;font-variant-east_asian:normal;stroke:#000000"
     d="m 24.127788,39.233707 c 0,1.0922 -0.113149,2.023745 -0.621149,2.794145 -1.137851,2.394439 -3.882583,2.82664 -5.745386,2.642583 C 14.560422,44.561107 10.66497,42.871862 7.9455438,44.467373 L 6.3544289,42.423714 c 4.4137771,-2.541403 9.4975061,-0.0337 13.7278541,-0.749098 1.357012,-0.261361 2.493396,-1.25251 3.233153,-2.440909 z"
     id="path8488"
     inkscape:connector-curvature="0"
     sodipodi:nodetypes="cccccccc" /><path
     sodipodi:nodetypes="cccccccc"
     inkscape:connector-curvature="0"
     id="path8605"
     d="m 25.872413,39.233712 c 0,1.0922 0.113149,2.023745 0.621149,2.794145 1.137851,2.394439 3.882584,2.826617 5.745386,2.64256 3.200832,-0.109328 7.096284,-1.798573 9.815709,-0.203062 l 1.591117,-2.043636 c -4.41378,-2.541403 -9.497508,-0.0337 -13.727856,-0.749098 -1.357011,-0.261361 -2.493396,-1.25251 -3.233153,-2.440909 z"
     style="opacity:1;vector-effect:none;fill:url(#linearGradient4150);fill-opacity:1;stroke-width:3.06916664;stroke-linecap:butt;stroke-linejoin:miter;stroke-miterlimit:4;stroke-dasharray:none;stroke-dashoffset:0;stroke-opacity:1;font-variant-east_asian:normal;stroke:#000000" /><path
     style="color:#000000;font-style:normal;font-variant:normal;font-weight:normal;font-stretch:normal;font-size:medium;line-height:normal;font-family:sans-serif;font-variant-ligatures:normal;font-variant-position:normal;font-variant-caps:normal;font-variant-numeric:normal;font-variant-alternates:normal;font-feature-settings:normal;text-indent:0;text-align:start;text-decoration:none;text-decoration-line:none;text-decoration-style:solid;text-decoration-color:#000000;letter-spacing:normal;word-spacing:normal;text-transform:none;writing-mode:lr-tb;direction:ltr;text-orientation:mixed;dominant-baseline:auto;baseline-shift:baseline;text-anchor:start;white-space:normal;shape-padding:0;clip-rule:nonzero;display:inline;overflow:visible;visibility:visible;opacity:1;isolation:auto;mix-blend-mode:normal;color-interpolation:sRGB;color-interpolation-filters:linearRGB;solid-color:#000000;solid-opacity:1;vector-effect:none;fill:url(#linearGradient4150);fill-opacity:1;fill-rule:nonzero;stroke:none;stroke-width:1;stroke-linecap:butt;stroke-linejoin:miter;stroke-miterlimit:4;stroke-dasharray:none;stroke-dashoffset:0;stroke-opacity:1;color-rendering:auto;image-rendering:auto;shape-rendering:auto;text-rendering:auto;enable-background:accumulate;font-variant-east_asian:normal"
     d="m 23.019531,38.699219 -0.158203,0.251953 c -0.679617,1.091785 -1.713665,1.971563 -2.876953,2.197266 -1.977149,0.331859 -4.266199,-0.0937 -6.648437,-0.316407 C 10.950032,40.608984 8.437551,40.60803 6.0878906,41.960938 L 5.5546875,42.267578 7.8125,45.166016 8.2167969,44.927734 c 1.1926367,-0.69973 2.7103051,-0.699576 4.3828121,-0.46875 1.665484,0.229857 3.440492,0.681482 5.121094,0.742188 0.995768,0.09712 2.210865,0.03596 3.367188,-0.382813 1.149322,-0.416238 2.241027,-1.215609 2.878906,-2.529297 0.579204,-0.898257 0.695312,-1.938476 0.695312,-3.054687 v -0.535156 h -0.535156 z"
     id="path8456"
     inkscape:connector-curvature="0"
     sodipodi:nodetypes="ccccccccscscsccc" /><path
     style="color:#000000;font-style:normal;font-variant:normal;font-weight:normal;font-stretch:normal;font-size:medium;line-height:normal;font-family:sans-serif;font-variant-ligatures:normal;font-variant-position:normal;font-variant-caps:normal;font-variant-numeric:normal;font-variant-alternates:normal;font-feature-settings:normal;text-indent:0;text-align:start;text-decoration:none;text-decoration-line:none;text-decoration-style:solid;text-decoration-color:#000000;letter-spacing:normal;word-spacing:normal;text-transform:none;writing-mode:lr-tb;direction:ltr;text-orientation:mixed;dominant-baseline:auto;baseline-shift:baseline;text-anchor:start;white-space:normal;shape-padding:0;clip-rule:nonzero;display:inline;overflow:visible;visibility:visible;opacity:1;isolation:auto;mix-blend-mode:normal;color-interpolation:sRGB;color-interpolation-filters:linearRGB;solid-color:#000000;solid-opacity:1;vector-effect:none;fill:url(#linearGradient4150);fill-opacity:1;fill-rule:nonzero;stroke:none;stroke-width:1;stroke-linecap:butt;stroke-linejoin:miter;stroke-miterlimit:4;stroke-dasharray:none;stroke-dashoffset:0;stroke-opacity:1;color-rendering:auto;image-rendering:auto;shape-rendering:auto;text-rendering:auto;enable-background:accumulate;font-variant-east_asian:normal"
     d="m 25.337891,38.699219 v 0.535156 c 0,1.113995 0.117163,2.151782 0.693359,3.048828 0.637395,1.317751 1.729555,2.1182 2.880859,2.535156 1.156323,0.418775 2.371421,0.479929 3.367188,0.382813 1.680602,-0.06071 3.45561,-0.512331 5.121094,-0.742188 1.672507,-0.230826 3.192129,-0.23098 4.384765,0.46875 l 0.402344,0.238282 2.257812,-2.898438 -0.533203,-0.30664 c -2.349661,-1.352908 -4.86214,-1.351954 -7.248047,-1.128907 -2.382972,0.222773 -4.67087,0.648835 -6.648437,0.316407 -1.163287,-0.225703 -2.197336,-1.105481 -2.876953,-2.197266 l -0.15625,-0.251953 z"
     id="path8458"
     inkscape:connector-curvature="0"
     sodipodi:nodetypes="cscccsccccscccc" /><path
     sodipodi:nodetypes="cccccccscccccccccc"
     inkscape:connector-curvature="0"
     id="path4144"
     d="m 22.675834,7.3455947 c -1.500168,1.6988126 -1.083465,4.2002403 0.829527,5.2225903 -1.614314,1.857062 -3.673257,3.62816 -5.822215,5.247149 -1.830509,1.39726 -3.071439,3.735167 -3.16974,6.298683 -0.08342,3.300944 1.741124,5.735434 4.762629,7.267519 l -2.504615,6.207966 c 1.745293,0.595241 3.268678,1.031673 4.935548,1.223449 0,0 2.191818,0.264582 3.293033,0.264581 1.101215,-10e-7 3.293033,-0.264586 3.293033,-0.264586 0.429429,-0.04864 0.857307,-0.117359 1.285136,-0.201486 1.29393,-0.279415 2.593619,-0.629106 3.650405,-1.021976 l -2.504616,-6.207966 c 3.021506,-1.532085 4.846048,-3.966574 4.76263,-7.267518 -0.0983,-2.563517 -1.339232,-4.901425 -3.169741,-6.298685 -2.148957,-1.618989 -4.2079,-3.390086 -5.822214,-5.247148 1.930557,-1.218275 2.391925,-3.5824362 0.829527,-5.2225899 -1.354426,-1.2577759 -3.39775,-1.2315501 -4.648351,0 z"
     style="fill:url(#linearGradient4150);fill-opacity:1;stroke:#000000;stroke-width:1;stroke-opacity:1" /><path
     d="m 24.0856,23.561185 0,2.1082 c 0,0.6096 0.3048,0.9144 0.9144,0.9144 l 0,0 c 0.6096,0 0.9144,-0.3048 0.9144,-0.9144 l 0,-2.1336 2.2352,0 c 0.5757,0 0.8721,-0.2963 0.8721,-0.8974 l 0,0 c 0,-0.5927 -0.2964,-0.889 -0.8721,-0.889 l -2.2352,0 0,-2.2352 c 0,-0.6096 -0.3048,-0.9144 -0.9144,-0.9144 l 0,0 c -0.6096,0 -0.9144,0.3048 -0.9144,0.9144 l 0,2.2352 -2.1844,0 c -0.5842,0 -0.8721,0.2963 -0.8721,0.889 l 0,0 c 0,0.6011 0.2879,0.8974 0.8721,0.8974 z m 7.5099,13.7414 -1.0414,-2.5315 c -1.6848,-0.3641 -3.539,-0.5419 -5.5541,-0.5419 -1.9981,0 -3.8354,0.1778 -5.5033,0.5419 l -1.0414,2.5061 c 2.0489,-0.5164 4.2333,-0.7704 6.5447,-0.7704 2.286,0 4.4789,0.2624 6.5955,0.7958 z m -2.0828,-5.1138 c -0.382456,-0.803922 -0.7196,-1.525276 -0.7196,-2.4046 -1.2531,-0.1778 -2.5231,-0.2709 -3.7931,-0.2709 -1.2361,0 -2.4977,0.0931 -3.7677,0.2709 0.04451,0.859409 -0.391872,1.619985 -0.6942,2.4046 1.4054,-0.2456 2.8871,-0.3726 4.4619,-0.3726 1.5917,0 3.0903,0.127 4.5127,0.3726 z"
     id="path8"
     style="fill:url(#linearGradient2198);fill-opacity:1"
     inkscape:connector-curvature="0"
     sodipodi:nodetypes="csccscsccscsccscsccccccsccscccsccsc" /></svg>