<?xml version="1.0" encoding="UTF-8" standalone="no"?>
<!-- Creator: CorelDRAW -->

<svg
   xmlns:dc="http://purl.org/dc/elements/1.1/"
   xmlns:cc="http://creativecommons.org/ns#"
   xmlns:rdf="http://www.w3.org/1999/02/22-rdf-syntax-ns#"
   xmlns:svg="http://www.w3.org/2000/svg"
   xmlns="http://www.w3.org/2000/svg"
   xmlns:xlink="http://www.w3.org/1999/xlink"
   xmlns:sodipodi="http://sodipodi.sourceforge.net/DTD/sodipodi-0.dtd"
   xmlns:inkscape="http://www.inkscape.org/namespaces/inkscape"
   xml:space="preserve"
   width="50mm"
   height="50mm"
   shape-rendering="geometricPrecision"
   text-rendering="geometricPrecision"
   image-rendering="optimizeQuality"
   fill-rule="evenodd"
   clip-rule="evenodd"
   viewBox="0 0 50 50"
   id="svg2"
   sodipodi:version="0.32"
   inkscape:version="0.92.1 r15371"
   sodipodi:docname="wb.svg"
   inkscape:output_extension="org.inkscape.output.svg.inkscape"
   sodipodi:modified="true"
   version="1.1"
   inkscape:export-filename="wb.png"
   inkscape:export-xdpi="90"
   inkscape:export-ydpi="90"><metadata
     id="metadata13"><rdf:RDF><cc:Work
         rdf:about=""><dc:format>image/svg+xml</dc:format><dc:type
           rdf:resource="http://purl.org/dc/dcmitype/StillImage" /></cc:Work></rdf:RDF></metadata><defs
     id="defs11"><linearGradient
       inkscape:collect="always"
       id="linearGradient2165"><stop
         style="stop-color:#ffffff;stop-opacity:1;"
         offset="0"
         id="stop2167" /><stop
         style="stop-color:#b7b7b7;stop-opacity:1"
         offset="1"
         id="stop2169" /></linearGradient><linearGradient
       inkscape:collect="always"
       xlink:href="#linearGradient2165"
       id="linearGradient8465"
       gradientUnits="userSpaceOnUse"
       gradientTransform="translate(-0.44731169)"
       x1="21.13022"
       y1="37.592136"
       x2="44.821396"
       y2="37.592136" /><linearGradient
       inkscape:collect="always"
       xlink:href="#linearGradient2165"
       id="linearGradient8469"
       gradientUnits="userSpaceOnUse"
       gradientTransform="translate(-0.44731169)"
       x1="21.13022"
       y1="37.592136"
       x2="44.821396"
       y2="37.592136" /><linearGradient
       inkscape:collect="always"
       xlink:href="#linearGradient2165"
       id="linearGradient8471"
       gradientUnits="userSpaceOnUse"
       gradientTransform="translate(-0.44731169)"
       x1="21.13022"
       y1="37.592136"
       x2="44.821396"
       y2="37.592136" /><linearGradient
       inkscape:collect="always"
       xlink:href="#linearGradient2165"
       id="linearGradient8475"
       gradientUnits="userSpaceOnUse"
       gradientTransform="translate(-0.44731169)"
       x1="21.13022"
       y1="37.592136"
       x2="44.821396"
       y2="37.592136" /><linearGradient
       inkscape:collect="always"
       xlink:href="#linearGradient2165"
       id="linearGradient8460"
       gradientUnits="userSpaceOnUse"
       gradientTransform="matrix(-1,0,0,1,50.447514,5e-6)"
       x1="21.13022"
       y1="37.592136"
       x2="44.821396"
       y2="37.592136" /></defs><sodipodi:namedview
     inkscape:window-height="1016"
     inkscape:window-width="1920"
     inkscape:pageshadow="2"
     inkscape:pageopacity="0.0"
     guidetolerance="10.0"
     gridtolerance="10.0"
     objecttolerance="10.0"
     borderopacity="1.0"
     bordercolor="#666666"
     pagecolor="#ffffff"
     id="base"
     inkscape:zoom="0.44546399"
     inkscape:cx="-15.681976"
     inkscape:cy="10.357099"
     inkscape:window-x="0"
     inkscape:window-y="27"
     inkscape:current-layer="svg2"
     showgrid="true"
     inkscape:window-maximized="1" /><path
     style="opacity:1;vector-effect:none;fill:url(#linearGradient8460);fill-opacity:1;stroke:#000000;stroke-width:3.06916666;stroke-linecap:butt;stroke-linejoin:miter;stroke-miterlimit:4;stroke-dasharray:none;stroke-dashoffset:0;stroke-opacity:1"
     d="m 25.872413,39.233712 c 0,1.0922 0.11315,2.023745 0.62115,2.794145 1.13785,2.394439 3.882583,2.82664 5.745386,2.642583 3.20083,-0.109328 7.096283,-1.798573 9.815709,-0.203062 l 1.591115,-2.043659 c -4.413777,-2.541403 -9.497507,-0.0337 -13.727855,-0.749098 -1.357011,-0.261361 -2.493396,-1.25251 -3.233152,-2.440909 z"
     id="path8458"
     inkscape:connector-curvature="0"
     sodipodi:nodetypes="cccccccc" /><path
     sodipodi:nodetypes="cccccccc"
     inkscape:connector-curvature="0"
     id="path8456"
     d="m 24.127789,39.233707 c 0,1.0922 -0.11315,2.023745 -0.62115,2.794145 -1.13785,2.394439 -3.882583,2.82664 -5.745386,2.642583 -3.20083,-0.109328 -7.096283,-1.798573 -9.8157092,-0.203062 L 6.3544289,42.423714 c 4.4137771,-2.541403 9.4975071,-0.0337 13.7278551,-0.749098 1.357011,-0.261361 2.493396,-1.25251 3.233152,-2.440909 z"
     style="opacity:1;vector-effect:none;fill:url(#linearGradient8475);fill-opacity:1;stroke:#000000;stroke-width:3.06916664;stroke-linecap:butt;stroke-linejoin:miter;stroke-miterlimit:4;stroke-dasharray:none;stroke-dashoffset:0;stroke-opacity:1" /><path
     sodipodi:nodetypes="cccccccc"
     inkscape:connector-curvature="0"
     id="path8605"
     d="m 25.872413,39.233712 c 0,1.0922 0.11315,2.023745 0.62115,2.794145 1.13785,2.394439 3.882583,2.826617 5.745386,2.64256 3.20083,-0.109328 7.096283,-1.798573 9.815709,-0.203062 l 1.591115,-2.043636 c -4.413777,-2.541403 -9.497507,-0.0337 -13.727855,-0.749098 -1.357011,-0.261361 -2.493396,-1.25251 -3.233152,-2.440909 z"
     style="opacity:1;vector-effect:none;fill:url(#linearGradient8475);fill-opacity:1;stroke-width:1;stroke-linecap:butt;stroke-linejoin:miter;stroke-miterlimit:4;stroke-dasharray:none;stroke-dashoffset:0;stroke-opacity:1" /><path
     style="fill:#000000;fill-opacity:1;stroke-width:1"
     d="m 23.459164,12.174381 c -4.236418,4.466863 -8.130622,6.49322 -9.271269,11.904183 0.05229,2.471797 1.284554,4.921645 3.027206,6.265768 0.564951,0.47852 1.193922,0.896562 1.883606,1.227315 l -2.582273,6.400644 c 1.201724,0.451043 2.419451,0.796716 3.70055,1.040246 0.461917,0.09247 0.924351,0.168659 1.388031,0.221173 0,0 2.262464,0.132292 3.394985,0.132292 1.132521,0 3.394985,-0.132292 3.394985,-0.132292 0.459862,-0.05208 0.918538,-0.127177 1.376659,-0.218591 1.285489,-0.243641 2.506456,-0.59038 3.711919,-1.042828 L 30.90129,31.571647 c 0.689687,-0.330753 1.318655,-0.748795 1.883606,-1.227315 1.953085,-1.669944 3.033606,-3.856373 3.027206,-6.265768 C 34.9363,18.605111 29.57586,15.158651 26.540835,12.174382 l 0.02333,-1.058334 h -1.564168 -1.564167 z"
     id="path4151"
     inkscape:connector-curvature="0"
     sodipodi:nodetypes="cccccccaccccccccccc" /><path
     style="opacity:1;vector-effect:none;fill:url(#linearGradient8475);fill-opacity:1;stroke-width:1;stroke-linecap:butt;stroke-linejoin:miter;stroke-miterlimit:4;stroke-dasharray:none;stroke-dashoffset:0;stroke-opacity:1"
     d="m 24.127789,39.233707 c 0,1.0922 -0.11315,2.023745 -0.62115,2.794145 -1.13785,2.394439 -3.882583,2.82664 -5.745386,2.642583 -3.20083,-0.109328 -7.096283,-1.798573 -9.8157092,-0.203062 L 6.3544289,42.423714 c 4.4137771,-2.541403 9.4975071,-0.0337 13.7278551,-0.749098 1.357011,-0.261361 2.493396,-1.25251 3.233152,-2.440909 z"
     id="path8488"
     inkscape:connector-curvature="0"
     sodipodi:nodetypes="cccccccc" /><path
     inkscape:connector-curvature="0"
     id="path8443"
     d="m 25.000114,12.995522 c -2.05848,2.279945 -5.031463,4.066029 -7.024894,6.517948 -1.1747,1.32094 -2.002788,2.779907 -2.051556,4.548043 0,1.27 0.305076,2.438645 0.914676,3.496944 0.7112,1.2192 1.896586,2.12481 3.547586,2.70061 1.659049,-0.248123 3.092778,-0.371393 4.614188,-0.372586 1.54774,0.0045 3.224423,0.144404 4.614189,0.372586 1.651,-0.5758 2.836387,-1.48141 3.547587,-2.70061 0.6096,-1.058299 0.914673,-2.226944 0.914673,-3.496944 -0.04877,-1.768136 -0.876855,-3.227103 -2.051555,-4.548043 -1.99343,-2.451919 -4.966414,-4.238003 -7.024894,-6.517948 z"
     style="fill:url(#linearGradient8465);fill-opacity:1;stroke-width:1" /><path
     inkscape:connector-curvature="0"
     id="path8439"
     d="m 25.000114,31.571649 c -1.5071,0 -2.9803,0.118149 -4.4111,0.346749 l -1.193726,3.05666 c 0.0091,-0.002 0.01831,-0.0037 0.02739,-0.0057 l -0.0021,0.0057 c 2.01524,-0.374198 3.776768,-0.563739 5.579504,-0.575672 1.884255,0.02405 3.946095,0.233444 5.579504,0.575672 l -0.0021,-0.0057 c 0.0091,0.0019 0.01831,0.0037 0.02739,0.0057 l -1.193725,-3.05666 C 27.98035,31.689798 26.50715,31.571649 25.00005,31.571649 Z"
     style="fill:url(#linearGradient8469);fill-opacity:1;stroke-width:1" /><path
     inkscape:connector-curvature="0"
     id="path8437"
     d="m 25.000114,36.134677 c -2.145552,0.03389 -4.505508,0.281862 -6.375321,0.770492 0.9567,0.262501 1.972576,0.491564 3.047876,0.686263 1.0753,0.186301 2.184445,0.279054 3.327445,0.279054 1.143,0 2.252146,-0.09275 3.327446,-0.279054 1.0753,-0.194699 2.091176,-0.423762 3.047876,-0.686263 -2.322488,-0.515396 -4.29601,-0.76934 -6.375322,-0.770492 z"
     style="fill:url(#linearGradient8471);fill-opacity:1;stroke-width:1" /><path
     inkscape:connector-curvature="0"
     id="path8441"
     d="m 25.000114,18.820489 c 0.5757,0 0.872298,0.296498 0.872299,0.872298 v 2.13372 h 0.01654 2.066023 c 0.5588,0 0.838192,0.279392 0.838192,0.838192 0,0.5672 -0.279392,0.84646 -0.838192,0.84646 h -2.082559 v 2.031917 c 0,0.6012 -0.296599,0.89762 -0.872299,0.89762 -0.5757,0 -0.872298,-0.29642 -0.872298,-0.89762 v -2.031917 h -2.08256 c -0.5588,0 -0.838192,-0.27926 -0.838192,-0.84646 0,-0.5588 0.279392,-0.838192 0.838192,-0.838192 h 2.066024 0.01654 v -2.13372 c 0,-0.5758 0.296598,-0.872298 0.872298,-0.872298 z"
     style="fill:#000000;fill-opacity:1;stroke:none;stroke-width:1" /><circle
     style="color:#000000;display:inline;overflow:visible;visibility:visible;opacity:1;vector-effect:none;fill:url(#linearGradient8475);fill-opacity:1;fill-rule:evenodd;stroke:#000000;stroke-width:1.53458332;stroke-linecap:butt;stroke-linejoin:miter;stroke-miterlimit:4;stroke-dasharray:none;stroke-dashoffset:0;stroke-opacity:1;marker:none;marker-start:none;marker-mid:none;marker-end:none;enable-background:accumulate;font-variant-east_asian:normal"
     id="path25"
     cx="25.000118"
     cy="9.1620989"
     r="2.5890787" /></svg>