<?xml version="1.0" encoding="UTF-8" standalone="no"?>
<svg
   xmlns:dc="http://purl.org/dc/elements/1.1/"
   xmlns:cc="http://creativecommons.org/ns#"
   xmlns:rdf="http://www.w3.org/1999/02/22-rdf-syntax-ns#"
   xmlns:svg="http://www.w3.org/2000/svg"
   xmlns="http://www.w3.org/2000/svg"
   xmlns:sodipodi="http://sodipodi.sourceforge.net/DTD/sodipodi-0.dtd"
   xmlns:inkscape="http://www.inkscape.org/namespaces/inkscape"
   viewBox="0 -410 2048 2048"
   id="svg2"
   version="1.1"
   inkscape:version="0.48.2 r9819"
   width="100%"
   height="100%"
   sodipodi:docname="bk.svg">
  <metadata
     id="metadata12">
    <rdf:RDF>
      <cc:Work
         rdf:about="">
        <dc:format>image/svg+xml</dc:format>
        <dc:type
           rdf:resource="http://purl.org/dc/dcmitype/StillImage" />
      </cc:Work>
    </rdf:RDF>
  </metadata>
  <defs
     id="defs10" />
  <sodipodi:namedview
     pagecolor="#ffffff"
     bordercolor="#666666"
     borderopacity="1"
     objecttolerance="10"
     gridtolerance="10"
     guidetolerance="10"
     inkscape:pageopacity="0"
     inkscape:pageshadow="2"
     inkscape:window-width="640"
     inkscape:window-height="911"
     id="namedview8"
     showgrid="false"
     inkscape:zoom="0.72880595"
     inkscape:cx="1024"
     inkscape:cy="1024"
     inkscape:window-x="0"
     inkscape:window-y="0"
     inkscape:window-maximized="0"
     inkscape:current-layer="svg2" />
  <g
     transform="matrix(1 0 0 -1 0 1638)"
     id="g4">
    <path
       fill="#000000"
       d="M1184 819l-156 79l-160 -79l160 -78zM654 748l141 71l-156 79l-31 -16zM1404 746l43 131l-30 21l-160 -79zM681 679q-34 0 -34 -34v0q0 -34 34 -34h686q34 0 34 34v0q0 34 -34 34h-686zM546 477q-34 0 -34 -36v0q0 -37 34 -37h956q34 0 34 37v0q0 36 -34 36h-956z M887 1432q-34 0 -34 -34v0q0 -34 34 -34h274q33 0 33 34v0q0 34 -33 34h-274zM853 1669v137l119 -17l-16 121h135l-16 -121l119 17v-137l-119 18v-123h-103v123zM494 478q-18 31 -18 65v0q0 55 40 94.5t97 36.5q-55 183 -89 257t-112 158q-64 72 -103 109.5t-39 93.5v1 q0 55 39.5 95t96.5 40h429q-17 20 -17 36v0q0 100 100 100h212q100 0 100 -100v0q0 -17 -18 -36h430q55 0 95 -40t40 -95v-1q0 -56 -41.5 -91.5t-107.5 -107.5q-72 -89 -108 -167t-84 -252q55 3 95 -36.5t40 -94.5v0q0 -34 -15 -65h50q70 0 120.5 -50.5t50.5 -120.5v0 q0 -71 -50.5 -121t-120.5 -50h-1164q-72 0 -122 50t-50 121v0q0 70 50 120.5t122 50.5h52zM581 1021q-33 0 -33 -34v0q0 -34 33 -34h885q34 0 34 34v0q0 34 -34 34h-885z"
       id="path6" />
  </g>
  <path
     style="fill:#ececec;fill-opacity:1;fill-rule:nonzero;stroke-linecap:butt;stroke-linejoin:round"
     d="m 872.85056,672.40268 c -8.59056,-6.28157 -14.16482,-18.9731 -12.38723,-28.20339 3.05606,-15.86884 11.95775,-16.78234 163.53667,-16.78234 151.5789,0 160.4806,0.9135 163.5367,16.78234 6.4005,33.23539 -19.9682,39.62444 -163.5367,39.62444 -98.35718,0 -139.81424,-3.13255 -151.14944,-11.42105 z"
     id="path2989"
     inkscape:connector-curvature="0"
     transform="translate(0,-410)" />
  <path
     style="fill:#ececec;fill-opacity:1;fill-rule:nonzero;stroke-linecap:butt;stroke-linejoin:round"
     d="m 558.75176,1079.2543 c -2.65638,-6.9225 -3.46976,-19.6483 -1.80752,-28.2796 2.87061,-14.9059 26.31278,-15.6933 467.17456,-15.6933 l 464.1524,0 0,26.0339 0,26.0339 -462.3448,2.2456 c -397.37605,1.9301 -463.02354,0.4771 -467.17464,-10.3405 z"
     id="path2991"
     inkscape:connector-curvature="0"
     transform="translate(0,-410)" />
  <path
     style="fill:#ececec;fill-opacity:1;fill-rule:nonzero;stroke-linecap:butt;stroke-linejoin:round"
     d="m 950.4508,1263.7245 -69.21022,-35.3673 73.53716,-36.9738 73.53716,-36.9737 69.4358,34.7327 c 38.1896,19.103 70.8161,35.9846 72.5032,37.5146 3.7724,3.4212 -134.5569,73.4728 -143.8918,72.8685 -3.6856,-0.2385 -37.84568,-16.3491 -75.9113,-35.801 l 0,0 z"
     id="path2993"
     inkscape:connector-curvature="0"
     transform="translate(0,-410)" />
  <path
     style="fill:#ececec;fill-opacity:1;fill-rule:nonzero;stroke-linecap:butt;stroke-linejoin:round"
     d="m 634.3371,1229.4113 c -26.2533,-81.5138 -18.37645,-85.9327 72.31274,-40.5667 38.51547,19.2668 71.40461,36.2785 73.08698,37.8038 2.68855,2.4375 -115.31243,64.633 -122.62563,64.633 -1.56613,0 -11.81447,-27.8416 -22.77409,-61.8701 z"
     id="path2995"
     inkscape:connector-curvature="0"
     transform="translate(0,-410)" />
  <path
     style="fill:#ececec;fill-opacity:1;fill-rule:nonzero;stroke-linecap:butt;stroke-linejoin:round"
     d="m 1332.3114,1259.3911 -60.5021,-31.0366 64.8411,-33.1919 c 65.2657,-33.4091 90.3798,-40.2153 98.7023,-26.7492 5.068,8.2002 -30.406,123.1071 -37.8,122.4411 -2.6065,-0.2347 -31.9651,-14.3932 -65.2413,-31.4634 z"
     id="path2997"
     inkscape:connector-curvature="0"
     transform="translate(0,-410)" />
  <path
     style="fill:#ececec;fill-opacity:1;fill-rule:nonzero;stroke-linecap:butt;stroke-linejoin:round"
     d="m 656.72574,1424.4365 c -11.62035,-11.6204 -5.54948,-37.2628 10.90715,-46.0702 10.75539,-5.7561 139.53561,-8.9832 358.47701,-8.9832 361.2402,0 377.0016,1.6893 369.6996,39.6244 -3.1242,16.2307 -15.2269,16.8567 -368.2179,19.0448 -200.74319,1.2444 -367.6328,-0.3828 -370.86586,-3.6158 z"
     id="path2999"
     inkscape:connector-curvature="0"
     transform="translate(0,-410)" />
  <path
     style="fill:#ececec;fill-opacity:1;fill-rule:nonzero;stroke-linecap:butt;stroke-linejoin:round"
     d="m 524.03798,1625.9611 c -2.65533,-6.9196 -3.46785,-19.6432 -1.8056,-28.2745 2.87373,-14.9221 27.53859,-15.6934 501.88642,-15.6934 l 498.8643,0 0,26.0339 0,26.0339 -497.0586,2.2407 c -427.61059,1.9276 -497.73319,0.4828 -501.88652,-10.3406 z"
     id="path3001"
     inkscape:connector-curvature="0"
     transform="translate(0,-410)" />
</svg>
