<?xml version="1.0" encoding="UTF-8" standalone="no"?>
<svg
   xmlns:dc="http://purl.org/dc/elements/1.1/"
   xmlns:cc="http://creativecommons.org/ns#"
   xmlns:rdf="http://www.w3.org/1999/02/22-rdf-syntax-ns#"
   xmlns:svg="http://www.w3.org/2000/svg"
   xmlns="http://www.w3.org/2000/svg"
   xmlns:sodipodi="http://sodipodi.sourceforge.net/DTD/sodipodi-0.dtd"
   xmlns:inkscape="http://www.inkscape.org/namespaces/inkscape"
   viewBox="0 -410 2048 2048"
   id="svg2"
   version="1.1"
   inkscape:version="0.48.2 r9819"
   width="100%"
   height="100%"
   sodipodi:docname="bn.svg">
  <metadata
     id="metadata12">
    <rdf:RDF>
      <cc:Work
         rdf:about="">
        <dc:format>image/svg+xml</dc:format>
        <dc:type
           rdf:resource="http://purl.org/dc/dcmitype/StillImage" />
      </cc:Work>
    </rdf:RDF>
  </metadata>
  <defs
     id="defs10" />
  <sodipodi:namedview
     pagecolor="#ffffff"
     bordercolor="#666666"
     borderopacity="1"
     objecttolerance="10"
     gridtolerance="10"
     guidetolerance="10"
     inkscape:pageopacity="0"
     inkscape:pageshadow="2"
     inkscape:window-width="640"
     inkscape:window-height="860"
     id="namedview8"
     showgrid="false"
     inkscape:zoom="0.11523438"
     inkscape:cx="1024"
     inkscape:cy="1024"
     inkscape:window-x="0"
     inkscape:window-y="0"
     inkscape:window-maximized="0"
     inkscape:current-layer="svg2" />
  <g
     transform="matrix(1 0 0 -1 0 1638)"
     id="g4">
    <path
       fill="#000000"
       d="M833 816q26 -9 58.5 -13t50.5 23q-24 51 -25 120.5t44 138.5q10 18 30 47.5t31 41.5q0 48 -33 36t-13 2q-46 -39 -90 -108q-60 -92 -76.5 -160.5t23.5 -127.5zM828 1656q-75 -42 -53 -78q20 -36 94 7q73 43 54 79q-22 36 -95 -8zM681 738q-34 0 -34 -37v0q0 -37 34 -37 h686q34 0 34 37v0q0 37 -34 37h-686zM548 494q-36 0 -36 -40v0q0 -39 36 -39h952q36 0 36 39v0q0 40 -36 40h-952zM1443 678q47 -7 87.5 -43.5t40.5 -91.5v0q0 -34 -15 -65h46q71 0 121.5 -50.5t50.5 -120.5v0q0 -71 -50.5 -121t-121.5 -50h-1157q-71 0 -121 50t-50 121v0 q0 70 50 120.5t121 50.5h47q-16 33 -16 65v0q0 55 40.5 96t100.5 47q-5 93 -3 186t31 180q57 121 119 176t143 82q-67 3 -75.5 4t-56.5 28q-48 13 -64 14t-85 -20q-75 -12 -111 -8t-38 72q-30 42 -62.5 90.5t26.5 116.5q159 50 230.5 55t149.5 80q99 21 140 53.5t41 118.5 q54 -11 95 -47.5t41 -95.5q111 -27 148.5 -65.5t92.5 -84.5q69 -91 71.5 -159t-7.5 -137q-31 -67 -63 -124.5t-48 -147.5q0 -87 27 -157t71 -128zM960 1289q12 0 22 -1.5t31 1.5q72 10 119.5 58t33.5 76q-6 37 -51 37q-17 -98 -116 -114q-16 -3 -25 -5t-28 -8 q-45 -30 14 -44z"
       id="path6" />
  </g>
  <path
     style="fill:#ececec;fill-opacity:1;fill-rule:nonzero;stroke-linecap:butt;stroke-linejoin:round"
     d="m 524.08564,1615.6718 c -2.62911,-6.8514 -3.49511,-21.5275 -1.92445,-32.6136 l 2.85576,-20.1565 498.98305,0 498.9831,0 0,30.3729 0,30.3729 -497.0586,2.2406 c -425.34583,1.9174 -497.74832,0.4435 -501.83886,-10.2163 z"
     id="path2989"
     inkscape:connector-curvature="0"
     transform="translate(0,-410)" />
  <path
     style="fill:#ececec;fill-opacity:1;fill-rule:nonzero;stroke-linecap:butt;stroke-linejoin:round"
     d="m 653.53301,1362.1289 c -2.99624,-7.808 -1.4718,-20.4995 3.38763,-28.2033 7.89847,-12.5217 46.82174,-14.007 367.07936,-14.007 320.2576,0 359.1809,1.4853 367.0794,14.007 4.8594,7.7038 6.3838,20.3953 3.3876,28.2033 -4.9241,12.832 -40.5316,14.1965 -370.467,14.1965 -329.9354,0 -365.5429,-1.3645 -370.46699,-14.1965 z"
     id="path2991"
     inkscape:connector-curvature="0"
     transform="translate(0,-410)" />
  <path
     style="fill:#ececec;fill-opacity:1;fill-rule:nonzero;stroke-linecap:butt;stroke-linejoin:round"
     d="m 848.7836,1231.5947 c -8.07071,-2.1285 -21.25243,-21.0953 -29.29271,-42.1484 -12.41707,-32.5137 -13.05262,-44.4979 -4.22003,-79.5752 28.48757,-113.13446 154.7078,-289.90106 190.99154,-267.47645 15.8293,9.78304 10.0523,26.52665 -30.32733,87.89834 -50.42218,76.63501 -68.51457,136.84591 -60.46913,201.23941 3.32659,26.6252 9.29705,56.9542 13.26766,67.3977 4.52062,11.8901 3.56346,22.644 -2.56054,28.768 -9.5935,9.5935 -48.38245,11.5466 -77.38946,3.8966 l 0,0 z"
     id="path2993"
     inkscape:connector-curvature="0"
     transform="translate(0,-410)" />
  <path
     style="fill:#ececec;fill-opacity:1;fill-rule:nonzero;stroke-linecap:butt;stroke-linejoin:round"
     d="m 967.59322,753.55487 c -55.01178,-9.69647 -44.39173,-29.71539 24.29421,-45.79489 64.13787,-15.01479 90.65367,-32.99377 111.17277,-75.38058 9.8701,-20.38901 23.3176,-37.07093 29.8832,-37.07093 13.2005,0 29.9041,26.17267 29.9041,46.85636 0,18.11635 -49.0331,72.62013 -79.5088,88.37972 -29.1752,15.0871 -90.98421,27.37479 -115.74548,23.01032 z"
     id="path2995"
     inkscape:connector-curvature="0"
     transform="translate(0,-410)" />
  <path
     style="fill:#ececec;fill-opacity:1;fill-rule:nonzero;stroke-linecap:butt;stroke-linejoin:round"
     d="m 780.98588,465.08093 c -7.65342,-14.30054 -5.37105,-21.36264 12.76564,-39.49932 32.01294,-32.01294 90.99313,-56.7292 110.48247,-46.29882 32.5622,17.42676 10.41019,53.10201 -53.08754,85.49614 -43.56718,22.22631 -58.39288,22.29013 -70.16057,0.30199 l 0,1e-5 z"
     id="path2997"
     inkscape:connector-curvature="0"
     transform="translate(0,-410)" />
</svg>
