<?xml version="1.0" encoding="UTF-8" standalone="no"?>
<svg
   xmlns:dc="http://purl.org/dc/elements/1.1/"
   xmlns:cc="http://creativecommons.org/ns#"
   xmlns:rdf="http://www.w3.org/1999/02/22-rdf-syntax-ns#"
   xmlns:svg="http://www.w3.org/2000/svg"
   xmlns="http://www.w3.org/2000/svg"
   xmlns:sodipodi="http://sodipodi.sourceforge.net/DTD/sodipodi-0.dtd"
   xmlns:inkscape="http://www.inkscape.org/namespaces/inkscape"
   viewBox="0 -410 2048 2048"
   id="svg2"
   version="1.1"
   inkscape:version="0.48.2 r9819"
   width="100%"
   height="100%"
   sodipodi:docname="bp.svg">
  <metadata
     id="metadata12">
    <rdf:RDF>
      <cc:Work
         rdf:about="">
        <dc:format>image/svg+xml</dc:format>
        <dc:type
           rdf:resource="http://purl.org/dc/dcmitype/StillImage" />
      </cc:Work>
    </rdf:RDF>
  </metadata>
  <defs
     id="defs10" />
  <sodipodi:namedview
     pagecolor="#ffffff"
     bordercolor="#666666"
     borderopacity="1"
     objecttolerance="10"
     gridtolerance="10"
     guidetolerance="10"
     inkscape:pageopacity="0"
     inkscape:pageshadow="2"
     inkscape:window-width="640"
     inkscape:window-height="883"
     id="namedview8"
     showgrid="false"
     inkscape:zoom="0.11523438"
     inkscape:cx="1024"
     inkscape:cy="1024"
     inkscape:window-x="0"
     inkscape:window-y="0"
     inkscape:window-maximized="0"
     inkscape:current-layer="svg2" />
  <g
     transform="matrix(1 0 0 -1 0 1638)"
     id="g4">
    <path
       fill="#000000"
       d="M1018 1378q-80 0 -136 -11.5t-56 -27.5q0 -17 56 -28t136 -11q78 0 135 11t57 28q0 16 -57 27.5t-135 11.5zM1298 1093q7 -258 90 -436.5t192 -178.5h26q70 0 120.5 -50.5t50.5 -120.5v0q0 -71 -50.5 -121t-120.5 -50h-1164q-72 0 -122 50t-50 121v0q0 70 50 120.5 t122 50.5h29q106 0 189.5 178.5t93.5 436.5h-142q-57 0 -96.5 39t-39.5 96v0q0 56 39.5 96t96.5 40h215q-114 92 -114 239q0 128 91 219.5t220 91.5q128 0 219 -91.5t91 -219.5q0 -146 -112 -239h214q55 0 95 -40t40 -96v0q0 -57 -40 -96t-95 -39h-138zM820 1108 q-34 0 -34 -38v0q0 -37 34 -37h408q34 0 34 37v0q0 38 -34 38h-408zM615 514q-35 0 -35 -39v0q0 -39 35 -39h818q35 0 35 39v0q0 39 -35 39h-818z"
       id="path6" />
  </g>
  <path
     style="fill:#ececec;fill-opacity:1;fill-rule:nonzero;stroke-linecap:butt;stroke-linejoin:round"
     d="m 590.10169,1589.8034 c -6.5995,-12.3313 -6.5995,-22.3806 0,-34.7119 9.09433,-16.9929 18.17013,-17.3559 433.89831,-17.3559 415.7282,0 424.804,0.363 433.8983,17.3559 6.5995,12.3313 6.5995,22.3806 0,34.7119 -9.0943,16.9929 -18.1701,17.3559 -433.8983,17.3559 -415.72818,0 -424.80398,-0.363 -433.89831,-17.3559 z"
     id="path2989"
     inkscape:connector-curvature="0"
     transform="translate(0,-410)" />
  <path
     style="fill:#ececec;fill-opacity:1;fill-rule:nonzero;stroke-linecap:butt;stroke-linejoin:round"
     d="m 794.76557,994.14018 c -3.00531,-7.83171 -3.15995,-21.49951 -0.34366,-30.37288 4.81707,-15.17724 18.40288,-16.1334 229.23439,-16.1334 199.7587,0 224.7077,1.54745 229.5781,14.23948 3.0053,7.83171 3.16,21.49951 0.3437,30.37288 -4.8171,15.17724 -18.4029,16.13344 -229.2344,16.13344 -199.75872,0 -224.70774,-1.5475 -229.57813,-14.23952 z"
     id="path2991"
     inkscape:connector-curvature="0"
     transform="translate(0,-410)" />
  <path
     style="fill:#ececec;fill-opacity:1;fill-rule:nonzero;stroke-linecap:butt;stroke-linejoin:round"
     d="m 877.84006,730.72804 c -44.17871,-10.44498 -52.24436,-23.47629 -22.30402,-36.0356 36.84738,-15.45668 249.43616,-19.35999 302.97246,-5.56284 93.543,24.10756 22.5558,48.99463 -138.8475,48.67791 -62.04744,-0.12176 -125.86687,-3.30752 -141.82094,-7.07947 z"
     id="path2993"
     inkscape:connector-curvature="0"
     transform="translate(0,-410)" />
</svg>
