<?xml version="1.0" encoding="UTF-8" standalone="no"?>
<svg
   xmlns:dc="http://purl.org/dc/elements/1.1/"
   xmlns:cc="http://creativecommons.org/ns#"
   xmlns:rdf="http://www.w3.org/1999/02/22-rdf-syntax-ns#"
   xmlns:svg="http://www.w3.org/2000/svg"
   xmlns="http://www.w3.org/2000/svg"
   xmlns:sodipodi="http://sodipodi.sourceforge.net/DTD/sodipodi-0.dtd"
   xmlns:inkscape="http://www.inkscape.org/namespaces/inkscape"
   viewBox="0 -410 2048 2048"
   id="svg2"
   version="1.1"
   inkscape:version="0.48.2 r9819"
   width="100%"
   height="100%"
   sodipodi:docname="bq.svg">
  <metadata
     id="metadata12">
    <rdf:RDF>
      <cc:Work
         rdf:about="">
        <dc:format>image/svg+xml</dc:format>
        <dc:type
           rdf:resource="http://purl.org/dc/dcmitype/StillImage" />
      </cc:Work>
    </rdf:RDF>
  </metadata>
  <defs
     id="defs10" />
  <sodipodi:namedview
     pagecolor="#ffffff"
     bordercolor="#666666"
     borderopacity="1"
     objecttolerance="10"
     gridtolerance="10"
     guidetolerance="10"
     inkscape:pageopacity="0"
     inkscape:pageshadow="2"
     inkscape:window-width="640"
     inkscape:window-height="905"
     id="namedview8"
     showgrid="false"
     inkscape:zoom="0.11523438"
     inkscape:cx="1024"
     inkscape:cy="1024"
     inkscape:window-x="0"
     inkscape:window-y="0"
     inkscape:window-maximized="0"
     inkscape:current-layer="svg2" />
  <g
     transform="matrix(1 0 0 -1 0 1638)"
     id="g4">
    <path
       fill="#000000"
       d="M766 1338l-13 -78q41 -5 73 -5q130 0 198 86q30 -39 82 -58.5t115 -27.5q40 -6 76 3l-17 80q-75 -19 -149 19.5t-107 97.5q-35 -56 -103 -94.5t-155 -22.5zM876 1088l148 -78l152 78l-152 78zM876 900l148 -78l152 78l-152 78zM1170 985l148 -77l153 77l-153 79zM577 985 l149 -77l152 77l-152 79zM1140 1568q82 -33 134 -101t53 -153q46 15 78 47t62 74q34 -132 150 -132q54 0 114 34t96 91l-391 -749q53 -4 94 -42.5t41 -93.5v0q0 -31 -18 -65h53q70 0 120.5 -50.5t50.5 -120.5v0q0 -71 -50.5 -121t-120.5 -50h-1164q-72 0 -122 50t-50 121v0 q0 70 50 120.5t122 50.5h49q-15 20 -15 65v0q0 55 41 93.5t95 41.5l-391 750q85 -125 207 -125q118 0 153 131q53 -84 144 -119q-2 84 49 152t133 101q-33 44 -33 96q0 62 43.5 106t106.5 44q62 0 106 -44t44 -106q0 -53 -34 -96zM1135 1533l-33 54q-34 -30 -78 -30 q-41 0 -71 27l-43 -51q47 -44 114 -44t111 44zM664 738q-35 0 -35 -37v0q0 -37 35 -37h720q35 0 35 37v0q0 37 -35 37h-720zM549 494q-37 0 -37 -41v0q0 -42 37 -42h949q38 0 38 42v0q0 41 -38 41h-949z"
       id="path6" />
  </g>
  <path
     style="fill:#ececec;fill-opacity:1;fill-rule:nonzero;stroke-linecap:butt;stroke-linejoin:round"
     d="m 534.60907,1625.389 c -10.25882,-7.5014 -14.44471,-19.8459 -12.50608,-36.8813 l 2.91396,-25.606 498.98305,0 498.9831,0 2.9139,25.606 c 5.5835,49.0643 15.0428,48.1567 -501.897,48.1567 -375.07362,0 -477.1884,-2.3527 -489.39093,-11.2754 z"
     id="path2989"
     inkscape:connector-curvature="0"
     transform="translate(0,-410)" />
  <path
     style="fill:#ececec;fill-opacity:1;fill-rule:nonzero;stroke-linecap:butt;stroke-linejoin:round"
     d="m 636.17708,1362.1289 c -2.99624,-7.808 -1.4718,-20.4995 3.38763,-28.2033 7.90922,-12.5388 48.205,-14.007 384.43529,-14.007 336.2303,0 376.5261,1.4682 384.4353,14.007 4.8594,7.7038 6.3839,20.3953 3.3876,28.2033 -4.9295,12.8462 -41.8191,14.1965 -387.8229,14.1965 -346.00381,0 -382.8934,-1.3503 -387.82292,-14.1965 z"
     id="path2991"
     inkscape:connector-curvature="0"
     transform="translate(0,-410)" />
  <path
     style="fill:#ececec;fill-opacity:1;fill-rule:nonzero;stroke-linecap:butt;stroke-linejoin:round"
     d="m 1251.7966,1100.5577 c -34.6034,-17.4642 -62.9152,-34.0939 -62.9152,-36.9547 0,-2.8609 29.2155,-20.5568 64.9235,-39.3243 l 64.9235,-34.12277 65.246,33.39367 c 35.8852,18.3665 65.2459,36.0593 65.2459,39.3174 0,4.9255 -126.1892,71.5618 -132.4825,69.9596 -1.1143,-0.2837 -30.3378,-14.8047 -64.9412,-32.2689 z"
     id="path2993"
     inkscape:connector-curvature="0"
     transform="translate(0,-410)" />
  <path
     style="fill:#ececec;fill-opacity:1;fill-rule:nonzero;stroke-linecap:butt;stroke-linejoin:round"
     d="m 956.49964,1184.865 c -34.73876,-19.2652 -61.43445,-37.8218 -59.32375,-41.237 2.1107,-3.4152 31.62539,-19.6523 65.58821,-36.0824 l 61.7506,-29.873 71.2977,35.3444 71.2977,35.3444 -71.3624,35.8803 c -39.2494,19.7342 -72.4254,35.8287 -73.7246,35.7656 -1.2991,-0.063 -30.7847,-15.8771 -65.52346,-35.1423 l 0,0 z"
     id="path2995"
     inkscape:connector-curvature="0"
     transform="translate(0,-410)" />
  <path
     style="fill:#ececec;fill-opacity:1;fill-rule:nonzero;stroke-linecap:butt;stroke-linejoin:round"
     d="m 952.43045,995.52152 c -32.20393,-17.26972 -58.54651,-33.35203 -58.53905,-35.73847 0.007,-2.38644 29.5994,-19.52801 65.75989,-38.09238 l 65.74631,-33.7534 64.2924,33.7534 c 35.3608,18.56437 64.2682,35.70594 64.2386,38.09238 -0.091,7.3797 -119.9868,69.49255 -131.8015,68.28085 -6.1292,-0.6286 -37.49272,-15.2727 -69.69665,-32.54238 l 0,0 z"
     id="path2997"
     inkscape:connector-curvature="0"
     transform="translate(0,-410)" />
  <path
     style="fill:#ececec;fill-opacity:1;fill-rule:nonzero;stroke-linecap:butt;stroke-linejoin:round"
     d="m 657.3796,1099.6571 c -32.20393,-17.2697 -58.56325,-34.3603 -58.57627,-37.979 -0.013,-3.6187 29.34874,-21.1134 65.24836,-38.877 l 65.27203,-32.29743 64.82392,34.53803 c 35.65316,18.9959 64.85701,36.6104 64.89746,39.1435 0.0926,5.7962 -128.11749,69.564 -136.74799,68.0143 -3.5007,-0.6286 -32.71358,-15.2727 -64.91751,-32.5424 l 0,0 z"
     id="path2999"
     inkscape:connector-curvature="0"
     transform="translate(0,-410)" />
  <path
     style="fill:#ececec;fill-opacity:1;fill-rule:nonzero;stroke-linecap:butt;stroke-linejoin:round"
     d="m 762.97907,753.68136 5.26388,-32.54238 56.2853,-4.95458 c 68.24235,-6.00712 112.79414,-26.1711 162.00404,-73.32248 l 37.14881,-35.59483 32.4864,33.26906 c 47.7616,48.91235 108.209,76.26385 168.5448,76.26385 40.01,0 50.6103,2.98033 54.0143,15.18644 2.3294,8.35254 6.9477,24.56173 10.2629,36.02043 l 6.0277,20.83399 -69.315,-4.75095 c -76.3223,-5.23124 -139.3461,-28.1792 -177.3558,-64.57798 l -23.3824,-22.39143 -39.60484,34.86157 c -45.3473,39.91629 -90.80124,54.24166 -172.10705,54.24166 l -55.53692,0 5.26388,-32.54237 0,0 z"
     id="path3001"
     inkscape:connector-curvature="0"
     transform="translate(0,-410)" />
  <path
     style="fill:#ececec;fill-opacity:1;fill-rule:nonzero;stroke-linecap:butt;stroke-linejoin:round"
     d="m 957.78754,539.89589 c -36.13532,-16.36002 -39.4128,-23.73883 -21.24338,-47.82658 13.33064,-17.67282 17.86925,-18.95017 34.91631,-9.82686 17.34528,9.28291 64.94103,8.87248 116.30733,-1.00294 9.2902,-1.7861 21.4288,4.87014 28.8484,15.81916 11.8784,17.52886 11.1087,20.01709 -10.5902,34.23478 -30.5061,19.98838 -112.57091,24.7507 -148.23846,8.60244 z"
     id="path3003"
     inkscape:connector-curvature="0"
     transform="translate(0,-410)" />
</svg>
