<?xml version="1.0" encoding="UTF-8" standalone="no"?>
<svg
   xmlns:dc="http://purl.org/dc/elements/1.1/"
   xmlns:cc="http://creativecommons.org/ns#"
   xmlns:rdf="http://www.w3.org/1999/02/22-rdf-syntax-ns#"
   xmlns:svg="http://www.w3.org/2000/svg"
   xmlns="http://www.w3.org/2000/svg"
   xmlns:sodipodi="http://sodipodi.sourceforge.net/DTD/sodipodi-0.dtd"
   xmlns:inkscape="http://www.inkscape.org/namespaces/inkscape"
   viewBox="0 -410 2048 2048"
   id="svg2"
   version="1.1"
   inkscape:version="0.48.2 r9819"
   width="100%"
   height="100%"
   sodipodi:docname="br.svg">
  <metadata
     id="metadata12">
    <rdf:RDF>
      <cc:Work
         rdf:about="">
        <dc:format>image/svg+xml</dc:format>
        <dc:type
           rdf:resource="http://purl.org/dc/dcmitype/StillImage" />
      </cc:Work>
    </rdf:RDF>
  </metadata>
  <defs
     id="defs10" />
  <sodipodi:namedview
     pagecolor="#ffffff"
     bordercolor="#666666"
     borderopacity="1"
     objecttolerance="10"
     gridtolerance="10"
     guidetolerance="10"
     inkscape:pageopacity="0"
     inkscape:pageshadow="2"
     inkscape:window-width="640"
     inkscape:window-height="751"
     id="namedview8"
     showgrid="false"
     inkscape:zoom="0.59094932"
     inkscape:cx="1024"
     inkscape:cy="333.78396"
     inkscape:window-x="0"
     inkscape:window-y="0"
     inkscape:window-maximized="0"
     inkscape:current-layer="svg2" />
  <g
     transform="matrix(1 0 0 -1 0 1638)"
     id="g4">
    <path
       fill="#000000"
       d="M1518 511l88 -33q70 0 120.5 -50.5t50.5 -120.5v0q0 -71 -50.5 -121t-120.5 -50h-1164q-72 0 -122 50t-50 121v0q0 70 50 120.5t122 50.5l92 33q42 232 54.5 435t26.5 418v136h-138v407h273v-200h139v200h270v-200h139v200h273v-407h-138v-69v-67q12 -225 26 -423 t59 -430zM921 680h206v-159h-206v159zM921 1123h206v-154h-206v154zM1059 902h203v-154h-203v154zM786 902h202v-154h-202v154zM1059 1346h203v-153h-203v153zM786 1346h202v-153h-202v153zM1369 1346v68h-686l-2 -68h37v-153h-51l-2 -70h53h135v-154h-199l-5 -67h69v-154 h-83l-4 -68h222v-159h-277v-78h896v78h-278v159h230l-7 68h-87v154h72l-5 67h-203v154h189v70h-53v153h39z"
       id="path6" />
  </g>
  <path
     style="fill:#ececec;fill-opacity:1;fill-rule:nonzero;stroke-linecap:butt;stroke-linejoin:round"
     d="m 581.42373,1568.9763 0,-34.7119 138.84746,0 138.84745,0 0,-86.7797 0,-86.7796 -112.81356,0 c -118.95886,0 -118.4436,0.1978 -107.34395,-41.2204 4.41731,-16.4831 11.15948,-19.5254 43.27133,-19.5254 l 38.03873,0 0,-78.1017 0,-78.1017 -35.72399,0 c -32.81219,0 -35.29749,-1.5914 -30.49138,-19.5254 2.87794,-10.739 5.28593,-24.4068 5.35111,-30.3729 0.0879,-8.0422 25.92632,-10.8474 99.9151,-10.8474 l 99.79661,0 0,-82.4407 0,-82.44069 -95.45762,0 -95.45763,0 0,-30.37288 c 0,-27.96233 2.06618,-30.37288 26.0339,-30.37288 l 26.0339,0 0,-78.10169 c 0,-72.31639 -1.28563,-78.1017 -17.35594,-78.1017 -14.05004,0 -17.35593,-5.78531 -17.35593,-30.37288 l 0,-30.37288 338.44068,0 338.4407,0 0,30.37288 c 0,24.58757 -3.3059,30.37288 -17.356,30.37288 -16.0703,0 -17.3559,5.78531 -17.3559,78.1017 l 0,78.10169 26.0339,0 c 23.9677,0 26.0339,2.41055 26.0339,30.37288 l 0,30.37288 -95.4576,0 -95.4576,0 0,82.44069 0,82.4407 104.1355,0 104.1356,0 0,30.3729 c 0,29.6497 -0.8264,30.3728 -34.7118,30.3728 l -34.7119,0 0,78.1017 0,78.1017 43.3898,0 43.3899,0 0,30.3729 0,30.3729 -112.8136,0 -112.8135,0 0,86.7796 0,86.7797 138.8474,0 138.8475,0 0,34.7119 0,34.7118 -442.5763,0 -442.57627,0 0,-34.7118 z m 546.71187,-121.4916 0,-86.7796 -104.1356,0 -104.13559,0 0,86.7796 0,86.7797 104.13559,0 104.1356,0 0,-86.7797 z m -138.84746,-225.6271 0,-78.1017 -104.1356,0 -104.13559,0 0,78.1017 0,78.1017 104.13559,0 104.1356,0 0,-78.1017 z m 277.69496,0 0,-78.1017 -104.1356,0 -104.1356,0 0,78.1017 0,78.1017 104.1356,0 104.1356,0 0,-78.1017 z m -138.8475,-221.2881 0,-82.44069 -104.1356,0 -104.13559,0 0,82.44069 0,82.4407 104.13559,0 104.1356,0 0,-82.4407 z m -138.84746,-221.28814 0,-78.1017 -104.1356,0 -104.13559,0 0,78.1017 0,78.10169 104.13559,0 104.1356,0 0,-78.10169 z m 277.69496,0 0,-78.1017 -104.1356,0 -104.1356,0 0,78.1017 0,78.10169 104.1356,0 104.1356,0 0,-78.10169 z"
     id="path2989"
     inkscape:connector-curvature="0"
     transform="translate(0,-410)" />
</svg>
