<?xml version="1.0" encoding="UTF-8" standalone="no"?>
<svg
   xmlns:dc="http://purl.org/dc/elements/1.1/"
   xmlns:cc="http://creativecommons.org/ns#"
   xmlns:rdf="http://www.w3.org/1999/02/22-rdf-syntax-ns#"
   xmlns:svg="http://www.w3.org/2000/svg"
   xmlns="http://www.w3.org/2000/svg"
   xmlns:sodipodi="http://sodipodi.sourceforge.net/DTD/sodipodi-0.dtd"
   xmlns:inkscape="http://www.inkscape.org/namespaces/inkscape"
   viewBox="0 -410 2048 2048"
   id="svg2"
   version="1.1"
   inkscape:version="0.48.2 r9819"
   width="100%"
   height="100%"
   sodipodi:docname="wb.svg">
  <metadata
     id="metadata12">
    <rdf:RDF>
      <cc:Work
         rdf:about="">
        <dc:format>image/svg+xml</dc:format>
        <dc:type
           rdf:resource="http://purl.org/dc/dcmitype/StillImage" />
      </cc:Work>
    </rdf:RDF>
  </metadata>
  <defs
     id="defs10" />
  <sodipodi:namedview
     pagecolor="#ffffff"
     bordercolor="#666666"
     borderopacity="1"
     objecttolerance="10"
     gridtolerance="10"
     guidetolerance="10"
     inkscape:pageopacity="0"
     inkscape:pageshadow="2"
     inkscape:window-width="640"
     inkscape:window-height="807"
     id="namedview8"
     showgrid="false"
     inkscape:zoom="0.11523438"
     inkscape:cx="1024"
     inkscape:cy="1024"
     inkscape:window-x="0"
     inkscape:window-y="0"
     inkscape:window-maximized="0"
     inkscape:current-layer="svg2" />
  <g
     transform="matrix(1 0 0 -1 0 1638)"
     id="g4">
    <path
       fill="#000000"
       d="M1024 1642q100 0 100 100q0 101 -100 101t-100 -101q0 -100 100 -100zM615 614q-67 0 -67 -68v0q0 -68 67 -68h817q68 0 68 68v0q0 68 -68 68h-817zM441 407q-100 0 -100 -100v0q0 -100 100 -100h1165q100 0 100 100v0q0 100 -100 100h-1165zM1113 1131l194 221 q32 -31 66 -88q28 -45 54 -100q26 -56 40 -107q-9 -106 -66 -208t-147 -165l180 -2q57 0 97 -40.5t40 -96.5v-1q0 -26 -18 -66h53q70 0 120.5 -50.5t50.5 -120.5v0q0 -71 -50.5 -121t-120.5 -50h-1164q-72 0 -122 50t-50 121v0q0 70 50 120.5t122 50.5h56q-21 25 -21 66v1 q0 56 40 96.5t97 40.5h175q-94 57 -151 156t-56 219q59 187 149.5 324.5t125.5 182.5q13 40 47 61q-52 44 -52 117q0 71 50 121.5t122 50.5q70 0 120.5 -50.5t50.5 -121.5q0 -65 -49 -128q20 -40 24 -47q31 -44 81 -140l-212 -235q-34 -34 7 -66q37 -33 67 5zM1151 1085 q-29 -30 -76.5 -29.5t-68.5 20.5t-30.5 61.5t17.5 76.5l191 225q3 3 -11.5 15.5t-21.5 22.5q-13 21 -29.5 50.5t-34.5 53.5q-34 -10 -63 -10q-35 0 -65 13q-48 -32 -88 -113q-158 -203 -216 -417q-26 -138 105.5 -256t263.5 -118t258.5 125.5t116.5 255.5q-15 45 -42 99.5 t-49 96.5z"
       id="path6" />
  </g>
  <path
     style="fill:#f9f9f9;fill-opacity:1;fill-rule:nonzero;stroke-linecap:butt;stroke-linejoin:round"
     d="m 416.54237,1832.1936 c -49.51407,-12.5109 -69.42373,-40.2422 -69.42373,-96.6974 0,-28.1635 5.49413,-41.444 25.36637,-61.3163 l 25.36636,-25.3663 624.99713,0 624.9972,0 23.2933,20.036 c 17.7909,15.3031 24.2567,30.1652 27.3714,62.9153 5.0063,52.6403 -16.6252,85.4261 -65.278,98.9386 -35.0847,9.7442 -1178.48099,11.1445 -1216.69003,1.4901 z"
     id="path2989"
     inkscape:connector-curvature="0"
     transform="translate(0,-410)" />
  <path
     style="fill:#f9f9f9;fill-opacity:1;fill-rule:nonzero;stroke-linecap:butt;stroke-linejoin:round"
     d="m 569.75176,1546.1641 c -19.40915,-21.4468 -18.55568,-73.1026 1.50782,-91.2598 14.32611,-12.965 58.51043,-14.3619 454.24822,-14.3619 413.673,0 439.1879,0.8943 452.7404,15.8697 19.4092,21.4469 18.5557,73.1027 -1.5078,91.2599 -14.3261,12.9649 -58.5104,14.3619 -454.2482,14.3619 -413.67304,0 -439.18791,-0.8944 -452.74044,-15.8698 z"
     id="path2991"
     inkscape:connector-curvature="0"
     transform="translate(0,-410)" />
  <path
     style="fill:#f9f9f9;fill-opacity:1;fill-rule:nonzero;stroke-linecap:butt;stroke-linejoin:round"
     d="M 932.76805,1346.831 C 865.22191,1323.4741 807.4741,1286.0644 750.219,1228.5735 633.78085,1111.6558 630.3533,1013.6515 735.32512,802.71186 769.24075,734.55882 920.6014,503.80129 943.84779,484.80776 c 10.90771,-8.91218 33.23957,-11.47409 80.89041,-9.27973 l 65.8229,3.03119 32.1748,53.60174 c 17.6962,29.48096 36.461,59.7881 41.6996,67.34919 7.8021,11.2611 -8.9189,35.43562 -92.4538,133.66579 l -101.97863,119.91836 3.85355,46.46873 c 4.55782,54.9613 28.01508,85.27025 72.44468,93.60528 60.6313,11.37449 90.3527,-5.74808 178.0978,-102.60276 l 81.6348,-90.11003 19.1464,35.84004 c 10.5306,19.71202 31.2546,64.41452 46.0535,99.33888 25.5977,60.40905 26.4186,65.89846 16.8722,112.81356 -13.0078,63.9258 -48.0034,124.6099 -105.4155,182.7957 -112.9038,114.4254 -235.8431,155.0351 -349.92245,115.5873 z"
     id="path2993"
     inkscape:connector-curvature="0"
     transform="translate(0,-410)" />
  <path
     style="fill:#f9f9f9;fill-opacity:1;fill-rule:nonzero;stroke-linecap:butt;stroke-linejoin:round"
     d="m 960.5334,378.23116 c -56.33876,-52.21302 -33.69985,-150.09278 38.03372,-164.4395 59.35118,-11.87024 107.33338,16.05317 117.10698,68.15091 12.9737,69.15619 -24.6265,117.24387 -91.6741,117.24387 -31.16686,0 -46.21755,-4.96941 -63.4666,-20.95528 z"
     id="path2995"
     inkscape:connector-curvature="0"
     transform="translate(0,-410)" />
</svg>
