<?xml version="1.0" encoding="UTF-8" standalone="no"?>
<svg
   xmlns:dc="http://purl.org/dc/elements/1.1/"
   xmlns:cc="http://creativecommons.org/ns#"
   xmlns:rdf="http://www.w3.org/1999/02/22-rdf-syntax-ns#"
   xmlns:svg="http://www.w3.org/2000/svg"
   xmlns="http://www.w3.org/2000/svg"
   xmlns:sodipodi="http://sodipodi.sourceforge.net/DTD/sodipodi-0.dtd"
   xmlns:inkscape="http://www.inkscape.org/namespaces/inkscape"
   viewBox="0 -410 2048 2048"
   id="svg2"
   version="1.1"
   inkscape:version="0.48.2 r9819"
   width="100%"
   height="100%"
   sodipodi:docname="wk.svg">
  <metadata
     id="metadata12">
    <rdf:RDF>
      <cc:Work
         rdf:about="">
        <dc:format>image/svg+xml</dc:format>
        <dc:type
           rdf:resource="http://purl.org/dc/dcmitype/StillImage" />
      </cc:Work>
    </rdf:RDF>
  </metadata>
  <defs
     id="defs10" />
  <sodipodi:namedview
     pagecolor="#ffffff"
     bordercolor="#666666"
     borderopacity="1"
     objecttolerance="10"
     gridtolerance="10"
     guidetolerance="10"
     inkscape:pageopacity="0"
     inkscape:pageshadow="2"
     inkscape:window-width="640"
     inkscape:window-height="846"
     id="namedview8"
     showgrid="false"
     inkscape:zoom="0.11523438"
     inkscape:cx="1024"
     inkscape:cy="1024"
     inkscape:window-x="0"
     inkscape:window-y="0"
     inkscape:window-maximized="0"
     inkscape:current-layer="svg2" />
  <g
     transform="matrix(1 0 0 -1 0 1638)"
     id="g4">
    <path
       fill="#000000"
       d="M1184 819l-156 -78l-160 78l160 79zM1394 750l-137 69l160 79l22 -13q7 18 14.5 36t13.5 33l-877 -1q13 -49 22 -71l27 16l156 -79l-137 -68q5 -18 10.5 -36.5t11.5 -37.5l691 1q13 46 23 72zM1506 1022q31 54 64 91t69 76q24 29 45.5 52.5t21.5 52.5v0q0 70 -69 70 h-1226q-70 0 -70 -70v0q0 -29 20.5 -52.5t50.5 -52.5q37 -39 71.5 -75.5t64.5 -92.5zM1022 1499q-57 0 -97 -11t-40 -26q0 -16 40 -27t97 -11q56 0 96.5 11t40.5 27q0 15 -40.5 26t-96.5 11zM853 1669v137l119 -17l-16 121h135l-16 -121l119 17v-137l-119 18v-123h-103v123z M614 611q-66 0 -66 -66v-1q0 -66 66 -66h820q66 0 66 66v1q0 66 -66 66h-820zM445 407q-104 0 -104 -103v-1q0 -103 104 -103h1158q103 0 103 103v1q0 103 -103 103h-1158zM494 478q-18 31 -18 65v0q0 55 40 94.5t97 36.5q-55 183 -89 257t-112 158q-64 72 -103 109.5 t-39 93.5v1q0 55 39.5 95t96.5 40h429q-17 20 -17 36v0q0 100 100 100h212q100 0 100 -100v0q0 -17 -18 -36h430q55 0 95 -40t40 -95v-1q0 -56 -41.5 -91.5t-107.5 -107.5q-72 -89 -108 -167t-84 -252q55 3 95 -36.5t40 -94.5v0q0 -34 -15 -65h50q70 0 120.5 -50.5 t50.5 -120.5v0q0 -71 -50.5 -121t-120.5 -50h-1164q-72 0 -122 50t-50 121v0q0 70 50 120.5t122 50.5h52z"
       id="path6" />
  </g>
  <path
     style="fill:#f9f9f9;fill-opacity:1;fill-rule:nonzero;stroke-linecap:butt;stroke-linejoin:round"
     d="m 414.68459,1840.4856 c -38.66073,-5.8847 -67.56595,-48.3589 -67.56595,-99.2834 0,-36.4532 4.08281,-47.4743 25.53352,-68.925 l 25.53352,-25.5335 629.41482,2.3366 629.4148,2.3366 19.7635,19.7665 c 16.0745,16.0769 19.7636,29.2705 19.7636,70.6822 0,59.4075 -15.4274,82.4779 -64.2162,96.0305 -29.9477,8.3189 -1164.15517,10.731 -1217.64161,2.5895 l 0,0 z"
     id="path2989"
     inkscape:connector-curvature="0"
     transform="translate(0,-410)" />
  <path
     style="fill:#f9f9f9;fill-opacity:1;fill-rule:nonzero;stroke-linecap:butt;stroke-linejoin:round"
     d="m 590.34668,1559.316 c -27.1802,-10.847 -34.69108,-22.8469 -34.69108,-55.4245 0,-65.732 -4.65797,-65.0847 468.3444,-65.0847 473.0023,0 468.3444,-0.6473 468.3444,65.0847 0,33.3727 -7.4319,44.4864 -37.3571,55.8639 -31.8075,12.0932 -834.25864,11.6853 -864.64062,-0.4394 l 0,0 z"
     id="path2991"
     inkscape:connector-curvature="0"
     transform="translate(0,-410)" />
  <path
     style="fill:#f9f9f9;fill-opacity:1;fill-rule:nonzero;stroke-linecap:butt;stroke-linejoin:round"
     d="m 682.52032,1362.8085 c -2.23482,-3.616 -6.64957,-20.3605 -9.81054,-37.2099 l -5.74723,-30.6354 65.70516,-28.8753 c 36.13785,-15.8814 65.70517,-31.4599 65.70517,-34.6188 0,-11.2625 -152.22499,-82.9058 -171.38983,-80.6632 -12.3549,1.4458 -19.52542,-2.3554 -19.52542,-10.3507 0,-6.9497 -2.37035,-18.8127 -5.26743,-26.3624 -4.75958,-12.4033 36.23708,-13.7267 425.2203,-13.7267 236.7683,0 430.4878,1.7688 430.4878,3.9307 0,18.2229 -22.5638,47.7236 -33.9921,44.4425 -7.5552,-2.1692 -50.7478,14.857 -95.9835,37.836 l -82.2469,41.7799 70.5593,35.4765 70.5593,35.4765 -8.8935,35.0374 -8.8934,35.0375 -341.2119,0 c -187.66661,0 -343.04047,-2.9586 -345.27528,-6.5746 z m 429.33758,-93.7636 c 43.3582,-21.7758 77.4496,-40.8503 75.7588,-42.3878 -1.6909,-1.5374 -38.2501,-20.3831 -81.2426,-41.8792 l -78.1683,-39.0839 -80.20461,37.4942 c -44.11252,20.6217 -80.20458,40.7958 -80.20458,44.8312 0,8.1869 136.89959,79.3022 154.20729,80.106 6.0615,0.2815 46.4958,-17.3047 89.854,-39.0805 l 0,0 z"
     id="path2993"
     inkscape:connector-curvature="0"
     transform="translate(0,-410)" />
  <path
     style="fill:#f9f9f9;fill-opacity:1;fill-rule:nonzero;stroke-linecap:butt;stroke-linejoin:round"
     d="M 533.93323,994.29709 C 524.84684,978.91507 479.09641,924.11353 432.26559,872.51591 342.09497,773.16702 332.58355,751.82712 360.62767,711.78853 l 13.50902,-19.28684 649.86331,0 649.8633,0 13.5091,19.28684 c 29.0276,41.44284 15.3044,70.87488 -82.0481,175.9674 -26.5282,28.63729 -60.9764,70.61695 -76.5515,93.28814 l -28.3184,41.22033 -475.0003,0 -475.00017,0 -16.5207,-27.96731 z"
     id="path2995"
     inkscape:connector-curvature="0"
     transform="translate(0,-410)" />
  <path
     style="fill:#f9f9f9;fill-opacity:1;fill-rule:nonzero;stroke-linecap:butt;stroke-linejoin:round"
     d="m 984.94915,617.2804 c -42.51588,-4.89993 -91.11864,-20.34579 -91.11864,-28.95732 0,-39.91672 249.50769,-44.12944 254.43799,-4.29596 2.5671,20.74086 -96.6328,40.93886 -163.31935,33.25328 z"
     id="path2997"
     inkscape:connector-curvature="0"
     transform="translate(0,-410)" />
</svg>
