<?xml version="1.0" encoding="UTF-8" standalone="no"?>
<svg
   xmlns:dc="http://purl.org/dc/elements/1.1/"
   xmlns:cc="http://creativecommons.org/ns#"
   xmlns:rdf="http://www.w3.org/1999/02/22-rdf-syntax-ns#"
   xmlns:svg="http://www.w3.org/2000/svg"
   xmlns="http://www.w3.org/2000/svg"
   xmlns:sodipodi="http://sodipodi.sourceforge.net/DTD/sodipodi-0.dtd"
   xmlns:inkscape="http://www.inkscape.org/namespaces/inkscape"
   viewBox="0 -410 2048 2048"
   id="svg2"
   version="1.1"
   inkscape:version="0.48.2 r9819"
   width="100%"
   height="100%"
   sodipodi:docname="wn.svg">
  <metadata
     id="metadata12">
    <rdf:RDF>
      <cc:Work
         rdf:about="">
        <dc:format>image/svg+xml</dc:format>
        <dc:type
           rdf:resource="http://purl.org/dc/dcmitype/StillImage" />
      </cc:Work>
    </rdf:RDF>
  </metadata>
  <defs
     id="defs10" />
  <sodipodi:namedview
     pagecolor="#ffffff"
     bordercolor="#666666"
     borderopacity="1"
     objecttolerance="10"
     gridtolerance="10"
     guidetolerance="10"
     inkscape:pageopacity="0"
     inkscape:pageshadow="2"
     inkscape:window-width="640"
     inkscape:window-height="741"
     id="namedview8"
     showgrid="false"
     inkscape:zoom="0.11523438"
     inkscape:cx="1024"
     inkscape:cy="1024"
     inkscape:window-x="0"
     inkscape:window-y="0"
     inkscape:window-maximized="0"
     inkscape:current-layer="svg2" />
  <g
     transform="matrix(1 0 0 -1 0 1638)"
     id="g4">
    <path
       fill="#000000"
       d="M851 1631q64 37 83 7q18 -31 -47 -69q-64 -37 -82 -6q-19 31 46 68zM862 761q-59 98 46 279q40 68 79 104q-18 -13 11 -2t29 -35q-10 -11 -27 -40t-26 -45q-39 -67 -38.5 -135t21.5 -116q-16 -26 -44 -22.5t-51 12.5zM1161 1422q14 -28 -31 -75.5t-117 -57.5 q-21 -3 -32.5 -9t-24.5 -7q-8 -6 -23.5 -12.5t-36.5 -17.5q-55 -29 -99.5 -79t-77.5 -107q-23 -71 -32.5 -189t-3.5 -190h340.5h341.5q-4 22 -7.5 44.5t-6.5 45.5q-43 48 -70.5 133t-26.5 156q12 74 56.5 170.5t68.5 150.5q3 40 0 86t-42 89q-22 40 -89.5 99t-163.5 65 q14 67 -35 104q-7 -44 -70 -84t-129 -45q-57 -67 -155.5 -91t-196.5 -48q-30 -51 1.5 -72t37.5 -53q26 -19 21.5 -32.5t81.5 0.5q57 26 87 20t94 -16q20 -15 33 -18q53 -45 141 -29q108 18 123 104q37 0 43 -35zM615 614q-67 0 -67 -68v0q0 -68 67 -68h817q68 0 68 68v0 q0 68 -68 68h-817zM1299 407h-547h-307q-104 0 -104 -103v0q0 -104 104 -104h1158q103 0 103 104v0q0 103 -103 103h-304zM1443 678q47 -7 87.5 -43.5t40.5 -91.5v0q0 -34 -15 -65h46q71 0 121.5 -50.5t50.5 -120.5v0q0 -71 -50.5 -121t-121.5 -50h-1157q-71 0 -121 50 t-50 121v0q0 70 50 120.5t121 50.5h47q-16 33 -16 65v0q0 55 40.5 96t100.5 47q-5 93 -3 186t31 180q57 121 119 176t143 82q-67 3 -75.5 4t-56.5 28q-48 13 -64 14t-85 -20q-75 -12 -111 -8t-38 72q-30 42 -62.5 90.5t26.5 116.5q159 50 230.5 55t149.5 80q99 21 140 53.5 t41 118.5q54 -11 95 -47.5t41 -95.5q111 -27 148.5 -65.5t92.5 -84.5q69 -91 71.5 -159t-7.5 -137q-31 -67 -63 -124.5t-48 -147.5q0 -87 27 -157t71 -128z"
       id="path6" />
  </g>
  <path
     style="fill:#f9f9f9;fill-opacity:1;fill-rule:nonzero;stroke-linecap:butt;stroke-linejoin:round"
     d="m 414.68459,1840.4856 c -38.66073,-5.8847 -67.56595,-48.3589 -67.56595,-99.2834 0,-36.4532 4.08281,-47.4743 25.53352,-68.925 l 25.53352,-25.5335 629.41482,2.3366 629.4148,2.3366 19.7635,19.7665 c 16.0745,16.0769 19.7636,29.2705 19.7636,70.6822 0,59.4075 -15.4274,82.4779 -64.2162,96.0305 -29.9477,8.3189 -1164.15517,10.731 -1217.64161,2.5895 l 0,0 z"
     id="path2989"
     inkscape:connector-curvature="0"
     transform="translate(0,-410)" />
  <path
     style="fill:#f9f9f9;fill-opacity:1;fill-rule:nonzero;stroke-linecap:butt;stroke-linejoin:round"
     d="m 590.34668,1559.316 c -11.79746,-4.7081 -24.42919,-13.2471 -28.07051,-18.9754 -12.8415,-20.2016 -7.06539,-66.6429 10.46959,-84.1779 16.89311,-16.8931 28.92656,-17.3559 451.25424,-17.3559 422.3277,0 434.3611,0.4628 451.2542,17.3559 17.4944,17.4944 23.3196,63.9658 10.538,84.0673 -3.6037,5.6675 -17.4659,14.4539 -30.8049,19.5254 -31.8075,12.0932 -834.25864,11.6853 -864.64062,-0.4394 l 0,0 z"
     id="path2991"
     inkscape:connector-curvature="0"
     transform="translate(0,-410)" />
  <path
     style="fill:#f9f9f9;fill-opacity:1;fill-rule:nonzero;stroke-linecap:butt;stroke-linejoin:round"
     d="m 685.72874,1293.4508 c 0.26077,-116.8602 21.80446,-258.373 47.25313,-310.38819 49.68237,-101.54708 158.60418,-185.00726 288.43093,-221.00715 86.8327,-24.07799 144.3273,-72.89312 144.3273,-122.53951 0,-48.14581 -49.3204,-72.30419 -60.0813,-29.42935 -7.1047,28.3075 -47.8117,62.07256 -88.4368,73.35525 -57.18086,15.88068 -100.08252,10.93282 -153.81287,-17.73931 -56.75195,-30.28454 -152.84361,-43.03132 -204.62449,-27.14391 -52.05931,15.97285 -94.71684,20.74454 -94.71684,10.59507 0,-11.20768 -31.0105,-55.2554 -59.11521,-83.96803 -17.79591,-18.18085 -20.22772,-45.55103 -5.52976,-62.2378 1.44248,-1.63766 56.20634,-16.48023 121.69748,-32.9835 128.49949,-32.3809 152.63372,-42.31133 211.04285,-86.8371 20.97111,-15.98644 44.40162,-29.06933 52.0678,-29.0731 29.3763,-0.0147 120.30764,-51.03953 145.56664,-81.68313 23.8781,-28.96829 27.2915,-30.51822 38.2173,-17.35342 6.5986,7.95078 11.9974,29.58305 11.9974,48.07171 0,29.00959 2.6579,33.61575 19.3971,33.61575 69.9251,0 172.7513,72.28945 235.2776,165.40609 33.8388,50.39424 36.4316,58.42679 36.4316,112.86714 0,51.51792 -5.1283,69.99634 -42.3728,152.67767 -78.499,174.2646 -87.0581,214.50545 -66.8438,314.26702 15.2846,75.4327 38.108,135.719 66.4493,175.5207 9.7573,13.7029 20.8359,44.495 24.6189,68.4268 l 6.8785,43.5126 -337.1447,0 -337.14468,0 0.1694,-75.9323 2e-5,0 z m 268.53204,-6.1283 c 5.7682,-6.9502 7.98666,-16.6834 4.92992,-21.6293 -3.05674,-4.946 -9.30709,-32.2742 -13.88967,-60.7294 -11.22119,-69.6772 0.71845,-119.0018 49.07744,-202.7468 42.30263,-73.25695 44.53053,-101.44412 8.01803,-101.44412 -42.67925,0 -129.00754,135.46952 -154.84158,242.98302 -15.58525,64.8612 -8.48758,126.425 16.69877,144.8417 20.84609,15.243 76.958,14.4481 90.00709,-1.2751 z M 884.9248,484.34669 c 39.83368,-20.32163 60.73371,-46.88752 54.78471,-69.63651 -8.27252,-31.63418 -61.27078,-25.37747 -111.85505,13.20503 -27.64409,21.08518 -38.73199,52.8502 -23.69627,67.88592 10.8995,10.8995 46.97917,5.78263 80.76661,-11.45444 l 0,0 z"
     id="path2993"
     inkscape:connector-curvature="0"
     transform="translate(0,-410)" />
</svg>
