<?xml version="1.0" encoding="UTF-8" standalone="no"?>
<svg
   xmlns:dc="http://purl.org/dc/elements/1.1/"
   xmlns:cc="http://creativecommons.org/ns#"
   xmlns:rdf="http://www.w3.org/1999/02/22-rdf-syntax-ns#"
   xmlns:svg="http://www.w3.org/2000/svg"
   xmlns="http://www.w3.org/2000/svg"
   xmlns:sodipodi="http://sodipodi.sourceforge.net/DTD/sodipodi-0.dtd"
   xmlns:inkscape="http://www.inkscape.org/namespaces/inkscape"
   viewBox="0 -410 2048 2048"
   id="svg2"
   version="1.1"
   inkscape:version="0.48.2 r9819"
   width="100%"
   height="100%"
   sodipodi:docname="wp.svg">
  <metadata
     id="metadata12">
    <rdf:RDF>
      <cc:Work
         rdf:about="">
        <dc:format>image/svg+xml</dc:format>
        <dc:type
           rdf:resource="http://purl.org/dc/dcmitype/StillImage" />
      </cc:Work>
    </rdf:RDF>
  </metadata>
  <defs
     id="defs10" />
  <sodipodi:namedview
     pagecolor="#ffffff"
     bordercolor="#666666"
     borderopacity="1"
     objecttolerance="10"
     gridtolerance="10"
     guidetolerance="10"
     inkscape:pageopacity="0"
     inkscape:pageshadow="2"
     inkscape:window-width="640"
     inkscape:window-height="833"
     id="namedview8"
     showgrid="false"
     inkscape:zoom="0.11523438"
     inkscape:cx="1024"
     inkscape:cy="1024"
     inkscape:window-x="0"
     inkscape:window-y="0"
     inkscape:window-maximized="0"
     inkscape:current-layer="svg2" />
  <g
     transform="matrix(1 0 0 -1 0 1638)"
     id="g4">
    <path
       fill="#000000"
       d="M445 407q-104 0 -104 -103v-1q0 -103 104 -103h1158q103 0 103 103v1q0 103 -103 103h-1158zM1223 1093h-405q-20 -212 -74 -376.5t-126 -238.5h815q-77 75 -136.5 239.5t-73.5 375.5zM615 1292q-67 0 -67 -67v0q0 -68 67 -68h817q68 0 68 68v0q0 67 -68 67h-817z M1298 1093q7 -258 90 -436.5t192 -178.5h26q70 0 120.5 -50.5t50.5 -120.5v0q0 -71 -50.5 -121t-120.5 -50h-1164q-72 0 -122 50t-50 121v0q0 70 50 120.5t122 50.5h29q106 0 189.5 178.5t93.5 436.5h-142q-57 0 -96.5 39t-39.5 96v0q0 56 39.5 96t96.5 40h215 q-114 92 -114 239q0 128 91 219.5t220 91.5q128 0 219 -91.5t91 -219.5q0 -146 -112 -239h214q55 0 95 -40t40 -96v0q0 -57 -40 -96t-95 -39h-138zM1024 1842q-99 0 -169 -70t-70 -169t70 -169t169 -70q98 0 168.5 70t70.5 169t-70.5 169t-168.5 70z"
       id="path6" />
  </g>
  <path
     style="fill:#f9f9f9;fill-opacity:1;fill-rule:nonzero;stroke-linecap:butt;stroke-linejoin:round"
     d="m 372.48501,1816.098 c -21.30065,-21.3006 -25.36637,-32.3503 -25.36637,-68.9398 0,-54.0507 23.81437,-85.3209 73.76272,-96.8563 44.95073,-10.3813 1160.67644,-10.5332 1205.37784,-0.1642 53.9307,12.51 70.2832,35.0463 70.2832,96.8615 0,46.8496 -2.6528,54.86 -24.3483,73.5217 l -24.3484,20.9435 -624.9972,0 -624.99713,0 -25.36636,-25.3664 z"
     id="path2989"
     inkscape:connector-curvature="0"
     transform="translate(0,-410)" />
  <path
     style="fill:#f9f9f9;fill-opacity:1;fill-rule:nonzero;stroke-linecap:butt;stroke-linejoin:round"
     d="m 660.52532,1523.2653 c 61.00875,-88.6731 123.08537,-279.8884 146.02457,-449.8009 5.7993,-42.9559 12.26394,-86.88813 14.36587,-97.62711 l 3.82168,-19.52543 195.36126,0 c 148.8719,0 196.0893,2.58133 198.4209,10.84746 1.6827,5.9661 7.5423,50.28708 13.0211,98.49108 20.2926,178.5383 84.8853,359.3325 170.988,478.5937 l 14.0967,19.5254 -391.9838,0 -391.98387,0 27.86759,-40.5042 z"
     id="path2991"
     inkscape:connector-curvature="0"
     transform="translate(0,-410)" />
  <path
     style="fill:#f9f9f9;fill-opacity:1;fill-rule:nonzero;stroke-linecap:butt;stroke-linejoin:round"
     d="m 572.74576,869.5322 c -17.49434,-17.49433 -23.3196,-63.96576 -10.53796,-84.06726 16.49375,-25.93947 61.00903,-28.7463 455.906,-28.7463 391.4937,0 451.7394,3.61606 467.2449,28.04484 13.1617,20.73622 7.6447,67.01958 -10.1045,84.76872 -16.8931,16.89311 -28.9265,17.35594 -451.2542,17.35594 -422.32768,0 -434.36113,-0.46283 -451.25424,-17.35594 z"
     id="path2993"
     inkscape:connector-curvature="0"
     transform="translate(0,-410)" />
  <path
     style="fill:#f9f9f9;fill-opacity:1;fill-rule:nonzero;stroke-linecap:butt;stroke-linejoin:round"
     d="M 932.69953,658.15739 C 881.21055,634.18051 839.67352,594.86953 813.42528,545.27525 788.25527,497.71821 786.62393,393.98644 810.33626,348.85424 851.88795,269.76798 943.85076,210.00678 1024,210.00678 c 80.1492,0 172.112,59.7612 213.6637,138.84746 23.5067,44.74075 22.0877,148.96917 -2.6583,195.25423 -61.7974,115.58629 -192.84,165.02388 -302.30587,114.04892 z"
     id="path2995"
     inkscape:connector-curvature="0"
     transform="translate(0,-410)" />
</svg>
