<?xml version="1.0" encoding="UTF-8" standalone="no"?>
<svg
   xmlns:dc="http://purl.org/dc/elements/1.1/"
   xmlns:cc="http://creativecommons.org/ns#"
   xmlns:rdf="http://www.w3.org/1999/02/22-rdf-syntax-ns#"
   xmlns:svg="http://www.w3.org/2000/svg"
   xmlns="http://www.w3.org/2000/svg"
   xmlns:sodipodi="http://sodipodi.sourceforge.net/DTD/sodipodi-0.dtd"
   xmlns:inkscape="http://www.inkscape.org/namespaces/inkscape"
   viewBox="0 -410 2048 2048"
   id="svg2"
   version="1.1"
   inkscape:version="0.48.2 r9819"
   width="100%"
   height="100%"
   sodipodi:docname="wq.svg">
  <metadata
     id="metadata12">
    <rdf:RDF>
      <cc:Work
         rdf:about="">
        <dc:format>image/svg+xml</dc:format>
        <dc:type
           rdf:resource="http://purl.org/dc/dcmitype/StillImage" />
      </cc:Work>
    </rdf:RDF>
  </metadata>
  <defs
     id="defs10" />
  <sodipodi:namedview
     pagecolor="#ffffff"
     bordercolor="#666666"
     borderopacity="1"
     objecttolerance="10"
     gridtolerance="10"
     guidetolerance="10"
     inkscape:pageopacity="0"
     inkscape:pageshadow="2"
     inkscape:window-width="640"
     inkscape:window-height="810"
     id="namedview8"
     showgrid="false"
     inkscape:zoom="0.11523438"
     inkscape:cx="1024"
     inkscape:cy="1024"
     inkscape:window-x="0"
     inkscape:window-y="0"
     inkscape:window-maximized="0"
     inkscape:current-layer="svg2" />
  <g
     transform="matrix(1 0 0 -1 0 1638)"
     id="g4">
    <path
       fill="#000000"
       d="M1024 1742q-79 0 -79 -78q0 -79 79 -79q78 0 78 79q0 78 -78 78zM1252 1309q-6 86 -72 145.5t-156 59.5q-91 0 -154.5 -59.5t-56.5 -145.5q85 -2 130.5 33.5t80.5 92.5q33 -59 93 -95.5t135 -30.5zM1140 1568q82 -33 134 -101t53 -153q46 15 78 47t62 74 q34 -132 150 -132q54 0 114 34t96 91l-391 -749q53 -4 94 -42.5t41 -93.5v0q0 -31 -18 -65h53q70 0 120.5 -50.5t50.5 -120.5v0q0 -71 -50.5 -121t-120.5 -50h-1164q-72 0 -122 50t-50 121v0q0 70 50 120.5t122 50.5h49q-15 20 -15 65v0q0 55 41 93.5t95 41.5l-391 750 q85 -125 207 -125q118 0 153 131q53 -84 144 -119q-2 84 49 152t133 101q-33 44 -33 96q0 62 43.5 106t106.5 44q62 0 106 -44t44 -106q0 -53 -34 -96zM618 987l135 68l138 -68l-138 -68zM1156 987l135 68l139 -68l-139 -68zM889 912l135 68l138 -68l-138 -68zM889 1076 l135 68l138 -68l-138 -68zM445 407q-104 0 -104 -103v-1q0 -103 104 -103h1158q103 0 103 103v1q0 103 -103 103h-1158zM1365 678l306 575q-35 -17 -73 -18q-73 -5 -130 86q-24 -39 -99 -68t-148 -18q-63 8 -115 27t-82 58q-70 -87 -198 -85q-185 0 -243 93 q-50 -82 -133 -93q-27 -5 -73 18l306 -575h682zM615 614q-67 0 -67 -68v0q0 -68 67 -68h817q68 0 68 68v0q0 68 -68 68h-817z"
       id="path6" />
  </g>
  <path
     style="fill:#f9f9f9;fill-opacity:1;fill-rule:nonzero;stroke-linecap:butt;stroke-linejoin:round"
     d="m 401.46511,1835.3705 c -46.46743,-13.6131 -68.52369,-82.1856 -45.7237,-142.1541 18.27088,-48.0561 15.73574,-47.874 666.68489,-47.874 415.1072,0 606.1948,2.9392 625.356,9.6188 45.8128,15.9704 65.139,74.7449 44.2661,134.621 -18.5238,53.1376 9.7252,50.8727 -655.0315,52.5166 -362.25476,0.8958 -618.79793,-1.8201 -635.55179,-6.7283 z"
     id="path2989"
     inkscape:connector-curvature="0"
     transform="translate(0,-410)" />
  <path
     style="fill:#f9f9f9;fill-opacity:1;fill-rule:nonzero;stroke-linecap:butt;stroke-linejoin:round"
     d="m 590.10169,1561.2183 c -34.05498,-12.1709 -46.60181,-69.8575 -22.39445,-102.9631 11.91502,-16.2947 26.82132,-16.845 456.29276,-16.845 429.4714,0 444.3777,0.5503 456.2928,16.845 13.0703,17.8748 16.3304,63.5265 5.676,79.483 -18.5949,27.8484 -45.1799,29.501 -463.5678,28.8174 -230.60529,-0.3768 -425.13998,-2.7786 -432.29931,-5.3373 z"
     id="path2991"
     inkscape:connector-curvature="0"
     transform="translate(0,-410)" />
  <path
     style="fill:#f9f9f9;fill-opacity:1;fill-rule:nonzero;stroke-linecap:butt;stroke-linejoin:round"
     d="M 540.99362,1092.7708 C 460.61323,941.58865 393.61184,814.87161 392.10163,811.17739 c -1.51021,-3.69422 8.96495,-3.35816 23.27812,0.7468 39.93119,11.45212 93.72973,-6.29004 133.3459,-43.97599 l 34.69545,-33.005 32.47775,26.09983 c 41.61082,33.43937 107.93676,51.1574 195.49098,52.22264 84.58087,1.02906 129.31101,-10.19903 176.33566,-44.26352 l 35.82411,-25.95085 31.1292,21.12483 c 48.3026,32.77906 121.0583,51.23876 203.6263,51.66443 62.8776,0.32412 81.4115,-3.17346 125.5951,-23.70161 28.5079,-13.24504 58.8718,-30.45242 67.4755,-38.23864 14.6429,-13.25167 17.7759,-12.07397 49.0053,18.42071 37.5224,36.63966 80.9922,50.25388 127.1902,39.83454 16.954,-3.82375 29.6455,-4.09682 28.2034,-0.60683 -1.4421,3.48999 -68.3879,130.03992 -148.7682,281.22207 l -146.1462,274.8767 -336.8602,0 -336.86021,0 -146.14617,-274.8767 z m 552.62278,83.8645 c 38.0771,-19.1447 69.2311,-38.0074 69.2311,-41.917 0,-3.9095 -31.5813,-21.3112 -70.1805,-38.6703 l -70.1805,-31.5621 -68.66696,34.5251 c -37.76685,18.9888 -68.667,36.3868 -68.667,38.6622 0,3.2706 127.58346,71.6315 136.87056,73.3371 1.2992,0.2385 33.5162,-15.2302 71.5933,-34.375 z m -269.017,-78.1016 c 38.07711,-19.1448 69.23111,-36.8582 69.23111,-39.3631 0,-2.5048 -31.66222,-19.8658 -70.3605,-38.5798 l -70.36049,-34.02556 -69.38495,34.88606 c -38.16172,19.1873 -67.03818,37.2328 -64.16993,40.1011 8.27606,8.276 121.69132,71.0148 129.11256,71.4222 3.68561,0.2022 37.8551,-15.2961 75.9322,-34.4409 l 0,0 z m 538.0339,0 c 38.0771,-19.1448 69.2311,-36.8582 69.2311,-39.3631 0,-2.5048 -31.6622,-19.8658 -70.3605,-38.5798 l -70.3605,-34.02556 -69.3849,34.88606 c -38.1617,19.1873 -67.0382,37.2328 -64.17,40.1011 8.2761,8.276 121.6914,71.0148 129.1126,71.4222 3.6856,0.2022 37.8551,-15.2961 75.9322,-34.4409 z m -269.0169,-86.7797 c 38.0771,-19.1448 69.2311,-36.6741 69.2311,-38.954 0,-2.2799 -31.2407,-19.85278 -69.4238,-39.05085 L 1024,898.84359 954.57627,933.74915 c -38.18305,19.19807 -69.42373,36.76727 -69.42373,39.04268 0,3.27058 127.58346,71.63147 136.87056,73.33707 1.2992,0.2386 33.5162,-15.2301 71.5933,-34.3749 z"
     id="path2993"
     inkscape:connector-curvature="0"
     transform="translate(0,-410)" />
  <path
     style="fill:#f9f9f9;fill-opacity:1;fill-rule:nonzero;stroke-linecap:butt;stroke-linejoin:round"
     d="m 815.9194,714.63051 c 0.2828,-28.97307 28.59844,-85.50582 57.14368,-114.08852 110.90807,-111.05365 318.09142,-57.91741 363.58572,93.2487 l 12.1482,40.36524 -32.1273,-0.19058 c -46.9521,-0.27857 -99.8938,-27.69853 -149.7603,-77.5651 l -43.9103,-43.91029 -49.39786,51.40661 c -34.52167,35.92548 -59.85134,54.23078 -84.10971,60.78459 -55.51399,14.99802 -73.79226,12.50103 -73.57213,-10.05065 z"
     id="path2995"
     inkscape:connector-curvature="0"
     transform="translate(0,-410)" />
  <path
     style="fill:#f9f9f9;fill-opacity:1;fill-rule:nonzero;stroke-linecap:butt;stroke-linejoin:round"
     d="m 971.9322,439.10508 c -26.45936,-26.45937 -26.09408,-80.74258 0.72862,-108.27734 22.06582,-22.65161 78.09818,-23.1014 102.71388,-0.82452 13.0046,11.76901 18.049,26.87246 18.049,54.04006 0,49.46847 -22.0004,72.41774 -69.4237,72.41774 -23.1412,0 -40.49718,-5.78532 -52.0678,-17.35594 z"
     id="path2997"
     inkscape:connector-curvature="0"
     transform="translate(0,-410)" />
</svg>
