<?xml version="1.0" encoding="UTF-8" standalone="no"?>
<svg
   xmlns:dc="http://purl.org/dc/elements/1.1/"
   xmlns:cc="http://creativecommons.org/ns#"
   xmlns:rdf="http://www.w3.org/1999/02/22-rdf-syntax-ns#"
   xmlns:svg="http://www.w3.org/2000/svg"
   xmlns="http://www.w3.org/2000/svg"
   xmlns:sodipodi="http://sodipodi.sourceforge.net/DTD/sodipodi-0.dtd"
   xmlns:inkscape="http://www.inkscape.org/namespaces/inkscape"
   viewBox="0 -410 2048 2048"
   id="svg2"
   version="1.1"
   inkscape:version="0.48.2 r9819"
   width="100%"
   height="100%"
   sodipodi:docname="wr.svg">
  <metadata
     id="metadata12">
    <rdf:RDF>
      <cc:Work
         rdf:about="">
        <dc:format>image/svg+xml</dc:format>
        <dc:type
           rdf:resource="http://purl.org/dc/dcmitype/StillImage" />
      </cc:Work>
    </rdf:RDF>
  </metadata>
  <defs
     id="defs10" />
  <sodipodi:namedview
     pagecolor="#ffffff"
     bordercolor="#666666"
     borderopacity="1"
     objecttolerance="10"
     gridtolerance="10"
     guidetolerance="10"
     inkscape:pageopacity="0"
     inkscape:pageshadow="2"
     inkscape:window-width="640"
     inkscape:window-height="833"
     id="namedview8"
     showgrid="false"
     inkscape:zoom="0.11523438"
     inkscape:cx="1024"
     inkscape:cy="1024"
     inkscape:window-x="0"
     inkscape:window-y="0"
     inkscape:window-maximized="0"
     inkscape:current-layer="svg2" />
  <g
     transform="matrix(1 0 0 -1 0 1638)"
     id="g4">
    <path
       fill="#000000"
       d="M445 407q-104 0 -104 -103v-1q0 -103 104 -103h1158q103 0 103 103v1q0 103 -103 103h-1158zM1520 511l86 -33q70 0 120.5 -50.5t50.5 -120.5v0q0 -71 -50.5 -121t-120.5 -50h-1164q-72 0 -122 50t-50 121v0q0 70 50 120.5t122 50.5l90 33q43 232 56 435t27 418v136h-138 v407h273v-200h139v200h270v-200h139v200h273v-407h-138v-69v-67q7 -225 23.5 -423t63.5 -430zM671 1167l47 1v153h-35zM652 935l201 1v156l-188 -1zM635 707h83v152h-71zM615 478h238v153l-225 -1zM1377 1168l-11 153h-36v-153h47zM1399 936l-14 156h-191v-156h205z M1417 707l-15 152h-72v-152h87zM1433 478l-13 153h-226v-153h239zM786 1321v-153h202v153h-202zM1059 1321v-153h203v153h-203zM786 859v-152h202v152h-202zM1059 859v-152h203v152h-203zM921 1092v-156h206v156h-206zM921 631v-153h206v153h-206zM683 1396h682v168h135v278 h-135v-207h-274v207h-135v-207h-273v207h-135v-278h135v-168z"
       id="path6" />
  </g>
  <path
     style="fill:#f9f9f9;fill-opacity:1;fill-rule:nonzero;stroke-linecap:butt;stroke-linejoin:round"
     d="m 372.48501,1816.098 c -21.30065,-21.3006 -25.36637,-32.3503 -25.36637,-68.9398 0,-54.0507 23.81437,-85.3209 73.76272,-96.8563 44.95073,-10.3813 1160.67644,-10.5332 1205.37784,-0.1642 53.9307,12.51 70.2832,35.0463 70.2832,96.8615 0,46.8496 -2.6528,54.86 -24.3483,73.5217 l -24.3484,20.9435 -624.9972,0 -624.99713,0 -25.36636,-25.3664 z"
     id="path2989"
     inkscape:connector-curvature="0"
     transform="translate(0,-410)" />
  <path
     style="fill:#f9f9f9;fill-opacity:1;fill-rule:nonzero;stroke-linecap:butt;stroke-linejoin:round"
     d="m 622.49252,1531.2271 c 1.57952,-17.8983 4.93973,-49.139 7.46715,-69.4237 l 4.5953,-36.8814 107.94286,0 107.94285,0 0,69.4238 0,69.4237 -115.41,0 -115.41,0 2.87184,-32.5424 z"
     id="path2991"
     inkscape:connector-curvature="0"
     transform="translate(0,-410)" />
  <path
     style="fill:#f9f9f9;fill-opacity:1;fill-rule:nonzero;stroke-linecap:butt;stroke-linejoin:round"
     d="m 928.54237,1494.3458 0,-69.4238 95.45763,0 95.4576,0 0,69.4238 0,69.4237 -95.4576,0 -95.45763,0 0,-69.4237 z"
     id="path2993"
     inkscape:connector-curvature="0"
     transform="translate(0,-410)" />
  <path
     style="fill:#f9f9f9;fill-opacity:1;fill-rule:nonzero;stroke-linecap:butt;stroke-linejoin:round"
     d="m 1197.5593,1494.3458 0,-69.4238 107.9429,0 107.9428,0 4.5953,36.8814 c 2.5274,20.2847 5.8877,51.5254 7.4672,69.4237 l 2.8718,32.5424 -115.41,0 -115.41,0 0,-69.4237 z"
     id="path2995"
     inkscape:connector-curvature="0"
     transform="translate(0,-410)" />
  <path
     style="fill:#f9f9f9;fill-opacity:1;fill-rule:nonzero;stroke-linecap:butt;stroke-linejoin:round"
     d="m 1336.4068,1264.3797 0,-73.7628 29.8411,0 c 32.7143,0 30.3522,-6.1196 42.7067,110.6441 l 3.9023,36.8814 -38.225,0 -38.2251,0 0,-73.7627 z"
     id="path2997"
     inkscape:connector-curvature="0"
     transform="translate(0,-410)" />
  <path
     style="fill:#f9f9f9;fill-opacity:1;fill-rule:nonzero;stroke-linecap:butt;stroke-linejoin:round"
     d="m 1067.3898,1264.3797 0,-73.7628 95.4577,0 95.4576,0 0,73.7628 0,73.7627 -95.4576,0 -95.4577,0 0,-73.7627 z"
     id="path2999"
     inkscape:connector-curvature="0"
     transform="translate(0,-410)" />
  <path
     style="fill:#f9f9f9;fill-opacity:1;fill-rule:nonzero;stroke-linecap:butt;stroke-linejoin:round"
     d="m 789.69492,1264.3797 0,-73.7628 95.45762,0 95.45763,0 0,73.7628 0,73.7627 -95.45763,0 -95.45762,0 0,-73.7627 z"
     id="path3001"
     inkscape:connector-curvature="0"
     transform="translate(0,-410)" />
  <path
     style="fill:#f9f9f9;fill-opacity:1;fill-rule:nonzero;stroke-linecap:butt;stroke-linejoin:round"
     d="m 642.24492,1309.939 c 0.0415,-15.5119 2.53797,-48.7051 5.54775,-73.7627 5.38558,-44.8373 5.93453,-45.5594 34.63643,-45.5594 l 29.16412,0 0,73.7628 0,73.7627 -34.71186,0 c -33.39227,0 -34.709,-1.0722 -34.63644,-28.2034 z"
     id="path3003"
     inkscape:connector-curvature="0"
     transform="translate(0,-410)" />
  <path
     style="fill:#f9f9f9;fill-opacity:1;fill-rule:nonzero;stroke-linecap:butt;stroke-linejoin:round"
     d="m 662.96984,1041.2921 c 3.26689,-39.1728 6.75716,-71.82486 7.75616,-72.56023 0.99901,-0.73536 41.84349,-3.66733 90.76553,-6.51548 l 88.94915,-5.17845 0,72.12626 0,72.1263 -66.39406,5.6124 c -36.51673,3.0868 -80.03412,5.6124 -96.70531,5.6124 l -30.31125,0 5.93978,-71.2232 z"
     id="path3005"
     inkscape:connector-curvature="0"
     transform="translate(0,-410)" />
  <path
     style="fill:#f9f9f9;fill-opacity:1;fill-rule:nonzero;stroke-linecap:butt;stroke-linejoin:round"
     d="m 928.54237,1030.0746 0,-73.76274 95.45763,0 95.4576,0 0,73.76274 0,73.7627 -95.4576,0 -95.45763,0 0,-73.7627 z"
     id="path3007"
     inkscape:connector-curvature="0"
     transform="translate(0,-410)" />
  <path
     style="fill:#f9f9f9;fill-opacity:1;fill-rule:nonzero;stroke-linecap:butt;stroke-linejoin:round"
     d="m 1197.5593,1030.0746 0,-73.76274 91.1187,0 c 66.8234,0 91.2617,2.89229 91.6551,10.84746 0.2951,5.9661 3.375,39.15928 6.8444,73.76268 l 6.3078,62.9153 -97.963,0 -97.963,0 0,-73.7627 z"
     id="path3009"
     inkscape:connector-curvature="0"
     transform="translate(0,-410)" />
  <path
     style="fill:#f9f9f9;fill-opacity:1;fill-rule:nonzero;stroke-linecap:butt;stroke-linejoin:round"
     d="m 1336.4068,804.44746 c 0,-56.34136 2.7824,-73.76271 11.7807,-73.76271 8.0399,0 13.5511,16.93769 17.3559,53.34077 8.8918,85.07196 7.752,94.18465 -11.7807,94.18465 -15.9947,0 -17.3559,-5.78531 -17.3559,-73.76271 z"
     id="path3011"
     inkscape:connector-curvature="0"
     transform="translate(0,-410)" />
  <path
     style="fill:#f9f9f9;fill-opacity:1;fill-rule:nonzero;stroke-linecap:butt;stroke-linejoin:round"
     d="m 1067.3898,804.44746 0,-73.76271 95.4577,0 95.4576,0 0,73.76271 0,73.76271 -95.4576,0 -95.4577,0 0,-73.76271 z"
     id="path3013"
     inkscape:connector-curvature="0"
     transform="translate(0,-410)" />
  <path
     style="fill:#f9f9f9;fill-opacity:1;fill-rule:nonzero;stroke-linecap:butt;stroke-linejoin:round"
     d="m 789.69492,804.44746 0,-73.76271 95.45762,0 95.45763,0 0,73.76271 0,73.76271 -95.45763,0 -95.45762,0 0,-73.76271 z"
     id="path3015"
     inkscape:connector-curvature="0"
     transform="translate(0,-410)" />
  <path
     style="fill:#f9f9f9;fill-opacity:1;fill-rule:nonzero;stroke-linecap:butt;stroke-linejoin:round"
     d="m 679.98411,824.86939 c 3.06637,-29.33743 5.57521,-62.53065 5.57521,-73.76271 0,-12.36752 5.13389,-20.42193 13.01695,-20.42193 10.54969,0 13.01695,13.98116 13.01695,73.76271 0,69.61228 -1.04613,73.76271 -18.59216,73.76271 -17.59243,0 -18.29238,-2.86823 -13.01695,-53.34078 z"
     id="path3017"
     inkscape:connector-curvature="0"
     transform="translate(0,-410)" />
  <path
     style="fill:#f9f9f9;fill-opacity:1;fill-rule:nonzero;stroke-linecap:butt;stroke-linejoin:round"
     d="m 685.55932,561.46441 0,-82.44068 -65.08474,0 -65.08475,0 0,-134.50848 0,-134.50847 60.74576,0 60.74577,0 0,104.13559 0,104.1356 143.18644,0 143.18644,0 0,-104.1356 0,-104.13559 60.74576,0 60.7458,0 0,104.13559 0,104.1356 143.1864,0 143.1864,0 0,-104.1356 0,-104.13559 60.7458,0 60.7458,0 0,134.50847 0,134.50848 -65.0848,0 -65.0847,0 0,82.44068 0,82.44067 -338.4407,0 -338.44068,0 0,-82.44067 z"
     id="path3019"
     inkscape:connector-curvature="0"
     transform="translate(0,-410)" />
</svg>
