<?xml version="1.0" encoding="UTF-8"?>
<svg width="144pt" height="144pt" version="1.1" viewBox="0 0 50.8 50.8" xmlns="http://www.w3.org/2000/svg">
	<g transform="translate(0,-246.2)">
		<g transform="translate(.029875 .12546)" aria-label="v">
			<path d="m28.64 289.99q-0.39688-0.24805-1.1162-1.0418-0.12402-0.12402-0.24805-0.22324-0.12402-0.12402-0.24805-0.27285-0.19844-0.12402-0.39687-0.12402-1.2898 0-0.96738 0.96738 0.14883 0.22324 0.12402 0.19844 0.17363 0.17363 1.1906 1.1162 0.47129 0.44648 0.89297 0.64492 0.22324 0.14883 0.44648 0.14883 0.74414 0 0.74414-0.74414 0-0.29766-0.42168-0.66973zm1.8852-12.626-0.44648-1.7115q-1.9596-0.5457-4.6881-0.5457-2.5053 0-4.4896 0.49609l-0.49609 1.7115q2.158-0.5705 4.9857-0.5705 3.0262 0 5.1346 0.62011zm-2.7037 2.7037-2.4061 0.99219-2.3812-0.99219 2.3812-0.99218zm2.8029-1.2898q-2.1084-0.57051-5.1594-0.57051-2.8525 0-5.0354 0.5209l-0.34727 0.96738 2.1084 0.47129-2.1828 1.3891-0.47129-0.0992-0.59531 1.7859q0.5209-0.5457 2.3564-0.91777t4.2416-0.37207q2.3564 0 4.1672 0.37207 1.8355 0.37207 2.3812 0.89297l-0.62012-1.7859-0.62012 0.12403-2.1828-1.3891 2.2324-0.47129zm-0.81856-12.973v-2.7781h-2.9766v-3.8695h-2.7533v3.8695h-3.0262v2.7781h3.0262v5.5314h2.7533v-5.5314zm-7.7143 24.185q-0.27285 0.27285-0.27285 0.62012 0 0.74414 0.74414 0.74414 0.22324 0 0.39688-0.12403 0.42168-0.22324 0.81855-0.62011 0.89297-0.84336 1.2402-1.141 0.04961-0.0496 0.04961-0.17363 0-0.96738-0.96738-0.96738-0.17363 0-0.32246 0.14882-0.22324 0.22325-0.5457 0.47129-0.29766 0.22325-0.5457 0.5209-0.22324 0.27285-0.59531 0.5209zm12.626-22.622q0.34726-1.3395-0.76895-4.9858t-3.4727-6.102q-0.29766-0.22324-0.62012-0.19844-0.42168 0.0248-0.79375 0.34727-0.37207 0.32246-0.09922 0.76894 2.9021 1.91 4.3408 5.3082 1.4387 3.3734 1.4139 4.8617zm-9.3266 23.54q-1.8355 2.6541-4.9609 2.6541-0.32246 0-0.64492-0.0248-0.29766-0.0496-0.59531-0.0744-0.71934-0.0248-2.1084-0.24805-1.3891-0.24805-3.1006-1.1162-1.5131-1.3146-3.8447-1.3146-1.7859 0-3.1006 0.84336-0.37207 0.17363-0.91777 0.71934-0.99219 1.0666-1.6123 1.1658-0.49609-0.24805-0.5209-0.84336-0.12402-1.1658 1.7115-3.0014-0.32246 0.0496-1.2154 0.29766-0.74414 0.22324-0.99219 0.22324-0.81855 0.12402-0.86816 0.0248-0.27285-0.27285 0.19844-1.1162 0.39688-0.71933 1.5379-1.265 0.14883-0.0744 0.94258-0.42168 2.3068-1.2154 4.8369-1.2154 3.6959 0 6.6725 2.5053 1.1906 0.39687 2.4061 0.39687 3.7207 0 3.8447-3.0758-2.4061-0.22324-4.0184-0.81855-1.5875-0.59532-1.5875-1.3891l1.9844-6.598q-1.7363-2.7285-2.8773-5.5562-1.141-2.8277-1.141-5.3578 0-7.5902 8.2352-11.658 0-0.32246 0.07441-0.96738-0.84336-0.69453-0.84336-1.7611 0-2.282 2.3068-2.282 2.282 0 2.282 2.282 0 0.99218-0.71934 1.6619 0 0.76894 0.19844 1.0418 0.42168 0.59531 1.1162 0.62011 0.71934-0.0248 1.1906-0.64492 0.09922-0.14883 0.19844-0.91777-0.64492-0.66973-0.64492-1.6619 0-2.3316 2.3316-2.3316 2.3316 0 2.3316 2.3316 0 1.3146-1.141 2.034-0.09922 0.49609-0.04961 0.79375 4.192 4.9609 3.6463 11.46-0.17363 1.8604-0.57051 3.6711-0.39688 1.7859-1.3891 3.3734-0.37207 0.84336-1.1658 1.91-0.76895 1.0418-1.3395 1.9596l1.9596 6.598q-0.02481 0.79375-1.6371 1.3891-1.6123 0.59531-4.068 0.81855 0.12402 3.0758 3.8695 3.0758 1.2154 0 2.4061-0.39687 2.9518-2.5053 6.6725-2.5053 2.5301 0 4.8121 1.2154 0.29766 0.14883 0.5209 0.24805 0.22324 0.0992 0.44648 0.17363 1.1162 0.57051 1.5379 1.265 0.07441 0.22324 0.22324 0.57051 0.14883 0.34726-0.0248 0.5457-0.07441 0.0992-0.86816-0.0248-0.24805 0-0.99219-0.22324-0.91777-0.24805-1.2402-0.29766 1.8355 1.8604 1.7363 3.0014-0.04961 0.5705-0.5457 0.84336-0.62012-0.0992-1.6123-1.1658-0.49609-0.4961-0.89297-0.71934-1.3891-0.84336-3.1006-0.84336-2.3812 0-3.8695 1.3146-1.7115 0.86816-3.1006 1.1162-1.3891 0.22324-2.0836 0.24805-0.29766 0.0248-0.62012 0.0744-0.32246 0.0248-0.62012 0.0248-3.1998 0-4.9857-2.6541z" stroke-width=".26458"/>
		</g>
		<g fill="#fff" stroke-width=".2">
			<path transform="matrix(.26458 0 0 .26458 0 246.2)" d="m91.114 85.029v-10.458h-11.429v-10.469h11.429v-14.643h10.402v14.643h11.25v10.469h-11.25v20.915h-10.402z"/>
			<path transform="matrix(.26458 0 0 .26458 0 246.2)" d="m131.33 80.084c0-1.8152-0.5377-4.5732-1.518-7.7862-0.90573-2.9687-2.4769-7.1213-4.0932-10.819-2.8822-6.593-6.9766-12.145-12.146-16.471-1.1039-0.92376-2.5276-1.9904-3.6763-2.7543l-0.32813-0.21821-0.13409-0.27068c-0.42379-0.85545-0.37048-1.5697 0.16733-2.2419 0.36337-0.45416 1.1407-1.0108 1.8284-1.3093 0.62896-0.27302 1.207-0.38436 1.8832-0.36268 0.51038 0.01636 0.84648 0.103 1.3199 0.34026 0.42182 0.21139 0.60416 0.34868 0.9503 0.71555 4.6312 4.9085 8.274 10.714 10.987 17.509 0.93043 2.3305 1.7033 4.6568 2.6251 7.9018 1.3094 4.6091 2.1046 8.4669 2.3445 11.373 0.0665 0.80571 0.0855 1.3759 0.0726 2.1763-0.0125 0.77527-0.0247 0.97316-0.0953 1.5402-0.0335 0.26915-0.1596 0.96124-0.17857 0.98028-5e-3 0.0051-9e-3 -0.13144-9e-3 -0.30346z"/>
			<path transform="matrix(.26458 0 0 .26458 0 246.2)" d="m115.33 118.22c-3.791-1.1083-8.3674-1.8349-13.436-2.1334-3.5946-0.21168-7.6395-0.21879-11.171-0.0196-0.11502 6e-3 -0.27128 0.0153-0.34724 0.0195-0.07596 4e-3 -0.1896 0.0112-0.25254 0.0155-0.06294 4e-3 -0.17303 0.0115-0.24465 0.0161-0.19356 0.0125-0.88938 0.0619-0.99832 0.0709-0.05209 4e-3 -0.18526 0.0151-0.29594 0.0239-3.9161 0.31155-7.7199 0.92638-11.032 1.7832-0.16691 0.0432-0.30443 0.0775-0.30559 0.0764-0.0021-2e-3 1.8673-6.4559 1.8703-6.4568 0.04608-0.0141 0.83426-0.20124 1.1322-0.26877 3.5073-0.79512 7.3219-1.2946 11.445-1.4987 2.6975-0.13351 5.6554-0.14045 8.4877-0.0199 0.32295 0.0138 0.87051 0.0416 1.239 0.0631 4.5874 0.26729 8.6948 0.89755 12.269 1.8826l0.10729 0.0296 0.84198 3.2276c0.46308 1.7752 0.84097 3.2285 0.83973 3.2296-1e-3 1e-3 -0.0679-0.0173-0.14824-0.0407z"/>
			<path transform="matrix(.26458 0 0 .26458 0 246.2)" d="m71.726 140.45c0-0.0155 2.2227-6.6821 2.2309-6.6913 0.0041-5e-3 0.39748 0.0739 0.87422 0.17437 0.47674 0.10043 0.87694 0.18345 0.88934 0.18448 0.02563 2e-3 8.2726-5.2412 8.2605-5.2519-0.0042-4e-3 -1.795-0.40593-3.9796-0.89377-2.1846-0.48784-3.9733-0.888-3.9749-0.88925-0.0016-1e-3 0.2916-0.82277 0.65158-1.8256l0.65452-1.8234 0.17706-0.041c1.7178-0.39786 3.2216-0.68739 4.9611-0.95511 4.7763-0.73511 10.26-1.0601 16.048-0.95096 6.0015 0.11316 11.139 0.67354 15.601 1.7016 0.7008 0.16149 1.7226 0.42229 1.7354 0.44291 0.01 0.016 1.0289 3.4475 1.0248 3.4509-2e-3 2e-3 -1.8954 0.402-4.2075 0.88974-2.3122 0.48774-4.2077 0.89015-4.2122 0.89425-5e-3 4e-3 1.848 1.1887 4.1167 2.6324l4.125 2.625 2.3419-0.46846 1.1568 3.3319c0.63625 1.8325 1.1598 3.3443 1.1634 3.3595 6e-3 0.0243 1.7e-4 0.0215-0.0474-0.0235-0.12796-0.12122-0.38165-0.32087-0.5898-0.46416-1.475-1.0154-3.9832-1.9036-7.5627-2.678-0.42183-0.0913-1.3956-0.28787-1.7733-0.35806-3.8538-0.71612-8.0656-1.1066-12.877-1.194-1.2514-0.0227-3.5084-0.0123-4.7895 0.022-5.5016 0.14754-10.294 0.69993-14.534 1.6754-3.6619 0.84233-6.1413 1.8626-7.3498 3.0244-0.06243 0.06-0.11351 0.10476-0.11351 0.0994zm29.005-10.081c2.4959-1.0293 4.5343-1.875 4.5299-1.8794-0.0112-0.0112-9.064-3.7444-9.0844-3.7463-0.01906-2e-3 -9.0042 3.7393-9.0044 3.7491-2.32e-4 0.0107 8.9865 3.7544 9.0044 3.7511 0.0091-2e-3 2.0586-0.84522 4.5545-1.8745z"/>
			<path transform="matrix(.26458 0 0 .26458 0 246.2)" d="m85.295 171.14c-1.3024-0.0216-2.1421-0.51967-2.504-1.4853-0.13933-0.37182-0.20672-0.79192-0.20774-1.2952-4.13e-4 -0.20193 0.0047-0.28754 0.02733-0.4569 0.0768-0.57493 0.31933-1.1137 0.72308-1.6064 0.06405-0.0782 0.07261-0.0879 0.18406-0.20835 0.07932-0.0857 0.09136-0.0964 0.16897-0.14881 0.82142-0.55517 1.5002-1.1391 2.0283-1.7448 0.03046-0.0349 0.09493-0.11076 0.14325-0.16849 0.26288-0.31403 0.46182-0.53273 0.74306-0.81684 0.40439-0.40853 0.84682-0.79787 1.2597-1.1085 0.1669-0.1256 0.58015-0.45325 0.78721-0.62416 0.4741-0.39132 0.88152-0.75637 1.2732-1.1408 0.20063-0.19691 0.27886-0.26308 0.4228-0.35761 0.28502-0.18717 0.55739-0.26936 0.89208-0.26919 0.4453 2.2e-4 0.91066 0.0536 1.2838 0.14717 0.09273 0.0233 0.27422 0.0765 0.31798 0.0933 0.01079 4e-3 0.04448 0.0166 0.07487 0.0277 0.2131 0.078 0.45922 0.20237 0.63529 0.32094 0.29132 0.19618 0.5279 0.43433 0.72354 0.72834 0.33374 0.50155 0.51436 1.1041 0.57294 1.9114 0.0095 0.13104 0.0095 0.58644 5.5e-5 0.65186-0.02447 0.16852-0.06808 0.29228-0.13363 0.37924-0.01523 0.0202-0.05316 0.0587-0.08429 0.0856-0.51325 0.44318-1.1816 1.0459-2.0757 1.8718-0.82785 0.76473-2.3987 2.238-2.6741 2.5079-0.93764 0.91909-1.9282 1.6688-2.8834 2.1822-0.04406 0.0237-0.12112 0.0698-0.17125 0.10246-0.26251 0.17107-0.49932 0.27571-0.78081 0.345-0.23577 0.058-0.46176 0.0812-0.74665 0.0764z"/>
			<path transform="matrix(.26458 0 0 .26458 0 246.2)" d="m106.9 171.32c-0.45019-0.0436-0.8954-0.20415-1.3424-0.48395-0.0588-0.0368-0.17128-0.0981-0.28726-0.15649-0.78279-0.3942-1.5544-0.91966-2.392-1.6289-0.20228-0.1713-0.482-0.42027-0.6712-0.59743-0.0516-0.0484-0.45934-0.42724-0.90598-0.84195-1.9432-1.8043-2.9679-2.7652-3.5784-3.3556-0.10953-0.10593-0.12779-0.12603-0.14186-0.15609-0.0225-0.0481-0.11872-0.20071-0.30584-0.48516-0.08795-0.13368-0.16199-0.24679-0.16454-0.25135-0.0026-5e-3 -0.0145-0.0394-0.02655-0.0773-0.08351-0.2632-0.15082-0.54722-0.18262-0.77064-0.02673-0.18772-0.03029-0.24106-0.03048-0.45575-1.85e-4 -0.21235 0.0026-0.25582 0.0254-0.40051 0.07925-0.50233 0.32461-0.91118 0.73153-1.2189 0.5381-0.40697 1.3538-0.64196 2.4608-0.70892 0.30288-0.0183 0.68828-0.0246 0.83692-0.0137 0.42892 0.0315 0.84722 0.17035 1.2649 0.41992 0.0631 0.0377 0.0764 0.0483 0.10785 0.0862 0.21151 0.25474 0.47967 0.55297 0.75045 0.83459 0.10363 0.10778 0.15763 0.15883 0.23528 0.22244 0.41161 0.33714 0.73124 0.64033 1.092 1.0358 0.7131 0.78172 1.4322 1.5207 2.0352 2.0914 0.75683 0.7163 1.3734 1.2204 1.9196 1.5695 0.0659 0.0421 0.40863 0.36622 0.58084 0.54928 0.38489 0.40913 0.62263 0.73391 0.80016 1.0931 0.12749 0.25795 0.19168 0.45991 0.22475 0.70711 0.0174 0.1299 0.0116 0.44742-0.0124 0.68501-0.0611 0.60327-0.23794 1.0844-0.53618 1.4584-0.0655 0.0821-0.22112 0.23692-0.30697 0.30532-0.2488 0.19822-0.56201 0.34893-0.90762 0.43674-0.23741 0.0603-0.47532 0.0956-0.75053 0.11132-0.13818 8e-3 -0.42562 6e-3 -0.52282-3e-3z"/>
		</g>
	</g>
</svg>
