<?xml version="1.0" encoding="UTF-8" standalone="no"?>
<svg
   xmlns:dc="http://purl.org/dc/elements/1.1/"
   xmlns:cc="http://creativecommons.org/ns#"
   xmlns:rdf="http://www.w3.org/1999/02/22-rdf-syntax-ns#"
   xmlns:svg="http://www.w3.org/2000/svg"
   xmlns="http://www.w3.org/2000/svg"
   xmlns:sodipodi="http://sodipodi.sourceforge.net/DTD/sodipodi-0.dtd"
   xmlns:inkscape="http://www.inkscape.org/namespaces/inkscape"
   viewBox="0 -410 2048 2048"
   id="svg2"
   version="1.1"
   inkscape:version="0.48.2 r9819"
   width="100%"
   height="100%"
   sodipodi:docname="bb.svg">
  <metadata
     id="metadata12">
    <rdf:RDF>
      <cc:Work
         rdf:about="">
        <dc:format>image/svg+xml</dc:format>
        <dc:type
           rdf:resource="http://purl.org/dc/dcmitype/StillImage" />
      </cc:Work>
    </rdf:RDF>
  </metadata>
  <defs
     id="defs10" />
  <sodipodi:namedview
     pagecolor="#ffffff"
     bordercolor="#666666"
     borderopacity="1"
     objecttolerance="10"
     gridtolerance="10"
     guidetolerance="10"
     inkscape:pageopacity="0"
     inkscape:pageshadow="2"
     inkscape:window-width="640"
     inkscape:window-height="819"
     id="namedview8"
     showgrid="false"
     inkscape:zoom="0.11523438"
     inkscape:cx="1024"
     inkscape:cy="1024"
     inkscape:window-x="0"
     inkscape:window-y="0"
     inkscape:window-maximized="0"
     inkscape:current-layer="svg2" />
  <g
     transform="matrix(1 0 0 -1 0 1638)"
     id="g4">
    <path
       fill="#000000"
       d="M1156 279q-16 10 -45 42q-5 5 -10 9.5t-10 10.5q-8 5 -16 5q-52 0 -39 -39q6 -9 5 -8q7 -7 48 -45q19 -18 36 -26q9 -6 18 -6q30 0 30 30q0 12 -17 27zM1232 788l-18 69q-79 22 -189 22q-101 0 -181 -20l-20 -69q87 23 201 23q122 0 207 -25zM1123 679l-97 -40l-96 40 l96 40zM1236 731q-85 23 -208 23q-115 0 -203 -21l-14 -39l85 -19l-88 -56l-19 4l-24 -72q21 22 95 37t171 15q95 0 168.5 -15t95.5 -36l-25 72l-25 -5l-88 56l90 19zM1203 1254v112h-120v156h-111v-156h-122v-112h122v-223h111v223h120zM892 279q-11 -11 -11 -25 q0 -30 30 -30q9 0 16 5q17 9 33 25q36 34 50 46q2 2 2 7q0 39 -39 39q-7 0 -13 -6q-9 -9 -22 -19q-12 -9 -21.5 -20.5t-24.5 -21.5zM1401 1191q14 54 -31 201t-140 246q-12 9 -25 8q-17 -1 -32 -14t-4 -31q117 -77 175 -213.5t57 -196.5zM1025 242q-74 -107 -200 -107 q-13 0 -25.5 1.5t-24.5 2.5q-29 1 -85 10.5t-125 44.5q-61 53 -155 53q-72 0 -125 -34q-15 -7 -37 -29q-40 -43 -65 -47q-20 10 -21 34q-5 47 69 121q-13 -2 -49 -12q-30 -9 -40 -9q-33 -5 -35 -1q-11 11 8 45q16 29 62 51q6 3 38 17q93 49 195 49q149 0 269 -101 q48 -16 97 -16q150 0 155 124q-97 9 -161.5 33t-64.5 56l80 266q-70 110 -116 224t-46 216q0 306 332 470q0 13 3 39q-34 28 -34 71q0 92 93 92q92 0 92 -92q0 -40 -29 -67q0 -31 8 -42q17 -24 45 -25q29 1 48 26q4 6 8 37q-26 27 -26 67q0 94 94 94t94 -94q0 -53 -46 -82 q-4 -20 -2 -32q169 -200 147 -462q-7 -75 -23 -147.5t-56 -136.5q-15 -34 -46.5 -76.5t-54.5 -79.5l79 -266q-1 -32 -66 -56t-164 -33q5 -124 156 -124q49 0 97 16q119 101 269 101q102 0 194 -49q12 -6 21 -10t18 -7q45 -23 62 -51q3 -9 9 -23t-1 -22q-3 -4 -35 1 q-10 0 -40 9q-37 10 -50 12q74 -75 70 -121q-2 -23 -22 -34q-25 4 -65 47q-20 20 -36 29q-56 34 -125 34q-96 0 -156 -53q-69 -35 -125 -44.5t-84 -10.5q-12 -1 -25 -2.5t-25 -1.5q-129 0 -201 107z"
       id="path6" />
  </g>
  <path
     style="fill:#ececec;fill-opacity:1;fill-rule:nonzero;stroke-linecap:butt;stroke-linejoin:round"
     d="m 971.9322,901.64068 0,-108.47458 -60.74576,0 -60.74576,0 0,-52.06779 0,-52.0678 60.74576,0 60.74576,0 0,-78.1017 0,-78.10169 52.0678,0 52.0678,0 0,78.10169 0,78.1017 60.7458,0 60.7457,0 0,52.0678 0,52.06779 -60.7457,0 -60.7458,0 0,108.47458 0,108.47462 -52.0678,0 -52.0678,0 0,-108.47462 z"
     id="path2989"
     inkscape:connector-curvature="0"
     transform="translate(0,-410)" />
  <path
     style="fill:#ececec;fill-opacity:1;fill-rule:nonzero;stroke-linecap:butt;stroke-linejoin:round"
     d="m 1372.0133,722.83031 c -24.241,-81.93201 -78.6243,-170.19401 -141.2921,-229.31164 -61.8628,-58.35817 -70.791,-82.18308 -30.7976,-82.18308 33.5532,0 87.5286,67.38475 133.962,167.24275 23.5516,50.64911 56.8123,160.18886 52.5356,173.01892 -1.7181,5.15451 -8.2017,-7.79062 -14.4079,-28.76695 l 0,0 z"
     id="path2991"
     inkscape:connector-curvature="0"
     transform="translate(0,-410)" />
  <path
     style="fill:#ececec;fill-opacity:1;fill-rule:nonzero;stroke-linecap:butt;stroke-linejoin:round"
     d="m 836.73892,1230.6608 c 8.48851,-34.339 11.85321,-36.7612 65.08943,-46.8572 95.98275,-18.2028 312.89325,-3.731 313.20545,20.8964 0.065,5.1411 2.6236,18.7093 5.6854,30.1516 5.1839,19.3724 3.8321,20.3563 -19.6439,14.2967 -76.5256,-19.7529 -302.44981,-19.4672 -354.103,0.4478 -14.60526,5.6311 -15.77232,3.4716 -10.23338,-18.9353 z"
     id="path2993"
     inkscape:connector-curvature="0"
     transform="translate(0,-410)" />
  <path
     style="fill:#ececec;fill-opacity:1;fill-rule:nonzero;stroke-linecap:butt;stroke-linejoin:round"
     d="m 781.13544,1471.8019 c 0.3722,-19.1395 11.61482,-44.2803 18.02886,-40.3162 4.1229,2.5481 30.03825,-10.001 57.58967,-27.887 l 50.09349,-32.52 -43.38983,-9.9242 c -40.98719,-9.3747 -50.58441,-21.463 -31.92252,-40.2085 10.97056,-11.0197 187.78159,-25.9429 244.53269,-20.6391 112.9131,10.5525 139.5399,15.4693 152.1696,28.0991 18.2273,18.2272 9.9623,25.9682 -34.9103,32.6973 -21.5367,3.2296 -39.1576,8.6255 -39.1576,11.9908 0,10.0316 94.8346,63.6508 103.3113,58.4119 4.2964,-2.6553 12.0307,7.2752 17.1874,22.0677 8.3623,23.9881 7.7501,26.2513 -5.6632,20.9364 -8.2714,-3.2775 -42.3745,-11.8536 -75.7847,-19.0581 -77.5502,-16.7227 -308.53809,-11.0379 -370.98301,9.1302 -22.67119,7.3222 -41.16702,10.571 -41.10185,7.2197 z m 302.86186,-81.183 c 24.7257,-10.2755 41.843,-21.3524 38.0386,-24.6154 -3.8045,-3.2629 -27.2381,-14.4118 -52.0746,-24.7753 l -45.1574,-18.8428 -49.46472,21.8756 c -27.20558,12.0316 -46.58773,24.7539 -43.07145,28.2717 9.47914,9.4834 76.55317,35.7245 92.74457,36.2841 7.716,0.2667 34.2593,-7.9224 58.985,-18.1979 z"
     id="path2995"
     inkscape:connector-curvature="0"
     transform="translate(0,-410)" />
  <path
     style="fill:#ececec;fill-opacity:1;fill-rule:nonzero;stroke-linecap:butt;stroke-linejoin:round"
     d="m 1085.525,1782.2524 c -44.5245,-35.1945 -56.1215,-62.7784 -30.5235,-72.6013 18.449,-7.0795 35.856,3.6319 80.655,49.6312 62.3167,63.9863 23.9802,81.552 -50.1315,22.9701 z"
     id="path2997"
     inkscape:connector-curvature="0"
     transform="translate(0,-410)" />
  <path
     style="fill:#ececec;fill-opacity:1;fill-rule:nonzero;stroke-linecap:butt;stroke-linejoin:round"
     d="m 887.80514,1802.8837 c -3.81346,-9.9377 8.17391,-27.3078 39.40688,-57.102 46.10244,-43.9787 58.34741,-47.3734 74.47308,-20.6468 7.7843,12.9016 2.2729,21.6472 -33.85426,53.7208 -45.31695,40.2323 -70.86407,47.9029 -80.0257,24.028 z"
     id="path2999"
     inkscape:connector-curvature="0"
     transform="translate(0,-410)" />
</svg>
