<?xml version="1.0" encoding="UTF-8" standalone="no"?>
<svg
   xmlns:dc="http://purl.org/dc/elements/1.1/"
   xmlns:cc="http://creativecommons.org/ns#"
   xmlns:rdf="http://www.w3.org/1999/02/22-rdf-syntax-ns#"
   xmlns:svg="http://www.w3.org/2000/svg"
   xmlns="http://www.w3.org/2000/svg"
   xmlns:sodipodi="http://sodipodi.sourceforge.net/DTD/sodipodi-0.dtd"
   xmlns:inkscape="http://www.inkscape.org/namespaces/inkscape"
   viewBox="0 -410 2048 2048"
   id="svg2"
   version="1.1"
   inkscape:version="0.48.2 r9819"
   width="100%"
   height="100%"
   sodipodi:docname="bk.svg">
  <metadata
     id="metadata12">
    <rdf:RDF>
      <cc:Work
         rdf:about="">
        <dc:format>image/svg+xml</dc:format>
        <dc:type
           rdf:resource="http://purl.org/dc/dcmitype/StillImage" />
      </cc:Work>
    </rdf:RDF>
  </metadata>
  <defs
     id="defs10" />
  <sodipodi:namedview
     pagecolor="#ffffff"
     bordercolor="#666666"
     borderopacity="1"
     objecttolerance="10"
     gridtolerance="10"
     guidetolerance="10"
     inkscape:pageopacity="0"
     inkscape:pageshadow="2"
     inkscape:window-width="640"
     inkscape:window-height="866"
     id="namedview8"
     showgrid="false"
     inkscape:zoom="0.11523438"
     inkscape:cx="1024"
     inkscape:cy="1024"
     inkscape:window-x="0"
     inkscape:window-y="0"
     inkscape:window-maximized="0"
     inkscape:current-layer="svg2" />
  <g
     transform="matrix(1 0 0 -1 0 1638)"
     id="g4">
    <path
       fill="#000000"
       d="M1333 574l84 -65l105 36l-83 65zM1580 591q7 -21 7 -40q0 -59 -43 -91q-4 -17 -6 -34q37 -52 37 -84q0 -84 -162 -144t-389 -60q-228 0 -389.5 60t-161.5 144q0 33 39 86q-2 11 -6 31q-44 32 -44 92q0 19 6 39q10 25 -4 39t-32 39q-16 50 -16 69q1 9 3.5 20t2.5 26 q-44 44 -91.5 83.5t-74.5 95.5q-32 66 -58.5 133.5t-26.5 132.5q0 123 65 208t176 133q148 10 125 10q174 0 316 -129v351h341v-352q142 130 318 130q-25 0 125 -10q109 -48 174.5 -133t65.5 -208q0 -65 -26.5 -132t-57.5 -133q-27 -57 -75 -99t-91 -84q-1 -12 1.5 -23 t3.5 -20q1 -14 -16 -69q-18 -25 -31.5 -39t-4.5 -38zM1442 304q-4 22 -14 48q-11 24 -22.5 32.5t-20.5 22.5q-101 64 -359 57q-262 7 -362 -57q-12 -12 -23.5 -21t-19.5 -33q-11 -25 -14 -49q-2 -32 28 -32q29 0 28 31q9 100 359 100q353 0 363 -100q-2 -31 28 -31 q29 0 29 32zM1134 894q13 0 26 -1.5t25 -1.5q-8 91 8 149q6 22 22 24q23 4 33 -25q8 -48 -16 -153q40 -7 59 -7q6 154 47 245q12 24 40 24q34 0 32 -33q2 -2 2 -31q0 -51 -57 -217q29 -10 50 -8q11 29 22.5 61.5t29.5 69.5q8 19 23 19q17 0 21 -33q1 -28 -59 -128 q25 -12 50 -13l22.5 45t22.5 54q22 64 18 122q-8 35 -39 35q-15 0 -37 -24q5 32 5 40q0 42 -20.5 79.5t-69.5 51.5q-36 -2 -75 -44t-52 -99q-11 35 -29 40t-24 5q-12 0 -23 -7q-40 -46 -49 -140q-3 -21 -4 -41t-4 -58zM911 893q-3 37 -4 57t-3 41q-12 96 -49 140 q-10 7 -24 7q-6 0 -24.5 -5t-27.5 -39q-14 57 -52.5 99t-74.5 44q-50 -15 -70 -52.5t-20 -79.5q0 -19 5 -40q-24 25 -37 25q-32 0 -39 -36q-5 -62 18 -121q11 -33 21.5 -54.5t23.5 -45.5q24 1 50 13q-61 99 -59 128q1 33 20 33q15 0 24 -19q17 -36 28.5 -69t23.5 -62 q24 0 50 8q-58 169 -58 218q0 27 2 30q0 34 32 34q28 0 41 -25q40 -91 47 -245q20 1 58 7q-24 107 -15 153q9 30 32 26q17 -4 22 -24q16 -63 8 -150q16 2 51 4zM1024 1454q-49 0 -84 -35t-35 -84q0 -50 35 -84.5t84 -34.5q119 0 119 119t-119 119zM1036 1669q-6 3 -12 3 q-11 0 -16 -4l-64 65h-23v-28l63 -63q-3 -6 -3 -13q0 -6 3 -12l-63 -64v-26h23l63 63q7 -3 17 -3q8 0 13 2l63 -62h27v23l-64 62q3 7 3 17q0 9 -4 16l65 64v24h-28zM1157 605l-135 64l-130 -64l135 -65zM723 574l-106 36l-83 -65l105 -36zM1500 667q45 5 45 50q0 29 -26 44 q-84 34 -213.5 55.5t-282.5 21.5q-321 0 -498 -79q-22 -17 -22 -42q0 -51 51 -49q178 67 469 67q295 0 477 -68zM847 1351q-116 123 -263 123q-135 0 -205 -90q-45 -57 -45 -155q0 -77 22 -147q1 -20 25 -20t26 24q-8 51 -8 91q0 83 39 131q56 76 174 76q116 0 217 -92 q20 0 20 37q0 8 -2 22zM1196 1351q-2 -14 -2 -22q0 -37 20 -37q100 92 218 92q116 0 173 -76q39 -48 39 -131q0 -40 -8 -91q1 -24 26 -24t25 20q22 70 22 147q0 98 -45 155q-71 90 -205 90q-148 0 -263 -123z"
       id="path6" />
  </g>
  <path
     style="fill:#ececec;fill-opacity:1;fill-rule:nonzero;stroke-linecap:butt;stroke-linejoin:round"
     d="m 928.54237,507.62775 c 0,-6.22303 13.6678,-24.56197 30.37288,-40.75317 38.26599,-37.08886 38.26599,-58.36878 0,-95.45763 -28.37118,-27.49843 -39.41169,-52.0678 -23.39724,-52.0678 3.8366,0 20.22299,13.6678 36.41419,30.37288 38.5351,39.75817 65.6005,39.75817 104.1356,0 16.1912,-16.70508 32.5776,-30.37288 36.4142,-30.37288 16.0144,0 4.9739,24.56937 -23.3973,52.0678 -38.2659,37.08885 -38.2659,58.36877 0,95.45763 28.3712,27.49843 39.4117,52.06779 23.3973,52.06779 -3.8366,0 -20.223,-13.66779 -36.4142,-30.37288 -38.5351,-39.75816 -65.6005,-39.75816 -104.1356,0 -31.19577,32.18587 -43.38983,37.54191 -43.38983,19.05826 z"
     id="path2989"
     inkscape:connector-curvature="0"
     transform="translate(0,-410)" />
  <path
     style="fill:#ececec;fill-opacity:1;fill-rule:nonzero;stroke-linecap:butt;stroke-linejoin:round"
     d="M 993.30116,821.31132 C 925.22661,803.59808 890.34532,715.25498 927.61548,654.95059 c 34.30126,-55.5006 114.05782,-72.09194 171.54232,-35.68506 43.6321,27.63373 49.287,134.97321 9.2214,175.03882 -24.8465,24.84647 -76.6544,37.00494 -115.07804,27.00697 z"
     id="path2991"
     inkscape:connector-curvature="0"
     transform="translate(0,-410)" />
  <path
     style="fill:#ececec;fill-opacity:1;fill-rule:nonzero;stroke-linecap:butt;stroke-linejoin:round"
     d="m 354.4187,941.99322 c -5.89867,-20.28475 -10.82508,-73.97966 -10.94759,-119.32203 -0.26131,-96.71578 14.94599,-134.80996 73.99301,-185.35201 99.10752,-84.83235 261.19516,-73.9091 383.04482,25.81376 29.76359,24.35879 41.19618,39.92547 41.22034,56.12581 0.0495,33.30904 -8.20417,35.90208 -37.04156,11.63703 -85.76239,-72.1643 -233.7281,-91.3504 -316.46554,-41.03476 -32.20801,19.58686 -68.2248,61.84845 -80.72536,94.72202 -5.2435,13.78916 -9.31144,63.14577 -9.03987,109.68137 0.45658,78.23911 -0.77906,84.61017 -16.40982,84.61017 -12.41893,0 -19.74897,-9.78492 -27.62843,-36.88136 z"
     id="path2993"
     inkscape:connector-curvature="0"
     transform="translate(0,-410)" />
  <path
     style="fill:#ececec;fill-opacity:1;fill-rule:nonzero;stroke-linecap:butt;stroke-linejoin:round"
     d="m 1645.0035,971.05249 c -2.9855,-4.83067 -2.8551,-33.89753 0.2897,-64.59302 15.5439,-151.71723 -65.0465,-243.86546 -212.8505,-243.3764 -70.3801,0.23292 -111.9851,13.42313 -176.3075,55.89567 l -49.8986,32.94849 -5.4,-21.51524 c -14.5466,-57.95816 146.5096,-150.72385 261.6808,-150.72385 101.0008,0 179.895,45.59399 217.7328,125.8305 16.7233,35.46253 20.3495,56.86625 19.848,117.15255 -0.7332,88.13873 -15.0032,150.58933 -35.2891,154.43722 -7.9075,1.49993 -16.82,-1.22523 -19.8056,-6.05592 l 0,0 z"
     id="path2995"
     inkscape:connector-curvature="0"
     transform="translate(0,-410)" />
  <path
     style="fill:#ececec;fill-opacity:1;fill-rule:nonzero;stroke-linecap:butt;stroke-linejoin:round"
     d="m 533.85578,1159.9139 c -42.19411,-94.021 -49.88831,-182.83496 -16.93499,-195.48034 7.19486,-2.76093 20.07751,1.31138 28.6281,9.04956 22.15899,20.05361 29.92254,17.43278 23.55172,-7.95062 -6.8405,-27.25471 9.0339,-89.64258 28.29636,-111.20738 7.89727,-8.84119 25.46288,-21.8171 39.03469,-28.83535 23.06745,-11.92864 26.81011,-11.28154 57.41371,9.92677 18.24187,12.64162 43.45641,42.70074 56.9451,67.88619 31.02275,57.92424 28.44667,55.94079 43.93511,33.82795 17.39805,-24.83921 51.668,-24.57571 68.0906,0.52354 19.08684,29.17112 39.69229,116.83868 39.69229,168.87408 0,38.8955 -2.45394,45.9056 -16.06971,45.9056 -13.82057,0 -16.79984,-9.4683 -21.28646,-67.6496 -2.86922,-37.2073 -7.65504,-74.0036 -10.63516,-81.7697 -8.42424,-21.95318 -30.9112,-26.09693 -49.72413,-9.16281 -14.91733,13.42761 -16.41498,22.60641 -11.71548,71.80241 2.96356,31.0238 7.64692,64.702 10.40747,74.8406 4.16162,15.2843 0.64469,19.0759 -20.58416,22.1916 l -25.60333,3.7578 -5.37333,-65.5814 c -6.18191,-75.4502 -24.20934,-148.38608 -44.2278,-178.93811 -14.43883,-22.03643 -59.10371,-29.88738 -69.97358,-12.29957 -12.76199,20.64934 -3.31377,105.50838 20.51248,184.23248 14.08423,46.5356 22.40817,84.6102 18.49765,84.6102 -3.91052,0 -12.60837,2.1099 -19.32854,4.6887 -8.70591,3.3407 -19.25142,-13.4988 -36.6824,-58.5763 -28.50735,-73.7215 -36.00814,-84.9599 -56.70464,-84.9599 -33.21042,0 -27.6314,55.6004 12.44003,123.9772 l 22.73905,38.8012 -21.30922,4.0735 c -18.87913,3.609 -23.90044,-1.7005 -44.03143,-46.5583 z"
     id="path2997"
     inkscape:connector-curvature="0"
     transform="translate(0,-410)" />
  <path
     style="fill:#ececec;fill-opacity:1;fill-rule:nonzero;stroke-linecap:butt;stroke-linejoin:round"
     d="m 1455.48,1199.1907 c -2.921,-2.921 6.1908,-25.691 20.2486,-50.5999 27.9716,-49.563 34.1676,-103.8104 12.7937,-112.0123 -19.7323,-7.572 -36.3051,15.0338 -62.749,85.591 -23.8118,63.5342 -30.9684,71.4903 -52.181,58.0107 -7.9586,-5.0573 -4.2356,-27.7091 15.1864,-92.3986 42.3814,-141.16082 31.7702,-210.7511 -28.6336,-187.78561 -30.0624,11.42968 -67.1282,124.30681 -67.1282,204.42651 0,42.1957 -7.8395,56.6894 -30.6629,56.6894 -19.7634,0 -20.1004,-1.5128 -18.597,-83.4796 1.2971,-70.7222 -0.7648,-84.95598 -13.4925,-93.14101 -28.6364,-18.41576 -44.0241,11.456 -48.3492,93.85911 -3.7554,71.5505 -4.6077,74.0835 -24.926,74.0835 -20.6175,0 -20.9259,-1.0831 -15.4437,-54.2373 6.7322,-65.2738 18.2895,-113.90884 36.0879,-151.8644 16.4066,-34.98738 54.1735,-39.25813 76.7405,-8.67796 9.6582,13.08765 15.7822,15.94654 18.5736,8.67087 17.0445,-44.42573 48.4873,-88.40028 78.1468,-109.29279 34.1889,-24.083 35.7279,-24.3392 62.6328,-10.42615 40.3687,20.87544 61.456,60.9044 61.4946,116.73203 0.031,45.77285 0.4361,46.53899 16.7665,31.7602 19.9616,-18.06504 49.3874,-11.62114 57.0404,12.49115 14.7522,46.48005 -41.9915,216.91215 -72.2187,216.91215 -8.8105,0 -18.409,-2.3899 -21.33,-5.311 z"
     id="path2999"
     inkscape:connector-curvature="0"
     transform="translate(0,-410)" />
  <path
     style="fill:#ececec;fill-opacity:1;fill-rule:nonzero;stroke-linecap:butt;stroke-linejoin:round"
     d="m 527.18644,1368.688 c -17.72204,-10.3222 -20.45317,-53.5546 -4.23359,-67.0156 41.87543,-34.7535 190.13764,-67.9416 363.24824,-81.3122 197.63741,-15.2648 454.58911,9.8508 588.30401,57.5037 50.773,18.0943 61.4949,28.1309 61.4949,57.5645 0,23.9812 -26.4015,48.793 -41.7955,39.279 -21.2373,-13.1254 -159.759,-42.2809 -253.2022,-53.2929 -223.7495,-26.3683 -472.62112,-10.84 -640.96724,39.9932 -30.33326,9.1593 -55.71631,16.5346 -56.40678,16.3894 -0.69047,-0.1451 -8.0893,-4.2442 -16.44184,-9.1091 z"
     id="path3001"
     inkscape:connector-curvature="0"
     transform="translate(0,-410)" />
  <path
     style="fill:#ececec;fill-opacity:1;fill-rule:nonzero;stroke-linecap:butt;stroke-linejoin:round"
     d="m 592.27119,1519.8392 c -20.28475,-7.1803 -36.88136,-16.1712 -36.88136,-19.9798 0,-3.8087 14.14501,-17.7138 31.43336,-30.9003 l 31.43337,-23.9754 47.14094,14.8599 47.14095,14.8599 -37.35397,29.6962 c -20.54468,16.3329 -39.30651,29.4259 -41.69295,29.0954 -2.38645,-0.3305 -20.9356,-6.4756 -41.22034,-13.6559 z"
     id="path3003"
     inkscape:connector-curvature="0"
     transform="translate(0,-410)" />
  <path
     style="fill:#ececec;fill-opacity:1;fill-rule:nonzero;stroke-linecap:butt;stroke-linejoin:round"
     d="m 960.11931,1470.734 -59.54171,-27.6401 59.87357,-28.965 59.87353,-28.965 63.5107,28.3979 63.5107,28.398 -55.1646,28.3753 c -30.3405,15.6064 -59.0696,28.2997 -63.8425,28.2072 -4.7729,-0.092 -35.47175,-12.6062 -68.21969,-27.8083 z"
     id="path3005"
     inkscape:connector-curvature="0"
     transform="translate(0,-410)" />
  <path
     style="fill:#ececec;fill-opacity:1;fill-rule:nonzero;stroke-linecap:butt;stroke-linejoin:round"
     d="m 1385.1506,1508.2653 c -18.5333,-14.0168 -35.4731,-27.2612 -37.6439,-29.432 -2.1708,-2.1709 17.3969,-10.6751 43.4839,-18.8983 l 47.4308,-14.9513 31.4334,23.9754 c 17.2883,13.1865 31.4333,26.7989 31.4333,30.2498 0,3.4509 -14.644,11.0513 -32.5423,16.8898 -17.8983,5.8385 -36.4475,12.1986 -41.2204,14.1335 -4.7729,1.9349 -23.8415,-7.9502 -42.3748,-21.9669 z"
     id="path3007"
     inkscape:connector-curvature="0"
     transform="translate(0,-410)" />
  <path
     style="fill:#ececec;fill-opacity:1;fill-rule:nonzero;stroke-linecap:butt;stroke-linejoin:round"
     d="m 613.98152,1758.2095 c -5.29559,-15.2915 16.51911,-76.0871 34.38544,-95.8292 19.69334,-21.7609 73.77676,-44.4569 141.32796,-59.3081 74.44248,-16.3662 399.25318,-16.7653 471.32188,-0.5791 63.2245,14.1998 119.5517,38.8211 139.6698,61.0514 19.1737,21.1867 39.5146,78.4607 33.4646,94.2267 -8.452,22.0255 -39.9049,8.038 -47.4102,-21.0839 -16.9488,-65.764 -118.9905,-91.5051 -362.741,-91.5051 -244.18603,0 -339.86036,23.6003 -361.22363,89.104 -10.05241,30.8225 -41.12908,46.0589 -48.79485,23.9233 l 0,0 z"
     id="path3009"
     inkscape:connector-curvature="0"
     transform="translate(0,-410)" />
</svg>
