<?xml version="1.0" encoding="UTF-8"?>
<svg width="144pt" height="144pt" version="1.1" viewBox="0 0 50.8 50.8" xmlns="http://www.w3.org/2000/svg">
	<g transform="translate(0,-246.2)">
		<g transform="translate(.0084071 1.3899)" aria-label="l">
			<path d="m33.065 281.41 2.0836 1.6123 2.6045-0.89297-2.0588-1.6123zm6.1268-0.42168q0.17363 0.5209 0.17363 0.99219 0 1.4635-1.0666 2.2572-0.09922 0.42168-0.14883 0.84336 0.91777 1.2898 0.91777 2.0836 0 2.0836-4.0184 3.5719-4.0184 1.4883-9.649 1.4883-5.6555 0-9.6738-1.4883-3.9936-1.4883-3.9936-3.5719 0-0.81856 0.96738-2.1332-0.04961-0.27286-0.14883-0.76895-1.0914-0.79375-1.0914-2.282 0-0.47129 0.14883-0.96738 0.24805-0.62012-0.09922-0.96739-0.34726-0.34726-0.79375-0.96738-0.39688-1.2402-0.39688-1.7115 0.02481-0.22324 0.07441-0.4961 0.07441-0.27285 0.07441-0.64492-1.0914-1.0914-2.282-2.0588-1.1658-0.99218-1.8355-2.3812-0.79375-1.6371-1.4635-3.299-0.64492-1.6867-0.64492-3.299 0-3.051 1.6123-5.1594 1.6123-2.1084 4.3656-3.299 3.6711-0.24805 3.1006-0.24805 4.316 0 7.8383 3.1998v-8.7064h8.4584v8.7312q3.5223-3.2246 7.8879-3.2246-0.62012 0 3.1006 0.24805 2.7037 1.1906 4.316 3.299 1.6371 2.1084 1.6371 5.1594 0 1.6123-0.66973 3.2742-0.64492 1.6619-1.4139 3.299-0.66973 1.4139-1.8604 2.4557-1.1906 1.0418-2.2572 2.0836-0.0248 0.29765 0.02481 0.5705 0.07441 0.27286 0.09922 0.4961 0.0248 0.34726-0.39688 1.7115-0.44648 0.62012-0.79375 0.96738-0.32246 0.34727-0.09922 0.94258zm-3.423 7.119q-0.09922-0.54571-0.34726-1.1906-0.27285-0.59531-0.57051-0.79375-0.27285-0.22324-0.49609-0.57051-2.5053-1.5875-8.9049-1.4139-6.4988-0.17364-8.9793 1.4139-0.29766 0.29766-0.59531 0.5209-0.27285 0.22325-0.47129 0.81856-0.27285 0.62011-0.34727 1.2154-0.04961 0.79375 0.69453 0.79375 0.71934 0 0.69453-0.76895 0.22324-2.4805 8.9049-2.4805 8.7561 0 9.0041 2.4805-0.04961 0.76895 0.69453 0.76895 0.71934 0 0.71934-0.79375zm-7.6398-14.635q0.32246 0 0.64492 0.0496 0.32246 0.0248 0.62012 0.0248-0.19844-2.2572 0.19844-3.6959 0.14883-0.54571 0.5457-0.59531 0.57051-0.0992 0.81856 0.62011 0.19844 1.1906-0.39688 3.7951 0.99219 0.17363 1.4635 0.17363 0.14883-3.8199 1.1658-6.0772 0.29766-0.59531 0.99219-0.59531 0.84336 0 0.79375 0.81856 0.04961 0.0496 0.04961 0.76894 0 1.265-1.4139 5.3826 0.71934 0.24805 1.2402 0.19844 0.27285-0.71934 0.5457-1.5131 0.29766-0.81855 0.74414-1.7363 0.19844-0.47129 0.57051-0.47129 0.42168 0 0.5209 0.81856 0.0248 0.69453-1.4635 3.175 0.62012 0.29765 1.2402 0.32246 0.29766-0.59531 0.5457-1.1162 0.27285-0.5209 0.57051-1.3395 0.5457-1.5875 0.44648-3.0262-0.19844-0.86816-0.96738-0.86816-0.37207 0-0.91777 0.59531 0.12402-0.79375 0.12402-0.99219 0-1.0418-0.5209-1.9596-0.49609-0.94257-1.7115-1.2898-0.89297 0.0496-1.8604 1.0914-0.96738 1.0418-1.2898 2.4557-0.27285-0.86816-0.71934-0.99219-0.44648-0.12402-0.59531-0.12402-0.29766 0-0.57051 0.17363-0.99219 1.141-1.2154 3.4727-0.07441 0.5209-0.09922 1.017-0.0248 0.49609-0.09922 1.4387zm-5.5314 0.0248q-0.07441-0.91778-0.09922-1.4139t-0.07441-1.017q-0.29766-2.3812-1.2154-3.4727-0.24805-0.17363-0.59531-0.17363-0.14883 0-0.62012 0.12402-0.44648 0.12403-0.66973 0.96738-0.34727-1.4139-1.3146-2.4557-0.94258-1.0418-1.8355-1.0914-1.2402 0.37207-1.7363 1.3146-0.49609 0.91778-0.49609 1.9596 0 0.47129 0.12402 0.99219-0.59531-0.62012-0.91777-0.62012-0.79375 0-0.96738 0.89297-0.12402 1.5379 0.44648 3.0014 0.27285 0.81855 0.5209 1.3643 0.27285 0.5209 0.59531 1.1162 0.59531-0.0248 1.2402-0.32246-1.5131-2.4557-1.4635-3.175 0.02481-0.81856 0.49609-0.81856 0.37207 0 0.59531 0.47129 0.42168 0.89297 0.69453 1.7115 0.29766 0.81856 0.59531 1.5379 0.59531 0 1.2402-0.19844-1.4387-4.192-1.4387-5.4074 0-0.66973 0.04961-0.74414 0-0.84336 0.79375-0.84336 0.69453 0 1.017 0.62011 0.99219 2.2572 1.1658 6.0772 0.49609-0.0248 1.4387-0.17363-0.59531-2.6541-0.37207-3.7951 0.22324-0.74414 0.79375-0.64492 0.42168 0.0992 0.5457 0.59531 0.39688 1.5627 0.19844 3.7207 0.39688-0.0496 1.265-0.0992zm2.8029-13.915q-1.2154 0-2.0836 0.86816-0.86816 0.86817-0.86816 2.0836 0 1.2402 0.86816 2.1084 0.86816 0.84336 2.0836 0.84336 2.9518 0 2.9518-2.9518 0-2.9518-2.9518-2.9518zm0.29766-5.333q-0.14883-0.07441-0.29766-0.07441-0.27285 0-0.39688 0.0992l-1.5875-1.6123h-0.57051v0.69453l1.5627 1.5627q-0.07442 0.14882-0.07442 0.32246 0 0.14883 0.07442 0.29765l-1.5627 1.5875v0.64493h0.57051l1.5627-1.5627q0.17363 0.0744 0.42168 0.0744 0.19844 0 0.32246-0.0496l1.5627 1.5379h0.66973v-0.57051l-1.5875-1.5379q0.07441-0.17364 0.07441-0.42168 0-0.22325-0.09922-0.39688l1.6123-1.5875v-0.59531h-0.69453zm3.0014 26.392-3.3486-1.5875-3.2246 1.5875 3.3486 1.6123zm-10.765 0.76894-2.6293-0.89297-2.0588 1.6123 2.6045 0.89297zm19.273-2.3068q1.1162-0.12403 1.1162-1.2402 0-0.71933-0.64492-1.0914-2.0836-0.84336-5.3082-1.3643-3.1998-0.54571-6.9949-0.54571-7.9623 0-12.353 1.9596-0.5457 0.42168-0.5457 1.0418 0 1.265 1.265 1.2154 4.4152-1.6619 11.633-1.6619 7.3174 0 11.832 1.6867zm-16.197-16.966q-2.8773-3.051-6.5236-3.051-3.3486 0-5.085 2.2324-1.1162 1.4139-1.1162 3.8447 0 1.91 0.5457 3.6463 0.024805 0.49609 0.62012 0.49609 0.59531 0 0.64492-0.59531-0.19844-1.265-0.19844-2.2572 0-2.0588 0.96738-3.2494 1.3891-1.8852 4.316-1.8852 2.8773 0 5.3826 2.282 0.49609 0 0.49609-0.91778 0-0.19843-0.04961-0.5457zm8.6568 0q-0.04961 0.34727-0.04961 0.5457 0 0.91778 0.49609 0.91778 2.4805-2.282 5.4074-2.282 2.8773 0 4.2912 1.8852 0.96738 1.1906 0.96738 3.2494 0 0.99218-0.19844 2.2572 0.0248 0.59531 0.64492 0.59531 0.62012 0 0.62012-0.49609 0.5457-1.7363 0.5457-3.6463 0-2.4309-1.1162-3.8447-1.7611-2.2324-5.085-2.2324-3.6711 0-6.5236 3.051z" stroke-width=".26458"/>
		</g>
		<g fill="#fff" stroke-width=".2">
			<path transform="matrix(.26458 0 0 .26458 0 246.2)" d="m86.381 47.766 9.6e-5 -1.2168 5.9043-5.9979-0.03514-0.07525c-0.11259-0.24114-0.18765-0.4891-0.22616-0.74713-0.01762-0.11804-0.02001-0.49369-4e-3 -0.62109 0.03923-0.31132 0.11277-0.5741 0.2342-0.8368l0.03109-0.06727-5.9045-5.9045v-2.6211h2.1479l2.9983 3.0449c1.6491 1.6747 3.0018 3.0446 3.0061 3.0441 0.0043-4.47e-4 0.03461-0.02007 0.06736-0.04361 0.16744-0.12035 0.43766-0.22128 0.72561-0.27102 0.35174-0.06076 0.77445-0.07187 1.0547-0.02773 0.23156 0.03647 0.53902 0.13468 0.73828 0.23582l0.03906 0.01983 0.21094-0.21553c0.11602-0.11854 1.4449-1.469 2.9531-3.0011l2.7422-2.7856 2.6211-1.04e-4 -5.2e-4 1.123-5.1e-4 1.123-2.9519 2.9054c-1.6235 1.598-2.9943 2.948-3.0463 3l-0.09439 0.09462 0.06106 0.12107c0.23898 0.47383 0.33665 0.99013 0.30666 1.6211-0.02398 0.50438-0.09842 0.8948-0.24098 1.2638-0.01953 0.05056-0.03411 0.09303-0.03239 0.09438 0.0017 0.0014 1.3522 1.3092 3.0012 2.9063l2.998 2.9039v2.1481h-2.528l-2.8552-2.8093c-1.5703-1.5451-2.8991-2.8527-2.9528-2.9058l-0.09766-0.09653-0.08984 0.03128c-0.32108 0.11181-0.73317 0.1627-1.2383 0.15292-0.41555-8e-3 -0.74049-0.04924-1.0655-0.1351-0.09725-0.02569-0.28839-0.08921-0.38044-0.12643l-0.0397-0.01605-5.905 5.905h-2.1524z"/>
			<path transform="matrix(.26458 0 0 .26458 0 246.2)" d="m95.528 78.129c-1.6507-0.07327-3.0943-0.43073-4.4636-1.1053-2.1426-1.0555-3.9788-2.8773-5.0433-5.004-0.76079-1.5198-1.1381-3.1866-1.1382-5.0277-1.08e-4 -3.0731 1.0863-5.6799 3.2826-7.8768 1.3937-1.394 2.9618-2.3424 4.7061-2.846 0.77378-0.22343 1.4999-0.34766 2.3968-0.4101 0.50218-0.03496 1.4352-0.0245 2.1545 0.02414 2.4285 0.16424 4.4299 0.79664 5.954 1.8814 1.3363 0.95101 2.3239 2.2601 2.9564 3.9186 0.42193 1.1063 0.68937 2.3869 0.79493 3.8062 0.0396 0.53295 0.0449 0.70972 0.0449 1.4971 0 0.78662-6e-3 0.9751-0.0449 1.4971-0.19473 2.5906-0.90693 4.6542-2.1403 6.2014-1.3243 1.6613-3.2506 2.7238-5.7749 3.1854-0.7025 0.12844-1.421 0.2073-2.2543 0.24744-0.32871 0.01583-1.1772 0.0225-1.4308 0.01124z"/>
			<path transform="matrix(.26458 0 0 .26458 0 246.2)" d="m35.52 92.57c-0.74068-0.0454-1.2578-0.23335-1.6019-0.58222-0.27635-0.2802-0.43872-0.64755-0.48629-1.1002-0.0148-0.14079-0.04387-0.25951-0.14811-0.60486-1.0814-3.5826-1.7026-7.2474-1.8805-11.094-0.06692-1.4471-0.06394-3.1044 0.0079-4.3672 0.25905-4.556 1.3739-8.3168 3.3506-11.303 0.97208-1.4684 2.3367-3.0048 3.7427-4.2138 3.3023-2.8395 7.4285-4.5489 12.367-5.1232 0.63958-0.07438 1.3898-0.1358 2.2188-0.18165 0.4787-0.02648 2.2955-0.03673 2.8438-0.01605 5.2545 0.19821 10.077 1.6205 14.672 4.3271 2.053 1.2093 4.0682 2.6965 6.0156 4.4393 0.74287 0.66482 1.6184 1.505 2.2334 2.1431 0.2186 0.22683 0.43815 0.4546 0.48787 0.50617l0.09041 0.09376 0.05436 0.42968c0.11651 0.921 0.14754 1.4488 0.12065 2.0518-0.01003 0.225-0.02874 0.50402-0.04156 0.62004-0.12161 1.1-0.44008 1.8233-0.95317 2.1647-0.21978 0.14623-0.40957 0.21162-0.7012 0.24156l-0.15456 0.01587-0.15012-0.13776c-0.39522-0.36268-1.1401-1.0013-1.6736-1.4349-1.7613-1.4316-3.6085-2.6766-5.4411-3.6674-3.3569-1.8149-6.8524-2.9068-10.434-3.2593-0.88368-0.08697-1.3543-0.11079-2.3906-0.12098-0.91406-9e-3 -1.5488 0.0052-2.25 0.05045-2.9922 0.19289-5.5354 0.78266-7.8516 1.8208-0.26532 0.11892-1.023 0.5012-1.2812 0.64641-1.925 1.0826-3.5916 2.5165-4.9135 4.2275-0.08963 0.11602-0.26937 0.34805-0.39942 0.51562-0.6767 0.87198-1.1469 1.6234-1.6181 2.5859-1.0404 2.1253-1.6467 4.5603-1.8497 7.4297-0.04702 0.66438-0.05708 0.94332-0.06592 1.8281-0.0158 1.5805 0.05628 3.0726 0.23812 4.9297 0.10486 1.0709 0.29134 2.5365 0.46028 3.6177 0.04478 0.28654 0.04501 0.29146 0.02188 0.46803-0.14712 1.1235-0.72335 1.7974-1.7018 1.9905-0.2475 0.04882-0.68552 0.0781-0.9375 0.06265z"/>
			<path transform="matrix(.26458 0 0 .26458 0 246.2)" d="m155.5 92.563c-0.0258-0.0035-0.11016-0.01394-0.1875-0.02323-0.0773-0.0093-0.20039-0.03059-0.27344-0.04734-0.97587-0.2237-1.4988-0.85307-1.6117-1.9398-0.0213-0.20494-0.0254-0.16196 0.0866-0.91031 0.26284-1.7571 0.45688-3.5504 0.55539-5.1328 0.12491-2.0066 0.12021-3.6372-0.0151-5.2422-0.31952-3.7892-1.4232-6.9664-3.2567-9.375-0.7865-1.0332-1.2508-1.5782-1.891-2.2198-0.48092-0.482-0.81955-0.78804-1.3206-1.1935-2.8214-2.2833-6.4172-3.6179-10.734-3.9843-0.9206-0.07812-1.4894-0.10059-2.5469-0.10061-0.88581-1.5e-5 -1.2498 0.01136-1.9688 0.06153-3.6155 0.2523-7.0882 1.2137-10.437 2.8895-2.6619 1.3321-5.2752 3.1486-7.7636 5.3963l-0.3019 0.27271-0.1356-0.01c-0.86121-0.06321-1.4046-0.73844-1.619-2.0119-0.0617-0.36644-0.0885-0.69601-0.0978-1.2014-0.0116-0.62764 0.0242-1.1509 0.135-1.9725l0.0437-0.3241 0.16969-0.18372c0.27557-0.29835 1.6748-1.6916 2.0219-2.0133 0.92393-0.85626 1.6394-1.4739 2.5158-2.1716 2.879-2.292 5.963-4.0586 9.1717-5.2536 3.5265-1.3134 7.3026-1.9564 11.18-1.9037 0.74641 0.01014 1.2043 0.02668 1.8125 0.06546 5.6537 0.36047 10.316 2.1116 14.016 5.2638 1.4312 1.2196 2.8046 2.7502 3.7652 4.1964 1.1643 1.753 2.0203 3.742 2.5927 6.0244 0.71895 2.8671 0.96816 6.1112 0.7669 9.9834-0.17038 3.2783-0.67963 6.4932-1.5148 9.5625-0.11688 0.42957-0.34312 1.2068-0.42297 1.4531-0.028 0.08649-0.0473 0.19882-0.0627 0.36464-0.0293 0.31705-0.0798 0.51373-0.187 0.72911-0.0998 0.20046-0.2055 0.33652-0.36588 0.47095-0.27665 0.23188-0.65077 0.37963-1.1439 0.45175-0.16749 0.0245-0.85643 0.04514-0.97433 0.0292z"/>
			<path transform="matrix(.26458 0 0 .26458 0 246.2)" d="m139.34 113.82c-0.91933-0.0896-1.7406-0.26899-2.6499-0.57887-0.43019-0.14661-1.1384-0.43527-1.4001-0.57063l-0.0578-0.0299 0.24988-0.41896c2.121-3.5562 3.6761-6.5092 4.4843-8.5151 0.50232-1.2467 0.75199-2.1479 0.78877-2.8472 8e-3 -0.15771 3e-3 -0.23219-0.0318-0.46875-0.14113-0.9517-0.3599-1.6319-0.6812-2.1179-0.11395-0.17238-0.37089-0.43418-0.50271-0.51224-0.25036-0.14824-0.47439-0.20795-0.77752-0.20722-0.85213 0.0021-1.5162 0.49278-2 1.478-0.81825 1.6661-1.6682 3.5683-2.297 5.1406-0.35622 0.8908-0.57926 1.4914-0.94284 2.5391-0.46673 1.3448-0.9882 2.791-1.4967 4.1508l-0.28138 0.75238-0.21282 0.0114c-0.30199 0.0162-1.064-1e-3 -1.3318-0.0308-0.89982-0.0986-1.7879-0.29695-2.8086-0.62742-0.17402-0.0563-0.3164-0.10442-0.3164-0.10683 0-2e-3 0.12907-0.38335 0.28682-0.84651 2.9079-8.5374 4.5736-14.605 4.9625-18.076 0.0766-0.68397 0.0853-0.86516 0.0839-1.7578-2e-3 -1.432-0.0574-2.3299-0.15465-2.5179-0.0171-0.03309-0.0223-0.11635-0.0223-0.36031 0-0.92564-0.21695-1.5618-0.69424-2.0358-0.46232-0.45915-1.1388-0.70393-2.0443-0.7397-0.89171-0.03523-1.6147 0.09636-2.2536 0.41014-0.85839 0.42159-1.449 1.0805-1.9062 2.1264-2.2265 5.094-3.5924 11.635-4.1244 19.75-0.0544 0.82945-0.14839 2.6319-0.14892 2.8555l-1.4e-4 0.0586h-0.23828c-0.71588-2.2e-4 -2.0444-0.13716-3.5742-0.36843-0.46438-0.0702-1.6914-0.27218-1.6999-0.27984-3e-3 -2e-3 0.0348-0.17881 0.083-0.39232 0.76637-3.3974 1.2762-6.4556 1.4833-8.8968 0.12934-1.5249 0.14554-2.9418 0.0465-4.0703-0.0266-0.30352-0.0755-0.70732-0.10779-0.89062-0.0506-0.28726-0.33303-0.91203-0.58399-1.2919-0.30663-0.46412-0.6204-0.75726-1.0258-0.95829-0.33114-0.16422-0.604-0.22621-0.99621-0.22632-0.26805 0-0.61424 0.04339-0.81955 0.10288-0.77753 0.22532-1.3099 0.8283-1.661 1.8814-0.18675 0.56004-0.48354 1.8637-0.64028 2.8125-0.43651 2.6423-0.55903 5.727-0.36646 9.2266 0.039 0.70959 0.13553 2.0552 0.15602 2.1758l9e-3 0.0508h-0.37962c-0.69088-1.6e-4 -1.7271-0.0558-2.1765-0.11693-0.6643-0.0904-1.157-0.13095-1.7475-0.14375-0.32446-7e-3 -0.45263-0.0149-0.45773-0.0282-4e-3 -0.0101 0.0212-0.38699 0.0559-0.8374 0.14691-1.9118 0.23594-3.2194 0.29775-4.3738 0.0584-1.0909 0.11609-1.8093 0.21888-2.7266 0.0443-0.3956 0.13315-1.1012 0.14848-1.1797 4e-3 -0.02148 0.0325-0.27461 0.0628-0.5625 0.5815-5.5165 2.035-9.6762 4.3583-12.473 0.16959-0.20416 0.19916-0.23221 0.32031-0.30386 0.43914-0.25969 0.92457-0.44263 1.3757-0.51843 0.40647-0.0683 0.73208-0.071 1.1172-0.0092 0.4963 0.07959 1.7107 0.38276 2.005 0.50053 0.2932 0.11735 0.54626 0.28901 0.82845 0.56196 0.37884 0.36644 0.67205 0.78508 0.97821 1.3967 0.22575 0.451 0.43155 0.95604 0.60239 1.4783 0.0366 0.11172 0.0715 0.20867 0.0776 0.21544 6e-3 0.0068 0.0483-0.14088 0.0937-0.32812 0.59334-2.4473 1.6387-4.7753 3.0423-6.7751 0.94053-1.34 2.1283-2.6577 3.349-3.7152 1.7966-1.5565 3.5863-2.426 5.2656-2.5583 0.17412-0.01372 0.19342-0.0094 0.70313 0.15715 2.5846 0.84458 4.4819 2.272 5.675 4.2698 0.16796 0.28122 0.51872 0.9309 0.68332 1.2656 0.80521 1.6375 1.2896 3.3392 1.4611 5.1328 0.0676 0.70671 0.0822 1.5345 0.0352 2-0.0628 0.62332-0.19629 1.6215-0.35587 2.6619-0.0433 0.2824-0.0761 0.51613-0.0728 0.51941 3e-3 0.0033 0.12497-0.11827 0.27041-0.27012 1.1706-1.2221 2.1975-1.8843 3.0351-1.9571 0.18899-0.01642 0.60261 0.0028 0.83397 0.03875 0.6093 0.09468 1.1578 0.3302 1.5828 0.67958 0.13471 0.11075 0.39613 0.37862 0.50265 0.51506 0.35732 0.45767 0.64858 1.0874 0.83241 1.7996 0.0887 0.34371 0.10244 0.59998 0.10244 1.9113 0 1.0332-8e-3 1.2949-0.0634 2-0.1715 2.1958-0.61643 4.4363-1.3436 6.7656-0.2448 0.78419-0.38901 1.1921-0.78432 2.2188-0.50428 1.3096-0.96162 2.3604-1.4996 3.4453-0.16831 0.33945-0.39193 0.79648-0.49694 1.0156-0.39112 0.81625-0.68196 1.4118-1.2113 2.4805l-0.54372 1.0977-0.13796-2e-3c-0.0759-9.2e-4 -0.26804-0.0144-0.42703-0.0298z"/>
			<path transform="matrix(.26458 0 0 .26458 0 246.2)" d="m51.699 113.53c-0.52984-0.98098-1.2156-2.2665-1.7322-3.2472-0.13838-0.2627-0.3055-0.6002-0.37136-0.75-0.53608-1.2193-1.0975-2.6859-1.6475-4.3036-0.08764-0.25781-0.22459-0.64453-0.30433-0.85937-0.28865-0.77773-0.45892-1.2924-0.6723-2.032-0.52004-1.8026-0.83394-3.6383-0.94531-5.528-0.07326-1.2431-0.0278-3.162 0.08718-3.6802 0.27575-1.2428 0.8046-2.1158 1.5951-2.633 0.36777-0.24065 0.82646-0.4103 1.31-0.48449 0.23906-0.03668 0.62461-0.0607 0.78125-0.04868 0.75976 0.05834 1.7627 0.71707 3.0524 2.0049 0.18351 0.18323 0.33588 0.33091 0.33861 0.32819 0.0027-0.0027-0.0085-0.06118-0.02506-0.12989-0.0585-0.24341-0.16919-0.80123-0.22323-1.1249-0.14548-0.87147-0.21307-1.6725-0.21294-2.5234 4.06e-4 -2.5358 0.59374-4.9371 1.7778-7.1953 0.52535-1.0019 0.97612-1.6238 1.7053-2.3525 0.52617-0.52589 1.0225-0.92248 1.6652-1.3306 0.89097-0.56573 1.9868-1.0613 3.1185-1.4101 0.16068-0.04954 0.17001-0.0506 0.32812-0.0375 1.5803 0.13093 3.2087 0.88831 4.8513 2.2564 1.0287 0.85676 2.2945 2.1938 3.2022 3.3822 1.3648 1.7869 2.3969 3.7283 3.1401 5.9062 0.13864 0.40626 0.3291 1.0412 0.43863 1.4622 0.04901 0.18838 0.094 0.3517 0.09998 0.36293 6e-3 0.01131 0.04413-0.09588 0.08548-0.24039 0.09285-0.32454 0.23312-0.74027 0.34709-1.0287 0.1145-0.28976 0.36803-0.80171 0.50362-1.017 0.43447-0.68972 0.93255-1.1243 1.5106-1.3181 0.21222-0.07113 1.1763-0.30233 1.6321-0.39142 0.43264-0.08455 0.56878-0.10046 0.85938-0.10043 0.78335 9.4e-5 1.483 0.19433 2.0704 0.57476 0.10353 0.06706 0.15086 0.1131 0.27493 0.26745 2.1851 2.7183 3.6569 6.9478 4.3956 12.632 0.0945 0.72704 0.22932 2.4592 0.31376 4.0313 0.07732 1.4393 0.24478 3.8447 0.36658 5.2654 0.0085 0.0996 0.0084 0.1673-3.59e-4 0.17271-0.0079 5e-3 -0.17091 0.0176-0.3622 0.0283-1.4953 0.0833-3.1882 0.21465-4.0868 0.3172-0.15726 0.0179-0.28932 0.0292-0.29347 0.0251-0.0041-4e-3 0.0066-0.17197 0.02396-0.37293 0.14957-1.735 0.20941-3.1013 0.20968-4.7873 3.6e-4 -2.338-0.13738-4.238-0.45197-6.2344-0.16932-1.0745-0.49092-2.5651-0.65507-3.0361-0.27884-0.80018-0.73962-1.3597-1.3726-1.6666-0.19785-0.09594-0.49251-0.19136-0.67666-0.21912-0.20586-0.03103-0.58519-0.03024-0.77256 0.0016-0.86021 0.14621-1.5061 0.78006-1.9568 1.9203-0.16815 0.42539-0.22806 0.68595-0.30717 1.3359-0.34232 2.8126 0.143 7.2608 1.4282 13.091 0.06418 0.29112 0.09186 0.44533 0.08061 0.44904-0.02741 9e-3 -0.99909 0.15566-1.5953 0.24071-0.95048 0.13558-1.7671 0.2362-2.5362 0.31247-0.56267 0.0558-1.2476 0.10509-1.2619 0.0908-0.0057-6e-3 -0.01662-0.13555-0.02418-0.28847-0.46465-9.3977-1.8557-16.711-4.2483-22.334-0.26512-0.6231-0.5447-1.053-0.96805-1.4886-0.46906-0.48258-1.0009-0.80542-1.6518-1.0027-0.85458-0.25903-1.9826-0.24931-2.7223 0.02347-0.24168 0.08913-0.42306 0.18802-0.63681 0.34722-0.62176 0.46306-0.97072 1.2774-1.0147 2.3679-0.0073 0.18073-0.01806 0.27102-0.04046 0.33917-0.03852 0.11718-0.08427 0.43375-0.10513 0.72744-0.05448 0.7669-0.0602 2.3519-0.01042 2.8906 0.25777 2.7902 1.3784 7.232 3.4807 13.797 0.43126 1.3467 1.2198 3.725 1.7284 5.2133 0.18024 0.52737 0.18638 0.54956 0.15413 0.55667-0.01847 4e-3 -0.16886 0.0466-0.33418 0.0946-1.3484 0.39106-2.9045 0.63461-4.0588 0.63526l-0.25 1.5e-4 -0.07552-0.18358c-0.76851-1.8682-1.8636-4.722-2.271-5.918-0.58832-1.7274-1.3253-3.5605-2.2092-5.4951-0.49594-1.0855-0.7195-1.4578-1.1004-1.833-0.38514-0.37935-0.82057-0.58065-1.3518-0.62494-0.13335-0.01112-0.40467 0.0127-0.54093 0.04748-0.66893 0.17075-1.1119 0.75869-1.3179 1.7492-0.126 0.60587-0.17848 1.4706-0.11761 1.9377 0.21082 1.6178 1.3752 4.2755 3.5118 8.0156 0.51511 0.90171 1.2465 2.1356 1.7888 3.0176l0.20234 0.32913-0.18903 0.0834c-1.2894 0.56907-2.4925 0.91701-3.6734 1.0624-0.21311 0.0262-0.62974 0.0618-0.72669 0.062l-0.08607 1.8e-4 -0.27216-0.5039z"/>
			<path transform="matrix(.26458 0 0 .26458 0 246.2)" d="m140.05 129.38c-0.71578-0.26427-2.5264-0.87285-3.3702-1.1328-9.5692-2.9481-20.997-4.5701-34.814-4.9412-3.4718-0.0932-8.2913-0.0934-11.8-3.8e-4 -13.587 0.36022-25.008 1.9911-34.295 4.8972-1.1069 0.34637-2.6743 0.88101-3.4934 1.1916l-0.32943 0.12491-0.50823-0.0122c-1.0086-0.0243-1.7473-0.20082-2.4018-0.57397-1.0583-0.60332-1.6534-1.6765-1.8075-3.2598-0.0291-0.29898-0.02858-1.0913 8.72e-4 -1.3296 0.10684-0.86434 0.44733-1.6632 1.0075-2.3638 0.19102-0.23892 0.6054-0.65267 0.8453-0.84401 0.17344-0.13833 0.23579-0.16943 0.96122-0.47934 8.7715-3.7472 20.139-5.9869 34.33-6.7637 5.7783-0.3163 12.375-0.38464 18.109-0.1876 6.2639 0.21528 12.283 0.76051 17.799 1.6124 1.1487 0.17738 3.21 0.51863 4.3461 0.71949 6.9279 1.2248 12.822 2.7904 17.464 4.6386 0.48263 0.19218 0.89892 0.46 1.3309 0.85624 0.42074 0.38592 0.71208 0.76645 0.95199 1.2434 0.25208 0.50119 0.39368 0.98537 0.4577 1.5651 0.0363 0.32852 0.0167 1.2555-0.0332 1.5727-0.14845 0.94344-0.43118 1.6204-0.91986 2.2024-0.64018 0.76251-1.6591 1.2625-2.9615 1.4534-0.12917 0.0189-0.24352 0.0337-0.25412 0.0328-0.0106-8.8e-4 -0.28774-0.10072-0.61588-0.22187z"/>
			<path transform="matrix(.26458 0 0 .26458 0 246.2)" d="m55.016 142.74c-2.7043-0.92734-4.9165-1.6865-4.916-1.687 5.32e-4 -4.9e-4 1.7505-1.371 3.8888-3.0455l3.8879-3.0446 4.9618 1.6851c2.729 0.9268 4.9631 1.6864 4.9648 1.688 3e-3 3e-3 -7.8567 6.0876-7.8656 6.0892-0.0025 4.6e-4 -2.2173-0.7579-4.9216-1.6852z"/>
			<path transform="matrix(.26458 0 0 .26458 0 246.2)" d="m89.994 138.47c-3.4728-1.6722-6.3176-3.0425-6.3218-3.0451-0.0051-3e-3 1.9637-0.9751 6.0787-3.001 3.3474-1.648 6.0893-2.9963 6.0932-2.9963 0.0052 0 12.567 5.9522 12.637 5.9875 0.0127 6e-3 -0.40044 0.21398-6.0753 3.0514-3.3489 1.6745-6.0908 3.0444-6.0931 3.0442-0.0023-1.5e-4 -2.8456-1.3685-6.3184-3.0407z"/>
			<path transform="matrix(.26458 0 0 .26458 0 246.2)" d="m132.03 143.77c-0.46274-0.35805-0.96987-0.75048-1.127-0.87207-0.1571-0.12159-1.5488-1.1984-3.0926-2.3929-2.748-2.1262-2.8067-2.172-2.7961-2.1765 0.0277-0.0118 9.9167-3.3686 9.9209-3.3676 9e-3 2e-3 7.775 6.0865 7.772 6.0891-4e-3 3e-3 -9.8271 3.371-9.8325 3.371-2e-3 0-0.38213-0.29295-0.84486-0.651z"/>
			<path transform="matrix(.26458 0 0 .26458 0 246.2)" d="m59.254 166.63c-0.55262-0.0378-1.0214-0.17959-1.3797-0.41736-0.14673-0.0974-0.36674-0.30632-0.46525-0.44183-0.21565-0.29667-0.36576-0.69033-0.43493-1.1406-0.03967-0.25826-0.04856-0.82262-0.01686-1.0703 0.17387-1.3584 0.60933-2.902 1.2121-4.2969 0.04457-0.10313 0.1163-0.28946 0.1594-0.41407 0.26745-0.77319 0.60692-1.493 0.94591-2.0056 0.28008-0.42354 0.55321-0.71924 0.93025-1.0071 0.59258-0.45242 1.2564-1.0312 1.8319-1.5972 0.23086-0.22705 0.26854-0.25721 0.49219-0.39399 0.75224-0.46003 1.4656-0.8399 2.2929-1.2209 5.0651-2.3328 12.404-3.6493 22.09-3.9624 2.4246-0.0784 5.8586-0.0913 8.2718-0.0312 0.82209 0.0205 1.2368 0.0205 2.0514 7e-5 2.4004-0.0602 5.7101-0.0476 8.1611 0.031 8.483 0.27219 15.25 1.3587 20.209 3.2449 1.507 0.57313 2.947 1.2726 4.1278 2.005 0.11731 0.0728 0.14346 0.0977 0.21094 0.20089 0.54232 0.8296 1.2817 1.6514 1.8973 2.1088 0.21381 0.15886 0.61415 0.55196 0.79356 0.77921 0.24836 0.31458 0.46166 0.63348 0.70331 1.0515 0.1661 0.28734 0.54359 1.0442 0.60785 1.2188 0.22088 0.59995 0.28825 0.78811 0.39717 1.1094 0.35588 1.0496 0.62226 2.0286 0.81838 3.0078 0.0523 0.26103 0.0557 0.29473 0.0468 0.46875-0.0342 0.67003-0.13558 1.1244-0.34357 1.5393-0.24979 0.4983-0.62891 0.84059-1.1648 1.0517-0.47842 0.18846-1.267 0.24348-1.9212 0.13404-0.92548-0.15483-1.5257-0.65344-1.7716-1.4716-0.10182-0.33878-0.13587-0.62728-0.13413-1.1362 9.9e-4 -0.28738-5e-3 -0.38721-0.0313-0.54687-0.14437-0.86652-0.48785-1.6554-1.0409-2.3906-0.21549-0.28646-0.35726-0.44755-0.65344-0.74247-0.99434-0.99012-2.3923-1.843-4.2514-2.5938-4.4478-1.7962-11.471-2.8768-20.914-3.2179-2.6576-0.096-4.6525-0.12432-7.9453-0.11279-2.6275 9e-3 -3.6089 0.0248-5.6016 0.0892-7.1177 0.22993-12.952 0.88748-17.266 1.9459-5.1223 1.2568-8.2557 3.0694-9.459 5.4718-0.32342 0.64564-0.52541 1.4154-0.52541 2.0021 0 1.5218-0.57526 2.3959-1.7578 2.671-0.31001 0.0721-0.80269 0.10596-1.1735 0.0806z"/>
		</g>
	</g>
</svg>
