<?xml version="1.0" encoding="UTF-8"?>
<svg width="144pt" height="144pt" version="1.1" viewBox="0 0 50.8 50.8" xmlns="http://www.w3.org/2000/svg">
	<g transform="translate(0,-246.2)">
		<g transform="translate(.17233 1.5615)" aria-label="m">
			<path d="m28.484 274.73q0.62012-0.12402 1.3891-0.27285 0.79375-0.17364 1.6867-0.47129 0.79375-0.24805 0.5209-0.89297-0.17363-0.27285-0.49609-0.27285-1.7611 0.39687-3.3238 0.47129 0.59531-0.22325 1.2402-0.44649 0.64492-0.24804 1.265-0.5457 1.9348-0.91777 2.5549-4.0184 0.12402-0.71934-0.47129-0.81855-0.5209-0.0496-0.81855 0.42168-0.59531 2.2076-1.8852 2.9766-0.42168 0.24804-0.86816 0.44648-0.44648 0.19844-0.89297 0.42168 0.49609-0.5209 0.91777-1.265 0.76894-1.2898 1.0418-4.5641-0.17363-0.86816-0.86816-0.64492-0.22324 0.12402-0.29766 0.22324-0.44648 3.5223-1.2154 4.6385-0.27285 0.27285-0.37207 0.47129-0.22324 0.17363-0.42168 0.34726-0.17363 0.14883-0.34727 0.29766-0.42168 0.5457-0.42168 1.2402 0 0.84336 0.47129 1.5379 0.49609 0.69453 1.6123 0.71934zm-1.7611-16.718q6.8709 3.3734 10.145 8.2848 2.0092 3.051 2.6789 7.243 0.66973 4.192 0.66973 9.401-0.12402 2.0092 1.1162 3.5223 1.265 1.5131 2.8277 1.1906 0.47129-15.081-5.3578-22.994-1.7859-2.3812-4.9857-4.6137-3.1998-2.2324-7.1438-3.9936 0 0.5209 0.0248 1.0666 0.02481 0.5209 0.02481 0.89297zm-14.585 20.762q0.27285-0.44648 0.62012-0.86816 0.37207-0.44649 0.66973-0.99219 0.5457-1.1162-0.5457-1.3146-0.19844-0.0496-0.44648 0.0496-0.71934 0.96738-1.5627 1.9596-0.12402 0.0992-0.57051 0.4961-0.22324 0.74414-0.0248 1.141 0.32246 0.74414 1.2154 0.0992 0.44648-0.34727 0.64492-0.57051zm8.7312-6.3748q0.07442-0.29766 0.17363-0.59531 0.12402-0.29766 0.19844-0.59532 0.22324-0.96738-0.5457-0.96738-0.27285 0-0.66973 0.44648-0.17363 0.39688-0.34726 0.79375-0.17363 0.37208-0.27285 0.69454-0.07441 0.24804-0.22324 0.69453-0.04961 0.37207 0.29766 0.5457 0.5209 0.29766 1.0666-0.47129 0.17363-0.17363 0.32246-0.5457zm-11.584 1.9844q0.24805-0.34726 0.57051-0.69453 0.32246-0.37207 0.57051-0.81855 0.49609-0.91778-0.47129-1.0666-0.14883-0.0248-0.42168 0.0248-0.59531 0.76895-1.3891 1.6123-0.29766 0.22325-0.49609 0.39688-0.19844 0.62012-0.024805 0.91777 0.29766 0.62012 1.0914 0.0992 0.39688-0.29765 0.57051-0.47129zm7.3174-11.013q0.17363 1.0666 0.57051 1.2154t1.1162 0.0992q0.96738-0.0744 1.4883-0.39687 1.0418-0.66973 1.8355-2.9022-0.79375 0.24804-1.4883 0.24804t-1.6619 0.0744q-1.3643 0.12402-1.8604 1.6619zm-0.32246 14.387q-0.34726 0.37207-0.57051 0.5457-0.19844 0.14883-0.34727 0.29766-0.12402 0.12402-1.6123 1.6371-0.57051 0.62012-1.3643 0.79375-0.5209 0.14883-1.4635-0.12402-3.1006-0.81856-4.8865-3.2742-0.69453-0.91778-0.99219-2.2076-0.27285-1.3146 0.27285-3.3238 0.5457-2.034 3.9439-4.6385 3.6959-2.8277 4.3408-4.4896 0.5457-0.96739 1.2402-2.1332 0.71934-1.1658 1.6867-2.2572 0.59531-0.42168 1.1162-0.96739 0.5457-0.5705 1.0666-1.1658v-3.051q1.3643 0.27285 2.0092 0.79375 0.29766 0.32246 0.64492 0.59531 0.37207 0.27285 0.66973 0.59531 0.62012-1.1162 0.79375-1.8604 0.0248-0.17363 0.17363-0.69453 0.14883-0.5209 0.29766-1.7115 0.37207-0.0992 0.64492 0.19843 1.141 1.2898 2.158 2.8774 4.5393 1.8107 8.2848 4.2912 3.7703 2.4805 5.7795 5.1594 5.6803 7.7143 5.6803 22.721 0 3.1502-0.32246 5.7547h-33.858q-0.32246-3.2246 3.423-6.8461 1.6867-1.6371 3.4975-3.175 1.8355-1.5379 3.5719-3.1254 3.2246-2.9766 3.5719-4.7625-0.12402-0.29766-0.47129-0.39687-0.86816 0.52089-1.7363 0.66972t-1.7115 0.19844q-0.5457 0.0248-1.0914 0.0496-0.5209 0-1.2402-0.24805-0.96738 1.0914-1.6619 1.8852-0.66973 0.76894-1.5379 1.3891z" stroke-width=".26458"/>
		</g>
		<g fill="#fff" stroke-width=".2">
			<path transform="matrix(.26458 0 0 .26458 0 246.2)" d="m68.12 75.786c-0.35019-0.01264-0.53404-0.02319-0.76511-0.0439-0.67598-0.06059-1.2504-0.1774-1.7429-0.35441-0.24324-0.08743-0.44184-0.21271-0.63751-0.40215-0.49969-0.4838-0.90364-1.3229-1.2265-2.5477-0.11437-0.43385-0.24822-1.0725-0.32918-1.5706l-0.01481-0.09115 0.04698-0.14087c0.39213-1.1759 0.8911-2.1907 1.4899-3.0301 0.77373-1.0846 1.7215-1.8904 2.8395-2.414 0.76759-0.35952 1.6526-0.59515 2.5715-0.68464 0.38402-0.0374 1.8879-0.13754 2.7428-0.18264 1.2913-0.06811 2.1959-0.09577 3.5328-0.108 0.55225-0.0051 0.65644-0.0075 0.91979-0.02195 1.3313-0.07284 2.7374-0.3202 4.2123-0.74106 0.15111-0.04312 0.43685-0.12808 0.52457-0.15598 0.02418-0.0077 0.04504-0.01289 0.04637-0.01156 0.0013 0.0013-0.0016 0.01304-0.0064 0.02602s-0.04969 0.13671-0.09965 0.27496c-0.75735 2.0957-1.5916 3.9747-2.4442 5.5049-0.75868 1.3617-1.5449 2.4925-2.366 3.4029-0.28988 0.32139-0.66364 0.69144-0.96076 0.9512-0.44368 0.3879-0.904 0.72196-1.2982 0.94212-1.1613 0.64858-2.6899 1.0736-4.6238 1.2857-0.4948 0.05426-0.88719 0.08374-1.4059 0.10564-0.13118 0.0055-0.89993 0.01117-1.0054 0.0074z"/>
			<path transform="matrix(.26458 0 0 .26458 0 246.2)" d="m31.076 115.07c-0.14346-0.0118-0.30154-0.0449-0.43342-0.0909-0.24384-0.085-0.4461-0.21212-0.64027-0.40254-0.16083-0.15772-0.28529-0.31988-0.40924-0.5332-0.07432-0.12792-0.21517-0.40587-0.25105-0.49542-0.08562-0.21371-0.13837-0.44058-0.16681-0.71749-0.01188-0.11567-0.01644-0.43263-0.0083-0.57557 0.03111-0.54498 0.15232-1.1484 0.37104-1.8472l0.02173-0.0694 0.0924-0.0797c0.45676-0.39414 0.99067-0.82102 1.6642-1.3306 0.11627-0.088 0.12173-0.093 0.2593-0.23986 1.8836-2.0105 3.5241-3.9126 4.9465-5.735 0.08774-0.11242 0.16484-0.20618 0.17135-0.20837 0.01832-6e-3 0.30373-0.0522 0.41786-0.0674 0.23189-0.0309 0.38396-0.0446 0.59228-0.0534 0.29123-0.0122 0.50309 8e-3 0.87165 0.0812 0.56305 0.11251 1.0116 0.28374 1.3534 0.51664 0.19396 0.13215 0.37413 0.31059 0.49012 0.48543 0.33186 0.50018 0.3592 1.1513 0.0827 1.9694-0.14113 0.41755-0.32496 0.80181-0.65013 1.359-0.51412 0.88089-1.0956 1.7129-1.7237 2.4665-0.16542 0.19845-0.20749 0.24697-0.3282 0.37849-0.741 0.80736-1.3945 1.6021-1.9631 2.3873-0.0971 0.13408-0.10407 0.1422-0.20146 0.23478-0.43971 0.41796-1.0048 0.88429-1.8464 1.5237-0.19571 0.14869-0.22175 0.1669-0.38118 0.26656-0.21523 0.13455-0.38856 0.23227-0.60491 0.34101-0.52516 0.26398-0.97505 0.404-1.4029 0.43661-0.08485 6e-3 -0.24207 6e-3 -0.32345-4.2e-4z"/>
			<path transform="matrix(.26458 0 0 .26458 0 246.2)" d="m41.302 132.28c-0.46262-0.0304-0.84756-0.20539-1.1769-0.53492-0.16118-0.16129-0.28774-0.3276-0.41639-0.54717-0.04873-0.0832-0.13854-0.25815-0.18559-0.36158-0.01596-0.0351-0.04451-0.0974-0.06344-0.13837-0.1491-0.32302-0.24904-0.70507-0.28975-1.1076-0.01505-0.14882-0.02004-0.2402-0.02337-0.42813-0.01327-0.74853 0.12734-1.6163 0.4279-2.6406l0.0154-0.0525 0.15448-0.13744c0.85067-0.75683 1.6025-1.4112 1.927-1.6772 0.07361-0.0603 0.08526-0.073 0.30128-0.32837 1.9288-2.2798 3.6769-4.4683 5.3438-6.6903l0.33569-0.44747 0.05938-0.0238c0.19878-0.0796 0.47448-0.15644 0.68638-0.19127 0.15868-0.0261 0.24504-0.0329 0.41708-0.0329 0.22482-2e-5 0.26448 5e-3 0.62424 0.0787 0.27522 0.0564 0.44637 0.0992 0.65353 0.16355 0.93129 0.28908 1.5415 0.76778 1.8178 1.426 0.08995 0.21428 0.14498 0.44921 0.16669 0.71168 0.0079 0.0951 0.0078 0.34455-7.8e-5 0.44784-0.04509 0.58969-0.2374 1.2476-0.58303 1.9946-0.07027 0.15188-0.09714 0.20474-0.1809 0.35599-0.70338 1.27-1.4929 2.437-2.3712 3.5052-0.19614 0.23852-0.27324 0.33348-0.39025 0.48061-0.71734 0.90198-1.3494 1.797-1.9312 2.7345-0.11246 0.18122-0.12856 0.20045-0.38822 0.46331-0.45362 0.45922-1.0264 0.96133-1.7816 1.5619-0.37927 0.30161-0.45356 0.35647-0.72713 0.53697-0.29031 0.19156-0.51302 0.32139-0.78239 0.45611-0.47143 0.23578-0.88898 0.36987-1.2831 0.41205-0.07916 8e-3 -0.29217 0.0148-0.35622 0.0106z"/>
			<path transform="matrix(.26458 0 0 .26458 0 246.2)" d="m75.291 109.05c-0.26746-0.0104-0.5434-0.0808-0.82036-0.20928-0.04703-0.0218-0.1235-0.0619-0.28726-0.1506-0.32927-0.17832-0.59458-0.40978-0.76667-0.66885-0.1512-0.22762-0.23982-0.47724-0.27485-0.77416-0.0153-0.1297-0.01223-0.38123 0.0064-0.52204 0.0038-0.0288 0.06096-0.21021 0.1871-0.59386 0.31447-0.95644 0.44449-1.3635 0.65193-2.0409 0.24676-0.80584 0.56634-1.6285 0.99046-2.5497 0.03217-0.0699 0.35197-0.79796 0.71066-1.618l0.65217-1.4909 0.03732-0.04186c0.18773-0.21057 0.50768-0.53678 0.67835-0.69164 0.38524-0.34954 0.7013-0.57757 1.0245-0.73917 0.22154-0.11076 0.398-0.1694 0.60214-0.20009 0.16459-0.02475 0.51244-0.01193 0.76575 0.02821 0.48036 0.07612 0.84609 0.24617 1.1213 0.52134 0.3156 0.3156 0.48547 0.73607 0.53916 1.3346 0.0093 0.104 0.0093 0.49163 0 0.61043-0.03995 0.50908-0.12211 0.95633-0.27956 1.5219-0.1599 0.5744-0.35397 1.1426-0.58592 1.7153-0.15586 0.38486-0.46059 1.3935-0.68229 2.2583-0.03661 0.14284-0.04376 0.16412-0.10201 0.30384-0.3427 0.82198-0.7153 1.4489-1.0973 1.8462-0.02921 0.0304-0.08371 0.0975-0.12111 0.14916-0.85273 1.1778-1.7007 1.8401-2.5317 1.9773-0.14165 0.0234-0.26299 0.0305-0.41823 0.0244z"/>
			<path transform="matrix(.26458 0 0 .26458 0 246.2)" d="m107.83 113.69c-2.5157-0.15837-4.3302-1.0056-5.5176-2.5764-0.13788-0.18238-0.33601-0.48996-0.51061-0.79268-0.68179-1.182-1.0993-2.4187-1.2768-3.7818-0.068-0.52209-0.0983-1.4466-0.0632-1.9276 0.0842-1.1552 0.40085-2.2115 0.95481-3.1854 0.13135-0.23089 0.4295-0.67993 0.55738-0.83944 0.11835-0.14762 1.7722-1.5688 2.5588-2.1988 0.18022-0.14435 0.3434-0.27275 0.36262-0.28534 0.0192-0.01259 0.0643-0.07677 0.10009-0.14263 0.21999-0.4043 0.62902-0.92631 1.1651-1.4869 0.20954-0.21912 0.29937-0.3432 0.53163-0.73438 1.5127-2.5476 2.7555-7.0023 3.7546-13.458 0.11269-0.72806 0.32724-2.2423 0.4166-2.9401l0.076-0.5935 0.10156-0.10808c0.18617-0.19812 0.53698-0.4542 0.89844-0.65583 0.2351-0.13115 0.60961-0.22066 1.0011-0.23927 0.76559-0.03639 1.3814 0.29693 1.8023 0.97562 0.23325 0.37607 0.42434 0.87753 0.55262 1.4502 0.0344 0.15344 0.0372 0.18989 0.0253 0.32031-7e-3 0.08094-0.0349 0.38623-0.0611 0.67842-0.56293 6.2924-1.5395 11.182-2.8811 14.425-0.37306 0.90181-0.73029 1.5931-1.3883 2.6865-0.9012 1.4976-1.995 2.9692-2.9397 3.9554-0.068 0.071-0.12089 0.13193-0.11743 0.13534 3e-3 3e-3 0.24534-0.11094 0.53753-0.25413 0.94913-0.46513 1.6851-0.81053 2.7188-1.2759 1.2412-0.55881 2.1383-1.013 3.1466-1.5932 1.2306-0.70804 2.1989-1.5119 3.1531-2.6179 1.5682-1.8175 2.8701-4.3361 3.8325-7.4141 0.12578-0.40228 0.22537-0.73901 0.32887-1.112 0.0698-0.25159 0.0803-0.27678 0.16927-0.40625 0.52324-0.76152 1.1891-1.2341 1.9634-1.3934 0.38934-0.08011 0.89907-0.0855 1.2109-0.01282 0.81947 0.191 1.3246 0.6202 1.5457 1.3133 0.0897 0.28129 0.11525 0.4732 0.11554 0.86892 3.6e-4 0.49059-0.036 0.73983-0.24802 1.6986-1.2029 5.4403-3.2466 9.4698-6.14 12.106-1.025 0.93398-2.079 1.6382-3.4061 2.2755-1.7562 0.84349-3.8491 1.7282-5.2422 2.216-1.5706 0.54996-4.0514 1.4493-4.1389 1.5004-0.0332 0.0194-0.0543 0.0198 0.43575-8e-3 3.7599-0.21344 7.723-0.77962 11.758-1.6797 0.34271-0.0765 0.3666-0.0797 0.51512-0.0702 0.32062 0.0205 0.6219 0.10001 0.87353 0.23063 0.26441 0.13726 0.55385 0.39208 0.73218 0.6446 0.10211 0.14459 0.12395 0.1891 0.19752 0.40245 0.46704 1.3545-0.0663 2.3319-1.6074 2.946-0.44204 0.17614-2.2398 0.7431-3.4453 1.0866-1.6794 0.47848-2.7908 0.74129-4.7344 1.1196-0.75625 0.14719-1.9406 0.37969-2.632 0.51667-1.3766 0.27276-1.2849 0.26057-1.743 0.23173z"/>
			<path transform="matrix(.26458 0 0 .26458 0 246.2)" d="m164.35 162.68c-0.93443-0.11976-2.0217-0.45799-2.9626-0.92166-1.1963-0.5895-2.1872-1.3257-3.3607-2.4967-3.0982-3.0917-4.9488-7.0713-5.3227-11.447-0.0303-0.35502-0.0549-2.2631-0.0642-4.9939-0.014-4.1093-0.0345-5.2141-0.15831-8.5516-0.32977-8.8882-1.0846-17.053-2.2795-24.66-1.1124-7.0813-2.884-13.29-5.4348-19.048-0.59583-1.3449-1.7896-3.7432-2.4725-4.9673-5.0684-9.0854-13.202-17.741-23.511-25.02-4.8188-3.4024-9.9411-6.4499-15.876-9.4452l-1.2478-0.62976-1e-3 -0.7513c-6.2e-4 -0.41322-0.0298-1.4474-0.0649-2.2981s-0.0777-2.1678-0.0947-2.9268l-0.0309-1.38 1.1448 0.52219c2.9271 1.3352 6.9511 3.3042 9.4091 4.6039 9.5528 5.0513 18.147 10.73 24.649 16.289 1.7982 1.5372 3.2494 2.8885 4.9847 4.642 3.4681 3.5043 5.7972 6.4215 8.5514 10.711 10.177 15.849 15.924 36.845 17.188 62.8 0.19681 4.0403 0.25847 6.7342 0.25997 11.358 1e-3 3.3581-0.0729 8.4216-0.12375 8.4754-6e-3 7e-3 -0.27784 0.0513-0.60335 0.0992-0.64 0.0942-1.9822 0.11334-2.579 0.0369z"/>
		</g>
	</g>
</svg>
