<?xml version="1.0" encoding="UTF-8" standalone="no"?>
<svg
   xmlns:dc="http://purl.org/dc/elements/1.1/"
   xmlns:cc="http://creativecommons.org/ns#"
   xmlns:rdf="http://www.w3.org/1999/02/22-rdf-syntax-ns#"
   xmlns:svg="http://www.w3.org/2000/svg"
   xmlns="http://www.w3.org/2000/svg"
   xmlns:sodipodi="http://sodipodi.sourceforge.net/DTD/sodipodi-0.dtd"
   xmlns:inkscape="http://www.inkscape.org/namespaces/inkscape"
   viewBox="0 -410 2048 2048"
   id="svg2"
   version="1.1"
   inkscape:version="0.48.2 r9819"
   width="100%"
   height="100%"
   sodipodi:docname="bn.svg">
  <metadata
     id="metadata12">
    <rdf:RDF>
      <cc:Work
         rdf:about="">
        <dc:format>image/svg+xml</dc:format>
        <dc:type
           rdf:resource="http://purl.org/dc/dcmitype/StillImage" />
      </cc:Work>
    </rdf:RDF>
  </metadata>
  <defs
     id="defs10" />
  <sodipodi:namedview
     pagecolor="#ffffff"
     bordercolor="#666666"
     borderopacity="1"
     objecttolerance="10"
     gridtolerance="10"
     guidetolerance="10"
     inkscape:pageopacity="0"
     inkscape:pageshadow="2"
     inkscape:window-width="640"
     inkscape:window-height="828"
     id="namedview8"
     showgrid="false"
     inkscape:zoom="0.11523438"
     inkscape:cx="1024"
     inkscape:cy="1024"
     inkscape:window-x="0"
     inkscape:window-y="0"
     inkscape:window-maximized="0"
     inkscape:current-layer="svg2" />
  <g
     transform="matrix(1 0 0 -1 0 1638)"
     id="g4">
    <path
       fill="#000000"
       d="M1156 836q25 5 56.5 11.5t67.5 18.5q32 10 21 36q-7 11 -20 11q-71 -16 -134 -19q24 9 50 18.5t51 21.5q78 37 103 162q5 29 -19 33q-21 2 -33 -17q-24 -89 -76 -120q-17 -10 -35 -18t-36 -17q20 21 37 51q31 52 42 184q-7 35 -35 26q-9 -5 -12 -9q-18 -142 -49 -187 q-11 -11 -15 -19q-9 -7 -16.5 -13.5t-14.5 -12.5q-17 -22 -17 -50q0 -34 19.5 -62t64.5 -29zM1085 1510q277 -136 409 -334q81 -123 108 -292t27 -379q-5 -81 45.5 -142t113.5 -48q19 608 -216 927q-72 96 -201 186t-288 161q0 -21 1 -42.5t1 -36.5zM497 673 q11 18 25.5 35.5t26.5 39.5q22 45 -22 53q-8 2 -18 -2q-29 -39 -63 -79q-5 -4 -23 -20q-9 -30 -1 -46q13 -30 49 -4q18 14 26 23zM849 930q3 12 7.5 24t7.5 24q9 39 -22 39q-11 0 -27 -18q-7 -16 -14 -31.5t-11 -28.5q-3 -10 -9 -28q-2 -15 12 -22q21 -12 43 19q7 7 13 22z M382 850q10 14 23 28.5t23 32.5q20 37 -19 43q-6 1 -17 -1q-24 -31 -56 -65q-12 -9 -20 -16q-8 -25 -1 -37q12 -25 44 -4q16 12 23 19zM677 1294q7 -43 23 -49t45 -4q39 3 60 16q42 27 74 117q-32 -10 -60 -10t-67 -3q-55 -5 -75 -67zM664 714q-14 -15 -22.5 -21.5 t-14.5 -12.5q-5 -5 -65 -66q-23 -25 -55 -32q-21 -6 -59 5q-125 33 -197 132q-28 37 -39.5 89.5t10.5 133.5q22 82 159 187q149 114 175 181q22 39 50.5 86t67.5 91q24 17 45.5 39.5t42.5 46.5v123q55 -11 81 -32q12 -13 26.5 -24t26.5 -24q25 45 32 75q1 7 7 28t12 69 q15 4 26 -8q46 -52 87 -116q183 -73 334.5 -173t232.5 -208q229 -311 229 -916q0 -127 -13 -232h-1365q-13 130 138 276q68 66 141.5 128t143.5 126q130 120 144 192q-5 12 -19 16q-35 -21 -70 -27t-69 -8q-22 -1 -43.5 -1.5t-50.5 9.5q-39 -44 -66.5 -75.5t-62.5 -56.5z "
       id="path6" />
  </g>
  <path
     style="fill:#ececec;fill-opacity:1;fill-rule:nonzero;stroke-linecap:butt;stroke-linejoin:round"
     d="m 1712.4133,1711.8063 c -15.1353,-9.2288 -38.3724,-35.2998 -51.6378,-57.9356 -23.0131,-39.2689 -24.4077,-48.147 -30.4164,-193.6286 -11.0256,-266.9498 -33.709,-392.965 -93.0533,-516.94718 -70.9013,-148.12724 -210.9284,-281.23102 -408.5354,-388.33646 -39.9845,-21.67208 -44.0246,-26.64942 -44.0246,-54.23729 0,-16.70647 2.9288,-30.29159 6.5084,-30.18916 14.1834,0.40588 184.302,94.45934 253.8305,140.33528 200.693,132.42008 308.2553,285.30164 380.4175,540.69881 35.2886,124.8937 61.8593,346.8099 62.0826,518.5085 0.075,58.1423 -0.1005,58.576 -23.7882,58.5438 -13.1254,-0.017 -36.2479,-7.5832 -51.3833,-16.8121 l 0,0 z"
     id="path2989"
     inkscape:connector-curvature="0"
     transform="translate(0,-410)" />
  <path
     style="fill:#ececec;fill-opacity:1;fill-rule:nonzero;stroke-linecap:butt;stroke-linejoin:round"
     d="m 1122.0815,1199.1926 c -22.7091,-9.1453 -46.0137,-50.8469 -46.0137,-82.3375 0,-14.2555 11.5994,-34.3732 31.5205,-54.6683 38.5374,-39.2607 52.8918,-71.77505 69.1106,-156.54353 6.8781,-35.94844 14.217,-67.0722 16.3088,-69.16392 2.0917,-2.09173 10.3258,-1.30012 18.2981,1.75912 12.3221,4.72844 13.6088,13.6701 8.5831,59.64833 -8.5075,77.8319 -18.9219,111.4852 -47.8128,154.5026 -14.0472,20.9159 -24.2111,39.3581 -22.5864,40.9828 5.795,5.795 87.4339,-40.0693 104.4764,-58.6942 9.5458,-10.4321 27.1186,-38.96637 39.0508,-63.40954 37.4327,-76.68087 66.1101,-58.12652 39.6921,25.68086 -19.848,62.96508 -63.7311,106.12738 -135.629,133.40118 -46.3311,17.5753 -51.916,21.6787 -32.5485,23.9147 12.8583,1.4844 45.8464,-1.4543 73.3066,-6.5306 35.4018,-6.5444 52.5853,-6.5285 59.0618,0.055 14.2963,14.5315 -15.6918,31.497 -82.555,46.7047 -66.8936,15.2146 -66.2341,15.1811 -92.2634,4.6987 l 0,0 z"
     id="path2991"
     inkscape:connector-curvature="0"
     transform="translate(0,-410)" />
  <path
     style="fill:#ececec;fill-opacity:1;fill-rule:nonzero;stroke-linecap:butt;stroke-linejoin:round"
     d="m 789.69492,1136.6852 c 0,-29.1457 36.5719,-97.9327 52.06779,-97.9327 19.2328,0 14.91968,61.2583 -6.31787,89.7315 -23.14135,31.0257 -45.74992,35.0785 -45.74992,8.2012 z"
     id="path2993"
     inkscape:connector-curvature="0"
     transform="translate(0,-410)" />
  <path
     style="fill:#ececec;fill-opacity:1;fill-rule:nonzero;stroke-linecap:butt;stroke-linejoin:round"
     d="m 695.97288,789.69492 c -21.68904,-21.68905 -7.38199,-68.03481 26.66668,-86.38311 10.6296,-5.72813 47.62441,-12.75455 82.21069,-15.61429 60.07184,-4.96698 62.63743,-4.42221 57.36768,12.18132 -9.70442,30.57591 -41.1694,72.43743 -65.05064,86.54443 -27.36515,16.16499 -86.39269,18.07337 -101.19441,3.27165 z"
     id="path2995"
     inkscape:connector-curvature="0"
     transform="translate(0,-410)" />
  <path
     style="fill:#ececec;fill-opacity:1;fill-rule:nonzero;stroke-linecap:butt;stroke-linejoin:round"
     d="m 326.56473,1219.2382 c -14.22653,-14.2266 -1.99341,-42.6931 34.88204,-81.1705 33.94301,-35.4177 43.00768,-40.6997 56.9976,-33.2125 15.85205,8.4838 15.94175,9.9978 1.90442,32.146 -31.80974,50.1895 -81.90455,94.1165 -93.78406,82.237 z"
     id="path2997"
     inkscape:connector-curvature="0"
     transform="translate(0,-410)" />
  <path
     style="fill:#ececec;fill-opacity:1;fill-rule:nonzero;stroke-linecap:butt;stroke-linejoin:round"
     d="m 431.00565,1401.7808 c -13.41044,-13.4104 -4.04662,-49.6708 19.42817,-75.2334 13.86741,-15.1007 34.73001,-38.8488 46.36132,-52.7735 23.73712,-28.4174 49.91672,-26.3425 49.91672,3.9563 0,22.1799 -43.49886,87.124 -74.89715,111.8219 -24.45651,19.2375 -31.6459,21.3918 -40.80906,12.2287 z"
     id="path2999"
     inkscape:connector-curvature="0"
     transform="translate(0,-410)" />
</svg>
