<?xml version="1.0" encoding="UTF-8"?>
<svg width="144pt" height="144pt" version="1.1" viewBox="0 0 50.8 50.8" xmlns="http://www.w3.org/2000/svg">
	<g transform="translate(0,-246.2)">
		<g transform="translate(.001152 .07585)" aria-label="o">
			<path d="m25.412 293.61h-13.519q0.47129-5.333 4.5393-9.0041 0.66973-0.62012 0.74414-0.66973 2.1084-1.7363 3.5967-4.1424-3.8199-2.5053-3.8199-7.0693 0-2.8277 1.7115-5.085 0.57051-0.71934 1.2154-1.6371 0.66973-0.91777 1.0666-1.7859-0.59531 0.14883-1.8107 0.47129-1.1906 0.32246-1.7611 0.54571 1.7115-1.5875 3.2494-3.7703 1.5627-2.1828 1.8355-4.6385-1.265-1.2898-1.265-3.0262 0-1.7363 1.2154-2.9766 1.2402-1.2402 3.0014-1.2402 1.7115 0 2.9518 1.2402 1.2402 1.2402 1.2402 2.9766 0 1.7611-1.265 3.0262 0.27285 2.4557 1.8355 4.6385 1.5875 2.1828 3.299 3.7703-0.57051-0.22325-1.8107-0.54571-1.2154-0.32246-1.8107-0.47129 0.39688 0.86817 1.0418 1.7859 0.66973 0.91777 1.265 1.6371 1.7115 2.2572 1.7115 5.085 0 4.5641-3.8199 7.0693 1.4139 2.3812 3.5719 4.1424 0.37207 0.29766 0.74414 0.66973 4.0928 3.6711 4.5393 9.0041z" stroke-width=".26458"/>
		</g>
	</g>
</svg>
