<?xml version="1.0" encoding="UTF-8" standalone="no"?>
<svg
   xmlns:dc="http://purl.org/dc/elements/1.1/"
   xmlns:cc="http://creativecommons.org/ns#"
   xmlns:rdf="http://www.w3.org/1999/02/22-rdf-syntax-ns#"
   xmlns:svg="http://www.w3.org/2000/svg"
   xmlns="http://www.w3.org/2000/svg"
   xmlns:sodipodi="http://sodipodi.sourceforge.net/DTD/sodipodi-0.dtd"
   xmlns:inkscape="http://www.inkscape.org/namespaces/inkscape"
   viewBox="0 -410 2048 2048"
   id="svg2"
   version="1.1"
   inkscape:version="0.48.2 r9819"
   width="100%"
   height="100%"
   sodipodi:docname="bq.svg">
  <metadata
     id="metadata12">
    <rdf:RDF>
      <cc:Work
         rdf:about="">
        <dc:format>image/svg+xml</dc:format>
        <dc:type
           rdf:resource="http://purl.org/dc/dcmitype/StillImage" />
      </cc:Work>
    </rdf:RDF>
  </metadata>
  <defs
     id="defs10" />
  <sodipodi:namedview
     pagecolor="#ffffff"
     bordercolor="#666666"
     borderopacity="1"
     objecttolerance="10"
     gridtolerance="10"
     guidetolerance="10"
     inkscape:pageopacity="0"
     inkscape:pageshadow="2"
     inkscape:window-width="640"
     inkscape:window-height="830"
     id="namedview8"
     showgrid="false"
     inkscape:zoom="0.11523438"
     inkscape:cx="1024"
     inkscape:cy="1024"
     inkscape:window-x="0"
     inkscape:window-y="0"
     inkscape:window-maximized="0"
     inkscape:current-layer="svg2" />
  <g
     transform="matrix(1 0 0 -1 0 1638)"
     id="g4">
    <path
       fill="#000000"
       d="M1073 1680q15 -162 30.5 -323.5t31.5 -322.5q1 -23 23 -23q16 1 22 14q87 210 128.5 325.5t50.5 142.5q-46 44 -46 99q0 48 34.5 82.5t83.5 34.5q48 0 82.5 -34.5t34.5 -82.5q0 -87 -90 -118l-73 -436q-5 -30 21 -30q21 0 32 11q120 120 172.5 186t73.5 92q-22 29 -22 70 q0 117 117 117q48 0 82.5 -34.5t34.5 -82.5q0 -49 -34.5 -83t-82.5 -34q-15 0 -27 3q-80 -173 -128 -354q-41 -147 -51 -279q6 -28 7 -29q-3 12 4 -23q4 -16 4 -31q-6 -16 -25 -36q-17 -19 -25 -75q37 -52 37 -84q0 -84 -162 -144t-389 -60q-228 0 -389.5 60t-161.5 144 q0 33 39 86q-12 57 -26 73q-20 20 -26 36q0 13 3 30q2 8 3 14.5t2 9.5q4 11 8 31q-10 126 -49 277q-52 190 -129 356q-17 -5 -35 -5q-117 0 -117 117t117 117t117 -117q0 -36 -18 -65q59 -75 118.5 -139.5t131.5 -141.5q9 -13 26 -13q29 0 26 30q-2 9 -25 143t-50 292 q-95 26 -95 119q0 48 34.5 82.5t82.5 34.5q117 0 117 -117q0 -52 -40 -95q5 -21 25 -83.5t62 -164.5q23 -56 46.5 -112.5t47.5 -111.5q6 -13 21 -13q21 1 24 22q2 12 61 645q-71 38 -71 113q0 48 34 83t83 35q48 0 82.5 -35t34.5 -83q0 -68 -65 -112zM803 648q-55 0 -55 -58 q0 -59 55 -59q56 0 56 59q0 58 -56 58zM498 858q12 -41 21.5 -73.5t16.5 -70.5q6 -3 18 -3q84 25 206.5 44t263.5 19q144 0 268 -19.5t208 -44.5q5 0 15 4q6 36 16 67.5t22 73.5q-114 26 -249 51t-280 25t-277 -24.5t-249 -48.5zM1502 543l-72 69l-92 -37l73 -69zM1151 614 l-129 67l-124 -67l129 -68zM719 574l-101 34l-80 -63l100 -34zM1244 648q-56 0 -56 -58q0 -59 56 -59t56 59q0 58 -56 58zM1463 301q-6 30 -14 50q-12 26 -24 34.5t-22 22.5q-53 34 -148.5 58.5t-230.5 21.5q-138 3 -232 -21.5t-146 -58.5q-13 -12 -25 -21.5t-21 -34.5 q-10 -30 -14 -51q-2 -34 30 -34q30 0 30 33q9 104 376 104q371 0 381 -104q-2 -33 30 -33q30 0 30 34z"
       id="path6" />
  </g>
  <path
     style="fill:#ececec;fill-opacity:1;fill-rule:nonzero;stroke-linecap:butt;stroke-linejoin:round"
     d="m 523.37516,1263.941 -17.72825,-70.1057 18.36299,-4.1999 c 41.86961,-9.5763 248.50622,-47.1626 306.39815,-55.7325 88.02359,-13.0305 303.49755,-11.1931 406.20215,3.4636 80.5245,11.4915 300.5532,55.1127 306.2359,60.712 3.0103,2.966 -30.8776,127.0693 -36.1327,132.3244 -2.0203,2.0204 -20.6641,-0.909 -41.4307,-6.5098 -161.1028,-43.4496 -456.6611,-63.7888 -632.25749,-43.5095 -81.07381,9.363 -207.22148,31.7727 -269.59215,47.8921 -21.68659,5.6048 -22.8402,3.7521 -40.0579,-64.3347 z"
     id="path2989"
     inkscape:connector-curvature="0"
     transform="translate(0,-410)" />
  <path
     style="fill:#ececec;fill-opacity:1;fill-rule:nonzero;stroke-linecap:butt;stroke-linejoin:round"
     d="m 587.67013,1516.5588 -41.48241,-14.6248 36.83185,-28.3079 c 20.25751,-15.5694 41.44694,-26.537 47.08762,-24.3724 5.64068,2.1645 26.10448,8.6839 45.47514,14.4875 l 35.21936,10.5519 -38.13448,29.1179 c -20.97396,16.0148 -39.34503,28.8152 -40.82458,28.4452 -1.47955,-0.3699 -21.35717,-7.2537 -44.1725,-15.2974 z"
     id="path2991"
     inkscape:connector-curvature="0"
     transform="translate(0,-410)" />
  <path
     style="fill:#ececec;fill-opacity:1;fill-rule:nonzero;stroke-linecap:butt;stroke-linejoin:round"
     d="m 773.79519,1501.3314 c -28.40423,-19.8951 -23.55115,-71.6604 8.39128,-89.5052 20.47803,-11.4402 25.23313,-11.2214 45.55932,2.0969 30.01852,19.6689 31.88777,67.7928 3.40806,87.7408 -24.22608,16.9686 -32.72825,16.9193 -57.35866,-0.3325 z"
     id="path2993"
     inkscape:connector-curvature="0"
     transform="translate(0,-410)" />
  <path
     style="fill:#ececec;fill-opacity:1;fill-rule:nonzero;stroke-linecap:butt;stroke-linejoin:round"
     d="m 968.43923,1465.8689 -59.89976,-30.3715 54.51222,-30.7202 54.51221,-30.7202 59.6647,28.8639 c 32.8155,15.8751 56.7179,31.42 53.1163,34.5441 -3.6016,3.1241 -28.0263,17.6266 -54.2771,32.2277 l -47.7288,26.5476 -59.89977,-30.3714 z"
     id="path2995"
     inkscape:connector-curvature="0"
     transform="translate(0,-410)" />
  <path
     style="fill:#ececec;fill-opacity:1;fill-rule:nonzero;stroke-linecap:butt;stroke-linejoin:round"
     d="m 1214.7919,1499.462 c -25.6496,-20.7697 -25.6496,-60.6221 0,-81.3918 23.7339,-19.2186 34.091,-19.6055 58.9382,-2.2019 37.5114,26.274 15.8815,99.3046 -29.4115,99.3046 -5.5686,0 -18.8556,-7.0699 -29.5267,-15.7109 z"
     id="path2997"
     inkscape:connector-curvature="0"
     transform="translate(0,-410)" />
  <path
     style="fill:#ececec;fill-opacity:1;fill-rule:nonzero;stroke-linecap:butt;stroke-linejoin:round"
     d="m 1378.6251,1502.719 -31.5443,-29.3403 36.1734,-13.8148 c 48.3064,-18.4483 49.6307,-18.2025 82.0282,15.2232 l 28.1447,29.0379 -37.58,14.3519 c -20.6689,7.8936 -39.4019,14.2463 -41.6288,14.1171 -2.2268,-0.1291 -18.2438,-13.4379 -35.5932,-29.575 z"
     id="path2999"
     inkscape:connector-curvature="0"
     transform="translate(0,-410)" />
  <path
     style="fill:#ececec;fill-opacity:1;fill-rule:nonzero;stroke-linecap:butt;stroke-linejoin:round"
     d="m 594.32368,1766.6446 c -3.35153,-5.4229 -1.21118,-27.2984 4.75634,-48.6123 27.42723,-97.9604 176.22366,-150.8992 423.51388,-150.6776 264.3852,0.2369 422.4102,62.9008 428.9174,170.0847 1.8665,30.7432 0.1249,33.7335 -19.6469,33.7335 -16.5664,0 -22.3948,-5.1285 -24.6556,-21.6949 -5.6288,-41.2453 -45.3314,-70.1805 -119.8143,-87.3207 -70.0645,-16.1234 -256.9178,-24.197 -381.16311,-16.4694 -175.51274,10.9163 -246.74651,37.4838 -262.29868,97.8275 -7.38485,28.6539 -37.51324,42.7006 -49.60903,23.1292 z"
     id="path3001"
     inkscape:connector-curvature="0"
     transform="translate(0,-410)" />
</svg>
