<?xml version="1.0" encoding="UTF-8"?>
<svg width="144pt" height="144pt" version="1.1" viewBox="0 0 50.8 50.8" xmlns="http://www.w3.org/2000/svg">
	<g transform="translate(0,-246.2)">
		<g transform="translate(-.096894 .03804)" aria-label="w">
			<path d="m26.69 255.33q0.37207 4.0184 0.74414 8.0367 0.39688 3.9936 0.79375 7.9871 0.0248 0.57051 0.57051 0.57051 0.39688-0.0248 0.5457-0.34726 2.158-5.209 3.175-8.0615 1.0418-2.8773 1.265-3.5471-1.141-1.0914-1.141-2.4557 0-1.1906 0.84336-2.034 0.86816-0.86816 2.0836-0.86816 1.1906 0 2.034 0.86816 0.86816 0.84336 0.86816 2.034 0 2.158-2.2324 2.927l-1.8107 10.815q-0.12402 0.74415 0.5209 0.74415 0.5209 0 0.79375-0.27286 2.9766-2.9766 4.2664-4.6137 1.3146-1.6371 1.8355-2.282-0.5457-0.71934-0.5457-1.7363 0-2.9022 2.9021-2.9022 1.1906 0 2.034 0.86817 0.86816 0.84336 0.86816 2.034 0 1.2154-0.86816 2.0588-0.84336 0.84336-2.034 0.84336-0.37207 0-0.66973-0.0744-1.9844 4.2912-3.175 8.7809-1.017 3.6463-1.265 6.9205 0.14883 0.69454 0.17363 0.71934-0.07441-0.29766 0.09922 0.57051 0.09922 0.39687 0.09922 0.76894-0.14883 0.39688-0.62012 0.89297-0.42168 0.47129-0.62012 1.8604 0.91777 1.2898 0.91777 2.0836 0 2.0836-4.0184 3.5719-4.0184 1.4883-9.649 1.4883-5.6555 0-9.6738-1.4883-3.9936-1.4883-3.9936-3.5719 0-0.81856 0.96738-2.1332-0.29766-1.4139-0.64492-1.8107-0.49609-0.49609-0.64492-0.89297 0-0.32246 0.07441-0.74414 0.04961-0.19844 0.07441-0.34726 0.0248-0.17364 0.04961-0.24805 0.09922-0.27285 0.19844-0.76895-0.24805-3.1254-1.2154-6.8709-1.2898-4.7129-3.1998-8.8305-0.42168 0.12402-0.86816 0.12402-2.9021 0-2.9021-2.9022t2.9021-2.9022q2.9021 0 2.9021 2.9022 0 0.89297-0.44648 1.6123 1.4635 1.8604 2.927 3.4726 1.4883 1.5875 3.2742 3.4975 0.22324 0.32247 0.64492 0.32247 0.71934 0 0.64492-0.74415-0.04961-0.22324-0.62012-3.5471-0.57051-3.3238-1.2402-7.243-2.3564-0.64493-2.3564-2.9518 0-1.1906 0.84336-2.034 0.86816-0.86816 2.0588-0.86816 2.9021 0 2.9021 2.9022 0 1.2898-0.99219 2.3564 0.12402 0.5209 0.62012 2.0836 0.49609 1.5379 1.5379 4.068 0.57051 1.3891 1.141 2.8029 0.59531 1.3891 1.1906 2.7533 0.14883 0.32246 0.5209 0.32246 0.5209-0.0248 0.59531-0.54571 0.04961-0.29765 1.5131-15.999-1.7611-0.94258-1.7611-2.8029 0-1.1906 0.84336-2.0588 0.84336-0.86816 2.0588-0.86816 1.1906 0 2.034 0.86816 0.86816 0.86817 0.86816 2.0588 0 1.6867-1.6123 2.7781zm-6.6973 25.598q-1.3643 0-1.3643 1.4387 0 1.4635 1.3643 1.4635 1.3891 0 1.3891-1.4635 0-1.4387-1.3891-1.4387zm-7.5654-5.209q0.29766 1.017 0.5209 1.8356 0.24805 0.79375 0.42168 1.7363 0.14883 0.0744 0.44648 0.0744 2.0836-0.62012 5.1098-1.0914 3.051-0.47129 6.5484-0.47129 3.5719 0 6.6477 0.4961 3.0758 0.47128 5.1594 1.0914 0.12402 0 0.37207-0.0992 0.14883-0.89297 0.39688-1.6619 0.24805-0.79375 0.5457-1.8356-2.8277-0.64492-6.1764-1.265-3.3486-0.62011-6.9453-0.62011t-6.8709 0.62011q-3.2742 0.59532-6.1764 1.1906zm24.904 7.8135-1.7859-1.7115-2.282 0.91777 1.8107 1.7115zm-8.7064-1.7611-3.1998-1.6619-3.0758 1.6619 3.1998 1.6867zm-10.716 0.99219-2.5053-0.84336-1.9844 1.5627 2.4805 0.84335zm13.022-1.8356q-1.3891 0-1.3891 1.4387 0 1.4635 1.3891 1.4635 1.3891 0 1.3891-1.4635 0-1.4387-1.3891-1.4387zm5.4322 8.6072q-0.14883-0.74414-0.34727-1.2402-0.29766-0.64492-0.59531-0.84335-0.29766-0.22325-0.5457-0.57051-1.3146-0.84336-3.6959-1.4387-2.3564-0.62012-5.7051-0.54571-3.423-0.0744-5.7547 0.54571-2.3316 0.59531-3.6215 1.4387-0.32246 0.29765-0.62012 0.5457-0.29766 0.22324-0.5209 0.84336-0.24805 0.74414-0.34727 1.265-0.04961 0.84336 0.74414 0.84336 0.74414 0 0.74414-0.81856 0.22324-2.5797 9.3266-2.5797 9.2025 0 9.4506 2.5797-0.04961 0.81856 0.74414 0.81856 0.74414 0 0.74414-0.84336z" stroke-width=".26458"/>
		</g>
		<g fill="#fff" stroke-width=".2">
			<path transform="matrix(.26458 0 0 .26458 0 246.2)" d="m140.09 125.44c-4.1187-1.2235-9.8096-2.4725-15.893-3.4881-1.601-0.26728-3.9559-0.63888-5.1004-0.80484-5.4534-0.79074-11.074-1.2783-16.987-1.4734-3.6076-0.11904-7.9576-0.13182-11.384-0.0334-7.3679 0.21155-13.828 0.7972-20.458 1.8548-6.843 1.0915-12.737 2.3455-17.578 3.7401l-0.81473 0.23469-0.37946-0.0114c-0.51417-0.0155-0.91426-0.0878-1.2398-0.22409l-0.07913-0.0331-0.08424-0.44246c-0.37412-1.965-0.89191-4.0957-1.3985-5.755-0.05997-0.19643-0.21437-0.73884-0.3431-1.2054-0.43897-1.5908-1.1373-4.0464-1.5961-5.6132-0.07361-0.25131-0.12962-0.46116-0.12446-0.46632 0.02265-0.0226 6.3142-1.2846 9.3054-1.8664 4.1116-0.7998 8.2725-1.5854 12.357-2.333 0.87779-0.16067 1.8069-0.33146 2.0647-0.37954 6.5363-1.2189 13.427-1.9513 20.58-2.1872 3.0496-0.1006 6.8565-0.10063 9.9777-8e-5 7.1475 0.23025 14.172 0.96963 20.904 2.2002 7.5441 1.3791 16.79 3.2669 23.362 4.7698l0.31547 0.0721-0.19934 0.69197c-0.58114 2.0173-1.1702 3.9976-1.6632 5.5915-0.57681 1.8648-0.67868 2.2178-0.93072 3.2254-0.26002 1.0396-0.53541 2.3466-0.71254 3.3817l-0.0516 0.30134-0.077 0.0378c-0.13445 0.066-0.73975 0.25779-0.92518 0.29314-0.35384 0.0675-0.36195 0.0667-0.84821-0.0777z"/>
			<path transform="matrix(.26458 0 0 .26458 0 246.2)" d="m55.882 142.93c-2.1106-0.7178-4.2156-1.4336-4.6779-1.5906s-0.84164-0.28657-0.84307-0.28786c-2e-3 -2e-3 7.4501-5.8741 7.4855-5.8986 0.0062-4e-3 0.11644 0.0317 0.79405 0.25981 0.43274 0.14565 0.9626 0.32398 1.1775 0.39628s0.84255 0.28361 1.3949 0.46959c0.55233 0.18598 1.101 0.37068 1.2193 0.41045 0.93104 0.31305 4.8828 1.6438 4.8834 1.6445 0.0019 2e-3 -7.5846 5.9001-7.5901 5.9008-0.0034 4.2e-4 -1.733-0.58652-3.8436-1.3043z"/>
			<path transform="matrix(.26458 0 0 .26458 0 246.2)" d="m74.908 142.36c-0.89249-0.0305-1.6296-0.18156-2.287-0.46882-0.09338-0.0408-0.32745-0.16055-0.41984-0.21479-1.2508-0.73435-1.9572-2.0463-2.121-3.9392-0.02801-0.32369-0.03331-0.46582-0.03338-0.89493-6.8e-5 -0.39354 0.0025-0.47991 0.02246-0.75682 0.08242-1.1429 0.36843-2.0855 0.85318-2.8119 0.15145-0.22692 0.30875-0.41682 0.50336-0.60767 0.11585-0.1136 0.17574-0.16687 0.2934-0.26098 0.65546-0.5242 1.5384-0.85104 2.5923-0.95959 0.31482-0.0324 0.46351-0.039 0.88665-0.039 0.44658 0 0.61113 8e-3 0.95018 0.0446 1.6689 0.18154 2.8473 0.86547 3.5497 2.0602 0.06215 0.10571 0.18747 0.35385 0.2394 0.47406 0.31726 0.73431 0.48579 1.6194 0.50249 2.6389 0.0059 0.36196-0.0019 0.67802-0.02437 0.98056-0.14522 1.9574-0.86296 3.3124-2.1504 4.0599-0.73074 0.42425-1.6275 0.65212-2.73 0.6937-0.12931 5e-3 -0.50556 6e-3 -0.627 2e-3z"/>
			<path transform="matrix(.26458 0 0 .26458 0 246.2)" d="m90.154 137.77c-3.323-1.7517-6.0417-3.1861-6.0416-3.1878 1.82e-4 -2e-3 11.576-6.2582 11.606-6.2721 0.0078-4e-3 1.4057 0.72018 6.0431 3.1288 3.3182 1.7234 6.0369 3.1363 6.0416 3.1397 7e-3 5e-3 -1.0673 0.59627-5.7993 3.1912l-5.8079 3.185z"/>
			<path transform="matrix(.26458 0 0 .26458 0 246.2)" d="m116.21 142.35c-0.2837-0.0132-0.44746-0.0252-0.63529-0.0465-1.0797-0.12221-1.9527-0.45742-2.624-1.0076-0.18408-0.15086-0.37844-0.34524-0.53046-0.53051-0.65594-0.79943-1.0264-1.9012-1.11-3.3008-0.0305-0.51151-0.0238-1.0395 0.0193-1.5219 0.11086-1.2388 0.46831-2.2293 1.0686-2.961 0.16894-0.20594 0.37658-0.4096 0.58569-0.57448 0.69343-0.54675 1.6087-0.875 2.7262-0.97772 0.0501-5e-3 0.10606-0.01 0.12429-0.0113 0.33209-0.0296 0.94181-0.032 1.3341-5e-3 1.2874 0.0882 2.3012 0.45364 3.0549 1.1011 0.0916 0.0787 0.25059 0.23402 0.33454 0.32684 0.60262 0.66636 0.98115 1.5576 1.1426 2.6901 0.10443 0.73261 0.11302 1.6657 0.0224 2.4362-0.13745 1.1688-0.49127 2.0977-1.0658 2.798-0.16191 0.19737-0.3618 0.39514-0.56008 0.55416-0.41801 0.33523-0.91138 0.58901-1.4785 0.76051-0.50564 0.1529-1.0692 0.24138-1.707 0.268-0.11602 5e-3 -0.61013 6e-3 -0.70158 2e-3z"/>
			<path transform="matrix(.26458 0 0 .26458 0 246.2)" d="m128.78 141.47c-1.8786-1.7761-3.4163-3.2311-3.417-3.2333-7.5e-4 -2e-3 0.0606-0.0289 0.13639-0.0593 0.0758-0.0304 2.0133-0.80959 4.3057-1.7316 2.2924-0.92198 4.1693-1.6766 4.1709-1.677 3e-3 -6.8e-4 6.7497 6.4628 6.7479 6.4645-2e-3 2e-3 -8.5168 3.4636-8.5224 3.4648-3e-3 7.1e-4 -1.4297-1.3449-3.4216-3.2281z"/>
			<path transform="matrix(.26458 0 0 .26458 0 246.2)" d="m57.41 167.09c-0.98168-0.0421-1.6849-0.37624-2.1063-1.0007-0.2168-0.32129-0.36175-0.74974-0.42704-1.2623-0.01262-0.0991-0.02066-0.31569-0.0203-0.54688l6.02e-4 -0.38281 0.07354-0.3389c0.19743-0.90987 0.39679-1.6805 0.69046-2.6689 0.22931-0.77184 0.50596-1.631 0.63643-1.9766 0.27166-0.71949 0.61015-1.4102 0.92653-1.8906 0.29604-0.44954 0.53714-0.71701 0.97613-1.0829 0.61232-0.51038 1.3211-1.1302 1.9688-1.7217 0.35099-0.32057 0.40248-0.35925 0.83594-0.62805 3.0098-1.8665 7.0907-3.4954 12.18-4.8617 2.2347-0.59994 3.687-0.92817 5.5-1.2431 3.7264-0.6472 7.7182-1.0025 12.305-1.0952 1.0792-0.0218 9.879-0.011 10.57 0.013 1.6483 0.0572 2.3714 0.0899 3.3516 0.1513 4.1738 0.26169 7.9225 0.78806 11.352 1.5939 0.53779 0.12639 2.032 0.50708 2.7656 0.7046 4.9249 1.3261 8.8805 2.8841 11.836 4.662 0.63729 0.38337 0.59064 0.34732 0.78327 0.60535 0.58226 0.77998 1.2242 1.4284 1.9433 1.9629 0.35658 0.26505 0.72839 0.65616 1.0496 1.1041 0.42308 0.58999 1.0163 1.6816 1.2479 2.2964 0.43857 1.1642 0.81106 2.4971 1.1483 4.1094l0.0736 0.35156-0.0174 0.30469c-0.0212 0.36974-0.0638 0.66964-0.13416 0.94422-0.28895 1.1274-1.021 1.7512-2.2115 1.8844-0.19059 0.0213-0.74323 0.0211-0.94531-3.6e-4 -1.2249-0.13017-1.945-0.70238-2.2114-1.7573-0.077-0.30499-0.0972-0.50053-0.10196-0.98669-4e-3 -0.39091-9e-3 -0.46649-0.0459-0.6875-0.51587-3.0749-3.6078-5.3762-9.3282-6.9428-5.4142-1.4828-12.996-2.2743-23.219-2.4243-1.4055-0.0206-6.2312-0.0102-7.3594 0.0159-4.3253 0.1-7.3825 0.25722-10.523 0.54135-8.8383 0.79952-14.811 2.424-17.945 4.8805-0.30202 0.23675-0.49788 0.41114-0.79008 0.70347-0.72051 0.72085-1.1991 1.4576-1.4877 2.2903-0.17519 0.50539-0.26454 0.97698-0.28415 1.4998-0.04983 1.3286-0.48004 2.1645-1.3344 2.5928-0.44986 0.2255-1.0048 0.3182-1.721 0.28747z"/>
		</g>
	</g>
</svg>
