<?xml version="1.0" encoding="UTF-8"?>
<svg width="144pt" height="144pt" version="1.1" viewBox="0 0 50.8 50.8" xmlns="http://www.w3.org/2000/svg">
	<g transform="translate(0,-246.2)">
		<g transform="translate(.000449 .06083)" aria-label="t">
			<path d="m25.412 249.59h3.423v3.3734h5.1346v-3.3734h5.9035v8.8553l-3.9936 4.6137q1.2898 1.6371 0.04961 3.4478-0.19844 0.32246-0.19844 0.59532 0 0.32246 0.19844 0.62011 0.5209 0.76895 0.49609 2.1828 0 1.3891-0.5209 2.1828-0.17363 0.24804-0.17363 0.5209 0 0.34726 0.22324 0.64492 1.1658 1.7611-0.04961 3.4726-0.17363 0.29766-0.17363 0.57051t0.17363 0.57051q0.5457 0.81855 0.5457 2.282 0 1.4387-0.59531 2.1332l4.0184 2.0092v2.1332h1.6619v7.1934h-32.271v-7.1686h1.6867v-2.1332l3.9936-2.034q-0.59531-0.69453-0.59531-2.1332t0.5457-2.2572q0.19844-0.27285 0.19844-0.5705 0-0.24805-0.19844-0.57051-1.2154-1.7363-0.02481-3.4727 0.22324-0.39687 0.22324-0.64492t-0.17363-0.5457q-0.5457-0.79375-0.57051-2.1828 0-1.4139 0.5209-2.1828 0.22324-0.29765 0.22324-0.62011 0-0.27286-0.19844-0.57051-1.265-1.8107 0.04961-3.4727l-3.9936-4.5889v-8.8553h5.9035v3.3486l5.1098 0.0248v-3.3734zm-12.7 6.3004v2.158q3.175-0.14882 6.3252-0.29765 3.175-0.17363 6.3748-0.17363 3.1254 0 6.3004 0.19843 3.1998 0.19844 6.3996 0.27285 0-0.81855 0-1.0666 0-0.27285 0-1.0914zm1.0666 29.22q-1.0666 0.0992-1.0666 1.0666 0 1.0666 1.0666 1.0666l11.633-0.39687 11.633 0.39687q1.0666 0 1.0666-1.0666 0-0.96738-1.0666-1.0666-2.9021-0.17363-5.8291-0.29766-2.9021-0.14883-5.8043-0.14883-2.9021 0-5.8291 0.14883-2.9021 0.12403-5.8043 0.29766zm12.898-6.7221q0.71934-0.57051 2.1084-0.57051 1.4139 0 2.158 0.57051 0.74414 0.59531 0.74414 1.7859 0.02481 1.1906-0.74414 1.5627-0.79375 0.42168-2.158 0.42168t-2.1084-0.42168q-0.79375-0.37207-0.76894-1.5627 0.02481-1.1906 0.76894-1.7859zm-6.7965 0q0.74414-0.57051 2.1332-0.57051 1.3891 0 2.1332 0.57051 0.74414 0.59531 0.66973 1.7859-0.04961 1.1906-0.66973 1.5627-0.64492 0.42168-2.1828 0.39688-1.5131-0.0496-2.0836-0.39688-0.59531-0.32246-0.66973-1.5379-0.07441-1.2154 0.66973-1.8107zm5.5314-17.884q-2.3564 0-5.457 0.32246-3.1006 0.29766-3.8943 0.5457-0.81855 0.29766-0.74414 0.94258 0.07441 0.64492 0.74414 0.84336 0.66973 0.22324 2.6541-0.0496 1.9844-0.27285 2.4557 0.0496 0.44648 0.34727 0.44648 1.6371 0 1.265-0.44648 1.7363-0.47129 0.47129-2.5549 0.12402-2.0588-0.34726-2.5549-0.12402-0.49609 0.22324-0.39688 0.81855 0.09922 0.57051 0.39688 0.84336 0.29766 0.29766 0.86816-0.12402 0.59531-0.42168 0.89297 0.12402 0.29766 0.59531 0.29766 1.7115 0 1.1162-0.29766 1.6619-0.29766 0.57051-0.89297 0.14883-0.57051-0.44649-0.86816-0.14883-0.32246 0.32246-0.34726 0.96738 0 0.62012 0.34726 0.79375 0.32246 0.22324 2.4805-0.0992 2.158-0.34726 2.6293 0.0992 0.44648 0.47129 0.44648 1.6619 0 1.1906-0.44648 1.7115-0.47129 0.5457-2.6541 0.17363-2.158-0.39687-2.4557-0.17363-0.96738 0.79375 0 1.6867 0.29766 0.29765 0.86816-0.12403 0.59531-0.42167 0.89297 0.12403 0.29766 0.57051 0.29766 1.6867t-0.29766 1.6619q-0.29766 0.59531-0.89297 0.17363-0.57051-0.44648-0.86816-0.17363-0.29766 0.29766-0.47129 0.89297-0.17363 0.57051 0.47129 0.79375 0.49609 0.19844 3.2742-0.0744 2.7781-0.27286 6.0771-0.27286 3.2742 0 6.1268 0.22325 2.8525 0.19843 3.2246 0.12402 0.5209-0.0744 0.39688-0.71934-0.09922-0.66972-0.39688-0.96738-0.32246-0.27285-0.91777 0.17363-0.57051 0.42168-0.84336-0.17363-0.29766-0.5457-0.29766-1.6619t0.29766-1.6867q0.27285-0.5457 0.86816-0.12403 0.59531 0.42168 0.89297 0.12403 0.91777-0.91778 0-1.6867-0.29766-0.22324-2.5549 0.12402-2.2572 0.34727-2.5797-0.12402-0.32246-0.44648-0.37207-1.5627-0.02481-1.141 0.37207-1.8107 0.39688-0.66972 2.5797-0.24804 2.2076 0.42168 2.5549 0.24804 0.29766-0.14883 0.29766-0.79375t-0.29766-0.96738q-0.32246-0.29766-0.91777 0.14883-0.57051 0.42168-0.84336-0.14883-0.29766-0.5457-0.29766-1.6619 0-1.1162 0.29766-1.7115 0.27285-0.5457 0.84336-0.12402 0.59531 0.42168 0.91777 0.12402 0.29766-0.27285 0.32246-0.84336 0.04961-0.59531-0.32246-0.81855-0.42168-0.22324-2.5797 0.12402-2.158 0.34727-2.5549-0.12402t-0.39688-1.6867 0.39688-1.6867q0.39688-0.44648 2.4309-0.0496 2.034 0.39688 2.7037 0.0496 0.64492-0.32246 0.69453-0.89297 0.07441-0.59531-0.69453-0.89297-0.81855-0.24804-3.9439-0.5457-3.1006-0.32246-5.4074-0.32246zm-2.0588 2.6541q0.69453-0.57051 2.034-0.57051 1.3643 0 2.0836 0.57051 0.71934 0.59531 0.71934 1.6867t-0.71934 1.6867-2.0836 0.59531q-1.3395 0-2.034-0.59531-0.71934-0.59531-0.71934-1.6867t0.71934-1.6867zm3.3238 5.0354q0.71934-0.57051 2.1084-0.57051 1.4139 0 2.158 0.57051 0.74414 0.59531 0.74414 1.7115 0 1.0914-0.74414 1.6619-0.74414 0.59531-2.158 0.59531-1.3891 0-2.1084-0.59531-0.74414-0.57051-0.74414-1.6619 0-1.1162 0.74414-1.7115zm-6.7965 0q0.74414-0.57051 2.1332-0.57051 1.3891 0 2.1332 0.57051 0.74414 0.59531 0.74414 1.7115 0 1.0914-0.74414 1.6619-0.74414 0.59531-2.1332 0.59531-1.3891 0-2.1332-0.59531-0.74414-0.57051-0.74414-1.6619 0-1.1162 0.74414-1.7115zm3.4727 5.1346q0.69453-0.57051 2.034-0.57051 1.3643 0 2.0836 0.57051 0.71934 0.59531 0.71934 1.7115 0 1.0914-0.71934 1.6619-0.71934 0.59531-2.0836 0.59531-1.3395 0-2.034-0.59531-0.71934-0.57051-0.71934-1.6619 0-1.1162 0.71934-1.7115zm-12.328 15.602v1.6867h28.798v-1.6867z" stroke-width=".26458"/>
		</g>
		<g fill="#fff" stroke-width=".2">
			<path transform="matrix(.26458 0 0 .26458 0 246.2)" d="m48.052 40.913v-4.0625h95.982v8.125l-0.23996-1.12e-4c-0.43387-2.23e-4 -3.869-0.09631-5.9989-0.16781-6.1317-0.20585-11.404-0.45716-18.025-0.85912-8.6185-0.5233-15.514-0.73587-23.873-0.73598-8.0193-1.12e-4 -15.03 0.18304-23.069 0.60268-1.0291 0.05372-1.8665 0.09386-5.346 0.25627-0.66295 0.03094-1.5167 0.07122-1.8973 0.0895s-1.2344 0.05846-1.8973 0.08929c-0.66295 0.03083-1.5167 0.07101-1.8973 0.0893-0.38058 0.01829-1.4453 0.06851-2.3661 0.1116-0.92076 0.04309-2.2015 0.10316-2.846 0.1335-0.64453 0.03033-1.7143 0.08054-2.3772 0.11156-0.66295 0.03103-1.5167 0.07129-1.8973 0.08946-0.38058 0.01818-1.1289 0.05347-1.6629 0.07843-0.53404 0.02496-1.2773 0.06024-1.6518 0.07841-0.37444 0.01816-0.73856 0.03303-0.80915 0.03304l-0.12835 3e-6z"/>
			<path transform="matrix(.26458 0 0 .26458 0 246.2)" d="m62.279 141.16c-1.901-0.15539-3.0869-0.80999-3.3964-1.8747-0.13262-0.45621-0.07428-0.98062 0.20055-1.8023 0.5198-1.5542 1.3348-2.8528 1.9905-3.1714 0.16106-0.0783 0.31924-0.11308 0.56811-0.12501 0.6135-0.0294 1.1983 0.20827 2.1046 0.85532 1.1334 0.80926 1.9097 1.002 2.6155 0.64932 0.85191-0.42571 1.612-2.0597 1.9181-4.1234 0.14165-0.95488 0.18028-1.4582 0.2107-2.7455 0.09833-4.1601-0.71232-7.2848-2.068-7.9712-0.23744-0.12021-0.29812-0.13132-0.70618-0.12923-0.3956 2e-3 -0.48797 0.0188-0.81132 0.14702-0.21471 0.0852-0.62486 0.31829-0.99653 0.56641-1.0262 0.68509-1.561 0.89483-2.1909 0.85925-0.49533-0.028-0.68737-0.13714-1.2718-0.72293-0.74988-0.75158-1.1699-1.3773-1.4112-2.102-0.08813-0.26479-0.10373-0.40111-0.10218-0.89286 0.0017-0.52583 0.01369-0.61181 0.12809-0.91518 0.1545-0.40969 0.3683-0.78253 0.65633-1.1446 0.26269-0.33021 0.93489-0.9741 1.1132-1.0663 0.31548-0.16315 0.71225-0.21498 1.6497-0.21551 1.5458-8.9e-4 3.4014 0.22182 6.8304 0.81977 1.5227 0.26553 2.4991 0.4092 3.6895 0.54293 0.74883 0.0841 1.1358 0.0999 2.4935 0.10173 1.7637 2e-3 2.196-0.0418 3.058-0.31209 0.87329-0.27388 1.3794-0.65031 1.8546-1.3793 0.83204-1.2765 1.2448-3.0259 1.3014-5.5162 0.07037-3.0956-0.44401-5.3095-1.5314-6.5912-0.65511-0.77217-1.9069-1.1018-4.1915-1.1038-1.5368-1e-3 -2.9362 0.11722-5 0.42362-4.2723 0.63428-6.0567 0.81778-7.9688 0.81946-1.0631 9.4e-4 -1.3347-0.0122-1.6518-0.0799-0.59708-0.12753-1.0451-0.40878-1.3589-0.85315-0.56708-0.80285-0.73653-2.1892-0.44509-3.6414 0.19377-0.96555 0.59109-1.7742 1.1429-2.3259 0.72926-0.72926 1.6979-0.60648 3.0719 0.38936 0.50822 0.36835 1.1319 0.68859 1.5117 0.77626 0.32598 0.07524 0.78153 0.0356 1.0498-0.09135 1.0436-0.49391 1.8166-2.4164 2.0817-5.1772 0.1225-1.2756 0.09903-3.6534-0.0487-4.933-0.23538-2.039-0.76983-3.6678-1.4379-4.3819-0.3394-0.36282-0.63903-0.51308-1.0795-0.54135-0.59804-0.03838-1.0553 0.13278-1.9512 0.73042-0.62109 0.41432-1.2613 0.73609-1.6373 0.82287-0.35737 0.08249-0.82898 0.03779-1.1098-0.10516-0.30114-0.15333-0.50574-0.33507-0.81575-0.72461-0.65894-0.82799-1.1613-2.3202-1.1613-3.4494 0-0.79755 0.18988-1.2808 0.70314-1.7894 0.42098-0.41716 0.83446-0.63523 1.4721-0.77638 0.39789-0.08807 0.56216-0.09649 1.8649-0.09549 2.0802 0.0016 3.0184 0.10441 7.7009 0.84406 4.0502 0.63976 6.8786 0.6184 8.3705-0.06324 1.5734-0.71881 2.4336-3.2245 2.4329-7.086-5.72e-4 -2.79-0.42537-4.7188-1.2733-5.7813-0.65168-0.81664-1.8976-1.103-4.5691-1.05-1.6661 0.03303-2.5606 0.11344-5.5637 0.50011-2.9648 0.38174-4.343 0.48939-6.25 0.4882-1.17-7.27e-4 -1.5927-0.01746-2.0536-0.08127-2.5213-0.34909-3.8484-1.4629-4.0905-3.4329-0.18114-1.474 0.6276-2.6373 2.3352-3.3589 1.627-0.68758 5.8607-1.3231 14.702-2.2068 9.1564-0.91522 14.787-1.2502 21.027-1.2511 6.8309-8.91e-4 13.768 0.45705 24.71 1.6311 5.0428 0.54111 8.8414 1.1109 10.418 1.5626 1.163 0.33332 2.243 1.1118 2.6283 1.8947 0.22745 0.46209 0.27366 0.71862 0.24493 1.3596-0.0286 0.63743-0.13685 1.0602-0.39413 1.5388-0.43776 0.81434-1.1308 1.4408-2.171 1.9624-0.49418 0.24781-0.91757 0.38063-1.6035 0.50305-0.51463 0.09185-0.71431 0.1024-1.957 0.10349-0.82315 7.19e-4 -1.61-0.02218-1.942-0.0565-1.5752-0.1629-2.8368-0.35308-4.933-0.74365-1.3143-0.24489-2.3359-0.40409-3.5045-0.54612-0.94113-0.11439-3.2929-0.11489-3.8532-8.26e-4 -1.0841 0.2207-1.5883 0.55497-2.0677 1.3708-0.76948 1.3096-1.1334 3.4406-1.0748 6.2946 0.0474 2.3107 0.34367 3.8677 0.96697 5.0812 0.50178 0.97686 0.99386 1.3546 2.1002 1.6121 0.73788 0.17174 1.1393 0.20422 2.4777 0.20046 1.7238-0.0048 3.0393-0.1315 5.7589-0.55445 3.78-0.58786 5.832-0.78827 7.6294-0.74511 1.492 0.03583 1.8927 0.14739 2.4188 0.67345 0.31439 0.3144 0.53609 0.71885 0.67556 1.2324 0.10511 0.38705 0.10222 1.6543-5e-3 2.2972-0.18303 1.095-0.65001 1.9925-1.2768 2.4539-0.36381 0.26783-0.67424 0.35566-1.1548 0.32671-0.62678-0.03775-1.1966-0.28026-2.1322-0.90738-0.81843-0.54859-1.2488-0.71295-1.7762-0.67835-0.79696 0.05228-1.3416 0.67269-1.8332 2.0882-0.46303 1.3333-0.67929 2.8219-0.72312 4.9777-0.0623 3.0626 0.28547 5.2518 1.0815 6.808 0.42906 0.8388 0.88656 1.2367 1.4764 1.284 0.5474 0.04394 0.95485-0.1162 1.8556-0.72932 0.35163-0.23936 0.82013-0.52084 1.0411-0.62551 1.3221-0.62628 2.239-0.31334 2.878 0.98236 0.38287 0.77625 0.53698 1.5784 0.53674 2.7938-4.5e-4 1.6502-0.37265 2.6241-1.1369 2.974-0.86378 0.39545-3.5836 0.15462-8.6395-0.76499-3.8052-0.69212-4.8239-0.80999-6.6445-0.76871-2.0342 0.0461-3.1954 0.42692-3.907 1.2813-0.2167 0.26016-0.69287 1.2292-0.90021 1.832-0.67551 1.964-0.86274 4.515-0.53077 7.2321 0.23561 1.9285 0.7945 3.5401 1.4534 4.1908 0.1942 0.1918 0.64289 0.41714 1.0672 0.53595 0.7096 0.19872 1.2274 0.24659 2.6539 0.24534 1.7739-2e-3 3.1699-0.13013 6.0045-0.55305 3.5029-0.52263 5.2351-0.70735 6.9866-0.74504 1.191-0.0256 1.699 9e-3 2.1615 0.14604 0.28668 0.0851 0.77712 0.5026 1.1733 0.99873 0.38245 0.47891 0.55662 0.779 0.72028 1.241 0.12692 0.35832 0.13848 0.43792 0.13792 0.94916-5.8e-4 0.51584-0.012 0.59132-0.15099 0.99833-0.23732 0.69486-0.72665 1.4434-1.3979 2.1385-0.4238 0.43884-0.69247 0.57721-1.1709 0.60303-0.64745 0.0349-1.2363-0.19069-2.2925-0.87842-0.34194-0.22266-0.77963-0.46952-0.97264-0.54859-0.30838-0.12632-0.40238-0.14399-0.77505-0.14572-0.37502-2e-3 -0.45317 0.0123-0.6752 0.12135-0.87292 0.42868-1.5979 2.1552-1.8885 4.4972-0.21346 1.7205-0.21311 4.1 8.5e-4 5.8036 0.28431 2.2638 1.091 4.1548 1.9504 4.5723 0.64492 0.31328 1.2919 0.14967 2.342-0.5922 0.59155-0.41793 1.1582-0.71939 1.6078-0.85528 0.44733-0.13523 0.99873-0.11495 1.3502 0.0497 0.7427 0.34784 1.404 1.5713 1.7449 3.2279 0.19531 0.94927 0.24531 1.4663 0.18013 1.8624-0.13571 0.82477-0.55033 1.2555-1.3893 1.4433-1.0147 0.22713-5.3076 0.0662-13.058-0.48958-5.1758-0.37114-8.4956-0.53436-14.129-0.69469-2.6504-0.0754-10.783-0.10327-13.549-0.0464-6.7799 0.13946-11.45 0.39878-17.768 0.98666-4.7056 0.43785-6.2509 0.53703-8.6607 0.55587-1.0312 8e-3 -1.9754 6e-3 -2.0982-4e-3zm49.085-5.1266c2.251-0.2283 3.8023-0.62103 5.3035-1.3426 0.7473-0.35923 1.1213-0.6098 1.5502-1.0387 1.1993-1.1993 1.7199-3.1464 1.5439-5.7744-0.16608-2.4798-0.87605-4.1901-2.3159-5.5791-1.467-1.4152-3.7198-2.258-6.7384-2.5208-1.146-0.0998-3.4742-0.0656-4.4548 0.0654-1.7105 0.2285-2.9808 0.59073-4.1088 1.1717-1.7341 0.89314-3.0165 2.3463-3.6566 4.1437-0.65704 1.845-0.77029 4.5005-0.26616 6.2411 0.26309 0.90835 0.64399 1.5768 1.244 2.1829 0.48548 0.49046 0.82924 0.71812 1.7801 1.1789 1.5697 0.76062 3.3337 1.1692 5.7663 1.3357 0.85807 0.0587 3.5307 0.0195 4.3527-0.0639zm-25.96-0.0251c2.7891-0.16619 4.5852-0.62858 5.9928-1.5427 1.2588-0.81751 1.9968-2.2726 2.3188-4.5719 0.0604-0.43119 0.07851-0.87259 0.07969-1.942 0.0014-1.257-0.0077-1.4322-0.09955-1.9099-0.54685-2.8457-2.2312-4.6484-5.2564-5.6257-1.6322-0.52729-3.3052-0.73012-5.6774-0.68832-2.2731 0.04-3.8834 0.30945-5.4059 0.90434-2.7498 1.0745-4.238 2.8886-4.6862 5.7125-0.10722 0.67551-0.10492 2.5211 0.0042 3.3482 0.26634 2.0192 0.78444 3.3568 1.6361 4.224 1.002 1.0202 2.9348 1.6506 6.0045 1.9583 1.7277 0.17318 3.5973 0.22213 5.0893 0.13322zm13.013-18.383c2.5126-0.34786 4.2692-1.0727 5.7032-2.3532 1.7906-1.599 2.5907-3.8366 2.4178-6.762-0.10182-1.7226-0.51643-3.0494-1.34-4.2881-0.40524-0.60946-1.2608-1.455-1.8926-1.8704-1.6293-1.0713-3.5654-1.6034-6.3765-1.7522-2.2769-0.12056-4.5425 0.16142-6.2351 0.776-2.3792 0.86388-3.9951 2.4971-4.7249 4.7756-0.47924 1.4961-0.57485 3.4521-0.24843 5.0824 0.3588 1.7919 1.1403 3.1171 2.518 4.2698 1.4321 1.1982 3.3051 1.9135 5.6473 2.1568 0.24554 0.0255 0.51674 0.0544 0.60268 0.0643 0.08594 0.01 0.85938 0.0118 1.7188 4e-3 1.2637-0.011 1.6863-0.0307 2.2098-0.10322zm-14.04-19.295c2.7392-0.16283 4.7208-0.73682 6.3812-1.8484 1.1534-0.77212 1.917-1.6117 2.4857-2.7328 0.57827-1.1401 0.84296-2.3786 0.84296-3.9442 0-5.1739-3.1603-8.1195-9.1997-8.5746-1.0547-0.07948-3.3532-0.03225-4.2729 0.08779-5.2156 0.68077-7.9506 3.2385-8.2758 7.7392-0.18541 2.5661 0.50964 4.7893 1.9697 6.3 1.6593 1.7169 4.0212 2.6879 7.1224 2.9282 1.2385 0.09593 1.9145 0.10624 2.9464 0.04489zm25.603-4.5e-5c3.6047-0.2064 6.0721-1.152 7.8451-3.0066 1.0462-1.0944 1.665-2.4899 1.8928-4.2688 0.0694-0.5418 0.0689-1.994-8e-4 -2.5446-0.12851-1.0147-0.38316-1.9176-0.7597-2.6937-1.3323-2.746-4.1122-4.2551-8.4474-4.5858-1.057-0.08063-3.4377-0.03147-4.3246 0.0893-2.7861 0.37938-4.662 1.2055-6.0873 2.6808-1.4092 1.4586-2.0824 3.3349-2.0824 5.8041 0 1.9357 0.39468 3.3812 1.2866 4.7122 0.84857 1.2663 2.4196 2.4283 4.0928 3.0275 1.8173 0.65073 4.1278 0.92642 6.5848 0.78573zm-11.563-19.142c1.7807-0.24654 3.1351-0.66873 4.302-1.3411 2.7168-1.5653 4.0335-4.2682 3.8198-7.8411-0.13411-2.2425-0.85126-3.9227-2.2597-5.2942-1.1374-1.1075-2.711-1.8607-4.6966-2.2479-2.2224-0.43334-5.0201-0.43428-7.1701-0.0024-2.5901 0.52027-4.4454 1.6702-5.6357 3.4932-0.92938 1.4233-1.3806 3.4674-1.2196 5.5244 0.20133 2.5714 1.1983 4.4966 3.0436 5.8771 1.4778 1.1056 3.1454 1.6543 5.8653 1.9298 0.09821 0.01 0.8817 0.01214 1.7411 0.0049 1.2653-0.01072 1.6856-0.03028 2.2098-0.10286z"/>
			<path transform="matrix(.26458 0 0 .26458 0 246.2)" d="m51.298 155.29c-1.6694-0.19196-2.7039-1.0442-3.0735-2.5317-0.10419-0.41937-0.13771-0.69625-0.15167-1.2528-0.02749-1.0965 0.1561-1.866 0.60667-2.5428 0.54896-0.8246 1.4656-1.3523 2.746-1.5808 0.4026-0.0719 0.60069-0.0882 2.1987-0.18125 6.6843-0.38929 13.087-0.71642 19.23-0.98249 0.57701-0.025 1.4459-0.0651 1.9308-0.0891 1.2979-0.0643 2.937-0.13676 4.2969-0.18999 3.1034-0.12147 5.6482-0.19405 9.4085-0.26835 2.9389-0.0581 9.7714-0.0757 12.879-0.0333 5.5694 0.0761 10.737 0.2348 15.647 0.48065 0.36216 0.0181 1.462 0.0681 2.4442 0.11113 2.0018 0.0876 3.0366 0.13422 3.7277 0.16784 0.25781 0.0126 1.1016 0.0529 1.875 0.0897 5.8689 0.27924 14.609 0.76018 15.234 0.83832 1.2278 0.15338 2.1296 0.54637 2.7687 1.2066 0.71204 0.73561 1.0255 1.7611 0.95765 3.1329-0.0205 0.41436-0.0492 0.64056-0.12443 0.97953-0.30035 1.354-1.1343 2.2114-2.4635 2.5327-0.68143 0.16474-1.0331 0.17292-3.5938 0.0836-1.0865-0.0379-4.4816-0.15418-7.5446-0.25841-3.0631-0.10423-6.0061-0.2048-6.5402-0.22349-0.53404-0.0187-4.2154-0.14438-8.1808-0.2793-3.9654-0.13492-7.6468-0.26038-8.1808-0.2788-1.7344-0.0598-4.8353-0.16503-7.8571-0.26658-1.6267-0.0547-3.0677-0.10483-3.2022-0.11148-0.13452-7e-3 -0.66186 3e-3 -1.1719 0.0212-0.51001 0.0183-1.9619 0.0685-3.2264 0.11141-1.2645 0.0429-3.178 0.10809-4.2522 0.14474-3.3943 0.11582-5.8194 0.19846-7.8571 0.26773-1.0865 0.0369-2.558 0.0872-3.2701 0.1118-0.71205 0.0246-2.1786 0.0747-3.2589 0.11152-1.0804 0.0368-2.7076 0.0922-3.6161 0.1231s-2.2344 0.0761-2.9464 0.10048c-0.71205 0.0243-1.8923 0.0645-2.6228 0.0892s-1.76 0.0598-2.2879 0.0778c-0.5279 0.0181-1.4118 0.0482-1.9643 0.067-2.4449 0.0833-2.9847 0.10171-3.5938 0.12262-0.35603 0.0122-0.94866 0.0325-1.317 0.0451-0.3683 0.0126-1.0965 0.0377-1.6183 0.0558-1.1292 0.0393-1.6821 0.0387-2.036-2e-3z"/>
			<path transform="matrix(.26458 0 0 .26458 0 246.2)" d="m41.68 164.9v-3.1808h108.82v6.3616h-108.82z"/>
		</g>
	</g>
</svg>
