<?xml version="1.0" encoding="UTF-8" standalone="no"?>
<svg
   xmlns:dc="http://purl.org/dc/elements/1.1/"
   xmlns:cc="http://creativecommons.org/ns#"
   xmlns:rdf="http://www.w3.org/1999/02/22-rdf-syntax-ns#"
   xmlns:svg="http://www.w3.org/2000/svg"
   xmlns="http://www.w3.org/2000/svg"
   xmlns:sodipodi="http://sodipodi.sourceforge.net/DTD/sodipodi-0.dtd"
   xmlns:inkscape="http://www.inkscape.org/namespaces/inkscape"
   viewBox="0 -410 2048 2048"
   id="svg2"
   version="1.1"
   inkscape:version="0.48.2 r9819"
   width="100%"
   height="100%"
   sodipodi:docname="br.svg">
  <metadata
     id="metadata12">
    <rdf:RDF>
      <cc:Work
         rdf:about="">
        <dc:format>image/svg+xml</dc:format>
        <dc:type
           rdf:resource="http://purl.org/dc/dcmitype/StillImage" />
      </cc:Work>
    </rdf:RDF>
  </metadata>
  <defs
     id="defs10" />
  <sodipodi:namedview
     pagecolor="#ffffff"
     bordercolor="#666666"
     borderopacity="1"
     objecttolerance="10"
     gridtolerance="10"
     guidetolerance="10"
     inkscape:pageopacity="0"
     inkscape:pageshadow="2"
     inkscape:window-width="640"
     inkscape:window-height="867"
     id="namedview8"
     showgrid="false"
     inkscape:zoom="0.11523438"
     inkscape:cx="1024"
     inkscape:cy="1024"
     inkscape:window-x="0"
     inkscape:window-y="0"
     inkscape:window-maximized="0"
     inkscape:current-layer="svg2" />
  <g
     transform="matrix(1 0 0 -1 0 1638)"
     id="g4">
    <path
       fill="#000000"
       d="M1024 1910h138v-136h207v136h238v-357l-161 -186q52 -66 2 -139q-8 -13 -8 -24q0 -13 8 -25q21 -31 20.5 -87.5t-21.5 -88.5q-7 -10 -7 -21q0 -14 9 -26q47 -71 -2 -140q-7 -12 -7 -23t7 -23q22 -33 22 -91.5t-24 -86.5l162 -81v-86h67v-290h-650h-651v289h68v86l161 82 q-24 28 -24 86t22 91q8 11 8 23q0 10 -8 23q-49 70 -1 140q9 16 9 26t-7 22q-22 32 -22.5 88.5t20.5 87.5q9 12 9 25q0 11 -8 23q-51 73 2 140l-161 185v357h238v-135l206 -1v136zM512 1656v-87q128 6 255.5 12.5t256.5 6.5q126 0 254.5 -8t257.5 -11v43.5v43.5h-1024z M555 478q-43 -4 -43 -43v0q0 -43 43 -43l469 16l469 -16q43 0 43 43v0q0 39 -43 43q-117 7 -234.5 12.5t-234.5 5.5t-234.5 -5.5t-234.5 -12.5zM1075 749q29 23 85.5 23t86.5 -23q30 -24 30.5 -72t-30.5 -63q-32 -17 -87 -17t-85 17q-32 15 -31 63t31 72zM801 749 q30 23 86 23t86 -23q30 -24 27.5 -72t-27.5 -63q-26 -17 -87.5 -15.5t-84.5 15.5q-24 13 -27 62t27 73zM1024 1470q-95 0 -220 -12.5t-157 -22.5q-33 -12 -30 -38t30 -34q27 -9 107 2t99 -2q18 -14 18 -65.5t-18 -70.5q-19 -19 -102.5 -5t-103.5 5t-16 -32.5t16 -34.5 q12 -12 35.5 5t35.5 -5q12 -24 12 -69t-12 -67q-12 -23 -35.5 -5.5t-35.5 5.5q-13 -13 -13.5 -38.5t13.5 -32.5q13 -9 100 4.5t106 -4.5q18 -19 18 -67t-18 -69q-19 -22 -106.5 -6.5t-99.5 6.5q-39 -32 0 -68q12 -12 35.5 5t35.5 -5q12 -23 12 -68t-12 -67 q-12 -24 -35.5 -6.5t-35.5 6.5q-12 -12 -19 -35.5t19 -32.5q20 -8 132 3t245 11q132 0 247 -8.5t130 -5.5q21 3 16.5 29.5t-16.5 38.5q-13 11 -36.5 -6.5t-34.5 6.5q-12 22 -12 67t12 68q11 22 35 5t36 -5q37 37 0 68q-12 9 -103 -5t-104 5q-13 18 -14.5 63.5t14.5 72.5 t104.5 10t102.5 -10q12 6 12 32t-12 39q-13 12 -36.5 -5.5t-34.5 5.5q-12 22 -12 67t12 69q11 22 34.5 5t36.5 -5q12 11 13.5 34.5t-13.5 32.5q-17 9 -104 -5t-103 5t-16 68t16 68q16 18 98 2t109 -2q26 13 28.5 36.5t-28.5 35.5q-33 10 -158.5 22.5t-218.5 12.5zM941 1363 q28 23 82.5 23t83.5 -23q29 -24 29 -68t-29 -68t-83.5 -24t-82.5 24q-29 24 -29 68t29 68zM1075 1160q29 23 85.5 23t86.5 -23q30 -24 30 -68.5t-30 -67.5q-30 -24 -86.5 -24t-85.5 24q-30 23 -30 67.5t30 68.5zM801 1160q30 23 86 23t86 -23q30 -24 30 -68.5t-30 -67.5 q-30 -24 -86 -24t-86 24q-30 23 -30 67.5t30 68.5zM941 953q28 23 82.5 23t83.5 -23q29 -24 29 -68.5t-29 -67.5q-29 -24 -83.5 -24t-82.5 24q-29 23 -29 67.5t29 68.5zM444 324v-68h1161v68h-1161z"
       id="path6" />
  </g>
  <path
     style="fill:#ececec;fill-opacity:1;fill-rule:nonzero;stroke-linecap:butt;stroke-linejoin:round"
     d="m 451.25424,1757.2881 0,-30.3728 572.74576,0 572.7458,0 0,30.3728 0,30.3729 -572.7458,0 -572.74576,0 0,-30.3729 z"
     id="path2989"
     inkscape:connector-curvature="0"
     transform="translate(0,-410)" />
  <path
     style="fill:#ececec;fill-opacity:1;fill-rule:nonzero;stroke-linecap:butt;stroke-linejoin:round"
     d="m 524.29376,1640.8588 c -1.98869,-1.9887 -3.61579,-14.7769 -3.61579,-28.4182 0,-18.1001 5.55126,-26.913 20.54294,-32.6128 11.29862,-4.2957 124.54608,-11.6333 251.66101,-16.3056 241.16508,-8.8645 674.01098,1.1409 714.44738,16.5148 17.3023,6.5783 20.6044,13.0688 18.3735,36.1138 l -2.7197,28.0942 -497.5368,0.1148 c -273.64521,0.063 -499.16385,-1.5123 -501.15254,-3.501 z"
     id="path2991"
     inkscape:connector-curvature="0"
     transform="translate(0,-410)" />
  <path
     style="fill:#ececec;fill-opacity:1;fill-rule:nonzero;stroke-linecap:butt;stroke-linejoin:round"
     d="m 643.16445,1493.7745 c -8.02363,-5.3256 -10.0925,-15.6671 -6.22053,-31.0943 5.4783,-21.8273 7.91301,-22.7983 43.70763,-17.4306 34.49034,5.1722 38.48606,3.8573 44.34159,-14.5918 8.23543,-25.9476 8.31703,-101.5516 0.13746,-127.3233 -5.68475,-17.911 -9.94705,-19.296 -43.7728,-14.2235 -33.51938,5.0265 -38.11733,3.5952 -43.56242,-13.5608 -3.8883,-12.2509 -1.51217,-23.7559 6.57697,-31.845 10.70944,-10.7095 25.77728,-11.2025 97.60149,-3.1936 71.74212,7.9997 87.98531,7.4736 104.56013,-3.3866 33.61093,-22.0228 38.7914,-118.3506 7.75031,-144.1124 -8.48199,-7.0394 -43.24628,-9.2841 -110.08629,-7.1081 l -97.68952,3.1802 -2.84791,-24.9215 c -3.8537,-33.7231 7.85033,-43.4428 36.5602,-30.3617 36.47468,16.619 50.89788,-3.9697 50.89788,-72.65506 0,-64.2393 -13.3791,-97.78382 -35.37739,-88.69936 -35.07097,14.48299 -43.72224,13.75353 -53.49698,-4.51075 -5.54907,-10.36853 -7.82726,-24.74641 -5.06264,-31.95088 4.28338,-11.16233 20.41686,-12.18045 109.12029,-6.88619 l 104.09373,6.21284 13.03946,-31.20784 c 15.62865,-37.40463 16.40466,-62.91179 3.0771,-101.14326 l -9.96236,-28.57805 -98.96311,5.6522 c -104.75175,5.9828 -132.77318,-0.0174 -132.77318,-28.43044 0,-26.69125 19.54369,-34.93879 118.08858,-49.834 129.62613,-19.59319 432.56956,-19.59319 562.19576,0 118.6995,17.94163 141.3782,33.98791 100.4215,71.05324 -16.1713,14.63478 -24.7553,15.21999 -101.3857,6.91193 -46.0452,-4.99211 -90.7837,-7.22898 -99.4188,-4.97084 -31.2706,8.17746 -40.5212,113.67054 -12.9994,148.24352 7.0272,8.8275 33.3359,10.91226 109.5126,8.67797 l 100.2634,-2.94077 2.7507,23.91375 c 3.2745,28.46827 -11.9289,36.8223 -44.4858,24.44418 -19.629,-7.46293 -24.4995,-6.01746 -32.9542,9.78014 -5.4564,10.19556 -9.9208,43.61373 -9.9208,74.26261 0,67.81226 12.4878,85.75496 49.8084,71.56566 30.2225,-11.4905 41.482,-2.0848 37.6496,31.4511 -3.1977,27.9828 0.8168,27.4408 -124.3394,16.7862 -39.7423,-3.3833 -74.477,-2.4318 -81.2432,2.2255 -16.33,11.2403 -26.2075,72.5275 -18.4905,114.7284 3.5257,19.2808 7.9119,36.5574 9.747,38.3925 7.6712,7.6712 51.2322,8.3262 123.1985,1.8523 55.1198,-4.9585 80.0643,-4.0172 88.9491,3.3566 15.8927,13.1898 15.6882,29.576 -0.5721,45.8363 -10.5196,10.5197 -17.8466,11.06 -39.4413,2.9089 -21.7591,-8.2131 -27.9859,-7.6948 -34.6762,2.8866 -12.6762,20.0487 -14.5855,90.7935 -3.7105,137.4841 4.3717,18.7695 7.8566,19.9873 42.3813,14.81 35.4629,-5.318 37.95,-4.3181 43.4145,17.4542 3.1881,12.7025 3.6592,25.2327 1.0469,27.845 -2.6123,2.6124 -50.6396,3.1278 -106.7274,1.1455 -162.3945,-5.7394 -431.37127,-4.1898 -544.55407,3.1373 -61.29592,3.968 -109.08124,3.4587 -116.15758,-1.2381 z m 343.82663,-67.574 c 32.20492,-44.0429 18.66172,-115.5974 -26.27785,-138.8365 -40.86926,-21.1344 -137.55363,-13.0313 -166.25674,13.9339 -28.03514,26.3377 -31.19816,91.3957 -5.9589,122.5649 28.38293,35.0514 173.32443,36.7584 198.49349,2.3377 l 0,0 z m 255.00182,13.3695 c 29.8422,-11.6523 43.7193,-43.7907 37.0141,-85.7222 -8.2611,-51.6623 -36.2086,-72.3549 -103.5106,-76.6404 -67.073,-4.2709 -103.9705,8.6731 -121.5328,42.6348 -17.0747,33.0189 -15.8869,80.1308 2.5788,102.2876 27.5054,33.0035 122.6718,41.9532 185.4505,17.4402 l 0,0 z M 1088.665,1246.0228 c 16.1676,-6.7553 33.615,-20.1663 38.7721,-29.8024 13.459,-25.1484 11.5539,-89.7922 -3.27,-110.9563 -17.4512,-24.9151 -81.2623,-41.3785 -131.29818,-33.8752 -56.49725,8.4723 -81.68248,35.3882 -81.68248,87.2956 0,22.0087 4.21256,47.8871 9.36124,57.5075 20.4753,38.2584 109.94962,54.1348 168.11732,29.8308 l 0,0 z M 958.77624,1035.3356 c 56.54876,-26.9663 62.90406,-114.34833 11.128,-153.00473 -30.94151,-23.10118 -119.86444,-24.95407 -160.27984,-3.33974 -53.84659,28.79737 -55.64897,116.00135 -3.12909,151.39447 35.97592,24.2442 106.98054,26.5522 152.28093,4.95 l 0,0 z m 282.72846,-4.95 c 52.5199,-35.39312 50.7175,-122.5971 -3.1291,-151.39447 -40.4154,-21.61433 -129.3383,-19.76144 -160.2798,3.33974 -50.4232,37.6463 -45.4207,125.57233 8.6757,152.48863 43.4719,21.6299 119.2805,19.4576 154.7332,-4.4339 z M 1069.6158,841.29081 c 46.9473,-13.03777 67.1978,-38.40461 67.1978,-84.17561 0,-20.89176 -4.0209,-45.49805 -8.9353,-54.68063 -30.5202,-57.0276 -177.23639,-57.0276 -207.75664,0 -12.78186,23.88312 -10.52858,88.76793 3.73648,107.59479 12.83459,16.93893 66.71393,39.42474 95.80286,39.98202 9.5458,0.18284 32.0254,-3.74138 49.9548,-8.72057 l 0,0 z"
     id="path2993"
     inkscape:connector-curvature="0"
     transform="translate(0,-410)" />
  <path
     style="fill:#ececec;fill-opacity:1;fill-rule:nonzero;stroke-linecap:butt;stroke-linejoin:round"
     d="m 512,438.53618 0,-39.34974 512,0 512,0 0,39.29253 0,39.29252 -58.5763,-6.73391 c -76.6546,-8.81219 -860.84703,-8.77726 -919.86438,0.041 L 512,477.88593 l 0,-39.34975 z"
     id="path2995"
     inkscape:connector-curvature="0"
     transform="translate(0,-410)" />
</svg>
