<?xml version="1.0" encoding="UTF-8"?>
<svg width="144pt" height="144pt" version="1.1" viewBox="0 0 50.8 50.8" xmlns="http://www.w3.org/2000/svg">
	<g transform="translate(0,-246.2)">
		<g transform="translate(.029875 .12544)" aria-label="b">
			<path d="m25.54 281.53q-2.8029 0-4.7873 0.4961-1.9844 0.49609-1.9844 1.1906t1.9844 1.1906q1.9844 0.47128 4.7873 0.47128 2.8029 0 4.7873-0.47128 2.0092-0.4961 2.0092-1.1906t-2.0092-1.1906q-1.9844-0.4961-4.7873-0.4961zm5.6059-30.559q-1.0666 0-1.0666 1.0418 0 1.0666 1.0666 1.0666 1.0666 0 1.0666-1.0666 0-1.0418-1.0666-1.0418zm-5.9531-0.0744q-1.017 0-1.017 1.017 0 1.017 1.017 1.017 1.017 0 1.017-1.017 0-1.017-1.017-1.017zm4.0432 14.114v-1.265h-3.175v-4.2416h-1.265v4.2416h-3.175v1.265h3.175v5.9283h1.265v-5.9283zm1.0666 1.0666h-3.175v5.9283h-3.3982v-5.9283h-3.175v-3.3734h3.175v-4.2416h3.3982v4.2416h3.175zm-2.4805 13.494-2.4061-0.99219-2.3812 0.99219 2.3812 0.99219zm7.243-13.32q0.27285-1.3394-0.84336-4.9361-1.0914-3.6215-3.2494-6.0027-0.32246-0.19844-0.57051-0.17364-0.37207 0.0496-0.69453 0.37207-0.29766 0.32247-0.07441 0.76895 2.6293 1.7859 4.0184 5.1346 1.3891 3.3486 1.4139 4.8369zm-15.18 9.5002q2.3812-0.79375 5.5314-0.79375 3.2742 0 5.5811 0.79375 3.0262-6.102 3.0262-9.5746 0-5.8787-8.508-11.435-8.4832 5.5562-8.4832 11.435 0 3.7455 2.8525 9.5746zm10.641 2.5301-0.44648-1.5627q-2.0836-0.49609-4.6881-0.49609-2.5549 0-4.4896 0.44648l-0.49609 1.5875q2.0588-0.5457 4.9857-0.5457 3.0758 0 5.1346 0.57051zm0.89297 2.6541-0.5457-1.7611-2.2076 0.47129 2.1828 1.4139zm-11.857 0.0248 0.44648 0.0992 2.1828-1.4139-2.1084-0.47129zm5.8291 9.9467q-1.8355 2.6541-4.9609 2.6541-0.32246 0-0.64492-0.0248-0.29766-0.0496-0.59531-0.0744-0.71934-0.0248-2.1084-0.24805-1.3891-0.24805-3.1006-1.1162-1.5131-1.3146-3.8447-1.3146-1.7859 0-3.1006 0.84336-0.37207 0.17363-0.91777 0.71934-0.99219 1.0666-1.6123 1.1658-0.49609-0.24805-0.5209-0.84336-0.12402-1.1658 1.7115-3.0014-0.32246 0.0496-1.2154 0.29766-0.74414 0.22324-0.99219 0.22324-0.81855 0.12402-0.86816 0.0248-0.27285-0.27285 0.19844-1.1162 0.39688-0.71933 1.5379-1.265 0.14883-0.0744 0.94258-0.42168 2.3068-1.2154 4.8369-1.2154 3.6959 0 6.6725 2.5053 1.1906 0.39687 2.4061 0.39687 3.7207 0 3.8447-3.0758-2.4061-0.22324-4.0184-0.81855-1.5875-0.59532-1.5875-1.3891l1.9844-6.598q-1.7363-2.7285-2.8773-5.5562-1.141-2.8277-1.141-5.3578 0-7.5902 8.2352-11.658 0-0.32246 0.07441-0.96738-0.84336-0.69453-0.84336-1.7611 0-2.282 2.3068-2.282 2.282 0 2.282 2.282 0 0.99218-0.71934 1.6619 0 0.76894 0.19844 1.0418 0.42168 0.59531 1.1162 0.62011 0.71934-0.0248 1.1906-0.64492 0.09922-0.14883 0.19844-0.91777-0.64492-0.66973-0.64492-1.6619 0-2.3316 2.3316-2.3316 2.3316 0 2.3316 2.3316 0 1.3146-1.141 2.034-0.09922 0.49609-0.04961 0.79375 4.192 4.9609 3.6463 11.46-0.17363 1.8604-0.57051 3.6711-0.39688 1.7859-1.3891 3.3734-0.37207 0.84336-1.1658 1.91-0.76895 1.0418-1.3395 1.9596l1.9596 6.598q-0.02481 0.79375-1.6371 1.3891-1.6123 0.59531-4.068 0.81855 0.12402 3.0758 3.8695 3.0758 1.2154 0 2.4061-0.39687 2.9518-2.5053 6.6725-2.5053 2.5301 0 4.8121 1.2154 0.29766 0.14883 0.5209 0.24805 0.22324 0.0992 0.44648 0.17363 1.1162 0.57051 1.5379 1.265 0.07441 0.22324 0.22324 0.57051 0.14883 0.34726-0.0248 0.5457-0.07441 0.0992-0.86816-0.0248-0.24805 0-0.99219-0.22324-0.91777-0.24805-1.2402-0.29766 1.8355 1.8604 1.7363 3.0014-0.04961 0.5705-0.5457 0.84336-0.62012-0.0992-1.6123-1.1658-0.49609-0.4961-0.89297-0.71934-1.3891-0.84336-3.1006-0.84336-2.3812 0-3.8695 1.3146-1.7115 0.86816-3.1006 1.1162-1.3891 0.22324-2.0836 0.24805-0.29766 0.0248-0.62012 0.0744-0.32246 0.0248-0.62012 0.0248-3.1998 0-4.9857-2.6541zm0-1.8107q0.07441 0 1.6371 1.5131 1.4387 1.3642 3.5223 1.3642 0.17363 0 0.49609 0t0.5209 0q1.0666-0.0744 2.034-0.24804 0.96738-0.19844 2.3068-0.74414 2.5797-1.7859 4.7625-1.7859 0.94258 0 1.7363 0.22324 0.32246 0.0744 0.37207 0.17363 0.07441 0.0744 0.57051 0.29766 1.5379 0.79375 0.76894 0.17363-0.74414-0.64492-0.57051-0.94257 0.14883-0.32247 1.141-0.69454 1.017-0.37207-1.4387-0.59531-1.2402-0.42168-2.5797-0.42168-2.9766 0-6.0771 2.4061-1.0914 0.59531-1.8604 0.66972-0.74414 0.0744-1.4139 0.0248-1.9348-0.0744-2.6045-0.5209-0.64492-0.47129-1.1658-1.0418-0.49609-0.5209-0.96738-2.0092-0.24805-0.79375-1.1906-0.89297-0.96738 0.0992-1.1906 0.89297-0.44648 1.4883-0.96738 2.0092-0.5209 0.57051-1.1906 1.0418-0.64492 0.44648-2.5549 0.5209-0.69453 0.0496-1.4635-0.0248-0.74414-0.0744-1.8107-0.66972-3.1502-2.4061-6.0771-2.4061-1.3643 0-2.5797 0.42168-2.4805 0.22324-1.4883 0.59531 1.017 0.37207 1.1906 0.69454 0.14883 0.29765-0.62012 0.94257-0.74414 0.62012 0.81855-0.17363 0.44648-0.22324 0.5209-0.29766 0.074414-0.0992 0.39688-0.17363 0.76895-0.22324 1.7611-0.22324 2.158 0 4.7377 1.7859 1.3395 0.5457 2.282 0.74414 0.96738 0.17363 2.0836 0.24804 0.17363 0 0.47129 0 0.32246 0 0.5457 0 2.0588 0 3.5223-1.3642 1.5379-1.5131 1.6123-1.5131z" stroke-width=".26458"/>
		</g>
		<g fill="#fff" stroke-width=".2">
			<path transform="matrix(.26458 0 0 .26458 0 246.2)" d="m95.177 25.923c-0.7748-0.01383-1.4389-0.15512-1.9727-0.4197-0.46098-0.2285-0.83212-0.55245-1.1062-0.9655-0.12171-0.18344-0.24057-0.41769-0.32312-0.63674-0.14494-0.38465-0.23696-0.83272-0.27176-1.3233-0.01213-0.17097-0.01373-0.22815-0.01377-0.49219-4e-5 -0.27434 0.0018-0.33566 0.01583-0.52148 0.08519-1.13 0.45959-1.9735 1.1212-2.5259 0.60929-0.50872 1.4581-0.77299 2.5504-0.79402 1.501-0.02889 2.571 0.36165 3.231 1.1793 0.33222 0.41155 0.56173 0.95284 0.67492 1.5918 0.10523 0.59401 0.11568 1.3407 0.02748 1.9629-0.05792 0.40854-0.15766 0.77112-0.30465 1.1074-0.0522 0.11943-0.14845 0.29794-0.22517 0.41763-0.41605 0.649-1.0668 1.0814-1.9309 1.2831-0.35502 0.08287-0.74864 0.12966-1.1387 0.13537-0.07197 0.0011-0.14404 0.0024-0.16016 0.0029-0.01611 5.51e-4 -0.09434-1.6e-4 -0.17383-0.0016z"/>
			<path transform="matrix(.26458 0 0 .26458 0 246.2)" d="m117.54 26.483c-1.1191-0.04418-1.9746-0.33192-2.5966-0.87331-0.0619-0.05389-0.2124-0.20442-0.26655-0.26663-0.50103-0.57556-0.78585-1.3551-0.8593-2.3519-0.0212-0.28716-0.0236-0.69346-6e-3 -0.9707 0.0608-0.94785 0.3124-1.6929 0.76202-2.2563 0.27476-0.34427 0.63316-0.62372 1.0537-0.82158 0.45285-0.21307 0.97653-0.34301 1.5904-0.3946 0.43874-0.03687 0.94254-0.03177 1.3672 0.01385 0.90599 0.09733 1.6172 0.37547 2.1533 0.8421 0.0614 0.05346 0.2085 0.20051 0.26114 0.26107 0.19997 0.23008 0.36152 0.48578 0.48989 0.77539 0.17725 0.39986 0.29174 0.86849 0.33973 1.3906 0.01 0.10386 0.01 0.10707 0.0157 0.20446 0.0219 0.35902 0.0139 0.77581-0.0219 1.1295-0.10017 0.99231-0.42254 1.7615-0.9684 2.3106-0.33388 0.33589-0.75168 0.58817-1.252 0.75598-0.44701 0.14994-0.92136 0.22944-1.502 0.25171-0.11462 0.0044-0.44551 0.0042-0.56054-3.51e-4z"/>
			<path transform="matrix(.26458 0 0 .26458 0 246.2)" d="m93.835 82.772-0.0055-11.198-11.988-0.0112v-4.7508h11.999v-16.02h4.7509v16.02h11.999v4.7508l-11.988 0.0112-0.0055 11.198-0.0055 11.198h-4.7508z"/>
			<path transform="matrix(.26458 0 0 .26458 0 246.2)" d="m75.029 111.66c-3.092-6.4291-5.1739-11.44-6.8912-16.585-2.044-6.1245-3.1756-11.347-3.5483-16.375-0.06676-0.90068-0.09518-3.5027-0.04729-4.3305 0.09093-1.5719 0.26696-2.9557 0.5662-4.4508 0.79439-3.969 2.3588-7.8934 4.7028-11.797 5.0174-8.3556 13.552-16.538 25.696-24.637l1.0396-0.69325 0.78855 0.52014c8.3589 5.5136 15.309 11.355 20.31 17.07 6.29 7.1883 9.8832 14.439 10.805 21.803 0.2676 2.138 0.30418 4.3732 0.10948 6.6875-0.68912 8.191-4.3475 19.119-10.808 32.285l-0.492 1.0026-0.66127-0.2163c-4.3375-1.4187-9.5498-2.3193-15.239-2.6331-3.1529-0.17387-6.6663-0.18511-9.6562-0.0309-5.1962 0.26803-9.9003 0.99577-14.156 2.19-0.55217 0.15494-2.2071 0.65929-2.2535 0.68674-0.01049 6e-3 -0.1288-0.21682-0.2629-0.49565zm27.634-24.827 8e-3 -11.195 11.984-0.0158v-12.75l-11.984-0.0158-8e-3 -8.0077-8e-3 -8.0077-12.859-0.0158v16.031h-12v12.781h12v22.406l12.859-0.0158z"/>
			<path transform="matrix(.26458 0 0 .26458 0 246.2)" d="m132.64 76.013c-6e-3 -0.39424-0.085-1.234-0.1789-1.8893-0.48424-3.3808-1.9466-8.1448-4.3313-14.11-1.0555-2.6404-1.6306-3.9441-2.5094-5.6891-1.7376-3.4503-3.8318-6.5851-6.2071-9.2912-2.0104-2.2904-4.4168-4.4534-6.7953-6.108-0.54705-0.38056-0.50677-0.34164-0.6108-0.59024-0.24931-0.59576-0.31202-1.1462-0.18602-1.6329 0.0557-0.21517 0.21136-0.54471 0.34723-0.73512 0.42535-0.59607 1.3701-1.2678 2.1345-1.5176 0.73481-0.24019 1.2948-0.22695 1.9915 0.04706 0.33534 0.13189 0.82413 0.38951 0.89748 0.47301 0.0184 0.02092 0.23787 0.27018 0.48778 0.55391 4.2054 4.7746 7.6273 10.631 10.185 17.431 0.64653 1.7188 1.2155 3.4407 1.9968 6.0436 2.0851 6.9455 3.0994 12.284 2.9551 15.552-0.0235 0.53195-0.0872 1.1804-0.14374 1.4632l-0.0309 0.15468-2e-3 -0.15468z"/>
			<path transform="matrix(.26458 0 0 .26458 0 246.2)" d="m115.44 121.72c-0.0759-0.0234-0.66149-0.17764-0.96094-0.25304-4.2194-1.0625-9.2647-1.6789-15.09-1.8436-1.1248-0.0318-1.9891-0.0431-3.2969-0.0431-1.4751 2e-5 -2.5438 0.0174-3.8438 0.0625-0.467 0.0162-1.5307 0.0627-1.6992 0.0742-0.03437 2e-3 -0.16094 0.01-0.28125 0.0159-1.5232 0.0808-3.2481 0.22528-4.8047 0.40256-2.8813 0.32814-5.7012 0.83925-8.0616 1.4611-0.08112 0.0214-0.1491 0.0373-0.15107 0.0353-2e-3 -2e-3 0.41378-1.3389 0.92389-2.971s0.93049-2.9781 0.93418-2.9911l0.0067-0.0237 0.20127-0.0453c4.0359-0.90869 8.4566-1.4297 13.498-1.5908 1.1823-0.0378 2.1356-0.0495 3.6367-0.0445 1.2002 4e-3 1.483 8e-3 2.2695 0.0288 5.464 0.14776 10.426 0.74602 14.886 1.795l0.19113 0.045 0.84181 2.9453c0.46299 1.6199 0.84192 2.9462 0.84207 2.9472 5e-4 4e-3 -0.0193 6.1e-4 -0.0427-7e-3z"/>
			<path transform="matrix(.26458 0 0 .26458 0 246.2)" d="m74.886 132.05-0.83631-0.18628 0.98332-3.3711 0.98332-3.3711 0.01315 5.2e-4c0.01341 5.2e-4 7.9296 1.7688 7.9416 1.774 0.0048 2e-3 -1.0985 0.71862-4.1124 2.6708-2.2655 1.4674-4.1229 2.6683-4.1277 2.6687-0.0048 4.1e-4 -0.38502-0.0831-0.84499-0.18555z"/>
			<path transform="matrix(.26458 0 0 .26458 0 246.2)" d="m91.674 128.49-4.4957-1.8736 0.01914-9e-3c0.01053-5e-3 2.0342-0.84813 4.497-1.8742l4.4779-1.8657 4.5446 1.8741c2.9564 1.2191 4.5422 1.875 4.5377 1.8766-4e-3 1e-3 -2.0468 0.84377-4.5401 1.8719-2.4933 1.0282-4.5358 1.8702-4.5391 1.8712-0.0032 1e-3 -2.0289-0.84126-4.5016-1.8717z"/>
			<path transform="matrix(.26458 0 0 .26458 0 246.2)" d="m112.58 129.57c-2.2671-1.4685-4.1215-2.6704-4.1209-2.671s1.8756-0.40125 4.1666-0.89036c2.5367-0.54154 4.1665-0.88777 4.168-0.88543 5e-3 8e-3 2.0601 6.6454 2.0581 6.6474-1e-3 1e-3 -0.47473 0.10483-1.0524 0.23039-0.57764 0.12555-1.0609 0.23068-1.0738 0.23361l-0.0236 5e-3z"/>
			<path transform="matrix(.26458 0 0 .26458 0 246.2)" d="m95.392 146.66c-5.8179-0.0569-10.981-0.54219-15.341-1.4421-1.1371-0.2347-1.9657-0.43727-2.9389-0.71848-3.4241-0.98942-5.4056-2.1323-5.9208-3.415-0.27063-0.67378-0.14193-1.3641 0.37547-2.014 0.18672-0.23453 0.57313-0.58398 0.8995-0.81349 1.327-0.93317 3.5976-1.7812 6.7553-2.523 1.2993-0.30524 2.5422-0.54493 4.1495-0.80022 0.87013-0.1382 2.181-0.30832 3.2372-0.42014 2.4699-0.26147 4.85-0.40543 7.7782-0.47045 1.6511-0.0367 4.5442-0.0178 5.9717 0.0389 0.0851 3e-3 0.34858 0.0136 0.58557 0.0227 3.5009 0.1345 6.8413 0.46275 9.7835 0.96139 2.8762 0.48744 5.6401 1.1815 7.5363 1.8925 1.9122 0.71695 3.1401 1.4914 3.7036 2.3357 0.17831 0.26718 0.29652 0.56451 0.33922 0.85321 0.0204 0.13805 0.0155 0.39883-0.0103 0.54799-0.0579 0.33462-0.22393 0.68002-0.48289 1.0045-0.11595 0.1453-0.41205 0.43413-0.59539 0.58077-0.55935 0.44738-1.2987 0.86324-2.2429 1.2615-1.3939 0.58801-3.273 1.1485-5.3254 1.5884-3.6948 0.79192-7.9691 1.2823-12.706 1.4578-1.1418 0.0423-1.8722 0.0588-3.2096 0.0723-1.1106 0.0113-1.1085 0.0113-2.3423-7.9e-4z"/>
			<path transform="matrix(.26458 0 0 .26458 0 246.2)" d="m72.443 173.45c-2.6739-0.20641-4.8007-0.45654-6.8709-0.80807-2.1686-0.36825-4.9729-1.2321-8.4635-2.6071l-0.72498-0.28558-0.81737-0.54544c-5.2757-3.5206-10.105-5.5216-14.655-6.0723-0.9867-0.11943-1.4296-0.14307-2.6562-0.14177-2.4648 3e-3 -4.2739 0.2307-6.4375 0.81165-0.98736 0.26511-1.2866 0.39564-1.5928 0.69471-0.06066 0.0592-0.28608 0.21224-0.50092 0.33997-0.46074 0.27392-3.147 1.623-3.8438 1.9303-0.90969 0.4013-1.4541 0.57622-1.5367 0.4937-0.09083-0.0908 0.10894-0.31622 0.83116-0.93777 0.73572-0.63316 1.6024-1.5004 1.8962-1.8974 0.39704-0.53652 0.57078-0.93533 0.57227-1.3136 0.0013-0.32484-0.10091-0.51516-0.47867-0.89143-0.64631-0.64377-1.8252-1.2757-3.7843-2.0286-0.783-0.3009-1.0584-0.43675-1.2419-0.61255-0.16183-0.15502-0.17988-0.29647-0.05653-0.44306 0.3893-0.46265 2.447-0.88739 5.9315-1.2244 0.6381-0.0617 0.65895-0.066 1.2812-0.26604 2.8471-0.91507 5.9546-1.391 9.089-1.392 5.6445-2e-3 11.453 1.7674 17.419 5.3056 1.607 0.9531 3.4381 2.1817 5.0156 3.3653 0.58107 0.43597 0.89477 0.62056 1.9531 1.1493 2.0464 1.0223 3.7921 1.6075 5.3285 1.7864 1.0644 0.12393 1.7739 0.15681 3.4058 0.15784 1.6048 1e-3 2.6416-0.0375 4.2188-0.15662 3.3266-0.2513 5.6248-0.74093 7.125-1.5179 0.7052-0.36526 2.0167-1.3612 3.2721-2.4848 0.56657-0.50709 1.8182-1.7706 2.1739-2.1945 1.1005-1.3117 2.1732-3.5853 3.099-6.5686 0.3221-1.0379 0.37453-1.1816 0.57081-1.5639 0.69222-1.3486 1.9439-2.1277 3.8618-2.404 0.29697-0.0428 0.72477 0.0117 1.3494 0.1719 0.96762 0.24815 1.6734 0.64215 2.2916 1.2794 0.58731 0.60534 0.79049 0.99225 1.2717 2.4217 0.40446 1.2015 0.60539 1.7572 0.91934 2.5428 0.6878 1.721 1.4366 3.1275 2.1416 4.0226 0.5011 0.63622 1.8114 1.9529 2.8144 2.828 0.8058 0.70307 1.9382 1.5755 2.3502 1.8107 1.5396 0.87895 4.2692 1.4531 8.0248 1.6879 2.0708 0.12947 2.7045 0.15032 4.0312 0.13264 1.7108-0.0228 2.8995-0.11722 3.8438-0.30533 1.5373-0.30625 3.193-0.92803 5.1959-1.9513 0.71554-0.36556 0.7968-0.41639 1.4375-0.89904 2.7751-2.0906 5.2578-3.6481 7.9291-4.9744 4.0844-2.0278 7.9647-3.1752 11.938-3.5298 2.1523-0.1921 4.6534-0.11869 6.8713 0.20167 1.2959 0.18719 3.1952 0.60245 4.2068 0.91978 0.0773 0.0243 0.36562 0.11478 0.64062 0.20116 0.42718 0.13417 0.57055 0.16413 0.98438 0.20566 3.6306 0.36441 5.4445 0.73263 5.9441 1.2066 0.18297 0.17361 0.14446 0.34187-0.12286 0.53671-0.21788 0.15881-0.37196 0.22986-1.2935 0.59655-2.2976 0.91424-3.4933 1.664-3.8853 2.4362-0.37185 0.73259 0.0159 1.5537 1.3629 2.886 0.24626 0.24358 0.56727 0.54359 0.71337 0.6667 0.65938 0.55565 1.0156 0.90731 1.0156 1.0026 0 0.19679-0.90545-0.15732-2.75-1.0755-0.55-0.27378-1.3214-0.64993-1.7143-0.83588-0.96704-0.45772-1.3394-0.6668-1.5326-0.86063-0.305-0.30595-0.53579-0.40616-1.5457-0.67117-2.1205-0.5564-3.9916-0.79088-6.3168-0.79161-1.1883-3.8e-4 -1.6526 0.0245-2.625 0.14072-4.0667 0.486-8.3725 2.1279-12.969 4.9454-0.33516 0.20544-1.0524 0.66584-1.5938 1.0231l-0.98438 0.64957-0.62865 0.25047c-2.782 1.1084-5.4572 1.9692-7.5855 2.4409-1.3721 0.30408-4.1702 0.69104-6.5515 0.90605-1.4255 0.12872-1.5644 0.13257-4.2344 0.11744-2.6723-0.0151-2.9087-0.0248-4-0.16389-3.5744-0.4555-6.7974-1.8472-9.506-4.1048-0.51713-0.43102-0.6771-0.57886-1.9471-1.7995-3.1212-2.9998-4.6247-4.392-5.089-4.712-0.11134-0.0767-0.14848-0.0879-0.20558-0.0619-0.27399 0.12484-1.8736 1.6184-4.909 4.5835-1.5258 1.4905-1.9379 1.8584-2.8432 2.5387-1.6878 1.2681-3.582 2.2348-5.6144 2.8652-1.4621 0.4535-3.0357 0.72937-4.745 0.83186-0.46404 0.0278-5.1263 0.0359-5.4688 9e-3z"/>
		</g>
	</g>
</svg>
