<?xml version="1.0" encoding="UTF-8" standalone="no"?>
<svg
   xmlns:dc="http://purl.org/dc/elements/1.1/"
   xmlns:cc="http://creativecommons.org/ns#"
   xmlns:rdf="http://www.w3.org/1999/02/22-rdf-syntax-ns#"
   xmlns:svg="http://www.w3.org/2000/svg"
   xmlns="http://www.w3.org/2000/svg"
   xmlns:sodipodi="http://sodipodi.sourceforge.net/DTD/sodipodi-0.dtd"
   xmlns:inkscape="http://www.inkscape.org/namespaces/inkscape"
   viewBox="0 -410 2048 2048"
   id="svg2"
   version="1.1"
   inkscape:version="0.48.2 r9819"
   width="100%"
   height="100%"
   sodipodi:docname="wb.svg">
  <metadata
     id="metadata12">
    <rdf:RDF>
      <cc:Work
         rdf:about="">
        <dc:format>image/svg+xml</dc:format>
        <dc:type
           rdf:resource="http://purl.org/dc/dcmitype/StillImage" />
      </cc:Work>
    </rdf:RDF>
  </metadata>
  <defs
     id="defs10" />
  <sodipodi:namedview
     pagecolor="#ffffff"
     bordercolor="#666666"
     borderopacity="1"
     objecttolerance="10"
     gridtolerance="10"
     guidetolerance="10"
     inkscape:pageopacity="0"
     inkscape:pageshadow="2"
     inkscape:window-width="640"
     inkscape:window-height="982"
     id="namedview8"
     showgrid="false"
     inkscape:zoom="0.11523438"
     inkscape:cx="1024"
     inkscape:cy="1024"
     inkscape:window-x="0"
     inkscape:window-y="0"
     inkscape:window-maximized="0"
     inkscape:current-layer="svg2" />
  <g
     transform="matrix(1 0 0 -1 0 1638)"
     id="g4">
    <path
       fill="#000000"
       d="M1031 620q-113 0 -193 -20t-80 -48t80 -47.5t193 -19.5t193.5 19.5t80.5 47.5t-80.5 48t-193.5 20zM1257 1852q-43 0 -43 -42q0 -43 43 -43t43 43q0 42 -43 42zM1017 1855q-41 0 -41 -41t41 -41t41 41t-41 41zM1180 1286v51h-128v171h-51v-171h-128v-51h128v-239h51v239 h128zM1223 1243h-128v-239h-137v239h-128v136h128v171h137v-171h128v-136zM1123 699l-97 40l-96 -40l96 -40zM1415 1236q11 54 -33.5 199.5t-131.5 241.5q-13 8 -23 7q-15 -2 -27.5 -15t-3.5 -31q106 -72 162 -207t57 -195zM803 853q96 32 223 32q132 0 225 -32 q122 246 122 386q0 237 -343 461q-342 -224 -342 -461q0 -151 115 -386zM1232 751l-18 63q-84 20 -189 20q-103 0 -181 -18l-20 -64q83 22 201 22q124 0 207 -23zM1268 644l-22 71l-89 -19l88 -57zM790 643l18 -4l88 57l-85 19zM1025 242q-74 -107 -200 -107 q-13 0 -25.5 1.5t-24.5 2.5q-29 1 -85 10.5t-125 44.5q-61 53 -155 53q-72 0 -125 -34q-15 -7 -37 -29q-40 -43 -65 -47q-20 10 -21 34q-5 47 69 121q-13 -2 -49 -12q-30 -9 -40 -9q-33 -5 -35 -1q-11 11 8 45q16 29 62 51q6 3 38 17q93 49 195 49q149 0 269 -101 q48 -16 97 -16q150 0 155 124q-97 9 -161.5 33t-64.5 56l80 266q-70 110 -116 224t-46 216q0 306 332 470q0 13 3 39q-34 28 -34 71q0 92 93 92q92 0 92 -92q0 -40 -29 -67q0 -31 8 -42q17 -24 45 -25q29 1 48 26q4 6 8 37q-26 27 -26 67q0 94 94 94t94 -94q0 -53 -46 -82 q-4 -20 -2 -32q169 -200 147 -462q-7 -75 -23 -147.5t-56 -136.5q-15 -34 -46.5 -76.5t-54.5 -79.5l79 -266q-1 -32 -66 -56t-164 -33q5 -124 156 -124q49 0 97 16q119 101 269 101q102 0 194 -49q12 -6 21 -10t18 -7q45 -23 62 -51q3 -9 9 -23t-1 -22q-3 -4 -35 1 q-10 0 -40 9q-37 10 -50 12q74 -75 70 -121q-2 -23 -22 -34q-25 4 -65 47q-20 20 -36 29q-56 34 -125 34q-96 0 -156 -53q-69 -35 -125 -44.5t-84 -10.5q-12 -1 -25 -2.5t-25 -1.5q-129 0 -201 107zM1025 315q3 0 66 -61q58 -55 142 -55h20h21q43 3 82 10.5t93 29.5 q104 72 192 72q38 0 70 -9q13 -3 15.5 -6.5t22.5 -12.5q62 -32 31.5 -6.5t-23.5 37.5q6 13 46.5 28t-58.5 24q-50 17 -104 17q-120 0 -245 -97q-44 -24 -74.5 -27t-57.5 -1q-78 3 -104.5 21.5t-47.5 41.5q-20 21 -39 81q-10 32 -48 36q-39 -4 -48 -36q-18 -60 -39 -81 q-21 -23 -47.5 -41.5t-103.5 -21.5q-28 -2 -58.5 1t-73.5 27q-127 97 -245 97q-55 0 -104 -17q-100 -9 -59.5 -24t47.5 -28q6 -12 -24.5 -37.5t32.5 6.5q18 9 21 12.5t16 6.5q31 9 71 9q87 0 191 -72q54 -22 92.5 -29.5t83.5 -10.5h19.5h21.5q83 0 142 55q62 61 65 61z"
       id="path6" />
  </g>
  <path
     style="fill:#f9f9f9;fill-opacity:1;fill-rule:nonzero;stroke-linecap:butt;stroke-linejoin:round"
     d="M 794.83647,1164.3995 C 767.19407,1110.945 727.33195,1000.9835 711.18943,933.65542 681.36305,809.25387 692.5157,719.72879 750.30852,619.6368 780.19651,567.87348 914.49089,433.36315 982.50273,387.06921 l 49.62137,-33.776 50.1752,37.45794 c 90.2571,67.38071 148.7678,121.61037 190.0245,176.12091 104.2747,137.77311 118.2858,247.95628 54.9774,432.33949 -41.1905,119.96555 -77.0318,191.00415 -93.811,185.93645 -101.4534,-30.6416 -309.26405,-30.5615 -410.80171,0.1584 -10.03047,3.0347 -18.92325,-3.6406 -27.85202,-20.9069 l 0,0 z m 307.26523,-235.85713 0,-121.49152 60.7458,0 60.7457,0 0,-69.42373 0,-69.42373 -60.7457,0 -60.7458,0 0,-86.77966 0,-86.77966 -73.7627,0 -73.76273,0 0,86.77966 0,86.77966 -65.08474,0 -65.08475,0 0,69.42373 0,69.42373 65.08475,0 65.08474,0 0,121.49152 0,121.49153 73.76273,0 73.7627,0 0,-121.49153 z"
     id="path2989"
     inkscape:connector-curvature="0"
     transform="translate(0,-410)" />
  <path
     style="fill:#f9f9f9;fill-opacity:1;fill-rule:nonzero;stroke-linecap:butt;stroke-linejoin:round"
     d="m 1006.6441,876.47458 0,-121.49153 -65.08478,0 c -63.63842,0 -65.08474,-0.48211 -65.08474,-21.69491 0,-21.21281 1.44632,-21.69492 65.08474,-21.69492 l 65.08478,0 0,-82.44068 c 0,-82.15141 0.076,-82.44068 21.6949,-82.44068 21.6188,0 21.6949,0.28927 21.6949,82.44068 l 0,82.44068 60.7458,0 c 59.0101,0 60.7457,0.61987 60.7457,21.69492 0,21.07505 -1.7356,21.69491 -60.7457,21.69491 l -60.7458,0 0,121.49153 0,121.49152 -21.6949,0 -21.6949,0 0,-121.49152 z"
     id="path2991"
     inkscape:connector-curvature="0"
     transform="translate(0,-410)" />
  <path
     style="fill:#f9f9f9;fill-opacity:1;fill-rule:nonzero;stroke-linecap:butt;stroke-linejoin:round"
     d="m 991.39667,258.97634 c -25.1547,-25.15471 -2.66018,-63.11859 34.29513,-57.87978 16.5353,2.34404 20.0031,8.10126 20.0031,33.20852 0,25.95904 -3.1616,30.74236 -21.7559,32.91532 -11.9657,1.39834 -26.60975,-2.31149 -32.54233,-8.24406 z"
     id="path2993"
     inkscape:connector-curvature="0"
     transform="translate(0,-410)" />
  <path
     style="fill:#f9f9f9;fill-opacity:1;fill-rule:nonzero;stroke-linecap:butt;stroke-linejoin:round"
     d="m 1235.308,271.05356 c -23.5835,-15.06592 -16.7296,-61.19306 10.0928,-67.92507 26.4327,-6.63418 47.6161,8.86655 47.6161,34.84256 0,32.39753 -30.9803,50.15751 -57.7089,33.08251 z"
     id="path2995"
     inkscape:connector-curvature="0"
     transform="translate(0,-410)" />
  <path
     style="fill:#f9f9f9;fill-opacity:1;fill-rule:nonzero;stroke-linecap:butt;stroke-linejoin:round"
     d="m 1380.8033,667.03876 c -0.5537,-7.79986 -17.2795,-46.8507 -37.1685,-86.77966 -25.9147,-52.02604 -51.9318,-88.13978 -91.8135,-127.44423 -56.7893,-55.96735 -64.6213,-79.66257 -26.3309,-79.66207 22.6439,2.9e-4 51.8415,33.21608 92.4543,105.17796 33.1213,58.68782 72.7883,169.41136 67.628,188.77215 -3.4599,12.98106 -3.8438,12.97589 -4.7694,-0.0642 l 0,7e-5 z"
     id="path2997"
     inkscape:connector-curvature="0"
     transform="translate(0,-410)" />
  <path
     style="fill:#f9f9f9;fill-opacity:1;fill-rule:nonzero;stroke-linecap:butt;stroke-linejoin:round"
     d="m 837.28618,1268.399 c 3.13758,-12.711 8.69341,-26.1807 12.3463,-29.9327 20.23037,-20.7791 337.58482,-20.4136 357.82522,0.4122 3.4262,3.5253 8.7697,16.7026 11.8745,29.283 l 5.645,22.8733 -41.9123,-8.3979 c -55.5693,-11.1344 -266.3283,-11.1047 -313.85043,0.044 l -37.63298,8.8288 5.70469,-23.1108 z"
     id="path2999"
     inkscape:connector-curvature="0"
     transform="translate(0,-410)" />
  <path
     style="fill:#f9f9f9;fill-opacity:1;fill-rule:nonzero;stroke-linecap:butt;stroke-linejoin:round"
     d="m 802.64844,1378.9391 c 8.20603,-38.8714 12.13325,-41.5643 46.8041,-32.0942 31.92891,8.7212 30.5897,11.5728 -19.51496,41.5529 l -33.52005,20.0567 6.23091,-29.5154 z"
     id="path3001"
     inkscape:connector-curvature="0"
     transform="translate(0,-410)" />
  <path
     style="fill:#f9f9f9;fill-opacity:1;fill-rule:nonzero;stroke-linecap:butt;stroke-linejoin:round"
     d="m 976.77149,1363.4072 -34.21155,-15.1022 36.55666,-14.6271 c 45.1133,-18.0507 48.3483,-18.0534 95.4142,-0.079 l 38.0942,14.5483 -37.804,15.3398 c -46.541,18.8849 -55.1036,18.8779 -98.04951,-0.08 l 0,0 z"
     id="path3003"
     inkscape:connector-curvature="0"
     transform="translate(0,-410)" />
  <path
     style="fill:#f9f9f9;fill-opacity:1;fill-rule:nonzero;stroke-linecap:butt;stroke-linejoin:round"
     d="m 1207.3459,1379.5534 -37.9422,-24.9275 24.9253,-5.4954 c 13.7089,-3.0224 29.9316,-7.0472 36.0505,-8.9438 10.9641,-3.3985 27.9256,28.9092 27.9256,53.1918 0,16.9792 -6.9361,15.0974 -50.9592,-13.8251 z"
     id="path3005"
     inkscape:connector-curvature="0"
     transform="translate(0,-410)" />
  <path
     style="fill:#f9f9f9;fill-opacity:1;fill-rule:nonzero;stroke-linecap:butt;stroke-linejoin:round"
     d="m 971.9322,1556.2731 c -116.98505,-9.0604 -208.27118,-35.7096 -208.27118,-60.8007 0,-19.3877 65.87363,-43.3531 151.77447,-55.2168 135.96431,-18.7781 332.62341,3.5396 371.21021,42.1264 l 17.6062,17.6062 -28.7053,17.4568 c -42.6743,25.9518 -203.8056,46.5583 -303.6144,38.8281 z"
     id="path3007"
     inkscape:connector-curvature="0"
     transform="translate(0,-410)" />
  <path
     style="fill:#f9f9f9;fill-opacity:1;fill-rule:nonzero;stroke-linecap:butt;stroke-linejoin:round"
     d="m 750.64407,1842.9532 c -63.69697,-8.7087 -109.64071,-24.0477 -185.91279,-62.0696 -69.86539,-34.8281 -90.77939,-41.2208 -143.57929,-43.8871 -42.34027,-2.1381 -71.92618,1.1093 -93.95162,10.3121 -30.72643,12.8383 -32.14952,12.6786 -32.14952,-3.6078 0,-9.6033 -11.28147,-23.9013 -25.84857,-32.7601 l -25.84856,-15.7195 82.23683,-13.215 c 126.02269,-20.2512 194.4002,-3.8092 320.22173,77.0002 50.24114,32.2676 53.10594,32.9753 130.18598,32.1603 109.69531,-1.1598 156.39651,-29.2096 195.36765,-117.3423 34.42929,-77.8615 72.95639,-79.9267 104.48329,-5.6007 34.9863,82.4815 75.3959,112.5415 166.4626,123.8288 71.9596,8.9191 109.3335,-0.5674 190.5249,-48.3598 122.7354,-72.247 193.2577,-84.9804 319.959,-57.7713 l 56.2534,12.0804 -25.8805,12.584 c -17.6502,8.5822 -25.6613,18.6989 -25.1914,31.8127 0.3792,10.5757 -0.1207,19.2286 -1.1098,19.2286 -0.9893,0 -16.9001,-6.3098 -35.3574,-14.0217 -58.1891,-24.313 -143.8065,-13.1608 -227.5527,29.6401 -93.6501,47.8626 -156.5553,64.9767 -239.9912,65.2925 -81.7567,0.3095 -121.0739,-16.1418 -187.8467,-78.6 l -42.1952,-39.4687 -47.59907,45.0173 c -26.1795,24.7594 -60.33194,50.3119 -75.89431,56.7831 -31.92825,13.2767 -110.60791,22.0401 -149.78675,16.6835 z"
     id="path3009"
     inkscape:connector-curvature="0"
     transform="translate(0,-410)" />
</svg>
