<?xml version="1.0" encoding="UTF-8"?>
<svg width="144pt" height="144pt" version="1.1" viewBox="0 0 50.8 50.8" xmlns="http://www.w3.org/2000/svg">
	<g transform="translate(0,-246.2)">
		<g transform="translate(.0084071 1.3899)" aria-label="k">
			<path d="m17.735 280.91-2.4061-0.79375-1.8604 1.4883 2.3564 0.79375zm21.456 0.0744q0.17363 0.5209 0.17363 0.99219 0 1.4635-1.0666 2.2572-0.09922 0.42168-0.14883 0.84336 0.91777 1.2898 0.91777 2.0836 0 2.0836-4.0184 3.5719-4.0184 1.4883-9.649 1.4883-5.6555 0-9.6738-1.4883-3.9936-1.4883-3.9936-3.5719 0-0.81856 0.96738-2.1332-0.04961-0.27286-0.14883-0.76895-1.0914-0.79375-1.0914-2.282 0-0.47129 0.14883-0.96738 0.24805-0.62012-0.09922-0.96739-0.34726-0.34726-0.79375-0.96738-0.39688-1.2402-0.39688-1.7115 0.02481-0.22324 0.07441-0.4961 0.07441-0.27285 0.07441-0.64492-1.0914-1.0914-2.282-2.0588-1.1658-0.99218-1.8355-2.3812-0.79375-1.6371-1.4635-3.299-0.64492-1.6867-0.64492-3.299 0-3.051 1.6123-5.1594 1.6123-2.1084 4.3656-3.299 3.6711-0.24805 3.1006-0.24805 4.316 0 7.8383 3.1998v-8.7064h8.4584v8.7312q3.5223-3.2246 7.8879-3.2246-0.62012 0 3.1006 0.24805 2.7037 1.1906 4.316 3.299 1.6371 2.1084 1.6371 5.1594 0 1.6123-0.66973 3.2742-0.64492 1.6619-1.4139 3.299-0.66973 1.4139-1.8604 2.4557-1.1906 1.0418-2.2572 2.0836-0.0248 0.29765 0.02481 0.5705 0.07441 0.27286 0.09922 0.4961 0.0248 0.34726-0.39688 1.7115-0.44648 0.62012-0.79375 0.96738-0.32246 0.34727-0.09922 0.94258zm-13.791-21.506q-2.5549 0-2.5549 2.5549t2.5549 2.5549 2.5549-2.5549-2.5549-2.5549zm-0.99219-4.4896-1.7611-1.7115v3.7951l1.7611-1.4139q-0.07442-0.0992-0.07442-0.32246 0-0.14883 0.07442-0.34727zm0.57051 1.3146-1.4883 1.6123h3.8199l-1.5875-1.5875q-0.24805 0.0496-0.32246 0.0496-0.24805 0-0.42168-0.0744zm1.4139-0.57051 1.7611 1.3394v-3.7951l-1.7859 1.6371q0.07441 0.19843 0.07441 0.42168 0 0.14882-0.04961 0.39687zm-0.69453-1.4139 1.6123-1.91h-3.8199l1.5131 1.9348q0.14883-0.0744 0.39688-0.0744 0.09922 0 0.29766 0.0496zm2.7037 25.822-3.051-1.4635-2.927 1.4635 3.0262 1.4635zm-4.9609-6.7469q-0.02481-3.051-0.5209-6.1268-0.49609-3.1006-0.99219-3.7703-3.0758-3.3982-6.9453-3.3982-3.3238 0-5.0602 2.2324-1.141 1.4635-1.141 3.8447 0 4.9609 3.6959 9.277 0.42168-0.19844 0.81856-0.34727 0.42168-0.14883 0.84336-0.29765-0.22324-0.4961-0.44648-0.94258-0.22324-0.44649-0.47129-1.1658-0.47129-1.3891-0.37207-2.6293 0.17363-0.76895 0.84336-0.76895 0.29766 0 0.79375 0.5209-0.12402-0.66972-0.12402-0.84336 0-2.3068 1.9596-2.8525 2.0588 0.0992 2.7285 3.0758 0.22324-0.74414 0.62012-0.84336 0.39688-0.0992 0.5209-0.0992 0.29766 0 0.5209 0.14883 0.84336 1.0418 1.0418 3.0262 0.04961 0.44648 0.04961 0.86816 0.02481 0.42168 0.09922 1.1906 0.76894-0.14883 1.5379-0.0992zm-7.4166 0.84336q-0.22324-0.57051-0.47129-1.265-0.22324-0.69453-0.59531-1.4883-0.19844-0.39688-0.49609-0.39688-0.42168 0-0.44648 0.69453-0.04961 0.59532 1.2154 2.7285 0.19844-0.0744 0.39688-0.12402 0.22324-0.0744 0.39688-0.14883zm2.4805-0.37207q-0.09922-3.2494-0.96738-5.2586-0.29766-0.5209-0.86816-0.5209-0.71934 0-0.71934 0.71934-0.0248 0.0248-0.0248 0.64492 0 1.0666 1.2154 4.6633 1.0418-0.19843 1.3643-0.24804zm2.3316-0.24805q0.12402-1.91-0.19844-3.2246-0.09922-0.42168-0.47129-0.5209-0.5209-0.0744-0.69453 0.57051-0.19844 1.0666 0.34726 3.299 0.49609-0.12402 1.017-0.12402zm15.627 12.303q-0.19844-1.7859-4.9609-2.7285-1.4883-0.29766-3.0014-0.34727t-3.1006-0.12402q-1.5627 0.14883-2.9518 0.22324-1.3643 0.0744-2.4805 0.29766-5.4818 1.1162-5.6059 2.6789-0.19844 0.29766-0.19844 0.62012 0 1.1162 1.7859 2.2324 0-1.141 0.39688-1.7115 0.22324-0.27285 0.44648-0.5457 0.24805-0.29766 0.49609-0.59532 2.2324-1.3394 8.1607-1.1906 5.8043-0.14883 8.0863 1.1906 0.5457 0.69454 0.94258 1.141 0.39688 0.62012 0.39688 1.7115 1.7859-1.1162 1.7859-2.2324 0-0.32246-0.19844-0.62012zm-2.8773 2.3068q0-2.2324-8.2352-2.2324-8.1111 0-8.1111 2.2324 0.5209 2.2076 8.2104 2.2076 7.5654 0 8.1359-2.2076zm-0.29766-7.3174 1.8852 1.4883 2.3812-0.79375-1.8852-1.4883zm5.0105-5.4818q3.5471-4.3904 3.5471-9.2522 0-2.3812-1.141-3.8447-1.7611-2.2324-5.0602-2.2324-3.8943 0-6.9453 3.3982-0.5209 0.66972-1.017 3.7703-0.49609 3.0758-0.5209 6.1268 0.89297-0.0744 1.5875 0.0992 0.0248-0.76895 0.0248-1.1906 0.0248-0.42168 0.09922-0.86816 0.17363-1.9844 1.0418-3.0262 0.19844-0.14883 0.5209-0.14883 0.12402 0 0.5209 0.0992t0.62012 0.84336q0.64492-2.9766 2.7285-3.0758 1.9596 0.54571 1.9596 2.8525 0 0.17364-0.12402 0.84336 0.47129-0.5209 0.79375-0.5209 0.64492 0 0.84336 0.76895 0.07441 1.2402-0.37207 2.6293-0.27285 0.71933-0.49609 1.1658-0.19844 0.44648-0.42168 0.89297 0.44648 0.17363 0.89297 0.34726 0.47129 0.14883 0.91777 0.32246zm-3.6959-1.1906q0.14883 0.0744 0.34727 0.14883 0.22324 0.0496 0.44648 0.12402 1.2402-2.1332 1.2154-2.7285-0.04961-0.69453-0.44648-0.69453-0.32246 0-0.49609 0.39688-0.39688 0.79375-0.64492 1.4883-0.22324 0.69453-0.42168 1.265zm-2.4805-0.37207q0.29766 0.0496 1.3643 0.24804 1.2154-3.5967 1.2154-4.6633 0-0.62011-0.02481-0.64492 0-0.71934-0.71934-0.71934-0.59531 0-0.86816 0.5209-0.89297 2.0092-0.96738 5.2586zm-2.3316-0.24805q0.5209 0 1.017 0.12402 0.5209-2.2324 0.34726-3.299-0.19844-0.64492-0.69453-0.57051-0.39688 0.0992-0.47129 0.5209-0.34727 1.3146-0.19844 3.2246zm7.4166 5.4818q1.1162-0.12403 1.1162-1.2402 0-0.71933-0.64492-1.0914-2.0836-0.84336-5.3082-1.3643-3.1998-0.54571-6.9949-0.54571-7.9623 0-12.353 1.9596-0.5457 0.42168-0.5457 1.0418 0 1.265 1.265 1.2154 4.4152-1.6619 11.633-1.6619 7.3174 0 11.832 1.6867z" stroke-width=".26458"/>
		</g>
		<g fill="#fff" stroke-width=".2">
			<path transform="matrix(.26458 0 0 .26458 0 246.2)" d="m88.83 49.535c0.0077-0.0081 1.2695-1.3752 2.804-3.0381 1.5346-1.6629 2.7932-3.0267 2.797-3.0308 0.0067-0.0071 0.0088-0.0066 0.07663 0.0203 0.41415 0.16404 0.91665 0.24984 1.4701 0.25103 0.15755 3.38e-4 0.23879-0.0066 0.46097-0.0396 0.17518-0.02599 0.35422-0.05758 0.65571-0.1157l0.15379-0.02965 5.9971 5.9971h-14.429z"/>
			<path transform="matrix(.26458 0 0 .26458 0 246.2)" d="m91.676 32.395c-1.571-2.0088-2.8556-3.6532-2.8547-3.6541 9.14e-4 -9.13e-4 3.2466-0.0012 7.2125-6.82e-4l7.2109 9.77e-4 -3.0394 3.6005c-1.6717 1.9803-3.042 3.603-3.0452 3.6062-0.0051 0.0049-0.01465 0.0035-0.07611-0.01155-0.26787-0.06552-0.53165-0.11768-0.72852-0.14404-0.15729-0.02107-0.1984-0.02365-0.37109-0.02335-0.54325 9.62e-4 -0.99857 0.07968-1.3564 0.23449-0.03279 0.01419-0.06772 0.02989-0.07762 0.03489l-0.018 0.0091z"/>
			<path transform="matrix(.26458 0 0 .26458 0 246.2)" d="m85.629 39.193v-7.1632l0.01478 0.01339c0.02372 0.02149 6.4769 6.2911 6.5587 6.3722l0.07422 0.07353-0.0061 0.01828c-0.0034 0.01006-0.02387 0.06924-0.04559 0.13153-0.11022 0.31614-0.17978 0.60812-0.21388 0.89769-0.0137 0.11632-0.01355 0.47518 2.48e-4 0.61872 0.03614 0.37587 0.1178 0.65385 0.24466 0.8328 0.01024 0.01444 0.01849 0.02811 0.01834 0.03038-1.49e-4 0.0023-1.3668 1.1009-3.037 2.4415-1.6702 1.3406-3.1653 2.5407-3.3226 2.6669l-0.28588 0.22955z"/>
			<path transform="matrix(.26458 0 0 .26458 0 246.2)" d="m106.07 46.08c-0.19749-0.15061-0.51942-0.39578-0.71539-0.54484-0.19598-0.14906-0.52785-0.40148-0.73749-0.56093-1.0526-0.8006-1.9634-1.4932-3.3201-2.5248-0.82036-0.62376-1.4962-1.1385-1.5018-1.1439-0.0099-0.0095-0.0095-0.01353 0.01519-0.14195 0.09253-0.48152 0.14615-0.9 0.15732-1.2279 0.01892-0.55532-0.06277-1.1079-0.24021-1.6248-0.01991-0.058-0.03538-0.10609-0.03438-0.10686 0.0042-0.0032 6.7046-6.144 6.7235-6.1619l0.0207-0.01969v7.1661c0 3.9414-2e-3 7.1659-4e-3 7.1657-2e-3 -2.43e-4 -0.16573-0.12367-0.36322-0.27428z"/>
			<path transform="matrix(.26458 0 0 .26458 0 246.2)" d="m95.445 74.756c-1.1348-0.04476-1.9957-0.1569-2.8711-0.37397-3.2071-0.79529-5.1705-2.84-5.886-6.1298-0.41729-1.9187-0.41256-4.4393 0.0119-6.3348 0.34183-1.5265 0.93593-2.7526 1.8187-3.7533 0.12033-0.13642 0.42366-0.44026 0.55927-0.56023 1.0049-0.88896 2.2496-1.4901 3.7891-1.8301 1.2482-0.27563 2.7779-0.37443 4.3047-0.27803 2.4927 0.15739 4.4704 0.88427 5.8672 2.1564 0.142 0.12933 0.41328 0.40474 0.53064 0.5387 1.1679 1.3331 1.8468 3.1255 2.0508 5.4141 0.0464 0.52073 0.0591 0.84352 0.0591 1.5078 0 0.57237-5e-3 0.74371-0.0315 1.1484-0.15335 2.3166-0.77456 4.1533-1.8668 5.5193-0.29487 0.3688-0.67725 0.7543-1.0405 1.049-0.91856 0.74522-2.0744 1.2835-3.4245 1.5949-0.80384 0.1854-1.6493 0.29121-2.6288 0.32901-0.17058 0.0066-1.0918 0.0085-1.2422 0.0025z"/>
			<path transform="matrix(.26458 0 0 .26458 0 246.2)" d="m46.959 115.54c-8.3413-9.8579-12.89-20.373-13.615-31.475-0.10022-1.534-0.12962-3.9003-0.06349-5.1094 0.29004-5.303 1.7101-9.4633 4.3892-12.859 3.1564-4.0006 7.4507-6.5957 12.689-7.6686 3.7661-0.77128 8.0545-0.81092 11.938-0.11033 5.3402 0.9635 10.347 3.3193 15.051 7.0818 1.2898 1.0317 2.3657 2.0017 3.7175 3.3516 1.2011 1.1994 1.7679 1.8115 1.9833 2.1419 0.98853 1.5161 2.0029 5.079 2.9982 10.531 1.5978 8.7526 2.4511 17.43 2.5554 25.986l0.0074 0.61119-1.0534-0.0136c-1.6053-0.0208-2.8467 0.0736-4.2871 0.32587-0.23884 0.0418-0.43731 0.0723-0.44106 0.0676-0.0106-0.0132-0.22702-2.4465-0.29814-3.3522-0.03509-0.44688-0.07645-1.2555-0.09192-1.7969-0.03673-1.2861-0.11439-2.245-0.29994-3.7031-0.53435-4.1991-1.7297-7.5819-3.5243-9.9741-0.30792-0.41043-0.42179-0.50001-0.86508-0.68053-0.44023-0.17927-1.1037-0.29064-1.514-0.25411-0.63676 0.05668-1.8944 0.34706-2.25 0.51952-0.56342 0.27322-1.0506 0.8448-1.4644 1.718-0.17552 0.37041-0.45749 1.1145-0.45749 1.2072 0 0.12119-0.04362-0.01569-0.1872-0.58748-0.79808-3.1783-1.8437-5.5233-3.2814-7.3595-0.32861-0.41968-1.2273-1.3286-1.6252-1.6436-1.2074-0.95602-2.6804-1.593-4.2031-1.8176-0.17188-0.02535-0.47587-0.06099-0.67555-0.07921l-0.36305-0.03312-0.3557 0.10796c-2.3029 0.69893-4.1337 1.9918-5.2822 3.7302-0.8211 1.2428-1.338 2.6588-1.6005 4.384-0.13233 0.86974-0.15936 1.2468-0.15995 2.2311-5.31e-4 0.87602 0.0052 0.97418 0.08734 1.4968 0.08021 0.51033 0.27604 1.6507 0.32253 1.8782 0.01706 0.08351-0.01454 0.06124-0.28939-0.20393-0.73406-0.70822-1.2377-1.0943-1.7773-1.3625-0.4747-0.23592-0.73792-0.28649-1.2333-0.23695-0.94835 0.09482-1.6346 0.47901-2.1649 1.2121-0.13362 0.18469-0.39128 0.69592-0.48699 0.96627-0.21878 0.61797-0.25391 0.94258-0.25528 2.3594-0.0031 3.1376 0.57509 6.0019 1.9585 9.7031 0.50339 1.3468 0.78217 1.9872 1.5713 3.6094 0.64265 1.3211 1.3928 2.9324 1.3732 2.9496-0.0068 6e-3 -0.77182 0.2793-1.6999 0.60723-1.984 0.70099-2.9796 1.0938-4.0938 1.615-0.17188 0.0804-0.34364 0.15847-0.3817 0.17345-0.06101 0.024-0.09647-5e-3 -0.29956-0.24499z"/>
			<path transform="matrix(.26458 0 0 .26458 0 246.2)" d="m144.52 115.62c-0.49182-0.19494-1.3964-0.51755-2.3594-0.84144-0.77514-0.26072-4.0393-1.496-4.1754-1.5801-0.0147-9e-3 0.0558-0.18104 0.15653-0.38215 0.26509-0.52909 0.77566-1.6063 1.1287-2.3813 0.16833-0.36953 0.39879-0.86564 0.51212-1.1025 0.48499-1.0134 1.385-3.1867 1.6604-4.0092 0.50803-1.5176 0.9764-3.5681 1.1987-5.2478 0.14129-1.0676 0.18656-1.6872 0.21006-2.875 0.0252-1.2714-7e-3 -1.708-0.15719-2.1562-0.53014-1.5788-1.4697-2.3917-2.8566-2.4715-0.5602-0.03223-0.97856 0.09611-1.571 0.48195-0.40119 0.26126-0.67388 0.49041-1.2109 1.0176-0.22945 0.22522-0.40948 0.38137-0.40007 0.34699 0.0721-0.26348 0.35712-2.0564 0.41443-2.6068 0.0797-0.76506 0-2.1244-0.19211-3.2747-0.26071-1.5618-0.79552-2.9852-1.5433-4.1073-0.3693-0.55421-0.62773-0.87163-1.0799-1.3265-1.0405-1.0466-2.3041-1.7973-3.95-2.3468l-0.60565-0.2022-0.26935 0.02077c-1.6682 0.12866-3.1506 0.62065-4.4256 1.4687-2.5708 1.7101-4.4069 4.8926-5.5033 9.5388-0.0659 0.2793-0.13081 0.50781-0.14422 0.50781-0.0134 0-0.0244-0.0222-0.0244-0.04934 0-0.08627-0.31188-0.89081-0.48399-1.2485-0.4236-0.88039-0.98909-1.4916-1.588-1.7164-0.23937-0.08983-1.3236-0.33837-1.7874-0.40973-0.75891-0.11676-1.7016 0.05959-2.234 0.41793-0.20653 0.13901-0.5296 0.54122-0.9838 1.2248-1.6311 2.4548-2.644 5.6894-3.063 9.7813-0.0273 0.2664-0.0981 0.82187-0.15739 1.2344-0.18574 1.2925-0.23399 1.8694-0.26522 3.1719-0.0492 2.0526-0.0984 3.8903-0.10424 3.8962-3e-3 3e-3 -0.12496-0.0222-0.27086-0.0562-1.2731-0.29648-2.9978-0.43728-4.5575-0.37206-0.44085 0.0184-0.87537 0.0422-0.9656 0.0527l-0.16407 0.0192 2.3e-4 -0.62149c2.6e-4 -0.69597 0.0447-2.492 0.0939-3.7934 0.22806-6.0371 0.82243-12.102 1.7839-18.203 1.231-7.8114 2.4749-12.62 3.7599-14.536 0.21497-0.32045 0.83396-0.98517 2.0641-2.2166 1.4102-1.4117 2.3209-2.2378 3.5948-3.261 5.4155-4.3495 11.25-6.8228 17.547-7.438 2.2531-0.22015 4.721-0.20327 6.9375 0.04745 6.3143 0.71427 11.406 3.3745 15.097 7.8883 2.5308 3.0946 4.0079 7.0118 4.4484 11.797 0.0971 1.0547 0.12297 1.7257 0.12238 3.1719-6.2e-4 1.5298-0.0303 2.3307-0.13843 3.7344-0.77491 10.06-4.6609 19.769-11.607 29-0.59824 0.79505-1.3893 1.8087-1.5566 1.9946l-0.10033 0.11148z"/>
			<path transform="matrix(.26458 0 0 .26458 0 246.2)" d="m57.489 112.09c-1.003-1.7052-1.6912-2.9363-2.3616-4.2246-0.14544-0.27949-0.5204-1.0278-0.64356-1.2844-1.0454-2.1776-1.5298-3.6698-1.484-4.5713 0.0273-0.53758 0.05947-0.81792 0.1304-1.1363 0.19264-0.86477 0.59609-1.3667 1.2045-1.4986 0.17592-0.03813 0.40511-0.04588 0.5852-0.01978 0.30235 0.04381 0.60125 0.1866 0.85948 0.41056 0.07041 0.06106 0.19854 0.19004 0.25917 0.26089 0.17153 0.20041 0.36331 0.4953 0.50184 0.77165 0.08732 0.17419 0.42259 0.91035 0.63356 1.3911 0.60587 1.3807 1.1521 2.7938 1.5524 4.0161 0.23955 0.73143 1.1699 3.2509 1.7641 4.7772 0.05177 0.13299 0.09485 0.24566 0.09573 0.25036 0.0019 0.0102-0.06172 0.038-0.35196 0.15396-0.4309 0.17212-1.05 0.39287-1.2264 0.4373-0.37571 0.0946-0.86403 0.24607-1.2701 0.39391-0.0757 0.0276-0.13908 0.05-0.14086 0.05-0.0018-7e-5 -0.05035-0.0802-0.10794-0.17816z"/>
			<path transform="matrix(.26458 0 0 .26458 0 246.2)" d="m64.53 109.91c-2.4833-7.4091-3.9106-12.672-4.2343-15.614-0.06379-0.5798-0.06677-0.65334-0.06551-1.6186 0.0015-1.1173 0.02213-1.7024 0.06698-1.8948 0.0092-0.0395 0.02079-0.16628 0.02574-0.28174 0.02747-0.64044 0.1666-1.129 0.43893-1.5413 0.11396-0.17254 0.34384-0.40334 0.51584-0.51792 0.33748-0.22483 0.71638-0.35474 1.2197-0.4182 0.19315-0.02435 0.82879-0.02748 1.0076-5e-3 0.81956 0.10326 1.4442 0.38858 2.0126 0.91926 0.25932 0.24211 0.53663 0.59425 0.7434 0.94398 0.06962 0.11776 0.31763 0.71006 0.53681 1.282 1.7313 4.5179 2.7559 10.104 3.0927 16.86 0.02554 0.51241 0.07705 1.7897 0.0727 1.8029-3.61e-4 1e-3 -0.1398 0.0248-0.30987 0.0527-0.77398 0.12682-1.975 0.34492-3.871 0.70293-0.5127 0.0968-0.94028 0.17601-0.95018 0.17601-0.01399-1e-5 -0.08115-0.18847-0.3022-0.84798z"/>
			<path transform="matrix(.26458 0 0 .26458 0 246.2)" d="m74.935 109.34c-0.0058-0.022-0.06274-0.25783-0.11069-0.45858-1.2356-5.1728-1.6529-9.1037-1.2432-11.71 0.04264-0.27133 0.06187-0.35033 0.14852-0.61023 0.45012-1.35 1.2635-1.9625 2.4312-1.831 0.08231 0.0093 0.13923 0.02319 0.26037 0.06362 0.60974 0.20354 1.0665 0.60641 1.3554 1.1956 0.13166 0.26847 0.20733 0.50902 0.33369 1.0607 0.43043 1.8791 0.684 3.9502 0.76834 6.2756 0.021 0.57909 0.02808 1.018 0.02806 1.7413-2.2e-5 0.98281-0.01882 1.7571-0.06671 2.7472-0.01885 0.38973-0.05819 1.0716-0.062 1.0746-7.64e-4 6.2e-4 -0.13439 4e-3 -0.29694 7e-3 -0.30495 7e-3 -0.4266 0.0113-0.66844 0.0258-0.86162 0.0517-1.7044 0.17082-2.5333 0.35819-0.10928 0.0247-0.31139 0.0728-0.32936 0.0784-0.0072 2e-3 -0.0107-2e-3 -0.01493-0.0181z"/>
			<path transform="matrix(.26458 0 0 .26458 0 246.2)" d="m116.38 109.34c-0.0989-0.0269-0.43369-0.10136-0.64843-0.14417-0.92365-0.18412-1.8613-0.28493-2.7748-0.2983l-0.32945-5e-3 -5e-3 -0.0437c-6e-3 -0.0563-0.0311-0.40707-0.051-0.7117-0.15095-2.3009-0.1523-4.4696-4e-3 -6.418 0.13119-1.7234 0.3762-3.2923 0.74238-4.7539 0.0361-0.14394 0.0763-0.3127 0.0893-0.375 0.20121-0.95905 0.7556-1.5653 1.6682-1.8242 0.16003-0.04541 0.45088-0.06407 0.66893-0.04292 0.35826 0.03475 0.70572 0.17606 0.99106 0.40306 0.15547 0.12368 0.357 0.34762 0.48797 0.54222 0.19167 0.28479 0.36979 0.66043 0.5075 1.0703 0.0454 0.13515 0.0538 0.16998 0.0743 0.30859 0.0983 0.6631 0.13696 1.2734 0.13667 2.1562-1.7e-4 0.54161-5e-3 0.73276-0.031 1.2187-0.12522 2.3436-0.59162 5.2649-1.397 8.75-0.0473 0.20457-0.0376 0.19168-0.12612 0.16758z"/>
			<path transform="matrix(.26458 0 0 .26458 0 246.2)" d="m125.89 110.63c-1.3671-0.25606-3.4875-0.64234-4.1819-0.76184-0.14584-0.0251-0.26636-0.0468-0.26784-0.0483-3e-3 -3e-3 0.0135-0.59283 0.0305-1.0838 0.25796-7.4673 1.41-13.602 3.4525-18.385 0.16326-0.38231 0.19578-0.45027 0.2941-0.61472 0.55301-0.92486 1.3205-1.4783 2.3176-1.6712 0.29485-0.05704 0.42078-0.06717 0.83544-0.06717 0.3961 0 0.49332 0.0066 0.74578 0.05071 0.45176 0.07892 0.84144 0.24337 1.1336 0.47839 0.28287 0.22753 0.52229 0.57561 0.6506 0.94588 0.10816 0.31211 0.182 0.76543 0.18257 1.1209 9e-5 0.05615 7e-3 0.11937 0.0155 0.14418 0.0404 0.1165 0.0583 0.48413 0.0738 1.5136 0.0163 1.0814 5e-3 1.414-0.0736 2.1047-0.29759 2.6263-1.4552 7.0487-3.4704 13.258-0.22162 0.68289-0.72621 2.209-0.88587 2.6793-0.14271 0.42033-0.15568 0.45314-0.17997 0.45507-0.0144 1e-3 -0.31702-0.0524-0.67251-0.11898z"/>
			<path transform="matrix(.26458 0 0 .26458 0 246.2)" d="m133.75 112.25c-0.34521-0.12054-1.0345-0.31358-1.4971-0.4193-0.10002-0.0229-0.14642-0.0368-0.23755-0.0716-0.39726-0.15157-0.77069-0.31111-1.0875-0.46464-0.0899-0.0436-0.11181-0.0563-0.10908-0.0634 9e-3 -0.0235 0.18512-0.53518 0.31262-0.90834 0.35385-1.0356 0.77702-2.3116 1.1515-3.472 0.12173-0.37721 0.16389-0.49906 0.29439-0.85073 0.56157-1.5134 1.2865-3.1776 2.1021-4.8255 0.0759-0.15343 0.16716-0.34124 0.20271-0.41736 0.0356-0.0761 0.0827-0.17181 0.10469-0.21268 0.40187-0.74544 0.90685-1.1339 1.5577-1.1984 0.0854-0.0085 0.28011-7e-3 0.358 0.0026 0.40956 0.05071 0.72697 0.25474 0.97111 0.62425 0.0281 0.04253 0.0636 0.09971 0.0788 0.12706 0.24093 0.43227 0.39146 1.0493 0.44949 1.8424 0.0154 0.21041-0.0154 0.51676-0.0868 0.86395-0.34558 1.6805-1.7326 4.641-4.1297 8.8146-0.33756 0.58774-0.37191 0.64608-0.3802 0.64579-5e-3 -1.5e-4 -0.0294-8e-3 -0.0553-0.0167z"/>
			<path transform="matrix(.26458 0 0 .26458 0 246.2)" d="m140.05 129.38c-1.1595-0.43029-2.9867-1.0299-4.4636-1.4647-8.5419-2.515-18.722-4.0124-30.671-4.5112-5.748-0.23997-12.342-0.23598-18.131 0.011-13.793 0.58837-25.288 2.5726-34.424 5.9419l-0.39417 0.14537h-0.41556c-1.6232 0-2.7825-0.48049-3.5164-1.4575-0.46271-0.61596-0.73389-1.4451-0.81701-2.4979-0.03137-0.39737-0.01378-1.1099 0.03437-1.3918 0.13397-0.78437 0.43366-1.4679 0.92197-2.1029 0.17724-0.23048 0.67485-0.73645 0.91432-0.92969 0.16775-0.13537 0.50646-0.2931 1.5882-0.73959 8.5051-3.5105 19.438-5.6541 32.882-6.4474 4.3165-0.25469 8.4892-0.36016 13.291-0.33594 2.4442 0.0123 3.2683 0.0256 5.0271 0.0811 6.061 0.19111 11.673 0.66353 17.081 1.4378 1.5246 0.21829 4.009 0.61888 5.679 0.9157 6.9172 1.2294 12.689 2.7574 17.326 4.5866 0.65045 0.25659 1.0576 0.51939 1.5527 1.0022 0.49882 0.48641 0.80865 0.94805 1.0391 1.5483 0.35777 0.93176 0.40562 2.2022 0.12484 3.3147-0.33761 1.3378-1.123 2.2293-2.4093 2.7348-0.40483 0.15911-1.1292 0.33251-1.4916 0.35703l-0.16573 0.0112z"/>
			<path transform="matrix(.26458 0 0 .26458 0 246.2)" d="m55.523 140.62c-2.374-0.79999-4.376-1.4744-4.4488-1.4988l-0.13235-0.0442 7.0282-5.6225 4.5431 1.4987c2.4987 0.82432 4.543 1.4997 4.5429 1.5009-9e-5 1e-3 -0.08402 0.0673-0.18652 0.1469-0.14562 0.11312-1.8269 1.423-3.2606 2.5403-0.09238 0.072-0.51426 0.40074-0.9375 0.73053-0.42324 0.32979-0.95146 0.7414-1.1738 0.91468-1.3732 1.0702-1.6543 1.2888-1.6561 1.2884-0.0011-2.3e-4 -1.9444-0.65496-4.3185-1.455z"/>
			<path transform="matrix(.26458 0 0 .26458 0 246.2)" d="m90.507 136.32c-3.1419-1.5194-5.7125-2.764-5.7125-2.7657 0-2e-3 2.4865-1.2462 5.5257-2.7656l5.5257-2.7625 0.64358 0.30905c0.35397 0.16998 2.9443 1.4126 5.7563 2.7614 2.812 1.3488 5.1143 2.4541 5.1163 2.4562 2e-3 2e-3 -2.2378 1.1149-4.9774 2.473-2.7395 1.358-5.2474 2.6014-5.573 2.763l-0.59206 0.29386z"/>
			<path transform="matrix(.26458 0 0 .26458 0 246.2)" d="m129.41 139.27c-1.9561-1.5445-3.557-2.8096-3.5576-2.8113-5.8e-4 -2e-3 2.022-0.67756 4.4946-1.5018l4.4957-1.4986 7.1215 5.6221-4.4969 1.499c-2.4733 0.82446-4.4977 1.4989-4.4988 1.4988-1e-3 -1.1e-4 -1.6024-1.2638-3.5585-2.8083z"/>
			<path transform="matrix(.26458 0 0 .26458 0 246.2)" d="m60.213 166.1c-0.04297-0.028-0.22227-0.14423-0.39844-0.25824-3.2259-2.0877-5.2217-4.2132-5.9408-6.3269-0.22783-0.66969-0.33904-1.4343-0.29429-2.0234 0.05289-0.69633 0.2672-1.3458 0.63897-1.9365 0.09009-0.14314 0.09888-0.16507 0.11275-0.28125 0.11401-0.95563 0.64549-1.9101 1.5504-2.7844 0.72713-0.70248 1.6591-1.3583 2.8591-2.0118 3.4337-1.8699 8.9174-3.5866 16.371-5.1248 2.3399-0.48291 4.7845-0.82562 7.4766-1.0481 0.87375-0.0722 1.4953-0.11314 2.9766-0.19595 2.9668-0.16586 6.4045-0.42694 9.9297-0.7541l0.54688-0.0507 0.57812 0.0263c3.9921 0.18192 7.0336 0.30381 10.461 0.41924 1.318 0.0444 1.9192 0.0709 2.6641 0.11735 3.229 0.20148 6.2171 0.59441 9.4992 1.2491 4.7288 0.94329 8.5664 2.056 11.493 3.3322 2.4907 1.0862 4.3323 2.2969 5.522 3.6302 0.86186 0.96592 1.3718 1.9852 1.5472 3.0929l0.0359 0.22656 0.11441 0.1875c0.28975 0.47488 0.48404 0.98353 0.57991 1.5182 0.032 0.17859 0.036 0.25006 0.0362 0.65364 3.1e-4 0.49543-0.0155 0.66099-0.10285 1.0781-0.25846 1.2341-0.93454 2.4424-2.066 3.6926-0.22666 0.25044-0.82829 0.84377-1.1043 1.0891-0.91837 0.81616-1.9548 1.5889-3.1797 2.3708l-0.26562 0.16955-0.0102-0.48131c-0.048-2.2699-0.46778-4.1426-1.2455-5.5571-0.18242-0.33176-0.23877-0.4132-0.45572-0.65862-0.81202-0.91858-2.006-2.366-3.1904-3.8678l-0.16685-0.21154-0.23907-0.13456c-0.85993-0.48401-1.7095-0.88418-2.7311-1.2863-3.582-1.4102-8.3296-2.3504-14.156-2.8034-1.9652-0.15281-3.7095-0.2373-6.2188-0.30122-1.0201-0.026-4.9928-0.0253-6.0937 9.9e-4 -0.97016 0.0232-1.3101 0.0236-2.2188 2e-3 -1.1617-0.0272-4.1085-0.0368-5.3203-0.0173-2.8745 0.0462-4.9726 0.13825-7.3672 0.32329-4.7296 0.36547-8.815 1.0637-12.018 2.0539-1.8338 0.56697-3.4307 1.2354-4.737 1.9827l-0.30934 0.17696-0.96521 1.1582c-1.4585 1.7502-2.5868 3.135-2.7133 3.3301-0.5911 0.91201-0.99689 2.111-1.2109 3.5779-0.09723 0.66649-0.16833 1.5825-0.17346 2.2346-0.0012 0.14609-0.0065 0.31206-0.01187 0.36882l-0.0098 0.1032z"/>
			<path transform="matrix(.26458 0 0 .26458 0 246.2)" d="m94.478 172.44c-4.8573-0.0486-8.9543-0.26527-12.551-0.66368-6.0776-0.67319-10.468-1.836-13.29-3.5198-0.42647-0.25448-0.96653-0.63432-1.3134-0.92376-1.0965-0.91496-1.7869-1.9343-2.0973-3.0965-0.03514-0.13158-0.03535-0.13397-0.0281-0.31382 0.03985-0.98826 0.40581-1.8895 1.0996-2.7078 2.6907-3.1739 10.386-4.989 23.021-5.43 3.5129-0.12261 7.7591-0.14108 11.485-0.05 4.5055 0.11019 8.4971 0.38437 11.822 0.81205 5.5433 0.71303 9.4484 1.8486 11.789 3.428 1.5288 1.0317 2.3696 2.2509 2.5236 3.6594 9e-3 0.082 0.0197 0.21896 0.0238 0.30428 7e-3 0.15229 7e-3 0.15743-0.0284 0.28174-0.48077 1.7-1.7901 3.1305-3.9443 4.3092-4.063 2.2231-11.2 3.509-21.274 3.8329-2.163 0.0695-5.0064 0.10011-7.2368 0.0778z"/>
		</g>
	</g>
</svg>
