<?xml version="1.0" encoding="UTF-8" standalone="no"?>
<svg
   xmlns:dc="http://purl.org/dc/elements/1.1/"
   xmlns:cc="http://creativecommons.org/ns#"
   xmlns:rdf="http://www.w3.org/1999/02/22-rdf-syntax-ns#"
   xmlns:svg="http://www.w3.org/2000/svg"
   xmlns="http://www.w3.org/2000/svg"
   xmlns:sodipodi="http://sodipodi.sourceforge.net/DTD/sodipodi-0.dtd"
   xmlns:inkscape="http://www.inkscape.org/namespaces/inkscape"
   viewBox="0 -410 2048 2048"
   id="svg2"
   version="1.1"
   inkscape:version="0.48.2 r9819"
   width="100%"
   height="100%"
   sodipodi:docname="wk.svg">
  <metadata
     id="metadata12">
    <rdf:RDF>
      <cc:Work
         rdf:about="">
        <dc:format>image/svg+xml</dc:format>
        <dc:type
           rdf:resource="http://purl.org/dc/dcmitype/StillImage" />
      </cc:Work>
    </rdf:RDF>
  </metadata>
  <defs
     id="defs10" />
  <sodipodi:namedview
     pagecolor="#ffffff"
     bordercolor="#666666"
     borderopacity="1"
     objecttolerance="10"
     gridtolerance="10"
     guidetolerance="10"
     inkscape:pageopacity="0"
     inkscape:pageshadow="2"
     inkscape:window-width="640"
     inkscape:window-height="905"
     id="namedview8"
     showgrid="false"
     inkscape:zoom="0.11523438"
     inkscape:cx="1024"
     inkscape:cy="1024"
     inkscape:window-x="0"
     inkscape:window-y="0"
     inkscape:window-maximized="0"
     inkscape:current-layer="svg2" />
  <g
     transform="matrix(1 0 0 -1 0 1638)"
     id="g4">
    <path
       fill="#000000"
       d="M715 594l-97 32l-75 -60l95 -32zM1580 591q7 -21 7 -40q0 -59 -43 -91q-4 -17 -6 -34q37 -52 37 -84q0 -84 -162 -144t-389 -60q-228 0 -389.5 60t-161.5 144q0 33 39 86q-2 11 -6 31q-44 32 -44 92q0 19 6 39q10 25 -4 39t-32 39q-16 50 -16 69q1 9 3.5 20t2.5 26 q-44 44 -91.5 83.5t-74.5 95.5q-32 66 -58.5 133.5t-26.5 132.5q0 123 65 208t176 133q148 10 125 10q174 0 316 -129v351h341v-352q142 130 318 130q-25 0 125 -10q109 -48 174.5 -133t65.5 -208q0 -65 -26.5 -132t-57.5 -133q-27 -57 -75 -99t-91 -84q-1 -12 1.5 -23 t3.5 -20q1 -14 -16 -69q-18 -25 -31.5 -39t-4.5 -38zM1024 1458q-103 0 -103 -103t103 -103t103 103t-103 103zM984 1639l-71 69v-153l71 57q-3 4 -3 13q0 6 3 14zM1007 1586l-60 -65h154l-64 64q-10 -2 -13 -2q-10 0 -17 3zM1064 1609l71 -54v153l-72 -66q3 -8 3 -17 q0 -6 -2 -16zM1036 1666l65 77h-154l61 -78q6 3 16 3q4 0 12 -2zM1145 625l-123 59l-118 -59l122 -59zM945 897q-1 123 -21 247.5t-40 151.5q-124 137 -280 137q-134 0 -204 -90q-46 -59 -46 -155q0 -200 149 -374q17 8 33.5 14t33.5 12q-9 20 -18 38t-19 47q-19 56 -15 106 q7 31 34 31q12 0 32 -21q-5 27 -5 34q0 93 79 115q83 -4 110 -124q9 30 25 34t21 4q12 0 21 -6q34 -42 42 -122q2 -18 2.5 -35t3.5 -48q31 6 62 4zM646 863q-9 23 -18.5 51t-24.5 60q-8 16 -20 16q-17 0 -18 -28q-2 -24 49 -110q8 3 16.5 5.5t15.5 5.5zM746 878 q-4 131 -39 212q-12 21 -35 21q-29 0 -29 -29q-1 -1 -1 -26q0 -43 49 -188q42 8 55 10zM840 888q5 77 -8 130q-4 17 -19 21q-21 3 -28 -23q-8 -43 14 -133q20 5 41 5zM1470 392q-8 72 -200 110q-60 12 -121 14t-125 5q-63 -6 -118.5 -9t-100.5 -12q-221 -45 -226 -108 q-8 -12 -8 -25q0 -45 72 -90q0 46 16 69q9 11 18.5 22.5t19.5 23.5q90 54 329 48q234 6 326 -48q22 -28 38 -46q16 -25 16 -69q72 45 72 90q0 13 -8 25zM1354 299q0 90 -332 90q-327 0 -327 -90q21 -89 331 -89q305 0 328 89zM1342 594l76 -60l96 32l-76 60zM1544 815 q143 177 143 373q0 96 -46 155q-71 90 -204 90q-157 0 -280 -137q-21 -27 -41 -151.5t-21 -247.5q36 3 64 -4q1 31 1.5 48t3.5 35q7 80 42 122q8 6 21 6q5 0 21 -4t25 -34q26 120 110 124q79 -22 79 -115q0 -7 -5 -34q19 21 32 21q26 0 34 -31q3 -50 -15 -106 q-11 -29 -19.5 -47t-17.5 -36q18 -7 36.5 -13.5t36.5 -13.5zM1395 863q6 -3 14.5 -5.5t17.5 -5.5q50 86 49 110q-2 28 -18 28q-13 0 -20 -16q-16 -32 -25.5 -60t-17.5 -51zM1295 878q12 -2 55 -10q49 145 49 188q0 25 -1 26q0 29 -29 29q-24 0 -35 -21q-36 -81 -39 -212z M1201 888q21 0 41 -5q21 90 14 133q-8 26 -28 23q-16 -4 -19 -21q-14 -53 -8 -130zM1500 667q45 5 45 50q0 29 -26 44q-84 34 -213.5 55.5t-282.5 21.5q-321 0 -498 -79q-22 -17 -22 -42q0 -51 51 -49q178 67 469 67q295 0 477 -68z"
       id="path6" />
  </g>
  <path
     style="fill:#f9f9f9;fill-opacity:1;fill-rule:nonzero;stroke-linecap:butt;stroke-linejoin:round"
     d="m 986.27099,347.38751 c -13.59163,-17.03422 -22.83997,-32.84339 -20.55186,-35.1315 2.28811,-2.28811 30.76557,-2.99498 63.28327,-1.57082 l 59.123,2.58939 -28.6227,32.54237 c -15.7425,17.8983 -33.0995,32.54226 -38.5712,32.54212 -5.4716,-1.4e-4 -21.06888,-13.93735 -34.66051,-30.97156 z"
     id="path2989"
     inkscape:connector-curvature="0"
     transform="translate(0,-410)" />
  <path
     style="fill:#f9f9f9;fill-opacity:1;fill-rule:nonzero;stroke-linecap:butt;stroke-linejoin:round"
     d="m 919.86441,415.70784 0,-58.10911 30.37288,29.43856 c 16.70508,16.1912 30.37288,32.7649 30.37288,36.83044 0,8.51306 -44.49412,49.26446 -54.23729,49.67499 -3.57966,0.15082 -6.50847,-25.87487 -6.50847,-57.83488 z"
     id="path2991"
     inkscape:connector-curvature="0"
     transform="translate(0,-410)" />
  <path
     style="fill:#f9f9f9;fill-opacity:1;fill-rule:nonzero;stroke-linecap:butt;stroke-linejoin:round"
     d="m 1091.2542,453.65346 c -28.9721,-23.72138 -30.12,-40.60324 -4.3389,-63.81249 39.0342,-35.14031 41.2203,-33.70534 41.2203,27.05705 0,31.30541 -2.9288,56.77849 -6.5085,56.60684 -3.5796,-0.17165 -17.2474,-9.10478 -30.3729,-19.8514 z"
     id="path2993"
     inkscape:connector-curvature="0"
     transform="translate(0,-410)" />
  <path
     style="fill:#f9f9f9;fill-opacity:1;fill-rule:nonzero;stroke-linecap:butt;stroke-linejoin:round"
     d="m 963.25424,518.83035 c 0,-9.86754 46.80906,-53.69137 57.34876,-53.69137 4.7687,0 21.9177,13.6678 38.1089,30.37288 l 29.4385,30.37289 -62.4481,0 c -34.34642,0 -62.44806,-3.17448 -62.44806,-7.0544 z"
     id="path2995"
     inkscape:connector-curvature="0"
     transform="translate(0,-410)" />
  <path
     style="fill:#f9f9f9;fill-opacity:1;fill-rule:nonzero;stroke-linecap:butt;stroke-linejoin:round"
     d="m 997.9661,787.14806 c -50.10506,-12.15579 -69.42373,-39.89017 -69.42373,-99.66653 0,-28.86103 5.49919,-45.53062 20.94355,-63.48575 18.74112,-21.78786 26.57701,-24.34832 74.51408,-24.34832 47.9371,0 55.773,2.56046 74.5141,24.34832 35.5582,41.33893 25.5359,131.45305 -16.8964,151.92147 -26.8994,12.97571 -58.8037,17.25907 -83.6516,11.23081 z"
     id="path2997"
     inkscape:connector-curvature="0"
     transform="translate(0,-410)" />
  <path
     style="fill:#f9f9f9;fill-opacity:1;fill-rule:nonzero;stroke-linecap:butt;stroke-linejoin:round"
     d="M 475.28917,1187.1679 C 394.32501,1073.5072 362.10699,983.22021 361.63435,868.66441 c -0.3845,-93.19348 19.28779,-143.55639 74.55223,-190.86069 74.33976,-63.63207 202.58595,-74.9965 303.58973,-26.90235 76.6708,36.50771 142.58719,101.33281 158.35353,155.73189 17.84245,61.56229 38.73967,214.80384 38.93152,285.48874 l 0.15898,58.5763 -26.0339,0 c -24.69923,0 -26.0339,-1.8266 -26.0339,-35.6287 0,-40.2754 -21.70435,-131.2334 -37.25755,-156.13804 -12.39791,-19.85221 -51.62402,-21.84077 -69.92021,-3.5446 -11.49447,11.49447 -13.59912,10.0492 -18.61371,-12.78213 -7.2866,-33.17568 -47.01651,-75.58214 -78.12707,-83.39039 -16.39824,-4.1157 -33.46274,-1.18375 -52.36861,8.99772 -30.21579,16.27228 -43.01861,37.4743 -52.20819,86.45894 -4.78591,25.51107 -9.62688,31.14585 -26.75818,31.14585 -33.28959,0 -43.50191,33.07555 -30.1586,97.67755 6.04933,29.2879 18.46866,67.8929 27.59852,85.7889 17.27144,33.8548 16.33459,36.1414 -20.55352,50.1663 -20.55682,7.8157 -24.85109,5.1237 -51.49625,-32.2818 l 0,0 z"
     id="path2999"
     inkscape:connector-curvature="0"
     transform="translate(0,-410)" />
  <path
     style="fill:#f9f9f9;fill-opacity:1;fill-rule:nonzero;stroke-linecap:butt;stroke-linejoin:round"
     d="m 1514.3051,1218.2489 c -14.3187,-5.0495 -27.3524,-10.2902 -28.9638,-11.6459 -1.6114,-1.3558 7.175,-31.7415 19.5254,-67.5239 34.2548,-99.245 30.0105,-153.26215 -12.0424,-153.26215 -21.5521,0 -24.4503,-3.63476 -28.8088,-36.13006 -16.0408,-119.59309 -154.8532,-122.20221 -184.6529,-3.47073 -5.0828,20.25161 -7.4794,22.01474 -14.0252,10.31815 -4.8216,-8.61572 -19.1341,-14.10719 -36.7678,-14.10719 -26.1745,0 -30.5279,3.85252 -46.58,41.22034 -9.7389,22.67114 -20.46,69.25744 -23.8247,103.52504 l -6.1176,62.3047 -26.2211,-0.7456 -26.2211,-0.7455 5.308,-91.932 c 5.168,-89.50716 24.1614,-212.42197 41.0983,-265.96538 9.598,-30.34283 65.7002,-87.38927 116.6327,-118.59571 81.4443,-49.90112 186.4868,-63.91204 268.8247,-35.85671 61.0946,20.81702 120.6651,81.73402 138.1915,141.31503 33.3436,113.35136 0.4718,255.80847 -91.7483,397.61137 -19.3999,29.8305 -35.7902,53.929 -36.4228,53.5522 -0.6326,-0.3768 -12.8655,-4.8165 -27.1841,-9.866 z"
     id="path3001"
     inkscape:connector-curvature="0"
     transform="translate(0,-410)" />
  <path
     style="fill:#f9f9f9;fill-opacity:1;fill-rule:nonzero;stroke-linecap:butt;stroke-linejoin:round"
     d="m 965.54513,771.98407 c -15.44509,-7.61445 -25.95361,-17.28824 -23.35226,-21.49732 2.60135,-4.20906 1.57045,-7.66068 -2.29089,-7.67025 -11.14499,-0.0276 -12.5376,-61.2374 -2.11195,-92.82743 11.96779,-36.26275 30.22053,-46.00263 86.20997,-46.00263 55.9894,0 74.2422,9.73988 86.21,46.00263 10.4256,31.59003 9.033,92.79982 -2.112,92.82743 -3.8613,0.01 -4.872,3.49387 -2.246,7.74289 7.0864,11.46603 -49.7243,35.6941 -83.1635,35.46674 -15.9838,-0.10865 -41.69827,-6.4276 -57.14337,-14.04206 l 0,0 z"
     id="path3003"
     inkscape:connector-curvature="0"
     transform="translate(0,-410)" />
  <path
     style="fill:#f9f9f9;fill-opacity:1;fill-rule:nonzero;stroke-linecap:butt;stroke-linejoin:round"
     d="m 608.70577,1173.8971 c -26.46606,-31.8896 -46.05412,-109.9785 -27.58737,-109.9785 10.0143,0 19.70394,17.2355 43.1957,76.8346 13.74649,34.8751 15.01133,44.657 5.77438,44.657 -6.50526,0 -16.12748,-5.1809 -21.38271,-11.5131 z"
     id="path3005"
     inkscape:connector-curvature="0"
     transform="translate(0,-410)" />
  <path
     style="fill:#f9f9f9;fill-opacity:1;fill-rule:nonzero;stroke-linecap:butt;stroke-linejoin:round"
     d="m 681.71949,1134.255 c -37.32135,-114.0485 -41.57861,-184.3537 -11.51397,-190.14362 29.91777,-5.76163 66.99154,94.35882 67.28604,181.71082 0.12106,35.9059 -2.15609,40.6468 -21.27941,44.3025 -18.96697,3.6257 -22.90992,-0.4746 -34.49266,-35.8697 z"
     id="path3007"
     inkscape:connector-curvature="0"
     transform="translate(0,-410)" />
  <path
     style="fill:#f9f9f9;fill-opacity:1;fill-rule:nonzero;stroke-linecap:butt;stroke-linejoin:round"
     d="m 795.26485,1126.8339 c -8.92556,-53.9995 -6.27987,-94.9128 6.84182,-105.8028 19.22019,-15.9514 30.97808,14.9322 30.97808,81.3679 0,49.8625 -2.02547,56.9773 -16.22049,56.9773 -12.00211,0 -17.61935,-8.4632 -21.59941,-32.5424 z"
     id="path3009"
     inkscape:connector-curvature="0"
     transform="translate(0,-410)" />
  <path
     style="fill:#f9f9f9;fill-opacity:1;fill-rule:nonzero;stroke-linecap:butt;stroke-linejoin:round"
     d="m 1206.2373,1107.8734 c 0,-58.3662 12.271,-99.1387 28.2568,-93.8876 13.0632,4.291 18.4761,58.0828 10.9189,108.5091 -4.3172,28.8069 -9.2107,36.8814 -22.3515,36.8814 -14.7571,0 -16.8242,-6.3279 -16.8242,-51.5029 z"
     id="path3011"
     inkscape:connector-curvature="0"
     transform="translate(0,-410)" />
  <path
     style="fill:#f9f9f9;fill-opacity:1;fill-rule:nonzero;stroke-linecap:butt;stroke-linejoin:round"
     d="m 1321.2203,1170.0632 c -16.1642,-2.6625 -19.4994,-8.7142 -19.3747,-35.1549 0.2181,-46.2325 23.2676,-148.14587 38.9026,-172.00783 28.6656,-43.74934 63.606,-15.1807 52.1463,42.63693 -8.9353,45.0809 -41.4505,157.7494 -47.029,162.9599 -2.8158,2.6301 -13.9062,3.3347 -24.6452,1.5659 z"
     id="path3013"
     inkscape:connector-curvature="0"
     transform="translate(0,-410)" />
  <path
     style="fill:#f9f9f9;fill-opacity:1;fill-rule:nonzero;stroke-linecap:butt;stroke-linejoin:round"
     d="m 1409.192,1164.5205 c 9.828,-39.1581 39.3876,-100.6019 48.3979,-100.6019 15.0633,0 10.0622,40.7112 -10.0988,82.2086 -20.5325,42.262 -47.5459,55.2353 -38.2991,18.3933 z"
     id="path3015"
     inkscape:connector-curvature="0"
     transform="translate(0,-410)" />
  <path
     style="fill:#f9f9f9;fill-opacity:1;fill-rule:nonzero;stroke-linecap:butt;stroke-linejoin:round"
     d="m 522.41356,1365.9119 c -14.04394,-14.044 -13.20611,-54.5675 1.37846,-66.6716 6.48561,-5.3825 33.48712,-17.2507 60.00335,-26.3736 218.66267,-75.231 626.22583,-75.1986 873.43083,0.07 67.5764,20.5754 78.7738,29.1041 78.7738,59.9994 0,39.9432 -19.4721,48.6196 -72.0492,32.1039 -145.8525,-45.8157 -371.7052,-65.4565 -576.62877,-50.1452 -128.45481,9.5978 -253.09443,30.6032 -308.63273,52.0135 -31.35162,12.0862 -43.40695,11.8729 -56.27574,-0.9959 z"
     id="path3017"
     inkscape:connector-curvature="0"
     transform="translate(0,-410)" />
  <path
     style="fill:#f9f9f9;fill-opacity:1;fill-rule:nonzero;stroke-linecap:butt;stroke-linejoin:round"
     d="m 607.45763,1500.2248 c -7.15932,-2.6949 -22.24886,-8.3169 -33.53231,-12.4934 -20.41152,-7.5551 -20.35058,-7.7245 12.04072,-33.4659 17.90584,-14.2297 33.276,-25.8723 34.15591,-25.8723 0.87992,0 19.9209,6.2426 42.3133,13.8725 l 40.71346,13.8725 -31.68287,25.1783 c -31.94858,25.3896 -40.26431,27.8461 -64.00821,18.9083 z"
     id="path3019"
     inkscape:connector-curvature="0"
     transform="translate(0,-410)" />
  <path
     style="fill:#f9f9f9;fill-opacity:1;fill-rule:nonzero;stroke-linecap:butt;stroke-linejoin:round"
     d="m 963.547,1446.412 -47.43606,-24.5522 51.77504,-25.909 51.77502,-25.9089 56.4068,25.5784 56.4068,25.5785 -47.7288,24.8827 c -26.2509,13.6855 -53.5865,24.8827 -60.7458,24.8827 -7.1593,0 -34.36318,-11.0485 -60.453,-24.5522 z"
     id="path3021"
     inkscape:connector-curvature="0"
     transform="translate(0,-410)" />
  <path
     style="fill:#f9f9f9;fill-opacity:1;fill-rule:nonzero;stroke-linecap:butt;stroke-linejoin:round"
     d="m 1385.8254,1481.8039 -32.2961,-25.6657 40.7134,-13.8725 c 22.3924,-7.6299 41.4334,-13.8725 42.3133,-13.8725 0.8799,0 16.2501,11.6426 34.1559,25.8723 l 32.5561,25.8723 -23.0676,8.7703 c -52.0284,19.7812 -61.4352,19.0731 -94.375,-7.1042 z"
     id="path3023"
     inkscape:connector-curvature="0"
     transform="translate(0,-410)" />
  <path
     style="fill:#f9f9f9;fill-opacity:1;fill-rule:nonzero;stroke-linecap:butt;stroke-linejoin:round"
     d="m 610.05474,1738.6305 c -31.55405,-34.6435 -36.77666,-51.9863 -24.46952,-81.2563 14.92017,-35.4847 54.08816,-58.4227 144.49719,-84.6222 198.46036,-57.5116 514.04579,-49.6623 664.17839,16.5194 76.2392,33.608 97.5064,93.9124 50.4434,143.0356 -29.7581,31.0607 -38.8737,32.4357 -38.8737,5.8636 0,-10.9919 -11.5862,-35.7401 -25.747,-54.9959 -19.4845,-26.4948 -36.8985,-38.6503 -71.5933,-49.9747 -73.7923,-24.0857 -190.6557,-33.6238 -345.23596,-28.1773 -138.5134,4.8804 -204.89749,15.6792 -253.75625,41.2789 -30.34434,15.899 -67.3285,66.3505 -67.3285,91.8454 0,25.2159 -9.45822,25.3583 -32.11475,0.4835 z"
     id="path3025"
     inkscape:connector-curvature="0"
     transform="translate(0,-410)" />
  <path
     style="fill:#f9f9f9;fill-opacity:1;fill-rule:nonzero;stroke-linecap:butt;stroke-linejoin:round"
     d="m 906.84746,1827.6931 c -91.38956,-8.0335 -136.58973,-19.2147 -176.2849,-43.6076 -22.96018,-14.1091 -28.20987,-22.4426 -26.0339,-41.3266 6.5041,-56.4455 167.24649,-87.5574 393.93984,-76.2475 172.0858,8.5855 250.4038,34.5207 244.9707,81.1227 -3.6119,30.9815 -54.7094,59.0458 -128.3004,70.4665 -84.5087,13.115 -220.19214,17.3368 -308.29134,9.5925 z"
     id="path3027"
     inkscape:connector-curvature="0"
     transform="translate(0,-410)" />
</svg>
