<?xml version="1.0" encoding="UTF-8"?>
<svg width="144pt" height="144pt" version="1.1" viewBox="0 0 50.8 50.8" xmlns="http://www.w3.org/2000/svg">
	<g transform="translate(0,-246.2)">
		<g transform="translate(.1834 1.566)" aria-label="n">
			<path d="m9.7676 274.37q-0.19844 0.24804-0.5209 0.47129-0.69453 0.5209-0.99219-0.0992-0.17363-0.29766 0.024805-0.91778 0.34727-0.29765 0.47129-0.39687 0.76895-0.91777 1.265-1.6123 0.24805-0.0496 0.37207-0.0248 0.86816 0.14883 0.44648 1.0666-0.22324 0.44649-0.5457 0.81856-0.29766 0.34726-0.5209 0.69453zm7.3422-11.013q0.49609-1.5379 1.8852-1.6619 0.94258-0.0744 1.6371-0.0744 0.69453 0 1.4883-0.24805-0.79375 2.2324-1.8107 2.9022-0.5457 0.32246-1.5131 0.39688-0.71934 0.0496-1.1162-0.0992-0.39688-0.14883-0.57051-1.2154zm-1.6371 13.196q1.1906-0.84336 1.6867-1.7611 0.5209-0.94258 1.4139-1.7859 0.02481-0.29766 0.07441-0.66973 0.04961-0.37207 0.09922-0.79375 0.17363-0.17363 0.27285-0.19843 0.71934-0.22325 0.84336 0.64492 0 0.24804-0.04961 0.49609-0.02481 0.22324 0.0248 0.39688 0.14883 0.17363 1.1162 0.37207 3.5719 0.12402 6.5732-2.6789 0-0.0248 0.14883-0.22324 0.17363-0.19844 0.19844-0.24805 0.74414-1.1162 1.1906-4.6385 0.04961-0.0992 0.27285-0.22325 0.64492-0.22324 0.81855 0.64493-0.22324 3.1998-0.96738 4.5641-0.39688 0.71933-0.89297 1.265 0.42168-0.22325 0.84336-0.42168 0.42168-0.19844 0.81856-0.44649 1.265-0.76894 1.8107-2.9766 0.27285-0.47129 0.79375-0.42168 0.5457 0.0992 0.42168 0.81856-0.57051 3.1006-2.4309 4.0184-0.59531 0.29766-1.2154 0.54571-0.59531 0.22324-1.1658 0.44648 1.4635-0.0744 3.175-0.47129 0.32246 0 0.44648 0.27285 0.22324 0.4961-0.47129 0.89297-3.4975 0.96739-4.44 0.86817-0.66973 2.1084-3.2742 4.6385-1.4387 1.3891-2.9766 2.7037-1.5379 1.2898-3.0262 2.5797-3.299 2.9022-4.0184 5.6555 5.6803 0.0248 9.4258 0.0248 3.7703 0 6.9205 0t6.35 0q3.1998-0.0248 7.7887-0.0248 0.34726 0 0.27285-1.2402-0.04961-1.2402-0.17363-2.3068-1.3395 0.14883-2.5301-1.3891-1.1906-1.5627-1.0914-3.5719 0.02481-5.209-0.66973-9.3762-0.66973-4.192-2.6789-7.2678-3.2742-4.9609-10.393-8.4336-0.09922 0.62012-0.22324 1.141-0.19844 0.79375-0.74414 0.5209-0.5209-0.17363-0.5457-0.66973 0.09922-0.44648 0.12402-0.66972-0.02481-0.0744-0.04961-0.17364-0.02481-0.12402-0.02481-0.22324-0.24805-1.2898-1.4139-2.927-0.19844 1.0418-0.39688 1.4139-0.19844 0.37207-0.34727 0.64493-0.27285 0.39687-0.49609 0.76894-0.19844 0.37207-0.47129 0.81856-0.27285-0.29766-0.59531-0.69454-0.29766-0.42167-0.5457-0.71933-0.22324-0.22324-0.44648-0.42168-0.19844-0.22324-0.79375-0.37207 0.5209 1.9348-0.27285 2.6541-0.39688 0.39688-0.86816 1.0666-0.47129 0.64492-1.0666 1.1906-0.34726 0.37207-0.86816 0.86816-0.49609 0.47129-0.84336 1.2402-0.47129 1.4387-1.8604 2.9021-1.3643 1.4387-3.0014 2.9022-3.5719 3.175-4.0432 4.6137-0.64492 1.7363 0.074414 3.3734 0.66973 1.4635 1.8355 1.91 0.69453 0.27285 1.7115-1.0418 1.0914-1.3146 1.4387-1.2154 0.64492 0.17363 0.42168 0.91777-0.12402 0.42168-0.79375 1.2154-0.69453 0.76894-0.71934 1.017-0.12402 0.29766 0.49609 0.47129 0.76894 0.19844 2.8773-1.8604 0.24805-0.24805 0.5209-0.44649 0.29766-0.22324 0.59531-0.49609zm0.81855 1.1906q-0.34726 0.37207-0.57051 0.5457-0.19844 0.14883-0.37207 0.29765-0.22324 0.19844-1.5875 1.6371-0.57051 0.59532-1.3643 0.79375-0.57051 0.14883-1.4635-0.12402-3.1006-0.81855-4.8865-3.2742-0.71934-0.91777-1.017-2.2076-0.27285-1.3146 0.29766-3.3238 0.5457-2.0588 3.9191-4.6385 3.6959-2.8029 4.3656-4.4896 0.5457-0.96738 1.2402-2.1332 0.69453-1.1658 1.6619-2.2572 0.59531-0.42168 1.1162-0.96738 0.5457-0.57051 1.0914-1.1658v-3.051q1.3891 0.27285 1.9844 0.79375 0.29766 0.32246 0.66973 0.59532 0.37207 0.27285 0.66973 0.59531 0.62012-1.1162 0.79375-1.8604 0.0248-0.17364 0.14883-0.69454 0.14883-0.52089 0.29766-1.7115 0.37207-0.0744 0.64492 0.19844 1.1658 1.265 2.1828 2.8773 4.5393 1.8107 8.2848 4.2912 3.7703 2.4805 5.7547 5.1594 5.7051 7.7391 5.7051 22.721 0 3.1502-0.32246 5.7547h-33.858q-0.32246-3.2246 3.423-6.8461 1.6867-1.6371 3.4975-3.175 1.8355-1.5379 3.5719-3.1254 3.2246-2.9766 3.5719-4.7625-0.12402-0.29766-0.47129-0.39688-0.86816 0.5209-1.7363 0.66973-0.86816 0.14882-1.7115 0.19843-0.5457 0.0248-1.0914 0.0496-0.5209 0-1.2402-0.24804-0.96738 1.0914-1.6619 1.8852-0.66973 0.76895-1.5379 1.3891z" stroke-width=".26458"/>
		</g>
		<path transform="matrix(.26458 0 0 .26458 0 246.2)" d="m58.747 173.05-6.6664-0.032 0.24665-0.82075c1.9522-6.4961 6.7241-13.127 14.412-20.025 1.1381-1.0213 6.8502-5.9076 10.985-9.3973 6.2912-5.3092 13.044-11.628 16.123-15.085 3.8778-4.3551 6.4495-8.2426 7.9175-11.968 0.22529-0.57179 0.44118-1.139 0.47975-1.2606l0.0701-0.22098 0.83679-7e-3c2.2459-0.0174 6.0634-0.72644 11.728-2.1781 3.6423-0.93346 4.208-1.1056 4.6938-1.4286 0.61563-0.40927 1.0657-0.88084 1.3054-1.3679 0.19125-0.38848 0.20208-0.44638 0.17508-0.93632-0.035-0.63502-0.22224-1.0479-0.64339-1.4186-0.56558-0.49785-0.8916-0.50784-2.8372-0.087-1.8023 0.38986-4.3285 0.82155-6.103 1.0429-1.4397 0.17961-3.2892 0.35118-3.7249 0.34554l-0.2841-4e-3 0.22097-0.0842c4.601-1.7531 5.7799-2.2395 7.7971-3.2172 0.65976-0.31977 1.4588-0.74227 1.7756-0.93891 3.9375-2.4436 6.6082-7.0713 7.9743-13.817 0.32209-1.5905 0.31531-2.2812-0.0291-2.9608-0.66091-1.3042-2.9212-1.2951-4.012 0.01629-0.37462 0.45036-0.43668 0.57894-0.62394 1.2927-1.0402 3.9646-2.7605 7.2221-4.8473 9.1784-1.1347 1.0637-2.3062 1.7828-5.4699 3.3574-1.2457 0.61998-2.277 1.1151-2.2918 1.1003-0.0148-0.0148 0.12522-0.20782 0.3112-0.42888 1.626-1.9327 2.9961-4.2376 3.8005-6.3935 1.2206-3.2717 2.164-8.4529 2.5644-14.085l0.0718-1.0102-0.19721-0.61027c-0.22413-0.69357-0.59805-1.304-0.95887-1.5654-0.74745-0.54145-1.9123-0.38406-2.7077 0.36585l-0.31246 0.29457-0.22532 1.6415c-1.1928 8.6899-2.7758 14.179-4.7797 16.573-0.21818 0.26071-0.5019 0.63287-0.6305 0.82701-0.38725 0.58465-2.3001 2.2476-4.2172 3.6661-4.8838 3.6138-10.231 5.8395-15.657 6.5174-1.4635 0.18282-2.4929 0.23736-4.0121 0.21258l-1.5122-0.0247-1.1049-0.28907c-1.939-0.50732-2.6537-0.83418-2.7372-1.2519-0.06825-0.34123-0.04468-1.1919 0.05329-1.9239 0.12419-0.92794 0.11884-1.2456-0.03086-1.8309-0.41868-1.637-1.3115-2.2784-2.7317-1.9624-0.5012 0.1115-0.88543 0.32479-1.2248 0.67988l-0.20002 0.20929-0.28645 2.336c-0.15755 1.2848-0.30512 2.5206-0.32793 2.7464l-0.04148 0.41037-0.99018 1.0102c-1.7743 1.8101-3.1698 3.6442-4.2992 5.6505-1.3031 2.3148-3.027 4.1928-5.7086 6.2188-0.45962 0.34724-1.1317 0.8873-1.4935 1.2002-0.36182 0.31283-0.91355 0.7656-1.2261 1.0061-1.1115 0.85549-1.4557 1.1513-2.4282 2.0869-2.3303 2.2418-4.087 3.7487-5.7161 4.9033-1.9043 1.3497-3.2358 1.9468-4.3412 1.9468-1.061 0-2.3651-0.674-2.479-1.2813-0.12085-0.64421 0.53461-1.7472 2.1483-3.6151 2.8373-3.2843 3.8155-4.9746 3.8187-6.5984 0.0013-0.68241-0.12761-1.0553-0.50931-1.473-0.49006-0.5362-1.3085-0.87211-1.8002-0.73885-1.0163 0.27542-2.8149 1.96-5.1636 4.8362-2.5864 3.1672-4.5378 4.3199-6.2261 3.6775-3.2994-1.2554-6.0545-4.4398-7.4951-8.6629-0.66723-1.956-0.93532-3.9385-0.82574-6.1062 0.12044-2.3825 0.92294-5.2134 2.0158-7.111 2.1152-3.6728 6.4955-8.3994 14.197-15.32 2.7601-2.4801 3.2061-2.8956 6.2193-5.794 2.0859-2.0065 5.4045-5.397 6.4432-6.5827 2.6591-3.0356 4.597-6.1466 5.6513-9.0722 0.28231-0.78338 0.8009-1.8418 1.3048-2.6631 0.75841-1.2361 1.1678-1.696 4.2501-4.7744 3.5841-3.5795 3.9265-3.9672 5.966-6.7546 0.63495-0.86778 1.5564-1.962 2.4089-2.8605 1.0519-1.1087 1.4327-1.8141 1.7304-3.2061 0.11903-0.5564 0.14038-0.84815 0.13827-1.8891-0.0028-1.3997-0.12963-2.4258-0.4948-4.0045-0.1199-0.51834-0.20848-0.95195-0.19685-0.96358 0.05973-0.05973 1.227 0.34091 1.791 0.61471 0.56888 0.27617 0.74504 0.4058 1.4837 1.0917 1.177 1.093 1.6158 1.5804 2.4809 2.7553 0.9649 1.3106 2.0724 2.6653 3.063 3.7467 0.10037 0.10957 0.13382 0.06722 0.67334-0.85232 0.31225-0.53219 0.73305-1.2659 0.93512-1.6305 0.41391-0.74683 1.2632-2.1145 1.7839-2.8726 0.41516-0.60448 1.7269-3.0181 1.9851-3.6524 0.31352-0.7704 0.80446-2.6165 1.1234-4.2244 0.0397-0.20013 0.0948-0.3499 0.12243-0.33282 0.09242 0.05712 1.4978 2.2008 2.0486 3.1248 0.61828 1.0372 1.5376 2.8234 1.9346 3.7591 0.63904 1.5058 1.1515 3.1933 1.264 4.162 0.03661 0.31521 0.11127 0.72937 0.16591 0.92036 0.13306 0.465 0.1209 0.63582-0.13905 1.9546-0.22246 1.1286-0.22275 1.1324-0.1223 1.5741 0.11776 0.51774 0.4581 1.0857 0.82441 1.3759 0.5848 0.46317 1.8269 0.94227 2.2815 0.87997 0.83168-0.114 1.3768-0.82696 1.7446-2.2819 0.18498-0.73161 0.62525-2.9185 0.74014-3.6762 0.0434-0.28647 0.1027-0.52086 0.13171-0.52086 0.16623 0 4.7977 2.4031 7.0011 3.6326 14.152 7.8971 24.764 17.123 31.874 27.714 4.0521 6.0355 7.1289 13.194 9.0638 21.087 1.6524 6.741 2.9708 16.779 3.5323 26.895 0.25882 4.6634 0.34901 8.0633 0.35017 13.202 6.3e-4 2.3014 0.0303 4.5387 0.0663 4.9876 0.37067 4.6165 2.1492 8.6745 5.3236 12.147 2.3811 2.6045 5.0154 3.923 7.6716 3.8398 0.60255-0.0189 0.64734-0.0118 0.67357 0.10606 0.0545 0.24507 0.34273 3.4909 0.43724 4.9245 0.2338 3.5465 0.28525 5.7645 0.15537 6.6982-0.0842 0.60563-0.27022 1.1146-0.50221 1.3742l-0.17703 0.19817-12.49 0.0383c-14.652 0.0449-86.614 0.0402-96.307-6e-3zm-24.148-58.199c0.80012-0.37442 2.1639-1.4123 2.733-2.0799 0.1698-0.19919 0.52771-0.67678 0.79535-1.0613 0.26764-0.38452 0.85772-1.1516 1.3113-1.7046 1.8125-2.2099 2.7065-3.9124 2.7328-5.2039 0.02305-1.1348-0.63489-1.8303-2.0147-2.1298-0.40787-0.0885-0.5667-0.0934-1.0514-0.0322-0.47859 0.0604-0.58739 0.0956-0.67242 0.21733-0.61437 0.87982-2.6038 3.4331-4.0977 5.2592-0.28097 0.34344-0.84431 0.89369-1.424 1.391l-0.95918 0.82277-0.16787 0.66089c-0.31852 1.254-0.29939 2.0311 0.06941 2.8192 0.22073 0.47169 0.69593 1.0026 1.0455 1.168 0.40027 0.18939 1.143 0.13409 1.7-0.12658zm38.224-39.184c1.6301-0.21068 2.9511-0.56272 4.031-1.0742 2.2612-1.0711 4.5428-4.1337 6.4452-8.6513 0.42917-1.0191 1.0358-2.6285 1.0032-2.6612-0.0145-0.0145-0.27872 0.04716-0.58716 0.13702-1.858 0.54133-3.6428 0.78793-5.7026 0.78793-1.9201 0-5.6755 0.2372-6.5237 0.41205-2.7855 0.5742-4.7912 2.4435-5.9434 5.5393l-0.22946 0.61653 0.15841 0.78236c0.27492 1.3578 0.6176 2.311 1.0837 3.0147 0.50328 0.75973 0.97297 0.96582 2.7697 1.2153 0.40775 0.05661 2.7563-0.02301 3.4951-0.11849z" fill="#fff" stroke-width=".2"/>
	</g>
</svg>
