<?xml version="1.0" encoding="UTF-8" standalone="no"?>
<svg
   xmlns:dc="http://purl.org/dc/elements/1.1/"
   xmlns:cc="http://creativecommons.org/ns#"
   xmlns:rdf="http://www.w3.org/1999/02/22-rdf-syntax-ns#"
   xmlns:svg="http://www.w3.org/2000/svg"
   xmlns="http://www.w3.org/2000/svg"
   xmlns:sodipodi="http://sodipodi.sourceforge.net/DTD/sodipodi-0.dtd"
   xmlns:inkscape="http://www.inkscape.org/namespaces/inkscape"
   viewBox="0 -410 2048 2048"
   id="svg2"
   version="1.1"
   inkscape:version="0.48.2 r9819"
   width="100%"
   height="100%"
   sodipodi:docname="wn.svg">
  <metadata
     id="metadata12">
    <rdf:RDF>
      <cc:Work
         rdf:about="">
        <dc:format>image/svg+xml</dc:format>
        <dc:type
           rdf:resource="http://purl.org/dc/dcmitype/StillImage" />
      </cc:Work>
    </rdf:RDF>
  </metadata>
  <defs
     id="defs10" />
  <sodipodi:namedview
     pagecolor="#ffffff"
     bordercolor="#666666"
     borderopacity="1"
     objecttolerance="10"
     gridtolerance="10"
     guidetolerance="10"
     inkscape:pageopacity="0"
     inkscape:pageshadow="2"
     inkscape:window-width="640"
     inkscape:window-height="895"
     id="namedview8"
     showgrid="false"
     inkscape:zoom="0.11523438"
     inkscape:cx="1024"
     inkscape:cy="1024"
     inkscape:window-x="0"
     inkscape:window-y="0"
     inkscape:window-maximized="0"
     inkscape:current-layer="svg2" />
  <g
     transform="matrix(1 0 0 -1 0 1638)"
     id="g4">
    <path
       fill="#000000"
       d="M401 850q-8 -10 -21 -19q-28 -21 -40 4q-7 12 1 37q14 12 19 16q31 37 51 65q10 2 15 1q35 -6 18 -43q-9 -18 -21.5 -32.5t-21.5 -28.5zM697 1294q20 62 76 67q38 3 66 3t60 10q-32 -90 -73 -117q-22 -13 -61 -16q-29 -2 -45 4t-23 49zM631 762q48 34 68.5 71.5 t56.5 71.5q1 12 3 27t4 32q7 7 11 8q29 9 34 -26q0 -10 -1.5 -19.5t0.5 -16.5q6 -7 45 -15q144 -5 265 108q0 1 6.5 9t7.5 10q30 45 48 187q2 4 11 9q26 9 33 -26q-9 -129 -39 -184q-16 -29 -36 -51q17 9 34 17t33 18q51 31 73 120q11 19 32 17q22 -4 17 -33 q-23 -125 -98 -162q-24 -12 -48.5 -21.5t-47.5 -18.5q59 3 128 19q13 0 18 -11q9 -20 -19 -36q-141 -39 -179 -35q-27 -85 -132 -187q-58 -56 -120 -108.5t-122 -104.5q-133 -117 -162 -228q229 -1 380.5 -1h278.5t256 0.5t314 0.5q14 0 11.5 50t-7.5 93q-54 -6 -102 56.5 t-44 143.5q1 210 -26.5 378.5t-108.5 292.5q-132 200 -419 340q-4 -25 -9 -46q-8 -32 -30 -21q-21 7 -22 27q4 18 5 27q-1 3 -2 7.5t-1 8.5q-10 52 -57 118q-8 -42 -16 -57t-14 -26q-11 -16 -19.5 -31t-19.5 -33q-11 12 -23.5 28.5t-22.5 28.5l-17.5 17.5t-32.5 14.5 q21 -78 -11 -107q-16 -16 -35 -42.5t-43 -48.5q-14 -15 -34.5 -34.5t-34.5 -50.5q-19 -58 -74.5 -116.5t-121.5 -117.5q-144 -128 -163 -186q-26 -70 3 -136q27 -59 74 -77q28 -11 69 42q44 53 58 49q26 -7 17 -37q-5 -17 -32 -49q-28 -31 -29 -41q-5 -12 20 -19 q31 -8 116 75q10 10 21.5 18.5t23.5 19.5zM664 714q-14 -15 -22.5 -21.5t-15.5 -12.5q-9 -8 -64 -66q-23 -24 -55 -32q-23 -6 -59 5q-125 33 -197 132q-29 37 -40.5 89.5t11.5 133.5q22 83 158 187q149 113 176 181q22 39 50 86t67 91q24 17 45.5 39.5t43.5 46.5v123 q56 -11 80 -32q12 -13 27 -24t27 -24q25 45 32 75q1 7 6.5 28t11.5 69q15 3 26 -8q47 -51 88 -116q183 -73 334.5 -173t231.5 -208q230 -312 230 -916q0 -127 -13 -232h-1365q-13 130 138 276q68 66 141.5 128t143.5 126q130 120 144 192q-5 12 -19 16q-35 -21 -70 -27 t-69 -8q-22 -1 -43.5 -1.5t-50.5 9.5q-39 -44 -66.5 -75.5t-62.5 -56.5z"
       id="path6" />
  </g>
  <path
     style="fill:#f9f9f9;fill-opacity:1;fill-rule:nonzero;stroke-linecap:butt;stroke-linejoin:round"
     d="m 568.62278,1825.4689 c 21.37589,-72.6551 84.82177,-142.718 315.40735,-348.3022 111.11822,-99.0701 177.38657,-174.7639 199.39407,-227.754 9.5411,-22.9732 16.7084,-26.1863 90.3916,-40.5218 89.1529,-17.3452 119.2011,-32.3661 119.2011,-59.5874 0,-17.1667 -3.2195,-18.0101 -49.8983,-13.072 l -49.8983,5.2787 37.3385,-18.2791 c 45.8795,-22.4605 77.4988,-62.5833 97.7894,-124.08846 19.4959,-59.09581 14.2201,-84.67074 -16.7189,-81.04689 -18.2913,2.14243 -25.4427,10.76696 -38.1648,46.02628 -8.6106,23.86441 -29.1545,56.08137 -45.653,71.59327 -33.0631,31.0858 -53.2786,37.2013 -43.0287,13.0169 21.8245,-51.49475 30.2693,-86.78193 35.3511,-147.71731 5.0598,-60.67037 3.9498,-69.35622 -9.5236,-74.52645 -24.6644,-9.4646 -35.5812,7.71293 -47.418,74.61165 -16.5115,93.31965 -32.1326,125.39171 -79.1903,162.58871 -57.4074,45.378 -109.74683,69.0908 -174.8807,79.2312 -63.61241,9.9035 -102.75692,0.3634 -100.63528,-24.5264 3.35217,-39.3257 -1.03757,-46.9956 -25.29958,-44.2039 -20.22633,2.3273 -24.29947,7.3203 -26.71822,32.7525 -1.60059,16.8297 -13.03301,41.7183 -26.03389,56.6763 -12.74905,14.6682 -32.55648,40.2161 -44.01651,56.773 -25.25446,36.4864 -165.52646,157.0491 -196.01367,168.4723 -37.82643,14.1731 -41.44142,-4.7445 -8.79109,-46.0047 37.53687,-47.4353 44.55398,-68.8993 27.95228,-85.501 -16.68324,-16.6833 -33.59661,-7.6114 -82.95771,44.4962 -20.71494,21.8676 -42.86957,39.7593 -49.23248,39.7593 -18.66352,0 -61.74192,-40.758 -76.94868,-72.8039 -19.60854,-41.3219 -17.99876,-111.0697 3.53783,-153.2848 9.67528,-18.9652 81.62275,-97.3756 159.88327,-174.24549 106.78881,-104.89123 149.36409,-153.03863 170.63649,-192.96886 15.58955,-29.26301 62.74716,-91.98362 104.79469,-139.37914 73.6544,-83.02244 76.45006,-87.70321 76.45006,-128 0,-23.00448 3.4987,-41.82633 7.77489,-41.82633 4.27619,0 23.5123,18.54916 42.74691,41.22034 40.531,47.77252 41.23245,47.47802 82.55969,-34.66242 l 29.0748,-57.78792 20.00059,35.58626 c 11.00031,19.57244 22.35241,57.45852 25.22691,84.19128 4.8269,44.88972 7.0274,48.81267 28.7881,51.32171 19.6311,2.26348 24.5363,-1.35578 29.4032,-21.69492 9.3534,-39.08801 10.4732,-39.17684 71.2718,-5.65466 151.8053,83.70005 284.2844,200.22142 353.0118,310.49005 86.6571,139.03567 116.9966,275.4652 130.3781,586.2784 2.9795,69.2068 9.7292,140.7057 14.9991,158.8865 13.9159,48.0082 69.9078,108.2104 107.1387,115.1949 l 30.2506,5.6751 -2.516,66.2234 -2.516,66.2235 -610.2306,2.2283 -610.23049,2.2283 5.76187,-19.5843 z M 409.46808,1192.351 c 34.75055,-37.6416 47.33697,-66.7384 38.65542,-89.3621 -9.29785,-24.2298 -37.3714,-13.2407 -72.00093,28.184 -45.48768,54.4135 -48.4369,60.0561 -41.99623,80.3488 8.87332,27.9574 38.88281,20.3215 75.34174,-19.1707 z M 831.56169,788.89557 c 20.34285,-14.98912 70.18748,-91.58034 70.74408,-108.70529 0.33644,-10.3508 -141.22096,3.42571 -166.59089,16.21279 -41.45545,20.89459 -52.72884,61.21749 -27.27502,97.55789 12.44993,17.77477 19.49044,19.7689 57.05321,16.1596 23.56786,-2.26457 53.29874,-11.81582 66.06862,-21.22499 z"
     id="path2989"
     inkscape:connector-curvature="0"
     transform="translate(0,-410)" />
</svg>
