<?xml version="1.0" encoding="UTF-8"?>
<svg width="144pt" height="144pt" version="1.1" viewBox="0 0 50.8 50.8" xmlns="http://www.w3.org/2000/svg">
	<g transform="translate(0,-246.2)">
		<g transform="translate(.001152 .07585)" aria-label="p">
			<path d="m25.412 291.95h11.46q-0.74414-2.9518-2.8525-5.2338-0.81856-0.94257-1.5379-1.5627-2.3812-1.9348-3.8943-4.5641-1.5875 0.59531-3.175 0.59531-1.6371 0-3.175-0.59531-1.6123 2.6789-3.8943 4.5641-0.74414 0.62012-1.5379 1.5627-2.1332 2.282-2.8525 5.2338zm0-12.427q2.8029 0 4.7873-1.9844 1.9844-1.9844 1.9844-4.8121 0-2.3068-1.4387-4.1424-1.6619-2.1332-2.5549-4.5144-1.4883-0.19844-2.7781-0.19844-1.3643 0-2.7781 0.19844-1.017 2.5301-2.5797 4.5144-1.4387 1.8356-1.4387 4.1424 0 2.8277 1.9844 4.8121 1.9844 1.9844 4.8121 1.9844zm0-23.192q2.5301 0 2.5301-2.5301 0-2.5301-2.5301-2.5301t-2.5301 2.5301q0 2.5301 2.5301 2.5301zm0 5.8539q1.8852 0 3.3486 0.47129-0.57051-1.0418-1.1906-2.3068-0.59531-1.2898-0.76894-2.5549-0.69453 0.19844-1.3891 0.19844-0.74414 0-1.4139-0.19844-0.19844 1.265-0.79375 2.5549-0.59531 1.265-1.141 2.3068 1.9596-0.47129 3.3486-0.47129zm0 31.428h-13.519q0.47129-5.333 4.5393-9.0041 0.66973-0.62012 0.74414-0.66973 2.1084-1.7363 3.5967-4.1424-3.8199-2.5053-3.8199-7.0693 0-2.8277 1.7115-5.085 0.57051-0.71934 1.2154-1.6371 0.66973-0.91777 1.0666-1.7859-0.59531 0.14883-1.8107 0.47129-1.1906 0.32246-1.7611 0.54571 1.7115-1.5875 3.2494-3.7703 1.5627-2.1828 1.8355-4.6385-1.265-1.2898-1.265-3.0262 0-1.7363 1.2154-2.9766 1.2402-1.2402 3.0014-1.2402 1.7115 0 2.9518 1.2402 1.2402 1.2402 1.2402 2.9766 0 1.7611-1.265 3.0262 0.27285 2.4557 1.8355 4.6385 1.5875 2.1828 3.299 3.7703-0.57051-0.22325-1.8107-0.54571-1.2154-0.32246-1.8107-0.47129 0.39688 0.86817 1.0418 1.7859 0.66973 0.91777 1.265 1.6371 1.7115 2.2572 1.7115 5.085 0 4.5641-3.8199 7.0693 1.4139 2.3812 3.5719 4.1424 0.37207 0.29766 0.74414 0.66973 4.0928 3.6711 4.5393 9.0041z" stroke-width=".26458"/>
		</g>
		<g fill="#fff" stroke-width=".2">
			<path transform="matrix(.26458 0 0 .26458 0 246.2)" d="m95.719 38.575c-0.33474-0.0049-0.38069-0.0066-0.72999-0.0273-3.0226-0.17933-5.2576-1.1824-6.6652-2.9915-1.0579-1.3595-1.6569-3.1755-1.7985-5.4522-0.02311-0.37157-0.02972-0.61428-0.02963-1.0891 1.23e-4 -0.66927 0.02205-1.1295 0.08102-1.7007 0.22295-2.1595 0.89092-3.8706 2.0087-5.1455 0.1963-0.2239 0.50849-0.52813 0.74127-0.72239 1.375-1.1475 3.2342-1.7949 5.5953-1.9484 0.39726-0.02583 0.6041-0.03163 1.1285-0.03163 0.73197 0 1.1933 0.0232 1.8072 0.09088 2.6036 0.28702 4.556 1.2339 5.8485 2.8365 1.0782 1.3368 1.7021 3.1485 1.8615 5.4059 0.0728 1.03 0.0498 2.1593-0.0635 3.1212-0.29164 2.4763-1.1766 4.3422-2.6668 5.6231-1.0077 0.86611-2.3224 1.4657-3.8907 1.7745-0.98961 0.19485-1.9916 0.2745-3.2278 0.25656z"/>
			<path transform="matrix(.26458 0 0 .26458 0 246.2)" d="m83.405 62.481c0-2e-3 0.03682-0.07378 0.08183-0.15956 1.0442-1.9901 2.3766-4.6667 3.5976-7.227 0.63274-1.3268 0.81039-1.7126 1.103-2.3952 1.169-2.7268 1.9827-5.4267 2.4461-8.1167 0.02542-0.14758 0.05232-0.30916 0.05977-0.35908 0.0074-0.04992 0.01591-0.09337 0.01879-0.09656 0.0029-0.0032 0.06727 0.01211 0.14307 0.03401 2.1044 0.60795 4.4944 0.83282 6.7827 0.63817 1.1289-0.09602 2.336-0.31399 3.4684-0.62629 0.102-0.02813 0.18762-0.04865 0.19027-0.04561 3e-3 3e-3 9e-3 0.03749 0.0142 0.07656 0.0403 0.30536 0.1402 0.91918 0.21443 1.3179 0.45228 2.4296 1.1995 4.8472 2.2588 7.3078 0.33769 0.78445 0.48884 1.0991 1.4425 3.0028 1.1682 2.3321 2.1986 4.3099 3.2882 6.3119 0.0976 0.1793 0.1756 0.32782 0.17336 0.33006-2e-3 0.0022-0.071-0.01728-0.15277-0.04336-1.7851-0.56921-3.8793-1.0287-5.9729-1.3104-1.9035-0.25616-3.7281-0.38373-5.8818-0.41124-1.2495-0.01596-2.2999 0.01939-3.541 0.11916-2.6267 0.21116-5.5884 0.69623-8.8862 1.4554-0.37823 0.08707-0.82218 0.1915-0.8385 0.19724-0.0054 0.0019-0.0099 0.0019-0.0099-1.27e-4z"/>
			<path transform="matrix(.26458 0 0 .26458 0 246.2)" d="m95.533 126.22c-6.1591-0.10166-11.546-2.1245-16.104-6.0476-1.0387-0.89392-2.2022-2.064-3.105-3.1227-3.4065-3.9946-5.3687-8.6763-5.833-13.917-0.08743-0.98679-0.10224-1.3554-0.10224-2.5446 0-1.1921 0.01649-1.6012 0.10122-2.5112 0.37542-4.0319 1.6602-7.7266 3.8809-11.161 0.45451-0.70282 0.9214-1.3509 1.6116-2.237 3.1469-4.04 5.8212-8.4655 8.0837-13.377 0.48957-1.0628 0.77085-1.7128 1.4362-3.319 0.06586-0.159 0.02282-0.14156 0.51094-0.20703 2.5687-0.34454 5.0133-0.5501 7.7455-0.6513 0.92339-0.0342 3.5908-0.03402 4.5089 3.05e-4 1.8438 0.06894 3.5397 0.18647 5.3679 0.37203 1.1182 0.11348 2.8959 0.32645 2.9105 0.34865 3e-3 0.0042 0.0834 0.21356 0.17918 0.46524 1.107 2.9086 2.6012 6.024 4.2608 8.8839 1.5009 2.5865 3.0816 4.9302 5.0812 7.5335 0.67061 0.87312 0.99387 1.3186 1.4012 1.9308 1.2127 1.8227 2.1804 3.7775 2.8564 5.7701 0.62229 1.8342 1.0171 3.7072 1.1999 5.692 0.0771 0.83721 0.0912 1.2208 0.091 2.4777-2.2e-4 1.2943-0.0126 1.6082-0.10205 2.5893-0.25364 2.781-0.92051 5.3794-2.0194 7.8683-0.22418 0.50774-0.78958 1.6188-1.0861 2.1344-1.5455 2.6868-3.653 5.1697-6.1773 7.2775-3.181 2.6561-6.7818 4.4066-10.733 5.2177-1.1531 0.2367-2.3565 0.39765-3.5986 0.48132-0.34202 0.023-1.8787 0.0714-1.9866 0.0625-0.03069-3e-3 -0.20145-7e-3 -0.37946-0.01z"/>
			<path transform="matrix(.26458 0 0 .26458 0 246.2)" d="m52.758 173.18c0-0.0264 0.1648-0.66462 0.28784-1.1148 1.89-6.9149 5.2642-12.958 10.277-18.407 0.1174-0.12761 0.40955-0.46073 0.64922-0.74026 0.97192-1.1336 1.7714-1.9966 2.8047-3.0275 1.0254-1.0231 1.6581-1.6012 2.8083-2.5659 5.5334-4.6409 10.167-10.038 14.075-16.393 0.21671-0.35245 0.39508-0.6421 0.39637-0.64368 0.0013-2e-3 0.15648 0.0557 0.34485 0.12731 0.72069 0.27388 1.8462 0.6432 2.6737 0.87737 3.9862 1.1279 8.2056 1.4914 12.33 1.0623 2.0412-0.21239 4.1701-0.64196 6.2314-1.2574 0.52277-0.15609 1.6879-0.54321 2.116-0.70309l0.29303-0.10941 0.12443 0.21284c1.5949 2.7282 3.2977 5.2174 5.164 7.5491 2.6717 3.3379 5.611 6.3199 8.9969 9.1274 1.0349 0.8581 1.6648 1.4395 2.9297 2.704 1.1408 1.1405 1.8665 1.9121 2.8588 3.0399 0.19248 0.21877 0.51623 0.58171 0.71945 0.80655 3.5904 3.9723 6.2849 8.1469 8.2795 12.827 0.77833 1.8263 1.5196 3.9752 2.0277 5.8778 0.0811 0.30384 0.16063 0.59966 0.17667 0.65739l0.0292 0.10496h-43.297c-23.813 0-43.297-5e-3 -43.297-0.0122z"/>
		</g>
	</g>
</svg>
