<?xml version="1.0" encoding="UTF-8" standalone="no"?>
<svg
   xmlns:dc="http://purl.org/dc/elements/1.1/"
   xmlns:cc="http://creativecommons.org/ns#"
   xmlns:rdf="http://www.w3.org/1999/02/22-rdf-syntax-ns#"
   xmlns:svg="http://www.w3.org/2000/svg"
   xmlns="http://www.w3.org/2000/svg"
   xmlns:sodipodi="http://sodipodi.sourceforge.net/DTD/sodipodi-0.dtd"
   xmlns:inkscape="http://www.inkscape.org/namespaces/inkscape"
   viewBox="0 -410 2048 2048"
   id="svg2"
   version="1.1"
   inkscape:version="0.48.2 r9819"
   width="100%"
   height="100%"
   sodipodi:docname="wp.svg">
  <metadata
     id="metadata12">
    <rdf:RDF>
      <cc:Work
         rdf:about="">
        <dc:format>image/svg+xml</dc:format>
        <dc:type
           rdf:resource="http://purl.org/dc/dcmitype/StillImage" />
      </cc:Work>
    </rdf:RDF>
  </metadata>
  <defs
     id="defs10" />
  <sodipodi:namedview
     pagecolor="#ffffff"
     bordercolor="#666666"
     borderopacity="1"
     objecttolerance="10"
     gridtolerance="10"
     guidetolerance="10"
     inkscape:pageopacity="0"
     inkscape:pageshadow="2"
     inkscape:window-width="640"
     inkscape:window-height="845"
     id="namedview8"
     showgrid="false"
     inkscape:zoom="0.11523438"
     inkscape:cx="1024"
     inkscape:cy="1024"
     inkscape:window-x="0"
     inkscape:window-y="0"
     inkscape:window-maximized="0"
     inkscape:current-layer="svg2" />
  <g
     transform="matrix(1 0 0 -1 0 1638)"
     id="g4">
    <path
       fill="#000000"
       d="M1024 204h462q-30 119 -115 211q-33 38 -62 63q-96 78 -157 184q-64 -24 -128 -24q-66 0 -128 24q-65 -108 -157 -184q-30 -25 -62 -63q-86 -92 -115 -211h462zM1024 705q113 0 193 80t80 194q0 93 -58 167q-67 86 -103 182q-60 8 -112 8q-55 0 -112 -8 q-41 -102 -104 -182q-58 -74 -58 -167q0 -114 80 -194t194 -80zM1024 1640q102 0 102 102t-102 102t-102 -102t102 -102zM1024 1404q76 0 135 -19q-23 42 -47.5 93.5t-31.5 102.5q-28 -8 -56 -8q-30 0 -57 8q-8 -51 -32 -102.5t-46 -93.5q79 19 135 19zM1024 137h-545 q19 215 183 363q27 25 30 27q85 70 145 167q-154 101 -154 285q0 114 69 205q23 29 49.5 66t42.5 72q-24 -6 -72.5 -19t-71.5 -22q69 64 131.5 152t73.5 187q-51 52 -51 122t49.5 120t120.5 50q69 0 119 -50t50 -120q0 -71 -51 -122q11 -99 74.5 -187t132.5 -152 q-23 9 -72.5 22t-73.5 19q16 -35 42.5 -72t50.5 -66q69 -91 69 -205q0 -184 -154 -285q57 -96 144 -167q15 -12 30 -27q165 -148 183 -363h-544z"
       id="path6" />
  </g>
  <path
     style="fill:#f9f9f9;fill-opacity:1;fill-rule:nonzero;stroke-linecap:butt;stroke-linejoin:round"
     d="m 572.74576,1824.4066 c 0,-6.518 14.1312,-40.0976 31.40266,-74.6212 24.39277,-48.7583 55.90516,-88.2458 141.16824,-176.8948 60.37108,-62.7685 118.93322,-128.9802 130.13811,-147.1371 18.82336,-30.5023 22.44122,-32.4819 47.57752,-26.0339 35.34915,9.0679 166.83251,8.9997 202.41351,-0.105 25.3315,-6.482 28.8908,-4.7482 41.9012,20.4111 7.8199,15.1221 66.1327,81.3126 129.5839,147.0899 90.9128,94.2458 122.038,132.9322 146.8445,182.5176 17.3134,34.6073 31.4788,68.2554 31.4788,74.7734 0,9.8641 -75.6562,11.851 -451.2542,11.851 -375.59801,0 -451.25424,-1.9869 -451.25424,-11.851 z"
     id="path3005"
     inkscape:connector-curvature="0"
     transform="translate(0,-410)" />
  <path
     style="fill:#f9f9f9;fill-opacity:1;fill-rule:nonzero;stroke-linecap:butt;stroke-linejoin:round"
     d="M 973.8632,1332.4894 C 817.81673,1301.3466 718.85769,1136.2181 768.54138,989.87819 c 7.45708,-21.96431 35.76894,-73.84316 62.91525,-115.28632 27.14631,-41.44315 56.58213,-91.50035 65.41295,-111.23822 17.86119,-39.92177 35.52261,-46.36264 127.13042,-46.36264 95.5653,0 108.4491,5.40167 131.2182,55.0146 11.2554,24.52505 42.5073,78.49925 69.4487,119.94267 55.7605,85.775 73.2668,142.56302 64.5928,209.52932 -19.474,150.3465 -169.3885,260.1512 -315.3965,231.0118 l 0,0 z"
     id="path3007"
     inkscape:connector-curvature="0"
     transform="translate(0,-410)" />
  <path
     style="fill:#f9f9f9;fill-opacity:1;fill-rule:nonzero;stroke-linecap:butt;stroke-linejoin:round"
     d="m 902.50847,653.86583 c 0,-2.22491 13.29869,-32.90712 29.55264,-68.18268 16.25395,-35.27556 30.89802,-73.9001 32.54237,-85.8323 2.79535,-20.28431 6.50344,-21.80285 57.02972,-23.3549 l 54.04,-1.65999 9.735,36.15291 c 5.3542,19.88409 21.319,59.10082 35.4773,87.14828 14.1584,28.04746 24.5074,52.23041 22.9979,53.73989 -1.5095,1.50949 -22.2669,-1.09804 -46.1275,-5.7945 -40.9029,-8.05084 -154.73851,-3.71615 -182.53588,6.95072 -6.99135,2.68282 -12.71155,3.05749 -12.71155,0.83257 z"
     id="path3009"
     inkscape:connector-curvature="0"
     transform="translate(0,-410)" />
  <path
     style="fill:#f9f9f9;fill-opacity:1;fill-rule:nonzero;stroke-linecap:butt;stroke-linejoin:round"
     d="m 974.78497,391.74282 c -34.10992,-14.83759 -46.2426,-36.56373 -46.2426,-82.80723 0,-68.33014 26.73007,-94.90565 95.45763,-94.90565 68.7276,0 95.4576,26.57551 95.4576,94.90565 0,46.98228 -12.2745,68.18621 -48.1486,83.17534 -36.3485,15.18738 -60.9797,15.09344 -96.52403,-0.36812 l 0,10e-6 z"
     id="path3011"
     inkscape:connector-curvature="0"
     transform="translate(0,-410)" />
</svg>
