<?xml version="1.0" encoding="UTF-8" standalone="no"?>
<svg
   xmlns:dc="http://purl.org/dc/elements/1.1/"
   xmlns:cc="http://creativecommons.org/ns#"
   xmlns:rdf="http://www.w3.org/1999/02/22-rdf-syntax-ns#"
   xmlns:svg="http://www.w3.org/2000/svg"
   xmlns="http://www.w3.org/2000/svg"
   xmlns:sodipodi="http://sodipodi.sourceforge.net/DTD/sodipodi-0.dtd"
   xmlns:inkscape="http://www.inkscape.org/namespaces/inkscape"
   viewBox="0 -410 2048 2048"
   id="svg2"
   version="1.1"
   inkscape:version="0.48.2 r9819"
   width="100%"
   height="100%"
   sodipodi:docname="wq.svg">
  <metadata
     id="metadata12">
    <rdf:RDF>
      <cc:Work
         rdf:about="">
        <dc:format>image/svg+xml</dc:format>
        <dc:type
           rdf:resource="http://purl.org/dc/dcmitype/StillImage" />
      </cc:Work>
    </rdf:RDF>
  </metadata>
  <defs
     id="defs10" />
  <sodipodi:namedview
     pagecolor="#ffffff"
     bordercolor="#666666"
     borderopacity="1"
     objecttolerance="10"
     gridtolerance="10"
     guidetolerance="10"
     inkscape:pageopacity="0"
     inkscape:pageshadow="2"
     inkscape:window-width="640"
     inkscape:window-height="784"
     id="namedview8"
     showgrid="false"
     inkscape:zoom="0.11523438"
     inkscape:cx="1024"
     inkscape:cy="1024"
     inkscape:window-x="0"
     inkscape:window-y="0"
     inkscape:window-maximized="0"
     inkscape:current-layer="svg2" />
  <g
     transform="matrix(1 0 0 -1 0 1638)"
     id="g4">
    <path
       fill="#000000"
       d="M613 944q-28 24 -86 95q-101 114 -113 114q-10 0 -10 -14q0 -18 32 -73q28 -79 46 -145q45 9 131 23zM849 964q-26 22 -50 73q-29 59 -70 183q-16 49 -30 83t-20 33q-3 -1 -2.5 -16t0.5 -24q0 -27 25 -137q24 -114 24 -163q1 -30 -6 -43q52 7 129 11zM1106 967 q-29 33 -38 111q-4 31 -10.5 89.5t-9.5 145.5q-3 63 -10 109t-14 48q-8 -2 -13.5 -48t-8.5 -109q-5 -87 -12 -145.5t-10 -89.5q-9 -84 -38 -111q20 0 40.5 3.5t41.5 3.5t41.5 -3.5t40.5 -3.5zM1329 954q-7 15 -7 42q0 51 25 163q24 112 24 137q0 32 -1 33q-14 3 -51 -109 q-38 -116 -70 -183q-23 -48 -49 -74q47 -2 129 -9zM1569 921q9 37 20.5 73.5t23.5 72.5q32 59 32 72q0 14 -10 14q-16 0 -113 -113l-51 -59.5t-35 -38.5q68 -9 133 -21zM263 1434q-67 0 -67 -67q0 -68 67 -68q68 0 68 68q0 67 -68 67zM1073 1680q15 -162 30.5 -323.5 t31.5 -322.5q1 -23 23 -23q16 1 22 14q87 210 128.5 325.5t50.5 142.5q-46 44 -46 99q0 48 34.5 82.5t83.5 34.5q48 0 82.5 -34.5t34.5 -82.5q0 -87 -90 -118l-73 -436q-5 -30 21 -30q21 0 32 11q120 120 172.5 186t73.5 92q-22 29 -22 70q0 117 117 117q48 0 82.5 -34.5 t34.5 -82.5q0 -49 -34.5 -83t-82.5 -34q-15 0 -27 3q-80 -173 -128 -354q-41 -147 -51 -279q6 -28 7 -29q-3 12 4 -23q4 -16 4 -31q-6 -16 -25 -36q-17 -19 -25 -75q37 -52 37 -84q0 -84 -162 -144t-389 -60q-228 0 -389.5 60t-161.5 144q0 33 39 86q-12 57 -26 73 q-20 20 -26 36q0 13 3 30q2 8 3 14.5t2 9.5q4 11 8 31q-10 126 -49 277q-52 190 -129 356q-17 -5 -35 -5q-117 0 -117 117t117 117t117 -117q0 -36 -18 -65q59 -75 118.5 -139.5t131.5 -141.5q9 -13 26 -13q29 0 26 30q-2 9 -25 143t-50 292q-95 26 -95 119q0 48 34.5 82.5 t82.5 34.5q117 0 117 -117q0 -52 -40 -95q5 -21 25 -83.5t62 -164.5q23 -56 46.5 -112.5t47.5 -111.5q6 -13 21 -13q21 1 24 22q2 12 61 645q-71 38 -71 113q0 48 34 83t83 35q48 0 82.5 -35t34.5 -83q0 -68 -65 -112zM803 646q-53 0 -53 -56t53 -56q54 0 54 56t-54 56z M498 846q12 -49 21.5 -88.5t16.5 -85.5q8 -4 18 -4q178 67 469 67q295 0 477 -68q10 2 15 5q6 45 16 82.5t22 87.5q-114 32 -249 53.5t-280 21.5t-277 -21t-249 -50zM1502 543l-72 69l-92 -37l73 -69zM1151 614l-129 67l-124 -67l129 -68zM719 574l-101 34l-80 -63l100 -34z M1779 1434q-68 0 -68 -67q0 -68 68 -68q67 0 67 68q0 67 -67 67zM611 1660q-67 0 -67 -68q0 -67 67 -67q68 0 68 67q0 68 -68 68zM1021 1860q-67 0 -67 -68q0 -67 67 -67t67 67q0 68 -67 68zM1431 1660q-68 0 -68 -68q0 -67 68 -67q67 0 67 67q0 68 -67 68zM1244 646 q-53 0 -53 -56t53 -56q54 0 54 56t-54 56zM1024 467q-190 0 -322.5 -29t-132.5 -83q0 -56 132.5 -90t322.5 -34q189 0 325.5 34t136.5 90q0 54 -136.5 83t-325.5 29z"
       id="path6" />
  </g>
  <path
     style="fill:#f9f9f9;fill-opacity:1;fill-rule:nonzero;stroke-linecap:butt;stroke-linejoin:round"
     d="m 788.35035,1796.0187 c -111.49365,-19.5934 -189.93138,-51.2323 -207.25323,-83.5985 -11.93443,-22.2996 6.3662,-53.9143 41.62867,-71.9143 105.49054,-53.8484 513.68301,-70.0549 710.88071,-28.2242 196.9382,41.7756 194.1669,120.0043 -6.0503,170.7926 -62.3279,15.8105 -104.1358,19.1227 -273.1833,21.6428 -140.62594,2.0965 -219.21895,-0.4734 -266.02255,-8.6984 z"
     id="path2989"
     inkscape:connector-curvature="0"
     transform="translate(0,-410)" />
  <path
     style="fill:#f9f9f9;fill-opacity:1;fill-rule:nonzero;stroke-linecap:butt;stroke-linejoin:round"
     d="m 1376.4161,1503.2878 -33.3688,-27.5054 40.8074,-16.0292 40.8074,-16.0293 35.409,28.0444 35.409,28.0445 -33.9773,15.2626 c -45.0511,20.237 -46.4745,20.0398 -85.0867,-11.7876 z"
     id="path2991"
     inkscape:connector-curvature="0"
     transform="translate(0,-410)" />
  <path
     style="fill:#f9f9f9;fill-opacity:1;fill-rule:nonzero;stroke-linecap:butt;stroke-linejoin:round"
     d="m 1222.667,1501.6425 c -23.6599,-11.7292 -33.1405,-59.1885 -15.9592,-79.8907 13.7311,-16.5451 55.6247,-15.861 72.6723,1.1867 25.0364,25.0364 12.7002,72.2462 -22.0013,84.1977 -7.6687,2.6412 -23.289,0.1691 -34.7118,-5.4937 l 0,0 z"
     id="path2993"
     inkscape:connector-curvature="0"
     transform="translate(0,-410)" />
  <path
     style="fill:#f9f9f9;fill-opacity:1;fill-rule:nonzero;stroke-linecap:butt;stroke-linejoin:round"
     d="m 964.65707,1463.9043 -55.00395,-30.9687 55.00395,-29.5982 55.00393,-29.5982 59.0779,28.3784 c 53.7567,25.8223 57.6648,29.4402 43.3898,40.1684 -15.9303,11.9721 -95.5097,54.2973 -100.0097,53.1912 -1.3519,-0.3323 -27.20976,-14.5401 -57.46193,-31.5729 l 0,0 z"
     id="path2995"
     inkscape:connector-curvature="0"
     transform="translate(0,-410)" />
  <path
     style="fill:#f9f9f9;fill-opacity:1;fill-rule:nonzero;stroke-linecap:butt;stroke-linejoin:round"
     d="m 789.69492,1506.8217 c -54.22767,-16.9091 -40.80339,-97.52 16.24019,-97.52 31.09174,0 44.50557,14.5881 44.50557,48.4018 0,35.4018 -29.14842,58.9708 -60.74576,49.1182 z"
     id="path2997"
     inkscape:connector-curvature="0"
     transform="translate(0,-410)" />
  <path
     style="fill:#f9f9f9;fill-opacity:1;fill-rule:nonzero;stroke-linecap:butt;stroke-linejoin:round"
     d="m 588.43784,1515.58 -40.71469,-13.5538 35.23235,-27.8803 35.23235,-27.8804 42.36371,13.5474 c 23.30003,7.451 42.28032,15.7308 42.17841,18.3994 -0.19786,5.1807 -65.65779,53.1471 -70.62498,51.7512 -1.62384,-0.4564 -21.27406,-6.9289 -43.66715,-14.3835 z"
     id="path2999"
     inkscape:connector-curvature="0"
     transform="translate(0,-410)" />
  <path
     style="fill:#f9f9f9;fill-opacity:1;fill-rule:nonzero;stroke-linecap:butt;stroke-linejoin:round"
     d="m 525.72527,1300.6527 c -8.2412,-41.4969 -16.81151,-80.2114 -19.04513,-86.0321 -4.29818,-11.2009 169.80016,-48.9855 304.70969,-66.1312 93.06279,-11.8274 328.54827,-11.6685 425.22037,0.2869 106.2311,13.1376 308.0678,55.0351 308.0678,63.9492 0,9.771 -34.1923,155.5594 -37.1861,158.5532 -2.1246,2.1246 -41.9856,-6.0422 -88.5801,-18.1484 -114.7551,-29.8159 -215.3966,-40.2963 -390.5728,-40.6729 -164.80446,-0.3542 -287.82828,11.7033 -385.66924,37.7992 -36.07175,9.621 -73.7695,19.372 -83.77275,21.6689 -16.59096,3.8096 -19.50326,-2.4478 -33.17174,-71.2728 z"
     id="path3001"
     inkscape:connector-curvature="0"
     transform="translate(0,-410)" />
  <path
     style="fill:#f9f9f9;fill-opacity:1;fill-rule:nonzero;stroke-linecap:butt;stroke-linejoin:round"
     d="m 482.26348,1112.6797 c -1.98942,-6.2952 -12.27096,-38.7814 -22.84786,-72.1916 -10.5769,-33.4101 -26.73102,-75.68151 -35.89805,-93.93635 -9.16703,-18.25484 -15.31358,-37.25185 -13.65901,-42.21557 3.02544,-9.0763 111.53426,101.68642 161.83629,165.19792 l 26.99329,34.0818 -41.17458,5.8118 c -22.64602,3.1965 -48.02771,7.8111 -56.40377,10.2548 -8.37605,2.4437 -16.85689,-0.7076 -18.84631,-7.0028 z"
     id="path3003"
     inkscape:connector-curvature="0"
     transform="translate(0,-410)" />
  <path
     style="fill:#f9f9f9;fill-opacity:1;fill-rule:nonzero;stroke-linecap:butt;stroke-linejoin:round"
     d="m 726.55858,1025.3017 c -2.69264,-34.60339 -12.7254,-101.96611 -22.29502,-149.69492 -38.21915,-190.61923 -33.27729,-191.99223 32.8865,-9.13689 23.39798,64.66445 53.97775,138.68601 67.95505,164.49231 l 25.41326,46.9206 -25.83546,5.1671 c -14.20949,2.8419 -36.49892,5.167 -49.53204,5.167 -23.18097,0 -23.80312,-1.369 -28.59229,-62.9152 z"
     id="path3005"
     inkscape:connector-curvature="0"
     transform="translate(0,-410)" />
  <path
     style="fill:#f9f9f9;fill-opacity:1;fill-rule:nonzero;stroke-linecap:butt;stroke-linejoin:round"
     d="m 963.25424,1067.0605 c 0,-2.0902 5.64068,-28.4496 12.53484,-58.5762 6.89417,-30.12672 18.9436,-132.87752 26.77652,-228.33515 19.7901,-241.17687 24.293,-241.57316 43.0975,-3.79292 13.3089,168.28912 25.1996,250.58187 40.3596,279.31837 7.2953,13.8285 2.1646,15.1864 -57.3784,15.1864 -35.96453,0 -65.39006,-1.7102 -65.39006,-3.8005 z"
     id="path3007"
     inkscape:connector-curvature="0"
     transform="translate(0,-410)" />
  <path
     style="fill:#f9f9f9;fill-opacity:1;fill-rule:nonzero;stroke-linecap:butt;stroke-linejoin:round"
     d="m 1235.6764,1082.2546 c -17.821,-3.5067 -17.5658,-4.9774 9.9619,-57.3945 15.5384,-29.58765 47.1748,-106.51434 70.3032,-170.94824 23.7247,-66.09518 43.212,-109.19114 44.7141,-98.88488 1.4644,10.04721 -7.2976,72.18791 -19.4711,138.09044 -12.1735,65.90254 -22.1337,136.76008 -22.1337,157.46118 l 0,37.6383 -32.5423,-1.1817 c -17.8983,-0.65 -40.7728,-2.8013 -50.8321,-4.7806 z"
     id="path3009"
     inkscape:connector-curvature="0"
     transform="translate(0,-410)" />
  <path
     style="fill:#f9f9f9;fill-opacity:1;fill-rule:nonzero;stroke-linecap:butt;stroke-linejoin:round"
     d="m 1498.7157,1111.1355 -50.3013,-9.9016 68.6784,-78.1017 c 80.2736,-91.28786 123.0428,-132.87351 123.0428,-119.6378 0,5.19191 -9.6871,30.3293 -21.527,55.86086 -11.8398,25.53156 -28.3251,72.78034 -36.6339,104.99724 -8.3088,32.217 -19.1234,58.1507 -24.0324,57.6304 -4.9089,-0.5202 -31.5609,-5.4015 -59.2266,-10.8474 l 0,0 z"
     id="path3011"
     inkscape:connector-curvature="0"
     transform="translate(0,-410)" />
  <path
     style="fill:#f9f9f9;fill-opacity:1;fill-rule:nonzero;stroke-linecap:butt;stroke-linejoin:round"
     d="m 1732.5992,725.22855 c -21.4896,-23.74572 -18.7197,-75.55139 4.9249,-92.11275 26.5778,-18.61577 64.0867,-16.91517 84.8488,3.84691 22.1596,22.15966 22.9573,70.34256 1.4862,89.77367 -21.4469,19.40915 -73.1027,18.55567 -91.2599,-1.50783 l 0,0 z"
     id="path3013"
     inkscape:connector-curvature="0"
     transform="translate(0,-410)" />
  <path
     style="fill:#f9f9f9;fill-opacity:1;fill-rule:nonzero;stroke-linecap:butt;stroke-linejoin:round"
     d="m 1384.7554,501.83438 c -19.0029,-19.00294 -17.6536,-75.49563 2.233,-93.49279 8.7284,-7.89906 28.2538,-14.36193 43.3898,-14.36193 52.7623,0 80.1176,57.3825 48.7229,102.20469 -16.4206,23.44377 -73.1543,26.84136 -94.3457,5.65003 z"
     id="path3015"
     inkscape:connector-curvature="0"
     transform="translate(0,-410)" />
  <path
     style="fill:#f9f9f9;fill-opacity:1;fill-rule:nonzero;stroke-linecap:butt;stroke-linejoin:round"
     d="m 976.89104,302.24116 c -19.00294,-19.00294 -17.65369,-75.49563 2.23295,-93.49279 18.78324,-16.99861 61.51641,-18.80501 82.46641,-3.486 8.1805,5.98175 17.1767,25.06757 19.9914,42.41291 4.0442,24.92109 1.2719,35.3829 -13.2151,49.86984 -22.0016,22.00164 -71.62269,24.54901 -91.47566,4.69604 l 0,0 z"
     id="path3017"
     inkscape:connector-curvature="0"
     transform="translate(0,-410)" />
  <path
     style="fill:#f9f9f9;fill-opacity:1;fill-rule:nonzero;stroke-linecap:butt;stroke-linejoin:round"
     d="m 571.25443,506.47764 c -29.99931,-17.50499 -26.85493,-84.61326 4.95995,-105.85662 17.72874,-11.83779 63.15157,-6.77071 76.60065,8.54508 28.17195,32.08218 25.61666,78.92918 -5.43619,99.66373 -13.5702,9.06106 -58.96891,7.65828 -76.12441,-2.35219 l 0,0 z"
     id="path3019"
     inkscape:connector-curvature="0"
     transform="translate(0,-410)" />
  <path
     style="fill:#f9f9f9;fill-opacity:1;fill-rule:nonzero;stroke-linecap:butt;stroke-linejoin:round"
     d="m 216.94915,723.74237 c -38.8247,-38.8247 -9.73407,-104.13559 46.38384,-104.13559 29.04943,0 49.92066,15.73565 60.52825,45.63468 6.22088,17.53443 -7.61808,59.35686 -22.84482,69.03887 -20.1015,12.78165 -66.57293,6.95638 -84.06727,-10.53796 z"
     id="path3021"
     inkscape:connector-curvature="0"
     transform="translate(0,-410)" />
</svg>
