<?xml version="1.0" encoding="UTF-8"?>
<svg width="144pt" height="144pt" version="1.1" viewBox="0 0 50.8 50.8" xmlns="http://www.w3.org/2000/svg">
	<g transform="translate(0,-246.2)">
		<g transform="translate(-.096894 .03804)" aria-label="q">
			<path d="m15.28 273.58q-0.69453-0.59532-2.1332-2.3564-2.5053-2.8277-2.8029-2.8277-0.24805 0-0.24805 0.34726 0 0.44649 0.79375 1.8107 0.69453 1.9596 1.141 3.5967 1.1162-0.22324 3.2494-0.5705zm5.8539-0.4961q-0.64492-0.5457-1.2402-1.8107-0.71934-1.4635-1.7363-4.5393-0.39688-1.2154-0.74414-2.0588-0.34727-0.84336-0.49609-0.81855-0.07441 0.0248-0.07441 0.39687 0.0248 0.37207 0.0248 0.59532 0 0.66972 0.62012 3.3982 0.59531 2.8277 0.59531 4.0432 0.02481 0.74414-0.14883 1.0666 1.2898-0.17363 3.1998-0.27285zm6.3748-0.0744q-0.71934-0.81856-0.94258-2.7533-0.09922-0.76895-0.27285-2.2076-0.14883-1.4635-0.22324-3.6215-0.07442-1.5627-0.24805-2.7037-0.17363-1.141-0.34727-1.1906-0.19844 0.0496-0.34727 1.1906-0.12402 1.141-0.19844 2.7037-0.12402 2.158-0.29766 3.6215-0.17363 1.4387-0.24805 2.2076-0.22324 2.0836-0.94258 2.7533 0.49609 0 0.99219-0.0744 0.5209-0.0992 1.0418-0.0992t1.017 0.0992q0.5209 0.0744 1.017 0.0744zm5.5314 0.32246q-0.17363-0.37207-0.17363-1.0418 0-1.265 0.62012-4.0432 0.59531-2.7781 0.59531-3.3982 0-0.79375-0.0248-0.81856-0.34727-0.0744-1.265 2.7037-0.94258 2.8774-1.7363 4.5393-0.57051 1.1906-1.2154 1.8356 1.1658 0.0496 3.1998 0.22324zm5.9531 0.81855q0.22324-0.91777 0.49609-1.8107 0.29766-0.91777 0.59531-1.8107 0.79375-1.4635 0.79375-1.7859 0-0.34726-0.24805-0.34726-0.39688 0-2.8029 2.8029-0.74414 0.86816-1.265 1.4883-0.5209 0.59531-0.86816 0.94257 1.6867 0.22325 3.299 0.5209zm-32.395-12.725q-1.6619 0-1.6619 1.6619 0 1.6867 1.6619 1.6867 1.6867 0 1.6867-1.6867 0-1.6619-1.6867-1.6619zm20.092-6.102q0.37207 4.0184 0.74414 8.0367 0.39688 3.9936 0.79375 7.9871 0.0248 0.57051 0.57051 0.57051 0.39688-0.0248 0.5457-0.34726 2.158-5.209 3.175-8.0615 1.0418-2.8773 1.265-3.5471-1.141-1.0914-1.141-2.4557 0-1.1906 0.84336-2.034 0.86816-0.86816 2.0836-0.86816 1.1906 0 2.034 0.86816 0.86816 0.84336 0.86816 2.034 0 2.158-2.2324 2.927l-1.8107 10.815q-0.12402 0.74415 0.5209 0.74415 0.5209 0 0.79375-0.27286 2.9766-2.9766 4.2664-4.6137 1.3146-1.6371 1.8355-2.282-0.5457-0.71934-0.5457-1.7363 0-2.9022 2.9021-2.9022 1.1906 0 2.034 0.86817 0.86816 0.84336 0.86816 2.034 0 1.2154-0.86816 2.0588-0.84336 0.84336-2.034 0.84336-0.37207 0-0.66973-0.0744-1.9844 4.2912-3.175 8.7809-1.017 3.6463-1.265 6.9205 0.14883 0.69454 0.17363 0.71934-0.07441-0.29766 0.09922 0.57051 0.09922 0.39687 0.09922 0.76894-0.14883 0.39688-0.62012 0.89297-0.42168 0.47129-0.62012 1.8604 0.91777 1.2898 0.91777 2.0836 0 2.0836-4.0184 3.5719-4.0184 1.4883-9.649 1.4883-5.6555 0-9.6738-1.4883-3.9936-1.4883-3.9936-3.5719 0-0.81856 0.96738-2.1332-0.29766-1.4139-0.64492-1.8107-0.49609-0.49609-0.64492-0.89297 0-0.32246 0.07441-0.74414 0.04961-0.19844 0.07441-0.34726 0.0248-0.17364 0.04961-0.24805 0.09922-0.27285 0.19844-0.76895-0.24805-3.1254-1.2154-6.8709-1.2898-4.7129-3.1998-8.8305-0.42168 0.12402-0.86816 0.12402-2.9021 0-2.9021-2.9022t2.9021-2.9022q2.9021 0 2.9021 2.9022 0 0.89297-0.44648 1.6123 1.4635 1.8604 2.927 3.4726 1.4883 1.5875 3.2742 3.4975 0.22324 0.32247 0.64492 0.32247 0.71934 0 0.64492-0.74415-0.04961-0.22324-0.62012-3.5471-0.57051-3.3238-1.2402-7.243-2.3564-0.64493-2.3564-2.9518 0-1.1906 0.84336-2.034 0.86816-0.86816 2.0588-0.86816 2.9021 0 2.9021 2.9022 0 1.2898-0.99219 2.3564 0.12402 0.5209 0.62012 2.0836 0.49609 1.5379 1.5379 4.068 0.57051 1.3891 1.141 2.8029 0.59531 1.3891 1.1906 2.7533 0.14883 0.32246 0.5209 0.32246 0.5209-0.0248 0.59531-0.54571 0.04961-0.29765 1.5131-15.999-1.7611-0.94258-1.7611-2.8029 0-1.1906 0.84336-2.0588 0.84336-0.86816 2.0588-0.86816 1.1906 0 2.034 0.86816 0.86816 0.86817 0.86816 2.0588 0 1.6867-1.6123 2.7781zm-6.6973 25.648q-1.3146 0-1.3146 1.3891 0 1.3891 1.3146 1.3891 1.3395 0 1.3395-1.3891 0-1.3891-1.3395-1.3891zm-7.5654-4.9609q0.29766 1.2154 0.5209 2.2076 0.24805 0.96738 0.42168 2.1084 0.19844 0.0992 0.44648 0.0992 4.4152-1.6619 11.633-1.6619 7.3174 0 11.832 1.6867 0.24805-0.0496 0.37207-0.12402 0.14883-1.1162 0.39688-2.034 0.24805-0.94258 0.5457-2.1828-2.8277-0.79375-6.1764-1.3146-3.3486-0.54571-6.9453-0.54571t-6.8709 0.5209q-3.2742 0.5209-6.1764 1.2402zm24.904 7.5158-1.7859-1.7115-2.282 0.91777 1.8107 1.7115zm-8.7064-1.7611-3.1998-1.6619-3.0758 1.6619 3.1998 1.6867zm-10.716 0.99219-2.5053-0.84336-1.9844 1.5627 2.4805 0.84335zm26.293-21.332q-1.6867 0-1.6867 1.6619 0 1.6867 1.6867 1.6867 1.6619 0 1.6619-1.6867 0-1.6619-1.6619-1.6619zm-28.972-5.6059q-1.6619 0-1.6619 1.6867 0 1.6619 1.6619 1.6619 1.6867 0 1.6867-1.6619 0-1.6867-1.6867-1.6867zm10.17-4.9609q-1.6619 0-1.6619 1.6867 0 1.6619 1.6619 1.6619t1.6619-1.6619q0-1.6867-1.6619-1.6867zm10.17 4.9609q-1.6867 0-1.6867 1.6867 0 1.6619 1.6867 1.6619 1.6619 0 1.6619-1.6619 0-1.6867-1.6619-1.6867zm-4.6385 25.152q-1.3146 0-1.3146 1.3891 0 1.3891 1.3146 1.3891 1.3395 0 1.3395-1.3891 0-1.3891-1.3395-1.3891zm-5.457 4.44q-4.7129 0-8.0119 0.71934-3.2742 0.71933-3.2742 2.0588 0 1.3891 3.2742 2.2324 3.299 0.84336 8.0119 0.84336 4.6881 0 8.0615-0.84336 3.3982-0.84336 3.3982-2.2324 0-1.3395-3.3982-2.0588-3.3734-0.71934-8.0615-0.71934z" stroke-width=".26458"/>
		</g>
		<g fill="#fff" stroke-width=".2">
			<path transform="matrix(.26458 0 0 .26458 0 246.2)" d="m24.213 70.354c-1.4814-0.04461-2.6862-0.37311-3.6156-0.98578-0.51112-0.33694-0.9472-0.77197-1.2846-1.2815-0.68221-1.0302-1.0188-2.3844-1.0189-4.099-8.6e-5 -1.6179 0.3088-2.9102 0.93485-3.9112 0.25092-0.4012 0.57408-0.7716 0.9374-1.0744 0.26317-0.21935 0.57012-0.41942 0.89812-0.58541 0.75541-0.38228 1.6723-0.6111 2.7345-0.68241 0.45465-0.03052 1.0279-0.03261 1.475-0.0054 1.4886 0.09069 2.6657 0.45927 3.5687 1.1174 0.29909 0.21801 0.5967 0.49958 0.8331 0.78821 0.84431 1.0308 1.2692 2.4906 1.2687 4.3587-3.32e-4 1.2457-0.18749 2.323-0.55618 3.2013-0.56689 1.3505-1.5635 2.2677-2.993 2.7547-0.88547 0.30163-1.9807 0.44096-3.182 0.40478z"/>
			<path transform="matrix(.26458 0 0 .26458 0 246.2)" d="m56.944 49.169c-0.98908-0.01892-1.8761-0.16555-2.6226-0.43353-0.63088-0.22648-1.1658-0.53538-1.6311-0.94198-0.09402-0.08215-0.29801-0.2858-0.38449-0.38384-0.36347-0.41207-0.64987-0.8823-0.86974-1.428-0.27682-0.68708-0.44003-1.4701-0.49682-2.3834-0.02675-0.43016-0.02671-0.97246 1.01e-4 -1.4197 0.13086-2.1832 0.88732-3.7364 2.2675-4.6555 0.79937-0.53235 1.803-0.85165 3.0163-0.95963 0.31945-0.02843 0.58914-0.03924 0.97848-0.03922 0.63382 2.7e-5 1.1393 0.03789 1.6668 0.12487 1.5184 0.25034 2.661 0.86252 3.4468 1.8467 0.69018 0.86442 1.0973 2.0241 1.2162 3.4645 0.05101 0.61767 0.04898 1.3215-0.0055 1.9197-0.12508 1.3725-0.52216 2.4831-1.1856 3.316-0.14545 0.1826-0.3271 0.3773-0.49075 0.52599-0.43191 0.39245-0.94189 0.70464-1.5302 0.93676-0.92953 0.36673-2.0471 0.53569-3.3753 0.51028z"/>
			<path transform="matrix(.26458 0 0 .26458 0 246.2)" d="m95.244 30.416c-0.44065-0.01745-0.7524-0.04459-1.1076-0.09643-1.1837-0.17273-2.136-0.56016-2.8892-1.1755-0.21468-0.17538-0.45373-0.41619-0.63391-0.63858-0.70932-0.87552-1.1209-2.0592-1.2275-3.5303-0.02005-0.27666-0.02325-0.36488-0.02628-0.72446-3e-3 -0.35978 0.0014-0.56496 0.01807-0.83307 0.07958-1.2815 0.36671-2.3256 0.87427-3.1792 0.10251-0.17241 0.25657-0.39325 0.38345-0.54966 0.13983-0.17237 0.34782-0.38998 0.50691-0.53035 0.5052-0.44575 1.1017-0.7786 1.8102-1.0101 0.82856-0.27075 1.8186-0.39725 2.9238-0.3736 0.44758 0.0096 0.80109 0.03625 1.177 0.08879 1.0145 0.14182 1.8533 0.43672 2.5538 0.89787 0.26902 0.1771 0.47504 0.34564 0.7113 0.58189 0.14777 0.14777 0.22887 0.23801 0.344 0.38276 0.68336 0.85913 1.0897 2.0158 1.2106 3.4458 0.0615 0.72764 0.0503 1.5489-0.0305 2.229-0.19578 1.6485-0.79306 2.8844-1.8006 3.726-0.57717 0.48207-1.3045 0.83452-2.16 1.0467-0.55144 0.13679-1.1281 0.21338-1.812 0.24064-0.1182 0.0047-0.7191 6e-3 -0.82588 0.0018z"/>
			<path transform="matrix(.26458 0 0 .26458 0 246.2)" d="m133.81 49.169c-0.95698-0.01823-1.822-0.1527-2.5533-0.39692-0.70141-0.23422-1.2873-0.56248-1.7915-1.0037-0.0959-0.08391-0.30497-0.293-0.38889-0.38888-0.46809-0.53491-0.8108-1.1661-1.0388-1.9132-0.19474-0.63816-0.30162-1.3206-0.33457-2.1361-7e-3 -0.17697-7e-3 -0.69945 1.3e-4 -0.88152 0.0111-0.28066 0.0282-0.51546 0.0555-0.76195 0.1285-1.1598 0.45138-2.122 0.97049-2.892 0.58691-0.87055 1.4247-1.4911 2.5139-1.8621 0.69294-0.23601 1.4648-0.36676 2.3787-0.40296 0.18532-0.0073 0.70101-0.0073 0.88474 6.2e-5 0.55953 0.02243 1.0355 0.07752 1.505 0.1742 2.305 0.47458 3.6973 1.8939 4.1591 4.2397 0.16104 0.81815 0.21358 1.8065 0.14681 2.7621-0.0717 1.0264-0.29871 1.9337-0.66891 2.6737-0.18737 0.37455-0.39705 0.69023-0.66415 0.99989-0.0888 0.10291-0.32841 0.34259-0.43166 0.43172-0.31968 0.27596-0.6598 0.49929-1.0468 0.68738-0.98442 0.47838-2.2 0.69889-3.6957 0.67039z"/>
			<path transform="matrix(.26458 0 0 .26458 0 246.2)" d="m166.33 70.354c-1.7116-0.05173-3.0739-0.47652-4.0465-1.2617-0.18419-0.1487-0.43287-0.38767-0.57497-0.55252-0.71207-0.82606-1.1356-1.8761-1.3058-3.2372-0.0954-0.7632-0.10068-1.7166-0.0137-2.4942 0.19141-1.7119 0.81662-2.9882 1.8812-3.8403 0.76756-0.6144 1.7756-1.0074 3.0005-1.1699 0.82371-0.10928 1.8079-0.1185 2.6394-0.02475 1.6977 0.19142 2.9786 0.81649 3.8198 1.8641 0.20476 0.25499 0.39404 0.55084 0.54483 0.85156 0.39405 0.78589 0.61909 1.7193 0.68438 2.8387 0.0228 0.39106 0.0228 0.93445 6e-5 1.3286-0.0785 1.3588-0.38507 2.4505-0.93464 3.3284-0.49587 0.79207-1.2028 1.3948-2.1008 1.7913-0.96104 0.42429-2.1824 0.62078-3.5935 0.57814z"/>
			<path transform="matrix(.26458 0 0 .26458 0 246.2)" d="m45.019 105.48c-1.0456-3.8127-2.4366-8.2005-4.0674-12.83l-0.15824-0.44922-0.08373-0.14453c-1.7706-3.0565-2.7234-5.1585-2.8948-6.3867-0.0172-0.12321-0.02338-0.40512-0.01199-0.54691 0.05443-0.67772 0.32332-1.0219 0.83386-1.0674 0.11152-0.0099 0.16474-0.0014 0.27524 0.04399 0.2714 0.11156 0.75489 0.4753 1.3726 1.0327 0.4405 0.39746 0.78434 0.72804 1.4648 1.4083 1.049 1.0487 2.0538 2.1049 3.5271 3.7075 1.5192 1.6525 3.8293 4.2308 4.2455 4.7383 2.2233 2.7109 3.9908 4.7535 5.4924 6.3474 0.85656 0.90922 1.7 1.7358 2.2839 2.2384 0.04227 0.0364 0.07391 0.067 0.07031 0.0681-0.0036 1e-3 -0.2456 0.0408-0.53779 0.0884-2.9201 0.47564-5.9631 0.99482-8.2227 1.4029-1.1686 0.21108-2.7129 0.50242-3.3704 0.63586-0.06405 0.013-0.1203 0.0236-0.125 0.0236-0.0047 0-0.04686-0.13978-0.09369-0.31054z"/>
			<path transform="matrix(.26458 0 0 .26458 0 246.2)" d="m67.5 102.64c0.18174-0.38892 0.32646-0.95312 0.40551-1.5809 0.07309-0.58045 0.07903-0.72097 0.07731-1.8281-0.0016-1.0346-0.01363-1.4566-0.06207-2.1797-0.17761-2.6513-0.73139-6.3153-1.6648-11.015-0.25294-1.2736-0.49783-2.4559-0.62309-3.0084-1.1114-4.9018-1.8546-8.7018-2.1162-10.82-0.0835-0.67625-0.10111-0.89793-0.11794-1.4844-0.025-0.87144-0.04758-1.4523-0.07136-1.8359-0.06156-0.9929 0.0056-1.7302 0.17563-1.9288 0.04246-0.04961 0.06496-0.06326 0.10378-0.063 0.08859 6.13e-4 0.18389 0.05872 0.31434 0.19165 0.53595 0.54618 1.3285 2.2682 2.5402 5.5189 0.53567 1.4372 0.88168 2.4351 1.8825 5.4297 1.4039 4.2005 2.2344 6.564 3.2501 9.25 1.3084 3.46 2.357 5.9124 3.589 8.3941 1.3529 2.7251 2.7719 4.746 4.2069 5.9913l0.09284 0.0806-0.06941 9e-3c-0.03817 5e-3 -0.22058 0.0162-0.40534 0.0253-2.5293 0.12514-5.9568 0.38073-8.2812 0.61753-1.1302 0.11514-2.8644 0.31645-3.2378 0.37585l-0.05813 9e-3z"/>
			<path transform="matrix(.26458 0 0 .26458 0 246.2)" d="m88.452 101.28c1.084-1.1332 1.9097-2.8804 2.5263-5.3452 0.38909-1.5555 0.64629-3.1401 0.87696-5.4027 0.17792-1.7452 0.44556-4.1287 0.75044-6.6832 0.3686-3.0883 0.56832-5.1011 0.80589-8.1219 0.18362-2.3348 0.38515-5.3909 0.48671-7.3804 0.21386-4.1897 0.53893-8.3104 0.79749-10.109 0.2392-1.6643 0.5058-2.8077 0.79378-3.4045 0.09925-0.20566 0.25813-0.40738 0.364-0.46212 0.05317-0.02749 0.06739-0.02625 0.12904 0.01124 0.36526 0.22213 0.75915 1.548 1.1295 3.8021 0.54006 3.2869 0.91315 7.4091 1.0848 11.986 0.17375 4.6332 0.43021 8.7682 0.74144 11.955 0.12121 1.2409 1.1405 9.4795 1.304 10.54 0.59639 3.8682 1.6452 6.7334 3.14 8.5779l0.18457 0.22774-0.40363-2.2e-4c-1.1289-2.2e-4 -2.6917-0.14517-3.906-0.36219-0.66864-0.1195-1.5235-0.21348-2.3533-0.2587-0.51903-0.0283-1.9582-0.0141-2.4417 0.0241-0.745 0.0588-1.5906 0.16443-2.2097 0.276-0.94886 0.17099-2.2086 0.28971-3.3256 0.31343l-0.66291 0.0141z"/>
			<path transform="matrix(.26458 0 0 .26458 0 246.2)" d="m123.63 102.63c-3.7282-0.32143-8.2781-0.64047-10.57-0.7412-0.22343-0.01-0.45318-0.0225-0.51053-0.0282l-0.10429-0.0104 0.228-0.24219c1.4581-1.5488 2.7408-3.4743 4.0248-6.0416 1.296-2.5912 2.8468-6.3298 4.4193-10.654 0.72901-2.0045 1.3601-3.8315 2.2938-6.6406 0.30279-0.91094 0.65814-1.9691 0.78968-2.3516 1.2671-3.684 2.3065-6.1841 3.0865-7.4242 0.18201-0.28936 0.33955-0.49568 0.50629-0.66303 0.18224-0.18291 0.337-0.274 0.46892-0.276 0.0845-0.0013 0.0947 0.0092 0.10811 0.11135 0.0423 0.32224 0.0823 2.6785 0.0555 3.2673-0.052 1.1422-0.35852 3.1532-0.9611 6.305-0.35033 1.8324-0.99567 4.9628-1.4205 6.8906-1.3207 5.9929-2.0438 10.536-2.1811 13.702-0.0208 0.47951-0.011 1.7706 0.0159 2.1026 0.0893 1.1007 0.27345 1.9796 0.54638 2.6082 0.0352 0.081 0.0639 0.14953 0.0639 0.15234 0 7e-3 -5.9e-4 7e-3 -0.85937-0.0666z"/>
			<path transform="matrix(.26458 0 0 .26458 0 246.2)" d="m146.38 105.68c-3.0274-0.55568-6.5473-1.121-9.918-1.593-0.67683-0.0948-1.8809-0.25826-1.902-0.25826-6e-3 0 0.10237-0.11514 0.23975-0.25586 0.39531-0.40494 0.67144-0.69528 1.0571-1.1115 0.72112-0.77829 1.704-1.8793 2.1515-2.41 0.62756-0.74433 0.84735-1.0044 1.3634-1.6133 1.0583-1.2486 2.7648-3.2481 3.5703-4.1836 5.1924-6.0297 8.4728-9.3908 9.8286-10.07 0.19254-0.0965 0.30516-0.12873 0.45015-0.12881 0.40429-2.34e-4 0.68281 0.20755 0.81549 0.60837 0.0642 0.19403 0.0887 0.37095 0.0891 0.64548 3.8e-4 0.22433-6e-3 0.27649-0.0624 0.51172-0.24452 1.019-1.1871 3.0559-2.7765 6l-0.15396 0.28518-0.26633 0.80075c-0.8522 2.5622-1.9075 5.7905-2.0916 6.3984-0.57162 1.8875-1.095 3.7885-1.6013 5.8164-0.16113 0.64538-0.16633 0.6641-0.18456 0.66534-0.0103 7.1e-4 -0.28419-0.0474-0.6086-0.10699z"/>
			<path transform="matrix(.26458 0 0 .26458 0 246.2)" d="m140.14 129.45c-7.4419-2.7546-16.97-4.6752-27.61-5.5655-5.4328-0.45458-10.506-0.6526-16.716-0.65246-6.4948 1.5e-4 -11.944 0.23001-17.567 0.74102-10.06 0.91426-18.966 2.7648-26.108 5.4248l-0.30936 0.11523-0.30936-0.0258c-0.46427-0.0387-0.89869-0.14562-1.2063-0.29702l-0.1416-0.0697-0.04929-0.32041c-0.37616-2.445-0.91072-5.1275-1.4532-7.292-0.0533-0.21268-0.18751-0.78444-0.29824-1.2706-0.40431-1.775-0.94568-4.069-1.5034-6.3705-0.13634-0.56264-0.2442-1.0264-0.23967-1.0306 0.03863-0.0356 3.9264-0.94957 5.9855-1.4071 6.5605-1.4578 14.679-2.9423 20.462-3.7413 9.5255-1.3162 19.991-1.7829 30.262-1.3494 5.8965 0.24882 11.947 0.83428 17.473 1.6906 7.2528 1.124 12.829 2.2022 18.623 3.6008 2.3579 0.56918 6.0546 1.5459 6.0546 1.5998 0 0.0905-1.2992 5.3282-1.7711 7.1404-0.44884 1.7235-0.6664 2.5971-0.82272 3.3035-0.33099 1.4957-0.62187 3.1069-0.84237 4.6659-0.0556 0.39312-0.10551 0.73567-0.11089 0.76122-0.0111 0.0529-0.25107 0.17139-0.56301 0.27813-0.18192 0.0623-0.78035 0.2181-0.82748 0.21551-0.0128-7.1e-4 -0.19727-0.0657-0.40996-0.14442z"/>
			<path transform="matrix(.26458 0 0 .26458 0 246.2)" d="m56.651 143.19c-1.6918-0.57527-3.1174-1.0599-3.1679-1.077-0.07569-0.0256-0.65256-0.22171-1.6035-0.54521-0.08594-0.0292-0.46267-0.15735-0.83718-0.2847s-0.68042-0.23322-0.67979-0.23526c6.26e-4 -2e-3 0.52326-0.41487 1.1614-0.9174s1.3079-1.03 1.4884-1.1721c0.32268-0.25416 2.9746-2.3425 3.5859-2.8239 0.17188-0.13534 0.52312-0.41194 0.78055-0.61468 0.25743-0.20273 0.47014-0.3694 0.47268-0.37038 0.0047-2e-3 9.4574 3.1784 9.4625 3.1834 6.54e-4 6.5e-4 -1.7062 1.3291-3.7929 2.9522l-3.7941 2.951z"/>
			<path transform="matrix(.26458 0 0 .26458 0 246.2)" d="m74.868 142.07c-0.3328-0.0137-0.63702-0.0435-0.91992-0.09-1.1115-0.18296-1.9753-0.63004-2.5882-1.3396-0.65796-0.76173-1.0303-1.8335-1.1128-3.2031-0.02076-0.34471-0.02309-0.7818-0.0059-1.1152 0.07154-1.3913 0.42173-2.4608 1.0603-3.2383 0.19755-0.24052 0.4343-0.46242 0.68768-0.64455 0.62077-0.44619 1.4124-0.72048 2.3613-0.81815 0.41325-0.0425 0.87765-0.0529 1.3229-0.0294 1.0637 0.056 1.9442 0.30494 2.6381 0.74576 0.82023 0.5211 1.3826 1.3145 1.6836 2.3753 0.10837 0.3819 0.18234 0.79582 0.22444 1.2559 0.04529 0.49481 0.04891 1.0877 0.0098 1.5996-0.10351 1.3543-0.50199 2.4059-1.1925 3.1471-0.66707 0.71605-1.6019 1.148-2.8132 1.3-0.17539 0.022-0.36028 0.0377-0.60352 0.0513-0.0947 5e-3 -0.64608 8e-3 -0.75195 4e-3z"/>
			<path transform="matrix(.26458 0 0 .26458 0 246.2)" d="m90.153 137.77c-3.3216-1.7508-6.0393-3.1846-6.0394-3.1862-1.8e-4 -3e-3 11.612-6.2787 11.616-6.2774 0.01111 4e-3 12.083 6.2755 12.083 6.2776-2e-4 3e-3 -11.604 6.3662-11.613 6.368-0.0036 7.3e-4 -2.7243-1.4312-6.0459-3.182z"/>
			<path transform="matrix(.26458 0 0 .26458 0 246.2)" d="m116.21 142.07c-0.74481-0.031-1.3737-0.14675-1.9289-0.35508-0.79142-0.29695-1.4134-0.78156-1.8553-1.4456-0.21366-0.32102-0.37636-0.65936-0.51094-1.0625-0.16421-0.49188-0.26435-1.0188-0.31217-1.6426-0.0301-0.39311-0.0339-0.90135-0.01-1.3242 0.0446-0.77977 0.185-1.471 0.41775-2.0566 0.60294-1.517 1.8319-2.3706 3.6895-2.5623 0.57462-0.0593 1.2397-0.055 1.8125 0.0118 1.289 0.15029 2.273 0.6163 2.9541 1.3991 0.34525 0.39678 0.61563 0.88388 0.80319 1.447 0.1694 0.50858 0.27424 1.084 0.3148 1.7279 0.0138 0.21977 0.0157 0.2951 0.0157 0.62109 0 0.32601-2e-3 0.40138-0.0157 0.6211-0.0778 1.2352-0.39549 2.2276-0.9487 2.9638-0.72057 0.95889-1.8278 1.4994-3.3422 1.6316-0.0748 7e-3 -0.20543 0.0154-0.32422 0.0221-0.0949 5e-3 -0.65408 8e-3 -0.75976 3e-3z"/>
			<path transform="matrix(.26458 0 0 .26458 0 246.2)" d="m128.78 141.47c-1.9692-1.8615-3.4166-3.2325-3.4141-3.234 2e-3 -1e-3 0.39635-0.16022 0.87545-0.35289 0.47911-0.19268 0.95108-0.38252 1.0488-0.42188 2.9045-1.1693 6.6896-2.6894 6.6929-2.688 8e-3 4e-3 6.7397 6.4574 6.7395 6.4614-1.1e-4 2e-3 -0.10227 0.0454-0.22704 0.0961-0.25387 0.1032-0.8119 0.33007-1.3616 0.55357-0.20088 0.0817-1.84 0.74827-3.6426 1.4813-1.8025 0.73306-3.2809 1.3335-3.2852 1.3343-6e-3 1e-3 -0.82379-0.76987-3.4262-3.23z"/>
			<path transform="matrix(.26458 0 0 .26458 0 246.2)" d="m94.719 170.48c-9.6216-0.0547-18.263-0.8522-25.461-2.3497-5.9872-1.2456-10.174-2.7107-12.826-4.4885-0.57164-0.38322-1.0249-0.74717-1.4536-1.1672-0.31785-0.31138-0.50944-0.52718-0.73135-0.82376-0.52227-0.698-0.8264-1.4112-0.94471-2.2155-0.04194-0.2851-0.03811-0.88146 0.0075-1.1628 0.07196-0.4441 0.19466-0.82084 0.39995-1.2279 1.2845-2.5474 5.3844-4.556 12.321-6.0367 6.8831-1.4692 15.027-2.3271 24.344-2.5647 1.6816-0.0429 2.2453-0.0498 4.7126-0.0579 3.0131-0.01 4.6216 7e-3 6.9436 0.0735 7.4054 0.21154 14.046 0.81314 20.023 1.814 3.1339 0.52476 5.9146 1.1236 8.0547 1.7346 3.5885 1.0246 6.1256 2.2471 7.5835 3.6544 0.87532 0.84489 1.3467 1.6985 1.4969 2.7109 0.0274 0.18455 0.0274 0.81011 0 1.0078-0.21442 1.5469-1.2036 2.8814-3.0647 4.1346-2.1462 1.4451-5.3909 2.7009-9.8059 3.7953-6.2596 1.5516-13.17 2.5124-21.124 2.9369-3.1658 0.16896-6.9384 0.25272-10.477 0.23259z"/>
		</g>
	</g>
</svg>
