<?xml version="1.0" encoding="UTF-8"?>
<svg width="144pt" height="144pt" version="1.1" viewBox="0 0 50.8 50.8" xmlns="http://www.w3.org/2000/svg">
	<g transform="translate(0,-246.2)">
		<g transform="matrix(1 0 0 1 .00041935 .06083)" aria-label="r">
			<path d="m25.412 249.59h3.423v3.3734h5.1346v-3.3734h5.9035v8.8553l-3.9936 4.6137q1.2898 1.6371 0.04961 3.4478-0.19844 0.32246-0.19844 0.59532 0 0.32246 0.19844 0.62011 0.5209 0.76895 0.49609 2.1828 0 1.3891-0.5209 2.1828-0.17363 0.24804-0.17363 0.5209 0 0.34726 0.22324 0.64492 1.1658 1.7611-0.04961 3.4726-0.17363 0.29766-0.17363 0.57051t0.17363 0.57051q0.5457 0.81855 0.5457 2.282 0 1.4387-0.59531 2.1332l4.0184 2.0092v2.1332h1.6619v7.1934h-32.271v-7.1686h1.6867v-2.1332l3.9936-2.034q-0.59531-0.69453-0.59531-2.1332t0.5457-2.2572q0.19844-0.27285 0.19844-0.5705 0-0.24805-0.19844-0.57051-1.2154-1.7363-0.02481-3.4727 0.22324-0.39687 0.22324-0.64492t-0.17363-0.5457q-0.5457-0.79375-0.57051-2.1828 0-1.4139 0.5209-2.1828 0.22324-0.29765 0.22324-0.62011 0-0.27286-0.19844-0.57051-1.265-1.8107 0.04961-3.4727l-3.9936-4.5889v-8.8553h5.9035v3.3486l5.1098 0.0248v-3.3734zm-9.1529 12.254q4.2416-0.66972 9.1529-0.66972 4.9857 0 9.2273 0.66972l1.4387-1.8107q-5.0602-0.89297-10.666-0.89297-5.6555 0-10.691 0.89297zm-5.2338 26.293v3.7951h28.749v-3.7951zm14.387-5.0602q-5.1594 0-9.3514 0.34727l-3.3486 1.7859v1.2402h25.4v-1.2402q-0.84336-0.44649-1.6867-0.89297-0.84336-0.44649-1.6619-0.89297-4.4648-0.34727-9.3514-0.34727zm12.7-31.8h-2.5549v3.4726h-8.4832v-3.4478h-3.3486v3.4478h-8.4584v-3.4726h-2.5549q0 1.5875 0 3.175 0 1.5627 0 3.1254 3.175-0.19844 6.3252-0.37207 3.175-0.17364 6.3748-0.17364 6.0275 0 12.7 0.54571zm-8.2104 11.881q-0.81856 0.59531-0.81856 1.6867t0.81856 1.6867q0.76894 0.59531 2.282 0.59531t2.3068-0.59531 0.79375-1.6867-0.79375-1.6867q-0.79375-0.57051-2.3068-0.57051t-2.282 0.57051zm-6.6725 0q-0.76894 0.59531-0.76894 1.6867t0.76894 1.6867q0.74414 0.59531 2.158 0.59531 1.4387 0 2.2076-0.59531 0.74414-0.59531 0.74414-1.6867t-0.74414-1.6867q-0.76894-0.57051-2.2076-0.57051-1.4139 0-2.158 0.57051zm-6.8957 0q-0.81856 0.59531-0.81856 1.6867t0.81856 1.6867q0.76894 0.59531 2.2572 0.59531 1.5131 0 2.3316-0.59531 0.79375-0.59531 0.79375-1.6867t-0.79375-1.6867q-0.81856-0.57051-2.3316-0.57051-1.4883 0-2.2572 0.57051zm16.669 5.0354q-0.29766 0.59531-0.29766 1.7115 0 1.0914 0.29766 1.6619 0.27285 0.59531 0.86816 0.59531 0.59531 0 0.89297-0.59531 0.29766-0.57051 0.29766-1.6619 0-1.1162-0.29766-1.7115-0.29766-0.5457-0.89297-0.5457-0.59531 0-0.86816 0.5457zm-6.35 0q-0.74414 0.59531-0.74414 1.7115 0 1.0914 0.74414 1.6619 0.74414 0.59531 2.1332 0.59531 1.4139 0 2.158-0.59531 0.74414-0.57051 0.74414-1.6619 0-1.1162-0.74414-1.7115-0.74414-0.57051-2.158-0.57051-1.3891 0-2.1332 0.57051zm-6.7717 0q-0.74414 0.59531-0.74414 1.7115 0 1.0914 0.74414 1.6619 0.71934 0.59531 2.1332 0.59531t2.158-0.59531q0.71934-0.57051 0.71934-1.6619 0-1.1162-0.71934-1.7115-0.74414-0.57051-2.158-0.57051t-2.1332 0.57051zm-3.8199 0q-0.29766 0.59531-0.29766 1.7115 0 1.0914 0.29766 1.6619 0.29766 0.59531 0.86816 0.59531 0.59531 0 0.89297-0.59531 0.29766-0.57051 0.29766-1.6619 0-1.1162-0.29766-1.7115-0.29766-0.5457-0.89297-0.5457-0.57051 0-0.86816 0.5457zm16.942 10.195q-0.29766 0.57051-0.29766 1.6867t0.29766 1.6867q0.27285 0.5705 0.86816 0.5705 0.59531 0 0.89297-0.5705 0.29766-0.57051 0.29766-1.6867t-0.29766-1.6867q-0.29766-0.5457-0.89297-0.5457-0.59531 0-0.86816 0.5457zm-16.942 0q-0.29766 0.57051-0.29766 1.6867t0.29766 1.6867q0.29766 0.5705 0.86816 0.5705 0.59531 0 0.89297-0.5705 0.29766-0.57051 0.29766-1.6867t-0.29766-1.6867q-0.29766-0.5457-0.89297-0.5457-0.57051 0-0.86816 0.5457zm3.8199 0q-0.74414 0.59531-0.74414 1.7859 0 1.1906 0.74414 1.5875 0.69453 0.39687 2.1828 0.39687 1.5131 0 2.1084-0.39687 0.57051-0.39688 0.64492-1.5875 0.07441-1.1906-0.64492-1.7859-0.74414-0.57051-2.158-0.57051t-2.1332 0.57051zm6.7717 0q-0.74414 0.59531-0.74414 1.7859 0 1.1906 0.74414 1.5875 0.71934 0.39687 2.1332 0.39687 1.4387 0 2.158-0.39687 0.69453-0.39688 0.71934-1.5875 0.0248-1.1906-0.71934-1.7859-0.74414-0.57051-2.158-0.57051-1.3891 0-2.1332 0.57051zm3.2494-5.0602q-0.81856 0.59531-0.81856 1.7115 0 1.0914 0.81856 1.6619 0.76894 0.59531 2.282 0.59531t2.3068-0.59531q0.79375-0.57051 0.79375-1.6619 0-1.1162-0.79375-1.7115-0.79375-0.57051-2.3068-0.57051t-2.282 0.57051zm-6.6725 0q-0.76894 0.59531-0.76894 1.7115 0 1.0914 0.76894 1.6619 0.74414 0.59531 2.158 0.59531 1.4387 0 2.2076-0.59531 0.74414-0.57051 0.74414-1.6619 0-1.1162-0.74414-1.7115-0.76894-0.57051-2.2076-0.57051-1.4139 0-2.158 0.57051zm-6.8957 0q-0.81856 0.59531-0.81856 1.7115 0 1.0914 0.81856 1.6619 0.76894 0.59531 2.2572 0.59531 1.5131 0 2.3316-0.59531 0.79375-0.57051 0.79375-1.6619 0-1.1162-0.79375-1.7115-0.81856-0.57051-2.3316-0.57051-1.4883 0-2.2572 0.57051z" stroke-width=".26458"/>
		</g>
		<g fill="#fff" stroke-width=".2">
			<path transform="matrix(.26458 0 0 .26458 0 246.2)" d="m48.053 31.31v-11.901h9.6343v13.126h31.997v-13.037h12.64v13.037h32.085v-13.126h9.6343v23.8l-0.10497-0.01252c-0.24427-0.02915-4.2015-0.33401-6.3032-0.4856-12.56-0.90586-24.158-1.4006-36.073-1.5385-2.4916-0.02885-10.675-0.01455-12.563 0.02195-5.4276 0.10498-8.9403 0.2155-13.435 0.42269-1.732 0.07984-2.7298 0.13247-6.0546 0.31933-0.54083 0.0304-1.6098 0.0902-2.3754 0.13289-0.76566 0.04269-1.5562 0.08755-1.7567 0.09968s-0.80212 0.04705-1.3369 0.0776c-0.53475 0.03055-1.2209 0.07029-1.5247 0.08832-0.30384 0.01802-0.98995 0.05763-1.5247 0.08803-0.53475 0.03039-1.2159 0.07023-1.5136 0.08853-0.29776 0.0183-1.2126 0.07317-2.0329 0.12194-2.0783 0.12355-3.0522 0.18237-5.1265 0.30964-0.9905 0.06077-2.2832 0.13986-2.8726 0.17574-0.58944 0.03588-1.1438 0.07139-1.2319 0.07889l-0.1602 0.01365z"/>
			<path transform="matrix(.26458 0 0 .26458 0 246.2)" d="m58.558 55.916c-1.5934-1.8756-2.8957-3.4118-2.8942-3.4137 0.0085-0.01069 1.9329-0.3381 3.0478-0.51856 14.019-2.2692 29.336-3.2027 45.008-2.743 10.19 0.2989 20.076 1.2161 29.562 2.7429 1.1306 0.18196 3.044 0.50633 3.0557 0.51801 5e-3 0.0052-5.3508 6.7507-5.3981 6.7985-0.0275 0.02782-0.05 0.02535-0.74535-0.08151-8.8798-1.3648-18.422-2.1532-28.576-2.3612-5.622-0.11512-11.265-0.05422-16.664 0.17986-7.9591 0.34505-15.65 1.0827-22.805 2.1874-0.36122 0.05577-0.66506 0.1014-0.67519 0.1014-0.01014 0-1.3221-1.5346-2.9154-3.4102z"/>
			<path transform="matrix(.26458 0 0 .26458 0 246.2)" d="m69.87 79.299c-0.71369-0.0089-1.3365-0.04299-1.9883-0.10872-2.4253-0.24456-4.3698-0.8821-5.8438-1.916-0.22811-0.16-0.59018-0.43747-0.78125-0.59871-1.4417-1.2166-2.2926-2.8127-2.5348-4.7544-0.05441-0.43624-0.0705-0.7189-0.0705-1.2383 0-0.44085 0.0049-0.56512 0.03576-0.91406 0.18066-2.0399 1.0078-3.7142 2.4641-4.988 0.90228-0.78919 1.9438-1.3754 3.1953-1.7983 1.3613-0.46007 2.9078-0.7207 4.7656-0.80316 0.68734-0.03051 1.6971-0.02887 2.4219 0.0039 3.1044 0.14048 5.5508 0.80801 7.3711 2.0113 0.45335 0.29969 0.97833 0.76976 1.3811 1.2367 1.0298 1.1937 1.6092 2.641 1.7552 4.3845 0.02503 0.29893 0.03108 0.46773 0.03108 0.86719 0 0.56326-0.02139 0.89518-0.08975 1.3927-0.18143 1.3203-0.65168 2.4979-1.389 3.4784-0.43672 0.58074-1.0258 1.1542-1.6105 1.5675-1.698 1.2006-3.9633 1.9029-6.8242 2.1157-0.68939 0.05127-1.4632 0.07216-2.2891 0.06182z"/>
			<path transform="matrix(.26458 0 0 .26458 0 246.2)" d="m95.577 79.3c-0.2084-0.0026-0.42461-7e-3 -0.48047-0.0098-0.05586-0.0028-0.17891-0.0086-0.27344-0.01299-1.4279-0.06558-2.7568-0.27998-3.8984-0.62894-0.58714-0.17948-1.0797-0.37376-1.5938-0.62866-0.6137-0.30429-1.0624-0.59091-1.6133-1.0305-0.97458-0.77769-1.6963-1.7143-2.1618-2.8054-0.44218-1.0365-0.65859-2.1868-0.65844-3.5 1.35e-4 -1.2045 0.18224-2.2717 0.5535-3.2438 0.16132-0.42239 0.39599-0.88911 0.63914-1.2711 0.48478-0.76164 1.1502-1.4592 1.9147-2.007 1.6477-1.1807 3.8978-1.8376 6.7754-1.9779 0.5318-0.02593 1.4713-0.03361 1.9727-0.01613 1.0448 0.03642 1.876 0.11508 2.7344 0.25876 1.9047 0.31882 3.5091 0.93903 4.7344 1.8302 0.35392 0.25741 0.85 0.73759 1.1877 1.1496 0.83826 1.0229 1.37 2.2649 1.5855 3.7031 0.0794 0.53023 0.10931 0.96062 0.10931 1.5742 0 0.42434-6e-3 0.58994-0.0354 0.9375-0.18743 2.2376-1.072 4.0189-2.6479 5.3319-0.41901 0.34912-0.96776 0.70063-1.5547 0.99587-1.0187 0.51243-2.1766 0.87341-3.5195 1.0972-1.1466 0.19111-2.3435 0.27171-3.7695 0.25385z"/>
			<path transform="matrix(.26458 0 0 .26458 0 246.2)" d="m121.24 79.299c-0.73596-0.0091-1.3938-0.04515-2.0586-0.11279-2.4528-0.24954-4.4029-0.8873-5.8711-1.9201-0.10808-0.07603-0.46464-0.34329-0.57813-0.43335-0.48292-0.3832-0.9217-0.82491-1.278-1.2865-1.0426-1.3508-1.5489-3.0185-1.5203-5.0078 5e-3 -0.33923 0.0116-0.47802 0.0369-0.76172 0.20404-2.2872 1.2002-4.0924 2.9911-5.4204 0.41245-0.30584 0.77372-0.53165 1.2156-0.7598 1.6035-0.82794 3.6729-1.2985 6.2148-1.4133 0.75819-0.03424 1.7815-0.03425 2.5156-2.7e-5 2.8792 0.13422 5.1315 0.70527 6.8618 1.7397 0.54953 0.32853 0.98203 0.66609 1.4392 1.1232 0.27655 0.27655 0.44697 0.47214 0.67066 0.76969 0.83571 1.1117 1.3176 2.4449 1.4459 4 0.0257 0.31213 0.031 0.45968 0.031 0.86719 0 0.56666-0.0252 0.95055-0.0936 1.4258-0.27771 1.9286-1.1294 3.4808-2.5694 4.6831-1.4624 1.221-3.4665 1.9983-6.0023 2.3281-1.0651 0.13853-2.1549 0.19506-3.4512 0.17901z"/>
			<path transform="matrix(.26458 0 0 .26458 0 246.2)" d="m63.71 98.326c-1.0115-0.076223-1.8244-0.53098-2.476-1.3852-0.3621-0.47471-0.71558-1.1672-0.95753-1.8758-0.46281-1.3555-0.69106-3.0925-0.69132-5.2609-2.99e-4 -2.4752 0.2884-4.4299 0.87052-5.8939 0.16208-0.40763 0.28777-0.65476 0.48508-0.95378 0.52166-0.79056 1.1739-1.2956 1.9775-1.5313 0.3706-0.10867 0.78826-0.15574 1.2409-0.13987 0.88993 0.0312 1.6322 0.3108 2.2539 0.84905 0.10886 0.09424 0.32398 0.31278 0.41318 0.41974 0.21554 0.25847 0.4427 0.60328 0.5687 0.86328 0.43808 0.90393 0.74791 2.0579 0.91983 3.4258 0.11511 0.9159 0.16405 1.798 0.16405 2.957 2e-6 0.65255-0.0058 0.91257-0.03089 1.3906-0.09935 1.8912-0.40496 3.3956-0.92609 4.5586-0.06779 0.15128-0.23525 0.48049-0.31709 0.62334-0.22238 0.38819-0.43841 0.67548-0.72129 0.95924-0.28067 0.28154-0.53336 0.46622-0.8712 0.63673-0.4031 0.20345-0.82513 0.31787-1.3082 0.3547-0.09528 0.0073-0.50839 0.0091-0.59414 0.0026z"/>
			<path transform="matrix(.26458 0 0 .26458 0 246.2)" d="m82.428 98.323c-0.80171-0.02852-1.4643-0.08531-2.1445-0.18379-1.9753-0.28599-3.5967-0.89453-4.8304-1.813-0.40453-0.30116-0.75675-0.60035-1.0329-0.87739-1.2325-1.2364-1.9123-2.8339-2.0583-4.8362-0.03874-0.53139-0.03579-1.177 0.0079-1.7344 0.12903-1.6453 0.63157-3.0693 1.4851-4.2082 0.70214-0.93687 1.5874-1.6623 2.7052-2.2168 1.4535-0.72102 3.2872-1.1361 5.4734-1.2388 0.72986-0.03431 1.6515-0.03428 2.3516 7.8e-5 2.579 0.12659 4.6387 0.6639 6.2383 1.6274 0.28182 0.16975 0.61187 0.39862 0.79479 0.55114 0.22636 0.18875 0.54904 0.50221 0.74116 0.72001 0.8738 0.99055 1.434 2.1506 1.7175 3.5567 0.17826 0.88418 0.24002 1.9382 0.172 2.9351-0.1252 1.835-0.70214 3.3618-1.7182 4.5469-0.51154 0.59668-1.16 1.1346-1.8908 1.5684-0.29688 0.17624-0.67899 0.37334-0.98828 0.50979-1.5016 0.66244-3.3031 1.0207-5.4987 1.0936-0.26784 0.0089-1.2697 0.0085-1.5247-5.39e-4z"/>
			<path transform="matrix(.26458 0 0 .26458 0 246.2)" d="m108.14 98.327c-0.56511-0.01861-1.0073-0.04669-1.4648-0.09305-2.0197-0.20461-3.7072-0.71647-5.0586-1.5344-0.57256-0.34654-1.1639-0.80692-1.6055-1.2499-1.2317-1.2356-1.9135-2.8377-2.0583-4.8362-0.03886-0.53654-0.03597-1.1756 0.0078-1.7344 0.15902-2.0278 0.87298-3.6877 2.1324-4.9576 0.28902-0.29143 0.55234-0.51818 0.8476-0.7299 0.71757-0.51453 1.565-0.93778 2.5079-1.2526 1.2123-0.40476 2.6226-0.64825 4.1914-0.72362 0.7166-0.03443 1.6349-0.03444 2.3359-3.7e-5 2.0627 0.10124 3.7788 0.46224 5.2188 1.0978 0.18732 0.08268 0.58586 0.28078 0.75391 0.37475 0.41968 0.23466 0.82531 0.5075 1.1211 0.75409 0.52383 0.4367 0.97022 0.92556 1.3418 1.4694 0.73748 1.0795 1.1764 2.3864 1.3063 3.8896 0.0799 0.92427 0.0486 1.8624-0.0901 2.7031-0.30057 1.8225-1.12 3.2959-2.4447 4.3953-0.58296 0.48386-1.1122 0.82978-1.7617 1.1515-0.52095 0.25804-1.0455 0.46391-1.6322 0.64058-1.2419 0.37397-2.6158 0.57879-4.2454 0.63289-0.2039 0.0068-1.2204 0.0087-1.4036 0.0027z"/>
			<path transform="matrix(.26458 0 0 .26458 0 246.2)" d="m127.74 98.327c-0.27634-0.0225-0.46912-0.05323-0.67969-0.10836-0.72401-0.18954-1.3256-0.60585-1.8004-1.2458-0.12417-0.16739-0.21846-0.31496-0.33443-0.52344-0.0829-0.14905-0.32886-0.65508-0.4025-0.82812-0.485-1.1398-0.77031-2.5861-0.86846-4.4023-0.0264-0.48871-0.0314-0.71454-0.0315-1.4141-6e-5 -0.69931 5e-3 -0.94381 0.0314-1.4414 0.10932-2.0797 0.45709-3.7159 1.0508-4.9437 0.36597-0.75688 0.82905-1.2939 1.4274-1.6553 0.57466-0.3471 1.2592-0.50602 2.0604-0.47833 0.88422 0.03055 1.6328 0.31169 2.25 0.84498 0.10591 0.09152 0.32953 0.31873 0.41707 0.42378 0.21686 0.26023 0.44273 0.60299 0.56887 0.86328 0.59555 1.229 0.94521 2.8793 1.0527 4.9688 0.0251 0.4884 0.031 0.75533 0.0311 1.4102 1.1e-4 0.6592-6e-3 0.91827-0.0312 1.4023-0.1004 1.9019-0.41222 3.4228-0.9386 4.5781-0.0796 0.17477-0.2143 0.43828-0.30545 0.59766-0.69012 1.2067-1.6531 1.854-2.8996 1.949-0.0944 0.0072-0.51972 0.0092-0.59804 0.0028z"/>
			<path transform="matrix(.26458 0 0 .26458 0 246.2)" d="m69.444 117.73c-2.9067-0.096-5.1735-0.65217-6.9112-1.6957-0.24312-0.146-0.49156-0.31411-0.76159-0.51536-0.05421-0.0404-0.14913-0.11033-0.21094-0.15542-0.15067-0.10989-0.36684-0.28352-0.51461-0.41332-1.3831-1.2149-2.1649-2.801-2.3552-4.7781-0.05042-0.52379-0.05647-1.1986-0.01564-1.7461 0.07324-0.98226 0.27737-1.8546 0.62528-2.6722 0.07666-0.18014 0.2516-0.53223 0.34989-0.70421 0.45032-0.78786 1.0455-1.4763 1.7912-2.0721 0.94172-0.75233 1.9919-1.2876 3.3036-1.684 1.258-0.38012 2.6867-0.60119 4.3672-0.67578 0.68551-0.0304 1.6987-0.0289 2.418 4e-3 3.117 0.14125 5.5694 0.81179 7.3867 2.0198 0.57784 0.38408 1.2055 0.98772 1.665 1.6012 0.78581 1.0493 1.2629 2.3073 1.4281 3.7656 0.04838 0.42713 0.0627 0.70477 0.06245 1.2109-2.58e-4 0.53255-0.01883 0.84342-0.0777 1.3008-0.18148 1.4099-0.68723 2.6395-1.499 3.6445-0.1956 0.24217-0.49812 0.56144-0.73723 0.77806-1.1327 1.0261-2.6569 1.792-4.4744 2.2481-1.27 0.31877-2.5931 0.48831-4.2148 0.54012-0.27973 9e-3 -1.3484 9e-3 -1.625-5.8e-4z"/>
			<path transform="matrix(.26458 0 0 .26458 0 246.2)" d="m95.178 117.73c-2.1865-0.0778-3.9266-0.4235-5.4414-1.0811-0.19002-0.0825-0.6092-0.28947-0.78516-0.38771-0.28898-0.16133-0.61248-0.3669-0.84766-0.53867-0.16604-0.12126-0.51803-0.39361-0.64076-0.49577-0.99482-0.82813-1.7039-1.8587-2.1181-3.0782-0.30166-0.88833-0.44824-1.8491-0.44812-2.9375 1.88e-4 -1.7924 0.39452-3.3178 1.1834-4.5781 0.5323-0.85034 1.266-1.5993 2.1368-2.1811 1.572-1.0503 3.6558-1.6531 6.2734-1.8146 0.48643-0.03 0.86537-0.0404 1.4727-0.0404 0.5444 3e-5 0.81932 6e-3 1.2656 0.0287 2.9582 0.14869 5.3009 0.84173 6.9922 2.0685 0.26823 0.19457 0.68661 0.58257 0.96632 0.89617 0.98057 1.0994 1.5745 2.4245 1.8102 4.0388 0.10531 0.72125 0.13644 1.554 0.0866 2.3164-0.15205 2.3257-1.0307 4.131-2.6444 5.4333-0.74184 0.5987-1.6037 1.0815-2.5951 1.4538-0.61668 0.23158-1.3793 0.44211-2.1041 0.58082-0.93752 0.17944-1.8912 0.2795-3.0221 0.31711-0.26776 9e-3 -1.2851 9e-3 -1.5404-5.2e-4z"/>
			<path transform="matrix(.26458 0 0 .26458 0 246.2)" d="m120.81 117.73c-2.5796-0.0834-4.6338-0.51316-6.2969-1.3172-0.45275-0.2189-0.94392-0.51273-1.3164-0.78751-0.0559-0.0412-0.13847-0.10179-0.18359-0.13462-0.4068-0.29608-0.66625-0.509-0.9214-0.75617-0.60126-0.58246-1.0309-1.1649-1.3831-1.875-0.42421-0.85522-0.67282-1.8036-0.75365-2.875-0.0388-0.51388-0.0359-1.1321 8e-3 -1.6562 0.12965-1.5573 0.61507-2.902 1.4468-4.0078 0.58633-0.77955 1.3608-1.4649 2.281-2.0184 1.3411-0.80668 3.1408-1.3458 5.2444-1.5712 0.8854-0.0948 1.6733-0.13391 2.7031-0.13402 1.0581-1.1e-4 1.9138 0.0435 2.7891 0.14204 2.1695 0.24433 3.9269 0.77838 5.3383 1.6222 0.54533 0.32603 0.99421 0.67668 1.443 1.1272 1.3486 1.354 2.0549 3.1081 2.1406 5.3165 0.0595 1.5321-0.20199 2.929-0.76486 4.0859-0.30098 0.61865-0.68698 1.1752-1.1596 1.6719-0.37278 0.39178-0.69342 0.665-1.2307 1.0487-1.3532 0.96634-3.1263 1.6098-5.2785 1.9156-0.78442 0.11145-1.5508 0.1746-2.4704 0.20353-0.28321 9e-3 -1.3546 9e-3 -1.6351-4.7e-4z"/>
			<path transform="matrix(.26458 0 0 .26458 0 246.2)" d="m63.706 136.76c-0.6486-0.0544-1.1482-0.22094-1.6367-0.54555-0.91111-0.60536-1.5944-1.7422-2.0003-3.3281-0.26739-1.0448-0.41007-2.1591-0.47015-3.6719-0.0133-0.33489-0.01323-1.61 1.01e-4 -1.9492 0.06831-1.7376 0.26222-3.0551 0.61514-4.1797 0.35378-1.1272 0.83358-1.9216 1.5036-2.4894 0.5771-0.48904 1.2866-0.75346 2.1016-0.7832 1.0328-0.0377 1.8959 0.24478 2.5938 0.84894 0.10886 0.0942 0.32398 0.31278 0.41318 0.41974 0.23152 0.27762 0.43944 0.59779 0.59866 0.92187 0.57912 1.1787 0.91582 2.7665 1.023 4.8242 0.02508 0.48151 0.031 0.75284 0.03091 1.418-9.4e-5 0.74882-0.0092 1.0776-0.04659 1.6836-0.17154 2.7797-0.81495 4.7551-1.8996 5.8324-0.60496 0.60082-1.3321 0.92677-2.2207 0.99543-0.0947 7e-3 -0.52839 9e-3 -0.60586 3e-3z"/>
			<path transform="matrix(.26458 0 0 .26458 0 246.2)" d="m82.385 136.1c-3.0189-0.0795-5.3188-0.51497-6.8991-1.3063-0.18074-0.0905-0.47691-0.25309-0.60374-0.33142-1.5235-0.94093-2.3596-2.5915-2.5202-4.975-0.03901-0.57913-0.0361-1.2699 0.0079-1.8633 0.12181-1.6444 0.57195-3.0558 1.3388-4.1981 0.46193-0.68805 1.0598-1.301 1.7422-1.7861 1.0367-0.73699 2.3274-1.2622 3.8695-1.5746 0.95236-0.19292 1.8965-0.29612 3.1115-0.3401 0.47902-0.0173 1.4286-9e-3 1.9531 0.0164 2.0624 0.10123 3.779 0.46234 5.2188 1.0978 0.18732 0.0827 0.58586 0.28078 0.75391 0.37475 0.43122 0.24111 0.85219 0.52548 1.1172 0.75467 1.1028 0.95381 1.8203 2.2095 2.1442 3.753 0.09315 0.44381 0.14786 0.86246 0.18431 1.4102 0.01361 0.20444 0.01849 0.8974 0.0081 1.1454-0.03944 0.93871-0.15206 1.8567-0.32194 2.6241-0.27936 1.262-0.71433 2.2344-1.3327 2.9792-0.0929 0.11191-0.39995 0.42034-0.50619 0.50847-0.19896 0.16505-0.39323 0.29736-0.63089 0.42967-1.326 0.73822-3.358 1.1563-6.1543 1.2663-0.58456 0.023-1.8794 0.0308-2.4805 0.015z"/>
			<path transform="matrix(.26458 0 0 .26458 0 246.2)" d="m107.83 136.1c-2.768-0.0773-4.9413-0.48035-6.5547-1.2157-0.2501-0.114-0.56231-0.27669-0.76562-0.39896-0.70245-0.42245-1.2699-1.0074-1.6832-1.735-0.60384-1.0631-0.9025-2.4324-0.90252-4.1377-2.5e-5 -2.095 0.45712-3.8201 1.3744-5.1867 0.2406-0.35844 0.49306-0.66718 0.80483-0.98425 0.28754-0.29243 0.54229-0.51298 0.83476-0.7227 1.0022-0.71864 2.2336-1.2483 3.6694-1.5783 0.84057-0.19319 1.7349-0.31801 2.7461-0.38326 0.75677-0.0488 1.8166-0.0552 2.6211-0.0157 2.0627 0.10125 3.7788 0.46225 5.2188 1.0978 0.18732 0.0827 0.58586 0.28078 0.75391 0.37475 0.36606 0.20468 0.77269 0.47335 1.041 0.6878 0.33179 0.26521 0.72833 0.66063 1.0037 1.0009 0.97981 1.2106 1.5244 2.73 1.6503 4.6041 0.0339 0.50522 0.0324 1.1826-4e-3 1.7422-0.10521 1.6209-0.47819 2.91-1.1246 3.8867-0.19188 0.28996-0.3519 0.48532-0.60519 0.73885-0.29042 0.29069-0.53376 0.48181-0.8754 0.68755-0.14294 0.0861-0.4991 0.26673-0.70313 0.35666-1.6364 0.72121-3.7962 1.1076-6.6055 1.1818-0.33415 9e-3 -1.567 8e-3 -1.8945-9e-4z"/>
			<path transform="matrix(.26458 0 0 .26458 0 246.2)" d="m127.72 136.76c-1.0604-0.0816-1.8669-0.51267-2.4898-1.331-0.18739-0.24616-0.31738-0.46381-0.51575-0.86354-0.2868-0.57792-0.47765-1.1112-0.6502-1.8168-0.24412-0.99822-0.37791-2.0847-0.43571-3.5384-0.0131-0.32809-0.0131-1.6094 0-1.9375 0.0597-1.5009 0.19818-2.5965 0.45873-3.6289 0.16765-0.66427 0.35636-1.186 0.61844-1.7096 0.34556-0.69052 0.7145-1.1483 1.2162-1.5089 0.52821-0.37968 1.178-0.5867 1.9231-0.61273 1.0389-0.0363 1.8951 0.24278 2.5942 0.84555 0.10511 0.0906 0.32884 0.31791 0.41659 0.42321 0.21291 0.25548 0.42558 0.57712 0.5708 0.86328 0.54626 1.0764 0.89235 2.5742 1.0235 4.4297 0.0446 0.63071 0.0584 1.0716 0.0584 1.8633 0 0.66428-6e-3 0.92676-0.0311 1.4219-0.12184 2.3781-0.56688 4.1747-1.3301 5.3696-0.52818 0.8269-1.2221 1.3661-2.0569 1.5984-0.20024 0.0557-0.40573 0.0943-0.65167 0.12237-0.0745 8e-3 -0.63687 0.0164-0.71875 0.0101z"/>
			<path transform="matrix(.26458 0 0 .26458 0 246.2)" d="m48.061 150v-2.3371l12.651-6.7464 1.138-0.09c8.3242-0.65851 16.41-1.0112 27.003-1.1776 2.3922-0.0376 11.737-0.0377 14.12-2.2e-4 10.137 0.15962 19.072 0.55066 27.671 1.2111l0.74535 0.0572 0.69096 0.37586c2.1898 1.1912 4.0466 2.1828 8.6183 4.6024l3.3311 1.763v4.6789h-95.968z"/>
			<path transform="matrix(.26458 0 0 .26458 0 246.2)" d="m41.686 165.89v-7.1705h108.63v14.341h-108.63z"/>
		</g>
	</g>
</svg>
