<?xml version="1.0" encoding="UTF-8" standalone="no"?>
<svg
   xmlns:dc="http://purl.org/dc/elements/1.1/"
   xmlns:cc="http://creativecommons.org/ns#"
   xmlns:rdf="http://www.w3.org/1999/02/22-rdf-syntax-ns#"
   xmlns:svg="http://www.w3.org/2000/svg"
   xmlns="http://www.w3.org/2000/svg"
   xmlns:sodipodi="http://sodipodi.sourceforge.net/DTD/sodipodi-0.dtd"
   xmlns:inkscape="http://www.inkscape.org/namespaces/inkscape"
   viewBox="0 -410 2048 2048"
   id="svg2"
   version="1.1"
   inkscape:version="0.48.2 r9819"
   width="100%"
   height="100%"
   sodipodi:docname="bb.svg">
  <metadata
     id="metadata12">
    <rdf:RDF>
      <cc:Work
         rdf:about="">
        <dc:format>image/svg+xml</dc:format>
        <dc:type
           rdf:resource="http://purl.org/dc/dcmitype/StillImage" />
      </cc:Work>
    </rdf:RDF>
  </metadata>
  <defs
     id="defs10" />
  <sodipodi:namedview
     pagecolor="#ffffff"
     bordercolor="#666666"
     borderopacity="1"
     objecttolerance="10"
     gridtolerance="10"
     guidetolerance="10"
     inkscape:pageopacity="0"
     inkscape:pageshadow="2"
     inkscape:window-width="640"
     inkscape:window-height="975"
     id="namedview8"
     showgrid="false"
     inkscape:zoom="0.51534363"
     inkscape:cx="657.39992"
     inkscape:cy="549.53213"
     inkscape:window-x="0"
     inkscape:window-y="0"
     inkscape:window-maximized="0"
     inkscape:current-layer="svg2" />
  <g
     transform="matrix(1 0 0 -1 0 1638)"
     id="g4">
    <path
       fill="#000000"
       d="M1393 1295h-725v208q0 139 99.5 239t240.5 100q142 0 236 -107q-4 -102 30 -175q23 -12 130.5 -25t193.5 -22q-52 -55 -103 -109t-102 -109zM1514 442l52 -239h-1118l50 239h1016zM1500 512h-986l124 580h738zM1363 1159h-711l13 69h684z"
       id="path6" />
  </g>
  <path
     style="fill:none;stroke:#000000;stroke-width:1px;stroke-linecap:butt;stroke-linejoin:miter;stroke-opacity:1"
     d="m 673.33713,744.01571 c -5.82136,83.43947 -5.82136,83.43947 -5.82136,83.43947"
     id="path2989"
     inkscape:connector-curvature="0"
     transform="translate(0,-410)" />
  <path
     style="fill:none;stroke:#000000;stroke-width:1px;stroke-linecap:butt;stroke-linejoin:miter;stroke-opacity:1"
     d="m 655.87305,883.72831 c -15.52362,77.61812 -15.52362,77.61812 -15.52362,77.61812"
     id="path2991"
     inkscape:connector-curvature="0"
     transform="translate(0,-410)" />
  <path
     style="fill:none;stroke:#000000;stroke-width:1px;stroke-linecap:butt;stroke-linejoin:miter;stroke-opacity:1"
     d="m 516.16045,1527.9586 c -13.58317,85.38 -13.58317,85.38 -13.58317,85.38"
     id="path2993"
     inkscape:connector-curvature="0"
     transform="translate(0,-410)" />
  <path
     style="fill:none;stroke:#000000;stroke-width:1px;stroke-linecap:butt;stroke-linejoin:miter;stroke-opacity:1"
     d="m 1494.1487,1533.78 c 17.464,87.3204 17.464,87.3204 17.464,87.3204"
     id="path2997"
     inkscape:connector-curvature="0"
     transform="translate(0,-410)" />
  <path
     style="fill:none;stroke:#000000;stroke-width:1px;stroke-linecap:butt;stroke-linejoin:miter;stroke-opacity:1"
     d="m 1391.3047,745.95616 c -48.5114,77.61812 -48.5114,77.61812 -48.5114,77.61812"
     id="path2999"
     inkscape:connector-curvature="0"
     transform="translate(0,-410)" />
  <path
     style="fill:#ececec;fill-opacity:1;fill-rule:nonzero;stroke-linecap:butt;stroke-linejoin:round"
     d="m 670.33642,806.37822 c 0.62536,-7.20393 1.72296,-21.8301 2.43911,-32.50259 l 1.3021,-19.40453 354.78117,-0.49032 c 206.9096,-0.28596 354.5109,0.23003 354.1327,1.23799 -0.3568,0.95057 -9.3806,15.78815 -20.0531,32.9724 l -19.4046,31.24409 -337.1672,0.0205 -337.1672,0.0205 1.13702,-13.09805 z"
     id="path3001"
     inkscape:connector-curvature="0"
     transform="translate(0,-410)" />
  <path
     style="fill:none;stroke:#000000;stroke-width:1px;stroke-linecap:butt;stroke-linejoin:miter;stroke-opacity:1"
     d="m 1358.317,883.72831 c 11.6427,79.55857 11.6427,79.55857 11.6427,79.55857"
     id="path3003"
     inkscape:connector-curvature="0"
     transform="translate(0,-410)" />
  <path
     style="fill:#ececec;fill-opacity:1;fill-rule:nonzero;stroke-linecap:butt;stroke-linejoin:round"
     d="m 643.9993,952.8824 c -7.3e-4,-1.33406 2.74426,-16.17852 6.09998,-32.98769 l 6.10129,-30.56214 350.94333,0 c 219.0914,0 350.9433,0.68906 350.9433,1.83403 0,2.90088 7.6197,54.93059 8.754,59.77535 l 1.0222,4.36602 -361.9314,0 c -288.25077,0 -361.93166,-0.49379 -361.9327,-2.42557 z"
     id="path3005"
     inkscape:connector-curvature="0"
     transform="translate(0,-410)" />
  <path
     style="fill:#ececec;fill-opacity:1;fill-rule:nonzero;stroke-linecap:butt;stroke-linejoin:round"
     d="m 749.87279,1571.4017 0,-33.9579 371.55971,0 371.5598,0 1.0323,4.366 c 1.2522,5.2956 12.6248,61.941 12.6248,62.8824 0,0.3671 -170.2748,0.6675 -378.3883,0.6675 l -378.38831,0 0,-33.958 z"
     id="path3007"
     inkscape:connector-curvature="0"
     transform="translate(0,-410)" />
  <path
     style="fill:#ececec;fill-opacity:1;fill-rule:nonzero;stroke-linecap:butt;stroke-linejoin:round"
     d="m 506.03038,1602.9613 c -0.008,-0.8005 2.29864,-16.0815 5.12548,-33.958 l 5.1397,-32.5026 116.15282,0 116.15283,0 0,33.958 0,33.9579 -121.27831,0 c -66.70306,0 -121.2847,-0.6549 -121.29252,-1.4553 z"
     id="path2992"
     inkscape:connector-curvature="0"
     transform="translate(0,-410)" />
</svg>
