<?xml version="1.0" encoding="UTF-8" standalone="no"?>
<svg
   xmlns:dc="http://purl.org/dc/elements/1.1/"
   xmlns:cc="http://creativecommons.org/ns#"
   xmlns:rdf="http://www.w3.org/1999/02/22-rdf-syntax-ns#"
   xmlns:svg="http://www.w3.org/2000/svg"
   xmlns="http://www.w3.org/2000/svg"
   xmlns:sodipodi="http://sodipodi.sourceforge.net/DTD/sodipodi-0.dtd"
   xmlns:inkscape="http://www.inkscape.org/namespaces/inkscape"
   viewBox="0 -410 2048 2048"
   id="svg2"
   version="1.1"
   inkscape:version="0.48.2 r9819"
   width="100%"
   height="100%"
   sodipodi:docname="bq.svg">
  <metadata
     id="metadata12">
    <rdf:RDF>
      <cc:Work
         rdf:about="">
        <dc:format>image/svg+xml</dc:format>
        <dc:type
           rdf:resource="http://purl.org/dc/dcmitype/StillImage" />
      </cc:Work>
    </rdf:RDF>
  </metadata>
  <defs
     id="defs10" />
  <sodipodi:namedview
     pagecolor="#ffffff"
     bordercolor="#666666"
     borderopacity="1"
     objecttolerance="10"
     gridtolerance="10"
     guidetolerance="10"
     inkscape:pageopacity="0"
     inkscape:pageshadow="2"
     inkscape:window-width="640"
     inkscape:window-height="849"
     id="namedview8"
     showgrid="false"
     inkscape:zoom="0.47366143"
     inkscape:cx="1024"
     inkscape:cy="982.62023"
     inkscape:window-x="0"
     inkscape:window-y="0"
     inkscape:window-maximized="0"
     inkscape:current-layer="svg2" />
  <g
     transform="matrix(1 0 0 -1 0 1638)"
     id="g4">
    <path
       fill="#000000"
       d="M1436 1092h-824q-9 111 -32 239h330q-11 51 -17 73q-5 28 -5 45q0 55 39.5 95t96.5 40q56 0 95.5 -40t39.5 -95q0 -17 -5 -45q-12 -46 -16 -73h330q-24 -128 -32 -239zM613 1024h823q-1 -18 -2 -35t-1 -33q0 -58 1 -85h-822q3 40 3 85t-2 68zM1445 734h-843q6 46 7 69 h830q1 -35 6 -69zM592 665h862q11 -77 29 -152h-918q9 37 15 75t12 77zM548 442h952q35 -129 82 -239h-558h-558q46 110 82 239z"
       id="path6" />
  </g>
  <path
     style="fill:none;stroke:#000000;stroke-width:1px;stroke-linecap:butt;stroke-linejoin:miter;stroke-opacity:1"
     d="m 614.36288,945.94699 c 2.11122,84.44851 2.11122,84.44851 2.11122,84.44851"
     id="path2989"
     inkscape:connector-curvature="0"
     transform="translate(0,-410)" />
  <path
     style="fill:none;stroke:#000000;stroke-width:1px;stroke-linecap:butt;stroke-linejoin:miter;stroke-opacity:1"
     d="m 1431.4022,945.94699 c 0,84.44851 0,84.44851 0,84.44851"
     id="path2991"
     inkscape:connector-curvature="0"
     transform="translate(0,-410)" />
  <path
     style="fill:none;stroke:#000000;stroke-width:1px;stroke-linecap:butt;stroke-linejoin:miter;stroke-opacity:1"
     d="m 612.25167,1169.7355 c 0,84.4485 0,84.4485 0,84.4485"
     id="path2993"
     inkscape:connector-curvature="0"
     transform="translate(0,-410)" />
  <path
     style="fill:none;stroke:#000000;stroke-width:1px;stroke-linecap:butt;stroke-linejoin:miter;stroke-opacity:1"
     d="m 603.80682,1309.0756 c -12.66728,82.3373 -12.66728,82.3373 -12.66728,82.3373"
     id="path2995"
     inkscape:connector-curvature="0"
     transform="translate(0,-410)" />
  <path
     style="fill:none;stroke:#000000;stroke-width:1px;stroke-linecap:butt;stroke-linejoin:miter;stroke-opacity:1"
     d="m 570.02742,1528.6417 c -21.11213,90.7821 -21.11213,90.7821 -21.11213,90.7821"
     id="path2997"
     inkscape:connector-curvature="0"
     transform="translate(0,-410)" />
  <path
     style="fill:none;stroke:#000000;stroke-width:1px;stroke-linecap:butt;stroke-linejoin:miter;stroke-opacity:1"
     d="m 1427.1798,1171.8467 c 6.3336,76.0037 6.3336,76.0037 6.3336,76.0037"
     id="path2999"
     inkscape:connector-curvature="0"
     transform="translate(0,-410)" />
  <path
     style="fill:none;stroke:#000000;stroke-width:1px;stroke-linecap:butt;stroke-linejoin:miter;stroke-opacity:1"
     d="m 1437.7358,1306.9644 c 10.5561,88.6709 12.6673,88.6709 12.6673,88.6709"
     id="path3001"
     inkscape:connector-curvature="0"
     transform="translate(0,-410)" />
  <path
     style="fill:#ececec;stroke:#000000;stroke-width:1px;stroke-linecap:butt;stroke-linejoin:miter;stroke-opacity:1"
     d="m 1475.7376,1530.7529 c 16.8897,80.2261 19.001,80.2261 19.001,80.2261"
     id="path3003"
     inkscape:connector-curvature="0"
     transform="translate(0,-410)" />
  <path
     style="fill:#ececec;fill-opacity:1;fill-rule:nonzero;stroke-linecap:butt;stroke-linejoin:round"
     d="m 617.89103,1016.083 c -0.71973,-4.3544 -1.31906,-19.55515 -1.33184,-33.77945 l -0.0232,-25.86236 406.40844,0 406.4084,0 0,33.77941 0,33.7794 -405.0766,0 -405.07656,0 -1.30861,-7.917 z"
     id="path3005"
     inkscape:connector-curvature="0"
     transform="translate(0,-410)" />
  <path
     style="fill:#ececec;fill-opacity:1;fill-rule:nonzero;stroke-linecap:butt;stroke-linejoin:round"
     d="m 614.42474,1210.8423 0,-32.7238 406.10666,0 406.1066,0 1.4459,21.64 c 0.7953,11.9019 2.0119,26.6276 2.7037,32.7237 l 1.2578,11.0839 -408.8103,0 -408.81036,0 0,-32.7238 z"
     id="path3007"
     inkscape:connector-curvature="0"
     transform="translate(0,-410)" />
  <path
     style="fill:#ececec;fill-opacity:1;fill-rule:nonzero;stroke-linecap:butt;stroke-linejoin:round"
     d="m 598.864,1352.8214 c 2.62357,-16.5467 4.8229,-31.7474 4.8874,-33.7794 0.11129,-3.5058 21.41117,-3.6947 416.7937,-3.6947 l 416.6765,0 3.5334,26.918 c 1.9433,14.8049 4.0787,30.0056 4.7454,33.7794 l 1.212,6.8615 -426.3092,0 -426.30932,0 4.77012,-30.0848 z"
     id="path3009"
     inkscape:connector-curvature="0"
     transform="translate(0,-410)" />
  <path
     style="fill:#ececec;fill-opacity:1;fill-rule:nonzero;stroke-linecap:butt;stroke-linejoin:round"
     d="m 555.41324,1600.8889 c 0.0564,-2.0321 3.23665,-16.9953 7.06734,-33.2516 l 6.96489,-29.557 453.17703,-0.5327 c 249.2474,-0.2929 453.177,-0.1049 453.177,0.4178 0,0.5227 3.3252,15.434 7.3893,33.1362 4.064,17.7023 7.3892,32.4775 7.3892,32.8339 0,0.3564 -210.4351,0.648 -467.6336,0.648 -443.9969,0 -467.62843,-0.1868 -467.53116,-3.6946 z"
     id="path3011"
     inkscape:connector-curvature="0"
     transform="translate(0,-410)" />
</svg>
