<?xml version="1.0" encoding="UTF-8" standalone="no"?>
<svg
   xmlns:dc="http://purl.org/dc/elements/1.1/"
   xmlns:cc="http://creativecommons.org/ns#"
   xmlns:rdf="http://www.w3.org/1999/02/22-rdf-syntax-ns#"
   xmlns:svg="http://www.w3.org/2000/svg"
   xmlns="http://www.w3.org/2000/svg"
   xmlns:sodipodi="http://sodipodi.sourceforge.net/DTD/sodipodi-0.dtd"
   xmlns:inkscape="http://www.inkscape.org/namespaces/inkscape"
   viewBox="0 -410 2048 2048"
   id="svg2"
   version="1.1"
   inkscape:version="0.48.2 r9819"
   width="100%"
   height="100%"
   sodipodi:docname="br.svg">
  <metadata
     id="metadata12">
    <rdf:RDF>
      <cc:Work
         rdf:about="">
        <dc:format>image/svg+xml</dc:format>
        <dc:type
           rdf:resource="http://purl.org/dc/dcmitype/StillImage" />
      </cc:Work>
    </rdf:RDF>
  </metadata>
  <defs
     id="defs10" />
  <sodipodi:namedview
     pagecolor="#ffffff"
     bordercolor="#666666"
     borderopacity="1"
     objecttolerance="10"
     gridtolerance="10"
     guidetolerance="10"
     inkscape:pageopacity="0"
     inkscape:pageshadow="2"
     inkscape:window-width="640"
     inkscape:window-height="897"
     id="namedview8"
     showgrid="false"
     inkscape:zoom="0.41786427"
     inkscape:cx="1024"
     inkscape:cy="970.51071"
     inkscape:window-x="0"
     inkscape:window-y="0"
     inkscape:window-maximized="0"
     inkscape:current-layer="svg2" />
  <g
     transform="matrix(1 0 0 -1 0 1638)"
     id="g4">
    <path
       fill="#000000"
       d="M1436 956l114 -443h-1056l118 443h824zM1400 1091l18 -67h-790l19 68zM1575 442l62 -239h-1230l66 239h1102zM1074 1452q-16 25 -16 57q0 28 11 57l26 56q42 91 125.5 148t187.5 57q127 0 222 -84.5t116 -210.5l68 -383l-347 93q-11 3 -21 3q-67 0 -67 -68q0 -9 2 -13 l2 -4h-718l3 7q1 4 1 10q0 68 -68 68q-10 0 -20 -3l-346 -93l67 383q19 126 114.5 210.5t223.5 84.5q103 0 187 -57t126 -148l26 -57q11 -27 11 -56q0 -33 -17 -57q-29 -25 -29 -59q0 -79 80 -79q79 0 79 79q0 35 -29 59z"
       id="path6" />
  </g>
  <path
     style="fill:none;stroke:#000000;stroke-width:1px;stroke-linecap:butt;stroke-linejoin:miter;stroke-opacity:1"
     d="m 670.07404,880.15667 c -16.75185,81.36614 -16.75185,81.36614 -16.75185,81.36614"
     id="path2989"
     inkscape:connector-curvature="0"
     transform="translate(0,-410)" />
  <path
     style="fill:none;stroke:#000000;stroke-width:1px;stroke-linecap:butt;stroke-linejoin:miter;stroke-opacity:1"
     d="m 631.7841,1014.1715 c -14.35873,83.7592 -14.35873,83.7592 -14.35873,83.7592"
     id="path2991"
     inkscape:connector-curvature="0"
     transform="translate(0,-410)" />
  <path
     style="fill:none;stroke:#000000;stroke-width:1px;stroke-linecap:butt;stroke-linejoin:miter;stroke-opacity:1"
     d="m 500.16241,1528.6926 c -23.93122,86.1524 -23.93122,86.1524 -23.93122,86.1524"
     id="path2993"
     inkscape:connector-curvature="0"
     transform="translate(0,-410)" />
  <path
     style="fill:none;stroke:#000000;stroke-width:1px;stroke-linecap:butt;stroke-linejoin:miter;stroke-opacity:1"
     d="m 1541.1703,1526.2995 c 26.3243,86.1524 26.3243,86.1524 26.3243,86.1524"
     id="path2995"
     inkscape:connector-curvature="0"
     transform="translate(0,-410)" />
  <path
     style="fill:none;stroke:#000000;stroke-width:1px;stroke-linecap:butt;stroke-linejoin:miter;stroke-opacity:1"
     d="m 1407.1555,1014.1715 c 21.5381,88.5455 23.9312,88.5455 23.9312,88.5455"
     id="path2997"
     inkscape:connector-curvature="0"
     transform="translate(0,-410)" />
  <path
     style="fill:none;stroke:#000000;stroke-width:1px;stroke-linecap:butt;stroke-linejoin:miter;stroke-opacity:1"
     d="m 1376.0449,880.15667 c 19.145,83.75926 19.145,83.75926 19.145,83.75926"
     id="path2999"
     inkscape:connector-curvature="0"
     transform="translate(0,-410)" />
  <path
     style="fill:#ececec;fill-opacity:1;fill-rule:nonzero;stroke-linecap:butt;stroke-linejoin:round"
     d="m 657.8524,951.92612 c 0,-1.79332 2.69226,-16.47963 5.9828,-32.63624 3.29055,-16.15661 5.98281,-29.76601 5.98281,-30.24312 0,-0.4771 158.80193,-0.86746 352.89319,-0.86746 l 352.8932,0 2.3811,8.9742 c 3.4958,13.17565 12.1621,52.80458 12.1621,55.61475 0,1.61865 -121.0874,2.41845 -366.1476,2.41845 -307.4442,0 -366.1476,-0.52276 -366.1476,-3.26058 z"
     id="path3001"
     inkscape:connector-curvature="0"
     transform="translate(0,-410)" />
  <path
     style="fill:#ececec;fill-opacity:1;fill-rule:nonzero;stroke-linecap:butt;stroke-linejoin:round"
     d="m 625.80068,1059.8858 c 3.08281,-17.4399 5.63262,-32.5166 5.66625,-33.5037 0.0336,-0.9872 174.78892,-1.7917 388.34507,-1.7877 l 388.284,0.01 8.6822,33.4966 8.6822,33.4965 -402.6324,0 -402.63242,0 5.6051,-31.7088 z"
     id="path3003"
     inkscape:connector-curvature="0"
     transform="translate(0,-410)" />
  <path
     style="fill:#ececec;fill-opacity:1;fill-rule:nonzero;stroke-linecap:butt;stroke-linejoin:round"
     d="m 481.90254,1600.7312 c 0.545,-1.6452 3.10872,-10.5297 5.69715,-19.7432 2.58843,-9.2135 6.44642,-22.9441 8.57331,-30.5123 l 3.86708,-13.7605 521.18942,0 521.1895,0 8.9534,29.3158 c 4.9244,16.1236 9.5045,31.2003 10.178,33.5037 1.1636,3.9798 -25.6631,4.1879 -539.7072,4.1879 -431.67833,0 -540.73144,-0.6041 -539.94066,-2.9914 z"
     id="path3005"
     inkscape:connector-curvature="0"
     transform="translate(0,-410)" />
</svg>
