<?xml version="1.0" encoding="UTF-8" standalone="no"?>
<svg
   xmlns:dc="http://purl.org/dc/elements/1.1/"
   xmlns:cc="http://creativecommons.org/ns#"
   xmlns:rdf="http://www.w3.org/1999/02/22-rdf-syntax-ns#"
   xmlns:svg="http://www.w3.org/2000/svg"
   xmlns="http://www.w3.org/2000/svg"
   xmlns:sodipodi="http://sodipodi.sourceforge.net/DTD/sodipodi-0.dtd"
   xmlns:inkscape="http://www.inkscape.org/namespaces/inkscape"
   viewBox="0 -410 2048 2048"
   id="svg2"
   version="1.1"
   inkscape:version="0.48.2 r9819"
   width="100%"
   height="100%"
   sodipodi:docname="wn.svg">
  <metadata
     id="metadata12">
    <rdf:RDF>
      <cc:Work
         rdf:about="">
        <dc:format>image/svg+xml</dc:format>
        <dc:type
           rdf:resource="http://purl.org/dc/dcmitype/StillImage" />
      </cc:Work>
    </rdf:RDF>
  </metadata>
  <defs
     id="defs10" />
  <sodipodi:namedview
     pagecolor="#ffffff"
     bordercolor="#666666"
     borderopacity="1"
     objecttolerance="10"
     gridtolerance="10"
     guidetolerance="10"
     inkscape:pageopacity="0"
     inkscape:pageshadow="2"
     inkscape:window-width="640"
     inkscape:window-height="714"
     id="namedview8"
     showgrid="false"
     inkscape:zoom="0.11523438"
     inkscape:cx="1024"
     inkscape:cy="1024"
     inkscape:window-x="0"
     inkscape:window-y="0"
     inkscape:window-maximized="0"
     inkscape:current-layer="svg2" />
  <g
     transform="matrix(1 0 0 -1 0 1638)"
     id="g4">
    <path
       fill="#000000"
       d="M1783 442h-1294q-31 -93 -37 -168h1270q38 73 61 168zM1797 513q10 72 14 168h-1192q-72 -91 -105 -168h1283zM1809 749q-1 18 -1 36v36h-1102q-9 -18 -19.5 -37t-18.5 -35h1141zM358 1497q26 -11 0 -88q-30 -77 -56 -66q-29 9 0 87q26 76 56 67zM1800 888q-15 39 -58 70 q-34 12 -77 15.5t-84 3.5q-87 0 -173.5 0.5t-163.5 -23.5q-6 35 -9 50q-54 336 -257.5 489t-444.5 109q-5 66 -52.5 115.5t-115.5 55.5q-6 -26 -6 -52q0 -42 16 -85q3 -6 3 -15q0 -39 -36 -39q-23 0 -29 20q-31 47 -73 62v-693q16 -62 141 -69h7.5h10.5q63 15 74 74 q5 29 1.5 59.5t-8.5 50.5q-37 59 -34 121q6 111 108 150q77 10 119 60q98 -139 98 -332q0 -51 -4 -100.5t-19 -96.5h1066zM1761 203h-1386q0 155 55 294.5t151 250.5q108 154 108 337q0 127 -52 231q-37 -18 -80 -24q-54 -27 -57 -88q-4 -53 19 -78q23 -69 14 -152 q-7 -60 -46 -100.5t-90 -40.5h-10.5h-9.5q-68 3 -125 26.5t-81 68.5v821q59 1 121 -36v4v4q0 65 22 120q6 1 38 1q80 0 143 -47t88 -117q237 15 451 -147.5t265 -499.5q68 13 139 13h143q43 0 89.5 -4t85.5 -16q119 -60 119 -183q0 -15 0.5 -29.5t-2.5 -29.5v-23 q0 -153 -17 -294.5t-95 -261.5z"
       id="path6" />
  </g>
  <path
     style="fill:#f9f9f9;fill-opacity:1;fill-rule:nonzero;stroke-linecap:butt;stroke-linejoin:round"
     d="m 747.43816,1129.4373 c 4.72972,-15.5119 9.00913,-80.922 9.50981,-145.35594 1.01392,-130.48603 -10.97091,-193.43992 -53.69215,-282.0339 -38.82035,-80.50445 -37.42873,-79.44828 -70.99291,-53.87963 -16.02935,12.21091 -47.22211,26.74529 -69.31725,32.29864 -46.51368,11.69065 -97.14371,50.24682 -117.67954,89.61622 -21.54244,41.29918 -19.13418,121.89286 5.29101,177.06631 26.21469,59.2157 23.04868,139.9409 -6.65197,169.6084 -38.00028,37.9579 -166.79178,19.0177 -192.08796,-28.2486 -5.93786,-11.095 -8.25774,-133.80661 -6.76573,-357.8763 l 2.27056,-340.99182 42.65012,41.22034 c 44.93213,43.42584 65.05146,50.04741 83.71982,27.55341 9.12002,-10.98895 9.32823,-23.41931 1.06258,-63.43763 -14.66847,-71.01773 -13.50938,-113.8107 3.08269,-113.8107 47.64184,0 127.21865,72.15354 142.60789,129.3048 l 9.17546,34.07506 97.49479,-0.25001 c 140.38712,-0.35996 245.09714,35.92906 355.132,123.07704 122.64052,97.13173 220.61952,282.84807 245.24342,464.85221 8.5388,63.1139 12.3125,66.8651 57.5819,57.2388 69.4775,-14.7741 175.2633,-18.6301 309.8091,-11.2929 l 132.6446,7.2335 30.0673,29.1424 c 16.537,16.0283 30.0673,32.2815 30.0673,36.1181 0,3.8366 -235.985,6.9756 -524.4111,6.9756 l -524.41124,0 8.5995,-28.2034 z M 351.77208,660.82712 c 11.666,-25.05763 21.24906,-60.20339 21.29569,-78.1017 0.0755,-29.10556 -2.2486,-32.54237 -22.00937,-32.54237 -18.17449,0 -25.8571,8.08254 -43.30506,45.55932 -11.666,25.05763 -21.24906,60.20339 -21.29568,78.1017 -0.0759,29.10556 2.24859,32.54237 22.00936,32.54237 18.1745,0 25.85711,-8.08254 43.30506,-45.55932 l 0,0 z"
     id="path2989"
     inkscape:connector-curvature="0"
     transform="translate(0,-410)" />
  <path
     style="fill:#f9f9f9;fill-opacity:1;fill-rule:nonzero;stroke-linecap:butt;stroke-linejoin:round"
     d="m 694.23729,1261.7763 17.70867,-34.7119 546.53554,0 546.5354,0 0,34.7119 0,34.7118 -564.2441,0 -564.24418,0 17.70867,-34.7118 z"
     id="path2991"
     inkscape:connector-curvature="0"
     transform="translate(0,-410)" />
  <path
     style="fill:#f9f9f9;fill-opacity:1;fill-rule:nonzero;stroke-linecap:butt;stroke-linejoin:round"
     d="m 538.59518,1498.2508 c 10.63302,-17.8983 33.07857,-53.044 49.87901,-78.1016 l 30.54626,-45.5594 594.20705,0 594.207,0 -5.4724,45.5594 c -3.0097,25.0576 -5.5062,60.2033 -5.5477,78.1016 l -0.075,32.5424 -638.5383,0 -638.53828,0 19.33276,-32.5424 z"
     id="path2993"
     inkscape:connector-curvature="0"
     transform="translate(0,-410)" />
  <path
     style="fill:#f9f9f9;fill-opacity:1;fill-rule:nonzero;stroke-linecap:butt;stroke-linejoin:round"
     d="m 460.51569,1749.9119 c 0.32092,-13.1255 7.30082,-49.2475 15.51091,-80.2712 l 14.92742,-56.4068 643.23578,-2.2249 643.2357,-2.2249 -15.3876,49.9537 c -8.4631,27.4746 -22.5037,64.5978 -31.2013,82.4961 l -15.8138,32.5424 -627.5453,0 -627.5453,0 0.58349,-23.8644 z"
     id="path2995"
     inkscape:connector-curvature="0"
     transform="translate(0,-410)" />
</svg>
