<?xml version="1.0" encoding="UTF-8" standalone="no"?>
<svg
   xmlns:dc="http://purl.org/dc/elements/1.1/"
   xmlns:cc="http://creativecommons.org/ns#"
   xmlns:rdf="http://www.w3.org/1999/02/22-rdf-syntax-ns#"
   xmlns:svg="http://www.w3.org/2000/svg"
   xmlns="http://www.w3.org/2000/svg"
   xmlns:sodipodi="http://sodipodi.sourceforge.net/DTD/sodipodi-0.dtd"
   xmlns:inkscape="http://www.inkscape.org/namespaces/inkscape"
   viewBox="0 -410 2048 2048"
   id="svg2"
   version="1.1"
   inkscape:version="0.48.2 r9819"
   width="100%"
   height="100%"
   sodipodi:docname="wp.svg">
  <metadata
     id="metadata12">
    <rdf:RDF>
      <cc:Work
         rdf:about="">
        <dc:format>image/svg+xml</dc:format>
        <dc:type
           rdf:resource="http://purl.org/dc/dcmitype/StillImage" />
      </cc:Work>
    </rdf:RDF>
  </metadata>
  <defs
     id="defs10" />
  <sodipodi:namedview
     pagecolor="#ffffff"
     bordercolor="#666666"
     borderopacity="1"
     objecttolerance="10"
     gridtolerance="10"
     guidetolerance="10"
     inkscape:pageopacity="0"
     inkscape:pageshadow="2"
     inkscape:window-width="640"
     inkscape:window-height="792"
     id="namedview8"
     showgrid="false"
     inkscape:zoom="0.11523438"
     inkscape:cx="1024"
     inkscape:cy="1024"
     inkscape:window-x="0"
     inkscape:window-y="0"
     inkscape:window-maximized="0"
     inkscape:current-layer="svg2" />
  <g
     transform="matrix(1 0 0 -1 0 1638)"
     id="g4">
    <path
       fill="#000000"
       d="M1024 203v71h496l-71 168h-425v72h195h197q-46 110 -92.5 220.5t-91.5 221.5h-105h-103v68h88h89q-8 17 -15.5 33.5t-14.5 34.5h-74h-73v68h121l-42 97q91 48 91 151q0 70 -50 120.5t-120 50.5v67q98 0 168 -70t70 -168q0 -106 -77 -174l439 -1031h-600zM1024 203h-601 l440 1031q-77 67 -77 174q0 98 69.5 168t168.5 70v-67q-71 0 -121 -50.5t-50 -120.5q0 -103 91 -151l-41 -97h121v-68h-74h-74q-8 -18 -15.5 -34.5t-14.5 -33.5h89h89v-68h-104.5h-103.5q-47 -111 -93 -221.5t-92 -220.5h197h196v-72h-425l-71 -168h496v-71z"
       id="path6" />
  </g>
  <path
     style="fill:#f9f9f9;fill-opacity:1;fill-rule:nonzero;stroke-linecap:butt;stroke-linejoin:round"
     d="m 912.63277,878.60344 c 1.59096,-3.60201 10.12388,-24.73117 18.96205,-46.95371 l 16.06939,-40.40459 -35.11075,-31.72047 C 801.66269,659.34153 874.59106,477.28814 1025.614,477.28814 c 148.4406,0 221.0494,192.72219 106.918,283.7878 -35.3291,28.1892 -36.4205,34.92452 -13.0744,80.68677 9.5458,18.71124 17.356,36.12855 17.356,38.70514 0,2.57658 -51.0916,4.68469 -113.5368,4.68469 -62.44516,0 -112.23499,-2.9471 -110.64403,-6.5491 z"
     id="path2989"
     inkscape:connector-curvature="0"
     transform="translate(0,-410)" />
  <path
     style="fill:#f9f9f9;fill-opacity:1;fill-rule:nonzero;stroke-linecap:butt;stroke-linejoin:round"
     d="m 865.20529,993.62712 14.48382,-30.37288 144.31089,0 144.3109,0 14.4838,30.37288 14.4838,30.37288 -173.2785,0 -173.27853,0 14.48382,-30.37288 z"
     id="path2991"
     inkscape:connector-curvature="0"
     transform="translate(0,-410)" />
  <path
     style="fill:#f9f9f9;fill-opacity:1;fill-rule:nonzero;stroke-linecap:butt;stroke-linejoin:round"
     d="m 646.13118,1512.1356 c 3.20022,-8.3525 43.64514,-105.9367 89.8776,-216.8537 l 84.05902,-201.6672 203.9322,-0.018 203.9322,-0.017 86.7797,209.6419 c 47.7288,115.303 88.0813,212.895 89.6723,216.8711 1.5909,3.9761 -169.6743,7.2292 -380.5895,7.2292 -361.65234,0 -383.15088,-0.8645 -377.66352,-15.1864 z"
     id="path2993"
     inkscape:connector-curvature="0"
     transform="translate(0,-410)" />
  <path
     style="fill:#f9f9f9;fill-opacity:1;fill-rule:nonzero;stroke-linecap:butt;stroke-linejoin:round"
     d="m 540.39441,1759.4576 c 2.31958,-5.9661 16.9466,-41.1118 32.50451,-78.1017 l 28.2871,-67.2542 422.81398,0 422.814,0 28.2871,67.2542 c 15.5579,36.9899 30.1849,72.1356 32.5045,78.1017 3.3434,8.5994 -96.8832,10.8475 -483.6056,10.8475 -386.72236,0 -486.94894,-2.2481 -483.60559,-10.8475 z"
     id="path2995"
     inkscape:connector-curvature="0"
     transform="translate(0,-410)" />
</svg>
