<?xml version="1.0" encoding="UTF-8" standalone="no"?>
<!-- Created with Inkscape (http://www.inkscape.org/) -->
<svg
   xmlns:dc="http://purl.org/dc/elements/1.1/"
   xmlns:cc="http://web.resource.org/cc/"
   xmlns:rdf="http://www.w3.org/1999/02/22-rdf-syntax-ns#"
   xmlns:svg="http://www.w3.org/2000/svg"
   xmlns="http://www.w3.org/2000/svg"
   xmlns:sodipodi="http://sodipodi.sourceforge.net/DTD/sodipodi-0.dtd"
   xmlns:inkscape="http://www.inkscape.org/namespaces/inkscape"
   width="83.389999"
   height="83.389999"
   id="svg2"
   sodipodi:version="0.32"
   inkscape:version="0.45.1"
   version="1.0"
   inkscape:export-filename="/home/thomas/Desktop/seek.png"
   inkscape:export-xdpi="19.799999"
   inkscape:export-ydpi="19.799999"
   sodipodi:docname="seek_manual.svg"
   sodipodi:docbase="/home/thomas/Programmering/python/skak/trunk/glade"
   inkscape:output_extension="org.inkscape.output.svg.inkscape">
  <defs
     id="defs4" />
  <sodipodi:namedview
     id="base"
     pagecolor="#ffffff"
     bordercolor="#666666"
     borderopacity="1.0"
     gridtolerance="10000"
     guidetolerance="10"
     objecttolerance="10"
     inkscape:pageopacity="0.0"
     inkscape:pageshadow="2"
     inkscape:zoom="2.8"
     inkscape:cx="28.321993"
     inkscape:cy="51.467819"
     inkscape:document-units="px"
     inkscape:current-layer="layer1"
     inkscape:window-width="961"
     inkscape:window-height="794"
     inkscape:window-x="534"
     inkscape:window-y="240"
     width="83.39px"
     height="83.39px" />
  <metadata
     id="metadata7">
    <rdf:RDF>
      <cc:Work
         rdf:about="">
        <dc:format>image/svg+xml</dc:format>
        <dc:type
           rdf:resource="http://purl.org/dc/dcmitype/StillImage" />
      </cc:Work>
    </rdf:RDF>
  </metadata>
  <g
     inkscape:label="Layer 1"
     inkscape:groupmode="layer"
     id="layer1"
     transform="translate(472.0828,-784.41402)">
    <path
       style="fill:#babdb6;fill-opacity:1;stroke:none;stroke-width:20;stroke-linecap:round;stroke-linejoin:miter;stroke-miterlimit:4;stroke-dasharray:none;stroke-opacity:1"
       d="M -430.05092,791.63977 C -427.21055,793.31694 -424.53549,795.38744 -422.09597,797.82696 C -406.48306,813.43988 -406.48305,838.78258 -422.09597,854.3955 C -424.53549,856.83502 -427.21055,858.90552 -430.05092,860.58269 L -422.82517,867.80843 C -420.07198,865.98636 -417.44934,863.89101 -415.0249,861.46657 C -395.50875,841.95042 -395.50875,810.27204 -415.0249,790.75589 C -417.44934,788.33145 -420.07198,786.2361 -422.82517,784.41403 L -430.05092,791.63977 z "
       id="path2170" />
    <path
       style="fill:#888a85;fill-opacity:1;stroke:none;stroke-width:20;stroke-linecap:round;stroke-linejoin:miter;stroke-miterlimit:4;stroke-dasharray:none;stroke-opacity:1"
       d="M -445.20952,806.79838 C -441.92172,807.67386 -438.81548,809.39172 -436.2381,811.96909 C -428.43164,819.77555 -428.43164,832.44691 -436.2381,840.25337 C -438.81548,842.83074 -441.92172,844.5486 -445.20952,845.42408 L -437.45344,853.18016 C -434.4561,851.75049 -431.64803,849.80542 -429.16704,847.32443 C -417.45735,835.61475 -417.45735,816.60772 -429.16704,804.89803 C -431.64803,802.41704 -434.4561,800.47197 -437.45344,799.0423 L -445.20952,806.79838 z "
       id="path2166" />
    <path
       sodipodi:type="arc"
       style="fill:#555753;fill-opacity:1;stroke:none;stroke-width:20;stroke-linecap:round;stroke-linejoin:miter;stroke-miterlimit:4;stroke-dasharray:none;stroke-opacity:1"
       id="path2160"
       sodipodi:cx="184.35284"
       sodipodi:cy="543.75037"
       sodipodi:rx="11.616755"
       sodipodi:ry="10.606602"
       d="M 195.9696 543.75037 A 11.616755 10.606602 0 1 1  172.73609,543.75037 A 11.616755 10.606602 0 1 1  195.9696 543.75037 z"
       transform="matrix(0.6086956,-0.6086956,0.6666667,0.6666667,-925.10432,575.8167)" />
  </g>
</svg>
