<?xml version="1.0" encoding="UTF-8" standalone="no"?>
<svg
   xmlns:dc="http://purl.org/dc/elements/1.1/"
   xmlns:cc="http://creativecommons.org/ns#"
   xmlns:rdf="http://www.w3.org/1999/02/22-rdf-syntax-ns#"
   xmlns:svg="http://www.w3.org/2000/svg"
   xmlns="http://www.w3.org/2000/svg"
   xmlns:sodipodi="http://sodipodi.sourceforge.net/DTD/sodipodi-0.dtd"
   xmlns:inkscape="http://www.inkscape.org/namespaces/inkscape"
   viewBox="0 -200 1000 1000"
   id="svg2"
   version="1.1"
   inkscape:version="0.48.2 r9819"
   width="100%"
   height="100%"
   sodipodi:docname="bb.svg">
  <metadata
     id="metadata12">
    <rdf:RDF>
      <cc:Work
         rdf:about="">
        <dc:format>image/svg+xml</dc:format>
        <dc:type
           rdf:resource="http://purl.org/dc/dcmitype/StillImage" />
      </cc:Work>
    </rdf:RDF>
  </metadata>
  <defs
     id="defs10" />
  <sodipodi:namedview
     pagecolor="#ffffff"
     bordercolor="#666666"
     borderopacity="1"
     objecttolerance="10"
     gridtolerance="10"
     guidetolerance="10"
     inkscape:pageopacity="0"
     inkscape:pageshadow="2"
     inkscape:window-width="1280"
     inkscape:window-height="778"
     id="namedview8"
     showgrid="false"
     inkscape:zoom="0.236"
     inkscape:cx="500"
     inkscape:cy="500"
     inkscape:window-x="0"
     inkscape:window-y="0"
     inkscape:window-maximized="0"
     inkscape:current-layer="svg2" />
  <g
     transform="matrix(1 0 0 -1 0 800)"
     id="g4">
    <path
       fill="#000000"
       d="M675 218v103q56 37 86 89q31 55 31 113q0 86 -76 169q-9 9 -25 28q-16 18 -27 30q-16 17 -51 46q-17 14 -22 18q-51 46 -97 68q-51 -24 -107 -73q-3 -3 -9 -8q-46 -39 -66 -60q-5 -5 -14 -15q-18 -20 -27 -29q-77 -83 -77 -174q0 -57 32 -113q31 -53 85 -89v-101h137 q-22 -11 -58 -35l-2 -3q-35 -22 -51 -31q-20 -10 -35 -10q-21 0 -41 22q-19 27 -35 68l-34 -44q23 -52 45 -77q28 -30 65 -30q24 0 50 13q29 12 55 31t50 33q18 11 37 11q17 0 34 -10q14 -7 50 -31l3 -3q25 -19 53 -31q26 -13 48 -13q40 0 67 30q25 28 43 77l-31 44 q-18 -46 -36 -68t-43 -22q-13 0 -33 10q-16 8 -49 31l-4 3q-23 17 -56 33h135zM355 288v23h277v-23h-277zM472 698h43v-114h106v-46h-106v-116h-43v116h-107v46h107v114z"
       id="path6" />
  </g>
  <path
     style="fill:#ececec;fill-opacity:1;stroke:#000000;stroke-width:0;stroke-linecap:round;stroke-linejoin:miter;stroke-miterlimit:3.79999995000000010;stroke-opacity:1;stroke-dasharray:none;stroke-dashoffset:0"
     d="m 474.57627,517.37288 0,-57.20339 -52.9661,0 -52.9661,0 0,-21.18644 0,-21.18644 52.9661,0 52.9661,0 0,-57.20339 0,-57.20339 19.0678,0 19.06779,0 0,57.20339 0,57.20339 52.96611,0 52.9661,0 0,21.18644 0,21.18644 -52.9661,0 -52.96611,0 0,57.20339 0,57.20339 -19.06779,0 -19.0678,0 0,-57.20339 z"
     id="path2989"
     inkscape:connector-curvature="0"
     transform="translate(0,-200)" />
  <path
     style="fill:#ececec;fill-opacity:1;stroke:#000000;stroke-width:0;stroke-linecap:round;stroke-linejoin:miter;stroke-miterlimit:3.79999995000000010;stroke-opacity:1;stroke-dasharray:none;stroke-dashoffset:0"
     d="m 355.9322,699.57627 0,-10.59322 137.71187,0 137.71186,0 0,10.59322 0,10.59322 -137.71186,0 -137.71187,0 0,-10.59322 z"
     id="path2991"
     inkscape:connector-curvature="0"
     transform="translate(0,-200)" />
</svg>
