<?xml version="1.0" encoding="UTF-8" standalone="no"?>
<svg
   xmlns:dc="http://purl.org/dc/elements/1.1/"
   xmlns:cc="http://creativecommons.org/ns#"
   xmlns:rdf="http://www.w3.org/1999/02/22-rdf-syntax-ns#"
   xmlns:svg="http://www.w3.org/2000/svg"
   xmlns="http://www.w3.org/2000/svg"
   xmlns:sodipodi="http://sodipodi.sourceforge.net/DTD/sodipodi-0.dtd"
   xmlns:inkscape="http://www.inkscape.org/namespaces/inkscape"
   viewBox="0 -200 1000 1000"
   id="svg2"
   version="1.1"
   inkscape:version="0.48.2 r9819"
   width="100%"
   height="100%"
   sodipodi:docname="bk.svg">
  <metadata
     id="metadata12">
    <rdf:RDF>
      <cc:Work
         rdf:about="">
        <dc:format>image/svg+xml</dc:format>
        <dc:type
           rdf:resource="http://purl.org/dc/dcmitype/StillImage" />
      </cc:Work>
    </rdf:RDF>
  </metadata>
  <defs
     id="defs10" />
  <sodipodi:namedview
     pagecolor="#ffffff"
     bordercolor="#666666"
     borderopacity="1"
     objecttolerance="10"
     gridtolerance="10"
     guidetolerance="10"
     inkscape:pageopacity="0"
     inkscape:pageshadow="2"
     inkscape:window-width="1280"
     inkscape:window-height="778"
     id="namedview8"
     showgrid="false"
     inkscape:zoom="0.236"
     inkscape:cx="500"
     inkscape:cy="500"
     inkscape:window-x="0"
     inkscape:window-y="0"
     inkscape:window-maximized="0"
     inkscape:current-layer="svg2" />
  <g
     transform="matrix(1 0 0 -1 0 800)"
     id="g4">
    <path
       fill="#000000"
       d="M479 726q-7 -2 -12 -6q-4 -3 -7 -5q-11 -5 -18 -17q-11 -14 -15 -24.5t-4 -28.5v-18q1 -3 3 -12q1 -5 1 -6q-24 26 -58 41q-36 14 -67 14q-27 0 -56 -13q-28 -15 -47 -39q-18 -21 -33 -54q-11 -36 -11 -68q0 -45 22 -83q21 -32 59 -75q10 -12 38 -33q22 -17 23 -21v-201 h410v201q2 4 22 17q17 12 27.5 20t17.5 17q34 36 60 75q21 36 21 83q0 36 -11 68q-13 32 -32 54q-19 23 -46 39q-29 13 -56 13q-33 0 -67 -14q-34 -15 -59 -41q1 3 1 9q1 6 1 9q1 4 2 10t1 8q0 17 -4.5 28t-16.5 27q-2 5 -11 11q-4 3 -5 4l-2 1q-7 4 -10.5 5.5t-12.5 4.5v69 h121v34h-121v84h-48v-84h-121v-34h121v-69zM505 551q-1 8 -10 29q-3 7 -5 13q-5 14 -6 18q-5 13 -5 26q0 7 1 10t5 7q3 5 9 6q1 0 2 1q7 2 9 2q4 0 10 -2h2q1 -1 3 -2q3 -2 4 -4q7 -8 7 -18q0 -13 -3 -27q-1 -3 -6 -15q-1 -4 -6 -16q-8 -20 -11 -28zM336 240v33h330v-33 h-330z"
       id="path6" />
  </g>
  <path
     style="fill:#ececec;fill-opacity:1;stroke:#000000;stroke-width:0;stroke-linecap:round;stroke-linejoin:miter;stroke-miterlimit:3.79999995000000010;stroke-opacity:1;stroke-dasharray:none;stroke-dashoffset:0"
     d="m 338.98305,741.94915 0,-14.83051 163.13559,0 163.1356,0 0,14.83051 0,14.83051 -163.1356,0 -163.13559,0 0,-14.83051 z"
     id="path2989"
     inkscape:connector-curvature="0"
     transform="translate(0,-200)" />
  <path
     style="fill:#ececec;fill-opacity:1;stroke:#000000;stroke-width:0;stroke-linecap:round;stroke-linejoin:miter;stroke-miterlimit:3.79999995000000010;stroke-opacity:1;stroke-dasharray:none;stroke-dashoffset:0"
     d="m 502.49474,434.74576 c -26.30449,-69.57491 -25.67231,-93.22034 2.49232,-93.22034 16.65225,0 26.11408,15.55687 22.18855,36.48174 -4.59675,24.50276 -21.86216,64.19405 -24.68087,56.7386 z"
     id="path2991"
     inkscape:connector-curvature="0"
     transform="translate(0,-200)" />
</svg>
