<?xml version="1.0" encoding="UTF-8" standalone="no"?>
<svg
   xmlns:dc="http://purl.org/dc/elements/1.1/"
   xmlns:cc="http://creativecommons.org/ns#"
   xmlns:rdf="http://www.w3.org/1999/02/22-rdf-syntax-ns#"
   xmlns:svg="http://www.w3.org/2000/svg"
   xmlns="http://www.w3.org/2000/svg"
   xmlns:sodipodi="http://sodipodi.sourceforge.net/DTD/sodipodi-0.dtd"
   xmlns:inkscape="http://www.inkscape.org/namespaces/inkscape"
   viewBox="0 -200 1000 1000"
   id="svg2"
   version="1.1"
   inkscape:version="0.48.2 r9819"
   width="100%"
   height="100%"
   sodipodi:docname="bn.svg">
  <metadata
     id="metadata12">
    <rdf:RDF>
      <cc:Work
         rdf:about="">
        <dc:format>image/svg+xml</dc:format>
        <dc:type
           rdf:resource="http://purl.org/dc/dcmitype/StillImage" />
      </cc:Work>
    </rdf:RDF>
  </metadata>
  <defs
     id="defs10" />
  <sodipodi:namedview
     pagecolor="#ffffff"
     bordercolor="#666666"
     borderopacity="1"
     objecttolerance="10"
     gridtolerance="10"
     guidetolerance="10"
     inkscape:pageopacity="0"
     inkscape:pageshadow="2"
     inkscape:window-width="1280"
     inkscape:window-height="778"
     id="namedview8"
     showgrid="false"
     inkscape:zoom="0.236"
     inkscape:cx="500"
     inkscape:cy="500"
     inkscape:window-x="0"
     inkscape:window-y="0"
     inkscape:window-maximized="0"
     inkscape:current-layer="svg2" />
  <g
     transform="matrix(1 0 0 -1 0 800)"
     id="g4">
    <path
       fill="#000000"
       d="M549 466q-3 -25 -7 -49.5t-9 -35.5q-11 -21 -31 -45l-103 -110q-29 -30 -44 -68q-13 -32 -13 -78h530v198q0 93 -27 178q-27 86 -77 159q-49 71 -118 123q-65 52 -146 75l-165 67l44 -83l-202 -428q-9 -22 -9 -42q0 -33 21 -60q20 -24 50 -24q21 0 49 10q30 10 43 22z M633 715q30 -17 49.5 -35.5t19.5 -28.5v-2l-1 -2q-3 -5 -13 -5q-13 0 -34.5 8t-45.5 21q-30 17 -49.5 35.5t-19.5 29.5q0 1 1 2v2q3 5 12 5q13 0 35 -8t46 -22zM492 777q6 0 14 -3.5t13 -7.5q14 -9 14 -17q-3 -15 -14 -15q-4 0 -13 2l-6 1q-15 0 -34.5 8t-19.5 13 q0 22 16 24q5 0 14 -2q10 -3 16 -3z"
       id="path6" />
  </g>
  <path
     style="fill:#ececec;fill-opacity:1;stroke:#000000;stroke-width:0;stroke-linecap:round;stroke-linejoin:miter;stroke-miterlimit:3.79999995000000010;stroke-opacity:1;stroke-dasharray:none;stroke-dashoffset:0"
     d="m 648.22365,344.41396 c -37.22485,-15.31584 -68.37554,-34.79576 -88.4162,-55.29059 -33.80515,-34.57127 -13.26542,-41.67063 44.62207,-15.4232 44.17971,20.03204 94.72302,59.96126 94.72302,74.83119 0,8.78261 -24.36283,6.81297 -50.92889,-4.1174 z"
     id="path2989"
     inkscape:connector-curvature="0"
     transform="translate(0,-200)" />
  <path
     style="fill:#808080;fill-opacity:1;stroke:#000000;stroke-width:0;stroke-linecap:round;stroke-linejoin:miter;stroke-miterlimit:3.79999995000000010;stroke-opacity:1;stroke-dasharray:none;stroke-dashoffset:0"
     d="m 495.35152,260.96254 c -38.06147,-6.43821 -59.01503,-26.25057 -39.38243,-37.23752 13.98445,-7.8261 66.92955,8.83208 72.26533,22.73693 2.31903,6.04329 -5.45822,19.28473 -10.74478,18.2939 -1.46252,-0.27411 -11.42468,-1.9811 -22.13812,-3.79331 z"
     id="path2991"
     inkscape:connector-curvature="0"
     transform="translate(0,-200)" />
</svg>
