<?xml version="1.0" encoding="UTF-8" standalone="no"?>
<svg
   xmlns:dc="http://purl.org/dc/elements/1.1/"
   xmlns:cc="http://creativecommons.org/ns#"
   xmlns:rdf="http://www.w3.org/1999/02/22-rdf-syntax-ns#"
   xmlns:svg="http://www.w3.org/2000/svg"
   xmlns="http://www.w3.org/2000/svg"
   xmlns:sodipodi="http://sodipodi.sourceforge.net/DTD/sodipodi-0.dtd"
   xmlns:inkscape="http://www.inkscape.org/namespaces/inkscape"
   viewBox="0 -200 1000 1000"
   id="svg2"
   version="1.1"
   inkscape:version="0.48.2 r9819"
   width="100%"
   height="100%"
   sodipodi:docname="bp.svg">
  <metadata
     id="metadata12">
    <rdf:RDF>
      <cc:Work
         rdf:about="">
        <dc:format>image/svg+xml</dc:format>
        <dc:type
           rdf:resource="http://purl.org/dc/dcmitype/StillImage" />
      </cc:Work>
    </rdf:RDF>
  </metadata>
  <defs
     id="defs10" />
  <sodipodi:namedview
     pagecolor="#ffffff"
     bordercolor="#666666"
     borderopacity="1"
     objecttolerance="10"
     gridtolerance="10"
     guidetolerance="10"
     inkscape:pageopacity="0"
     inkscape:pageshadow="2"
     inkscape:window-width="1280"
     inkscape:window-height="778"
     id="namedview8"
     showgrid="false"
     inkscape:zoom="0.236"
     inkscape:cx="500"
     inkscape:cy="500"
     inkscape:window-x="0"
     inkscape:window-y="0"
     inkscape:window-maximized="0"
     inkscape:current-layer="svg2" />
  <g
     transform="matrix(1 0 0 -1 0 800)"
     id="g4">
    <path
       fill="#000000"
       d="M442 297v21h148v-21h-148zM470 612l-125 -246l65 -60l-124 -151v-75h460v75l-126 151l66 60l-124 246q28 10 46 36q16 27 16 54q0 41 -31 69q-30 29 -77 29q-48 0 -78 -29q-32 -28 -32 -69q0 -28 18 -54q18 -25 46 -36z"
       id="path6" />
  </g>
  <path
     style="fill:#e6e6e6;fill-opacity:1;stroke:#000000;stroke-width:0;stroke-linecap:round;stroke-linejoin:miter;stroke-miterlimit:3.79999995000000010;stroke-opacity:1;stroke-dasharray:none;stroke-dashoffset:0"
     d="m 479.87288,702.77725 c 20.39195,-0.77675 53.76059,-0.77675 74.15254,0 20.39195,0.77676 3.70763,1.41228 -37.07627,1.41228 -40.7839,0 -57.46822,-0.63552 -37.07627,-1.41228 z"
     id="path2989"
     inkscape:connector-curvature="0"
     transform="translate(0,-200)" />
  <path
     style="fill:#808080;fill-opacity:1;fill-rule:nonzero;stroke-linecap:butt;stroke-linejoin:round"
     d="m 444.91525,691.52542 c 0,-8.14224 2.82486,-8.47457 72.0339,-8.47457 69.20904,0 72.0339,0.33233 72.0339,8.47457 0,8.14224 -2.82486,8.47458 -72.0339,8.47458 -69.20904,0 -72.0339,-0.33234 -72.0339,-8.47458 z"
     id="path2984"
     inkscape:connector-curvature="0"
     transform="translate(0,-200)" />
</svg>
