<?xml version="1.0" encoding="UTF-8" standalone="no"?>
<svg
   xmlns:dc="http://purl.org/dc/elements/1.1/"
   xmlns:cc="http://creativecommons.org/ns#"
   xmlns:rdf="http://www.w3.org/1999/02/22-rdf-syntax-ns#"
   xmlns:svg="http://www.w3.org/2000/svg"
   xmlns="http://www.w3.org/2000/svg"
   xmlns:sodipodi="http://sodipodi.sourceforge.net/DTD/sodipodi-0.dtd"
   xmlns:inkscape="http://www.inkscape.org/namespaces/inkscape"
   viewBox="0 -200 1000 1000"
   id="svg2"
   version="1.1"
   inkscape:version="0.48.2 r9819"
   width="100%"
   height="100%"
   sodipodi:docname="br.svg">
  <metadata
     id="metadata12">
    <rdf:RDF>
      <cc:Work
         rdf:about="">
        <dc:format>image/svg+xml</dc:format>
        <dc:type
           rdf:resource="http://purl.org/dc/dcmitype/StillImage" />
      </cc:Work>
    </rdf:RDF>
  </metadata>
  <defs
     id="defs10" />
  <sodipodi:namedview
     pagecolor="#ffffff"
     bordercolor="#666666"
     borderopacity="1"
     objecttolerance="10"
     gridtolerance="10"
     guidetolerance="10"
     inkscape:pageopacity="0"
     inkscape:pageshadow="2"
     inkscape:window-width="1280"
     inkscape:window-height="778"
     id="namedview8"
     showgrid="false"
     inkscape:zoom="0.236"
     inkscape:cx="500"
     inkscape:cy="500"
     inkscape:window-x="0"
     inkscape:window-y="0"
     inkscape:window-maximized="0"
     inkscape:current-layer="svg2" />
  <g
     transform="matrix(1 0 0 -1 0 800)"
     id="g4">
    <path
       fill="#000000"
       d="M814 185l-137 160v233l88 71v167h-122v-57h-68v57h-122v-57h-68v57h-122v-165l90 -73v-233l-139 -160v-109h600v109zM385 551v27h258v-27h-258zM784 187v-33h-535v33h535z"
       id="path6" />
  </g>
  <path
     style="fill:#ececec;fill-opacity:1;stroke:#000000;stroke-width:0;stroke-linecap:round;stroke-linejoin:miter;stroke-miterlimit:3.79999995000000010;stroke-opacity:1;stroke-dasharray:none;stroke-dashoffset:0"
     d="m 385.59322,434.74576 0,-12.71186 127.11864,0 127.11865,0 0,12.71186 0,12.71187 -127.11865,0 -127.11864,0 0,-12.71187 z"
     id="path2989"
     inkscape:connector-curvature="0"
     transform="translate(0,-200)" />
  <path
     style="fill:#ececec;fill-opacity:1;stroke:#000000;stroke-width:0;stroke-linecap:round;stroke-linejoin:miter;stroke-miterlimit:3.79999995000000010;stroke-opacity:1;stroke-dasharray:none;stroke-dashoffset:0"
     d="m 250,830.9322 0,-14.83051 266.94915,0 266.94916,0 0,14.83051 0,14.83051 -266.94916,0 -266.94915,0 0,-14.83051 z"
     id="path2991"
     inkscape:connector-curvature="0"
     transform="translate(0,-200)" />
  <path
     style="fill:#cccccc;fill-opacity:1;fill-rule:nonzero;stroke-linecap:butt;stroke-linejoin:round"
     d="m 385.59322,435.16949 0,-10.59322 127.11864,0 127.11865,0 0,10.59322 0,10.59322 -127.11865,0 -127.11864,0 0,-10.59322 z"
     id="path2992"
     inkscape:connector-curvature="0"
     transform="translate(0,-200)" />
</svg>
