<?xml version="1.0" encoding="UTF-8" standalone="no"?>
<svg
   xmlns:dc="http://purl.org/dc/elements/1.1/"
   xmlns:cc="http://creativecommons.org/ns#"
   xmlns:rdf="http://www.w3.org/1999/02/22-rdf-syntax-ns#"
   xmlns:svg="http://www.w3.org/2000/svg"
   xmlns="http://www.w3.org/2000/svg"
   xmlns:sodipodi="http://sodipodi.sourceforge.net/DTD/sodipodi-0.dtd"
   xmlns:inkscape="http://www.inkscape.org/namespaces/inkscape"
   viewBox="0 -200 1000 1000"
   id="svg2"
   version="1.1"
   inkscape:version="0.48.2 r9819"
   width="100%"
   height="100%"
   sodipodi:docname="wk.svg">
  <metadata
     id="metadata12">
    <rdf:RDF>
      <cc:Work
         rdf:about="">
        <dc:format>image/svg+xml</dc:format>
        <dc:type
           rdf:resource="http://purl.org/dc/dcmitype/StillImage" />
      </cc:Work>
    </rdf:RDF>
  </metadata>
  <defs
     id="defs10" />
  <sodipodi:namedview
     pagecolor="#ffffff"
     bordercolor="#666666"
     borderopacity="1"
     objecttolerance="10"
     gridtolerance="10"
     guidetolerance="10"
     inkscape:pageopacity="0"
     inkscape:pageshadow="2"
     inkscape:window-width="675"
     inkscape:window-height="685"
     id="namedview8"
     showgrid="false"
     inkscape:zoom="0.236"
     inkscape:cx="500"
     inkscape:cy="500"
     inkscape:window-x="0"
     inkscape:window-y="0"
     inkscape:window-maximized="0"
     inkscape:current-layer="svg2" />
  <g
     transform="matrix(1 0 0 -1 0 800)"
     id="g4">
    <path
       fill="#000000"
       d="M479 726q-7 -2 -12 -6q-4 -3 -7 -5q-11 -5 -18 -17q-11 -14 -15 -24.5t-4 -28.5v-18q1 -3 3 -12q1 -5 1 -6q-24 26 -58 41q-36 14 -67 14q-27 0 -56 -13q-28 -15 -47 -39q-18 -21 -33 -54q-11 -36 -11 -68q0 -45 22 -83q21 -32 59 -75q10 -12 38 -33q22 -17 23 -21v-201 h410v201q2 4 22 17q17 12 27.5 20t17.5 17q34 36 60 75q21 36 21 83q0 36 -11 68q-13 32 -32 54q-19 23 -46 39q-29 13 -56 13q-33 0 -67 -14q-34 -15 -59 -41q1 3 1 9q1 6 1 9q1 4 2 10t1 8q0 17 -4.5 28t-16.5 27q-2 5 -11 11q-4 3 -5 4l-2 1q-7 4 -10.5 5.5t-12.5 4.5v69 h121v34h-121v84h-48v-84h-121v-34h121v-69zM505 474q-4 20 -21 58q-13 36 -22 62q-9 24 -9 51q0 14 2 20t10 14q6 11 19 14q12 5 21 5q11 0 23 -5q10 -6 14 -12q15 -18 15 -36q0 -28 -7 -53q-4 -10 -10 -27q-2 -6 -13 -36q-13 -29 -22 -55zM487 280h-143q-2 3 -14 14t-33 31 q-7 6 -21 19t-19 18q-34 34 -51 61q-19 30 -19 67q0 54 34 96q35 40 81 40q37 0 72 -20q38 -23 60 -59q29 -41 41 -84q4 -11 6 -34.5t3.5 -53t2 -53.5t0.5 -42zM653 280h-132q0 12 1 40t3 55.5t5 52t6 35.5q12 42 40 84q26 38 61 59q35 20 73 20q46 0 80 -40q29 -36 29 -96 q0 -45 -14 -67q-22 -32 -51 -61q-4 -5 -15 -13.5t-41 -31.5q-18 -14 -30.5 -24t-14.5 -13zM336 111v130h330v-130h-330z"
       id="path6" />
  </g>
  <path
     style="fill:#f9f9f9;fill-opacity:1"
     d="m 526.18468,656.14599 c 4.59899,-99.8216 12.14833,-133.29425 41.16034,-182.49874 20.41653,-34.62651 30.36125,-46.5373 54.23155,-64.9531 100.31003,-77.38863 213.2759,-2.43527 192.33219,127.61328 -7.21982,44.83099 -41.22448,85.96132 -124.28307,150.32663 l -41.30652,32.01001 -62.50704,0.002 -62.50705,0.002 2.8796,-62.50193 z"
     id="path2989"
     inkscape:connector-curvature="0"
     transform="translate(0,-200)" />
  <path
     style="fill:#f9f9f9;fill-opacity:1"
     d="M 291.67953,666.56589 C 202.97094,581.03815 188.19084,556.35755 191.49541,499.2731 c 2.3324,-40.29077 16.19607,-68.89236 46.67688,-96.29724 57.63218,-51.81627 144.55238,-25.24344 198.89752,60.806 35.80742,56.69705 45.75431,101.13085 45.90761,205.07407 l 0.0734,49.78814 -68.85593,-0.1714 -68.85594,-0.17139 -53.65945,-51.73539 z"
     id="path2991"
     inkscape:connector-curvature="0"
     transform="translate(0,-200)" />
  <path
     style="fill:#f9f9f9;fill-opacity:1"
     d="m 490.40226,476.16515 c -37.08663,-96.93748 -41.99068,-126.7454 -24.81971,-150.85981 13.59245,-19.08883 39.84853,-25.70669 59.44704,-14.98365 36.91137,20.19551 38.15896,57.18973 4.9006,145.31524 -11.7809,31.21616 -22.11109,57.44793 -22.95597,58.29281 -0.84489,0.84488 -8.30227,-16.14918 -16.57196,-37.76459 l 0,0 z"
     id="path2993"
     inkscape:connector-curvature="0"
     transform="translate(0,-200)" />
  <path
     style="fill:#f9f9f9;fill-opacity:1"
     d="m 338.98305,824.57627 0,-63.55932 163.13559,0 163.1356,0 0,63.55932 0,63.55932 -163.1356,0 -163.13559,0 0,-63.55932 z"
     id="path2995"
     inkscape:connector-curvature="0"
     transform="translate(0,-200)" />
</svg>
