<?xml version="1.0" encoding="UTF-8" standalone="no"?>
<svg
   xmlns:dc="http://purl.org/dc/elements/1.1/"
   xmlns:cc="http://creativecommons.org/ns#"
   xmlns:rdf="http://www.w3.org/1999/02/22-rdf-syntax-ns#"
   xmlns:svg="http://www.w3.org/2000/svg"
   xmlns="http://www.w3.org/2000/svg"
   xmlns:sodipodi="http://sodipodi.sourceforge.net/DTD/sodipodi-0.dtd"
   xmlns:inkscape="http://www.inkscape.org/namespaces/inkscape"
   viewBox="0 -200 1000 1000"
   id="svg2"
   version="1.1"
   inkscape:version="0.48.2 r9819"
   width="100%"
   height="100%"
   sodipodi:docname="wp.svg">
  <metadata
     id="metadata12">
    <rdf:RDF>
      <cc:Work
         rdf:about="">
        <dc:format>image/svg+xml</dc:format>
        <dc:type
           rdf:resource="http://purl.org/dc/dcmitype/StillImage" />
      </cc:Work>
    </rdf:RDF>
  </metadata>
  <defs
     id="defs10" />
  <sodipodi:namedview
     pagecolor="#ffffff"
     bordercolor="#666666"
     borderopacity="1"
     objecttolerance="10"
     gridtolerance="10"
     guidetolerance="10"
     inkscape:pageopacity="0"
     inkscape:pageshadow="2"
     inkscape:window-width="675"
     inkscape:window-height="724"
     id="namedview8"
     showgrid="false"
     inkscape:zoom="0.236"
     inkscape:cx="500"
     inkscape:cy="500"
     inkscape:window-x="0"
     inkscape:window-y="0"
     inkscape:window-maximized="0"
     inkscape:current-layer="svg2" />
  <g
     transform="matrix(1 0 0 -1 0 800)"
     id="g4">
    <path
       fill="#000000"
       d="M470 612l-125 -246l65 -60l-124 -151v-75h460v75l-126 151l66 60l-124 246q28 10 46 36q16 27 16 54q0 41 -31 69q-30 29 -77 29q-48 0 -78 -29q-32 -28 -32 -69q0 -28 18 -54q18 -25 46 -36zM505 602h22l116 -230l-53 -48h-148l-54 48zM516 767q30 0 52 -19t22 -46 q0 -29 -22 -48t-52 -19q-32 0 -53 19q-21 20 -21 48q0 27 21 46t53 19zM444 292h145l121 -147v-32h-389v32z"
       id="path6" />
  </g>
  <g
     id="g2986"
     style="fill:#f9f9f9">
    <path
       transform="translate(0,-200)"
       inkscape:connector-curvature="0"
       id="path2989"
       d="m 418.20762,651.41936 -27.25934,-24.00437 57.70383,-113.60712 c 49.51899,-97.49285 59.05398,-113.62136 67.22258,-113.7075 8.24403,-0.0869 17.16608,15.18617 66.62326,114.04821 l 57.1045,114.14858 -26.83895,23.56328 -26.83894,23.56329 -70.2288,0 -70.22879,0 -27.25935,-24.00437 z"
       style="fill:#f9f9f9;fill-opacity:1" />
    <path
       transform="translate(0,-200)"
       inkscape:connector-curvature="0"
       id="path2991"
       d="m 322.0339,870.17623 c 0,-10.39867 11.96905,-27.10373 62.23771,-86.8644 l 62.23771,-73.9898 70.28992,0 70.28993,0 59.20965,72.25722 c 46.92462,57.26504 59.48252,75.28797 60.52476,86.86441 l 1.31511,14.60719 -193.0524,0 -193.05239,0 0,-12.87462 z"
       style="fill:#f9f9f9;fill-opacity:1" />
    <path
       transform="translate(0,-200)"
       inkscape:connector-curvature="0"
       id="path2993"
       d="m 480.9322,353.28689 c -21.61142,-10.92845 -32.40696,-25.88782 -34.94741,-48.42664 -8.1365,-72.18683 105.47927,-96.50684 135.35274,-28.97292 24.53619,55.46814 -42.13705,106.86461 -100.40533,77.39956 z"
       style="fill:#f9f9f9;fill-opacity:1" />
  </g>
</svg>
