<?xml version="1.0" encoding="UTF-8" standalone="no"?>
<svg
   xmlns:dc="http://purl.org/dc/elements/1.1/"
   xmlns:cc="http://creativecommons.org/ns#"
   xmlns:rdf="http://www.w3.org/1999/02/22-rdf-syntax-ns#"
   xmlns:svg="http://www.w3.org/2000/svg"
   xmlns="http://www.w3.org/2000/svg"
   xmlns:sodipodi="http://sodipodi.sourceforge.net/DTD/sodipodi-0.dtd"
   xmlns:inkscape="http://www.inkscape.org/namespaces/inkscape"
   viewBox="0 -200 1000 1000"
   id="svg2"
   version="1.1"
   inkscape:version="0.48.2 r9819"
   width="100%"
   height="100%"
   sodipodi:docname="wq.svg">
  <metadata
     id="metadata12">
    <rdf:RDF>
      <cc:Work
         rdf:about="">
        <dc:format>image/svg+xml</dc:format>
        <dc:type
           rdf:resource="http://purl.org/dc/dcmitype/StillImage" />
      </cc:Work>
    </rdf:RDF>
  </metadata>
  <defs
     id="defs10" />
  <sodipodi:namedview
     pagecolor="#ffffff"
     bordercolor="#666666"
     borderopacity="1"
     objecttolerance="10"
     gridtolerance="10"
     guidetolerance="10"
     inkscape:pageopacity="0"
     inkscape:pageshadow="2"
     inkscape:window-width="675"
     inkscape:window-height="696"
     id="namedview8"
     showgrid="false"
     inkscape:zoom="0.236"
     inkscape:cx="500"
     inkscape:cy="500"
     inkscape:window-x="0"
     inkscape:window-y="0"
     inkscape:window-maximized="0"
     inkscape:current-layer="svg2" />
  <g
     transform="matrix(1 0 0 -1 0 800)"
     id="g4">
    <path
       fill="#000000"
       d="M644 810q17 12 17 29q0 16 -12.5 27.5t-29.5 11.5q-18 0 -30.5 -11.5t-12.5 -27.5q0 -9 6.5 -17.5t14.5 -13.5v-386h-141v388q17 12 17 29q0 16 -12 27.5t-30 11.5t-30 -11.5t-12 -27.5q0 -20 20 -29v-387h-142v304q18 13 18 31q0 15 -12.5 25.5t-30.5 10.5 q-17 0 -29.5 -10.5t-12.5 -25.5q0 -19 20 -31v-313l106 -158v-178h400v178l106 158v313q18 13 18 31q0 15 -12.5 25.5t-30.5 10.5q-17 0 -29.5 -10.5t-12.5 -25.5q0 -18 20 -31v-304h-141v387zM373 120v123h306v-123h-306zM760 388l-69 -104h-329l-71 104h469z"
       id="path6" />
  </g>
  <path
     style="fill:#f9f9f9;fill-opacity:1"
     d="m 377.11864,816.94915 0,-59.32203 150.42373,0 150.42373,0 0,59.32203 0,59.32204 -150.42373,0 -150.42373,0 0,-59.32204 z"
     id="path2989"
     inkscape:connector-curvature="0"
     transform="translate(0,-200)" />
  <path
     style="fill:#f9f9f9;fill-opacity:1"
     d="m 330.671,665.4661 -34.28141,-49.78813 114.51707,-1.12743 c 62.98439,-0.62008 165.97662,-0.62008 228.87162,0 l 114.35456,1.12743 -32.78674,49.69579 -32.78678,49.6958 -161.80345,0.0923 -161.80345,0.0923 L 330.671,665.4661 z"
     id="path2991"
     inkscape:connector-curvature="0"
     transform="translate(0,-200)" />
</svg>
