<?xml version="1.0" encoding="UTF-8" standalone="no"?>
<!DOCTYPE svg PUBLIC "-//W3C//DTD SVG 1.1//EN" "http://www.w3.org/Graphics/SVG/1.1/DTD/svg11.dtd">
<svg
   xmlns:svg="http://www.w3.org/2000/svg"
   xmlns="http://www.w3.org/2000/svg"
   version="1.1"
   width="45"
   height="45"
   id="svg3128">
  <defs
     id="defs3130" />
  <g
     id="layer1">
    <path
       d="M 22.5,11.625 L 22.5,6"
       style="fill:none;fill-opacity:0.75;fill-rule:evenodd;stroke:#000000;stroke-width:1.5;stroke-linecap:round;stroke-linejoin:miter;stroke-miterlimit:4;stroke-dasharray:none;stroke-opacity:1"
       id="path6570" />
    <path
       d="M 22.5,25 C 22.5,25 27,17.5 25.5,14.5 C 25.5,14.5 24.5,12 22.5,12 C 20.5,12 19.5,14.5 19.5,14.5 C 18,17.5 22.5,25 22.5,25"
       style="fill:#000000;fill-opacity:1;fill-rule:evenodd;stroke:#000000;stroke-width:1.5;stroke-linecap:butt;stroke-linejoin:miter;stroke-miterlimit:4;stroke-dasharray:none;stroke-opacity:1"
       id="path5683" />
    <path
       d="M 11.5,37 C 17,40.5 27,40.5 32.5,37 L 32.5,30 C 32.5,30 41.5,25.5 38.5,19.5 C 34.5,13 25,16 22.5,23.5 L 22.5,27 L 22.5,23.5 C 19,16 9.5,13 6.5,19.5 C 3.5,25.5 11.5,29.5 11.5,29.5 L 11.5,37 z "
       style="fill:#000000;fill-opacity:1;fill-rule:evenodd;stroke:#000000;stroke-width:1.5;stroke-linecap:round;stroke-linejoin:round;stroke-miterlimit:4;stroke-dasharray:none;stroke-opacity:1"
       id="path5681" />
    <path
       d="M 20,8 L 25,8"
       style="fill:none;fill-opacity:0.75;fill-rule:evenodd;stroke:#000000;stroke-width:1.5;stroke-linecap:round;stroke-linejoin:miter;stroke-miterlimit:4;stroke-dasharray:none;stroke-opacity:1"
       id="path6572" />
    <path
       d="M 11.5,29.5 C 17,27 27,27 32.5,30"
       style="fill:none;fill-opacity:0.75;fill-rule:evenodd;stroke:#ffffff;stroke-width:1.5;stroke-linecap:round;stroke-linejoin:miter;stroke-miterlimit:4;stroke-dasharray:none;stroke-opacity:1"
       id="path6574" />
    <path
       d="M 11.5,37 C 17,34.5 27,34.5 32.5,37"
       style="fill:none;fill-opacity:0.75;fill-rule:evenodd;stroke:#ffffff;stroke-width:1.5;stroke-linecap:round;stroke-linejoin:round;stroke-miterlimit:4;stroke-dasharray:none;stroke-opacity:1"
       id="path6576" />
    <path
       d="M 11.5,33.5 C 17,31.5 27,31.5 32.5,33.5"
       style="fill:none;fill-opacity:0.75;fill-rule:evenodd;stroke:#ffffff;stroke-width:1.5;stroke-linecap:round;stroke-linejoin:round;stroke-miterlimit:4;stroke-dasharray:none;stroke-opacity:1"
       id="path6578" />
    <path
       d="M 32,29.5 C 32,29.5 40.5,25.5 38.026,19.847 C 34.147,13.997 25,18 22.5,24.5 L 22.512,26.597 L 22.5,24.5 C 20,18 9.9064,13.997 6.9975,19.847 C 4.5,25.5 11.846,28.847 11.846,28.847"
       style="fill:none;fill-opacity:1;fill-rule:evenodd;stroke:#ffffff;stroke-width:1.5;stroke-linecap:round;stroke-linejoin:round;stroke-miterlimit:4;stroke-dasharray:none;stroke-opacity:1"
       id="path5638" />
  </g>
</svg>
