<?xml version="1.0" encoding="UTF-8" standalone="no"?>
<svg
   xmlns:osb="http://www.openswatchbook.org/uri/2009/osb"
   xmlns:dc="http://purl.org/dc/elements/1.1/"
   xmlns:cc="http://creativecommons.org/ns#"
   xmlns:rdf="http://www.w3.org/1999/02/22-rdf-syntax-ns#"
   xmlns:svg="http://www.w3.org/2000/svg"
   xmlns="http://www.w3.org/2000/svg"
   xmlns:sodipodi="http://sodipodi.sourceforge.net/DTD/sodipodi-0.dtd"
   xmlns:inkscape="http://www.inkscape.org/namespaces/inkscape"
   width="256pt"
   height="256pt"
   viewBox="0 0 256 256"
   version="1.1"
   id="svg2"
   inkscape:version="0.48.2 r9819"
   sodipodi:docname="bb.svg">
  <metadata
     id="metadata22">
    <rdf:RDF>
      <cc:Work
         rdf:about="">
        <dc:format>image/svg+xml</dc:format>
        <dc:type
           rdf:resource="http://purl.org/dc/dcmitype/StillImage" />
      </cc:Work>
    </rdf:RDF>
  </metadata>
  <defs
     id="defs20">
    <linearGradient
       id="linearGradient3757"
       osb:paint="solid">
      <stop
         style="stop-color:#000000;stop-opacity:1;"
         offset="0"
         id="stop3759" />
    </linearGradient>
  </defs>
  <sodipodi:namedview
     pagecolor="#ffffff"
     bordercolor="#666666"
     borderopacity="1"
     objecttolerance="10"
     gridtolerance="10"
     guidetolerance="10"
     inkscape:pageopacity="0"
     inkscape:pageshadow="2"
     inkscape:window-width="869"
     inkscape:window-height="480"
     id="namedview18"
     showgrid="false"
     inkscape:zoom="0.7375"
     inkscape:cx="128"
     inkscape:cy="160"
     inkscape:window-x="0"
     inkscape:window-y="0"
     inkscape:window-maximized="0"
     inkscape:current-layer="svg2" />
  <g
     id="#d9d9d9ff"
     transform="matrix(0.94,0,0,0.94,7.6795174,7.979143)"
     style="fill:#f2f2f2">
    <path
       d="m 119.9,14.88 c 7.91,-2.06 16.12,-0.51 23.93,1.25 5,1.75 10.46,4.63 12.19,10.03 0.74,4.03 -2.35,7.4 -5.58,9.28 -2.65,1.82 -5.52,3.51 -8.76,3.92 2.84,4.62 7.33,8.07 11.56,11.38 6.38,6.34 12.71,12.73 19.1,19.06 1.03,0.75 1.03,2.65 -0.01,3.4 -14.59,14.59 -29.24,29.12 -43.73,43.8 2.05,2.21 4.19,4.34 6.4,6.4 14.35,-14.16 28.55,-28.48 42.8,-42.74 0.75,-1.03 2.64,-1.03 3.4,0 4.02,3.79 7.95,7.83 10.17,12.99 3.43,6.03 4.73,12.9 6.5,19.53 0.91,8.14 -0.98,16.14 -2.64,24.06 -1.58,7.24 -6.08,13.19 -9.24,19.75 -3.08,5.21 -7.21,9.81 -9.6,15.41 -1.34,4.59 -3.7,8.87 -4.34,13.66 -0.13,5.31 -0.01,10.62 -0.05,15.94 3.22,0 6.44,-0.02 9.67,0.01 1.99,2.21 4.11,4.32 6.32,6.32 0.03,3.22 0.01,6.44 0.01,9.66 2.89,0.02 5.78,-0.02 8.67,0.02 3.98,4.22 8.09,8.34 12.32,12.32 0,6.51 0.05,13.01 0,19.52 0.14,1.57 -1.66,2.46 -3.02,2.17 -51.34,-0.03 -102.67,-0.04 -154,0 -1.72,-0.12 -3.89,0.54 -4.89,-1.31 -0.22,-6.79 -0.03,-13.59 -0.07,-20.38 4.22,-3.98 8.33,-8.1 12.32,-12.32 2.89,-0.04 5.78,0 8.67,-0.02 0,-3.22 -0.02,-6.44 0.01,-9.66 2.21,-2 4.32,-4.11 6.32,-6.32 3.56,-0.03 7.11,-0.01 10.67,-0.01 -0.41,-7.43 1.19,-15.2 -1.72,-22.28 -1.73,-3.71 -2.41,-7.86 -4.67,-11.32 -3.76,-5.67 -7.86,-11.13 -10.66,-17.36 -5.08,-7.27 -7.12,-16.12 -8.19,-24.79 -2.49,-9.89 0.7,-20.03 4.22,-29.26 3.68,-9.3 11.22,-16.06 17.25,-23.75 7.53,-7.48 15,-15.01 22.52,-22.5 4.24,-3.3 8.71,-6.75 11.57,-11.36 -5.6,-1.3 -11.6,-4.22 -14.08,-9.73 -1.47,-3.98 1.65,-7.55 4.53,-9.88 4.19,-2.82 9.08,-4.54 14.13,-4.89 m -7.06,8.1 c -2.48,1.09 -5.76,2.39 -5.69,5.62 4.47,3.77 10.31,5.23 16,5.9 7.77,0.5 15.95,0.19 23.04,-3.4 1.74,-0.92 4.15,-2.26 3.37,-4.61 -3.59,-3.83 -9.11,-4.8 -14.04,-5.75 -7.59,-0.78 -15.5,-0.6 -22.68,2.24 m 9.84,17.44 c -0.81,4.49 -5.53,5.94 -8.24,9.03 -2.97,3.4 -6.96,5.67 -10.03,8.96 -6.09,6.24 -12.42,12.24 -18.49,18.5 -4.23,5.41 -9.22,10.2 -13.05,15.93 -3.1,4.74 -4.69,10.23 -6.4,15.58 -3.13,9.35 -0.84,19.35 1.51,28.6 1.42,5.95 5.03,10.92 7.7,16.32 3.42,6.14 8.34,11.43 10.86,18.08 1.9,5.08 3.44,10.29 4.63,15.59 24.89,0 49.77,0 74.66,-0.01 2.06,-8.3 4.15,-16.91 9.18,-23.99 3.18,-4.6 6.34,-9.24 8.75,-14.3 5.07,-7.66 6.8,-16.87 8.08,-25.8 0.35,-4.31 0.41,-8.75 -0.86,-12.93 -1.95,-6.6 -4.09,-13.27 -7.86,-19.09 -1.12,-1.56 -3.3,-4.02 -5.21,-2.07 -13.42,13.27 -26.79,26.61 -40.15,39.95 -1.31,1.76 -4.21,1.76 -5.52,-0.01 -3.01,-3 -6.03,-6 -9.04,-8.99 -1.77,-1.32 -1.78,-4.22 -0.02,-5.55 14.21,-14.28 28.47,-28.51 42.6,-42.87 -5.28,-4.76 -10.11,-9.98 -15.22,-14.91 -2.71,-2.3 -5.63,-4.34 -8.01,-7 -2.71,-3.08 -7.41,-4.54 -8.24,-9.02 -3.87,-0.09 -7.75,-0.09 -11.63,0 M 90.99,191.99 c -0.03,3.67 -0.03,7.35 0,11.02 25.01,-0.01 50.01,-0.01 75.02,0 0.02,-3.67 0.02,-7.35 0,-11.02 -25.01,0.01 -50.01,0 -75.02,0 m -14.75,16.06 c -0.29,0.3 -0.89,0.9 -1.18,1.2 -0.25,3.25 -0.06,6.51 -0.07,9.76 35.34,-0.01 70.68,0 106.02,0 -0.01,-3.25 0.18,-6.52 -0.06,-9.77 -0.3,-0.3 -0.89,-0.9 -1.19,-1.19 -34.5,-0.08 -69.02,-0.11 -103.52,0 M 61.27,224 c -2.37,2.47 -4.8,4.89 -7.27,7.26 -0.05,4.92 -0.02,9.84 -0.01,14.75 49.34,-0.01 98.68,-0.01 148.02,0.01 0.01,-4.92 0.03,-9.84 0,-14.76 -2.48,-2.37 -4.91,-4.79 -7.28,-7.26 -44.49,-0.01 -88.97,-0.01 -133.46,0 z"
       id="path5"
       inkscape:connector-curvature="0"
       style="fill:#f2f2f2" />
  </g>
  <g
     id="#525252ff"
     style="fill:#4d4d4d;fill-opacity:1;stroke:none"
     transform="matrix(0.94,0,0,0.94,7.6795174,7.9791413)">
    <path
       d="m 112.84,22.98 c 7.18,-2.84 15.09,-3.02 22.68,-2.24 4.93,0.95 10.45,1.92 14.04,5.75 0.78,2.35 -1.63,3.69 -3.37,4.61 -7.09,3.59 -15.27,3.9 -23.04,3.4 -5.69,-0.67 -11.53,-2.13 -16,-5.9 -0.07,-3.23 3.21,-4.53 5.69,-5.62 z"
       id="path8"
       style="fill:#4d4d4d;fill-opacity:1;stroke:none"
       inkscape:connector-curvature="0" />
    <path
       d="m 122.68,40.42 c 3.88,-0.09 7.76,-0.09 11.63,0 0.83,4.48 5.53,5.94 8.24,9.02 2.38,2.66 5.3,4.7 8.01,7 5.11,4.93 9.94,10.15 15.22,14.91 -14.13,14.36 -28.39,28.59 -42.6,42.87 -1.76,1.33 -1.75,4.23 0.02,5.55 3.01,2.99 6.03,5.99 9.04,8.99 1.31,1.77 4.21,1.77 5.52,0.01 13.36,-13.34 26.73,-26.68 40.15,-39.95 1.91,-1.95 4.09,0.51 5.21,2.07 3.77,5.82 5.91,12.49 7.86,19.09 1.27,4.18 1.21,8.62 0.86,12.93 -1.28,8.93 -3.01,18.14 -8.08,25.8 -2.41,5.06 -5.57,9.7 -8.75,14.3 -5.03,7.08 -7.12,15.69 -9.18,23.99 -24.89,0.01 -49.77,0.01 -74.66,0.01 -1.19,-5.3 -2.73,-10.51 -4.63,-15.59 -2.52,-6.65 -7.44,-11.94 -10.86,-18.08 -2.67,-5.4 -6.28,-10.37 -7.7,-16.32 -2.35,-9.25 -4.64,-19.25 -1.51,-28.6 1.71,-5.35 3.3,-10.84 6.4,-15.58 3.83,-5.73 8.82,-10.52 13.05,-15.93 6.07,-6.26 12.4,-12.26 18.49,-18.5 3.07,-3.29 7.06,-5.56 10.03,-8.96 2.71,-3.09 7.43,-4.54 8.24,-9.03 z"
       id="path10"
       style="fill:#4d4d4d;fill-opacity:1;stroke:none"
       inkscape:connector-curvature="0" />
    <path
       d="m 90.99,191.99 c 25.01,0 50.01,0.01 75.02,0 0.02,3.67 0.02,7.35 0,11.02 C 141,203 116,203 90.99,203.01 c -0.03,-3.67 -0.03,-7.35 0,-11.02 z"
       id="path12"
       style="fill:#4d4d4d;fill-opacity:1;stroke:none"
       inkscape:connector-curvature="0" />
    <path
       d="m 76.24,208.05 c 34.5,-0.11 69.02,-0.08 103.52,0 0.3,0.29 0.89,0.89 1.19,1.19 0.24,3.25 0.05,6.52 0.06,9.77 -35.34,0 -70.68,-0.01 -106.02,0 0.01,-3.25 -0.18,-6.51 0.07,-9.76 0.29,-0.3 0.89,-0.9 1.18,-1.2 z"
       id="path14"
       style="fill:#4d4d4d;fill-opacity:1;stroke:none"
       inkscape:connector-curvature="0" />
    <path
       d="m 61.27,224 c 44.49,-0.01 88.97,-0.01 133.46,0 2.37,2.47 4.8,4.89 7.28,7.26 0.03,4.92 0.01,9.84 0,14.76 C 152.67,246 103.33,246 53.99,246.01 53.98,241.1 53.95,236.18 54,231.26 c 2.47,-2.37 4.9,-4.79 7.27,-7.26 z"
       id="path16"
       style="fill:#4d4d4d;fill-opacity:1;stroke:none"
       inkscape:connector-curvature="0" />
  </g>
</svg>
