<?xml version="1.0" encoding="UTF-8" standalone="no"?>
<svg
   xmlns:dc="http://purl.org/dc/elements/1.1/"
   xmlns:cc="http://creativecommons.org/ns#"
   xmlns:rdf="http://www.w3.org/1999/02/22-rdf-syntax-ns#"
   xmlns:svg="http://www.w3.org/2000/svg"
   xmlns="http://www.w3.org/2000/svg"
   xmlns:sodipodi="http://sodipodi.sourceforge.net/DTD/sodipodi-0.dtd"
   xmlns:inkscape="http://www.inkscape.org/namespaces/inkscape"
   width="256pt"
   height="256pt"
   viewBox="0 0 256 256"
   version="1.1"
   id="svg2"
   inkscape:version="0.48.2 r9819"
   sodipodi:docname="bk.svg">
  <metadata
     id="metadata22">
    <rdf:RDF>
      <cc:Work
         rdf:about="">
        <dc:format>image/svg+xml</dc:format>
        <dc:type
           rdf:resource="http://purl.org/dc/dcmitype/StillImage" />
      </cc:Work>
    </rdf:RDF>
  </metadata>
  <defs
     id="defs20" />
  <sodipodi:namedview
     pagecolor="#ffffff"
     bordercolor="#666666"
     borderopacity="1"
     objecttolerance="10"
     gridtolerance="10"
     guidetolerance="10"
     inkscape:pageopacity="0"
     inkscape:pageshadow="2"
     inkscape:window-width="913"
     inkscape:window-height="480"
     id="namedview18"
     showgrid="false"
     inkscape:zoom="0.7375"
     inkscape:cx="-41.355932"
     inkscape:cy="160"
     inkscape:window-x="0"
     inkscape:window-y="0"
     inkscape:window-maximized="0"
     inkscape:current-layer="svg2" />
  <g
     id="#d9d9d9ff"
     transform="matrix(0.94,0,0,0.94,7.6801865,7.7103379)"
     style="fill:#f2f2f2">
    <path
       d="m 107.3,5.08 c 13.21,-0.21 26.45,0 39.67,-0.1 1.26,-0.19 2.24,0.24 2.95,1.31 0.22,2.78 0.06,5.58 0.07,8.37 -3.78,3.43 -7.19,7.25 -10.96,10.69 -0.03,1.88 -0.03,3.76 -0.03,5.64 2.21,0.02 4.41,0.01 6.62,-0.02 0.77,-0.79 1.55,-1.57 2.35,-2.35 0.41,-2.48 -1.06,-5.84 1.33,-7.54 4.84,-0.2 9.7,-0.07 14.56,-0.07 1.56,-0.14 2.45,1.65 2.16,3.02 -0.1,13.23 0.11,26.46 -0.1,39.68 -0.31,0.3 -0.91,0.91 -1.22,1.21 -5.13,0.16 -10.28,0.15 -15.4,0 -2.39,-1.71 -0.92,-5.06 -1.33,-7.55 -0.8,-0.77 -1.58,-1.55 -2.35,-2.35 -2.21,-0.02 -4.41,-0.03 -6.62,-0.01 0,4.66 0,9.32 0,13.99 14.33,-0.01 28.66,0.03 42.98,-0.03 2.43,5.04 2.85,10.69 4.24,16.03 12.5,0.06 25,-0.12 37.48,0.08 0.31,0.31 0.91,0.91 1.22,1.21 0.67,10.72 -0.25,21.58 -3.9,31.73 -6.09,12.03 -13.52,23.33 -19.69,35.32 -4.89,8.2 -9.46,16.6 -14.29,24.82 -0.09,8.16 -0.03,16.33 -0.01,24.49 2.02,1.86 3.93,3.84 5.97,5.7 0.01,3.2 -0.01,6.41 0,9.62 1.22,0.01 2.45,0.03 3.67,0.05 3.99,4.23 8.11,8.33 12.33,12.33 -0.02,6.5 0.05,13.01 -0.01,19.51 0.14,1.57 -1.66,2.45 -3.03,2.16 -52.27,-0.05 -104.54,0.01 -156.82,-0.03 -1.56,0.14 -2.45,-1.65 -2.16,-3.02 0.01,-6.21 0.02,-12.41 0.02,-18.62 4.22,-4 8.34,-8.11 12.33,-12.33 1.22,-0.02 2.44,-0.04 3.67,-0.05 0,-3.21 -0.01,-6.42 0,-9.62 2.03,-1.86 3.95,-3.84 5.98,-5.7 0.05,-7.57 -0.01,-15.13 0.03,-22.69 0.22,-1.41 -0.28,-2.71 -1.2,-3.76 C 60.68,163.93 53.84,151.51 46.79,139.21 42.73,131.62 37.87,124.47 34.35,116.6 32.37,108.87 30.46,101.03 30.99,93 31.43,90.4 29.84,86.88 32.3,85.08 44.78,84.88 57.28,85.06 69.78,85 c 1.39,-5.34 1.81,-10.99 4.24,-16.03 14.32,0.06 28.65,0.02 42.98,0.03 0,-4.67 0,-9.33 0,-13.99 -2.21,-0.02 -4.42,-0.01 -6.62,0.02 -0.77,0.79 -1.56,1.57 -2.35,2.34 -0.41,2.49 1.06,5.85 -1.33,7.55 -5.13,0.15 -10.28,0.16 -15.41,0 -0.3,-0.31 -0.9,-0.91 -1.21,-1.22 -0.21,-13.21 0,-26.44 -0.1,-39.66 -0.29,-1.37 0.59,-3.17 2.16,-3.03 4.85,0 9.72,-0.13 14.56,0.07 2.39,1.7 0.92,5.06 1.33,7.55 0.79,0.77 1.58,1.55 2.35,2.34 2.2,0.03 4.41,0.04 6.62,0.02 0,-1.88 0,-3.76 -0.03,-5.63 -3.77,-3.45 -7.18,-7.27 -10.96,-10.71 0.5,-3.11 -1.33,-7.26 1.29,-9.57 m 4.61,6.37 c 3.21,4.38 7.67,7.62 11.1,11.8 0.9,4.93 0.19,10.01 0.24,14.99 -4.64,-0.06 -9.39,0.64 -13.96,-0.3 -3.18,-3 -7.66,-5.78 -7.91,-10.59 -1.69,-0.02 -3.37,-0.04 -5.06,-0.06 0.07,10.5 -0.01,21.01 -0.09,31.51 1.74,-0.01 3.49,-0.03 5.24,-0.05 0.22,-4.82 4.65,-7.66 7.83,-10.66 4.56,-0.94 9.29,-0.23 13.92,-0.31 0.13,9.11 0.03,18.22 -0.12,27.32 -14.92,0.16 -29.85,-0.01 -44.78,0.08 -0.96,3.52 -1.9,7.06 -2.45,10.68 34.75,0.06 69.51,0.06 104.26,0 -0.55,-3.62 -1.49,-7.16 -2.45,-10.68 -14.93,-0.09 -29.86,0.08 -44.78,-0.08 -0.15,-9.1 -0.26,-18.21 -0.12,-27.31 4.63,0.06 9.36,-0.64 13.92,0.3 3.18,3 7.61,5.84 7.83,10.65 1.74,0.03 3.49,0.05 5.24,0.06 -0.09,-10.5 -0.16,-21.01 -0.09,-31.51 -1.69,0.02 -3.37,0.04 -5.06,0.06 -0.26,4.8 -4.72,7.59 -7.9,10.59 -4.57,0.94 -9.33,0.23 -13.97,0.3 0.05,-4.99 -0.66,-10.07 0.24,-14.99 3.43,-4.18 7.88,-7.42 11.11,-11.8 -10.73,-0.03 -21.46,-0.03 -32.19,0 M 37.08,91.06 c -0.46,8.77 0.52,17.81 3.9,25.96 11.15,19.82 22.33,39.63 33.6,59.39 0.86,3.43 0.23,7.08 0.4,10.6 35.35,-0.01 70.69,-0.01 106.04,0 0.17,-3.52 -0.47,-7.17 0.41,-10.61 11.25,-19.75 22.44,-39.56 33.58,-59.38 3.39,-8.15 4.37,-17.19 3.91,-25.96 -60.61,0.01 -121.23,0.01 -181.84,0 m 37.91,100.93 c -0.02,3.67 -0.02,7.35 0,11.02 35.34,-0.01 70.68,-0.01 106.02,0 0.02,-3.67 0.02,-7.35 0,-11.02 -35.34,0.01 -70.68,0.01 -106.02,0 m -4.95,17.24 c -0.23,3.25 -0.05,6.52 -0.04,9.79 38.67,-0.02 77.33,-0.02 116,0 0.01,-3.27 0.19,-6.54 -0.04,-9.79 -0.29,-0.3 -0.89,-0.89 -1.19,-1.19 -37.24,-0.14 -74.5,0.04 -111.75,-0.09 -1.28,-0.22 -2.28,0.2 -2.98,1.28 m -8.81,14.76 c -2.36,2.47 -4.77,4.88 -7.24,7.24 -0.02,4.93 -0.01,9.86 0,14.78 49.34,-0.01 98.68,-0.01 148.02,0 0.01,-4.93 0.02,-9.86 0,-14.78 -2.47,-2.36 -4.89,-4.77 -7.24,-7.24 -44.51,0 -89.03,0 -133.54,0 z"
       id="path5"
       inkscape:connector-curvature="0"
       style="fill:#f2f2f2" />
  </g>
  <g
     id="#626262ff"
     style="fill:#4d4d4d;fill-opacity:1;stroke:none"
     transform="matrix(0.94,0,0,0.94,7.6801865,7.7103356)">
    <path
       d="m 111.91,11.45 c 10.73,-0.03 21.46,-0.03 32.19,0 -3.23,4.38 -7.68,7.62 -11.11,11.8 -0.9,4.92 -0.19,10 -0.24,14.99 4.64,-0.07 9.4,0.64 13.97,-0.3 3.18,-3 7.64,-5.79 7.9,-10.59 1.69,-0.02 3.37,-0.04 5.06,-0.06 -0.07,10.5 0,21.01 0.09,31.51 -1.75,-0.01 -3.5,-0.03 -5.24,-0.06 -0.22,-4.81 -4.65,-7.65 -7.83,-10.65 -4.56,-0.94 -9.29,-0.24 -13.92,-0.3 -0.14,9.1 -0.03,18.21 0.12,27.31 14.92,0.16 29.85,-0.01 44.78,0.08 0.96,3.52 1.9,7.06 2.45,10.68 -34.75,0.06 -69.51,0.06 -104.26,0 0.55,-3.62 1.49,-7.16 2.45,-10.68 14.93,-0.09 29.86,0.08 44.78,-0.08 0.15,-9.1 0.25,-18.21 0.12,-27.32 -4.63,0.08 -9.36,-0.63 -13.92,0.31 -3.18,3 -7.61,5.84 -7.83,10.66 -1.75,0.02 -3.5,0.04 -5.24,0.05 0.08,-10.5 0.16,-21.01 0.09,-31.51 1.69,0.02 3.37,0.04 5.06,0.06 0.25,4.81 4.73,7.59 7.91,10.59 4.57,0.94 9.32,0.24 13.96,0.3 -0.05,-4.98 0.66,-10.06 -0.24,-14.99 -3.43,-4.18 -7.89,-7.42 -11.1,-11.8 z"
       id="path8"
       style="fill:#4d4d4d;fill-opacity:1;stroke:none"
       inkscape:connector-curvature="0" />
    <path
       d="m 37.08,91.06 c 60.61,0.01 121.23,0.01 181.84,0 0.46,8.77 -0.52,17.81 -3.91,25.96 -11.14,19.82 -22.33,39.63 -33.58,59.38 -0.88,3.44 -0.24,7.09 -0.41,10.61 -35.35,-0.01 -70.69,-0.01 -106.04,0 -0.17,-3.52 0.46,-7.17 -0.4,-10.6 C 63.31,156.65 52.13,136.84 40.98,117.02 37.6,108.87 36.62,99.83 37.08,91.06 z"
       id="path10"
       style="fill:#4d4d4d;fill-opacity:1;stroke:none"
       inkscape:connector-curvature="0" />
    <path
       d="m 74.99,191.99 c 35.34,0.01 70.68,0.01 106.02,0 0.02,3.67 0.02,7.35 0,11.02 -35.34,-0.01 -70.68,-0.01 -106.02,0 -0.02,-3.67 -0.02,-7.35 0,-11.02 z"
       id="path12"
       style="fill:#4d4d4d;fill-opacity:1;stroke:none"
       inkscape:connector-curvature="0" />
    <path
       d="m 70.04,209.23 c 0.7,-1.08 1.7,-1.5 2.98,-1.28 37.25,0.13 74.51,-0.05 111.75,0.09 0.3,0.3 0.9,0.89 1.19,1.19 0.23,3.25 0.05,6.52 0.04,9.79 -38.67,-0.02 -77.33,-0.02 -116,0 -0.01,-3.27 -0.19,-6.54 0.04,-9.79 z"
       id="path14"
       style="fill:#4d4d4d;fill-opacity:1;stroke:none"
       inkscape:connector-curvature="0" />
    <path
       d="m 61.23,223.99 c 44.51,0 89.03,0 133.54,0 2.35,2.47 4.77,4.88 7.24,7.24 0.02,4.92 0.01,9.85 0,14.78 -49.34,-0.01 -98.68,-0.01 -148.02,0 -0.01,-4.92 -0.02,-9.85 0,-14.78 2.47,-2.36 4.88,-4.77 7.24,-7.24 z"
       id="path16"
       style="fill:#4d4d4d;fill-opacity:1;stroke:none"
       inkscape:connector-curvature="0" />
  </g>
</svg>
