<?xml version="1.0" encoding="UTF-8" standalone="no"?>
<svg
   xmlns:dc="http://purl.org/dc/elements/1.1/"
   xmlns:cc="http://creativecommons.org/ns#"
   xmlns:rdf="http://www.w3.org/1999/02/22-rdf-syntax-ns#"
   xmlns:svg="http://www.w3.org/2000/svg"
   xmlns="http://www.w3.org/2000/svg"
   xmlns:sodipodi="http://sodipodi.sourceforge.net/DTD/sodipodi-0.dtd"
   xmlns:inkscape="http://www.inkscape.org/namespaces/inkscape"
   width="256pt"
   height="256pt"
   viewBox="0 0 256 256"
   version="1.1"
   id="svg2"
   inkscape:version="0.48.2 r9819"
   sodipodi:docname="bn.svg">
  <metadata
     id="metadata30">
    <rdf:RDF>
      <cc:Work
         rdf:about="">
        <dc:format>image/svg+xml</dc:format>
        <dc:type
           rdf:resource="http://purl.org/dc/dcmitype/StillImage" />
      </cc:Work>
    </rdf:RDF>
  </metadata>
  <defs
     id="defs28" />
  <sodipodi:namedview
     pagecolor="#ffffff"
     bordercolor="#666666"
     borderopacity="1"
     objecttolerance="10"
     gridtolerance="10"
     guidetolerance="10"
     inkscape:pageopacity="0"
     inkscape:pageshadow="2"
     inkscape:window-width="696"
     inkscape:window-height="480"
     id="namedview26"
     showgrid="false"
     inkscape:zoom="0.7375"
     inkscape:cx="110.67362"
     inkscape:cy="160"
     inkscape:window-x="0"
     inkscape:window-y="0"
     inkscape:window-maximized="0"
     inkscape:current-layer="svg2" />
  <g
     id="#d9d9d9ff"
     style="fill:#f2f2f2;fill-opacity:1"
     transform="matrix(0.94,0,0,0.94,7.3173173,7.8575923)">
    <path
       d="m 122.1,13.18 c 0.23,-2.05 3.31,-4.61 5.03,-2.45 5.78,5.33 11.46,10.93 15.34,17.84 1.76,3.22 5.55,4 8.68,5.26 7.72,2.5 15.08,6.43 21.1,11.9 7.28,7.41 15.24,14.36 20.73,23.3 4.15,6.88 8.22,13.97 10.23,21.82 2,5.6 2.28,11.59 3.65,17.34 1.99,7.11 0.86,14.54 1.16,21.8 0.37,8.24 -1.18,16.38 -2.62,24.44 -3.42,13.05 -12.23,24.55 -12.85,38.33 -3.17,0.29 -6.37,0.19 -9.55,0.3 0,2.82 -0.01,5.63 -0.01,8.44 4.27,0.41 7.25,3.75 9.71,6.94 0.58,2.98 0.28,6.05 0.32,9.07 1.84,0.48 3.88,0.76 5.23,2.26 3.24,3.1 6.42,6.26 9.51,9.51 1.42,1.13 1.17,3.04 1.27,4.66 -0.02,5.92 0.14,11.86 -0.31,17.78 -2.56,0.22 -5.13,0.29 -7.69,0.29 -49.02,-0.02 -98.05,-0.01 -147.07,0 -2.23,-0.01 -4.46,-0.11 -6.68,-0.29 -0.43,-6.54 -0.39,-13.11 -0.23,-19.65 0,-2.63 2.66,-4.04 4.16,-5.86 3.69,-3.17 6.48,-8.18 11.77,-8.69 0.04,-3.03 -0.26,-6.1 0.33,-9.08 1.72,-2.32 3.81,-4.41 6.13,-6.13 3.15,-0.61 6.38,-0.28 9.56,-0.34 0,-2.98 0,-5.95 0,-8.93 -2.88,-0.04 -5.8,0.19 -8.65,-0.28 -1.94,-0.65 -1.23,-3.21 -1.42,-4.75 0.46,-7.45 1.77,-15.42 6.81,-21.24 7.71,-8.37 17.07,-14.95 25.61,-22.41 4.74,-3.57 8.56,-8.17 13.33,-11.68 2.89,-2.01 2.43,-5.89 3.39,-8.89 -4.03,1.35 -8.07,2.72 -12.05,4.24 -3.78,1.55 -7.96,0.87 -11.93,0.99 -1.99,2.68 -3.15,6.1 -5.92,8.11 -3.16,1.47 -6.86,2.01 -9.51,4.43 -1.52,2.84 -2.82,5.81 -4.66,8.47 -3.93,-0.04 -7.85,-0.03 -11.78,-0.03 -3.45,-4.41 -7.52,-8.45 -9.8,-13.64 -2.77,-0.59 -5.93,-0.66 -8.21,-2.52 -1.07,-1.59 -1.16,-3.59 -1.79,-5.35 -1.59,-4.99 -6.18,-8.48 -7.26,-13.66 -0.33,-3.46 -0.51,-7.02 0.19,-10.44 1.26,-2.86 3.05,-5.57 5.44,-7.6 4.34,-3.11 9.93,-3.72 14.36,-6.63 3.25,-2.73 6.17,-5.84 8.94,-9.05 4.99,-6.64 11.83,-11.58 16.8,-18.22 3.88,-4.45 8.22,-8.47 12.35,-12.67 1.99,-2.24 5.04,-2.8 7.77,-3.64 0.05,-7.84 -0.13,-15.68 0.02,-23.52 -0.23,-2.14 2.28,-5.12 4.47,-3.73 6.36,4.36 11.74,10.02 16.47,16.08 0.18,-7.41 -0.22,-14.83 0.13,-22.23 m 6.2,6.8 c -0.04,5.69 0.24,11.39 0.06,17.08 -0.17,1.91 -0.1,4.35 -1.95,5.51 -2.41,1.44 -6.08,1.24 -7.72,-1.28 -3.59,-4.6 -7.1,-9.29 -11.44,-13.23 -0.01,6.67 0.26,13.33 0.08,19.99 -0.18,1.86 -0.05,4.32 -1.95,5.35 -3.3,1.09 -7.3,0.44 -10.03,2.94 -4.08,3.59 -7.53,7.81 -11.12,11.88 -3.74,4.25 -8.1,7.91 -11.8,12.2 -3.99,4.66 -8.14,9.2 -12.68,13.34 -4.46,4.19 -11.08,4.49 -15.88,8.11 -3.55,2.9 -2.86,7.86 -3.13,11.92 2.4,-0.89 4.81,-1.72 7.22,-2.58 1.14,-2.52 2.95,-4.61 5.98,-4.32 -0.32,3.12 0.13,7.17 -2.72,9.27 -2.35,0.92 -4.91,1.08 -7.36,1.59 1.98,4.03 3.86,8.12 5.68,12.23 4.01,-0.7 8.63,-0.61 11.69,-3.73 3.94,-3.71 7.92,-8.22 13.79,-8.34 -0.37,1.54 0.1,3.6 -1.42,4.63 -4.93,3.86 -10.06,7.52 -14.65,11.8 0.57,5.27 5.67,11.64 11.57,9.49 1.62,-2.2 2.45,-4.94 4.39,-6.9 3.29,-2.56 7.62,-3.44 10.69,-6.31 2.2,-2.24 3.78,-4.99 5.57,-7.54 8.81,0.76 17.71,-1.15 25.35,-5.59 3.45,-3.04 4.98,-7.6 7.94,-11.05 1.03,-1.52 3.1,-1.08 4.66,-1.48 -0.54,3.15 -1.68,6.14 -3.15,8.97 -3.12,6.03 -1.5,13.14 -3.64,19.42 -7.86,8.53 -17.51,15.13 -26.13,22.84 -5.45,4.89 -11.84,8.81 -16.4,14.63 -3.53,4.63 -4.19,10.6 -5.08,16.17 37.33,0.05 74.65,0.01 111.98,0.03 2.53,-7.95 5.55,-15.75 9.1,-23.3 6.92,-14.52 6.46,-31.06 6.19,-46.76 -0.22,-4.97 -1.59,-9.78 -2.29,-14.69 -1.96,-14.16 -8.84,-27.24 -17.69,-38.3 -4.08,-4.57 -8.53,-8.8 -12.92,-13.07 -7.18,-6.77 -16.52,-10.61 -26.01,-12.83 -3.23,-0.53 -4.36,-3.92 -5.94,-6.32 -2.35,-4.34 -5.49,-8.17 -8.84,-11.77 M 85.97,191.99 c 0,3.67 0,7.35 0,11.02 30.02,0 60.04,0 90.06,0 0,-3.67 0,-7.35 0,-11.02 -30.02,0 -60.04,-0.01 -90.06,0 M 70.1,208.11 c -0.15,3.63 -0.14,7.27 -0.18,10.91 38.72,-0.01 77.44,-0.01 116.16,0 -0.04,-3.64 -0.03,-7.28 -0.18,-10.91 -4.3,-0.2 -8.6,-0.16 -12.9,-0.15 -34.3,0.16 -68.6,-0.16 -102.9,0.15 m -8.64,16.23 c -2.83,1.81 -5.3,4.28 -7.12,7.11 -0.97,4.77 -0.25,9.72 -0.33,14.56 49.33,0 98.65,0 147.98,0 -0.08,-4.84 0.64,-9.79 -0.33,-14.56 -2.57,-3.44 -5.77,-7.94 -10.6,-7.55 -38.68,0.18 -77.37,0.05 -116.06,0.08 -4.5,0.12 -9.1,-0.56 -13.54,0.36 z"
       id="path5"
       style="fill:#f2f2f2;fill-opacity:1"
       inkscape:connector-curvature="0" />
    <path
       d="m 114.47,59.28 c 1.69,-1.26 4.58,0.45 3.51,2.57 -1.96,7 -8.78,12.24 -15.86,13.27 -1.1,-1.13 -1.85,-3.07 -0.41,-4.28 3.68,-4.4 7.87,-8.52 12.76,-11.56 z"
       id="path7"
       style="fill:#f2f2f2;fill-opacity:1"
       inkscape:connector-curvature="0" />
    <path
       d="m 143.89,71.84 c -0.65,-2.45 2.68,-4.04 4.27,-2.14 5.8,4.87 11.86,11.24 11.95,19.3 -0.1,8.87 -5.21,16.73 -11.32,22.79 -2.71,2.84 -5.51,6.3 -9.82,6.29 0.27,-1.84 0.39,-3.88 1.77,-5.29 3.81,-4.2 8.61,-7.64 11.21,-12.82 2.07,-4.21 3.72,-9 2.84,-13.73 -1.65,-6.09 -7.67,-9.32 -10.9,-14.4 z"
       id="path9"
       style="fill:#f2f2f2;fill-opacity:1"
       inkscape:connector-curvature="0" />
    <path
       d="m 179.05,105.08 c 2.46,-3.05 4.33,-7.79 9.09,-7.1 -0.54,2.82 -1.39,5.65 -3.26,7.9 -4.75,6.19 -10.64,11.43 -16.72,16.3 -2.01,1.76 -4.61,2.48 -7.18,2.94 0.31,-1.82 0.16,-4.03 1.88,-5.2 5.65,-4.64 11.76,-8.91 16.19,-14.84 z"
       id="path11"
       style="fill:#f2f2f2;fill-opacity:1"
       inkscape:connector-curvature="0" />
    <path
       d="m 183.12,122.13 c 1.51,-2.58 3.88,-4.44 7.02,-4.14 -0.52,2.56 -1.22,5.16 -2.92,7.22 -5.05,6.55 -10.96,12.44 -17.45,17.57 -2.19,1.9 -4.95,2.84 -7.76,3.33 0.14,-2.13 0.34,-4.47 2.4,-5.63 7.14,-5.1 13.7,-11.1 18.71,-18.35 z"
       id="path13"
       style="fill:#f2f2f2;fill-opacity:1"
       inkscape:connector-curvature="0" />
    <path
       d="m 185.46,143.4 c 1.2,-2 3.53,-2.23 5.64,-2.41 -0.42,5.2 -4.34,8.87 -7.51,12.62 -5.78,6.61 -12.35,12.63 -20.07,16.92 -1.72,0.86 -3.65,1.13 -5.5,1.54 -0.66,-4.47 3.77,-6.19 6.81,-8.22 8.43,-5.04 14.73,-12.76 20.63,-20.45 z"
       id="path15"
       style="fill:#f2f2f2;fill-opacity:1"
       inkscape:connector-curvature="0" />
  </g>
  <g
     id="#676767ff"
     style="fill:#4d4d4d;fill-opacity:1"
     transform="matrix(0.94,0,0,0.94,7.3173141,7.8575937)">
    <path
       d="m 128.3,19.98 c 3.35,3.6 6.49,7.43 8.84,11.77 1.58,2.4 2.71,5.79 5.94,6.32 9.49,2.22 18.83,6.06 26.01,12.83 4.39,4.27 8.84,8.5 12.92,13.07 8.85,11.06 15.73,24.14 17.69,38.3 0.7,4.91 2.07,9.72 2.29,14.69 0.27,15.7 0.73,32.24 -6.19,46.76 -3.55,7.55 -6.57,15.35 -9.1,23.3 -37.33,-0.02 -74.65,0.02 -111.98,-0.03 0.89,-5.57 1.55,-11.54 5.08,-16.17 4.56,-5.82 10.95,-9.74 16.4,-14.63 8.62,-7.71 18.27,-14.31 26.13,-22.84 2.14,-6.28 0.52,-13.39 3.64,-19.42 1.47,-2.83 2.61,-5.82 3.15,-8.97 -1.56,0.4 -3.63,-0.04 -4.66,1.48 -2.96,3.45 -4.49,8.01 -7.94,11.05 -7.64,4.44 -16.54,6.35 -25.35,5.59 -1.79,2.55 -3.37,5.3 -5.57,7.54 -3.07,2.87 -7.4,3.75 -10.69,6.31 -1.94,1.96 -2.77,4.7 -4.39,6.9 -5.9,2.15 -11,-4.22 -11.57,-9.49 4.59,-4.28 9.72,-7.94 14.65,-11.8 1.52,-1.03 1.05,-3.09 1.42,-4.63 -5.87,0.12 -9.85,4.63 -13.79,8.34 -3.06,3.12 -7.68,3.03 -11.69,3.73 -1.82,-4.11 -3.7,-8.2 -5.68,-12.23 2.45,-0.51 5.01,-0.67 7.36,-1.59 2.85,-2.1 2.4,-6.15 2.72,-9.27 -3.03,-0.29 -4.84,1.8 -5.98,4.32 -2.41,0.86 -4.82,1.69 -7.22,2.58 0.27,-4.06 -0.42,-9.02 3.13,-11.92 4.8,-3.62 11.42,-3.92 15.88,-8.11 4.54,-4.14 8.69,-8.68 12.68,-13.34 3.7,-4.29 8.06,-7.95 11.8,-12.2 3.59,-4.07 7.04,-8.29 11.12,-11.88 2.73,-2.5 6.73,-1.85 10.03,-2.94 1.9,-1.03 1.77,-3.49 1.95,-5.35 0.18,-6.66 -0.09,-13.32 -0.08,-19.99 4.34,3.94 7.85,8.63 11.44,13.23 1.64,2.52 5.31,2.72 7.72,1.28 1.85,-1.16 1.78,-3.6 1.95,-5.51 0.18,-5.69 -0.1,-11.39 -0.06,-17.08 m -13.83,39.3 c -4.89,3.04 -9.08,7.16 -12.76,11.56 -1.44,1.21 -0.69,3.15 0.41,4.28 7.08,-1.03 13.9,-6.27 15.86,-13.27 1.07,-2.12 -1.82,-3.83 -3.51,-2.57 m 29.42,12.56 c 3.23,5.08 9.25,8.31 10.9,14.4 0.88,4.73 -0.77,9.52 -2.84,13.73 -2.6,5.18 -7.4,8.62 -11.21,12.82 -1.38,1.41 -1.5,3.45 -1.77,5.29 4.31,0.01 7.11,-3.45 9.82,-6.29 6.11,-6.06 11.22,-13.92 11.32,-22.79 -0.09,-8.06 -6.15,-14.43 -11.95,-19.3 -1.59,-1.9 -4.92,-0.31 -4.27,2.14 m 35.16,33.24 c -4.43,5.93 -10.54,10.2 -16.19,14.84 -1.72,1.17 -1.57,3.38 -1.88,5.2 2.57,-0.46 5.17,-1.18 7.18,-2.94 6.08,-4.87 11.97,-10.11 16.72,-16.3 1.87,-2.25 2.72,-5.08 3.26,-7.9 -4.76,-0.69 -6.63,4.05 -9.09,7.1 m 4.07,17.05 c -5.01,7.25 -11.57,13.25 -18.71,18.35 -2.06,1.16 -2.26,3.5 -2.4,5.63 2.81,-0.49 5.57,-1.43 7.76,-3.33 6.49,-5.13 12.4,-11.02 17.45,-17.57 1.7,-2.06 2.4,-4.66 2.92,-7.22 -3.14,-0.3 -5.51,1.56 -7.02,4.14 m 2.34,21.27 c -5.9,7.69 -12.2,15.41 -20.63,20.45 -3.04,2.03 -7.47,3.75 -6.81,8.22 1.85,-0.41 3.78,-0.68 5.5,-1.54 7.72,-4.29 14.29,-10.31 20.07,-16.92 3.17,-3.75 7.09,-7.42 7.51,-12.62 -2.11,0.18 -4.44,0.41 -5.64,2.41 z"
       id="path18"
       style="fill:#4d4d4d;fill-opacity:1"
       inkscape:connector-curvature="0" />
    <path
       d="m 85.97,191.99 c 30.02,-0.01 60.04,0 90.06,0 0,3.67 0,7.35 0,11.02 -30.02,0 -60.04,0 -90.06,0 0,-3.67 0,-7.35 0,-11.02 z"
       id="path20"
       style="fill:#4d4d4d;fill-opacity:1"
       inkscape:connector-curvature="0" />
    <path
       d="m 70.1,208.11 c 34.3,-0.31 68.6,0.01 102.9,-0.15 4.3,-0.01 8.6,-0.05 12.9,0.15 0.15,3.63 0.14,7.27 0.18,10.91 -38.72,-0.01 -77.44,-0.01 -116.16,0 0.04,-3.64 0.03,-7.28 0.18,-10.91 z"
       id="path22"
       style="fill:#4d4d4d;fill-opacity:1"
       inkscape:connector-curvature="0" />
    <path
       d="m 61.46,224.34 c 4.44,-0.92 9.04,-0.24 13.54,-0.36 38.69,-0.03 77.38,0.1 116.06,-0.08 4.83,-0.39 8.03,4.11 10.6,7.55 0.97,4.77 0.25,9.72 0.33,14.56 -49.33,0 -98.65,0 -147.98,0 0.08,-4.84 -0.64,-9.79 0.33,-14.56 1.82,-2.83 4.29,-5.3 7.12,-7.11 z"
       id="path24"
       style="fill:#4d4d4d;fill-opacity:1"
       inkscape:connector-curvature="0" />
  </g>
</svg>
