<?xml version="1.0" encoding="UTF-8" standalone="no"?>
<svg
   xmlns:dc="http://purl.org/dc/elements/1.1/"
   xmlns:cc="http://creativecommons.org/ns#"
   xmlns:rdf="http://www.w3.org/1999/02/22-rdf-syntax-ns#"
   xmlns:svg="http://www.w3.org/2000/svg"
   xmlns="http://www.w3.org/2000/svg"
   xmlns:sodipodi="http://sodipodi.sourceforge.net/DTD/sodipodi-0.dtd"
   xmlns:inkscape="http://www.inkscape.org/namespaces/inkscape"
   width="256pt"
   height="256pt"
   viewBox="0 0 256 256"
   version="1.1"
   id="svg2"
   inkscape:version="0.48.2 r9819"
   sodipodi:docname="bq.svg">
  <metadata
     id="metadata30">
    <rdf:RDF>
      <cc:Work
         rdf:about="">
        <dc:format>image/svg+xml</dc:format>
        <dc:type
           rdf:resource="http://purl.org/dc/dcmitype/StillImage" />
      </cc:Work>
    </rdf:RDF>
  </metadata>
  <defs
     id="defs28" />
  <sodipodi:namedview
     pagecolor="#ffffff"
     bordercolor="#666666"
     borderopacity="1"
     objecttolerance="10"
     gridtolerance="10"
     guidetolerance="10"
     inkscape:pageopacity="0"
     inkscape:pageshadow="2"
     inkscape:window-width="696"
     inkscape:window-height="480"
     id="namedview26"
     showgrid="false"
     inkscape:zoom="0.7375"
     inkscape:cx="162.53691"
     inkscape:cy="160"
     inkscape:window-x="0"
     inkscape:window-y="0"
     inkscape:window-maximized="0"
     inkscape:current-layer="svg2" />
  <g
     id="#d9d9d9ff"
     transform="matrix(0.94,0,0,0.94,7.6790261,7.947201)"
     style="fill:#f2f2f2">
    <path
       d="m 112.93,29.01 c -1.21,-8.42 6.6,-16.79 15.08,-16.12 9.44,-0.1 16.84,10.66 13.37,19.48 -1.13,3.58 -4.55,5.61 -6.38,8.71 1.86,7.32 5.03,14.23 7.56,21.34 3.08,8.95 6.63,17.72 9.72,26.66 5.81,-10.9 11.16,-22.08 16.69,-33.14 -2.23,-3.71 -7.37,-5.95 -7.03,-10.92 -1.61,-8.73 6.12,-17.84 15.07,-17.13 9.72,-0.12 17.23,11.31 13.07,20.18 -1.57,4.01 -5.18,6.53 -8.84,8.46 -0.56,1.83 0.39,3.7 0.71,5.49 3.31,11.96 5.72,24.17 9.31,36.04 2.82,-0.68 4.35,-3.54 6.62,-5.16 4.96,-4.64 11.02,-8.28 15.08,-13.8 -4.34,-5.31 -4.25,-13.67 0.27,-18.86 4.46,-5.79 13.48,-7.24 19.41,-2.88 6.34,4.08 8.63,13.32 4.39,19.67 -2.64,4.51 -7.61,6.89 -12.68,7.36 -12.77,34.15 -24.38,68.77 -36.88,103.04 -0.94,5.01 -0.53,10.23 -0.3,15.3 1.23,2.33 4.16,3.36 5.6,5.63 0.45,3.09 0.07,6.23 0.38,9.33 2.1,0.48 4.64,0.15 6.09,2.08 3.08,3.29 6.49,6.25 9.45,9.64 0.74,6.47 0.17,13.05 0.31,19.56 0.37,1.83 -1.2,3.4 -3.03,3.03 -51.98,0 -103.96,0 -155.94,0 -1.83,0.37 -3.4,-1.2 -3.03,-3.03 0.14,-6.51 -0.42,-13.09 0.31,-19.56 2.96,-3.39 6.37,-6.35 9.44,-9.63 1.45,-1.94 3.99,-1.62 6.1,-2.09 0.24,-2.55 0.07,-5.11 0.2,-7.65 -0.28,-4.25 6.46,-4.69 5.94,-9 -0.07,-4.53 0.51,-9.16 -0.46,-13.61 C 56.03,153.16 44.42,118.54 31.65,84.39 25.81,83.97 20.22,80.58 17.93,75.07 c -3.41,-7.49 1.13,-16.73 8.7,-19.45 9.19,-3.64 20.28,4.54 19.48,14.38 0.52,3.44 -1.27,6.36 -3.07,9.1 1.18,2.03 3,3.58 4.75,5.1 5.31,4.34 10.5,8.85 15.59,13.45 0.34,0.1 1.02,0.31 1.36,0.41 3.59,-11.87 6,-24.08 9.32,-36.04 0.32,-1.79 1.22,-3.65 0.71,-5.49 -3.67,-1.92 -7.27,-4.45 -8.84,-8.46 -4.17,-8.87 3.34,-20.3 13.06,-20.18 5.78,-0.51 11.23,3.34 13.76,8.37 1.8,3.21 1.44,7.07 1.14,10.6 -0.82,3.95 -4.95,5.78 -6.86,9.08 5.53,11.06 10.88,22.24 16.69,33.15 4.97,-13.77 10.06,-27.49 15.18,-41.21 0.77,-2.22 1.63,-4.43 2.11,-6.75 -3.66,-3.22 -8.01,-6.77 -8.08,-12.12 m 11.55,-9.4 c -5.5,1.6 -6.85,9.28 -3.49,13.43 2.4,3.01 6.85,3.32 10.26,2.1 5.61,-2.34 6.16,-11.25 1.23,-14.57 -2.31,-1.58 -5.37,-1.59 -8,-0.96 M 76.47,34.6 c -5.53,1.59 -6.84,9.29 -3.5,13.46 2.41,3.01 6.88,3.32 10.29,2.09 5.86,-2.41 6.16,-12.01 0.64,-14.96 -2.26,-1.21 -5,-1.18 -7.43,-0.59 m 97,0.01 c -5.54,1.58 -6.83,9.28 -3.51,13.45 2.41,3.02 6.88,3.3 10.29,2.1 5.87,-2.42 6.17,-12.01 0.65,-14.97 -2.25,-1.21 -5.01,-1.19 -7.43,-0.58 m -65.54,61.1 c -0.58,1.52 -1.18,3.05 -2.12,4.39 -1.2,0.18 -2.39,0.18 -3.59,-0.01 C 95.36,86.1 88.23,72.2 81.35,58.2 c -2.17,9.61 -4.59,19.17 -7.3,28.65 -1.89,6.67 -3.1,13.54 -5.33,20.11 -2.97,0.95 -5.3,-1.56 -7.41,-3.23 -4.5,-4.18 -9.18,-8.15 -13.9,-12.08 -2.74,-2.24 -5.1,-5.02 -8.28,-6.69 0.68,4.76 2.85,9.1 4.41,13.6 3.51,10.66 7.33,21.22 11.13,31.79 6.22,18.93 13.51,37.51 19.7,56.44 3.85,0.53 7.75,0.17 11.63,0.22 28,0 56,0 84,0 3.87,-0.04 7.77,0.31 11.63,-0.22 2.07,-5.7 3.6,-11.59 5.95,-17.2 10.19,-28.52 20.01,-57.18 30.18,-85.7 -3.23,2 -5.71,4.92 -8.62,7.31 -4.91,4.08 -9.78,8.2 -14.46,12.53 -2.1,1.68 -4.44,4.18 -7.4,3.24 -0.93,-2.37 -1.48,-4.86 -2.1,-7.31 -3.3,-13.88 -7.56,-27.52 -10.51,-41.49 -6.9,14 -14.02,27.92 -20.89,41.92 -1.2,0.18 -2.39,0.18 -3.59,0 -1.53,-2.19 -2.22,-4.81 -3.16,-7.28 C 140.79,75.45 134.24,58.19 128,40.84 121.41,59.16 114.48,77.36 107.93,95.71 M 28.46,61.57 c -6.52,1.82 -7.18,12.2 -1.4,15.29 2.52,1.25 5.6,1.25 8.21,0.32 6.15,-2.48 6.14,-12.88 -0.01,-15.34 -2.15,-0.83 -4.58,-0.82 -6.8,-0.27 m 193.01,0 c -5.37,1.49 -6.69,8.68 -3.96,12.97 2.28,3.45 7.13,3.98 10.76,2.64 6.16,-2.47 6.14,-12.88 -0.01,-15.34 -2.15,-0.82 -4.58,-0.82 -6.79,-0.27 M 75.11,192.1 c -0.32,3.59 -0.32,7.21 0,10.8 35.25,0.18 70.53,0.19 105.78,0 0.32,-3.59 0.32,-7.21 0,-10.8 -35.25,-0.18 -70.53,-0.19 -105.78,0 m -4.4,17.56 c -2.93,2.08 -1.61,6.21 -1.64,9.25 39.28,0.17 78.58,0.16 117.86,0.01 0.86,-4.33 0.44,-10.29 -5.07,-10.81 -34.62,-0.34 -69.26,0.06 -103.88,-0.19 -2.51,-0.02 -5.28,-0.02 -7.27,1.74 m -9.32,14.62 c -2.97,2.4 -5.7,5.14 -8.11,8.11 -0.69,4.46 -0.37,9.03 -0.19,13.53 49.93,0.16 99.89,0.15 149.81,0 0.18,-4.5 0.5,-9.07 -0.18,-13.53 -2.21,-2.81 -4.83,-5.28 -7.49,-7.65 -1.12,-1.04 -2.81,-0.65 -4.18,-0.81 -39.35,0.14 -78.7,0.02 -118.05,0.06 -3.87,0.1 -7.79,-0.43 -11.61,0.29 z"
       id="path5"
       inkscape:connector-curvature="0"
       style="fill:#f2f2f2" />
  </g>
  <g
     id="#646464ff"
     style="fill:#4d4d4d;fill-opacity:1"
     transform="matrix(0.94,0,0,0.94,7.6790261,7.9471988)">
    <path
       d="m 124.48,19.61 c 2.63,-0.63 5.69,-0.62 8,0.96 4.93,3.32 4.38,12.23 -1.23,14.57 -3.41,1.22 -7.86,0.91 -10.26,-2.1 -3.36,-4.15 -2.01,-11.83 3.49,-13.43 z"
       id="path8"
       style="fill:#4d4d4d;fill-opacity:1"
       inkscape:connector-curvature="0" />
    <path
       d="m 76.47,34.6 c 2.43,-0.59 5.17,-0.62 7.43,0.59 5.52,2.95 5.22,12.55 -0.64,14.96 -3.41,1.23 -7.88,0.92 -10.29,-2.09 -3.34,-4.17 -2.03,-11.87 3.5,-13.46 z"
       id="path10"
       style="fill:#4d4d4d;fill-opacity:1"
       inkscape:connector-curvature="0" />
    <path
       d="m 173.47,34.61 c 2.42,-0.61 5.18,-0.63 7.43,0.58 5.52,2.96 5.22,12.55 -0.65,14.97 -3.41,1.2 -7.88,0.92 -10.29,-2.1 -3.32,-4.17 -2.03,-11.87 3.51,-13.45 z"
       id="path12"
       style="fill:#4d4d4d;fill-opacity:1"
       inkscape:connector-curvature="0" />
    <path
       d="m 107.93,95.71 c 6.55,-18.35 13.48,-36.55 20.07,-54.87 6.24,17.35 12.79,34.61 19.03,51.97 0.94,2.47 1.63,5.09 3.16,7.28 1.2,0.18 2.39,0.18 3.59,0 6.87,-14 13.99,-27.92 20.89,-41.92 2.95,13.97 7.21,27.61 10.51,41.49 0.62,2.45 1.17,4.94 2.1,7.31 2.96,0.94 5.3,-1.56 7.4,-3.24 4.68,-4.33 9.55,-8.45 14.46,-12.53 2.91,-2.39 5.39,-5.31 8.62,-7.31 -10.17,28.52 -19.99,57.18 -30.18,85.7 -2.35,5.61 -3.88,11.5 -5.95,17.2 -3.86,0.53 -7.76,0.18 -11.63,0.22 -28,0 -56,0 -84,0 -3.88,-0.05 -7.78,0.31 -11.63,-0.22 -6.19,-18.93 -13.48,-37.51 -19.7,-56.44 -3.8,-10.57 -7.62,-21.13 -11.13,-31.79 -1.56,-4.5 -3.73,-8.84 -4.41,-13.6 3.18,1.67 5.54,4.45 8.28,6.69 4.72,3.93 9.4,7.9 13.9,12.08 2.11,1.67 4.44,4.18 7.41,3.23 2.23,-6.57 3.44,-13.44 5.33,-20.11 2.71,-9.48 5.13,-19.04 7.3,-28.65 6.88,14 14.01,27.9 20.87,41.89 1.2,0.19 2.39,0.19 3.59,0.01 0.94,-1.34 1.54,-2.87 2.12,-4.39 z"
       id="path14"
       style="fill:#4d4d4d;fill-opacity:1"
       inkscape:connector-curvature="0" />
    <path
       d="m 28.46,61.57 c 2.22,-0.55 4.65,-0.56 6.8,0.27 6.15,2.46 6.16,12.86 0.01,15.34 -2.61,0.93 -5.69,0.93 -8.21,-0.32 -5.78,-3.09 -5.12,-13.47 1.4,-15.29 z"
       id="path16"
       style="fill:#4d4d4d;fill-opacity:1"
       inkscape:connector-curvature="0" />
    <path
       d="m 221.47,61.57 c 2.21,-0.55 4.64,-0.55 6.79,0.27 6.15,2.46 6.17,12.87 0.01,15.34 -3.63,1.34 -8.48,0.81 -10.76,-2.64 -2.73,-4.29 -1.41,-11.48 3.96,-12.97 z"
       id="path18"
       style="fill:#4d4d4d;fill-opacity:1"
       inkscape:connector-curvature="0" />
    <path
       d="m 75.11,192.1 c 35.25,-0.19 70.53,-0.18 105.78,0 0.32,3.59 0.32,7.21 0,10.8 -35.25,0.19 -70.53,0.18 -105.78,0 -0.32,-3.59 -0.32,-7.21 0,-10.8 z"
       id="path20"
       style="fill:#4d4d4d;fill-opacity:1"
       inkscape:connector-curvature="0" />
    <path
       d="m 70.71,209.66 c 1.99,-1.76 4.76,-1.76 7.27,-1.74 34.62,0.25 69.26,-0.15 103.88,0.19 5.51,0.52 5.93,6.48 5.07,10.81 -39.28,0.15 -78.58,0.16 -117.86,-0.01 0.03,-3.04 -1.29,-7.17 1.64,-9.25 z"
       id="path22"
       style="fill:#4d4d4d;fill-opacity:1"
       inkscape:connector-curvature="0" />
    <path
       d="m 61.39,224.28 c 3.82,-0.72 7.74,-0.19 11.61,-0.29 39.35,-0.04 78.7,0.08 118.05,-0.06 1.37,0.16 3.06,-0.23 4.18,0.81 2.66,2.37 5.28,4.84 7.49,7.65 0.68,4.46 0.36,9.03 0.18,13.53 -49.92,0.15 -99.88,0.16 -149.81,0 -0.18,-4.5 -0.5,-9.07 0.19,-13.53 2.41,-2.97 5.14,-5.71 8.11,-8.11 z"
       id="path24"
       style="fill:#4d4d4d;fill-opacity:1"
       inkscape:connector-curvature="0" />
  </g>
</svg>
