<?xml version="1.0" encoding="UTF-8" standalone="no"?>
<svg
   xmlns:dc="http://purl.org/dc/elements/1.1/"
   xmlns:cc="http://creativecommons.org/ns#"
   xmlns:rdf="http://www.w3.org/1999/02/22-rdf-syntax-ns#"
   xmlns:svg="http://www.w3.org/2000/svg"
   xmlns="http://www.w3.org/2000/svg"
   xmlns:sodipodi="http://sodipodi.sourceforge.net/DTD/sodipodi-0.dtd"
   xmlns:inkscape="http://www.inkscape.org/namespaces/inkscape"
   width="256pt"
   height="256pt"
   viewBox="0 0 256 256"
   version="1.1"
   id="svg2"
   inkscape:version="0.48.2 r9819"
   sodipodi:docname="br.svg">
  <metadata
     id="metadata40">
    <rdf:RDF>
      <cc:Work
         rdf:about="">
        <dc:format>image/svg+xml</dc:format>
        <dc:type
           rdf:resource="http://purl.org/dc/dcmitype/StillImage" />
      </cc:Work>
    </rdf:RDF>
  </metadata>
  <defs
     id="defs38" />
  <sodipodi:namedview
     pagecolor="#ffffff"
     bordercolor="#666666"
     borderopacity="1"
     objecttolerance="10"
     gridtolerance="10"
     guidetolerance="10"
     inkscape:pageopacity="0"
     inkscape:pageshadow="2"
     inkscape:window-width="696"
     inkscape:window-height="480"
     id="namedview36"
     showgrid="false"
     inkscape:zoom="0.7375"
     inkscape:cx="168.93015"
     inkscape:cy="107.09785"
     inkscape:window-x="0"
     inkscape:window-y="0"
     inkscape:window-maximized="0"
     inkscape:current-layer="svg2" />
  <g
     id="#d9d9d9ff"
     transform="matrix(0.94,0,0,0.94,7.7093441,8.3399372)"
     style="fill:#f2f2f2">
    <path
       d="m 48.29,26.17 c 10.89,-0.49 21.83,0.04 32.73,-0.22 1.94,0.25 4.58,-0.67 5.8,1.35 0.64,6.5 -0.23,13.06 0.31,19.57 6.24,0.26 12.5,0.26 18.74,0 0.54,-6.51 -0.33,-13.07 0.31,-19.57 0.28,-0.28 0.84,-0.84 1.12,-1.12 7.55,-0.51 15.14,-0.01 22.7,-0.18 6.56,0.16 13.15,-0.34 19.7,0.17 0.28,0.28 0.84,0.84 1.12,1.12 0.64,6.51 -0.23,13.07 0.31,19.58 6.24,0.26 12.5,0.26 18.74,0 0.48,-6.24 -0.2,-12.51 0.2,-18.75 -0.09,-1.54 1.62,-2.31 2.95,-2.12 11,-0.05 22.01,0.04 33.01,-0.03 1.53,-0.09 3.95,0.08 3.9,2.15 0.25,11.29 -0.07,22.58 0.11,33.87 -0.04,2.53 0.19,5.11 -0.36,7.6 -2.81,3.53 -6.35,6.38 -9.44,9.65 -3.56,3.36 -6.53,8.34 -12.06,8.14 -0.42,31.86 -0.06,63.75 -0.18,95.62 0.15,6.2 -0.31,12.42 0.18,18.61 4.61,-0.01 8.01,3.27 10.48,6.82 0.64,2.97 0.11,6.05 0.58,9.04 5.15,0.85 7.92,5.55 11.54,8.75 1.51,1.8 4.18,3.19 4.17,5.82 0.14,5.94 0.16,11.9 -0.02,17.84 0.1,1.54 -1.64,2.3 -2.96,2.11 -52.65,0.03 -105.31,-0.01 -157.97,0.02 -3.56,-0.05 -7.15,0.25 -10.71,-0.19 -2.01,-1.22 -1.08,-3.86 -1.34,-5.8 0.22,-5.2 -0.4,-10.46 0.36,-15.61 3.03,-3.64 6.65,-6.76 9.91,-10.19 1.42,-1.64 3.59,-2.05 5.54,-2.75 0.47,-2.99 -0.06,-6.07 0.58,-9.04 2.47,-3.55 5.87,-6.83 10.48,-6.82 0.14,-1.19 0.22,-2.38 0.22,-3.57 C 68.95,165.02 69.02,132.01 69,99 68.95,95.13 69.24,91.24 68.82,87.38 63.29,87.58 60.32,82.6 56.76,79.24 53.67,75.97 50.13,73.12 47.32,69.59 46.59,65.44 47.11,61.19 47,57 c 0.16,-9.9 -0.31,-19.82 0.18,-29.7 0.28,-0.28 0.83,-0.84 1.11,-1.13 m 6.15,6.27 c -0.27,11.19 -0.15,22.4 -0.29,33.59 -0.3,2.97 2.3,4.8 4.1,6.71 2.42,2.24 4.46,4.93 7.2,6.8 3.78,0.86 7.71,0.34 11.55,0.41 34.33,-0.01 68.67,-0.02 103,0 3.84,-0.07 7.77,0.45 11.55,-0.41 2.74,-1.87 4.77,-4.56 7.19,-6.79 1.81,-1.92 4.4,-3.75 4.11,-6.72 -0.14,-11.19 -0.02,-22.41 -0.29,-33.59 -8.69,-0.23 -17.42,-0.22 -26.12,0 -0.6,7.16 0.45,14.38 -0.47,21.52 -5.3,0.62 -10.65,0.18 -15.97,0.26 -5.33,-0.08 -10.67,0.36 -15.98,-0.25 -0.91,-7.15 0.14,-14.37 -0.47,-21.53 -10.35,-0.22 -20.75,-0.22 -31.11,0 -0.6,7.16 0.45,14.38 -0.47,21.53 -5.3,0.61 -10.65,0.17 -15.97,0.25 C 90.68,54.14 85.33,54.58 80.02,53.97 79.11,46.82 80.16,39.6 79.56,32.44 71.2,32.2 62.8,32.21 54.44,32.44 m 20.74,53.74 c -0.45,3.2 -0.45,6.46 -0.01,9.66 4.26,0.45 8.55,0.14 12.83,0.18 27.33,0 54.67,-0.01 82,0 3.94,-0.01 7.9,0.25 11.84,-0.18 0.43,-3.2 0.43,-6.46 -0.02,-9.66 -3.93,-0.43 -7.88,-0.17 -11.82,-0.18 -27.67,0 -55.33,0 -83,0 -3.94,0.02 -7.9,-0.25 -11.82,0.18 m -0.03,15.97 c -0.34,6.89 -0.33,13.82 -0.01,20.71 8.89,0.31 17.83,0.3 26.72,0 0.32,-6.89 0.33,-13.82 -0.01,-20.71 -8.88,-0.32 -17.82,-0.32 -26.7,0 m 32,0.01 c -0.34,6.88 -0.33,13.81 -0.01,20.7 5.27,0.47 10.57,0.05 15.86,0.15 8.95,-0.15 17.92,0.32 26.86,-0.15 0.32,-6.89 0.33,-13.82 -0.01,-20.71 -6.6,-0.51 -13.23,0 -19.85,-0.17 -7.61,0.17 -15.25,-0.33 -22.85,0.18 m 48,0 c -0.34,6.88 -0.33,13.81 -0.01,20.7 8.89,0.3 17.83,0.31 26.72,-0.01 0.32,-6.88 0.33,-13.81 -0.01,-20.69 -8.88,-0.34 -17.82,-0.33 -26.7,0 m -80.01,25.98 c -0.32,7.23 -0.32,14.5 -0.01,21.73 7.28,0.46 14.58,-0.02 21.87,0.15 10.29,-0.15 20.59,0.27 30.87,-0.15 0.3,-7.23 0.31,-14.5 -0.01,-21.73 -4.61,-0.44 -9.24,-0.1 -13.86,-0.15 -12.95,0.13 -25.92,-0.28 -38.86,0.15 m 59,0 c -0.32,7.23 -0.31,14.5 -0.01,21.73 6.61,0.47 13.25,0 19.87,0.15 9.29,-0.15 18.59,0.29 27.87,-0.15 0.3,-7.23 0.31,-14.5 -0.01,-21.73 -15.89,-0.27 -31.83,-0.28 -47.72,0 m -59.02,26.99 c -0.3,6.9 -0.29,13.85 0,20.76 8.9,0.25 17.85,0.27 26.76,-0.01 0.29,-6.9 0.3,-13.85 0,-20.75 -8.91,-0.28 -17.85,-0.29 -26.76,0 m 32.01,-0.01 c -0.31,6.91 -0.29,13.86 -0.01,20.76 14.24,0.25 28.52,0.24 42.76,0 0.28,-6.9 0.3,-13.85 0,-20.75 -14.24,-0.26 -28.52,-0.26 -42.75,-0.01 m 48,0 c -0.31,6.91 -0.3,13.85 -0.02,20.76 8.91,0.27 17.86,0.26 26.77,0 0.28,-6.9 0.3,-13.85 -0.01,-20.75 -8.9,-0.29 -17.84,-0.28 -26.74,-0.01 m -80.02,27 c -0.28,6.91 -0.27,13.86 -0.01,20.78 17.59,0.22 35.21,0.21 52.8,0 0.26,-6.92 0.27,-13.87 -0.01,-20.78 -17.58,-0.25 -35.2,-0.24 -52.78,0 m 59,0 c -0.28,6.91 -0.27,13.86 0,20.78 15.91,0.22 31.87,0.21 47.79,0 0.26,-6.92 0.27,-13.87 -0.01,-20.78 -15.91,-0.24 -31.87,-0.25 -47.78,0 m -68.52,26.46 c -1.33,3.2 -0.67,6.92 -0.48,10.32 11.95,0.35 23.92,-0.01 35.88,0.12 30.3,-0.09 60.61,0.18 90.9,-0.12 0.33,-3.19 0.5,-6.45 -0.08,-9.61 -0.5,-1.63 -2.5,-1.2 -3.78,-1.37 -37.68,0.11 -75.35,0.08 -113.03,0.02 -3.1,0.19 -6.51,-0.62 -9.41,0.64 m -9.17,15.77 c -2.75,1.89 -5.18,4.31 -7.07,7.07 -0.87,4.75 -0.44,9.68 -0.25,14.49 21.63,0.28 43.27,0.01 64.9,0.11 31.3,-0.08 62.61,0.16 93.9,-0.11 0.19,-4.81 0.62,-9.74 -0.24,-14.49 -1.9,-2.76 -4.33,-5.19 -7.08,-7.07 -3.78,-0.89 -7.74,-0.26 -11.58,-0.37 -40.67,0 -81.34,0.02 -122,-0.01 -3.52,0.09 -7.14,-0.47 -10.58,0.38 z"
       id="path5"
       inkscape:connector-curvature="0"
       style="fill:#f2f2f2" />
  </g>
  <g
     id="#6c6c6cff"
     style="fill:#4d4d4d;fill-opacity:1"
     transform="matrix(0.94,0,0,0.94,7.7093433,8.3399313)">
    <path
       d="m 54.44,32.44 c 8.36,-0.23 16.76,-0.24 25.12,0 0.6,7.16 -0.45,14.38 0.46,21.53 5.31,0.61 10.66,0.17 15.98,0.25 5.32,-0.08 10.67,0.36 15.97,-0.25 0.92,-7.15 -0.13,-14.37 0.47,-21.53 10.36,-0.22 20.76,-0.22 31.11,0 0.61,7.16 -0.44,14.38 0.47,21.53 5.31,0.61 10.65,0.17 15.98,0.25 5.32,-0.08 10.67,0.36 15.97,-0.26 0.92,-7.14 -0.13,-14.36 0.47,-21.52 8.7,-0.22 17.43,-0.23 26.12,0 0.27,11.18 0.15,22.4 0.29,33.59 0.29,2.97 -2.3,4.8 -4.11,6.72 -2.42,2.23 -4.45,4.92 -7.19,6.79 -3.78,0.86 -7.71,0.34 -11.55,0.41 -34.33,-0.02 -68.67,-0.01 -103,0 -3.84,-0.07 -7.77,0.45 -11.55,-0.41 -2.74,-1.87 -4.78,-4.56 -7.2,-6.8 -1.8,-1.91 -4.4,-3.74 -4.1,-6.71 0.14,-11.19 0.02,-22.4 0.29,-33.59 z"
       id="path8"
       style="fill:#4d4d4d;fill-opacity:1"
       inkscape:connector-curvature="0" />
    <path
       d="M 75.18,86.18 C 79.1,85.75 83.06,86.02 87,86 c 27.67,0 55.33,0 83,0 3.94,0.01 7.89,-0.25 11.82,0.18 0.45,3.2 0.45,6.46 0.02,9.66 -3.94,0.43 -7.9,0.17 -11.84,0.18 -27.33,-0.01 -54.67,0 -82,0 -4.28,-0.04 -8.57,0.27 -12.83,-0.18 -0.44,-3.2 -0.44,-6.46 0.01,-9.66 z"
       id="path10"
       style="fill:#4d4d4d;fill-opacity:1"
       inkscape:connector-curvature="0" />
    <path
       d="m 75.15,102.15 c 8.88,-0.32 17.82,-0.32 26.7,0 0.34,6.89 0.33,13.82 0.01,20.71 -8.89,0.3 -17.83,0.31 -26.72,0 -0.32,-6.89 -0.33,-13.82 0.01,-20.71 z"
       id="path12"
       style="fill:#4d4d4d;fill-opacity:1"
       inkscape:connector-curvature="0" />
    <path
       d="m 107.15,102.16 c 7.6,-0.51 15.24,-0.01 22.85,-0.18 6.62,0.17 13.25,-0.34 19.85,0.17 0.34,6.89 0.33,13.82 0.01,20.71 -8.94,0.47 -17.91,0 -26.86,0.15 -5.29,-0.1 -10.59,0.32 -15.86,-0.15 -0.32,-6.89 -0.33,-13.82 0.01,-20.7 z"
       id="path14"
       style="fill:#4d4d4d;fill-opacity:1"
       inkscape:connector-curvature="0" />
    <path
       d="m 155.15,102.16 c 8.88,-0.33 17.82,-0.34 26.7,0 0.34,6.88 0.33,13.81 0.01,20.69 -8.89,0.32 -17.83,0.31 -26.72,0.01 -0.32,-6.89 -0.33,-13.82 0.01,-20.7 z"
       id="path16"
       style="fill:#4d4d4d;fill-opacity:1"
       inkscape:connector-curvature="0" />
    <path
       d="m 75.14,128.14 c 12.94,-0.43 25.91,-0.02 38.86,-0.15 4.62,0.05 9.25,-0.29 13.86,0.15 0.32,7.23 0.31,14.5 0.01,21.73 -10.28,0.42 -20.58,0 -30.87,0.15 -7.29,-0.17 -14.59,0.31 -21.87,-0.15 -0.31,-7.23 -0.31,-14.5 0.01,-21.73 z"
       id="path18"
       style="fill:#4d4d4d;fill-opacity:1"
       inkscape:connector-curvature="0" />
    <path
       d="m 134.14,128.14 c 15.89,-0.28 31.83,-0.27 47.72,0 0.32,7.23 0.31,14.5 0.01,21.73 -9.28,0.44 -18.58,0 -27.87,0.15 -6.62,-0.15 -13.26,0.32 -19.87,-0.15 -0.3,-7.23 -0.31,-14.5 0.01,-21.73 z"
       id="path20"
       style="fill:#4d4d4d;fill-opacity:1"
       inkscape:connector-curvature="0" />
    <path
       d="m 75.12,155.13 c 8.91,-0.29 17.85,-0.28 26.76,0 0.3,6.9 0.29,13.85 0,20.75 -8.91,0.28 -17.86,0.26 -26.76,0.01 -0.29,-6.91 -0.3,-13.86 0,-20.76 z"
       id="path22"
       style="fill:#4d4d4d;fill-opacity:1"
       inkscape:connector-curvature="0" />
    <path
       d="m 107.13,155.12 c 14.23,-0.25 28.51,-0.25 42.75,0.01 0.3,6.9 0.28,13.85 0,20.75 -14.24,0.24 -28.52,0.25 -42.76,0 -0.28,-6.9 -0.3,-13.85 0.01,-20.76 z"
       id="path24"
       style="fill:#4d4d4d;fill-opacity:1"
       inkscape:connector-curvature="0" />
    <path
       d="m 155.13,155.12 c 8.9,-0.27 17.84,-0.28 26.74,0.01 0.31,6.9 0.29,13.85 0.01,20.75 -8.91,0.26 -17.86,0.27 -26.77,0 -0.28,-6.91 -0.29,-13.85 0.02,-20.76 z"
       id="path26"
       style="fill:#4d4d4d;fill-opacity:1"
       inkscape:connector-curvature="0" />
    <path
       d="m 75.11,182.12 c 17.58,-0.24 35.2,-0.25 52.78,0 0.28,6.91 0.27,13.86 0.01,20.78 -17.59,0.21 -35.21,0.22 -52.8,0 -0.26,-6.92 -0.27,-13.87 0.01,-20.78 z"
       id="path28"
       style="fill:#4d4d4d;fill-opacity:1"
       inkscape:connector-curvature="0" />
    <path
       d="m 134.11,182.12 c 15.91,-0.25 31.87,-0.24 47.78,0 0.28,6.91 0.27,13.86 0.01,20.78 -15.92,0.21 -31.88,0.22 -47.79,0 -0.27,-6.92 -0.28,-13.87 0,-20.78 z"
       id="path30"
       style="fill:#4d4d4d;fill-opacity:1"
       inkscape:connector-curvature="0" />
    <path
       d="m 65.59,208.58 c 2.9,-1.26 6.31,-0.45 9.41,-0.64 37.68,0.06 75.35,0.09 113.03,-0.02 1.28,0.17 3.28,-0.26 3.78,1.37 0.58,3.16 0.41,6.42 0.08,9.61 -30.29,0.3 -60.6,0.03 -90.9,0.12 -11.96,-0.13 -23.93,0.23 -35.88,-0.12 -0.19,-3.4 -0.85,-7.12 0.48,-10.32 z"
       id="path32"
       style="fill:#4d4d4d;fill-opacity:1"
       inkscape:connector-curvature="0" />
    <path
       d="m 56.42,224.35 c 3.44,-0.85 7.06,-0.29 10.58,-0.38 40.66,0.03 81.33,0.01 122,0.01 3.84,0.11 7.8,-0.52 11.58,0.37 2.75,1.88 5.18,4.31 7.08,7.07 0.86,4.75 0.43,9.68 0.24,14.49 -31.29,0.27 -62.6,0.03 -93.9,0.11 -21.63,-0.1 -43.27,0.17 -64.9,-0.11 -0.19,-4.81 -0.62,-9.74 0.25,-14.49 1.89,-2.76 4.32,-5.18 7.07,-7.07 z"
       id="path34"
       style="fill:#4d4d4d;fill-opacity:1"
       inkscape:connector-curvature="0" />
  </g>
</svg>
