<?xml version="1.0" encoding="UTF-8" standalone="no"?>
<svg
   xmlns:dc="http://purl.org/dc/elements/1.1/"
   xmlns:cc="http://creativecommons.org/ns#"
   xmlns:rdf="http://www.w3.org/1999/02/22-rdf-syntax-ns#"
   xmlns:svg="http://www.w3.org/2000/svg"
   xmlns="http://www.w3.org/2000/svg"
   xmlns:sodipodi="http://sodipodi.sourceforge.net/DTD/sodipodi-0.dtd"
   xmlns:inkscape="http://www.inkscape.org/namespaces/inkscape"
   width="256pt"
   height="256pt"
   viewBox="0 0 256 256"
   version="1.1"
   id="svg2"
   inkscape:version="0.48.2 r9819"
   sodipodi:docname="wb.svg">
  <metadata
     id="metadata24">
    <rdf:RDF>
      <cc:Work
         rdf:about="">
        <dc:format>image/svg+xml</dc:format>
        <dc:type
           rdf:resource="http://purl.org/dc/dcmitype/StillImage" />
      </cc:Work>
    </rdf:RDF>
  </metadata>
  <defs
     id="defs22" />
  <sodipodi:namedview
     pagecolor="#ffffff"
     bordercolor="#666666"
     borderopacity="1"
     objecttolerance="10"
     gridtolerance="10"
     guidetolerance="10"
     inkscape:pageopacity="0"
     inkscape:pageshadow="2"
     inkscape:window-width="696"
     inkscape:window-height="480"
     id="namedview20"
     showgrid="false"
     inkscape:zoom="0.7375"
     inkscape:cx="160"
     inkscape:cy="160"
     inkscape:window-x="0"
     inkscape:window-y="0"
     inkscape:window-maximized="0"
     inkscape:current-layer="svg2" />
  <g
     id="#d6d6d6ff"
     transform="matrix(0.94,0,0,0.94,7.68,7.9779516)"
     style="fill:#ececec">
    <path
       d="m 108.96,17.97 c 4.32,-2.6 9.47,-2.64 14.26,-3.73 4.63,-0.3 9.36,-0.48 13.89,0.66 7.18,0.72 15.32,3.53 18.65,10.47 1.24,3.96 -1.47,7.68 -4.72,9.66 -2.86,2.04 -6,3.82 -9.51,4.42 3,4.26 6.96,7.81 11.16,10.86 6.6,6.44 13.03,13.06 19.62,19.51 1.07,0.74 1.06,2.61 0.01,3.35 -14.64,14.57 -29.28,29.14 -43.79,43.83 2.08,2.23 4.24,4.39 6.47,6.48 14.56,-14.36 28.93,-28.89 43.4,-43.33 2.43,-1.1 3.75,1.87 5.35,3.11 4.81,4.21 7.7,10.04 10.13,15.84 2.46,7.39 4.83,15.01 4.03,22.9 -1.35,9.08 -2.53,18.55 -7.32,26.6 -1.44,2 -2.52,4.22 -3.59,6.43 -3.13,6.32 -8.39,11.43 -10.89,18.08 -1.37,4.64 -3.83,8.99 -4.18,13.88 -0.09,5.03 0.02,10.07 -0.02,15.1 3.25,0 6.49,0.02 9.74,-0.05 1.97,2.23 4.08,4.33 6.31,6.31 -0.07,3.24 -0.05,6.49 -0.05,9.74 2.91,0 5.83,0.01 8.74,-0.04 3.96,4.23 8.06,8.34 12.3,12.3 -0.14,6.78 0.07,13.57 -0.07,20.36 -0.3,0.29 -0.88,0.88 -1.18,1.17 -53.13,0.05 -106.27,0.05 -159.41,0 -0.29,-0.3 -0.88,-0.88 -1.17,-1.18 -0.14,-6.78 0.07,-13.57 -0.07,-20.35 4.23,-3.96 8.34,-8.07 12.3,-12.3 2.9,0.05 5.81,0.04 8.72,0.04 0.02,-3.25 0.04,-6.49 -0.03,-9.74 2.23,-1.98 4.33,-4.08 6.31,-6.3 3.58,0.06 7.16,0.04 10.74,0.04 -0.38,-7.46 1.18,-15.26 -1.78,-22.36 C 81.69,176.23 81,172.35 79,169.02 76.44,164.94 73.58,161.06 71.03,156.98 68,150.66 63.69,144.95 62,138.04 c -1.72,-7.88 -3.54,-15.85 -2.88,-23.98 1.71,-8.67 4.12,-17.43 9.06,-24.88 3.78,-5.49 8.6,-10.11 12.6,-15.4 7.85,-7.82 15.63,-15.7 23.52,-23.47 4.21,-3.04 8.16,-6.6 11.17,-10.85 -5.64,-1.4 -11.68,-4.26 -14.22,-9.82 -1.51,-5.31 3.38,-9.65 7.71,-11.67 m 0.25,1.13 c -4.15,1.72 -8.23,5.94 -6.53,10.78 2.23,5.26 8.3,6.4 12.87,8.76 0.31,0.94 0.25,1.83 -0.18,2.7 -4.57,5.79 -10.97,9.69 -15.92,15.11 -10.56,10.5 -21.35,20.87 -30.1,32.98 -4.67,6.96 -6.8,15.17 -8.69,23.23 -1.31,8.08 0.8,16.11 2.36,23.99 1.6,7.54 6.03,13.96 9.59,20.66 3.8,6.26 8.75,11.94 10.81,19.11 3.66,7.95 3.3,16.91 2.66,25.42 -2.92,3.34 -8.39,0.17 -12.02,2.15 -1.7,1.33 -3.3,2.85 -4.46,4.68 -0.44,3.57 0.03,7.26 -1.14,10.75 -3.06,0.07 -6.24,-0.41 -9.21,0.45 -3.31,2.82 -6.24,6.06 -9.33,9.12 -1.85,1.44 -1.46,3.93 -1.54,5.99 0.11,5.24 -0.26,10.51 0.39,15.73 49.07,-0.16 98.15,-0.02 147.22,-0.07 3.79,-0.09 7.62,0.33 11.39,-0.27 0.49,-6.53 0.44,-13.17 0.02,-19.7 -2.76,-3.56 -6.25,-6.5 -9.37,-9.73 -2.7,-3.12 -7.44,-0.37 -10.61,-2.37 -1.58,-2.97 -0.27,-6.67 -1.02,-9.9 -1.16,-1.83 -2.76,-3.35 -4.46,-4.68 -3.31,-1.89 -8.42,1.07 -11.02,-2.15 -0.61,-3.91 -0.2,-7.9 -0.31,-11.83 -0.27,-5.79 2.09,-11.19 4.07,-16.5 2.44,-6.68 7.56,-11.86 10.79,-18.12 2.14,-4.2 4.84,-8.13 6.54,-12.55 2.34,-5.67 3.01,-11.81 4.2,-17.77 0.86,-5.63 0.78,-11.49 -0.99,-16.95 -2.41,-9.74 -6.28,-19.93 -14.49,-26.24 -1.6,-1.4 -3.15,0.59 -4.3,1.56 -12.78,12.88 -25.68,25.66 -38.46,38.54 -1.01,0.94 -2.15,2.2 -3.68,1.75 -2.25,-1.35 -4.06,-3.35 -5.67,-5.39 -1.18,-1.56 0.27,-3.25 1.4,-4.31 13.05,-12.94 25.97,-26.02 39.04,-38.94 0.9,-0.98 1.93,-1.9 2.48,-3.14 0.39,-1.5 -1.22,-2.46 -1.98,-3.51 -7.45,-7.22 -14.4,-14.99 -22.52,-21.47 -1.96,-2.55 -6.5,-4.53 -5.56,-8.29 3.96,-1.97 8.2,-3.62 11.48,-6.69 2.78,-2.75 1.99,-7.7 -0.91,-10.08 -5.19,-4.65 -12.45,-5.37 -19.05,-6.37 -8.02,-0.58 -16.36,0.42 -23.79,3.56 z"
       id="path5"
       inkscape:connector-curvature="0"
       style="fill:#ececec" />
    <path
       d="m 121.37,20.28 c 9.05,-0.87 19,-0.7 26.89,4.42 2.01,0.9 2.65,3.93 0.58,5.12 -7.35,5.39 -17.02,5.55 -25.76,5.14 -5.65,-0.92 -11.92,-1.93 -16.06,-6.25 -0.88,-2.6 1.62,-4.13 3.58,-5.15 3.31,-1.86 7.07,-2.59 10.77,-3.28 z"
       id="path7"
       inkscape:connector-curvature="0"
       style="fill:#ececec" />
    <path
       d="m 122.29,40 c 4.14,-0.02 8.28,-0.02 12.42,0 0.22,2.13 1.36,3.97 3.17,5.11 3.18,2.1 5.67,5 8.48,7.52 7.27,5.48 12.98,12.69 19.75,18.74 -14.2,14.39 -28.58,28.61 -42.88,42.9 -1.74,1.28 -1.74,4.18 0,5.46 3.01,3.02 6.02,6.03 9.03,9.04 1.29,1.76 4.18,1.75 5.48,0 13.34,-13.38 26.68,-26.77 40.07,-40.1 1.99,-2.06 4.28,0.46 5.44,2.12 3.74,5.86 5.94,12.53 7.82,19.17 1.31,4.18 1.1,8.63 0.82,12.94 -1.34,8.94 -3.07,18.15 -8.16,25.8 -2.43,5.06 -5.58,9.69 -8.76,14.28 -5.03,7.07 -7.21,15.64 -9.23,23.94 -24.82,0 -49.65,0 -74.48,0 -2.03,-8.31 -4.2,-16.87 -9.23,-23.94 -3.18,-4.59 -6.33,-9.22 -8.76,-14.27 -4.26,-6.44 -6.25,-14.04 -7.47,-21.58 -0.97,-4.84 -1.24,-9.88 -0.46,-14.76 2.07,-7.88 4.32,-16.04 9.48,-22.53 3.98,-5 8.23,-9.78 12.39,-14.64 8.19,-7.79 15.59,-16.48 24.48,-23.51 2.48,-2.54 5.06,-4.98 7.99,-7.02 1.61,-1.05 2.33,-2.83 2.61,-4.67 z"
       id="path9"
       inkscape:connector-curvature="0"
       style="fill:#ececec" />
    <path
       d="m 91.07,192.06 c 24.95,0.04 49.91,0.04 74.86,0 -0.02,3.62 -0.03,7.24 -0.01,10.86 -24.95,-0.04 -49.89,-0.04 -74.84,0 0.02,-3.62 0.01,-7.24 -0.01,-10.86 z"
       id="path11"
       inkscape:connector-curvature="0"
       style="fill:#ececec" />
    <path
       d="m 75.28,209.35 c 0.5,-1.59 2.45,-1.11 3.7,-1.26 32.68,0.05 65.36,0.05 98.04,0 1.23,0.16 3.21,-0.33 3.7,1.26 0.38,3.17 0.12,6.37 0.17,9.55 -35.26,-0.06 -70.52,-0.07 -105.78,0 0.04,-3.18 -0.2,-6.38 0.17,-9.55 z"
       id="path13"
       inkscape:connector-curvature="0"
       style="fill:#ececec" />
    <path
       d="m 61.35,224.19 c 44.43,-0.07 88.87,-0.07 133.3,-0.01 2.32,2.45 4.71,4.84 7.15,7.17 0.06,4.84 0,9.67 0.05,14.51 -49.23,-0.08 -98.47,-0.08 -147.7,0 0.05,-4.84 -0.01,-9.67 0.05,-14.5 2.44,-2.34 4.83,-4.73 7.15,-7.17 z"
       id="path15"
       inkscape:connector-curvature="0"
       style="fill:#ececec" />
  </g>
  <g
     id="#404040ff"
     style="fill:#1a1a1a;fill-opacity:1"
     transform="matrix(0.94,0,0,0.94,7.68,7.9779516)">
    <path
       d="m 109.21,19.1 c 7.43,-3.14 15.77,-4.14 23.79,-3.56 6.6,1 13.86,1.72 19.05,6.37 2.9,2.38 3.69,7.33 0.91,10.08 -3.28,3.07 -7.52,4.72 -11.48,6.69 -0.94,3.76 3.6,5.74 5.56,8.29 8.12,6.48 15.07,14.25 22.52,21.47 0.76,1.05 2.37,2.01 1.98,3.51 -0.55,1.24 -1.58,2.16 -2.48,3.14 -13.07,12.92 -25.99,26 -39.04,38.94 -1.13,1.06 -2.58,2.75 -1.4,4.31 1.61,2.04 3.42,4.04 5.67,5.39 1.53,0.45 2.67,-0.81 3.68,-1.75 12.78,-12.88 25.68,-25.66 38.46,-38.54 1.15,-0.97 2.7,-2.96 4.3,-1.56 8.21,6.31 12.08,16.5 14.49,26.24 1.77,5.46 1.85,11.32 0.99,16.95 -1.19,5.96 -1.86,12.1 -4.2,17.77 -1.7,4.42 -4.4,8.35 -6.54,12.55 -3.23,6.26 -8.35,11.44 -10.79,18.12 -1.98,5.31 -4.34,10.71 -4.07,16.5 0.11,3.93 -0.3,7.92 0.31,11.83 2.6,3.22 7.71,0.26 11.02,2.15 1.7,1.33 3.3,2.85 4.46,4.68 0.75,3.23 -0.56,6.93 1.02,9.9 3.17,2 7.91,-0.75 10.61,2.37 3.12,3.23 6.61,6.17 9.37,9.73 0.42,6.53 0.47,13.17 -0.02,19.7 -3.77,0.6 -7.6,0.18 -11.39,0.27 -49.07,0.05 -98.15,-0.09 -147.22,0.07 -0.65,-5.22 -0.28,-10.49 -0.39,-15.73 0.08,-2.06 -0.31,-4.55 1.54,-5.99 3.09,-3.06 6.02,-6.3 9.33,-9.12 2.97,-0.86 6.15,-0.38 9.21,-0.45 1.17,-3.49 0.7,-7.18 1.14,-10.75 1.16,-1.83 2.76,-3.35 4.46,-4.68 3.63,-1.98 9.1,1.19 12.02,-2.15 0.64,-8.51 1,-17.47 -2.66,-25.42 -2.06,-7.17 -7.01,-12.85 -10.81,-19.11 -3.56,-6.7 -7.99,-13.12 -9.59,-20.66 -1.56,-7.88 -3.67,-15.91 -2.36,-23.99 1.89,-8.06 4.02,-16.27 8.69,-23.23 8.75,-12.11 19.54,-22.48 30.1,-32.98 4.95,-5.42 11.35,-9.32 15.92,-15.11 0.43,-0.87 0.49,-1.76 0.18,-2.7 -4.57,-2.36 -10.64,-3.5 -12.87,-8.76 -1.7,-4.84 2.38,-9.06 6.53,-10.78 m 12.16,1.18 c -3.7,0.69 -7.46,1.42 -10.77,3.28 -1.96,1.02 -4.46,2.55 -3.58,5.15 4.14,4.32 10.41,5.33 16.06,6.25 8.74,0.41 18.41,0.25 25.76,-5.14 2.07,-1.19 1.43,-4.22 -0.58,-5.12 -7.89,-5.12 -17.84,-5.29 -26.89,-4.42 M 122.29,40 c -0.28,1.84 -1,3.62 -2.61,4.67 -2.93,2.04 -5.51,4.48 -7.99,7.02 -8.89,7.03 -16.29,15.72 -24.48,23.51 -4.16,4.86 -8.41,9.64 -12.39,14.64 -5.16,6.49 -7.41,14.65 -9.48,22.53 -0.78,4.88 -0.51,9.92 0.46,14.76 1.22,7.54 3.21,15.14 7.47,21.58 2.43,5.05 5.58,9.68 8.76,14.27 5.03,7.07 7.2,15.63 9.23,23.94 24.83,0 49.66,0 74.48,0 2.02,-8.3 4.2,-16.87 9.23,-23.94 3.18,-4.59 6.33,-9.22 8.76,-14.28 5.09,-7.65 6.82,-16.86 8.16,-25.8 0.28,-4.31 0.49,-8.76 -0.82,-12.94 -1.88,-6.64 -4.08,-13.31 -7.82,-19.17 -1.16,-1.66 -3.45,-4.18 -5.44,-2.12 -13.39,13.33 -26.73,26.72 -40.07,40.1 -1.3,1.75 -4.19,1.76 -5.48,0 -3.01,-3.01 -6.02,-6.02 -9.03,-9.04 -1.74,-1.28 -1.74,-4.18 0,-5.46 14.3,-14.29 28.68,-28.51 42.88,-42.9 -6.77,-6.05 -12.48,-13.26 -19.75,-18.74 -2.81,-2.52 -5.3,-5.42 -8.48,-7.52 -1.81,-1.14 -2.95,-2.98 -3.17,-5.11 -4.14,-0.02 -8.28,-0.02 -12.42,0 M 91.07,192.06 c 0.02,3.62 0.03,7.24 0.01,10.86 24.95,-0.04 49.89,-0.04 74.84,0 -0.02,-3.62 -0.01,-7.24 0.01,-10.86 -24.95,0.04 -49.91,0.04 -74.86,0 m -15.79,17.29 c -0.37,3.17 -0.13,6.37 -0.17,9.55 35.26,-0.07 70.52,-0.06 105.78,0 -0.05,-3.18 0.21,-6.38 -0.17,-9.55 -0.49,-1.59 -2.47,-1.1 -3.7,-1.26 -32.68,0.05 -65.36,0.05 -98.04,0 -1.25,0.15 -3.2,-0.33 -3.7,1.26 m -13.93,14.84 c -2.32,2.44 -4.71,4.83 -7.15,7.17 -0.06,4.83 0,9.66 -0.05,14.5 49.23,-0.08 98.47,-0.08 147.7,0 -0.05,-4.84 0.01,-9.67 -0.05,-14.51 -2.44,-2.33 -4.83,-4.72 -7.15,-7.17 -44.43,-0.06 -88.87,-0.06 -133.3,0.01 z"
       id="path18"
       style="fill:#1a1a1a;fill-opacity:1"
       inkscape:connector-curvature="0" />
  </g>
</svg>
