<?xml version="1.0" encoding="UTF-8" standalone="no"?>
<svg
   xmlns:dc="http://purl.org/dc/elements/1.1/"
   xmlns:cc="http://creativecommons.org/ns#"
   xmlns:rdf="http://www.w3.org/1999/02/22-rdf-syntax-ns#"
   xmlns:svg="http://www.w3.org/2000/svg"
   xmlns="http://www.w3.org/2000/svg"
   xmlns:sodipodi="http://sodipodi.sourceforge.net/DTD/sodipodi-0.dtd"
   xmlns:inkscape="http://www.inkscape.org/namespaces/inkscape"
   width="256pt"
   height="256pt"
   viewBox="0 0 256 256"
   version="1.1"
   id="svg2"
   inkscape:version="0.48.2 r9819"
   sodipodi:docname="wk.svg">
  <metadata
     id="metadata25">
    <rdf:RDF>
      <cc:Work
         rdf:about="">
        <dc:format>image/svg+xml</dc:format>
        <dc:type
           rdf:resource="http://purl.org/dc/dcmitype/StillImage" />
      </cc:Work>
    </rdf:RDF>
  </metadata>
  <defs
     id="defs23" />
  <sodipodi:namedview
     pagecolor="#ffffff"
     bordercolor="#666666"
     borderopacity="1"
     objecttolerance="10"
     gridtolerance="10"
     guidetolerance="10"
     inkscape:pageopacity="0"
     inkscape:pageshadow="2"
     inkscape:window-width="696"
     inkscape:window-height="480"
     id="namedview21"
     showgrid="false"
     inkscape:zoom="0.7375"
     inkscape:cx="160"
     inkscape:cy="160"
     inkscape:window-x="0"
     inkscape:window-y="0"
     inkscape:window-maximized="0"
     inkscape:current-layer="svg2" />
  <g
     id="#d5d5d5ff"
     transform="matrix(0.94,0,0,0.94,7.6818499,7.707692)">
    <path
       d="m 107.3,5.12 c 13.22,-0.11 26.44,0.03 39.66,-0.06 1.25,-0.23 2.22,0.18 2.92,1.24 0.14,2.77 0,5.55 0.08,8.33 -3.71,3.5 -7.34,7.08 -10.85,10.77 -0.33,1.88 -0.19,3.79 -0.23,5.69 2.23,0 4.47,0 6.71,-0.01 0.8,-0.84 1.61,-1.66 2.44,-2.48 0.45,-2.46 -1.06,-5.79 1.27,-7.49 5.13,-0.06 10.27,-0.07 15.4,0.01 0.3,0.29 0.89,0.88 1.18,1.18 0.11,13.21 -0.03,26.44 0.06,39.65 0.23,1.26 -0.18,2.23 -1.24,2.93 -5.13,0.08 -10.27,0.07 -15.4,0.01 -2.33,-1.71 -0.82,-5.03 -1.27,-7.49 -0.82,-0.81 -1.63,-1.63 -2.43,-2.46 -2.23,-0.03 -4.46,-0.03 -6.69,-0.03 0,4.72 0,9.45 0.01,14.17 14.36,-0.04 28.73,0.11 43.1,-0.07 2.31,5.09 2.81,10.73 4.19,16.1 12.5,-0.02 25,-0.07 37.49,0.01 0.29,0.29 0.89,0.89 1.18,1.18 0.51,13.25 -0.27,27.45 -7.69,38.9 -9.83,16.91 -19.21,34.07 -29.03,50.98 -0.88,1.08 -1.51,2.33 -1.27,3.77 0.05,7.56 -0.02,15.11 0.06,22.67 2.03,1.89 3.96,3.89 6.02,5.75 -0.08,3.21 -0.06,6.42 -0.05,9.64 1.25,0.02 2.5,0.04 3.75,0.06 3.96,4.23 8.08,8.33 12.3,12.31 -0.17,6.77 0.06,13.55 -0.09,20.32 -0.29,0.3 -0.88,0.89 -1.18,1.18 -53.13,0.06 -106.27,0.06 -159.4,0 -0.29,-0.29 -0.89,-0.88 -1.18,-1.18 -0.15,-6.77 0.08,-13.55 -0.09,-20.32 4.22,-3.98 8.34,-8.07 12.3,-12.31 1.25,-0.02 2.5,-0.04 3.75,-0.07 0.01,-3.21 0.03,-6.42 -0.05,-9.63 2.06,-1.86 3.99,-3.86 6.02,-5.75 0.03,-8.16 0.11,-16.33 -0.02,-24.49 -10.84,-18.32 -20.89,-37.09 -31.7,-55.44 -4.02,-6.58 -4.88,-14.37 -6.2,-21.8 -0.09,-4.86 -0.1,-9.73 -0.01,-14.59 0.29,-0.3 0.88,-0.89 1.18,-1.18 12.49,-0.08 24.99,-0.03 37.49,-0.01 1.38,-5.37 1.87,-11.01 4.19,-16.1 14.37,0.18 28.74,0.03 43.1,0.07 0.01,-4.72 0.01,-9.45 0.01,-14.17 -2.23,0 -4.46,0 -6.69,0.03 -0.8,0.83 -1.61,1.65 -2.43,2.46 -0.46,2.46 1.05,5.78 -1.27,7.49 -5.13,0.06 -10.27,0.07 -15.4,-0.01 C 91,64.59 90.41,64 90.12,63.7 90.01,50.49 90.15,37.27 90.06,24.05 c -0.24,-1.26 0.18,-2.24 1.24,-2.93 5.13,-0.08 10.27,-0.07 15.4,-0.01 2.32,1.7 0.81,5.02 1.27,7.48 0.82,0.82 1.63,1.65 2.43,2.49 2.24,0.01 4.48,0.01 6.72,0.01 -0.05,-1.9 0.1,-3.81 -0.23,-5.69 -3.51,-3.69 -7.14,-7.28 -10.85,-10.77 0.61,-3.09 -1.29,-7.21 1.26,-9.51 m 0.4,1.2 c -0.19,3.44 -1.47,7.77 1.72,10.25 3.41,4.21 10.36,7.44 8.92,13.85 -1.28,2.86 -5.05,2.18 -7.52,1.66 -3.99,-1.42 -4.22,-6.07 -4.5,-9.63 -4.95,-0.12 -9.9,-0.14 -14.85,0.02 -0.16,13.68 -0.16,27.37 0,41.05 4.94,0.18 9.9,0.15 14.85,0.02 0.38,-3.34 0.31,-7.81 4.02,-9.31 2.4,-0.85 6.13,-1.51 7.79,0.94 0.5,4.22 0.34,8.52 0.14,12.76 0.03,1.66 -1.78,2.63 -3.28,2.42 -12.92,0.16 -25.86,-0.14 -38.78,0.1 -1.96,-0.36 -2.16,1.78 -2.64,3.13 -1.2,3.92 -1.27,8.2 -3.21,11.88 -1.28,0.84 -2.83,0.9 -4.3,0.93 -11.2,0.05 -22.4,-0.15 -33.59,0.08 -0.72,13.11 0.32,27.09 7.46,38.5 9.51,16.24 18.44,32.8 27.98,49.03 1.15,2.16 2.58,4.39 2.47,6.95 0,6.36 0.06,12.73 -0.03,19.1 0.01,3.81 -3.93,5.69 -5.73,8.63 -0.49,3.03 -0.07,6.12 -0.42,9.17 -2.28,1.61 -5.33,1.93 -7.27,4.08 -2.79,2.89 -5.94,5.49 -8.32,8.75 -0.59,6.58 -0.15,13.24 -0.14,19.85 53.02,0.16 106.04,0.16 159.06,0 0.01,-6.61 0.45,-13.27 -0.14,-19.85 -2.38,-3.26 -5.53,-5.86 -8.32,-8.75 -1.92,-2.18 -5.02,-2.41 -7.26,-4.09 -0.37,-3.05 0.05,-6.14 -0.43,-9.16 -1.61,-2.45 -4.23,-4.11 -5.49,-6.8 -0.63,-4.59 -0.12,-9.26 -0.27,-13.88 0.12,-4.27 -0.78,-8.93 1.76,-12.71 9.85,-16.89 19.19,-34.07 29.06,-50.95 6.84,-11.29 7.78,-25 7.09,-37.88 -10.86,-0.2 -21.72,-0.05 -32.57,-0.05 -1.81,-0.06 -3.75,0.07 -5.33,-0.96 -2.39,-4.6 -1.98,-10.1 -4.3,-14.73 -13.38,-0.87 -26.89,-0.04 -40.32,-0.37 -1.5,0.21 -3.31,-0.75 -3.28,-2.41 -0.21,-4.25 -0.36,-8.55 0.14,-12.78 1.67,-2.43 5.38,-1.79 7.79,-0.94 3.71,1.51 3.65,5.98 4.02,9.33 4.95,0.12 9.9,0.14 14.85,-0.02 0.16,-13.69 0.16,-27.38 0,-41.06 -4.95,-0.16 -9.9,-0.14 -14.85,-0.02 -0.44,2.92 -0.17,6.51 -2.72,8.54 -1.99,1.84 -4.91,1.59 -7.39,1.33 -2.55,-1.02 -2.36,-4.3 -1.63,-6.46 2.62,-4.34 7.17,-7.07 10.18,-11.12 1.11,-2.63 0.33,-5.65 0.19,-8.42 -13.54,0.09 -27.08,0.09 -40.61,0 z"
       id="path5"
       inkscape:connector-curvature="0"
       style="fill:#d5d5d5" />
  </g>
  <g
     id="#404040ff"
     transform="matrix(0.94,0,0,0.94,7.6818499,7.707692)"
     style="fill:#1a1a1a">
    <path
       d="m 107.7,6.32 c 13.53,0.09 27.07,0.09 40.61,0 0.14,2.77 0.92,5.79 -0.19,8.42 -3.01,4.05 -7.56,6.78 -10.18,11.12 -0.73,2.16 -0.92,5.44 1.63,6.46 2.48,0.26 5.4,0.51 7.39,-1.33 2.55,-2.03 2.28,-5.62 2.72,-8.54 4.95,-0.12 9.9,-0.14 14.85,0.02 0.16,13.68 0.16,27.37 0,41.06 -4.95,0.16 -9.9,0.14 -14.85,0.02 -0.37,-3.35 -0.31,-7.82 -4.02,-9.33 -2.41,-0.85 -6.12,-1.49 -7.79,0.94 -0.5,4.23 -0.35,8.53 -0.14,12.78 -0.03,1.66 1.78,2.62 3.28,2.41 13.43,0.33 26.94,-0.5 40.32,0.37 2.32,4.63 1.91,10.13 4.3,14.73 1.58,1.03 3.52,0.9 5.33,0.96 10.85,0 21.71,-0.15 32.57,0.05 0.69,12.88 -0.25,26.59 -7.09,37.88 -9.87,16.88 -19.21,34.06 -29.06,50.95 -2.54,3.78 -1.64,8.44 -1.76,12.71 0.15,4.62 -0.36,9.29 0.27,13.88 1.26,2.69 3.88,4.35 5.49,6.8 0.48,3.02 0.06,6.11 0.43,9.16 2.24,1.68 5.34,1.91 7.26,4.09 2.79,2.89 5.94,5.49 8.32,8.75 0.59,6.58 0.15,13.24 0.14,19.85 -53.02,0.16 -106.04,0.16 -159.06,0 -0.01,-6.61 -0.45,-13.27 0.14,-19.85 2.38,-3.26 5.53,-5.86 8.32,-8.75 1.94,-2.15 4.99,-2.47 7.27,-4.08 0.35,-3.05 -0.07,-6.14 0.42,-9.17 1.8,-2.94 5.74,-4.82 5.73,-8.63 0.09,-6.37 0.03,-12.74 0.03,-19.1 0.11,-2.56 -1.32,-4.79 -2.47,-6.95 -9.54,-16.23 -18.47,-32.79 -27.98,-49.03 -7.14,-11.41 -8.18,-25.39 -7.46,-38.5 11.19,-0.23 22.39,-0.03 33.59,-0.08 1.47,-0.03 3.02,-0.09 4.3,-0.93 1.94,-3.68 2.01,-7.96 3.21,-11.88 0.48,-1.35 0.68,-3.49 2.64,-3.13 12.92,-0.24 25.86,0.06 38.78,-0.1 1.5,0.21 3.31,-0.76 3.28,-2.42 0.2,-4.24 0.36,-8.54 -0.14,-12.76 -1.66,-2.45 -5.39,-1.79 -7.79,-0.94 -3.71,1.5 -3.64,5.97 -4.02,9.31 -4.95,0.13 -9.91,0.16 -14.85,-0.02 -0.16,-13.68 -0.16,-27.37 0,-41.05 4.95,-0.16 9.9,-0.14 14.85,-0.02 0.28,3.56 0.51,8.21 4.5,9.63 2.47,0.52 6.24,1.2 7.52,-1.66 1.44,-6.41 -5.51,-9.64 -8.92,-13.85 -3.19,-2.48 -1.91,-6.81 -1.72,-10.25 m 3.73,4.77 c 2.87,4.87 7.76,8.04 11.33,12.34 0.52,4.83 0.11,9.71 0.23,14.56 -4.51,-0.11 -9.06,0.28 -13.55,-0.23 -3.01,-3.19 -7.87,-5.81 -7.66,-10.77 -1.93,0 -3.86,0 -5.78,0 -0.01,10.67 -0.01,21.35 0,32.02 1.91,0 3.83,0 5.74,0 -0.15,-4.95 4.66,-7.59 7.69,-10.77 4.49,-0.51 9.04,-0.11 13.56,-0.23 0.01,8.99 0.01,17.99 0,26.98 -14.92,0.02 -29.83,0 -44.75,0.01 -0.9,3.63 -1.96,7.24 -2.48,10.96 34.83,0.07 69.65,0.07 104.48,0 C 179.72,82.24 178.66,78.63 177.76,75 162.84,74.99 147.93,75.01 133.01,74.99 133,66 133,57 133.01,48.01 c 4.51,0.11 9.07,-0.28 13.56,0.23 3.03,3.18 7.84,5.82 7.69,10.76 1.91,0.01 3.82,0.01 5.74,0.01 0.01,-10.67 0.01,-21.35 0,-32.02 -1.93,0 -3.85,0 -5.78,0 0.21,4.96 -4.65,7.57 -7.65,10.77 -4.5,0.51 -9.05,0.11 -13.56,0.23 0.12,-4.85 -0.29,-9.73 0.23,-14.56 3.57,-4.31 8.46,-7.47 11.33,-12.34 -11.04,-0.15 -22.1,-0.16 -33.14,0 M 37.01,91 c -0.43,7.56 0.53,15.12 2.61,22.39 1.37,4.84 4.72,8.72 6.77,13.25 9.46,16.26 18.49,32.77 27.97,49.02 1.47,3.52 0.58,7.51 0.74,11.23 35.27,0.16 70.53,0.16 105.8,-0.01 0.06,-3.49 -0.46,-7.09 0.4,-10.51 11.24,-19.77 22.51,-39.55 33.69,-59.36 3.38,-8.18 4.36,-17.22 4,-26.01 -60.66,0 -121.32,0 -181.98,0 M 75.1,192.12 c 0.06,3.58 0.07,7.16 0.01,10.74 35.26,0.2 70.52,0.2 105.78,0 -0.06,-3.58 -0.05,-7.16 0.01,-10.74 -35.26,-0.17 -70.53,-0.17 -105.8,0 m -4.83,17.23 c -0.27,3.15 -0.07,6.33 -0.14,9.49 38.58,0.2 77.16,0.25 115.74,0 -0.08,-3.16 0.12,-6.33 -0.15,-9.49 -0.96,-1.72 -3.09,-1.03 -4.68,-1.22 -35.36,-0.2 -70.72,-0.2 -106.08,0 -1.6,0.19 -3.72,-0.49 -4.69,1.22 m -15.86,22.11 c -0.53,4.76 -0.04,9.58 -0.22,14.36 49.21,0.25 98.42,0.25 147.62,0 -0.18,-4.78 0.31,-9.6 -0.22,-14.36 -3.04,-2.95 -5.65,-8.03 -10.54,-7.3 -42.03,-0.25 -84.07,-0.25 -126.1,0 -4.89,-0.73 -7.5,4.35 -10.54,7.3 z"
       id="path8"
       inkscape:connector-curvature="0"
       style="fill:#1a1a1a" />
  </g>
  <g
     id="#e5e5e5ff"
     style="fill:#ececec"
     transform="matrix(0.94,0,0,0.94,7.6818499,7.707692)">
    <path
       d="m 111.43,11.09 c 11.04,-0.16 22.1,-0.15 33.14,0 -2.87,4.87 -7.76,8.03 -11.33,12.34 -0.52,4.83 -0.11,9.71 -0.23,14.56 4.51,-0.12 9.06,0.28 13.56,-0.23 3,-3.2 7.86,-5.81 7.65,-10.77 1.93,0 3.85,0 5.78,0 0.01,10.67 0.01,21.35 0,32.02 -1.92,0 -3.83,0 -5.74,-0.01 0.15,-4.94 -4.66,-7.58 -7.69,-10.76 -4.49,-0.51 -9.05,-0.12 -13.56,-0.23 -0.01,8.99 -0.01,17.99 0,26.98 14.92,0.02 29.83,0 44.75,0.01 0.9,3.63 1.96,7.24 2.48,10.96 -34.83,0.07 -69.65,0.07 -104.48,0 0.52,-3.72 1.58,-7.33 2.48,-10.96 14.92,-0.01 29.83,0.01 44.75,-0.01 C 123,66 123,57 122.99,48.01 c -4.52,0.12 -9.07,-0.28 -13.56,0.23 -3.03,3.18 -7.84,5.82 -7.69,10.77 -1.91,0 -3.83,0 -5.74,0 -0.01,-10.67 -0.01,-21.35 0,-32.02 1.92,0 3.85,0 5.78,0 -0.21,4.96 4.65,7.58 7.66,10.77 4.49,0.51 9.04,0.12 13.55,0.23 -0.12,-4.85 0.29,-9.73 -0.23,-14.56 -3.57,-4.3 -8.46,-7.47 -11.33,-12.34 z"
       id="path11"
       style="fill:#ececec"
       inkscape:connector-curvature="0" />
    <path
       d="m 37.01,91 c 60.66,0 121.32,0 181.98,0 0.36,8.79 -0.62,17.83 -4,26.01 -11.18,19.81 -22.45,39.59 -33.69,59.36 -0.86,3.42 -0.34,7.02 -0.4,10.51 -35.27,0.17 -70.53,0.17 -105.8,0.01 -0.16,-3.72 0.73,-7.71 -0.74,-11.23 C 64.88,159.41 55.85,142.9 46.39,126.64 44.34,122.11 40.99,118.23 39.62,113.39 37.54,106.12 36.58,98.56 37.01,91 z"
       id="path13"
       style="fill:#ececec"
       inkscape:connector-curvature="0" />
    <path
       d="m 75.1,192.12 c 35.27,-0.17 70.54,-0.17 105.8,0 -0.06,3.58 -0.07,7.16 -0.01,10.74 -35.26,0.2 -70.52,0.2 -105.78,0 0.06,-3.58 0.05,-7.16 -0.01,-10.74 z"
       id="path15"
       style="fill:#ececec"
       inkscape:connector-curvature="0" />
    <path
       d="m 70.27,209.35 c 0.97,-1.71 3.09,-1.03 4.69,-1.22 35.36,-0.2 70.72,-0.2 106.08,0 1.59,0.19 3.72,-0.5 4.68,1.22 0.27,3.16 0.07,6.33 0.15,9.49 -38.58,0.25 -77.16,0.2 -115.74,0 0.07,-3.16 -0.13,-6.34 0.14,-9.49 z"
       id="path17"
       style="fill:#ececec"
       inkscape:connector-curvature="0" />
    <path
       d="m 54.41,231.46 c 3.04,-2.95 5.65,-8.03 10.54,-7.3 42.03,-0.25 84.07,-0.25 126.1,0 4.89,-0.73 7.5,4.35 10.54,7.3 0.53,4.76 0.04,9.58 0.22,14.36 -49.2,0.25 -98.41,0.25 -147.62,0 0.18,-4.78 -0.31,-9.6 0.22,-14.36 z"
       id="path19"
       style="fill:#ececec"
       inkscape:connector-curvature="0" />
  </g>
</svg>
