<?xml version="1.0" encoding="UTF-8" standalone="no"?>
<svg
   xmlns:dc="http://purl.org/dc/elements/1.1/"
   xmlns:cc="http://creativecommons.org/ns#"
   xmlns:rdf="http://www.w3.org/1999/02/22-rdf-syntax-ns#"
   xmlns:svg="http://www.w3.org/2000/svg"
   xmlns="http://www.w3.org/2000/svg"
   xmlns:sodipodi="http://sodipodi.sourceforge.net/DTD/sodipodi-0.dtd"
   xmlns:inkscape="http://www.inkscape.org/namespaces/inkscape"
   width="256pt"
   height="256pt"
   viewBox="0 0 256 256"
   version="1.1"
   id="svg2"
   inkscape:version="0.48.2 r9819"
   sodipodi:docname="wn.svg">
  <metadata
     id="metadata32">
    <rdf:RDF>
      <cc:Work
         rdf:about="">
        <dc:format>image/svg+xml</dc:format>
        <dc:type
           rdf:resource="http://purl.org/dc/dcmitype/StillImage" />
      </cc:Work>
    </rdf:RDF>
  </metadata>
  <defs
     id="defs30" />
  <sodipodi:namedview
     pagecolor="#ffffff"
     bordercolor="#666666"
     borderopacity="1"
     objecttolerance="10"
     gridtolerance="10"
     guidetolerance="10"
     inkscape:pageopacity="0"
     inkscape:pageshadow="2"
     inkscape:window-width="696"
     inkscape:window-height="480"
     id="namedview28"
     showgrid="false"
     inkscape:zoom="0.7375"
     inkscape:cx="160"
     inkscape:cy="160"
     inkscape:window-x="0"
     inkscape:window-y="0"
     inkscape:window-maximized="0"
     inkscape:current-layer="svg2" />
  <g
     id="g3777"
     style="fill:#ececec"
     transform="matrix(0.94,0,0,0.94,7.319344,7.8556221)">
    <g
       id="#d8d8d8ff"
       style="fill:#ececec">
      <path
         id="path5"
         d="m 122.02,12.27 c 1.31,-1 2.66,-3.12 4.57,-2.12 4.26,4.49 9.15,8.45 12.7,13.56 2.4,2.63 3.14,6.88 6.8,8.22 10.2,3.5 20.72,7.68 28.13,15.85 4.32,4.67 9.39,8.69 13.2,13.81 6.13,6.98 10.27,15.45 14.18,23.81 0.72,3.42 1.96,6.68 3,10 0.88,5.63 1.56,11.31 3.2,16.79 0.22,8.9 0.1,17.82 0.06,26.73 -1.23,6.19 -1.49,12.57 -3.27,18.65 -2.92,7.66 -6.72,14.95 -9.31,22.73 -1.83,3.55 -2.69,7.42 -2.43,11.4 -2.42,2.6 -6.74,0.6 -9.95,1.2 0.01,3.04 0,6.09 0.04,9.14 1.25,0.02 2.5,0.03 3.75,0.04 1.95,2.22 4.05,4.3 6.26,6.27 -0.06,3.23 -0.07,6.46 0,9.69 1.25,0.02 2.49,0.03 3.74,0.04 3.93,4.24 8.04,8.32 12.26,12.27 -0.15,6.78 0.06,13.57 -0.08,20.35 -0.29,0.3 -0.87,0.88 -1.17,1.17 -51.91,0.09 -103.82,-0.02 -155.73,0.06 -1.69,-0.15 -3.86,0.62 -4.85,-1.23 -0.13,-6.78 0.08,-13.57 -0.07,-20.35 4.22,-3.95 8.33,-8.03 12.26,-12.27 1.25,-0.01 2.49,-0.03 3.74,-0.04 0.07,-3.23 0.06,-6.46 0,-9.69 2.22,-1.97 4.33,-4.08 6.3,-6.3 3.25,0.06 6.5,0.05 9.75,0.05 -0.02,-3.07 -0.02,-6.14 0.01,-9.21 -3.24,-0.57 -7.53,1.39 -9.98,-1.19 -0.33,-8.24 0.87,-16.98 5.68,-23.9 11.02,-12.1 25.12,-20.77 36.49,-32.49 1.84,-1.55 4.09,-2.63 5.51,-4.64 0.27,-2.36 0.58,-4.72 1.42,-6.96 -4.82,1.65 -9.71,3.14 -14.39,5.15 -3.2,0.16 -6.4,0 -9.61,0.06 -2.51,2.71 -3.34,6.69 -6.58,8.77 -3.45,0.27 -6.32,2.28 -9.43,3.58 -0.57,3.27 -2.27,6.24 -4.44,8.71 -3.83,-0.12 -7.67,-0.11 -11.5,-0.01 -1.28,-1.48 -2.6,-2.94 -3.69,-4.56 -2.18,-2.95 -5.45,-5.51 -5.83,-9.39 -3.46,0.03 -7.23,-0.54 -9.67,-3.22 -0.11,-1.7 0.32,-3.61 -0.71,-5.11 -1.97,-3.07 -3.55,-6.4 -6.02,-9.1 -1.93,-3.93 -1.16,-8.36 -1.27,-12.56 -0.11,-2.63 2.08,-4.52 3.3,-6.66 3.87,-5.59 11.49,-5.68 16.84,-9.11 3.68,-3.66 7.73,-7.06 10.63,-11.42 4.98,-5.67 11.15,-10.29 15.45,-16.54 4.64,-4.69 9.27,-9.41 14.03,-13.99 1.87,-0.65 3.79,-1.15 5.73,-1.55 0,-8.49 0.11,-16.99 -0.05,-25.49 1.22,-0.93 2.19,-2.47 3.9,-2.43 6.44,4.7 12.31,10.26 17.03,16.69 0.28,-7.75 0.16,-15.51 0.07,-23.26 m 1.8,-0.96 c -1.12,7.52 -0.01,15.15 -0.58,22.71 -0.29,1.03 -0.47,2.61 -1.88,2.46 -4.11,-5.47 -8.71,-10.68 -14.3,-14.68 -1.19,-1.03 -2.76,-1.21 -4.23,-1.52 -1.17,8.51 0.02,17.14 -0.61,25.68 -0.96,3.73 -6.05,2.32 -8.22,4.97 -4.18,4.2 -8.57,8.2 -12.4,12.73 -4.54,6.07 -10.78,10.6 -15.45,16.56 -2.73,3.55 -6.04,6.58 -9.19,9.74 -5.26,5.38 -14.88,4.32 -18.7,11.41 -2.62,3.29 -1.91,7.66 -1.92,11.55 -0.04,6.26 5.9,10.19 7.53,15.92 0.64,1.47 0.56,3.37 1.81,4.51 2.57,1.35 5.54,1.21 8.35,1.48 0.46,5.18 4.42,8.85 7.5,12.67 1.28,1.69 3.64,0.98 5.46,1.21 2.31,-0.18 4.91,0.42 7.03,-0.67 1.55,-2.28 2.23,-5.01 3.69,-7.33 3.05,-2.67 7.21,-3.33 10.72,-5.13 1.76,-2.05 2.73,-4.66 4.52,-6.69 1.69,-2.17 4.7,-1.02 7.03,-1.29 6.99,0.7 12.76,-5.42 19.67,-4.63 -1.03,3.57 -0.83,8.07 -4.2,10.44 -5.22,3.73 -9.27,8.79 -14.43,12.58 -8.33,7.36 -17.67,13.66 -25,22.09 -4.64,6.76 -6.25,15.56 -5.23,23.62 3.02,-0.14 6.07,-0.14 9.06,0.45 0.74,3.53 0.73,7.18 0,10.71 -3.36,0.67 -6.81,0.3 -10.18,0.73 -2.01,1.32 -3.76,3.07 -5.07,5.07 -0.51,3.49 0.19,7.13 -1.2,10.47 -1.86,0.31 -4,0.28 -5.37,1.79 -3.21,3.18 -6.65,6.19 -9.44,9.75 -0.42,6.53 -0.46,13.18 0.02,19.72 4.1,0.59 8.26,0.15 12.39,0.25 48.84,-0.07 97.69,0.16 146.53,-0.11 0.07,-6.61 0.43,-13.28 -0.12,-19.87 -2.6,-3.39 -5.91,-6.17 -8.87,-9.23 -1.47,-1.8 -3.8,-2.06 -5.94,-2.3 -1.39,-3.34 -0.7,-6.98 -1.19,-10.47 -1.9,-3.09 -5,-5.61 -8.8,-5.53 -1.13,-3.37 -1.77,-7.44 -0.19,-10.7 2.61,-1.45 5.85,-0.58 8.72,-0.77 0.95,-10.22 6.23,-19.33 9.97,-28.72 3.59,-7.29 3.94,-15.51 5.33,-23.37 0.5,-5.51 0.08,-11.05 0.21,-16.57 -0.1,-4.52 0.49,-9.16 -0.84,-13.56 -1.17,-4.09 -1.58,-8.33 -2.34,-12.5 -3.69,-17.33 -13.39,-33.09 -26.42,-44.99 -5.31,-5.94 -11.69,-10.9 -18.99,-14.14 -4.41,-2.07 -9.24,-3.13 -13.56,-5.42 -2.41,-1.6 -3.6,-4.34 -5.15,-6.68 -2.98,-4.92 -7.29,-8.79 -11.34,-12.8 -1.01,-1.32 -2.71,-1.31 -4.19,-1.6 z"
         style="fill:#ececec"
         inkscape:connector-curvature="0" />
      <path
         id="path7"
         d="m 128.02,19.62 c 5.89,4.84 9.41,11.77 13.15,18.26 4.82,-0.51 9.03,2.07 13.45,3.48 6.42,2.75 12.44,6.68 17.18,11.84 4.2,4.47 9.03,8.39 12.55,13.46 7.98,11.01 14.18,23.71 15.61,37.37 0.29,4.72 2.53,9.15 2.08,13.95 -0.35,8.68 0.73,17.47 -0.96,26.06 -0.96,6.72 -2.1,13.6 -5.41,19.63 -3.44,7.56 -6.66,15.26 -9.03,23.23 -37.25,0 -74.51,0.06 -111.76,-0.03 0.89,-5.28 1.49,-10.87 4.52,-15.45 5.09,-6.64 12.47,-10.86 18.43,-16.6 4.37,-3.63 8.67,-7.35 13.19,-10.8 4.21,-3.12 7.23,-7.63 11.82,-10.28 0.07,-2.98 0.5,-5.92 0.95,-8.85 0.25,-3.5 0.24,-7.12 1.68,-10.39 1.17,-2.21 2.63,-4.27 3.5,-6.62 0.66,-2.26 -1.94,-2.98 -3.65,-3.06 -2.8,4.34 -5.41,8.85 -8.64,12.88 -3.24,1.59 -6.79,2.42 -10.07,3.91 -4.83,2.3 -10.28,1.16 -15.42,1.4 -2.15,2.62 -3.62,5.77 -5.98,8.21 -3.43,2.4 -7.68,3.42 -10.99,6.01 -1.71,1.92 -2.27,4.53 -3.31,6.83 -2.1,-0.14 -4.34,0.3 -6.34,-0.44 -2.45,-3 -6.01,-5.88 -5.68,-10.17 5.22,-1.5 7.7,-6.85 12.42,-9.14 1.5,-1.06 4.2,-1.91 3.69,-4.21 0.07,-1.44 -1.58,-2.44 -2.91,-2.1 -4.29,1.73 -7.68,4.99 -10.84,8.27 -2.96,3.46 -7.88,2.61 -11.85,3.78 -0.83,-4.37 -3.91,-7.84 -5.43,-11.84 1.79,-1.87 4.59,-1.07 6.88,-1.27 2.06,-2.35 3.48,-5.48 3.09,-8.66 -0.92,-1.16 -2.4,-1.25 -3.74,-1.52 -0.85,1.63 -1.02,3.78 -2.58,4.93 -2.37,0.35 -4.77,0.7 -6.65,2.33 0.2,-3.75 -0.97,-8.11 1.96,-11.12 4.29,-5.03 12.31,-4.31 16.81,-9.14 3.42,-3.59 7.15,-6.89 10.36,-10.66 4.29,-5.97 10.29,-10.4 14.99,-16 3.48,-4.89 8.21,-8.66 12.21,-13.1 2.45,-0.01 4.9,-0.03 7.35,-0.09 0.74,-0.77 1.5,-1.52 2.27,-2.27 0.14,-7.99 0.03,-15.99 0.09,-23.98 5.34,4.25 9.29,9.83 13.24,15.32 1.79,-0.01 3.58,-0.02 5.38,-0.05 0.75,-0.77 1.51,-1.54 2.29,-2.29 0.14,-7.01 0.02,-14.01 0.1,-21.02 m -13.53,39.74 c -4.74,3.26 -8.82,7.33 -12.75,11.5 -1.85,1.43 -0.16,4.93 2.13,4.05 6.22,-2.14 12,-6.56 14.07,-13.03 0.71,-1.9 -1.91,-3.79 -3.45,-2.52 m 30.83,9.77 c -1.47,0.75 -1.89,2.91 -0.59,4.02 2.91,3.14 6.37,5.84 8.55,9.58 3.4,4.49 1.48,10.45 -0.35,15.18 -2.57,6.94 -9.08,11.06 -13.67,16.51 -1.35,1.98 1.34,4.67 3.32,3.33 7.93,-7.18 16.32,-15.52 17.41,-26.76 0.88,-7.24 -3.68,-13.59 -8.73,-18.24 -1.79,-1.4 -3.26,-4.47 -5.94,-3.62 m 39.01,28.99 c -1.93,1.88 -3.15,4.32 -4.73,6.47 -5.06,6.34 -11.56,11.27 -17.91,16.22 -2.19,1.68 0.54,5.59 2.86,3.87 9.08,-6.46 17.9,-13.99 23.44,-23.82 0.52,-2.1 -1.85,-3.48 -3.66,-2.74 m 2.01,20 c -3.65,4.11 -6.35,9.03 -10.56,12.66 -3.8,4.33 -8.61,7.5 -13.12,11.02 -2.14,1.69 0.55,5.64 2.89,3.88 9.55,-6.28 17.84,-14.58 24.12,-24.14 1.46,-2.07 -1.24,-4.42 -3.33,-3.42 m 0.47,23.55 c -3.89,4.8 -7.45,9.91 -12.05,14.09 -4.75,5.31 -11.09,8.7 -16.99,12.54 0.11,1.75 0.81,4.38 3.13,3.76 12.23,-6.21 22.03,-16.33 29.8,-27.5 1.72,-2.34 -2.2,-5.04 -3.89,-2.89 z"
         style="fill:#ececec"
         inkscape:connector-curvature="0" />
      <path
         id="path9"
         d="m 86.08,192.08 c 29.95,0.03 59.89,0.03 89.84,0 -0.02,3.61 -0.03,7.22 -0.02,10.83 -29.93,-0.04 -59.87,-0.05 -89.8,0 0,-3.61 0,-7.22 -0.02,-10.83 z"
         style="fill:#ececec"
         inkscape:connector-curvature="0" />
      <path
         id="path11"
         d="m 70.62,208.61 c 1.34,-0.66 2.9,-0.43 4.34,-0.52 32.02,0.09 64.03,0.01 96.04,0.04 4.87,0.04 9.76,-0.21 14.61,0.26 0.34,3.49 0.29,6.99 0.27,10.49 -38.58,-0.05 -77.17,-0.05 -115.76,0 0.19,-3.4 -0.54,-6.98 0.5,-10.27 z"
         style="fill:#ececec"
         inkscape:connector-curvature="0" />
      <path
         id="path13"
         d="m 61.36,224.2 c 44.42,-0.07 88.85,-0.07 133.27,0 2.35,2.43 4.73,4.81 7.15,7.17 0.07,4.82 0.02,9.65 0.06,14.47 -49.23,-0.07 -98.45,-0.07 -147.68,0 0.04,-4.82 -0.02,-9.65 0.06,-14.48 2.42,-2.34 4.8,-4.73 7.14,-7.16 z"
         style="fill:#ececec"
         inkscape:connector-curvature="0" />
    </g>
  </g>
  <g
     id="#404040ff"
     style="fill:#1a1a1a"
     transform="matrix(0.94,0,0,0.94,7.319344,7.8556221)">
    <path
       d="m 123.82,11.31 c 1.48,0.29 3.18,0.28 4.19,1.6 4.05,4.01 8.36,7.88 11.34,12.8 1.55,2.34 2.74,5.08 5.15,6.68 4.32,2.29 9.15,3.35 13.56,5.42 7.3,3.24 13.68,8.2 18.99,14.14 13.03,11.9 22.73,27.66 26.42,44.99 0.76,4.17 1.17,8.41 2.34,12.5 1.33,4.4 0.74,9.04 0.84,13.56 -0.13,5.52 0.29,11.06 -0.21,16.57 -1.39,7.86 -1.74,16.08 -5.33,23.37 -3.74,9.39 -9.02,18.5 -9.97,28.72 -2.87,0.19 -6.11,-0.68 -8.72,0.77 -1.58,3.26 -0.94,7.33 0.19,10.7 3.8,-0.08 6.9,2.44 8.8,5.53 0.49,3.49 -0.2,7.13 1.19,10.47 2.14,0.24 4.47,0.5 5.94,2.3 2.96,3.06 6.27,5.84 8.87,9.23 0.55,6.59 0.19,13.26 0.12,19.87 -48.84,0.27 -97.69,0.04 -146.53,0.11 -4.13,-0.1 -8.29,0.34 -12.39,-0.25 -0.48,-6.54 -0.44,-13.19 -0.02,-19.72 2.79,-3.56 6.23,-6.57 9.44,-9.75 1.37,-1.51 3.51,-1.48 5.37,-1.79 1.39,-3.34 0.69,-6.98 1.2,-10.47 1.31,-2 3.06,-3.75 5.07,-5.07 3.37,-0.43 6.82,-0.06 10.18,-0.73 0.73,-3.53 0.74,-7.18 0,-10.71 -2.99,-0.59 -6.04,-0.59 -9.06,-0.45 -1.02,-8.06 0.59,-16.86 5.23,-23.62 7.33,-8.43 16.67,-14.73 25,-22.09 5.16,-3.79 9.21,-8.85 14.43,-12.58 3.37,-2.37 3.17,-6.87 4.2,-10.44 -6.91,-0.79 -12.68,5.33 -19.67,4.63 -2.33,0.27 -5.34,-0.88 -7.03,1.29 -1.79,2.03 -2.76,4.64 -4.52,6.69 -3.51,1.8 -7.67,2.46 -10.72,5.13 -1.46,2.32 -2.14,5.05 -3.69,7.33 -2.12,1.09 -4.72,0.49 -7.03,0.67 -1.82,-0.23 -4.18,0.48 -5.46,-1.21 -3.08,-3.82 -7.04,-7.49 -7.5,-12.67 -2.81,-0.27 -5.78,-0.13 -8.35,-1.48 -1.25,-1.14 -1.17,-3.04 -1.81,-4.51 -1.63,-5.73 -7.57,-9.66 -7.53,-15.92 0.01,-3.89 -0.7,-8.26 1.92,-11.55 3.82,-7.09 13.44,-6.03 18.7,-11.41 3.15,-3.16 6.46,-6.19 9.19,-9.74 4.67,-5.96 10.91,-10.49 15.45,-16.56 3.83,-4.53 8.22,-8.53 12.4,-12.73 2.17,-2.65 7.26,-1.24 8.22,-4.97 0.63,-8.54 -0.56,-17.17 0.61,-25.68 1.47,0.31 3.04,0.49 4.23,1.52 5.59,4 10.19,9.21 14.3,14.68 1.41,0.15 1.59,-1.43 1.88,-2.46 0.57,-7.56 -0.54,-15.19 0.58,-22.71 m 4.2,8.31 c -0.08,7.01 0.04,14.01 -0.1,21.02 -0.78,0.75 -1.54,1.52 -2.29,2.29 -1.8,0.03 -3.59,0.04 -5.38,0.05 -3.95,-5.49 -7.9,-11.07 -13.24,-15.32 -0.06,7.99 0.05,15.99 -0.09,23.98 -0.77,0.75 -1.53,1.5 -2.27,2.27 -2.45,0.06 -4.9,0.08 -7.35,0.09 -4,4.44 -8.73,8.21 -12.21,13.1 -4.7,5.6 -10.7,10.03 -14.99,16 -3.21,3.77 -6.94,7.07 -10.36,10.66 -4.5,4.83 -12.52,4.11 -16.81,9.14 -2.93,3.01 -1.76,7.37 -1.96,11.12 1.88,-1.63 4.28,-1.98 6.65,-2.33 1.56,-1.15 1.73,-3.3 2.58,-4.93 1.34,0.27 2.82,0.36 3.74,1.52 0.39,3.18 -1.03,6.31 -3.09,8.66 -2.29,0.2 -5.09,-0.6 -6.88,1.27 1.52,4 4.6,7.47 5.43,11.84 3.97,-1.17 8.89,-0.32 11.85,-3.78 3.16,-3.28 6.55,-6.54 10.84,-8.27 1.33,-0.34 2.98,0.66 2.91,2.1 0.51,2.3 -2.19,3.15 -3.69,4.21 -4.72,2.29 -7.2,7.64 -12.42,9.14 -0.33,4.29 3.23,7.17 5.68,10.17 2,0.74 4.24,0.3 6.34,0.44 1.04,-2.3 1.6,-4.91 3.31,-6.83 3.31,-2.59 7.56,-3.61 10.99,-6.01 2.36,-2.44 3.83,-5.59 5.98,-8.21 5.14,-0.24 10.59,0.9 15.42,-1.4 3.28,-1.49 6.83,-2.32 10.07,-3.91 3.23,-4.03 5.84,-8.54 8.64,-12.88 1.71,0.08 4.31,0.8 3.65,3.06 -0.87,2.35 -2.33,4.41 -3.5,6.62 -1.44,3.27 -1.43,6.89 -1.68,10.39 -0.45,2.93 -0.88,5.87 -0.95,8.85 -4.59,2.65 -7.61,7.16 -11.82,10.28 -4.52,3.45 -8.82,7.17 -13.19,10.8 -5.96,5.74 -13.34,9.96 -18.43,16.6 -3.03,4.58 -3.63,10.17 -4.52,15.45 37.25,0.09 74.51,0.03 111.76,0.03 2.37,-7.97 5.59,-15.67 9.03,-23.23 3.31,-6.03 4.45,-12.91 5.41,-19.63 1.69,-8.59 0.61,-17.38 0.96,-26.06 0.45,-4.8 -1.79,-9.23 -2.08,-13.95 C 198.53,90.37 192.33,77.67 184.35,66.66 180.83,61.59 176,57.67 171.8,53.2 167.06,48.04 161.04,44.11 154.62,41.36 150.2,39.95 145.99,37.37 141.17,37.88 137.43,31.39 133.91,24.46 128.02,19.62 M 86.08,192.08 c 0.02,3.61 0.02,7.22 0.02,10.83 29.93,-0.05 59.87,-0.04 89.8,0 -0.01,-3.61 0,-7.22 0.02,-10.83 -29.95,0.03 -59.89,0.03 -89.84,0 m -15.46,16.53 c -1.04,3.29 -0.31,6.87 -0.5,10.27 38.59,-0.05 77.18,-0.05 115.76,0 0.02,-3.5 0.07,-7 -0.27,-10.49 -4.85,-0.47 -9.74,-0.22 -14.61,-0.26 -32.01,-0.03 -64.02,0.05 -96.04,-0.04 -1.44,0.09 -3,-0.14 -4.34,0.52 m -9.26,15.59 c -2.34,2.43 -4.72,4.82 -7.14,7.16 -0.08,4.83 -0.02,9.66 -0.06,14.48 49.23,-0.07 98.45,-0.07 147.68,0 -0.04,-4.82 0.01,-9.65 -0.06,-14.47 -2.42,-2.36 -4.8,-4.74 -7.15,-7.17 -44.42,-0.07 -88.85,-0.07 -133.27,0 z"
       id="path16"
       style="fill:#1a1a1a"
       inkscape:connector-curvature="0" />
    <path
       d="m 114.49,59.36 c 1.54,-1.27 4.16,0.62 3.45,2.52 -2.07,6.47 -7.85,10.89 -14.07,13.03 -2.29,0.88 -3.98,-2.62 -2.13,-4.05 3.93,-4.17 8.01,-8.24 12.75,-11.5 z"
       id="path18"
       style="fill:#1a1a1a"
       inkscape:connector-curvature="0" />
    <path
       d="m 145.32,69.13 c 2.68,-0.85 4.15,2.22 5.94,3.62 5.05,4.65 9.61,11 8.73,18.24 -1.09,11.24 -9.48,19.58 -17.41,26.76 -1.98,1.34 -4.67,-1.35 -3.32,-3.33 4.59,-5.45 11.1,-9.57 13.67,-16.51 1.83,-4.73 3.75,-10.69 0.35,-15.18 -2.18,-3.74 -5.64,-6.44 -8.55,-9.58 -1.3,-1.11 -0.88,-3.27 0.59,-4.02 z"
       id="path20"
       style="fill:#1a1a1a"
       inkscape:connector-curvature="0" />
    <path
       d="m 184.33,98.12 c 1.81,-0.74 4.18,0.64 3.66,2.74 -5.54,9.83 -14.36,17.36 -23.44,23.82 -2.32,1.72 -5.05,-2.19 -2.86,-3.87 6.35,-4.95 12.85,-9.88 17.91,-16.22 1.58,-2.15 2.8,-4.59 4.73,-6.47 z"
       id="path22"
       style="fill:#1a1a1a"
       inkscape:connector-curvature="0" />
    <path
       d="m 186.34,118.12 c 2.09,-1 4.79,1.35 3.33,3.42 -6.28,9.56 -14.57,17.86 -24.12,24.14 -2.34,1.76 -5.03,-2.19 -2.89,-3.88 4.51,-3.52 9.32,-6.69 13.12,-11.02 4.21,-3.63 6.91,-8.55 10.56,-12.66 z"
       id="path24"
       style="fill:#1a1a1a"
       inkscape:connector-curvature="0" />
    <path
       d="m 186.81,141.67 c 1.69,-2.15 5.61,0.55 3.89,2.89 -7.77,11.17 -17.57,21.29 -29.8,27.5 -2.32,0.62 -3.02,-2.01 -3.13,-3.76 5.9,-3.84 12.24,-7.23 16.99,-12.54 4.6,-4.18 8.16,-9.29 12.05,-14.09 z"
       id="path26"
       style="fill:#1a1a1a"
       inkscape:connector-curvature="0" />
  </g>
</svg>
