<?xml version="1.0" encoding="UTF-8" standalone="no"?>
<svg
   xmlns:dc="http://purl.org/dc/elements/1.1/"
   xmlns:cc="http://creativecommons.org/ns#"
   xmlns:rdf="http://www.w3.org/1999/02/22-rdf-syntax-ns#"
   xmlns:svg="http://www.w3.org/2000/svg"
   xmlns="http://www.w3.org/2000/svg"
   xmlns:sodipodi="http://sodipodi.sourceforge.net/DTD/sodipodi-0.dtd"
   xmlns:inkscape="http://www.inkscape.org/namespaces/inkscape"
   width="256pt"
   height="256pt"
   viewBox="0 0 256 256"
   version="1.1"
   id="svg2"
   inkscape:version="0.48.2 r9819"
   sodipodi:docname="wp.svg">
  <metadata
     id="metadata26">
    <rdf:RDF>
      <cc:Work
         rdf:about="">
        <dc:format>image/svg+xml</dc:format>
        <dc:type
           rdf:resource="http://purl.org/dc/dcmitype/StillImage" />
      </cc:Work>
    </rdf:RDF>
  </metadata>
  <defs
     id="defs24" />
  <sodipodi:namedview
     pagecolor="#ffffff"
     bordercolor="#666666"
     borderopacity="1"
     objecttolerance="10"
     gridtolerance="10"
     guidetolerance="10"
     inkscape:pageopacity="0"
     inkscape:pageshadow="2"
     inkscape:window-width="696"
     inkscape:window-height="480"
     id="namedview22"
     showgrid="false"
     inkscape:zoom="0.7375"
     inkscape:cx="160"
     inkscape:cy="160"
     inkscape:window-x="0"
     inkscape:window-y="0"
     inkscape:window-maximized="0"
     inkscape:current-layer="svg2" />
  <g
     id="#d4d4d4ff"
     style="fill:#ececec"
     transform="matrix(0.94,0,0,0.94,7.71,8.4256814)">
    <path
       d="m 96.6,45.58 c 8.83,-12.55 25.42,-19.42 40.43,-15.59 17.96,3.82 32.06,21.58 30.92,40.04 -0.07,14.77 -10.22,28.1 -23.19,34.46 0.32,4.65 3.47,8.4 5.61,12.36 7.95,1.6 15.88,3.78 22.98,7.81 6.94,3.13 13.31,7.3 19.86,11.13 2.14,1.28 4.03,2.9 5.86,4.57 -0.16,1.6 0.32,3.56 -1.35,4.52 -12.99,0.11 -25.99,-0.03 -38.98,0.06 1.31,8.59 3.32,17.07 4.64,25.65 2.14,7.2 4.36,14.43 7.95,21.06 1.91,3.51 3.2,7.41 5.92,10.41 1.47,0 2.94,0 4.41,-0.01 1.97,2.22 4.08,4.33 6.3,6.3 -0.05,3.22 -0.06,6.43 -0.03,9.65 1.25,0.03 2.51,0.05 3.76,0.08 3.94,4.23 8.05,8.32 12.27,12.27 -0.15,6.79 0.07,13.57 -0.08,20.35 -0.29,0.3 -0.88,0.89 -1.18,1.18 -49.47,0.06 -98.94,0.06 -148.41,0 -0.29,-0.29 -0.88,-0.89 -1.18,-1.18 -0.14,-6.78 0.07,-13.57 -0.07,-20.35 4.22,-3.95 8.33,-8.04 12.27,-12.27 1.25,-0.03 2.5,-0.05 3.76,-0.08 0.03,-3.22 0.02,-6.43 -0.03,-9.65 2.22,-1.97 4.32,-4.08 6.3,-6.29 1.47,-0.01 2.95,-0.01 4.42,-0.03 3.55,-4.22 5.22,-9.62 7.92,-14.37 2.99,-7.07 5.37,-14.4 7.15,-21.88 0.57,-7.03 2.44,-13.87 3.43,-20.84 -12.99,-0.09 -25.99,0.05 -38.98,-0.06 -1.68,-0.95 -1.19,-2.89 -1.33,-4.49 4.34,-4.79 10.43,-7.19 15.73,-10.7 10.03,-6.3 21.07,-11.36 32.93,-12.82 2.15,-3.96 5.3,-7.72 5.62,-12.38 C 101.89,99.32 93.19,89.99 90.4,78.6 87.1,67.48 89.56,54.78 96.6,45.58 m 1.99,-0.94 c -6.22,7.85 -9.18,18.18 -8.15,28.14 1.34,9.65 5.97,19 13.63,25.18 2.8,2.25 6.17,3.74 8.76,6.27 1.1,0.99 0.56,2.53 0.03,3.66 -1.51,3.32 -3.2,6.64 -5.55,9.45 -2.16,1.51 -4.97,1.53 -7.45,2.2 -13.49,2.76 -24.88,10.85 -36.57,17.65 -2.03,1.25 -4.43,3.01 -3.9,5.76 1.25,1.1 3.09,0.53 4.6,0.72 10.67,-0.03 21.34,-0.09 32,-0.01 1.44,-0.17 3.45,0.71 3.27,2.4 -0.56,4.6 -1.67,9.11 -2.43,13.68 -1.72,14.43 -7.29,28.17 -14.45,40.72 -1.05,2.31 -3.74,2.54 -5.89,3.17 -2.48,0.54 -4.13,2.72 -5.59,4.62 -1.1,3.16 0.05,6.67 -0.78,9.91 -2.28,1.51 -5.39,1.53 -7.2,3.79 -2.75,2.92 -5.91,5.5 -8.31,8.72 -0.59,6.59 -0.17,13.25 -0.14,19.86 49.35,0.16 98.7,0.19 148.05,-0.01 0.06,-6.61 0.45,-13.27 -0.13,-19.85 -2.41,-3.23 -5.56,-5.81 -8.31,-8.72 -1.83,-2.23 -4.9,-2.33 -7.22,-3.78 -1.02,-4.09 1.28,-9.36 -2.74,-12.28 -1.91,-2.6 -5.21,-2.53 -8.1,-2.81 -6.18,-10.98 -11.84,-22.49 -14.27,-34.95 -1.19,-7.39 -3,-14.66 -4.02,-22.07 -0.14,-1.69 1.83,-2.58 3.28,-2.4 11.62,-0.15 23.26,0.11 34.88,-0.07 2.78,0.27 1.88,-3.8 0.12,-4.56 -9.9,-6.54 -20.28,-12.5 -31.29,-16.97 -4.64,-2.04 -9.89,-2.24 -14.48,-4.32 -2.97,-2.86 -4.7,-6.8 -6.36,-10.52 -1.49,-3 2.36,-4.58 4.27,-6 11.89,-6.78 19.34,-20.58 18.54,-34.24 -0.45,-10.89 -5.69,-21.65 -14.33,-28.39 -7.85,-6.22 -18.17,-9.19 -28.13,-8.15 -9.9,1.37 -19.48,6.21 -25.64,14.2 z"
       id="path5"
       style="fill:#ececec"
       inkscape:connector-curvature="0" />
    <path
       d="m 123.35,35.28 c 10.27,-1.84 20.79,2.12 28.48,8.89 5.09,5.18 8.72,11.85 10.05,19.02 0.77,7.83 0,16.34 -4.8,22.87 -2.48,4.09 -5.68,7.76 -9.83,10.22 -13.77,10.4 -35.22,6.45 -45.31,-7.23 -5.33,-7.36 -8.29,-16.61 -6.64,-25.69 1.54,-7.32 4.86,-14.52 10.39,-19.68 5.03,-4.26 11.22,-7.09 17.66,-8.4 z"
       id="path7"
       style="fill:#ececec"
       inkscape:connector-curvature="0" />
    <path
       d="m 118.32,105.83 c 6.69,1.58 13.67,1.58 20.36,0 1.3,3.81 2.99,7.46 4.61,11.14 -9.86,0.06 -19.72,0.06 -29.58,0 1.62,-3.68 3.3,-7.33 4.61,-11.14 z"
       id="path9"
       style="fill:#ececec"
       inkscape:connector-curvature="0" />
    <path
       d="m 101.89,123.86 c 6.32,-1.09 12.68,-2.25 19.12,-1.88 9.01,0.34 18.12,-0.79 27.03,0.91 8.01,0.88 15.84,3.34 22.98,7.08 5.28,2.68 10.74,5.2 15.41,8.91 -38.93,0.26 -77.86,0.09 -116.79,0.08 10.07,-6.3 20.41,-12.8 32.25,-15.1 z"
       id="path11"
       style="fill:#ececec"
       inkscape:connector-curvature="0" />
    <path
       d="m 104.15,144 c 16.23,-0.01 32.47,-0.01 48.7,0 0.59,8.75 3.29,17.19 4.24,25.91 2.95,11.48 7.19,22.68 12.91,33.09 -27.67,-0.15 -55.33,-0.16 -82.99,0 3.15,-6.04 6.24,-12.13 8.4,-18.61 2.07,-6.43 4.72,-12.74 5.44,-19.52 0.56,-7.04 3.08,-13.79 3.3,-20.87 z"
       id="path13"
       style="fill:#ececec"
       inkscape:connector-curvature="0" />
    <path
       d="m 76.23,209.34 c 0.95,-1.78 3.1,-1.11 4.73,-1.27 32.9,0.17 65.82,-0.16 98.71,0.16 2.57,2.7 0.68,7.22 1.22,10.67 -34.93,-0.05 -69.85,-0.04 -104.78,0 0.03,-3.19 -0.2,-6.39 0.12,-9.56 z"
       id="path15"
       style="fill:#ececec"
       inkscape:connector-curvature="0" />
    <path
       d="m 67.37,224.18 c 40.75,-0.08 81.51,-0.08 122.26,0 2.36,2.43 4.75,4.82 7.17,7.19 0.08,4.83 0.03,9.66 0.05,14.49 -45.57,-0.06 -91.13,-0.06 -136.7,0 0.02,-4.83 -0.03,-9.66 0.05,-14.49 2.42,-2.37 4.81,-4.76 7.17,-7.19 z"
       id="path17"
       style="fill:#ececec"
       inkscape:connector-curvature="0" />
  </g>
  <g
     id="#404040ff"
     style="fill:#1a1a1a;fill-opacity:1;fill-rule:evenodd;stroke:none"
     transform="matrix(0.94,0,0,0.94,7.71,8.4256814)">
    <path
       d="m 98.59,44.64 c 6.16,-7.99 15.74,-12.83 25.64,-14.2 9.96,-1.04 20.28,1.93 28.13,8.15 8.64,6.74 13.88,17.5 14.33,28.39 0.8,13.66 -6.65,27.46 -18.54,34.24 -1.91,1.42 -5.76,3 -4.27,6 1.66,3.72 3.39,7.66 6.36,10.52 4.59,2.08 9.84,2.28 14.48,4.32 11.01,4.47 21.39,10.43 31.29,16.97 1.76,0.76 2.66,4.83 -0.12,4.56 -11.62,0.18 -23.26,-0.08 -34.88,0.07 -1.45,-0.18 -3.42,0.71 -3.28,2.4 1.02,7.41 2.83,14.68 4.02,22.07 2.43,12.46 8.09,23.97 14.27,34.95 2.89,0.28 6.19,0.21 8.1,2.81 4.02,2.92 1.72,8.19 2.74,12.28 2.32,1.45 5.39,1.55 7.22,3.78 2.75,2.91 5.9,5.49 8.31,8.72 0.58,6.58 0.19,13.24 0.13,19.85 -49.35,0.2 -98.7,0.17 -148.05,0.01 -0.03,-6.61 -0.45,-13.27 0.14,-19.86 2.4,-3.22 5.56,-5.8 8.31,-8.72 1.81,-2.26 4.92,-2.28 7.2,-3.79 0.83,-3.24 -0.32,-6.75 0.78,-9.91 1.46,-1.9 3.11,-4.08 5.59,-4.62 2.15,-0.63 4.84,-0.86 5.89,-3.17 7.16,-12.55 12.73,-26.29 14.45,-40.72 0.76,-4.57 1.87,-9.08 2.43,-13.68 0.18,-1.69 -1.83,-2.57 -3.27,-2.4 -10.66,-0.08 -21.33,-0.02 -32,0.01 -1.51,-0.19 -3.35,0.38 -4.6,-0.72 -0.53,-2.75 1.87,-4.51 3.9,-5.76 11.69,-6.8 23.08,-14.89 36.57,-17.65 2.48,-0.67 5.29,-0.69 7.45,-2.2 2.35,-2.81 4.04,-6.13 5.55,-9.45 0.53,-1.13 1.07,-2.67 -0.03,-3.66 -2.59,-2.53 -5.96,-4.02 -8.76,-6.27 C 96.41,91.78 91.78,82.43 90.44,72.78 89.41,62.82 92.37,52.49 98.59,44.64 m 24.76,-9.36 c -6.44,1.31 -12.63,4.14 -17.66,8.4 -5.53,5.16 -8.85,12.36 -10.39,19.68 -1.65,9.08 1.31,18.33 6.64,25.69 10.09,13.68 31.54,17.63 45.31,7.23 4.15,-2.46 7.35,-6.13 9.83,-10.22 4.8,-6.53 5.57,-15.04 4.8,-22.87 -1.33,-7.17 -4.96,-13.84 -10.05,-19.02 -7.69,-6.77 -18.21,-10.73 -28.48,-8.89 m -5.03,70.55 c -1.31,3.81 -2.99,7.46 -4.61,11.14 9.86,0.06 19.72,0.06 29.58,0 -1.62,-3.68 -3.31,-7.33 -4.61,-11.14 -6.69,1.58 -13.67,1.58 -20.36,0 m -16.43,18.03 c -11.84,2.3 -22.18,8.8 -32.25,15.1 38.93,0.01 77.86,0.18 116.79,-0.08 -4.67,-3.71 -10.13,-6.23 -15.41,-8.91 -7.14,-3.74 -14.97,-6.2 -22.98,-7.08 -8.91,-1.7 -18.02,-0.57 -27.03,-0.91 -6.44,-0.37 -12.8,0.79 -19.12,1.88 m 2.26,20.14 c -0.22,7.08 -2.74,13.83 -3.3,20.87 -0.72,6.78 -3.37,13.09 -5.44,19.52 -2.16,6.48 -5.25,12.57 -8.4,18.61 27.66,-0.16 55.32,-0.15 82.99,0 -5.72,-10.41 -9.96,-21.61 -12.91,-33.09 -0.95,-8.72 -3.65,-17.16 -4.24,-25.91 -16.23,-0.01 -32.47,-0.01 -48.7,0 m -27.92,65.34 c -0.32,3.17 -0.09,6.37 -0.12,9.56 34.93,-0.04 69.85,-0.05 104.78,0 -0.54,-3.45 1.35,-7.97 -1.22,-10.67 -32.89,-0.32 -65.81,0.01 -98.71,-0.16 -1.63,0.16 -3.78,-0.51 -4.73,1.27 m -8.86,14.84 c -2.36,2.43 -4.75,4.82 -7.17,7.19 -0.08,4.83 -0.03,9.66 -0.05,14.49 45.57,-0.06 91.13,-0.06 136.7,0 -0.02,-4.83 0.03,-9.66 -0.05,-14.49 -2.42,-2.37 -4.81,-4.76 -7.17,-7.19 -40.75,-0.08 -81.51,-0.08 -122.26,0 z"
       id="path20"
       style="fill:#1a1a1a;fill-opacity:1;fill-rule:evenodd;stroke:none"
       inkscape:connector-curvature="0" />
  </g>
</svg>
