<?xml version="1.0" encoding="UTF-8" standalone="no"?>
<svg
   xmlns:dc="http://purl.org/dc/elements/1.1/"
   xmlns:cc="http://creativecommons.org/ns#"
   xmlns:rdf="http://www.w3.org/1999/02/22-rdf-syntax-ns#"
   xmlns:svg="http://www.w3.org/2000/svg"
   xmlns="http://www.w3.org/2000/svg"
   xmlns:sodipodi="http://sodipodi.sourceforge.net/DTD/sodipodi-0.dtd"
   xmlns:inkscape="http://www.inkscape.org/namespaces/inkscape"
   width="256pt"
   height="256pt"
   viewBox="0 0 256 256"
   version="1.1"
   id="svg2"
   inkscape:version="0.48.2 r9819"
   sodipodi:docname="wq.svg">
  <metadata
     id="metadata32">
    <rdf:RDF>
      <cc:Work
         rdf:about="">
        <dc:format>image/svg+xml</dc:format>
        <dc:type
           rdf:resource="http://purl.org/dc/dcmitype/StillImage" />
      </cc:Work>
    </rdf:RDF>
  </metadata>
  <defs
     id="defs30" />
  <sodipodi:namedview
     pagecolor="#ffffff"
     bordercolor="#666666"
     borderopacity="1"
     objecttolerance="10"
     gridtolerance="10"
     guidetolerance="10"
     inkscape:pageopacity="0"
     inkscape:pageshadow="2"
     inkscape:window-width="696"
     inkscape:window-height="480"
     id="namedview28"
     showgrid="false"
     inkscape:zoom="0.7375"
     inkscape:cx="160"
     inkscape:cy="160"
     inkscape:window-x="0"
     inkscape:window-y="0"
     inkscape:window-maximized="0"
     inkscape:current-layer="svg2" />
  <g
     id="#d6d6d6ff"
     style="fill:#ececec"
     transform="matrix(0.94,0,0,0.94,7.6766784,7.9479429)">
    <path
       d="m 113,28.99 c -1.25,-8.39 6.54,-16.76 15,-16.03 8.09,-0.12 15.19,8 14,16.03 0.16,5.18 -4.45,8.25 -7.05,12.08 1.67,6.59 4.5,12.82 6.77,19.22 3.44,9.67 7.16,19.24 10.6,28.91 5.68,-11.01 11.2,-22.12 16.65,-33.25 -1.68,-3.16 -5.4,-4.84 -6.64,-8.31 -0.93,-5.14 -0.57,-11.06 3.4,-14.91 4.97,-5.99 15.01,-6.52 20.53,-1.01 5.41,4.52 6.45,13.19 2.38,18.9 -1.86,2.76 -4.76,4.54 -7.73,5.9 0.57,4.87 2.17,9.53 3.27,14.29 2.42,9.17 4.32,18.49 7.11,27.56 4.56,-3.02 8.29,-7.11 12.57,-10.52 3.29,-2.66 6.62,-5.33 9.29,-8.66 -4.68,-5.38 -4.35,-14.34 0.58,-19.46 3.74,-4.46 10.19,-5.89 15.62,-4.08 5.71,2.2 10.27,8.05 9.69,14.35 0.14,7.83 -7.24,14.19 -14.83,14.27 -12.47,34.32 -24.36,68.83 -36.77,103.17 -1.02,4.99 -0.65,10.22 -0.33,15.28 1.34,2.28 4.11,3.43 5.61,5.67 0.36,3.11 0.18,6.25 0.28,9.37 2.16,0.35 4.73,0.09 6.22,2.02 3.14,3.22 6.51,6.24 9.45,9.65 0.49,7.38 0.35,14.84 -0.01,22.23 -4.87,0.55 -9.77,0.28 -14.66,0.27 -43.67,0.01 -87.33,0 -131,0 -5.22,-0.02 -10.46,0.34 -15.66,-0.28 -0.37,-7.39 -0.5,-14.84 -0.01,-22.21 2.93,-3.42 6.31,-6.43 9.45,-9.65 1.49,-1.94 4.05,-1.68 6.22,-2.03 0.09,-3.12 -0.08,-6.26 0.28,-9.36 1.49,-2.25 4.26,-3.4 5.61,-5.67 0.31,-5.06 0.69,-10.29 -0.33,-15.28 C 56.15,153.11 44.26,118.59 31.79,84.27 25.61,84.12 19.8,80.19 17.65,74.36 c -3.4,-8.81 3.87,-19.57 13.34,-19.4 8.08,-0.7 15.72,6.96 15.05,15.04 0.44,3.45 -1.13,6.55 -3.19,9.19 3.71,4.64 8.71,7.92 13.05,11.92 3.06,2.27 5.45,5.38 8.81,7.26 C 67.57,89.03 69.53,79.45 72.02,70 73.08,65.52 74.56,61.12 75.09,56.52 69.6,54.34 64.74,49.21 64.96,43 64.26,34.93 71.93,27.27 80,27.96 c 5.18,-0.17 9.88,3.31 12.38,7.65 2.08,3.35 1.77,7.47 1.45,11.22 -0.71,4 -5.04,5.74 -6.8,9.12 C 92.48,67.07 98,78.19 103.68,89.2 109.4,73.1 115.73,57.22 121.21,41.04 117.26,38.12 113.08,34.29 113,28.99 m 3.17,-8.74 c -2.09,3.43 -2.06,7.75 -1.27,11.57 0.83,4.05 4.73,6.05 7.31,8.85 0.22,1.6 -0.5,3.13 -0.93,4.63 -5.6,15.2 -11.45,30.32 -16.68,45.65 -1.42,-1.07 -2.77,-2.3 -3.5,-3.96 -4.28,-8.7 -8.55,-17.41 -13.02,-26.01 -0.8,-1.8 -1.98,-3.64 -1.79,-5.69 1.75,-3.3 6.01,-5.19 6.15,-9.28 0.3,-3.85 0.37,-8.13 -2.03,-11.38 -5.11,-7.55 -18.47,-6.99 -22.61,1.27 -1.84,3.84 -1.83,8.55 -0.34,12.5 1.52,4.07 6,5.44 8.88,8.28 0.23,1.71 -0.33,3.4 -0.7,5.05 C 72.28,74.25 69.37,86.9 66.1,99.45 64.62,99.38 63.12,99.16 62.08,97.99 55.26,91.76 48.02,86.02 41.18,79.81 45.01,74.88 45.87,67.76 42.82,62.24 37.9,53.84 23.27,54.48 19.46,63.6 c -1.96,5.25 -1.45,12.08 3.04,15.93 2.55,2.58 6.39,2.48 9.64,3.48 2.29,2.37 2.59,5.96 3.81,8.92 11.29,31.17 22.07,62.51 33.36,93.68 1.9,4.86 1.32,10.2 1.22,15.3 0.24,3.57 -3.85,4.8 -5.53,7.41 -0.72,3.26 -0.22,6.64 -0.76,9.93 -2.59,1.63 -6.12,1.36 -8.29,3.73 -2.49,2.58 -5.66,4.84 -7.15,8.16 -0.51,6.82 -0.5,13.73 0.14,20.55 52.7,0.01 105.41,0.01 158.12,0 0.64,-6.82 0.65,-13.73 0.14,-20.54 -1.5,-3.33 -4.66,-5.6 -7.16,-8.19 -2.17,-2.37 -5.71,-2.05 -8.27,-3.72 -0.57,-3.28 -0.05,-6.67 -0.77,-9.92 -1.68,-2.61 -5.76,-3.85 -5.53,-7.41 -0.1,-5.1 -0.68,-10.44 1.22,-15.3 11.28,-31.17 22.08,-62.51 33.36,-93.68 1.21,-2.96 1.52,-6.55 3.81,-8.92 3.03,-0.96 6.55,-0.84 9.09,-3.01 5.11,-3.91 5.81,-11.57 3.24,-17.11 -4.38,-8.74 -19.01,-8.76 -23.38,0.01 -2.57,5.48 -1.69,12.15 2.02,16.91 -5.93,5.42 -12.24,10.4 -18.21,15.78 -1.96,1.71 -3.83,4.09 -6.71,3.86 -3.28,-12.55 -6.19,-25.2 -9.55,-37.73 -0.38,-1.65 -0.89,-3.32 -0.7,-5.03 2.85,-2.88 7.37,-4.2 8.88,-8.29 1.48,-3.95 1.5,-8.66 -0.34,-12.5 -4.15,-8.26 -17.5,-8.81 -22.62,-1.27 -2.54,3.53 -2.37,8.19 -1.89,12.31 0.45,4.45 7.93,6.37 5.48,11.28 -3.93,8.32 -8.32,16.43 -12.29,24.74 -1.43,2.9 -2.6,6.2 -5.48,7.99 -5.3,-15.59 -11.31,-30.93 -16.93,-46.41 -0.29,-1.25 -1.03,-2.58 -0.62,-3.88 2.12,-3.25 5.87,-5.62 6.46,-9.72 0.5,-3.58 0.5,-7.53 -1.48,-10.69 -4.65,-7.91 -18.02,-7.91 -22.66,0 z"
       id="path5"
       style="fill:#ececec"
       inkscape:connector-curvature="0" />
    <path
       d="m 124.34,19.26 c 2.76,-0.69 5.96,-0.66 8.38,1.01 5.11,3.47 4.56,12.77 -1.32,15.17 -2.9,1.1 -6.48,1.05 -9.12,-0.72 -5.38,-3.63 -4.41,-13.57 2.06,-15.46 z"
       id="path7"
       style="fill:#ececec"
       inkscape:connector-curvature="0" />
    <path
       d="m 76.34,34.26 c 2.76,-0.69 5.95,-0.65 8.37,1.02 5.11,3.46 4.57,12.76 -1.31,15.16 -2.9,1.1 -6.47,1.04 -9.11,-0.72 -5.39,-3.63 -4.42,-13.57 2.05,-15.46 z"
       id="path9"
       style="fill:#ececec"
       inkscape:connector-curvature="0" />
    <path
       d="m 173.34,34.26 c 2.76,-0.69 5.95,-0.65 8.37,1.02 5.12,3.46 4.56,12.76 -1.31,15.16 -2.9,1.11 -6.47,1.04 -9.11,-0.72 -5.39,-3.63 -4.42,-13.56 2.05,-15.46 z"
       id="path11"
       style="fill:#ececec"
       inkscape:connector-curvature="0" />
    <path
       d="m 127.34,41.18 c 0.33,0 0.99,0.01 1.32,0.02 6.45,19.02 13.82,37.73 20.48,56.69 0.22,2.3 3.75,2.97 4.94,1.35 6.62,-13.91 13.51,-27.73 20.62,-41.41 4.09,16.47 8.56,32.84 12.65,49.32 5.84,-0.4 9.19,-6.01 13.53,-9.25 5.6,-4.25 10.27,-9.74 16.33,-13.33 -1.13,7 -4.71,13.26 -6.56,20.07 -6.83,18.88 -13.35,37.88 -20.27,56.73 -2.87,8.5 -6.28,16.8 -8.76,25.43 -35.74,0.19 -71.5,0.19 -107.25,0 C 69.7,171.78 63.91,157.13 58.72,142.29 53.64,127.44 48.08,112.76 43.07,97.89 41.44,93.52 39.44,89.23 38.79,84.57 c 1.64,0.85 3.21,1.84 4.54,3.12 5.35,4.99 11.19,9.43 16.49,14.48 2.56,2.23 5.17,5 8.83,4.98 4.09,-16.48 8.56,-32.85 12.65,-49.32 6.23,11.82 12.06,23.87 18,35.84 1.46,2.35 1.72,7.28 5.51,6.31 1.83,-0.04 1.97,-2.34 2.63,-3.59 6.4,-18.49 13.68,-36.67 19.9,-55.21 z"
       id="path13"
       style="fill:#ececec"
       inkscape:connector-curvature="0" />
    <path
       d="m 28.35,61.27 c 2.75,-0.69 5.94,-0.65 8.36,1.01 5.11,3.45 4.56,12.75 -1.31,15.15 -2.9,1.11 -6.47,1.04 -9.11,-0.71 -5.38,-3.63 -4.42,-13.58 2.06,-15.45 z"
       id="path15"
       style="fill:#ececec"
       inkscape:connector-curvature="0" />
    <path
       d="m 221.35,61.27 c 2.75,-0.69 5.94,-0.65 8.36,1.01 5.11,3.47 4.56,12.76 -1.31,15.15 -2.91,1.11 -6.47,1.04 -9.11,-0.72 -5.38,-3.62 -4.41,-13.56 2.06,-15.44 z"
       id="path17"
       style="fill:#ececec"
       inkscape:connector-curvature="0" />
    <path
       d="m 75.13,192.13 c 35.25,-0.05 70.49,-0.06 105.73,0 0.12,3.57 0.11,7.15 -0.01,10.72 -35.23,0.05 -70.46,0.04 -105.69,0 -0.13,-3.57 -0.14,-7.15 -0.03,-10.72 z"
       id="path19"
       style="fill:#ececec"
       inkscape:connector-curvature="0" />
    <path
       d="m 69.38,211.42 c 1.45,-2.7 4.76,-3.4 7.58,-3.32 34.03,0.06 68.06,0.07 102.09,0 2.81,-0.07 6.13,0.62 7.57,3.32 0.5,2.43 0.26,4.94 0.26,7.41 -39.25,0.01 -78.51,0.01 -117.76,-0.01 -0.01,-2.46 -0.24,-4.97 0.26,-7.4 z"
       id="path21"
       style="fill:#ececec"
       inkscape:connector-curvature="0" />
    <path
       d="m 61.51,224.5 c 3.45,-0.71 7,-0.28 10.49,-0.34 37,0.03 74,0.01 111,0.01 3.82,0.08 7.71,-0.42 11.49,0.34 3.01,2.26 5.74,4.98 7.98,8.01 0.8,4.37 0.26,8.84 0.29,13.25 -49.84,0.01 -99.68,0 -149.52,0.01 0.03,-4.41 -0.51,-8.89 0.28,-13.26 2.25,-3.03 4.98,-5.75 7.99,-8.02 z"
       id="path23"
       style="fill:#ececec"
       inkscape:connector-curvature="0" />
  </g>
  <g
     id="#404040ff"
     transform="matrix(0.94,0,0,0.94,7.6766784,7.9479429)"
     style="fill:#1a1a1a">
    <path
       d="m 116.17,20.25 c 4.64,-7.91 18.01,-7.91 22.66,0 1.98,3.16 1.98,7.11 1.48,10.69 -0.59,4.1 -4.34,6.47 -6.46,9.72 -0.41,1.3 0.33,2.63 0.62,3.88 5.62,15.48 11.63,30.82 16.93,46.41 2.88,-1.79 4.05,-5.09 5.48,-7.99 3.97,-8.31 8.36,-16.42 12.29,-24.74 2.45,-4.91 -5.03,-6.83 -5.48,-11.28 -0.48,-4.12 -0.65,-8.78 1.89,-12.31 5.12,-7.54 18.47,-6.99 22.62,1.27 1.84,3.84 1.82,8.55 0.34,12.5 -1.51,4.09 -6.03,5.41 -8.88,8.29 -0.19,1.71 0.32,3.38 0.7,5.03 3.36,12.53 6.27,25.18 9.55,37.73 2.88,0.23 4.75,-2.15 6.71,-3.86 5.97,-5.38 12.28,-10.36 18.21,-15.78 -3.71,-4.76 -4.59,-11.43 -2.02,-16.91 4.37,-8.77 19,-8.75 23.38,-0.01 2.57,5.54 1.87,13.2 -3.24,17.11 -2.54,2.17 -6.06,2.05 -9.09,3.01 -2.29,2.37 -2.6,5.96 -3.81,8.92 -11.28,31.17 -22.08,62.51 -33.36,93.68 -1.9,4.86 -1.32,10.2 -1.22,15.3 -0.23,3.56 3.85,4.8 5.53,7.41 0.72,3.25 0.2,6.64 0.77,9.92 2.56,1.67 6.1,1.35 8.27,3.72 2.5,2.59 5.66,4.86 7.16,8.19 0.51,6.81 0.5,13.72 -0.14,20.54 -52.71,0.01 -105.42,0.01 -158.12,0 -0.64,-6.82 -0.65,-13.73 -0.14,-20.55 1.49,-3.32 4.66,-5.58 7.15,-8.16 2.17,-2.37 5.7,-2.1 8.29,-3.73 0.54,-3.29 0.04,-6.67 0.76,-9.93 1.68,-2.61 5.77,-3.84 5.53,-7.41 0.1,-5.1 0.68,-10.44 -1.22,-15.3 C 58.02,154.44 47.24,123.1 35.95,91.93 c -1.22,-2.96 -1.52,-6.55 -3.81,-8.92 -3.25,-1 -7.09,-0.9 -9.64,-3.48 -4.49,-3.85 -5,-10.68 -3.04,-15.93 3.81,-9.12 18.44,-9.76 23.36,-1.36 3.05,5.52 2.19,12.64 -1.64,17.57 6.84,6.21 14.08,11.95 20.9,18.18 1.04,1.17 2.54,1.39 4.02,1.46 3.27,-12.55 6.18,-25.2 9.54,-37.72 0.37,-1.65 0.93,-3.34 0.7,-5.05 -2.88,-2.84 -7.36,-4.21 -8.88,-8.28 -1.49,-3.95 -1.5,-8.66 0.34,-12.5 4.14,-8.26 17.5,-8.82 22.61,-1.27 2.4,3.25 2.33,7.53 2.03,11.38 -0.14,4.09 -4.4,5.98 -6.15,9.28 -0.19,2.05 0.99,3.89 1.79,5.69 4.47,8.6 8.74,17.31 13.02,26.01 0.73,1.66 2.08,2.89 3.5,3.96 5.23,-15.33 11.08,-30.45 16.68,-45.65 0.43,-1.5 1.15,-3.03 0.93,-4.63 -2.58,-2.8 -6.48,-4.8 -7.31,-8.85 -0.79,-3.82 -0.82,-8.14 1.27,-11.57 m 8.17,-0.99 c -6.47,1.89 -7.44,11.83 -2.06,15.46 2.64,1.77 6.22,1.82 9.12,0.72 5.88,-2.4 6.43,-11.7 1.32,-15.17 -2.42,-1.67 -5.62,-1.7 -8.38,-1.01 m -48,15 c -6.47,1.89 -7.44,11.83 -2.05,15.46 2.64,1.76 6.21,1.82 9.11,0.72 5.88,-2.4 6.42,-11.7 1.31,-15.16 -2.42,-1.67 -5.61,-1.71 -8.37,-1.02 m 97,0 c -6.47,1.9 -7.44,11.83 -2.05,15.46 2.64,1.76 6.21,1.83 9.11,0.72 5.87,-2.4 6.43,-11.7 1.31,-15.16 -2.42,-1.67 -5.61,-1.71 -8.37,-1.02 m -46,6.92 c -6.22,18.54 -13.5,36.72 -19.9,55.21 -0.66,1.25 -0.8,3.55 -2.63,3.59 -3.79,0.97 -4.05,-3.96 -5.51,-6.31 C 93.36,81.7 87.53,69.65 81.3,57.83 77.21,74.3 72.74,90.67 68.65,107.15 64.99,107.17 62.38,104.4 59.82,102.17 54.52,97.12 48.68,92.68 43.33,87.69 42,86.41 40.43,85.42 38.79,84.57 c 0.65,4.66 2.65,8.95 4.28,13.32 5.01,14.87 10.57,29.55 15.65,44.4 5.19,14.84 10.98,29.49 15.65,44.51 35.75,0.19 71.51,0.19 107.25,0 2.48,-8.63 5.89,-16.93 8.76,-25.43 6.92,-18.85 13.44,-37.85 20.27,-56.73 1.85,-6.81 5.43,-13.07 6.56,-20.07 -6.06,3.59 -10.73,9.08 -16.33,13.33 -4.34,3.24 -7.69,8.85 -13.53,9.25 -4.09,-16.48 -8.56,-32.85 -12.65,-49.32 -7.11,13.68 -14,27.5 -20.62,41.41 -1.19,1.62 -4.72,0.95 -4.94,-1.35 -6.66,-18.96 -14.03,-37.67 -20.48,-56.69 -0.33,-0.01 -0.99,-0.02 -1.32,-0.02 M 28.35,61.27 c -6.48,1.87 -7.44,11.82 -2.06,15.45 2.64,1.75 6.21,1.82 9.11,0.71 5.87,-2.4 6.42,-11.7 1.31,-15.15 -2.42,-1.66 -5.61,-1.7 -8.36,-1.01 m 193,0 c -6.47,1.88 -7.44,11.82 -2.06,15.44 2.64,1.76 6.2,1.83 9.11,0.72 5.87,-2.39 6.42,-11.68 1.31,-15.15 -2.42,-1.66 -5.61,-1.7 -8.36,-1.01 M 75.13,192.13 c -0.11,3.57 -0.1,7.15 0.03,10.72 35.23,0.04 70.46,0.05 105.69,0 0.12,-3.57 0.13,-7.15 0.01,-10.72 -35.24,-0.06 -70.48,-0.05 -105.73,0 m -5.75,19.29 c -0.5,2.43 -0.27,4.94 -0.26,7.4 39.25,0.02 78.51,0.02 117.76,0.01 0,-2.47 0.24,-4.98 -0.26,-7.41 -1.44,-2.7 -4.76,-3.39 -7.57,-3.32 -34.03,0.07 -68.06,0.06 -102.09,0 -2.82,-0.08 -6.13,0.62 -7.58,3.32 m -7.87,13.08 c -3.01,2.27 -5.74,4.99 -7.99,8.02 -0.79,4.37 -0.25,8.85 -0.28,13.26 49.84,-0.01 99.68,0 149.52,-0.01 -0.03,-4.41 0.51,-8.88 -0.29,-13.25 -2.24,-3.03 -4.97,-5.75 -7.98,-8.01 -3.78,-0.76 -7.67,-0.26 -11.49,-0.34 -37,0 -74,0.02 -111,-0.01 -3.49,0.06 -7.04,-0.37 -10.49,0.34 z"
       id="path26"
       inkscape:connector-curvature="0"
       style="fill:#1a1a1a" />
  </g>
</svg>
