<?xml version="1.0" encoding="UTF-8" standalone="no"?>
<svg
   xmlns:dc="http://purl.org/dc/elements/1.1/"
   xmlns:cc="http://creativecommons.org/ns#"
   xmlns:rdf="http://www.w3.org/1999/02/22-rdf-syntax-ns#"
   xmlns:svg="http://www.w3.org/2000/svg"
   xmlns="http://www.w3.org/2000/svg"
   xmlns:sodipodi="http://sodipodi.sourceforge.net/DTD/sodipodi-0.dtd"
   xmlns:inkscape="http://www.inkscape.org/namespaces/inkscape"
   width="256pt"
   height="256pt"
   viewBox="0 0 256 256"
   version="1.1"
   id="svg2"
   inkscape:version="0.48.2 r9819"
   sodipodi:docname="wr.svg">
  <metadata
     id="metadata42">
    <rdf:RDF>
      <cc:Work
         rdf:about="">
        <dc:format>image/svg+xml</dc:format>
        <dc:type
           rdf:resource="http://purl.org/dc/dcmitype/StillImage" />
      </cc:Work>
    </rdf:RDF>
  </metadata>
  <defs
     id="defs40" />
  <sodipodi:namedview
     pagecolor="#ffffff"
     bordercolor="#666666"
     borderopacity="1"
     objecttolerance="10"
     gridtolerance="10"
     guidetolerance="10"
     inkscape:pageopacity="0"
     inkscape:pageshadow="2"
     inkscape:window-width="696"
     inkscape:window-height="480"
     id="namedview38"
     showgrid="false"
     inkscape:zoom="0.7375"
     inkscape:cx="160"
     inkscape:cy="160"
     inkscape:window-x="0"
     inkscape:window-y="0"
     inkscape:window-maximized="0"
     inkscape:current-layer="svg2" />
  <g
     id="#d8d8d8ff"
     transform="matrix(0.94,0,0,0.94,7.71,8.3376)"
     style="fill:#ececec">
    <path
       d="m 47,27.01 c 1.77,-1.29 3.97,-0.88 6.01,-0.93 10.34,0.04 20.69,0 31.04,0.01 1.06,0 2.05,0.31 2.95,0.93 -0.2,6.69 -0.04,13.38 -0.1,20.08 6.4,-0.01 12.8,0 19.2,-0.01 0.04,-6.37 -0.09,-12.75 0.03,-19.12 0.22,-0.49 0.66,-1.48 0.88,-1.97 14.32,0.16 28.65,0.16 42.98,0 0.22,0.5 0.66,1.51 0.88,2.01 0.12,6.36 -0.01,12.72 0.04,19.09 6.39,-0.01 12.79,-0.01 19.19,0 0.04,-6.38 -0.09,-12.75 0.03,-19.13 0.22,-0.49 0.66,-1.47 0.88,-1.97 12.01,0.22 24.02,0.04 36.02,0.09 1.07,-0.01 2.06,0.3 2.97,0.92 -0.17,14.2 -0.12,28.4 -0.03,42.6 -5.91,5.66 -11.7,11.46 -17.37,17.37 -1.56,-0.05 -3.12,-0.08 -4.68,-0.1 -0.03,38.41 -0.01,76.82 -0.01,115.24 1.56,-0.03 3.13,-0.05 4.69,-0.1 2.01,2.23 4.14,4.36 6.37,6.37 -0.09,3.25 -0.07,6.49 -0.05,9.74 1.22,-0.04 2.44,-0.08 3.67,-0.12 4,4.24 8.14,8.37 12.38,12.38 -0.09,6.86 -0.14,13.73 0.03,20.59 -0.9,0.61 -1.87,0.92 -2.92,0.93 -55.73,-0.01 -111.45,-0.01 -167.18,0.01 -1.04,-0.02 -2.01,-0.33 -2.9,-0.93 0.17,-6.87 0.12,-13.73 0.03,-20.6 4.24,-4 8.37,-8.13 12.38,-12.37 1.22,0.03 2.45,0.07 3.67,0.1 0.02,-3.24 0.04,-6.49 -0.05,-9.73 2.23,-2.01 4.36,-4.14 6.37,-6.37 1.56,0.05 3.12,0.07 4.69,0.1 0,-38.41 0.03,-76.82 -0.01,-115.24 -1.57,0.02 -3.13,0.05 -4.69,0.09 C 58.73,81.06 52.94,75.27 47.03,69.61 47.12,55.41 47.17,41.21 47,27.01 m 1.44,0.43 c -0.16,13.99 -0.03,27.99 -0.07,41.98 4.8,4.95 9.7,9.79 14.57,14.66 1.41,1.89 3.86,1.5 5.91,1.57 0.57,1.08 1.65,2.02 1.49,3.37 0.12,37.44 -0.09,74.88 0.1,112.32 -0.59,0.65 -1.19,1.29 -1.78,1.94 -4.19,-0.81 -6.83,2.56 -9.3,5.31 -0.27,3.56 1.06,7.69 -1.46,10.69 -1.78,0.09 -3.76,0.11 -4.97,1.65 -3.13,3.24 -6.62,6.18 -9.38,9.75 -0.46,6.6 -0.1,13.26 -0.11,19.88 56.7,0.12 113.41,0.11 170.11,0.01 0.01,-6.63 0.35,-13.28 -0.1,-19.89 -2.74,-3.56 -6.23,-6.47 -9.33,-9.71 -1.18,-1.58 -3.19,-1.54 -4.94,-1.68 -2.7,-2.9 -1.23,-7.13 -1.54,-10.69 -2.47,-2.78 -5.15,-6.14 -9.35,-5.33 -0.58,-0.65 -1.16,-1.31 -1.73,-1.96 0.19,-37.44 -0.02,-74.89 0.1,-112.32 -0.11,-1.31 0.9,-2.25 1.44,-3.33 1.83,-0.18 4.05,0.43 5.45,-1.13 5.11,-4.97 10.14,-10.04 15.1,-15.16 -0.09,-13.98 0.1,-27.96 -0.1,-41.94 -12.37,-0.1 -24.74,-0.11 -37.1,0 -0.3,6.43 0.23,12.88 -0.25,19.29 -0.36,0.37 -1.08,1.11 -1.44,1.48 -6.17,0.44 -12.37,0.04 -18.55,0.16 -0.41,-0.52 -1.23,-1.56 -1.64,-2.08 0.09,-6.28 0.12,-12.57 -0.02,-18.85 -14.03,-0.1 -28.07,-0.1 -42.1,0 -0.17,6.46 -0.04,12.92 -0.09,19.37 -0.52,0.41 -1.56,1.22 -2.09,1.63 -6.01,-0.26 -12.05,0.24 -18.05,-0.24 -0.35,-0.35 -1.04,-1.07 -1.39,-1.42 -0.54,-6.42 0.03,-12.89 -0.28,-19.33 -12.37,-0.12 -24.74,-0.12 -37.11,0 z"
       id="path5"
       inkscape:connector-curvature="0"
       style="fill:#ececec" />
    <path
       d="m 54,32 c 8.67,0 17.33,0 26,0 0,7.33 0,14.66 0,22 10.67,0 21.33,0 32,0 0,-7.34 0,-14.67 0,-22 10.67,0 21.33,0 32,0 0,7.33 0,14.67 0,22 10.67,0 21.33,0 32,0 0,-7.33 0,-14.67 0,-22 9,0 18,0 27,0 0,12.22 0,24.44 0,36.67 -3.85,3.7 -7.64,7.48 -11.34,11.33 -42.11,0 -84.21,0 -126.31,0 C 61.64,76.15 57.85,72.37 54,68.66 54,56.44 54,44.22 54,32 z"
       id="path7"
       inkscape:connector-curvature="0"
       style="fill:#ececec" />
    <path
       d="m 75,86 c 35.67,0 71.33,0 107,0 0,3.33 0,6.67 0,10 -35.67,0 -71.33,0 -107,0 0,-3.33 0,-6.67 0,-10 z"
       id="path9"
       inkscape:connector-curvature="0"
       style="fill:#ececec" />
    <path
       d="m 75,102 c 9,0 18,0 27,0 0,7 0,14 0,21 -9,0 -18,0 -27,0 0,-7 0,-14 0,-21 z"
       id="path11"
       inkscape:connector-curvature="0"
       style="fill:#ececec" />
    <path
       d="m 107,102 c 14.33,0 28.67,0 43,0 0,7 0,14 0,21 -14.33,0 -28.67,0 -43,0 0,-7 0,-14 0,-21 z"
       id="path13"
       inkscape:connector-curvature="0"
       style="fill:#ececec" />
    <path
       d="m 155,102 c 9,0 18,0 27,0 0,7 0,14 0,21 -9,0 -18,0 -27,0 0,-7 0,-14 0,-21 z"
       id="path15"
       inkscape:connector-curvature="0"
       style="fill:#ececec" />
    <path
       d="m 75,128 c 17.67,0 35.33,0 53,0 0,7.33 0,14.66 -0.01,21.99 C 110.33,149.98 92.67,149.98 75.01,150 75,142.66 75,135.33 75,128 z"
       id="path17"
       inkscape:connector-curvature="0"
       style="fill:#ececec" />
    <path
       d="m 134,128 c 16,0 32,0 48,0 0,7.33 0,14.66 -0.01,21.99 -16,-0.01 -31.99,-0.01 -47.98,0 0,-7.33 -0.02,-14.66 -0.01,-21.99 z"
       id="path19"
       inkscape:connector-curvature="0"
       style="fill:#ececec" />
    <path
       d="m 75.01,155.02 c 8.99,0.01 17.98,0.02 26.97,-0.01 -0.02,6.99 -0.05,13.97 -0.02,20.95 -8.97,-0.04 -17.95,-0.04 -26.92,0 0.03,-6.98 0,-13.96 -0.03,-20.94 z"
       id="path21"
       inkscape:connector-curvature="0"
       style="fill:#ececec" />
    <path
       d="m 107.02,155.02 c 14.32,0.01 28.64,0.02 42.96,-0.01 -0.02,6.98 -0.05,13.96 -0.02,20.94 -14.3,-0.03 -28.61,-0.04 -42.92,0.01 0.03,-6.98 0,-13.96 -0.02,-20.94 z"
       id="path23"
       inkscape:connector-curvature="0"
       style="fill:#ececec" />
    <path
       d="m 155.02,155.02 c 8.98,0.01 17.97,0.02 26.96,-0.01 -0.01,6.98 -0.06,13.96 -0.02,20.94 -8.97,-0.03 -17.95,-0.03 -26.92,0.01 0.03,-6.99 0,-13.96 -0.02,-20.94 z"
       id="path25"
       inkscape:connector-curvature="0"
       style="fill:#ececec" />
    <path
       d="m 75.05,182.05 c 17.63,0.04 35.27,0.04 52.9,0 -0.05,6.96 -0.08,13.92 -0.03,20.88 -17.61,-0.07 -35.23,-0.07 -52.84,0 0.04,-6.96 0.02,-13.92 -0.03,-20.88 z"
       id="path27"
       inkscape:connector-curvature="0"
       style="fill:#ececec" />
    <path
       d="m 134.04,182.06 c 15.97,0.03 31.94,0.04 47.91,-0.01 -0.05,6.96 -0.08,13.91 -0.02,20.87 -15.95,-0.05 -31.9,-0.07 -47.85,0.01 0.04,-6.96 0.03,-13.91 -0.04,-20.87 z"
       id="path29"
       inkscape:connector-curvature="0"
       style="fill:#ececec" />
    <path
       d="m 65.25,209.32 c 0.65,-0.98 1.57,-1.38 2.74,-1.2 40.36,0.01 80.71,0 121.07,0 1.16,-0.17 2.06,0.23 2.69,1.2 0.3,3.18 0.08,6.39 0.14,9.59 -42.26,-0.09 -84.52,-0.09 -126.78,0 0.06,-3.2 -0.16,-6.41 0.14,-9.59 z"
       id="path31"
       inkscape:connector-curvature="0"
       style="fill:#ececec" />
    <path
       d="m 56.4,224.14 c 48.06,0.01 96.13,0.02 144.19,0 2.37,2.48 4.79,4.9 7.27,7.28 -0.05,4.82 -0.08,9.63 0.01,14.45 -52.92,-0.11 -105.83,-0.09 -158.74,-0.01 0.09,-4.82 0.04,-9.65 0.03,-14.48 2.47,-2.35 4.89,-4.77 7.24,-7.24 z"
       id="path33"
       inkscape:connector-curvature="0"
       style="fill:#ececec" />
  </g>
  <g
     id="#404040ff"
     style="fill:#1a1a1a;fill-opacity:1"
     transform="matrix(0.94,0,0,0.94,7.71,8.3376)">
    <path
       d="m 48.44,27.44 c 12.37,-0.12 24.74,-0.12 37.11,0 0.31,6.44 -0.26,12.91 0.28,19.33 0.35,0.35 1.04,1.07 1.39,1.42 6,0.48 12.04,-0.02 18.05,0.24 0.53,-0.41 1.57,-1.22 2.09,-1.63 0.05,-6.45 -0.08,-12.91 0.09,-19.37 14.03,-0.1 28.07,-0.1 42.1,0 0.14,6.28 0.11,12.57 0.02,18.85 0.41,0.52 1.23,1.56 1.64,2.08 6.18,-0.12 12.38,0.28 18.55,-0.16 0.36,-0.37 1.08,-1.11 1.44,-1.48 0.48,-6.41 -0.05,-12.86 0.25,-19.29 12.36,-0.11 24.73,-0.1 37.1,0 0.2,13.98 0.01,27.96 0.1,41.94 -4.96,5.12 -9.99,10.19 -15.1,15.16 -1.4,1.56 -3.62,0.95 -5.45,1.13 -0.54,1.08 -1.55,2.02 -1.44,3.33 -0.12,37.43 0.09,74.88 -0.1,112.32 0.57,0.65 1.15,1.31 1.73,1.96 4.2,-0.81 6.88,2.55 9.35,5.33 0.31,3.56 -1.16,7.79 1.54,10.69 1.75,0.14 3.76,0.1 4.94,1.68 3.1,3.24 6.59,6.15 9.33,9.71 0.45,6.61 0.11,13.26 0.1,19.89 -56.7,0.1 -113.41,0.11 -170.11,-0.01 0.01,-6.62 -0.35,-13.28 0.11,-19.88 2.76,-3.57 6.25,-6.51 9.38,-9.75 1.21,-1.54 3.19,-1.56 4.97,-1.65 2.52,-3 1.19,-7.13 1.46,-10.69 2.47,-2.75 5.11,-6.12 9.3,-5.31 0.59,-0.65 1.19,-1.29 1.78,-1.94 C 70.25,163.9 70.46,126.46 70.34,89.02 70.5,87.67 69.42,86.73 68.85,85.65 66.8,85.58 64.35,85.97 62.94,84.08 58.07,79.21 53.17,74.37 48.37,69.42 48.41,55.43 48.28,41.43 48.44,27.44 M 54,32 c 0,12.22 0,24.44 0,36.66 3.85,3.71 7.64,7.49 11.35,11.34 42.1,0 84.2,0 126.31,0 3.7,-3.85 7.49,-7.63 11.34,-11.33 0,-12.23 0,-24.45 0,-36.67 -9,0 -18,0 -27,0 0,7.33 0,14.67 0,22 -10.67,0 -21.33,0 -32,0 0,-7.33 0,-14.67 0,-22 -10.67,0 -21.33,0 -32,0 0,7.33 0,14.66 0,22 -10.67,0 -21.33,0 -32,0 0,-7.34 0,-14.67 0,-22 -8.67,0 -17.33,0 -26,0 m 21,54 c 0,3.33 0,6.67 0,10 35.67,0 71.33,0 107,0 0,-3.33 0,-6.67 0,-10 -35.67,0 -71.33,0 -107,0 m 0,16 c 0,7 0,14 0,21 9,0 18,0 27,0 0,-7 0,-14 0,-21 -9,0 -18,0 -27,0 m 32,0 c 0,7 0,14 0,21 14.33,0 28.67,0 43,0 0,-7 0,-14 0,-21 -14.33,0 -28.67,0 -43,0 m 48,0 c 0,7 0,14 0,21 9,0 18,0 27,0 0,-7 0,-14 0,-21 -9,0 -18,0 -27,0 m -80,26 c 0,7.33 0,14.66 0.01,22 17.66,-0.02 35.32,-0.02 52.98,-0.01 C 128,142.66 128,135.33 128,128 c -17.67,0 -35.33,0 -53,0 m 59,0 c -0.01,7.33 0.01,14.66 0.01,21.99 15.99,-0.01 31.98,-0.01 47.98,0 C 182,142.66 182,135.33 182,128 c -16,0 -32,0 -48,0 m -58.99,27.02 c 0.03,6.98 0.06,13.96 0.03,20.94 8.97,-0.04 17.95,-0.04 26.92,0 -0.03,-6.98 0,-13.96 0.02,-20.95 -8.99,0.03 -17.98,0.02 -26.97,0.01 m 32.01,0 c 0.02,6.98 0.05,13.96 0.02,20.94 14.31,-0.05 28.62,-0.04 42.92,-0.01 -0.03,-6.98 0,-13.96 0.02,-20.94 -14.32,0.03 -28.64,0.02 -42.96,0.01 m 48,0 c 0.02,6.98 0.05,13.95 0.02,20.94 8.97,-0.04 17.95,-0.04 26.92,-0.01 -0.04,-6.98 0.01,-13.96 0.02,-20.94 -8.99,0.03 -17.98,0.02 -26.96,0.01 m -79.97,27.03 c 0.05,6.96 0.07,13.92 0.03,20.88 17.61,-0.07 35.23,-0.07 52.84,0 -0.05,-6.96 -0.02,-13.92 0.03,-20.88 -17.63,0.04 -35.27,0.04 -52.9,0 m 58.99,0.01 c 0.07,6.96 0.08,13.91 0.04,20.87 15.95,-0.08 31.9,-0.06 47.85,-0.01 -0.06,-6.96 -0.03,-13.91 0.02,-20.87 -15.97,0.05 -31.94,0.04 -47.91,0.01 m -68.79,27.26 c -0.3,3.18 -0.08,6.39 -0.14,9.59 42.26,-0.09 84.52,-0.09 126.78,0 -0.06,-3.2 0.16,-6.41 -0.14,-9.59 -0.63,-0.97 -1.53,-1.37 -2.69,-1.2 -40.36,0 -80.71,0.01 -121.07,0 -1.17,-0.18 -2.09,0.22 -2.74,1.2 m -8.85,14.82 c -2.35,2.47 -4.77,4.89 -7.24,7.24 0.01,4.83 0.06,9.66 -0.03,14.48 52.91,-0.08 105.82,-0.1 158.74,0.01 -0.09,-4.82 -0.06,-9.63 -0.01,-14.45 -2.48,-2.38 -4.9,-4.8 -7.27,-7.28 -48.06,0.02 -96.13,0.01 -144.19,0 z"
       id="path36"
       style="fill:#1a1a1a;fill-opacity:1"
       inkscape:connector-curvature="0" />
  </g>
</svg>
